<?xml version="1.0" encoding="utf-8" standalone="no"?>
<!DOCTYPE svg PUBLIC "-//W3C//DTD SVG 1.1//EN"
  "http://www.w3.org/Graphics/SVG/1.1/DTD/svg11.dtd">
<svg xmlns:xlink="http://www.w3.org/1999/xlink" width="460.8pt" height="345.6pt" viewBox="0 0 460.8 345.6" xmlns="http://www.w3.org/2000/svg" version="1.1">
 <metadata>
  <rdf:RDF xmlns:dc="http://purl.org/dc/elements/1.1/" xmlns:cc="http://creativecommons.org/ns#" xmlns:rdf="http://www.w3.org/1999/02/22-rdf-syntax-ns#">
   <cc:Work>
    <dc:type rdf:resource="http://purl.org/dc/dcmitype/StillImage"/>
    <dc:format>image/svg+xml</dc:format>
    <dc:creator>
     <cc:Agent>
      <dc:title>Matplotlib v3.10.6, https://matplotlib.org/</dc:title>
     </cc:Agent>
    </dc:creator>
   </cc:Work>
  </rdf:RDF>
 </metadata>
 <defs>
  <style type="text/css">*{stroke-linejoin: round; stroke-linecap: butt}</style>
 </defs>
 <g id="figure_1">
  <g id="patch_1">
   <path d="M 0 345.6 
L 460.8 345.6 
L 460.8 0 
L 0 0 
z
" style="fill: #ffffff"/>
  </g>
  <g id="axes_1">
   <g id="patch_2">
    <path d="M 57.6 307.584 
L 414.72 307.584 
L 414.72 41.472 
L 57.6 41.472 
z
" style="fill: #ffffff"/>
   </g>
   <g id="matplotlib.axis_1">
    <g id="xtick_1">
     <g id="line2d_1">
      <defs>
       <path id="m2b53b57070" d="M 0 0 
L 0 3.5 
" style="stroke: #000000; stroke-width: 0.8"/>
      </defs>
      <g>
       <use xlink:href="#m2b53b57070" x="72.735226" y="307.584" style="stroke: #000000; stroke-width: 0.8"/>
      </g>
     </g>
     <g id="text_1">
      <!-- 0.6 -->
      <g transform="translate(64.783663 322.182437) scale(0.1 -0.1)">
       <defs>
        <path id="DejaVuSans-30" d="M 2034 4250 
Q 1547 4250 1301 3770 
Q 1056 3291 1056 2328 
Q 1056 1369 1301 889 
Q 1547 409 2034 409 
Q 2525 409 2770 889 
Q 3016 1369 3016 2328 
Q 3016 3291 2770 3770 
Q 2525 4250 2034 4250 
z
M 2034 4750 
Q 2819 4750 3233 4129 
Q 3647 3509 3647 2328 
Q 3647 1150 3233 529 
Q 2819 -91 2034 -91 
Q 1250 -91 836 529 
Q 422 1150 422 2328 
Q 422 3509 836 4129 
Q 1250 4750 2034 4750 
z
" transform="scale(0.015625)"/>
        <path id="DejaVuSans-2e" d="M 684 794 
L 1344 794 
L 1344 0 
L 684 0 
L 684 794 
z
" transform="scale(0.015625)"/>
        <path id="DejaVuSans-36" d="M 2113 2584 
Q 1688 2584 1439 2293 
Q 1191 2003 1191 1497 
Q 1191 994 1439 701 
Q 1688 409 2113 409 
Q 2538 409 2786 701 
Q 3034 994 3034 1497 
Q 3034 2003 2786 2293 
Q 2538 2584 2113 2584 
z
M 3366 4563 
L 3366 3988 
Q 3128 4100 2886 4159 
Q 2644 4219 2406 4219 
Q 1781 4219 1451 3797 
Q 1122 3375 1075 2522 
Q 1259 2794 1537 2939 
Q 1816 3084 2150 3084 
Q 2853 3084 3261 2657 
Q 3669 2231 3669 1497 
Q 3669 778 3244 343 
Q 2819 -91 2113 -91 
Q 1303 -91 875 529 
Q 447 1150 447 2328 
Q 447 3434 972 4092 
Q 1497 4750 2381 4750 
Q 2619 4750 2861 4703 
Q 3103 4656 3366 4563 
z
" transform="scale(0.015625)"/>
       </defs>
       <use xlink:href="#DejaVuSans-30"/>
       <use xlink:href="#DejaVuSans-2e" transform="translate(63.623047 0)"/>
       <use xlink:href="#DejaVuSans-36" transform="translate(95.410156 0)"/>
      </g>
     </g>
    </g>
    <g id="xtick_2">
     <g id="line2d_2">
      <g>
       <use xlink:href="#m2b53b57070" x="135.349853" y="307.584" style="stroke: #000000; stroke-width: 0.8"/>
      </g>
     </g>
     <g id="text_2">
      <!-- 0.8 -->
      <g transform="translate(127.398291 322.182437) scale(0.1 -0.1)">
       <defs>
        <path id="DejaVuSans-38" d="M 2034 2216 
Q 1584 2216 1326 1975 
Q 1069 1734 1069 1313 
Q 1069 891 1326 650 
Q 1584 409 2034 409 
Q 2484 409 2743 651 
Q 3003 894 3003 1313 
Q 3003 1734 2745 1975 
Q 2488 2216 2034 2216 
z
M 1403 2484 
Q 997 2584 770 2862 
Q 544 3141 544 3541 
Q 544 4100 942 4425 
Q 1341 4750 2034 4750 
Q 2731 4750 3128 4425 
Q 3525 4100 3525 3541 
Q 3525 3141 3298 2862 
Q 3072 2584 2669 2484 
Q 3125 2378 3379 2068 
Q 3634 1759 3634 1313 
Q 3634 634 3220 271 
Q 2806 -91 2034 -91 
Q 1263 -91 848 271 
Q 434 634 434 1313 
Q 434 1759 690 2068 
Q 947 2378 1403 2484 
z
M 1172 3481 
Q 1172 3119 1398 2916 
Q 1625 2713 2034 2713 
Q 2441 2713 2670 2916 
Q 2900 3119 2900 3481 
Q 2900 3844 2670 4047 
Q 2441 4250 2034 4250 
Q 1625 4250 1398 4047 
Q 1172 3844 1172 3481 
z
" transform="scale(0.015625)"/>
       </defs>
       <use xlink:href="#DejaVuSans-30"/>
       <use xlink:href="#DejaVuSans-2e" transform="translate(63.623047 0)"/>
       <use xlink:href="#DejaVuSans-38" transform="translate(95.410156 0)"/>
      </g>
     </g>
    </g>
    <g id="xtick_3">
     <g id="line2d_3">
      <g>
       <use xlink:href="#m2b53b57070" x="197.96448" y="307.584" style="stroke: #000000; stroke-width: 0.8"/>
      </g>
     </g>
     <g id="text_3">
      <!-- 1.0 -->
      <g transform="translate(190.012918 322.182437) scale(0.1 -0.1)">
       <defs>
        <path id="DejaVuSans-31" d="M 794 531 
L 1825 531 
L 1825 4091 
L 703 3866 
L 703 4441 
L 1819 4666 
L 2450 4666 
L 2450 531 
L 3481 531 
L 3481 0 
L 794 0 
L 794 531 
z
" transform="scale(0.015625)"/>
       </defs>
       <use xlink:href="#DejaVuSans-31"/>
       <use xlink:href="#DejaVuSans-2e" transform="translate(63.623047 0)"/>
       <use xlink:href="#DejaVuSans-30" transform="translate(95.410156 0)"/>
      </g>
     </g>
    </g>
    <g id="xtick_4">
     <g id="line2d_4">
      <g>
       <use xlink:href="#m2b53b57070" x="260.579108" y="307.584" style="stroke: #000000; stroke-width: 0.8"/>
      </g>
     </g>
     <g id="text_4">
      <!-- 1.2 -->
      <g transform="translate(252.627545 322.182437) scale(0.1 -0.1)">
       <defs>
        <path id="DejaVuSans-32" d="M 1228 531 
L 3431 531 
L 3431 0 
L 469 0 
L 469 531 
Q 828 903 1448 1529 
Q 2069 2156 2228 2338 
Q 2531 2678 2651 2914 
Q 2772 3150 2772 3378 
Q 2772 3750 2511 3984 
Q 2250 4219 1831 4219 
Q 1534 4219 1204 4116 
Q 875 4013 500 3803 
L 500 4441 
Q 881 4594 1212 4672 
Q 1544 4750 1819 4750 
Q 2544 4750 2975 4387 
Q 3406 4025 3406 3419 
Q 3406 3131 3298 2873 
Q 3191 2616 2906 2266 
Q 2828 2175 2409 1742 
Q 1991 1309 1228 531 
z
" transform="scale(0.015625)"/>
       </defs>
       <use xlink:href="#DejaVuSans-31"/>
       <use xlink:href="#DejaVuSans-2e" transform="translate(63.623047 0)"/>
       <use xlink:href="#DejaVuSans-32" transform="translate(95.410156 0)"/>
      </g>
     </g>
    </g>
    <g id="xtick_5">
     <g id="line2d_5">
      <g>
       <use xlink:href="#m2b53b57070" x="323.193735" y="307.584" style="stroke: #000000; stroke-width: 0.8"/>
      </g>
     </g>
     <g id="text_5">
      <!-- 1.4 -->
      <g transform="translate(315.242172 322.182437) scale(0.1 -0.1)">
       <defs>
        <path id="DejaVuSans-34" d="M 2419 4116 
L 825 1625 
L 2419 1625 
L 2419 4116 
z
M 2253 4666 
L 3047 4666 
L 3047 1625 
L 3713 1625 
L 3713 1100 
L 3047 1100 
L 3047 0 
L 2419 0 
L 2419 1100 
L 313 1100 
L 313 1709 
L 2253 4666 
z
" transform="scale(0.015625)"/>
       </defs>
       <use xlink:href="#DejaVuSans-31"/>
       <use xlink:href="#DejaVuSans-2e" transform="translate(63.623047 0)"/>
       <use xlink:href="#DejaVuSans-34" transform="translate(95.410156 0)"/>
      </g>
     </g>
    </g>
    <g id="xtick_6">
     <g id="line2d_6">
      <g>
       <use xlink:href="#m2b53b57070" x="385.808362" y="307.584" style="stroke: #000000; stroke-width: 0.8"/>
      </g>
     </g>
     <g id="text_6">
      <!-- 1.6 -->
      <g transform="translate(377.8568 322.182437) scale(0.1 -0.1)">
       <use xlink:href="#DejaVuSans-31"/>
       <use xlink:href="#DejaVuSans-2e" transform="translate(63.623047 0)"/>
       <use xlink:href="#DejaVuSans-36" transform="translate(95.410156 0)"/>
      </g>
     </g>
    </g>
    <g id="text_7">
     <!-- $d_t$ -->
     <g transform="translate(231.46 335.860562) scale(0.1 -0.1)">
      <defs>
       <path id="DejaVuSans-Oblique-64" d="M 2675 525 
Q 2444 222 2128 65 
Q 1813 -91 1428 -91 
Q 903 -91 598 267 
Q 294 625 294 1247 
Q 294 1766 478 2236 
Q 663 2706 1013 3078 
Q 1244 3325 1534 3454 
Q 1825 3584 2144 3584 
Q 2481 3584 2739 3421 
Q 2997 3259 3138 2956 
L 3513 4863 
L 4091 4863 
L 3144 0 
L 2566 0 
L 2675 525 
z
M 891 1350 
Q 891 897 1095 644 
Q 1300 391 1663 391 
Q 1931 391 2161 520 
Q 2391 650 2566 903 
Q 2750 1166 2856 1509 
Q 2963 1853 2963 2188 
Q 2963 2622 2758 2865 
Q 2553 3109 2194 3109 
Q 1922 3109 1687 2981 
Q 1453 2853 1288 2613 
Q 1106 2353 998 2009 
Q 891 1666 891 1350 
z
" transform="scale(0.015625)"/>
       <path id="DejaVuSans-Oblique-74" d="M 2706 3500 
L 2619 3053 
L 1472 3053 
L 1100 1153 
Q 1081 1047 1072 975 
Q 1063 903 1063 863 
Q 1063 663 1183 572 
Q 1303 481 1569 481 
L 2150 481 
L 2053 0 
L 1503 0 
Q 991 0 739 200 
Q 488 400 488 806 
Q 488 878 497 964 
Q 506 1050 525 1153 
L 897 3053 
L 409 3053 
L 500 3500 
L 978 3500 
L 1172 4494 
L 1747 4494 
L 1556 3500 
L 2706 3500 
z
" transform="scale(0.015625)"/>
      </defs>
      <use xlink:href="#DejaVuSans-Oblique-64" transform="translate(0 0.015625)"/>
      <use xlink:href="#DejaVuSans-Oblique-74" transform="translate(63.476562 -16.390625) scale(0.7)"/>
     </g>
    </g>
   </g>
   <g id="matplotlib.axis_2">
    <g id="ytick_1">
     <g id="line2d_7">
      <defs>
       <path id="ma7404e443d" d="M 0 0 
L -3.5 0 
" style="stroke: #000000; stroke-width: 0.8"/>
      </defs>
      <g>
       <use xlink:href="#ma7404e443d" x="57.6" y="295.495359" style="stroke: #000000; stroke-width: 0.8"/>
      </g>
     </g>
     <g id="text_8">
      <!-- 0 -->
      <g transform="translate(44.2375 299.294578) scale(0.1 -0.1)">
       <use xlink:href="#DejaVuSans-30"/>
      </g>
     </g>
    </g>
    <g id="ytick_2">
     <g id="line2d_8">
      <g>
       <use xlink:href="#ma7404e443d" x="57.6" y="265.354743" style="stroke: #000000; stroke-width: 0.8"/>
      </g>
     </g>
     <g id="text_9">
      <!-- 250 -->
      <g transform="translate(31.5125 269.153962) scale(0.1 -0.1)">
       <defs>
        <path id="DejaVuSans-35" d="M 691 4666 
L 3169 4666 
L 3169 4134 
L 1269 4134 
L 1269 2991 
Q 1406 3038 1543 3061 
Q 1681 3084 1819 3084 
Q 2600 3084 3056 2656 
Q 3513 2228 3513 1497 
Q 3513 744 3044 326 
Q 2575 -91 1722 -91 
Q 1428 -91 1123 -41 
Q 819 9 494 109 
L 494 744 
Q 775 591 1075 516 
Q 1375 441 1709 441 
Q 2250 441 2565 725 
Q 2881 1009 2881 1497 
Q 2881 1984 2565 2268 
Q 2250 2553 1709 2553 
Q 1456 2553 1204 2497 
Q 953 2441 691 2322 
L 691 4666 
z
" transform="scale(0.015625)"/>
       </defs>
       <use xlink:href="#DejaVuSans-32"/>
       <use xlink:href="#DejaVuSans-35" transform="translate(63.623047 0)"/>
       <use xlink:href="#DejaVuSans-30" transform="translate(127.246094 0)"/>
      </g>
     </g>
    </g>
    <g id="ytick_3">
     <g id="line2d_9">
      <g>
       <use xlink:href="#ma7404e443d" x="57.6" y="235.214127" style="stroke: #000000; stroke-width: 0.8"/>
      </g>
     </g>
     <g id="text_10">
      <!-- 500 -->
      <g transform="translate(31.5125 239.013346) scale(0.1 -0.1)">
       <use xlink:href="#DejaVuSans-35"/>
       <use xlink:href="#DejaVuSans-30" transform="translate(63.623047 0)"/>
       <use xlink:href="#DejaVuSans-30" transform="translate(127.246094 0)"/>
      </g>
     </g>
    </g>
    <g id="ytick_4">
     <g id="line2d_10">
      <g>
       <use xlink:href="#ma7404e443d" x="57.6" y="205.073511" style="stroke: #000000; stroke-width: 0.8"/>
      </g>
     </g>
     <g id="text_11">
      <!-- 750 -->
      <g transform="translate(31.5125 208.872729) scale(0.1 -0.1)">
       <defs>
        <path id="DejaVuSans-37" d="M 525 4666 
L 3525 4666 
L 3525 4397 
L 1831 0 
L 1172 0 
L 2766 4134 
L 525 4134 
L 525 4666 
z
" transform="scale(0.015625)"/>
       </defs>
       <use xlink:href="#DejaVuSans-37"/>
       <use xlink:href="#DejaVuSans-35" transform="translate(63.623047 0)"/>
       <use xlink:href="#DejaVuSans-30" transform="translate(127.246094 0)"/>
      </g>
     </g>
    </g>
    <g id="ytick_5">
     <g id="line2d_11">
      <g>
       <use xlink:href="#ma7404e443d" x="57.6" y="174.932895" style="stroke: #000000; stroke-width: 0.8"/>
      </g>
     </g>
     <g id="text_12">
      <!-- 1000 -->
      <g transform="translate(25.15 178.732113) scale(0.1 -0.1)">
       <use xlink:href="#DejaVuSans-31"/>
       <use xlink:href="#DejaVuSans-30" transform="translate(63.623047 0)"/>
       <use xlink:href="#DejaVuSans-30" transform="translate(127.246094 0)"/>
       <use xlink:href="#DejaVuSans-30" transform="translate(190.869141 0)"/>
      </g>
     </g>
    </g>
    <g id="ytick_6">
     <g id="line2d_12">
      <g>
       <use xlink:href="#ma7404e443d" x="57.6" y="144.792278" style="stroke: #000000; stroke-width: 0.8"/>
      </g>
     </g>
     <g id="text_13">
      <!-- 1250 -->
      <g transform="translate(25.15 148.591497) scale(0.1 -0.1)">
       <use xlink:href="#DejaVuSans-31"/>
       <use xlink:href="#DejaVuSans-32" transform="translate(63.623047 0)"/>
       <use xlink:href="#DejaVuSans-35" transform="translate(127.246094 0)"/>
       <use xlink:href="#DejaVuSans-30" transform="translate(190.869141 0)"/>
      </g>
     </g>
    </g>
    <g id="ytick_7">
     <g id="line2d_13">
      <g>
       <use xlink:href="#ma7404e443d" x="57.6" y="114.651662" style="stroke: #000000; stroke-width: 0.8"/>
      </g>
     </g>
     <g id="text_14">
      <!-- 1500 -->
      <g transform="translate(25.15 118.450881) scale(0.1 -0.1)">
       <use xlink:href="#DejaVuSans-31"/>
       <use xlink:href="#DejaVuSans-35" transform="translate(63.623047 0)"/>
       <use xlink:href="#DejaVuSans-30" transform="translate(127.246094 0)"/>
       <use xlink:href="#DejaVuSans-30" transform="translate(190.869141 0)"/>
      </g>
     </g>
    </g>
    <g id="ytick_8">
     <g id="line2d_14">
      <g>
       <use xlink:href="#ma7404e443d" x="57.6" y="84.511046" style="stroke: #000000; stroke-width: 0.8"/>
      </g>
     </g>
     <g id="text_15">
      <!-- 1750 -->
      <g transform="translate(25.15 88.310265) scale(0.1 -0.1)">
       <use xlink:href="#DejaVuSans-31"/>
       <use xlink:href="#DejaVuSans-37" transform="translate(63.623047 0)"/>
       <use xlink:href="#DejaVuSans-35" transform="translate(127.246094 0)"/>
       <use xlink:href="#DejaVuSans-30" transform="translate(190.869141 0)"/>
      </g>
     </g>
    </g>
    <g id="ytick_9">
     <g id="line2d_15">
      <g>
       <use xlink:href="#ma7404e443d" x="57.6" y="54.37043" style="stroke: #000000; stroke-width: 0.8"/>
      </g>
     </g>
     <g id="text_16">
      <!-- 2000 -->
      <g transform="translate(25.15 58.169649) scale(0.1 -0.1)">
       <use xlink:href="#DejaVuSans-32"/>
       <use xlink:href="#DejaVuSans-30" transform="translate(63.623047 0)"/>
       <use xlink:href="#DejaVuSans-30" transform="translate(127.246094 0)"/>
       <use xlink:href="#DejaVuSans-30" transform="translate(190.869141 0)"/>
      </g>
     </g>
    </g>
    <g id="text_17">
     <!-- $P^*(d_t)$ -->
     <g transform="translate(19.070312 189.778) rotate(-90) scale(0.1 -0.1)">
      <defs>
       <path id="DejaVuSans-Oblique-50" d="M 1081 4666 
L 2541 4666 
Q 3178 4666 3512 4369 
Q 3847 4072 3847 3500 
Q 3847 2731 3353 2303 
Q 2859 1875 1966 1875 
L 1172 1875 
L 806 0 
L 172 0 
L 1081 4666 
z
M 1613 4147 
L 1275 2394 
L 2069 2394 
Q 2606 2394 2893 2669 
Q 3181 2944 3181 3456 
Q 3181 3784 2986 3965 
Q 2791 4147 2438 4147 
L 1613 4147 
z
" transform="scale(0.015625)"/>
       <path id="DejaVuSans-2a" d="M 3009 3897 
L 1888 3291 
L 3009 2681 
L 2828 2375 
L 1778 3009 
L 1778 1831 
L 1422 1831 
L 1422 3009 
L 372 2375 
L 191 2681 
L 1313 3291 
L 191 3897 
L 372 4206 
L 1422 3572 
L 1422 4750 
L 1778 4750 
L 1778 3572 
L 2828 4206 
L 3009 3897 
z
" transform="scale(0.015625)"/>
       <path id="DejaVuSans-28" d="M 1984 4856 
Q 1566 4138 1362 3434 
Q 1159 2731 1159 2009 
Q 1159 1288 1364 580 
Q 1569 -128 1984 -844 
L 1484 -844 
Q 1016 -109 783 600 
Q 550 1309 550 2009 
Q 550 2706 781 3412 
Q 1013 4119 1484 4856 
L 1984 4856 
z
" transform="scale(0.015625)"/>
       <path id="DejaVuSans-29" d="M 513 4856 
L 1013 4856 
Q 1481 4119 1714 3412 
Q 1947 2706 1947 2009 
Q 1947 1309 1714 600 
Q 1481 -109 1013 -844 
L 513 -844 
Q 928 -128 1133 580 
Q 1338 1288 1338 2009 
Q 1338 2731 1133 3434 
Q 928 4138 513 4856 
z
" transform="scale(0.015625)"/>
      </defs>
      <use xlink:href="#DejaVuSans-Oblique-50" transform="translate(0 0.765625)"/>
      <use xlink:href="#DejaVuSans-2a" transform="translate(80.957201 39.046875) scale(0.7)"/>
      <use xlink:href="#DejaVuSans-28" transform="translate(132.329271 0.765625)"/>
      <use xlink:href="#DejaVuSans-Oblique-64" transform="translate(171.342943 0.765625)"/>
      <use xlink:href="#DejaVuSans-Oblique-74" transform="translate(234.819505 -15.640625) scale(0.7)"/>
      <use xlink:href="#DejaVuSans-29" transform="translate(265.000169 0.765625)"/>
     </g>
    </g>
   </g>
   <g id="line2d_16">
    <path d="M 73.832727 295.488 
L 75.750898 295.487218 
L 77.688541 295.486352 
L 79.645857 295.485395 
L 81.623043 295.484336 
L 83.620302 295.483165 
L 85.637838 295.481868 
L 87.675856 295.480435 
L 89.734564 295.478848 
L 91.814173 295.477093 
L 93.914894 295.475152 
L 96.036943 295.473004 
L 98.180534 295.470628 
L 100.345888 295.467999 
L 102.533226 295.465091 
L 104.742769 295.461874 
L 106.974744 295.458315 
L 109.229379 295.454378 
L 111.506903 295.450022 
L 113.807549 295.445203 
L 116.131551 295.439872 
L 118.479147 295.433975 
L 120.850577 295.427451 
L 123.246082 295.420233 
L 125.665906 295.412248 
L 128.110297 295.403414 
L 130.579504 295.393641 
L 133.073778 295.38283 
L 135.593375 295.370869 
L 138.138552 295.357638 
L 140.709568 295.343 
L 143.306685 295.326806 
L 145.930168 295.30889 
L 148.580286 295.289071 
L 151.257308 295.267145 
L 153.961508 295.242889 
L 156.693162 295.216054 
L 159.452547 295.186368 
L 162.239947 295.153526 
L 165.055645 295.117193 
L 167.899928 295.076998 
L 170.773087 295.032532 
L 173.675415 294.983339 
L 176.607208 294.928917 
L 179.568765 294.868712 
L 182.560388 294.802107 
L 185.582383 294.728422 
L 188.635058 294.646906 
L 191.718724 294.556726 
L 194.833696 294.456961 
L 197.980292 294.346592 
L 201.158833 294.224492 
L 204.369643 294.089414 
L 207.61305 293.939979 
L 210.889385 293.774661 
L 214.198981 293.591772 
L 217.542177 293.389444 
L 220.919314 293.165611 
L 224.330737 292.917987 
L 227.776792 292.644044 
L 231.257833 292.340983 
L 234.774214 292.005712 
L 238.326294 291.634805 
L 241.914436 291.224475 
L 245.539004 290.770532 
L 249.200371 290.26834 
L 252.898908 289.712772 
L 256.634993 289.098153 
L 260.409008 288.418208 
L 264.221338 287.665993 
L 268.072371 286.833827 
L 271.9625 285.913212 
L 275.892123 284.894746 
L 279.86164 283.76803 
L 283.871457 282.521558 
L 287.921982 281.142601 
L 292.013628 279.617078 
L 296.146814 277.92941 
L 300.321961 276.062364 
L 304.539495 273.996873 
L 308.799845 271.711846 
L 313.103448 269.183948 
L 317.450742 266.387366 
L 321.842171 263.293541 
L 326.278182 259.87088 
L 330.759228 256.084432 
L 335.285767 251.89553 
L 339.85826 247.261399 
L 344.477174 242.134717 
L 349.14298 236.463131 
L 353.856154 230.188725 
L 358.617178 223.247425 
L 363.426536 215.56835 
L 368.28472 207.073083 
L 373.192225 197.674872 
L 378.149552 187.277746 
L 383.157207 175.775532 
L 388.2157 163.050773 
L 393.325548 148.973527 
L 398.487273 133.400042 
" clip-path="url(#paafe8f6d4a)" style="fill: none; stroke: #1f77b4; stroke-width: 1.5; stroke-linecap: square"/>
   </g>
   <g id="line2d_17">
    <path d="M 73.832727 295.484818 
L 75.750898 295.483697 
L 77.688541 295.482458 
L 79.645857 295.481087 
L 81.623043 295.47957 
L 83.620302 295.477891 
L 85.637838 295.476035 
L 87.675856 295.473981 
L 89.734564 295.471709 
L 91.814173 295.469195 
L 93.914894 295.466414 
L 96.036943 295.463337 
L 98.180534 295.459934 
L 100.345888 295.456168 
L 102.533226 295.452003 
L 104.742769 295.447395 
L 106.974744 295.442297 
L 109.229379 295.436657 
L 111.506903 295.430418 
L 113.807549 295.423515 
L 116.131551 295.415879 
L 118.479147 295.407431 
L 120.850577 295.398085 
L 123.246082 295.387746 
L 125.665906 295.376309 
L 128.110297 295.363655 
L 130.579504 295.349656 
L 133.073778 295.33417 
L 135.593375 295.317037 
L 138.138552 295.298084 
L 140.709568 295.277116 
L 143.306685 295.25392 
L 145.930168 295.228257 
L 148.580286 295.199868 
L 151.257308 295.168461 
L 153.961508 295.133715 
L 156.693162 295.095277 
L 159.452547 295.052753 
L 162.239947 295.00571 
L 165.055645 294.953666 
L 167.899928 294.89609 
L 170.773087 294.832395 
L 173.675415 294.76193 
L 176.607208 294.683976 
L 179.568765 294.597736 
L 182.560388 294.502329 
L 185.582383 294.396782 
L 188.635058 294.280017 
L 191.718724 294.150841 
L 194.833696 294.007935 
L 197.980292 293.84984 
L 201.158833 293.674941 
L 204.369643 293.481453 
L 207.61305 293.2674 
L 210.889385 293.030595 
L 214.198981 292.76862 
L 217.542177 292.478801 
L 220.919314 292.158178 
L 224.330737 291.803476 
L 227.776792 291.411074 
L 231.257833 290.976964 
L 234.774214 290.496714 
L 238.326294 289.965419 
L 241.914436 289.377653 
L 245.539004 288.727416 
L 249.200371 288.008066 
L 252.898908 287.212258 
L 256.634993 286.331865 
L 260.409008 285.357897 
L 264.221338 284.280408 
L 268.072371 283.088396 
L 271.9625 281.769687 
L 275.892123 280.310815 
L 279.86164 278.696883 
L 283.871457 276.91141 
L 287.921982 274.936162 
L 292.013628 272.75097 
L 296.146814 270.333519 
L 300.321961 267.659121 
L 304.539495 264.700469 
L 308.799845 261.427347 
L 313.103448 257.806332 
L 317.450742 253.800448 
L 321.842171 249.368787 
L 326.278182 244.466094 
L 330.759228 239.042305 
L 335.285767 233.042033 
L 339.85826 226.404006 
L 344.477174 219.060436 
L 349.14298 210.936335 
L 353.856154 201.948741 
L 358.617178 192.005876 
L 363.426536 181.006205 
L 368.28472 168.837402 
L 373.192225 155.375205 
L 378.149552 140.482139 
L 383.157207 124.006123 
L 388.2157 105.778906 
L 393.325548 85.614359 
L 398.487273 63.306566 
" clip-path="url(#paafe8f6d4a)" style="fill: none; stroke: #ff7f0e; stroke-width: 1.5; stroke-linecap: square"/>
   </g>
   <g id="line2d_18">
    <path d="M 73.832727 295.484376 
L 75.750898 295.483208 
L 77.688541 295.481917 
L 79.645857 295.480488 
L 81.623043 295.478907 
L 83.620302 295.477159 
L 85.637838 295.475224 
L 87.675856 295.473084 
L 89.734564 295.470717 
L 91.814173 295.468097 
L 93.914894 295.4652 
L 96.036943 295.461994 
L 98.180534 295.458448 
L 100.345888 295.454525 
L 102.533226 295.450185 
L 104.742769 295.445383 
L 106.974744 295.440071 
L 109.229379 295.434195 
L 111.506903 295.427694 
L 113.807549 295.420502 
L 116.131551 295.412545 
L 118.479147 295.403743 
L 120.850577 295.394006 
L 123.246082 295.383233 
L 125.665906 295.371315 
L 128.110297 295.358131 
L 130.579504 295.343545 
L 133.073778 295.327409 
L 135.593375 295.309558 
L 138.138552 295.28981 
L 140.709568 295.267962 
L 143.306685 295.243793 
L 145.930168 295.217055 
L 148.580286 295.187474 
L 151.257308 295.15475 
L 153.961508 295.118547 
L 156.693162 295.078497 
L 159.452547 295.034189 
L 162.239947 294.985172 
L 165.055645 294.930946 
L 167.899928 294.870956 
L 170.773087 294.804589 
L 173.675415 294.731169 
L 176.607208 294.649945 
L 179.568765 294.560087 
L 182.560388 294.460679 
L 185.582383 294.350705 
L 188.635058 294.229043 
L 191.718724 294.094449 
L 194.833696 293.945549 
L 197.980292 293.780823 
L 201.158833 293.598589 
L 204.369643 293.396985 
L 207.61305 293.173954 
L 210.889385 292.927216 
L 214.198981 292.654254 
L 217.542177 292.352279 
L 220.919314 292.018208 
L 224.330737 291.648629 
L 227.776792 291.239769 
L 231.257833 290.787451 
L 234.774214 290.287058 
L 238.326294 289.733479 
L 241.914436 289.121062 
L 245.539004 288.443552 
L 249.200371 287.69403 
L 252.898908 286.864844 
L 256.634993 285.947526 
L 260.409008 284.932707 
L 264.221338 283.810026 
L 268.072371 282.568017 
L 271.9625 281.193998 
L 275.892123 279.673938 
L 279.86164 277.992314 
L 283.871457 276.131953 
L 287.921982 274.073859 
L 292.013628 271.797015 
L 296.146814 269.278169 
L 300.321961 266.491602 
L 304.539495 263.408856 
L 308.799845 259.998451 
L 313.103448 256.225562 
L 317.450742 252.051661 
L 321.842171 247.434126 
L 326.278182 242.325802 
L 330.759228 236.674526 
L 335.285767 230.422588 
L 339.85826 223.506145 
L 344.477174 215.854569 
L 349.14298 207.389723 
L 353.856154 198.025168 
L 358.617178 187.665274 
L 363.426536 176.20425 
L 368.28472 163.525058 
L 373.192225 149.498223 
L 378.149552 133.980506 
L 383.157207 116.813445 
L 388.2157 97.821734 
L 393.325548 76.811437 
L 398.487273 53.568 
" clip-path="url(#paafe8f6d4a)" style="fill: none; stroke: #2ca02c; stroke-width: 1.5; stroke-linecap: square"/>
   </g>
   <g id="line2d_19">
    <defs>
     <path id="m1ba922f844" d="M 0 -3 
L -0.673542 -0.927051 
L -2.85317 -0.927051 
L -1.089814 0.354102 
L -1.763356 2.427051 
L -0 1.145898 
L 1.763356 2.427051 
L 1.089814 0.354102 
L 2.85317 -0.927051 
L 0.673542 -0.927051 
z
" style="stroke: #d62728; stroke-linejoin: bevel"/>
    </defs>
    <g clip-path="url(#paafe8f6d4a)">
     <use xlink:href="#m1ba922f844" x="73.832727" y="295.484452" style="fill: #d62728; stroke: #d62728; stroke-linejoin: bevel"/>
     <use xlink:href="#m1ba922f844" x="75.750898" y="295.483293" style="fill: #d62728; stroke: #d62728; stroke-linejoin: bevel"/>
     <use xlink:href="#m1ba922f844" x="77.688541" y="295.48201" style="fill: #d62728; stroke: #d62728; stroke-linejoin: bevel"/>
     <use xlink:href="#m1ba922f844" x="79.645857" y="295.480592" style="fill: #d62728; stroke: #d62728; stroke-linejoin: bevel"/>
     <use xlink:href="#m1ba922f844" x="81.623043" y="295.479022" style="fill: #d62728; stroke: #d62728; stroke-linejoin: bevel"/>
     <use xlink:href="#m1ba922f844" x="83.620302" y="295.477286" style="fill: #d62728; stroke: #d62728; stroke-linejoin: bevel"/>
     <use xlink:href="#m1ba922f844" x="85.637838" y="295.475365" style="fill: #d62728; stroke: #d62728; stroke-linejoin: bevel"/>
     <use xlink:href="#m1ba922f844" x="87.675856" y="295.47324" style="fill: #d62728; stroke: #d62728; stroke-linejoin: bevel"/>
     <use xlink:href="#m1ba922f844" x="89.734564" y="295.470888" style="fill: #d62728; stroke: #d62728; stroke-linejoin: bevel"/>
     <use xlink:href="#m1ba922f844" x="91.814173" y="295.468288" style="fill: #d62728; stroke: #d62728; stroke-linejoin: bevel"/>
     <use xlink:href="#m1ba922f844" x="93.914894" y="295.46541" style="fill: #d62728; stroke: #d62728; stroke-linejoin: bevel"/>
     <use xlink:href="#m1ba922f844" x="96.036943" y="295.462227" style="fill: #d62728; stroke: #d62728; stroke-linejoin: bevel"/>
     <use xlink:href="#m1ba922f844" x="98.180534" y="295.458705" style="fill: #d62728; stroke: #d62728; stroke-linejoin: bevel"/>
     <use xlink:href="#m1ba922f844" x="100.345888" y="295.45481" style="fill: #d62728; stroke: #d62728; stroke-linejoin: bevel"/>
     <use xlink:href="#m1ba922f844" x="102.533226" y="295.4505" style="fill: #d62728; stroke: #d62728; stroke-linejoin: bevel"/>
     <use xlink:href="#m1ba922f844" x="104.742769" y="295.445732" style="fill: #d62728; stroke: #d62728; stroke-linejoin: bevel"/>
     <use xlink:href="#m1ba922f844" x="106.974744" y="295.440457" style="fill: #d62728; stroke: #d62728; stroke-linejoin: bevel"/>
     <use xlink:href="#m1ba922f844" x="109.229379" y="295.434621" style="fill: #d62728; stroke: #d62728; stroke-linejoin: bevel"/>
     <use xlink:href="#m1ba922f844" x="111.506903" y="295.428166" style="fill: #d62728; stroke: #d62728; stroke-linejoin: bevel"/>
     <use xlink:href="#m1ba922f844" x="113.807549" y="295.421024" style="fill: #d62728; stroke: #d62728; stroke-linejoin: bevel"/>
     <use xlink:href="#m1ba922f844" x="116.131551" y="295.413123" style="fill: #d62728; stroke: #d62728; stroke-linejoin: bevel"/>
     <use xlink:href="#m1ba922f844" x="118.479147" y="295.404382" style="fill: #d62728; stroke: #d62728; stroke-linejoin: bevel"/>
     <use xlink:href="#m1ba922f844" x="120.850577" y="295.394713" style="fill: #d62728; stroke: #d62728; stroke-linejoin: bevel"/>
     <use xlink:href="#m1ba922f844" x="123.246082" y="295.384015" style="fill: #d62728; stroke: #d62728; stroke-linejoin: bevel"/>
     <use xlink:href="#m1ba922f844" x="125.665906" y="295.372181" style="fill: #d62728; stroke: #d62728; stroke-linejoin: bevel"/>
     <use xlink:href="#m1ba922f844" x="128.110297" y="295.359088" style="fill: #d62728; stroke: #d62728; stroke-linejoin: bevel"/>
     <use xlink:href="#m1ba922f844" x="130.579504" y="295.344604" style="fill: #d62728; stroke: #d62728; stroke-linejoin: bevel"/>
     <use xlink:href="#m1ba922f844" x="133.073778" y="295.328581" style="fill: #d62728; stroke: #d62728; stroke-linejoin: bevel"/>
     <use xlink:href="#m1ba922f844" x="135.593375" y="295.310854" style="fill: #d62728; stroke: #d62728; stroke-linejoin: bevel"/>
     <use xlink:href="#m1ba922f844" x="138.138552" y="295.291244" style="fill: #d62728; stroke: #d62728; stroke-linejoin: bevel"/>
     <use xlink:href="#m1ba922f844" x="140.709568" y="295.269549" style="fill: #d62728; stroke: #d62728; stroke-linejoin: bevel"/>
     <use xlink:href="#m1ba922f844" x="143.306685" y="295.245548" style="fill: #d62728; stroke: #d62728; stroke-linejoin: bevel"/>
     <use xlink:href="#m1ba922f844" x="145.930168" y="295.218996" style="fill: #d62728; stroke: #d62728; stroke-linejoin: bevel"/>
     <use xlink:href="#m1ba922f844" x="148.580286" y="295.189622" style="fill: #d62728; stroke: #d62728; stroke-linejoin: bevel"/>
     <use xlink:href="#m1ba922f844" x="151.257308" y="295.157126" style="fill: #d62728; stroke: #d62728; stroke-linejoin: bevel"/>
     <use xlink:href="#m1ba922f844" x="153.961508" y="295.121176" style="fill: #d62728; stroke: #d62728; stroke-linejoin: bevel"/>
     <use xlink:href="#m1ba922f844" x="156.693162" y="295.081405" style="fill: #d62728; stroke: #d62728; stroke-linejoin: bevel"/>
     <use xlink:href="#m1ba922f844" x="159.452547" y="295.037406" style="fill: #d62728; stroke: #d62728; stroke-linejoin: bevel"/>
     <use xlink:href="#m1ba922f844" x="162.239947" y="294.988731" style="fill: #d62728; stroke: #d62728; stroke-linejoin: bevel"/>
     <use xlink:href="#m1ba922f844" x="165.055645" y="294.934883" style="fill: #d62728; stroke: #d62728; stroke-linejoin: bevel"/>
     <use xlink:href="#m1ba922f844" x="167.899928" y="294.875311" style="fill: #d62728; stroke: #d62728; stroke-linejoin: bevel"/>
     <use xlink:href="#m1ba922f844" x="170.773087" y="294.809408" style="fill: #d62728; stroke: #d62728; stroke-linejoin: bevel"/>
     <use xlink:href="#m1ba922f844" x="173.675415" y="294.736499" style="fill: #d62728; stroke: #d62728; stroke-linejoin: bevel"/>
     <use xlink:href="#m1ba922f844" x="176.607208" y="294.655842" style="fill: #d62728; stroke: #d62728; stroke-linejoin: bevel"/>
     <use xlink:href="#m1ba922f844" x="179.568765" y="294.566612" style="fill: #d62728; stroke: #d62728; stroke-linejoin: bevel"/>
     <use xlink:href="#m1ba922f844" x="182.560388" y="294.467897" style="fill: #d62728; stroke: #d62728; stroke-linejoin: bevel"/>
     <use xlink:href="#m1ba922f844" x="185.582383" y="294.35869" style="fill: #d62728; stroke: #d62728; stroke-linejoin: bevel"/>
     <use xlink:href="#m1ba922f844" x="188.635058" y="294.237876" style="fill: #d62728; stroke: #d62728; stroke-linejoin: bevel"/>
     <use xlink:href="#m1ba922f844" x="191.718724" y="294.104221" style="fill: #d62728; stroke: #d62728; stroke-linejoin: bevel"/>
     <use xlink:href="#m1ba922f844" x="194.833696" y="293.95636" style="fill: #d62728; stroke: #d62728; stroke-linejoin: bevel"/>
     <use xlink:href="#m1ba922f844" x="197.980292" y="293.792783" style="fill: #d62728; stroke: #d62728; stroke-linejoin: bevel"/>
     <use xlink:href="#m1ba922f844" x="201.158833" y="293.61182" style="fill: #d62728; stroke: #d62728; stroke-linejoin: bevel"/>
     <use xlink:href="#m1ba922f844" x="204.369643" y="293.411623" style="fill: #d62728; stroke: #d62728; stroke-linejoin: bevel"/>
     <use xlink:href="#m1ba922f844" x="207.61305" y="293.190147" style="fill: #d62728; stroke: #d62728; stroke-linejoin: bevel"/>
     <use xlink:href="#m1ba922f844" x="210.889385" y="292.945131" style="fill: #d62728; stroke: #d62728; stroke-linejoin: bevel"/>
     <use xlink:href="#m1ba922f844" x="214.198981" y="292.674073" style="fill: #d62728; stroke: #d62728; stroke-linejoin: bevel"/>
     <use xlink:href="#m1ba922f844" x="217.542177" y="292.374205" style="fill: #d62728; stroke: #d62728; stroke-linejoin: bevel"/>
     <use xlink:href="#m1ba922f844" x="220.919314" y="292.042464" style="fill: #d62728; stroke: #d62728; stroke-linejoin: bevel"/>
     <use xlink:href="#m1ba922f844" x="224.330737" y="291.675463" style="fill: #d62728; stroke: #d62728; stroke-linejoin: bevel"/>
     <use xlink:href="#m1ba922f844" x="227.776792" y="291.269455" style="fill: #d62728; stroke: #d62728; stroke-linejoin: bevel"/>
     <use xlink:href="#m1ba922f844" x="231.257833" y="290.820293" style="fill: #d62728; stroke: #d62728; stroke-linejoin: bevel"/>
     <use xlink:href="#m1ba922f844" x="234.774214" y="290.32339" style="fill: #d62728; stroke: #d62728; stroke-linejoin: bevel"/>
     <use xlink:href="#m1ba922f844" x="238.326294" y="289.773673" style="fill: #d62728; stroke: #d62728; stroke-linejoin: bevel"/>
     <use xlink:href="#m1ba922f844" x="241.914436" y="289.165527" style="fill: #d62728; stroke: #d62728; stroke-linejoin: bevel"/>
     <use xlink:href="#m1ba922f844" x="245.539004" y="288.492743" style="fill: #d62728; stroke: #d62728; stroke-linejoin: bevel"/>
     <use xlink:href="#m1ba922f844" x="249.200371" y="287.748451" style="fill: #d62728; stroke: #d62728; stroke-linejoin: bevel"/>
     <use xlink:href="#m1ba922f844" x="252.898908" y="286.925049" style="fill: #d62728; stroke: #d62728; stroke-linejoin: bevel"/>
     <use xlink:href="#m1ba922f844" x="256.634993" y="286.014129" style="fill: #d62728; stroke: #d62728; stroke-linejoin: bevel"/>
     <use xlink:href="#m1ba922f844" x="260.409008" y="285.00639" style="fill: #d62728; stroke: #d62728; stroke-linejoin: bevel"/>
     <use xlink:href="#m1ba922f844" x="264.221338" y="283.89154" style="fill: #d62728; stroke: #d62728; stroke-linejoin: bevel"/>
     <use xlink:href="#m1ba922f844" x="268.072371" y="282.658196" style="fill: #d62728; stroke: #d62728; stroke-linejoin: bevel"/>
     <use xlink:href="#m1ba922f844" x="271.9625" y="281.293761" style="fill: #d62728; stroke: #d62728; stroke-linejoin: bevel"/>
     <use xlink:href="#m1ba922f844" x="275.892123" y="279.784305" style="fill: #d62728; stroke: #d62728; stroke-linejoin: bevel"/>
     <use xlink:href="#m1ba922f844" x="279.86164" y="278.114411" style="fill: #d62728; stroke: #d62728; stroke-linejoin: bevel"/>
     <use xlink:href="#m1ba922f844" x="283.871457" y="276.267028" style="fill: #d62728; stroke: #d62728; stroke-linejoin: bevel"/>
     <use xlink:href="#m1ba922f844" x="287.921982" y="274.223291" style="fill: #d62728; stroke: #d62728; stroke-linejoin: bevel"/>
     <use xlink:href="#m1ba922f844" x="292.013628" y="271.962329" style="fill: #d62728; stroke: #d62728; stroke-linejoin: bevel"/>
     <use xlink:href="#m1ba922f844" x="296.146814" y="269.461055" style="fill: #d62728; stroke: #d62728; stroke-linejoin: bevel"/>
     <use xlink:href="#m1ba922f844" x="300.321961" y="266.693925" style="fill: #d62728; stroke: #d62728; stroke-linejoin: bevel"/>
     <use xlink:href="#m1ba922f844" x="304.539495" y="263.632684" style="fill: #d62728; stroke: #d62728; stroke-linejoin: bevel"/>
     <use xlink:href="#m1ba922f844" x="308.799845" y="260.24607" style="fill: #d62728; stroke: #d62728; stroke-linejoin: bevel"/>
     <use xlink:href="#m1ba922f844" x="313.103448" y="256.499499" style="fill: #d62728; stroke: #d62728; stroke-linejoin: bevel"/>
     <use xlink:href="#m1ba922f844" x="317.450742" y="252.354715" style="fill: #d62728; stroke: #d62728; stroke-linejoin: bevel"/>
     <use xlink:href="#m1ba922f844" x="321.842171" y="247.76939" style="fill: #d62728; stroke: #d62728; stroke-linejoin: bevel"/>
     <use xlink:href="#m1ba922f844" x="326.278182" y="242.696701" style="fill: #d62728; stroke: #d62728; stroke-linejoin: bevel"/>
     <use xlink:href="#m1ba922f844" x="330.759228" y="237.084847" style="fill: #d62728; stroke: #d62728; stroke-linejoin: bevel"/>
     <use xlink:href="#m1ba922f844" x="335.285767" y="230.876521" style="fill: #d62728; stroke: #d62728; stroke-linejoin: bevel"/>
     <use xlink:href="#m1ba922f844" x="339.85826" y="224.008326" style="fill: #d62728; stroke: #d62728; stroke-linejoin: bevel"/>
     <use xlink:href="#m1ba922f844" x="344.477174" y="216.410125" style="fill: #d62728; stroke: #d62728; stroke-linejoin: bevel"/>
     <use xlink:href="#m1ba922f844" x="349.14298" y="208.004328" style="fill: #d62728; stroke: #d62728; stroke-linejoin: bevel"/>
     <use xlink:href="#m1ba922f844" x="353.856154" y="198.705097" style="fill: #d62728; stroke: #d62728; stroke-linejoin: bevel"/>
     <use xlink:href="#m1ba922f844" x="358.617178" y="188.417472" style="fill: #d62728; stroke: #d62728; stroke-linejoin: bevel"/>
     <use xlink:href="#m1ba922f844" x="363.426536" y="177.036397" style="fill: #d62728; stroke: #d62728; stroke-linejoin: bevel"/>
     <use xlink:href="#m1ba922f844" x="368.28472" y="164.445653" style="fill: #d62728; stroke: #d62728; stroke-linejoin: bevel"/>
     <use xlink:href="#m1ba922f844" x="373.192225" y="150.516666" style="fill: #d62728; stroke: #d62728; stroke-linejoin: bevel"/>
     <use xlink:href="#m1ba922f844" x="378.149552" y="135.107197" style="fill: #d62728; stroke: #d62728; stroke-linejoin: bevel"/>
     <use xlink:href="#m1ba922f844" x="383.157207" y="118.059889" style="fill: #d62728; stroke: #d62728; stroke-linejoin: bevel"/>
     <use xlink:href="#m1ba922f844" x="388.2157" y="99.200661" style="fill: #d62728; stroke: #d62728; stroke-linejoin: bevel"/>
     <use xlink:href="#m1ba922f844" x="393.325548" y="78.336926" style="fill: #d62728; stroke: #d62728; stroke-linejoin: bevel"/>
     <use xlink:href="#m1ba922f844" x="398.487273" y="55.25563" style="fill: #d62728; stroke: #d62728; stroke-linejoin: bevel"/>
    </g>
   </g>
   <g id="patch_3">
    <path d="M 57.6 307.584 
L 57.6 41.472 
" style="fill: none; stroke: #000000; stroke-width: 0.8; stroke-linejoin: miter; stroke-linecap: square"/>
   </g>
   <g id="patch_4">
    <path d="M 414.72 307.584 
L 414.72 41.472 
" style="fill: none; stroke: #000000; stroke-width: 0.8; stroke-linejoin: miter; stroke-linecap: square"/>
   </g>
   <g id="patch_5">
    <path d="M 57.6 307.584 
L 414.72 307.584 
" style="fill: none; stroke: #000000; stroke-width: 0.8; stroke-linejoin: miter; stroke-linecap: square"/>
   </g>
   <g id="patch_6">
    <path d="M 57.6 41.472 
L 414.72 41.472 
" style="fill: none; stroke: #000000; stroke-width: 0.8; stroke-linejoin: miter; stroke-linecap: square"/>
   </g>
   <g id="legend_1">
    <g id="patch_7">
     <path d="M 64.6 108.1845 
L 188.482812 108.1845 
Q 190.482812 108.1845 190.482812 106.1845 
L 190.482812 48.472 
Q 190.482812 46.472 188.482812 46.472 
L 64.6 46.472 
Q 62.6 46.472 62.6 48.472 
L 62.6 106.1845 
Q 62.6 108.1845 64.6 108.1845 
z
" style="fill: #ffffff; opacity: 0.8; stroke: #cccccc; stroke-linejoin: miter"/>
    </g>
    <g id="line2d_20">
     <path d="M 66.6 54.570438 
L 76.6 54.570438 
L 86.6 54.570438 
" style="fill: none; stroke: #1f77b4; stroke-width: 1.5; stroke-linecap: square"/>
    </g>
    <g id="text_18">
     <!-- Num.Sol. $n^\#$ = 1 -->
     <g transform="translate(94.6 58.070438) scale(0.1 -0.1)">
      <defs>
       <path id="DejaVuSans-4e" d="M 628 4666 
L 1478 4666 
L 3547 763 
L 3547 4666 
L 4159 4666 
L 4159 0 
L 3309 0 
L 1241 3903 
L 1241 0 
L 628 0 
L 628 4666 
z
" transform="scale(0.015625)"/>
       <path id="DejaVuSans-75" d="M 544 1381 
L 544 3500 
L 1119 3500 
L 1119 1403 
Q 1119 906 1312 657 
Q 1506 409 1894 409 
Q 2359 409 2629 706 
Q 2900 1003 2900 1516 
L 2900 3500 
L 3475 3500 
L 3475 0 
L 2900 0 
L 2900 538 
Q 2691 219 2414 64 
Q 2138 -91 1772 -91 
Q 1169 -91 856 284 
Q 544 659 544 1381 
z
M 1991 3584 
L 1991 3584 
z
" transform="scale(0.015625)"/>
       <path id="DejaVuSans-6d" d="M 3328 2828 
Q 3544 3216 3844 3400 
Q 4144 3584 4550 3584 
Q 5097 3584 5394 3201 
Q 5691 2819 5691 2113 
L 5691 0 
L 5113 0 
L 5113 2094 
Q 5113 2597 4934 2840 
Q 4756 3084 4391 3084 
Q 3944 3084 3684 2787 
Q 3425 2491 3425 1978 
L 3425 0 
L 2847 0 
L 2847 2094 
Q 2847 2600 2669 2842 
Q 2491 3084 2119 3084 
Q 1678 3084 1418 2786 
Q 1159 2488 1159 1978 
L 1159 0 
L 581 0 
L 581 3500 
L 1159 3500 
L 1159 2956 
Q 1356 3278 1631 3431 
Q 1906 3584 2284 3584 
Q 2666 3584 2933 3390 
Q 3200 3197 3328 2828 
z
" transform="scale(0.015625)"/>
       <path id="DejaVuSans-53" d="M 3425 4513 
L 3425 3897 
Q 3066 4069 2747 4153 
Q 2428 4238 2131 4238 
Q 1616 4238 1336 4038 
Q 1056 3838 1056 3469 
Q 1056 3159 1242 3001 
Q 1428 2844 1947 2747 
L 2328 2669 
Q 3034 2534 3370 2195 
Q 3706 1856 3706 1288 
Q 3706 609 3251 259 
Q 2797 -91 1919 -91 
Q 1588 -91 1214 -16 
Q 841 59 441 206 
L 441 856 
Q 825 641 1194 531 
Q 1563 422 1919 422 
Q 2459 422 2753 634 
Q 3047 847 3047 1241 
Q 3047 1584 2836 1778 
Q 2625 1972 2144 2069 
L 1759 2144 
Q 1053 2284 737 2584 
Q 422 2884 422 3419 
Q 422 4038 858 4394 
Q 1294 4750 2059 4750 
Q 2388 4750 2728 4690 
Q 3069 4631 3425 4513 
z
" transform="scale(0.015625)"/>
       <path id="DejaVuSans-6f" d="M 1959 3097 
Q 1497 3097 1228 2736 
Q 959 2375 959 1747 
Q 959 1119 1226 758 
Q 1494 397 1959 397 
Q 2419 397 2687 759 
Q 2956 1122 2956 1747 
Q 2956 2369 2687 2733 
Q 2419 3097 1959 3097 
z
M 1959 3584 
Q 2709 3584 3137 3096 
Q 3566 2609 3566 1747 
Q 3566 888 3137 398 
Q 2709 -91 1959 -91 
Q 1206 -91 779 398 
Q 353 888 353 1747 
Q 353 2609 779 3096 
Q 1206 3584 1959 3584 
z
" transform="scale(0.015625)"/>
       <path id="DejaVuSans-6c" d="M 603 4863 
L 1178 4863 
L 1178 0 
L 603 0 
L 603 4863 
z
" transform="scale(0.015625)"/>
       <path id="DejaVuSans-20" transform="scale(0.015625)"/>
       <path id="DejaVuSans-Oblique-6e" d="M 3566 2113 
L 3156 0 
L 2578 0 
L 2988 2091 
Q 3016 2238 3031 2350 
Q 3047 2463 3047 2528 
Q 3047 2791 2881 2937 
Q 2716 3084 2419 3084 
Q 1956 3084 1622 2776 
Q 1288 2469 1184 1941 
L 800 0 
L 225 0 
L 903 3500 
L 1478 3500 
L 1363 2950 
Q 1603 3253 1940 3418 
Q 2278 3584 2650 3584 
Q 3113 3584 3367 3334 
Q 3622 3084 3622 2631 
Q 3622 2519 3608 2391 
Q 3594 2263 3566 2113 
z
" transform="scale(0.015625)"/>
       <path id="DejaVuSans-23" d="M 3272 2816 
L 2363 2816 
L 2100 1772 
L 3016 1772 
L 3272 2816 
z
M 2803 4594 
L 2478 3297 
L 3391 3297 
L 3719 4594 
L 4219 4594 
L 3897 3297 
L 4872 3297 
L 4872 2816 
L 3775 2816 
L 3519 1772 
L 4513 1772 
L 4513 1294 
L 3397 1294 
L 3072 0 
L 2572 0 
L 2894 1294 
L 1978 1294 
L 1656 0 
L 1153 0 
L 1478 1294 
L 494 1294 
L 494 1772 
L 1594 1772 
L 1856 2816 
L 850 2816 
L 850 3297 
L 1978 3297 
L 2297 4594 
L 2803 4594 
z
" transform="scale(0.015625)"/>
       <path id="DejaVuSans-3d" d="M 678 2906 
L 4684 2906 
L 4684 2381 
L 678 2381 
L 678 2906 
z
M 678 1631 
L 4684 1631 
L 4684 1100 
L 678 1100 
L 678 1631 
z
" transform="scale(0.015625)"/>
      </defs>
      <use xlink:href="#DejaVuSans-4e" transform="translate(0 0.471875)"/>
      <use xlink:href="#DejaVuSans-75" transform="translate(74.804688 0.471875)"/>
      <use xlink:href="#DejaVuSans-6d" transform="translate(138.183594 0.471875)"/>
      <use xlink:href="#DejaVuSans-2e" transform="translate(235.595703 0.471875)"/>
      <use xlink:href="#DejaVuSans-53" transform="translate(267.382812 0.471875)"/>
      <use xlink:href="#DejaVuSans-6f" transform="translate(330.859375 0.471875)"/>
      <use xlink:href="#DejaVuSans-6c" transform="translate(392.041016 0.471875)"/>
      <use xlink:href="#DejaVuSans-2e" transform="translate(419.824219 0.471875)"/>
      <use xlink:href="#DejaVuSans-20" transform="translate(451.611328 0.471875)"/>
      <use xlink:href="#DejaVuSans-Oblique-6e" transform="translate(483.398438 0.471875)"/>
      <use xlink:href="#DejaVuSans-23" transform="translate(551.42724 38.753125) scale(0.7)"/>
      <use xlink:href="#DejaVuSans-20" transform="translate(612.813958 0.471875)"/>
      <use xlink:href="#DejaVuSans-3d" transform="translate(644.601068 0.471875)"/>
      <use xlink:href="#DejaVuSans-20" transform="translate(728.39013 0.471875)"/>
      <use xlink:href="#DejaVuSans-31" transform="translate(760.17724 0.471875)"/>
     </g>
    </g>
    <g id="line2d_21">
     <path d="M 66.6 69.248563 
L 76.6 69.248563 
L 86.6 69.248563 
" style="fill: none; stroke: #ff7f0e; stroke-width: 1.5; stroke-linecap: square"/>
    </g>
    <g id="text_19">
     <!-- Num.Sol. $n^\#$ = 2 -->
     <g transform="translate(94.6 72.748563) scale(0.1 -0.1)">
      <use xlink:href="#DejaVuSans-4e" transform="translate(0 0.471875)"/>
      <use xlink:href="#DejaVuSans-75" transform="translate(74.804688 0.471875)"/>
      <use xlink:href="#DejaVuSans-6d" transform="translate(138.183594 0.471875)"/>
      <use xlink:href="#DejaVuSans-2e" transform="translate(235.595703 0.471875)"/>
      <use xlink:href="#DejaVuSans-53" transform="translate(267.382812 0.471875)"/>
      <use xlink:href="#DejaVuSans-6f" transform="translate(330.859375 0.471875)"/>
      <use xlink:href="#DejaVuSans-6c" transform="translate(392.041016 0.471875)"/>
      <use xlink:href="#DejaVuSans-2e" transform="translate(419.824219 0.471875)"/>
      <use xlink:href="#DejaVuSans-20" transform="translate(451.611328 0.471875)"/>
      <use xlink:href="#DejaVuSans-Oblique-6e" transform="translate(483.398438 0.471875)"/>
      <use xlink:href="#DejaVuSans-23" transform="translate(551.42724 38.753125) scale(0.7)"/>
      <use xlink:href="#DejaVuSans-20" transform="translate(612.813958 0.471875)"/>
      <use xlink:href="#DejaVuSans-3d" transform="translate(644.601068 0.471875)"/>
      <use xlink:href="#DejaVuSans-20" transform="translate(728.39013 0.471875)"/>
      <use xlink:href="#DejaVuSans-32" transform="translate(760.17724 0.471875)"/>
     </g>
    </g>
    <g id="line2d_22">
     <path d="M 66.6 83.926688 
L 76.6 83.926688 
L 86.6 83.926688 
" style="fill: none; stroke: #2ca02c; stroke-width: 1.5; stroke-linecap: square"/>
    </g>
    <g id="text_20">
     <!-- Num.Sol. $n^\#$ = 10 -->
     <g transform="translate(94.6 87.426688) scale(0.1 -0.1)">
      <use xlink:href="#DejaVuSans-4e" transform="translate(0 0.471875)"/>
      <use xlink:href="#DejaVuSans-75" transform="translate(74.804688 0.471875)"/>
      <use xlink:href="#DejaVuSans-6d" transform="translate(138.183594 0.471875)"/>
      <use xlink:href="#DejaVuSans-2e" transform="translate(235.595703 0.471875)"/>
      <use xlink:href="#DejaVuSans-53" transform="translate(267.382812 0.471875)"/>
      <use xlink:href="#DejaVuSans-6f" transform="translate(330.859375 0.471875)"/>
      <use xlink:href="#DejaVuSans-6c" transform="translate(392.041016 0.471875)"/>
      <use xlink:href="#DejaVuSans-2e" transform="translate(419.824219 0.471875)"/>
      <use xlink:href="#DejaVuSans-20" transform="translate(451.611328 0.471875)"/>
      <use xlink:href="#DejaVuSans-Oblique-6e" transform="translate(483.398438 0.471875)"/>
      <use xlink:href="#DejaVuSans-23" transform="translate(551.42724 38.753125) scale(0.7)"/>
      <use xlink:href="#DejaVuSans-20" transform="translate(612.813958 0.471875)"/>
      <use xlink:href="#DejaVuSans-3d" transform="translate(644.601068 0.471875)"/>
      <use xlink:href="#DejaVuSans-20" transform="translate(728.39013 0.471875)"/>
      <use xlink:href="#DejaVuSans-31" transform="translate(760.17724 0.471875)"/>
      <use xlink:href="#DejaVuSans-30" transform="translate(823.800286 0.471875)"/>
     </g>
    </g>
    <g id="line2d_23">
     <g>
      <use xlink:href="#m1ba922f844" x="76.6" y="98.604813" style="fill: #d62728; stroke: #d62728; stroke-linejoin: bevel"/>
     </g>
    </g>
    <g id="text_21">
     <!-- Analytical solution -->
     <g transform="translate(94.6 102.104813) scale(0.1 -0.1)">
      <defs>
       <path id="DejaVuSans-41" d="M 2188 4044 
L 1331 1722 
L 3047 1722 
L 2188 4044 
z
M 1831 4666 
L 2547 4666 
L 4325 0 
L 3669 0 
L 3244 1197 
L 1141 1197 
L 716 0 
L 50 0 
L 1831 4666 
z
" transform="scale(0.015625)"/>
       <path id="DejaVuSans-6e" d="M 3513 2113 
L 3513 0 
L 2938 0 
L 2938 2094 
Q 2938 2591 2744 2837 
Q 2550 3084 2163 3084 
Q 1697 3084 1428 2787 
Q 1159 2491 1159 1978 
L 1159 0 
L 581 0 
L 581 3500 
L 1159 3500 
L 1159 2956 
Q 1366 3272 1645 3428 
Q 1925 3584 2291 3584 
Q 2894 3584 3203 3211 
Q 3513 2838 3513 2113 
z
" transform="scale(0.015625)"/>
       <path id="DejaVuSans-61" d="M 2194 1759 
Q 1497 1759 1228 1600 
Q 959 1441 959 1056 
Q 959 750 1161 570 
Q 1363 391 1709 391 
Q 2188 391 2477 730 
Q 2766 1069 2766 1631 
L 2766 1759 
L 2194 1759 
z
M 3341 1997 
L 3341 0 
L 2766 0 
L 2766 531 
Q 2569 213 2275 61 
Q 1981 -91 1556 -91 
Q 1019 -91 701 211 
Q 384 513 384 1019 
Q 384 1609 779 1909 
Q 1175 2209 1959 2209 
L 2766 2209 
L 2766 2266 
Q 2766 2663 2505 2880 
Q 2244 3097 1772 3097 
Q 1472 3097 1187 3025 
Q 903 2953 641 2809 
L 641 3341 
Q 956 3463 1253 3523 
Q 1550 3584 1831 3584 
Q 2591 3584 2966 3190 
Q 3341 2797 3341 1997 
z
" transform="scale(0.015625)"/>
       <path id="DejaVuSans-79" d="M 2059 -325 
Q 1816 -950 1584 -1140 
Q 1353 -1331 966 -1331 
L 506 -1331 
L 506 -850 
L 844 -850 
Q 1081 -850 1212 -737 
Q 1344 -625 1503 -206 
L 1606 56 
L 191 3500 
L 800 3500 
L 1894 763 
L 2988 3500 
L 3597 3500 
L 2059 -325 
z
" transform="scale(0.015625)"/>
       <path id="DejaVuSans-74" d="M 1172 4494 
L 1172 3500 
L 2356 3500 
L 2356 3053 
L 1172 3053 
L 1172 1153 
Q 1172 725 1289 603 
Q 1406 481 1766 481 
L 2356 481 
L 2356 0 
L 1766 0 
Q 1100 0 847 248 
Q 594 497 594 1153 
L 594 3053 
L 172 3053 
L 172 3500 
L 594 3500 
L 594 4494 
L 1172 4494 
z
" transform="scale(0.015625)"/>
       <path id="DejaVuSans-69" d="M 603 3500 
L 1178 3500 
L 1178 0 
L 603 0 
L 603 3500 
z
M 603 4863 
L 1178 4863 
L 1178 4134 
L 603 4134 
L 603 4863 
z
" transform="scale(0.015625)"/>
       <path id="DejaVuSans-63" d="M 3122 3366 
L 3122 2828 
Q 2878 2963 2633 3030 
Q 2388 3097 2138 3097 
Q 1578 3097 1268 2742 
Q 959 2388 959 1747 
Q 959 1106 1268 751 
Q 1578 397 2138 397 
Q 2388 397 2633 464 
Q 2878 531 3122 666 
L 3122 134 
Q 2881 22 2623 -34 
Q 2366 -91 2075 -91 
Q 1284 -91 818 406 
Q 353 903 353 1747 
Q 353 2603 823 3093 
Q 1294 3584 2113 3584 
Q 2378 3584 2631 3529 
Q 2884 3475 3122 3366 
z
" transform="scale(0.015625)"/>
       <path id="DejaVuSans-73" d="M 2834 3397 
L 2834 2853 
Q 2591 2978 2328 3040 
Q 2066 3103 1784 3103 
Q 1356 3103 1142 2972 
Q 928 2841 928 2578 
Q 928 2378 1081 2264 
Q 1234 2150 1697 2047 
L 1894 2003 
Q 2506 1872 2764 1633 
Q 3022 1394 3022 966 
Q 3022 478 2636 193 
Q 2250 -91 1575 -91 
Q 1294 -91 989 -36 
Q 684 19 347 128 
L 347 722 
Q 666 556 975 473 
Q 1284 391 1588 391 
Q 1994 391 2212 530 
Q 2431 669 2431 922 
Q 2431 1156 2273 1281 
Q 2116 1406 1581 1522 
L 1381 1569 
Q 847 1681 609 1914 
Q 372 2147 372 2553 
Q 372 3047 722 3315 
Q 1072 3584 1716 3584 
Q 2034 3584 2315 3537 
Q 2597 3491 2834 3397 
z
" transform="scale(0.015625)"/>
      </defs>
      <use xlink:href="#DejaVuSans-41"/>
      <use xlink:href="#DejaVuSans-6e" transform="translate(68.408203 0)"/>
      <use xlink:href="#DejaVuSans-61" transform="translate(131.787109 0)"/>
      <use xlink:href="#DejaVuSans-6c" transform="translate(193.066406 0)"/>
      <use xlink:href="#DejaVuSans-79" transform="translate(220.849609 0)"/>
      <use xlink:href="#DejaVuSans-74" transform="translate(280.029297 0)"/>
      <use xlink:href="#DejaVuSans-69" transform="translate(319.238281 0)"/>
      <use xlink:href="#DejaVuSans-63" transform="translate(347.021484 0)"/>
      <use xlink:href="#DejaVuSans-61" transform="translate(402.001953 0)"/>
      <use xlink:href="#DejaVuSans-6c" transform="translate(463.28125 0)"/>
      <use xlink:href="#DejaVuSans-20" transform="translate(491.064453 0)"/>
      <use xlink:href="#DejaVuSans-73" transform="translate(522.851562 0)"/>
      <use xlink:href="#DejaVuSans-6f" transform="translate(574.951172 0)"/>
      <use xlink:href="#DejaVuSans-6c" transform="translate(636.132812 0)"/>
      <use xlink:href="#DejaVuSans-75" transform="translate(663.916016 0)"/>
      <use xlink:href="#DejaVuSans-74" transform="translate(727.294922 0)"/>
      <use xlink:href="#DejaVuSans-69" transform="translate(766.503906 0)"/>
      <use xlink:href="#DejaVuSans-6f" transform="translate(794.287109 0)"/>
      <use xlink:href="#DejaVuSans-6e" transform="translate(855.46875 0)"/>
     </g>
    </g>
   </g>
  </g>
 </g>
 <defs>
  <clipPath id="paafe8f6d4a">
   <rect x="57.6" y="41.472" width="357.12" height="266.112"/>
  </clipPath>
 </defs>
</svg>
