<?xml version="1.0" encoding="utf-8" standalone="no"?>
<!DOCTYPE svg PUBLIC "-//W3C//DTD SVG 1.1//EN"
  "http://www.w3.org/Graphics/SVG/1.1/DTD/svg11.dtd">
<svg xmlns:xlink="http://www.w3.org/1999/xlink" width="648pt" height="432pt" viewBox="0 0 648 432" xmlns="http://www.w3.org/2000/svg" version="1.1">
 <metadata>
  <rdf:RDF xmlns:dc="http://purl.org/dc/elements/1.1/" xmlns:cc="http://creativecommons.org/ns#" xmlns:rdf="http://www.w3.org/1999/02/22-rdf-syntax-ns#">
   <cc:Work>
    <dc:type rdf:resource="http://purl.org/dc/dcmitype/StillImage"/>
    <dc:format>image/svg+xml</dc:format>
    <dc:creator>
     <cc:Agent>
      <dc:title>Matplotlib v3.10.6, https://matplotlib.org/</dc:title>
     </cc:Agent>
    </dc:creator>
   </cc:Work>
  </rdf:RDF>
 </metadata>
 <defs>
  <style type="text/css">*{stroke-linejoin: round; stroke-linecap: butt}</style>
 </defs>
 <g id="figure_1">
  <g id="patch_1">
   <path d="M 0 432 
L 648 432 
L 648 0 
L 0 0 
z
" style="fill: #ffffff"/>
  </g>
  <g id="axes_1">
   <g id="patch_2">
    <path d="M 81 384.48 
L 583.2 384.48 
L 583.2 51.84 
L 81 51.84 
z
" style="fill: #eaeaf2"/>
   </g>
   <g id="matplotlib.axis_1">
    <g id="xtick_1">
     <g id="line2d_1">
      <path d="M 81 384.48 
L 81 51.84 
" clip-path="url(#p180b8a0604)" style="fill: none; stroke: #ffffff; stroke-width: 0.8; stroke-linecap: round"/>
     </g>
     <g id="line2d_2"/>
     <g id="text_1">
      <!-- 1.1 -->
      <g style="fill: #262626" transform="translate(74.05 395.137812) scale(0.1 -0.1)">
       <defs>
        <path id="ArialMT-31" d="M 2384 0 
L 1822 0 
L 1822 3584 
Q 1619 3391 1289 3197 
Q 959 3003 697 2906 
L 697 3450 
Q 1169 3672 1522 3987 
Q 1875 4303 2022 4600 
L 2384 4600 
L 2384 0 
z
" transform="scale(0.015625)"/>
        <path id="ArialMT-2e" d="M 581 0 
L 581 641 
L 1222 641 
L 1222 0 
L 581 0 
z
" transform="scale(0.015625)"/>
       </defs>
       <use xlink:href="#ArialMT-31"/>
       <use xlink:href="#ArialMT-2e" transform="translate(55.615234 0)"/>
       <use xlink:href="#ArialMT-31" transform="translate(83.398438 0)"/>
      </g>
     </g>
    </g>
    <g id="xtick_2">
     <g id="line2d_3">
      <path d="M 143.775 384.48 
L 143.775 51.84 
" clip-path="url(#p180b8a0604)" style="fill: none; stroke: #ffffff; stroke-width: 0.8; stroke-linecap: round"/>
     </g>
     <g id="line2d_4"/>
     <g id="text_2">
      <!-- 1.2 -->
      <g style="fill: #262626" transform="translate(136.825 395.137812) scale(0.1 -0.1)">
       <defs>
        <path id="ArialMT-32" d="M 3222 541 
L 3222 0 
L 194 0 
Q 188 203 259 391 
Q 375 700 629 1000 
Q 884 1300 1366 1694 
Q 2113 2306 2375 2664 
Q 2638 3022 2638 3341 
Q 2638 3675 2398 3904 
Q 2159 4134 1775 4134 
Q 1369 4134 1125 3890 
Q 881 3647 878 3216 
L 300 3275 
Q 359 3922 746 4261 
Q 1134 4600 1788 4600 
Q 2447 4600 2831 4234 
Q 3216 3869 3216 3328 
Q 3216 3053 3103 2787 
Q 2991 2522 2730 2228 
Q 2469 1934 1863 1422 
Q 1356 997 1212 845 
Q 1069 694 975 541 
L 3222 541 
z
" transform="scale(0.015625)"/>
       </defs>
       <use xlink:href="#ArialMT-31"/>
       <use xlink:href="#ArialMT-2e" transform="translate(55.615234 0)"/>
       <use xlink:href="#ArialMT-32" transform="translate(83.398438 0)"/>
      </g>
     </g>
    </g>
    <g id="xtick_3">
     <g id="line2d_5">
      <path d="M 206.55 384.48 
L 206.55 51.84 
" clip-path="url(#p180b8a0604)" style="fill: none; stroke: #ffffff; stroke-width: 0.8; stroke-linecap: round"/>
     </g>
     <g id="line2d_6"/>
     <g id="text_3">
      <!-- 1.3 -->
      <g style="fill: #262626" transform="translate(199.6 395.137812) scale(0.1 -0.1)">
       <defs>
        <path id="ArialMT-33" d="M 269 1209 
L 831 1284 
Q 928 806 1161 595 
Q 1394 384 1728 384 
Q 2125 384 2398 659 
Q 2672 934 2672 1341 
Q 2672 1728 2419 1979 
Q 2166 2231 1775 2231 
Q 1616 2231 1378 2169 
L 1441 2663 
Q 1497 2656 1531 2656 
Q 1891 2656 2178 2843 
Q 2466 3031 2466 3422 
Q 2466 3731 2256 3934 
Q 2047 4138 1716 4138 
Q 1388 4138 1169 3931 
Q 950 3725 888 3313 
L 325 3413 
Q 428 3978 793 4289 
Q 1159 4600 1703 4600 
Q 2078 4600 2393 4439 
Q 2709 4278 2876 4000 
Q 3044 3722 3044 3409 
Q 3044 3113 2884 2869 
Q 2725 2625 2413 2481 
Q 2819 2388 3044 2092 
Q 3269 1797 3269 1353 
Q 3269 753 2831 336 
Q 2394 -81 1725 -81 
Q 1122 -81 723 278 
Q 325 638 269 1209 
z
" transform="scale(0.015625)"/>
       </defs>
       <use xlink:href="#ArialMT-31"/>
       <use xlink:href="#ArialMT-2e" transform="translate(55.615234 0)"/>
       <use xlink:href="#ArialMT-33" transform="translate(83.398438 0)"/>
      </g>
     </g>
    </g>
    <g id="xtick_4">
     <g id="line2d_7">
      <path d="M 269.325 384.48 
L 269.325 51.84 
" clip-path="url(#p180b8a0604)" style="fill: none; stroke: #ffffff; stroke-width: 0.8; stroke-linecap: round"/>
     </g>
     <g id="line2d_8"/>
     <g id="text_4">
      <!-- 1.4 -->
      <g style="fill: #262626" transform="translate(262.375 395.137812) scale(0.1 -0.1)">
       <defs>
        <path id="ArialMT-34" d="M 2069 0 
L 2069 1097 
L 81 1097 
L 81 1613 
L 2172 4581 
L 2631 4581 
L 2631 1613 
L 3250 1613 
L 3250 1097 
L 2631 1097 
L 2631 0 
L 2069 0 
z
M 2069 1613 
L 2069 3678 
L 634 1613 
L 2069 1613 
z
" transform="scale(0.015625)"/>
       </defs>
       <use xlink:href="#ArialMT-31"/>
       <use xlink:href="#ArialMT-2e" transform="translate(55.615234 0)"/>
       <use xlink:href="#ArialMT-34" transform="translate(83.398438 0)"/>
      </g>
     </g>
    </g>
    <g id="xtick_5">
     <g id="line2d_9">
      <path d="M 332.1 384.48 
L 332.1 51.84 
" clip-path="url(#p180b8a0604)" style="fill: none; stroke: #ffffff; stroke-width: 0.8; stroke-linecap: round"/>
     </g>
     <g id="line2d_10"/>
     <g id="text_5">
      <!-- 1.5 -->
      <g style="fill: #262626" transform="translate(325.15 395.137812) scale(0.1 -0.1)">
       <defs>
        <path id="ArialMT-35" d="M 266 1200 
L 856 1250 
Q 922 819 1161 601 
Q 1400 384 1738 384 
Q 2144 384 2425 690 
Q 2706 997 2706 1503 
Q 2706 1984 2436 2262 
Q 2166 2541 1728 2541 
Q 1456 2541 1237 2417 
Q 1019 2294 894 2097 
L 366 2166 
L 809 4519 
L 3088 4519 
L 3088 3981 
L 1259 3981 
L 1013 2750 
Q 1425 3038 1878 3038 
Q 2478 3038 2890 2622 
Q 3303 2206 3303 1553 
Q 3303 931 2941 478 
Q 2500 -78 1738 -78 
Q 1113 -78 717 272 
Q 322 622 266 1200 
z
" transform="scale(0.015625)"/>
       </defs>
       <use xlink:href="#ArialMT-31"/>
       <use xlink:href="#ArialMT-2e" transform="translate(55.615234 0)"/>
       <use xlink:href="#ArialMT-35" transform="translate(83.398438 0)"/>
      </g>
     </g>
    </g>
    <g id="xtick_6">
     <g id="line2d_11">
      <path d="M 394.875 384.48 
L 394.875 51.84 
" clip-path="url(#p180b8a0604)" style="fill: none; stroke: #ffffff; stroke-width: 0.8; stroke-linecap: round"/>
     </g>
     <g id="line2d_12"/>
     <g id="text_6">
      <!-- 1.6 -->
      <g style="fill: #262626" transform="translate(387.925 395.137812) scale(0.1 -0.1)">
       <defs>
        <path id="ArialMT-36" d="M 3184 3459 
L 2625 3416 
Q 2550 3747 2413 3897 
Q 2184 4138 1850 4138 
Q 1581 4138 1378 3988 
Q 1113 3794 959 3422 
Q 806 3050 800 2363 
Q 1003 2672 1297 2822 
Q 1591 2972 1913 2972 
Q 2475 2972 2870 2558 
Q 3266 2144 3266 1488 
Q 3266 1056 3080 686 
Q 2894 316 2569 119 
Q 2244 -78 1831 -78 
Q 1128 -78 684 439 
Q 241 956 241 2144 
Q 241 3472 731 4075 
Q 1159 4600 1884 4600 
Q 2425 4600 2770 4297 
Q 3116 3994 3184 3459 
z
M 888 1484 
Q 888 1194 1011 928 
Q 1134 663 1356 523 
Q 1578 384 1822 384 
Q 2178 384 2434 671 
Q 2691 959 2691 1453 
Q 2691 1928 2437 2201 
Q 2184 2475 1800 2475 
Q 1419 2475 1153 2201 
Q 888 1928 888 1484 
z
" transform="scale(0.015625)"/>
       </defs>
       <use xlink:href="#ArialMT-31"/>
       <use xlink:href="#ArialMT-2e" transform="translate(55.615234 0)"/>
       <use xlink:href="#ArialMT-36" transform="translate(83.398438 0)"/>
      </g>
     </g>
    </g>
    <g id="xtick_7">
     <g id="line2d_13">
      <path d="M 457.65 384.48 
L 457.65 51.84 
" clip-path="url(#p180b8a0604)" style="fill: none; stroke: #ffffff; stroke-width: 0.8; stroke-linecap: round"/>
     </g>
     <g id="line2d_14"/>
     <g id="text_7">
      <!-- 1.7 -->
      <g style="fill: #262626" transform="translate(450.7 395.137812) scale(0.1 -0.1)">
       <defs>
        <path id="ArialMT-37" d="M 303 3981 
L 303 4522 
L 3269 4522 
L 3269 4084 
Q 2831 3619 2401 2847 
Q 1972 2075 1738 1259 
Q 1569 684 1522 0 
L 944 0 
Q 953 541 1156 1306 
Q 1359 2072 1739 2783 
Q 2119 3494 2547 3981 
L 303 3981 
z
" transform="scale(0.015625)"/>
       </defs>
       <use xlink:href="#ArialMT-31"/>
       <use xlink:href="#ArialMT-2e" transform="translate(55.615234 0)"/>
       <use xlink:href="#ArialMT-37" transform="translate(83.398438 0)"/>
      </g>
     </g>
    </g>
    <g id="xtick_8">
     <g id="line2d_15">
      <path d="M 520.425 384.48 
L 520.425 51.84 
" clip-path="url(#p180b8a0604)" style="fill: none; stroke: #ffffff; stroke-width: 0.8; stroke-linecap: round"/>
     </g>
     <g id="line2d_16"/>
     <g id="text_8">
      <!-- 1.8 -->
      <g style="fill: #262626" transform="translate(513.475 395.137812) scale(0.1 -0.1)">
       <defs>
        <path id="ArialMT-38" d="M 1131 2484 
Q 781 2613 612 2850 
Q 444 3088 444 3419 
Q 444 3919 803 4259 
Q 1163 4600 1759 4600 
Q 2359 4600 2725 4251 
Q 3091 3903 3091 3403 
Q 3091 3084 2923 2848 
Q 2756 2613 2416 2484 
Q 2838 2347 3058 2040 
Q 3278 1734 3278 1309 
Q 3278 722 2862 322 
Q 2447 -78 1769 -78 
Q 1091 -78 675 323 
Q 259 725 259 1325 
Q 259 1772 486 2073 
Q 713 2375 1131 2484 
z
M 1019 3438 
Q 1019 3113 1228 2906 
Q 1438 2700 1772 2700 
Q 2097 2700 2305 2904 
Q 2513 3109 2513 3406 
Q 2513 3716 2298 3927 
Q 2084 4138 1766 4138 
Q 1444 4138 1231 3931 
Q 1019 3725 1019 3438 
z
M 838 1322 
Q 838 1081 952 856 
Q 1066 631 1291 507 
Q 1516 384 1775 384 
Q 2178 384 2440 643 
Q 2703 903 2703 1303 
Q 2703 1709 2433 1975 
Q 2163 2241 1756 2241 
Q 1359 2241 1098 1978 
Q 838 1716 838 1322 
z
" transform="scale(0.015625)"/>
       </defs>
       <use xlink:href="#ArialMT-31"/>
       <use xlink:href="#ArialMT-2e" transform="translate(55.615234 0)"/>
       <use xlink:href="#ArialMT-38" transform="translate(83.398438 0)"/>
      </g>
     </g>
    </g>
    <g id="xtick_9">
     <g id="line2d_17">
      <path d="M 583.2 384.48 
L 583.2 51.84 
" clip-path="url(#p180b8a0604)" style="fill: none; stroke: #ffffff; stroke-width: 0.8; stroke-linecap: round"/>
     </g>
     <g id="line2d_18"/>
     <g id="text_9">
      <!-- 1.9 -->
      <g style="fill: #262626" transform="translate(576.25 395.137812) scale(0.1 -0.1)">
       <defs>
        <path id="ArialMT-39" d="M 350 1059 
L 891 1109 
Q 959 728 1153 556 
Q 1347 384 1650 384 
Q 1909 384 2104 503 
Q 2300 622 2425 820 
Q 2550 1019 2634 1356 
Q 2719 1694 2719 2044 
Q 2719 2081 2716 2156 
Q 2547 1888 2255 1720 
Q 1963 1553 1622 1553 
Q 1053 1553 659 1965 
Q 266 2378 266 3053 
Q 266 3750 677 4175 
Q 1088 4600 1706 4600 
Q 2153 4600 2523 4359 
Q 2894 4119 3086 3673 
Q 3278 3228 3278 2384 
Q 3278 1506 3087 986 
Q 2897 466 2520 194 
Q 2144 -78 1638 -78 
Q 1100 -78 759 220 
Q 419 519 350 1059 
z
M 2653 3081 
Q 2653 3566 2395 3850 
Q 2138 4134 1775 4134 
Q 1400 4134 1122 3828 
Q 844 3522 844 3034 
Q 844 2597 1108 2323 
Q 1372 2050 1759 2050 
Q 2150 2050 2401 2323 
Q 2653 2597 2653 3081 
z
" transform="scale(0.015625)"/>
       </defs>
       <use xlink:href="#ArialMT-31"/>
       <use xlink:href="#ArialMT-2e" transform="translate(55.615234 0)"/>
       <use xlink:href="#ArialMT-39" transform="translate(83.398438 0)"/>
      </g>
     </g>
    </g>
    <g id="text_10">
     <!-- Income (y) -->
     <g style="fill: #262626" transform="translate(308.485938 408.405) scale(0.1 -0.1)">
      <defs>
       <path id="ArialMT-49" d="M 597 0 
L 597 4581 
L 1203 4581 
L 1203 0 
L 597 0 
z
" transform="scale(0.015625)"/>
       <path id="ArialMT-6e" d="M 422 0 
L 422 3319 
L 928 3319 
L 928 2847 
Q 1294 3394 1984 3394 
Q 2284 3394 2536 3286 
Q 2788 3178 2913 3003 
Q 3038 2828 3088 2588 
Q 3119 2431 3119 2041 
L 3119 0 
L 2556 0 
L 2556 2019 
Q 2556 2363 2490 2533 
Q 2425 2703 2258 2804 
Q 2091 2906 1866 2906 
Q 1506 2906 1245 2678 
Q 984 2450 984 1813 
L 984 0 
L 422 0 
z
" transform="scale(0.015625)"/>
       <path id="ArialMT-63" d="M 2588 1216 
L 3141 1144 
Q 3050 572 2676 248 
Q 2303 -75 1759 -75 
Q 1078 -75 664 370 
Q 250 816 250 1647 
Q 250 2184 428 2587 
Q 606 2991 970 3192 
Q 1334 3394 1763 3394 
Q 2303 3394 2647 3120 
Q 2991 2847 3088 2344 
L 2541 2259 
Q 2463 2594 2264 2762 
Q 2066 2931 1784 2931 
Q 1359 2931 1093 2626 
Q 828 2322 828 1663 
Q 828 994 1084 691 
Q 1341 388 1753 388 
Q 2084 388 2306 591 
Q 2528 794 2588 1216 
z
" transform="scale(0.015625)"/>
       <path id="ArialMT-6f" d="M 213 1659 
Q 213 2581 725 3025 
Q 1153 3394 1769 3394 
Q 2453 3394 2887 2945 
Q 3322 2497 3322 1706 
Q 3322 1066 3130 698 
Q 2938 331 2570 128 
Q 2203 -75 1769 -75 
Q 1072 -75 642 372 
Q 213 819 213 1659 
z
M 791 1659 
Q 791 1022 1069 705 
Q 1347 388 1769 388 
Q 2188 388 2466 706 
Q 2744 1025 2744 1678 
Q 2744 2294 2464 2611 
Q 2184 2928 1769 2928 
Q 1347 2928 1069 2612 
Q 791 2297 791 1659 
z
" transform="scale(0.015625)"/>
       <path id="ArialMT-6d" d="M 422 0 
L 422 3319 
L 925 3319 
L 925 2853 
Q 1081 3097 1340 3245 
Q 1600 3394 1931 3394 
Q 2300 3394 2536 3241 
Q 2772 3088 2869 2813 
Q 3263 3394 3894 3394 
Q 4388 3394 4653 3120 
Q 4919 2847 4919 2278 
L 4919 0 
L 4359 0 
L 4359 2091 
Q 4359 2428 4304 2576 
Q 4250 2725 4106 2815 
Q 3963 2906 3769 2906 
Q 3419 2906 3187 2673 
Q 2956 2441 2956 1928 
L 2956 0 
L 2394 0 
L 2394 2156 
Q 2394 2531 2256 2718 
Q 2119 2906 1806 2906 
Q 1569 2906 1367 2781 
Q 1166 2656 1075 2415 
Q 984 2175 984 1722 
L 984 0 
L 422 0 
z
" transform="scale(0.015625)"/>
       <path id="ArialMT-65" d="M 2694 1069 
L 3275 997 
Q 3138 488 2766 206 
Q 2394 -75 1816 -75 
Q 1088 -75 661 373 
Q 234 822 234 1631 
Q 234 2469 665 2931 
Q 1097 3394 1784 3394 
Q 2450 3394 2872 2941 
Q 3294 2488 3294 1666 
Q 3294 1616 3291 1516 
L 816 1516 
Q 847 969 1125 678 
Q 1403 388 1819 388 
Q 2128 388 2347 550 
Q 2566 713 2694 1069 
z
M 847 1978 
L 2700 1978 
Q 2663 2397 2488 2606 
Q 2219 2931 1791 2931 
Q 1403 2931 1139 2672 
Q 875 2413 847 1978 
z
" transform="scale(0.015625)"/>
       <path id="ArialMT-20" transform="scale(0.015625)"/>
       <path id="ArialMT-28" d="M 1497 -1347 
Q 1031 -759 709 28 
Q 388 816 388 1659 
Q 388 2403 628 3084 
Q 909 3875 1497 4659 
L 1900 4659 
Q 1522 4009 1400 3731 
Q 1209 3300 1100 2831 
Q 966 2247 966 1656 
Q 966 153 1900 -1347 
L 1497 -1347 
z
" transform="scale(0.015625)"/>
       <path id="ArialMT-79" d="M 397 -1278 
L 334 -750 
Q 519 -800 656 -800 
Q 844 -800 956 -737 
Q 1069 -675 1141 -563 
Q 1194 -478 1313 -144 
Q 1328 -97 1363 -6 
L 103 3319 
L 709 3319 
L 1400 1397 
Q 1534 1031 1641 628 
Q 1738 1016 1872 1384 
L 2581 3319 
L 3144 3319 
L 1881 -56 
Q 1678 -603 1566 -809 
Q 1416 -1088 1222 -1217 
Q 1028 -1347 759 -1347 
Q 597 -1347 397 -1278 
z
" transform="scale(0.015625)"/>
       <path id="ArialMT-29" d="M 791 -1347 
L 388 -1347 
Q 1322 153 1322 1656 
Q 1322 2244 1188 2822 
Q 1081 3291 891 3722 
Q 769 4003 388 4659 
L 791 4659 
Q 1378 3875 1659 3084 
Q 1900 2403 1900 1659 
Q 1900 816 1576 28 
Q 1253 -759 791 -1347 
z
" transform="scale(0.015625)"/>
      </defs>
      <use xlink:href="#ArialMT-49"/>
      <use xlink:href="#ArialMT-6e" transform="translate(27.783203 0)"/>
      <use xlink:href="#ArialMT-63" transform="translate(83.398438 0)"/>
      <use xlink:href="#ArialMT-6f" transform="translate(133.398438 0)"/>
      <use xlink:href="#ArialMT-6d" transform="translate(189.013672 0)"/>
      <use xlink:href="#ArialMT-65" transform="translate(272.314453 0)"/>
      <use xlink:href="#ArialMT-20" transform="translate(327.929688 0)"/>
      <use xlink:href="#ArialMT-28" transform="translate(355.712891 0)"/>
      <use xlink:href="#ArialMT-79" transform="translate(389.013672 0)"/>
      <use xlink:href="#ArialMT-29" transform="translate(439.013672 0)"/>
     </g>
    </g>
   </g>
   <g id="matplotlib.axis_2">
    <g id="ytick_1">
     <g id="line2d_19">
      <path d="M 81 384.48 
L 583.2 384.48 
" clip-path="url(#p180b8a0604)" style="fill: none; stroke: #ffffff; stroke-width: 0.8; stroke-linecap: round"/>
     </g>
     <g id="line2d_20"/>
     <g id="text_11">
      <!-- 0.00 -->
      <g style="fill: #262626" transform="translate(58.039062 388.058906) scale(0.1 -0.1)">
       <defs>
        <path id="ArialMT-30" d="M 266 2259 
Q 266 3072 433 3567 
Q 600 4063 929 4331 
Q 1259 4600 1759 4600 
Q 2128 4600 2406 4451 
Q 2684 4303 2865 4023 
Q 3047 3744 3150 3342 
Q 3253 2941 3253 2259 
Q 3253 1453 3087 958 
Q 2922 463 2592 192 
Q 2263 -78 1759 -78 
Q 1097 -78 719 397 
Q 266 969 266 2259 
z
M 844 2259 
Q 844 1131 1108 757 
Q 1372 384 1759 384 
Q 2147 384 2411 759 
Q 2675 1134 2675 2259 
Q 2675 3391 2411 3762 
Q 2147 4134 1753 4134 
Q 1366 4134 1134 3806 
Q 844 3388 844 2259 
z
" transform="scale(0.015625)"/>
       </defs>
       <use xlink:href="#ArialMT-30"/>
       <use xlink:href="#ArialMT-2e" transform="translate(55.615234 0)"/>
       <use xlink:href="#ArialMT-30" transform="translate(83.398438 0)"/>
       <use xlink:href="#ArialMT-30" transform="translate(139.013672 0)"/>
      </g>
     </g>
    </g>
    <g id="ytick_2">
     <g id="line2d_21">
      <path d="M 81 342.9 
L 583.2 342.9 
" clip-path="url(#p180b8a0604)" style="fill: none; stroke: #ffffff; stroke-width: 0.8; stroke-linecap: round"/>
     </g>
     <g id="line2d_22"/>
     <g id="text_12">
      <!-- 0.25 -->
      <g style="fill: #262626" transform="translate(58.039062 346.478906) scale(0.1 -0.1)">
       <use xlink:href="#ArialMT-30"/>
       <use xlink:href="#ArialMT-2e" transform="translate(55.615234 0)"/>
       <use xlink:href="#ArialMT-32" transform="translate(83.398438 0)"/>
       <use xlink:href="#ArialMT-35" transform="translate(139.013672 0)"/>
      </g>
     </g>
    </g>
    <g id="ytick_3">
     <g id="line2d_23">
      <path d="M 81 301.32 
L 583.2 301.32 
" clip-path="url(#p180b8a0604)" style="fill: none; stroke: #ffffff; stroke-width: 0.8; stroke-linecap: round"/>
     </g>
     <g id="line2d_24"/>
     <g id="text_13">
      <!-- 0.50 -->
      <g style="fill: #262626" transform="translate(58.039062 304.898906) scale(0.1 -0.1)">
       <use xlink:href="#ArialMT-30"/>
       <use xlink:href="#ArialMT-2e" transform="translate(55.615234 0)"/>
       <use xlink:href="#ArialMT-35" transform="translate(83.398438 0)"/>
       <use xlink:href="#ArialMT-30" transform="translate(139.013672 0)"/>
      </g>
     </g>
    </g>
    <g id="ytick_4">
     <g id="line2d_25">
      <path d="M 81 259.74 
L 583.2 259.74 
" clip-path="url(#p180b8a0604)" style="fill: none; stroke: #ffffff; stroke-width: 0.8; stroke-linecap: round"/>
     </g>
     <g id="line2d_26"/>
     <g id="text_14">
      <!-- 0.75 -->
      <g style="fill: #262626" transform="translate(58.039062 263.318906) scale(0.1 -0.1)">
       <use xlink:href="#ArialMT-30"/>
       <use xlink:href="#ArialMT-2e" transform="translate(55.615234 0)"/>
       <use xlink:href="#ArialMT-37" transform="translate(83.398438 0)"/>
       <use xlink:href="#ArialMT-35" transform="translate(139.013672 0)"/>
      </g>
     </g>
    </g>
    <g id="ytick_5">
     <g id="line2d_27">
      <path d="M 81 218.16 
L 583.2 218.16 
" clip-path="url(#p180b8a0604)" style="fill: none; stroke: #ffffff; stroke-width: 0.8; stroke-linecap: round"/>
     </g>
     <g id="line2d_28"/>
     <g id="text_15">
      <!-- 1.00 -->
      <g style="fill: #262626" transform="translate(58.039062 221.738906) scale(0.1 -0.1)">
       <use xlink:href="#ArialMT-31"/>
       <use xlink:href="#ArialMT-2e" transform="translate(55.615234 0)"/>
       <use xlink:href="#ArialMT-30" transform="translate(83.398438 0)"/>
       <use xlink:href="#ArialMT-30" transform="translate(139.013672 0)"/>
      </g>
     </g>
    </g>
    <g id="ytick_6">
     <g id="line2d_29">
      <path d="M 81 176.58 
L 583.2 176.58 
" clip-path="url(#p180b8a0604)" style="fill: none; stroke: #ffffff; stroke-width: 0.8; stroke-linecap: round"/>
     </g>
     <g id="line2d_30"/>
     <g id="text_16">
      <!-- 1.25 -->
      <g style="fill: #262626" transform="translate(58.039062 180.158906) scale(0.1 -0.1)">
       <use xlink:href="#ArialMT-31"/>
       <use xlink:href="#ArialMT-2e" transform="translate(55.615234 0)"/>
       <use xlink:href="#ArialMT-32" transform="translate(83.398438 0)"/>
       <use xlink:href="#ArialMT-35" transform="translate(139.013672 0)"/>
      </g>
     </g>
    </g>
    <g id="ytick_7">
     <g id="line2d_31">
      <path d="M 81 135 
L 583.2 135 
" clip-path="url(#p180b8a0604)" style="fill: none; stroke: #ffffff; stroke-width: 0.8; stroke-linecap: round"/>
     </g>
     <g id="line2d_32"/>
     <g id="text_17">
      <!-- 1.50 -->
      <g style="fill: #262626" transform="translate(58.039062 138.578906) scale(0.1 -0.1)">
       <use xlink:href="#ArialMT-31"/>
       <use xlink:href="#ArialMT-2e" transform="translate(55.615234 0)"/>
       <use xlink:href="#ArialMT-35" transform="translate(83.398438 0)"/>
       <use xlink:href="#ArialMT-30" transform="translate(139.013672 0)"/>
      </g>
     </g>
    </g>
    <g id="ytick_8">
     <g id="line2d_33">
      <path d="M 81 93.42 
L 583.2 93.42 
" clip-path="url(#p180b8a0604)" style="fill: none; stroke: #ffffff; stroke-width: 0.8; stroke-linecap: round"/>
     </g>
     <g id="line2d_34"/>
     <g id="text_18">
      <!-- 1.75 -->
      <g style="fill: #262626" transform="translate(58.039062 96.998906) scale(0.1 -0.1)">
       <use xlink:href="#ArialMT-31"/>
       <use xlink:href="#ArialMT-2e" transform="translate(55.615234 0)"/>
       <use xlink:href="#ArialMT-37" transform="translate(83.398438 0)"/>
       <use xlink:href="#ArialMT-35" transform="translate(139.013672 0)"/>
      </g>
     </g>
    </g>
    <g id="ytick_9">
     <g id="line2d_35">
      <path d="M 81 51.84 
L 583.2 51.84 
" clip-path="url(#p180b8a0604)" style="fill: none; stroke: #ffffff; stroke-width: 0.8; stroke-linecap: round"/>
     </g>
     <g id="line2d_36"/>
     <g id="text_19">
      <!-- 2.00 -->
      <g style="fill: #262626" transform="translate(58.039062 55.418906) scale(0.1 -0.1)">
       <use xlink:href="#ArialMT-32"/>
       <use xlink:href="#ArialMT-2e" transform="translate(55.615234 0)"/>
       <use xlink:href="#ArialMT-30" transform="translate(83.398438 0)"/>
       <use xlink:href="#ArialMT-30" transform="translate(139.013672 0)"/>
      </g>
     </g>
    </g>
    <g id="text_20">
     <!-- Consumption (c) -->
     <g style="fill: #262626" transform="translate(51.934375 254.837344) rotate(-90) scale(0.1 -0.1)">
      <defs>
       <path id="ArialMT-43" d="M 3763 1606 
L 4369 1453 
Q 4178 706 3683 314 
Q 3188 -78 2472 -78 
Q 1731 -78 1267 223 
Q 803 525 561 1097 
Q 319 1669 319 2325 
Q 319 3041 592 3573 
Q 866 4106 1370 4382 
Q 1875 4659 2481 4659 
Q 3169 4659 3637 4309 
Q 4106 3959 4291 3325 
L 3694 3184 
Q 3534 3684 3231 3912 
Q 2928 4141 2469 4141 
Q 1941 4141 1586 3887 
Q 1231 3634 1087 3207 
Q 944 2781 944 2328 
Q 944 1744 1114 1308 
Q 1284 872 1643 656 
Q 2003 441 2422 441 
Q 2931 441 3284 734 
Q 3638 1028 3763 1606 
z
" transform="scale(0.015625)"/>
       <path id="ArialMT-73" d="M 197 991 
L 753 1078 
Q 800 744 1014 566 
Q 1228 388 1613 388 
Q 2000 388 2187 545 
Q 2375 703 2375 916 
Q 2375 1106 2209 1216 
Q 2094 1291 1634 1406 
Q 1016 1563 777 1677 
Q 538 1791 414 1992 
Q 291 2194 291 2438 
Q 291 2659 392 2848 
Q 494 3038 669 3163 
Q 800 3259 1026 3326 
Q 1253 3394 1513 3394 
Q 1903 3394 2198 3281 
Q 2494 3169 2634 2976 
Q 2775 2784 2828 2463 
L 2278 2388 
Q 2241 2644 2061 2787 
Q 1881 2931 1553 2931 
Q 1166 2931 1000 2803 
Q 834 2675 834 2503 
Q 834 2394 903 2306 
Q 972 2216 1119 2156 
Q 1203 2125 1616 2013 
Q 2213 1853 2448 1751 
Q 2684 1650 2818 1456 
Q 2953 1263 2953 975 
Q 2953 694 2789 445 
Q 2625 197 2315 61 
Q 2006 -75 1616 -75 
Q 969 -75 630 194 
Q 291 463 197 991 
z
" transform="scale(0.015625)"/>
       <path id="ArialMT-75" d="M 2597 0 
L 2597 488 
Q 2209 -75 1544 -75 
Q 1250 -75 995 37 
Q 741 150 617 320 
Q 494 491 444 738 
Q 409 903 409 1263 
L 409 3319 
L 972 3319 
L 972 1478 
Q 972 1038 1006 884 
Q 1059 663 1231 536 
Q 1403 409 1656 409 
Q 1909 409 2131 539 
Q 2353 669 2445 892 
Q 2538 1116 2538 1541 
L 2538 3319 
L 3100 3319 
L 3100 0 
L 2597 0 
z
" transform="scale(0.015625)"/>
       <path id="ArialMT-70" d="M 422 -1272 
L 422 3319 
L 934 3319 
L 934 2888 
Q 1116 3141 1344 3267 
Q 1572 3394 1897 3394 
Q 2322 3394 2647 3175 
Q 2972 2956 3137 2557 
Q 3303 2159 3303 1684 
Q 3303 1175 3120 767 
Q 2938 359 2589 142 
Q 2241 -75 1856 -75 
Q 1575 -75 1351 44 
Q 1128 163 984 344 
L 984 -1272 
L 422 -1272 
z
M 931 1641 
Q 931 1000 1190 694 
Q 1450 388 1819 388 
Q 2194 388 2461 705 
Q 2728 1022 2728 1688 
Q 2728 2322 2467 2637 
Q 2206 2953 1844 2953 
Q 1484 2953 1207 2617 
Q 931 2281 931 1641 
z
" transform="scale(0.015625)"/>
       <path id="ArialMT-74" d="M 1650 503 
L 1731 6 
Q 1494 -44 1306 -44 
Q 1000 -44 831 53 
Q 663 150 594 308 
Q 525 466 525 972 
L 525 2881 
L 113 2881 
L 113 3319 
L 525 3319 
L 525 4141 
L 1084 4478 
L 1084 3319 
L 1650 3319 
L 1650 2881 
L 1084 2881 
L 1084 941 
Q 1084 700 1114 631 
Q 1144 563 1211 522 
Q 1278 481 1403 481 
Q 1497 481 1650 503 
z
" transform="scale(0.015625)"/>
       <path id="ArialMT-69" d="M 425 3934 
L 425 4581 
L 988 4581 
L 988 3934 
L 425 3934 
z
M 425 0 
L 425 3319 
L 988 3319 
L 988 0 
L 425 0 
z
" transform="scale(0.015625)"/>
      </defs>
      <use xlink:href="#ArialMT-43"/>
      <use xlink:href="#ArialMT-6f" transform="translate(72.216797 0)"/>
      <use xlink:href="#ArialMT-6e" transform="translate(127.832031 0)"/>
      <use xlink:href="#ArialMT-73" transform="translate(183.447266 0)"/>
      <use xlink:href="#ArialMT-75" transform="translate(233.447266 0)"/>
      <use xlink:href="#ArialMT-6d" transform="translate(289.0625 0)"/>
      <use xlink:href="#ArialMT-70" transform="translate(372.363281 0)"/>
      <use xlink:href="#ArialMT-74" transform="translate(427.978516 0)"/>
      <use xlink:href="#ArialMT-69" transform="translate(455.761719 0)"/>
      <use xlink:href="#ArialMT-6f" transform="translate(477.978516 0)"/>
      <use xlink:href="#ArialMT-6e" transform="translate(533.59375 0)"/>
      <use xlink:href="#ArialMT-20" transform="translate(589.208984 0)"/>
      <use xlink:href="#ArialMT-28" transform="translate(616.992188 0)"/>
      <use xlink:href="#ArialMT-63" transform="translate(650.292969 0)"/>
      <use xlink:href="#ArialMT-29" transform="translate(700.292969 0)"/>
     </g>
    </g>
   </g>
   <g id="line2d_37">
    <defs>
     <path id="m78a94a048e" d="M 0 3 
C 0.795609 3 1.55874 2.683901 2.12132 2.12132 
C 2.683901 1.55874 3 0.795609 3 0 
C 3 -0.795609 2.683901 -1.55874 2.12132 -2.12132 
C 1.55874 -2.683901 0.795609 -3 0 -3 
C -0.795609 -3 -1.55874 -2.683901 -2.12132 -2.12132 
C -2.683901 -1.55874 -3 -0.795609 -3 0 
C -3 0.795609 -2.683901 1.55874 -2.12132 2.12132 
C -1.55874 2.683901 -0.795609 3 0 3 
z
" style="stroke: #008000"/>
    </defs>
    <g clip-path="url(#p180b8a0604)">
     <use xlink:href="#m78a94a048e" x="302.294197" y="225.419019" style="fill: #008000; stroke: #008000"/>
     <use xlink:href="#m78a94a048e" x="388.661038" y="234.909594" style="fill: #008000; stroke: #008000"/>
     <use xlink:href="#m78a94a048e" x="179.730921" y="218.33894" style="fill: #008000; stroke: #008000"/>
     <use xlink:href="#m78a94a048e" x="344.023145" y="217.466968" style="fill: #008000; stroke: #008000"/>
     <use xlink:href="#m78a94a048e" x="238.102535" y="225.645204" style="fill: #008000; stroke: #008000"/>
     <use xlink:href="#m78a94a048e" x="261.279086" y="245.167169" style="fill: #008000; stroke: #008000"/>
     <use xlink:href="#m78a94a048e" x="358.61725" y="206.956333" style="fill: #008000; stroke: #008000"/>
     <use xlink:href="#m78a94a048e" x="305.246811" y="205.667557" style="fill: #008000; stroke: #008000"/>
     <use xlink:href="#m78a94a048e" x="326.296616" y="210.438209" style="fill: #008000; stroke: #008000"/>
     <use xlink:href="#m78a94a048e" x="284.082607" y="236.1675" style="fill: #008000; stroke: #008000"/>
     <use xlink:href="#m78a94a048e" x="416.616357" y="196.940115" style="fill: #008000; stroke: #008000"/>
     <use xlink:href="#m78a94a048e" x="217.889797" y="246.886956" style="fill: #008000; stroke: #008000"/>
     <use xlink:href="#m78a94a048e" x="474.155601" y="188.820759" style="fill: #008000; stroke: #008000"/>
     <use xlink:href="#m78a94a048e" x="280.389625" y="203.458512" style="fill: #008000; stroke: #008000"/>
     <use xlink:href="#m78a94a048e" x="393.939707" y="198.844182" style="fill: #008000; stroke: #008000"/>
     <use xlink:href="#m78a94a048e" x="89.366123" y="249.361613" style="fill: #008000; stroke: #008000"/>
     <use xlink:href="#m78a94a048e" x="228.149085" y="216.373745" style="fill: #008000; stroke: #008000"/>
     <use xlink:href="#m78a94a048e" x="335.420693" y="235.136238" style="fill: #008000; stroke: #008000"/>
     <use xlink:href="#m78a94a048e" x="488.163003" y="202.533913" style="fill: #008000; stroke: #008000"/>
     <use xlink:href="#m78a94a048e" x="386.374798" y="205.829174" style="fill: #008000; stroke: #008000"/>
     <use xlink:href="#m78a94a048e" x="423.305247" y="200.52946" style="fill: #008000; stroke: #008000"/>
     <use xlink:href="#m78a94a048e" x="242.791835" y="222.602627" style="fill: #008000; stroke: #008000"/>
     <use xlink:href="#m78a94a048e" x="350.885377" y="215.537527" style="fill: #008000; stroke: #008000"/>
     <use xlink:href="#m78a94a048e" x="217.443082" y="242.988886" style="fill: #008000; stroke: #008000"/>
     <use xlink:href="#m78a94a048e" x="227.753215" y="207.072627" style="fill: #008000; stroke: #008000"/>
     <use xlink:href="#m78a94a048e" x="277.446946" y="237.385839" style="fill: #008000; stroke: #008000"/>
     <use xlink:href="#m78a94a048e" x="352.911483" y="213.345789" style="fill: #008000; stroke: #008000"/>
     <use xlink:href="#m78a94a048e" x="348.259691" y="211.656951" style="fill: #008000; stroke: #008000"/>
     <use xlink:href="#m78a94a048e" x="221.233816" y="211.909116" style="fill: #008000; stroke: #008000"/>
     <use xlink:href="#m78a94a048e" x="426.534958" y="207.721351" style="fill: #008000; stroke: #008000"/>
     <use xlink:href="#m78a94a048e" x="346.785734" y="229.463195" style="fill: #008000; stroke: #008000"/>
     <use xlink:href="#m78a94a048e" x="293.243355" y="209.348111" style="fill: #008000; stroke: #008000"/>
     <use xlink:href="#m78a94a048e" x="379.009208" y="202.930001" style="fill: #008000; stroke: #008000"/>
     <use xlink:href="#m78a94a048e" x="355.409215" y="202.711145" style="fill: #008000; stroke: #008000"/>
     <use xlink:href="#m78a94a048e" x="249.230016" y="216.132818" style="fill: #008000; stroke: #008000"/>
     <use xlink:href="#m78a94a048e" x="222.800026" y="221.972005" style="fill: #008000; stroke: #008000"/>
     <use xlink:href="#m78a94a048e" x="393.277121" y="220.46962" style="fill: #008000; stroke: #008000"/>
     <use xlink:href="#m78a94a048e" x="283.55637" y="227.080809" style="fill: #008000; stroke: #008000"/>
     <use xlink:href="#m78a94a048e" x="289.800245" y="236.187083" style="fill: #008000; stroke: #008000"/>
     <use xlink:href="#m78a94a048e" x="302.669775" y="222.567351" style="fill: #008000; stroke: #008000"/>
     <use xlink:href="#m78a94a048e" x="404.950663" y="203.001739" style="fill: #008000; stroke: #008000"/>
     <use xlink:href="#m78a94a048e" x="313.068804" y="220.694909" style="fill: #008000; stroke: #008000"/>
     <use xlink:href="#m78a94a048e" x="283.584153" y="219.791147" style="fill: #008000; stroke: #008000"/>
     <use xlink:href="#m78a94a048e" x="375.824829" y="207.005377" style="fill: #008000; stroke: #008000"/>
     <use xlink:href="#m78a94a048e" x="318.735526" y="220.658953" style="fill: #008000; stroke: #008000"/>
     <use xlink:href="#m78a94a048e" x="229.542" y="240.064477" style="fill: #008000; stroke: #008000"/>
     <use xlink:href="#m78a94a048e" x="272.881097" y="227.185582" style="fill: #008000; stroke: #008000"/>
     <use xlink:href="#m78a94a048e" x="284.465451" y="239.737962" style="fill: #008000; stroke: #008000"/>
     <use xlink:href="#m78a94a048e" x="416.033124" y="198.893985" style="fill: #008000; stroke: #008000"/>
     <use xlink:href="#m78a94a048e" x="292.326884" y="225.029585" style="fill: #008000; stroke: #008000"/>
     <use xlink:href="#m78a94a048e" x="402.373379" y="196.502142" style="fill: #008000; stroke: #008000"/>
     <use xlink:href="#m78a94a048e" x="305.447338" y="222.090868" style="fill: #008000; stroke: #008000"/>
     <use xlink:href="#m78a94a048e" x="202.319664" y="253.31405" style="fill: #008000; stroke: #008000"/>
     <use xlink:href="#m78a94a048e" x="314.369874" y="212.174729" style="fill: #008000; stroke: #008000"/>
     <use xlink:href="#m78a94a048e" x="286.753938" y="233.577263" style="fill: #008000; stroke: #008000"/>
     <use xlink:href="#m78a94a048e" x="335.963888" y="239.763845" style="fill: #008000; stroke: #008000"/>
     <use xlink:href="#m78a94a048e" x="208.122603" y="225.530623" style="fill: #008000; stroke: #008000"/>
     <use xlink:href="#m78a94a048e" x="350.174243" y="222.909805" style="fill: #008000; stroke: #008000"/>
     <use xlink:href="#m78a94a048e" x="219.298063" y="225.780335" style="fill: #008000; stroke: #008000"/>
     <use xlink:href="#m78a94a048e" x="285.462901" y="203.101308" style="fill: #008000; stroke: #008000"/>
     <use xlink:href="#m78a94a048e" x="235.641562" y="236.581982" style="fill: #008000; stroke: #008000"/>
     <use xlink:href="#m78a94a048e" x="312.681775" y="219.30173" style="fill: #008000; stroke: #008000"/>
     <use xlink:href="#m78a94a048e" x="432.120523" y="201.747246" style="fill: #008000; stroke: #008000"/>
     <use xlink:href="#m78a94a048e" x="361.37274" y="219.477081" style="fill: #008000; stroke: #008000"/>
     <use xlink:href="#m78a94a048e" x="201.137599" y="238.393311" style="fill: #008000; stroke: #008000"/>
     <use xlink:href="#m78a94a048e" x="361.493975" y="205.232237" style="fill: #008000; stroke: #008000"/>
     <use xlink:href="#m78a94a048e" x="341.246014" y="228.062109" style="fill: #008000; stroke: #008000"/>
     <use xlink:href="#m78a94a048e" x="337.424269" y="210.705122" style="fill: #008000; stroke: #008000"/>
     <use xlink:href="#m78a94a048e" x="220.968744" y="242.914561" style="fill: #008000; stroke: #008000"/>
     <use xlink:href="#m78a94a048e" x="182.492082" y="243.411636" style="fill: #008000; stroke: #008000"/>
     <use xlink:href="#m78a94a048e" x="359.570967" y="225.278229" style="fill: #008000; stroke: #008000"/>
     <use xlink:href="#m78a94a048e" x="324.644341" y="219.083711" style="fill: #008000; stroke: #008000"/>
     <use xlink:href="#m78a94a048e" x="315.397547" y="225.333426" style="fill: #008000; stroke: #008000"/>
     <use xlink:href="#m78a94a048e" x="285.276923" y="216.010462" style="fill: #008000; stroke: #008000"/>
     <use xlink:href="#m78a94a048e" x="267.384901" y="228.56594" style="fill: #008000; stroke: #008000"/>
     <use xlink:href="#m78a94a048e" x="353.518692" y="204.837785" style="fill: #008000; stroke: #008000"/>
     <use xlink:href="#m78a94a048e" x="225.659718" y="215.118617" style="fill: #008000; stroke: #008000"/>
     <use xlink:href="#m78a94a048e" x="401.626659" y="216.701509" style="fill: #008000; stroke: #008000"/>
     <use xlink:href="#m78a94a048e" x="443.584727" y="188.142538" style="fill: #008000; stroke: #008000"/>
     <use xlink:href="#m78a94a048e" x="271.123116" y="213.516312" style="fill: #008000; stroke: #008000"/>
     <use xlink:href="#m78a94a048e" x="381.269406" y="178.138097" style="fill: #008000; stroke: #008000"/>
     <use xlink:href="#m78a94a048e" x="396.635166" y="208.662097" style="fill: #008000; stroke: #008000"/>
     <use xlink:href="#m78a94a048e" x="232.32699" y="220.106026" style="fill: #008000; stroke: #008000"/>
     <use xlink:href="#m78a94a048e" x="186.663636" y="238.836386" style="fill: #008000; stroke: #008000"/>
     <use xlink:href="#m78a94a048e" x="259.748484" y="233.378445" style="fill: #008000; stroke: #008000"/>
     <use xlink:href="#m78a94a048e" x="293.955584" y="218.09675" style="fill: #008000; stroke: #008000"/>
     <use xlink:href="#m78a94a048e" x="265.059913" y="246.02808" style="fill: #008000; stroke: #008000"/>
     <use xlink:href="#m78a94a048e" x="408.2313" y="205.901635" style="fill: #008000; stroke: #008000"/>
     <use xlink:href="#m78a94a048e" x="273.967913" y="226.939808" style="fill: #008000; stroke: #008000"/>
     <use xlink:href="#m78a94a048e" x="323.572575" y="231.598956" style="fill: #008000; stroke: #008000"/>
     <use xlink:href="#m78a94a048e" x="308.174271" y="216.917365" style="fill: #008000; stroke: #008000"/>
     <use xlink:href="#m78a94a048e" x="250.882829" y="207.987266" style="fill: #008000; stroke: #008000"/>
     <use xlink:href="#m78a94a048e" x="251.066351" y="197.761243" style="fill: #008000; stroke: #008000"/>
     <use xlink:href="#m78a94a048e" x="416.685613" y="193.933455" style="fill: #008000; stroke: #008000"/>
     <use xlink:href="#m78a94a048e" x="261.008217" y="207.161539" style="fill: #008000; stroke: #008000"/>
     <use xlink:href="#m78a94a048e" x="317.153126" y="197.364636" style="fill: #008000; stroke: #008000"/>
     <use xlink:href="#m78a94a048e" x="492.632682" y="197.414102" style="fill: #008000; stroke: #008000"/>
     <use xlink:href="#m78a94a048e" x="389.203603" y="233.010699" style="fill: #008000; stroke: #008000"/>
     <use xlink:href="#m78a94a048e" x="220.910557" y="227.918427" style="fill: #008000; stroke: #008000"/>
     <use xlink:href="#m78a94a048e" x="385.810781" y="216.178564" style="fill: #008000; stroke: #008000"/>
     <use xlink:href="#m78a94a048e" x="415.690472" y="219.390661" style="fill: #008000; stroke: #008000"/>
     <use xlink:href="#m78a94a048e" x="352.403944" y="223.763468" style="fill: #008000; stroke: #008000"/>
     <use xlink:href="#m78a94a048e" x="403.460551" y="186.296767" style="fill: #008000; stroke: #008000"/>
     <use xlink:href="#m78a94a048e" x="410.591312" y="213.725802" style="fill: #008000; stroke: #008000"/>
     <use xlink:href="#m78a94a048e" x="167.743537" y="221.041025" style="fill: #008000; stroke: #008000"/>
     <use xlink:href="#m78a94a048e" x="409.07842" y="184.450322" style="fill: #008000; stroke: #008000"/>
     <use xlink:href="#m78a94a048e" x="522.518531" y="195.641955" style="fill: #008000; stroke: #008000"/>
     <use xlink:href="#m78a94a048e" x="330.27704" y="217.073241" style="fill: #008000; stroke: #008000"/>
     <use xlink:href="#m78a94a048e" x="403.72789" y="199.2101" style="fill: #008000; stroke: #008000"/>
     <use xlink:href="#m78a94a048e" x="284.127425" y="219.075286" style="fill: #008000; stroke: #008000"/>
     <use xlink:href="#m78a94a048e" x="179.227539" y="237.64516" style="fill: #008000; stroke: #008000"/>
     <use xlink:href="#m78a94a048e" x="475.043765" y="187.257619" style="fill: #008000; stroke: #008000"/>
     <use xlink:href="#m78a94a048e" x="299.250142" y="224.045144" style="fill: #008000; stroke: #008000"/>
     <use xlink:href="#m78a94a048e" x="233.957853" y="216.02018" style="fill: #008000; stroke: #008000"/>
     <use xlink:href="#m78a94a048e" x="343.546453" y="199.755363" style="fill: #008000; stroke: #008000"/>
     <use xlink:href="#m78a94a048e" x="383.276429" y="238.303527" style="fill: #008000; stroke: #008000"/>
     <use xlink:href="#m78a94a048e" x="398.686366" y="207.041918" style="fill: #008000; stroke: #008000"/>
     <use xlink:href="#m78a94a048e" x="414.601689" y="209.409953" style="fill: #008000; stroke: #008000"/>
     <use xlink:href="#m78a94a048e" x="231.39393" y="245.98622" style="fill: #008000; stroke: #008000"/>
     <use xlink:href="#m78a94a048e" x="382.226061" y="201.534107" style="fill: #008000; stroke: #008000"/>
     <use xlink:href="#m78a94a048e" x="352.22575" y="215.239187" style="fill: #008000; stroke: #008000"/>
     <use xlink:href="#m78a94a048e" x="321.682523" y="215.239449" style="fill: #008000; stroke: #008000"/>
     <use xlink:href="#m78a94a048e" x="437.376055" y="199.812785" style="fill: #008000; stroke: #008000"/>
     <use xlink:href="#m78a94a048e" x="199.294633" y="238.290126" style="fill: #008000; stroke: #008000"/>
     <use xlink:href="#m78a94a048e" x="349.192863" y="222.90689" style="fill: #008000; stroke: #008000"/>
     <use xlink:href="#m78a94a048e" x="359.431238" y="218.023615" style="fill: #008000; stroke: #008000"/>
     <use xlink:href="#m78a94a048e" x="334.619299" y="231.299135" style="fill: #008000; stroke: #008000"/>
     <use xlink:href="#m78a94a048e" x="427.39676" y="220.354287" style="fill: #008000; stroke: #008000"/>
     <use xlink:href="#m78a94a048e" x="421.425196" y="197.182573" style="fill: #008000; stroke: #008000"/>
     <use xlink:href="#m78a94a048e" x="141.264902" y="255.330358" style="fill: #008000; stroke: #008000"/>
     <use xlink:href="#m78a94a048e" x="319.414432" y="199.713478" style="fill: #008000; stroke: #008000"/>
     <use xlink:href="#m78a94a048e" x="332.511108" y="206.425581" style="fill: #008000; stroke: #008000"/>
     <use xlink:href="#m78a94a048e" x="453.900006" y="215.114117" style="fill: #008000; stroke: #008000"/>
     <use xlink:href="#m78a94a048e" x="532.841561" y="178.242903" style="fill: #008000; stroke: #008000"/>
     <use xlink:href="#m78a94a048e" x="246.110563" y="224.283237" style="fill: #008000; stroke: #008000"/>
     <use xlink:href="#m78a94a048e" x="251.544075" y="240.144205" style="fill: #008000; stroke: #008000"/>
     <use xlink:href="#m78a94a048e" x="271.309887" y="217.308717" style="fill: #008000; stroke: #008000"/>
     <use xlink:href="#m78a94a048e" x="220.762878" y="239.904901" style="fill: #008000; stroke: #008000"/>
     <use xlink:href="#m78a94a048e" x="306.020784" y="198.96698" style="fill: #008000; stroke: #008000"/>
     <use xlink:href="#m78a94a048e" x="307.813552" y="215.821013" style="fill: #008000; stroke: #008000"/>
     <use xlink:href="#m78a94a048e" x="216.117212" y="225.444058" style="fill: #008000; stroke: #008000"/>
     <use xlink:href="#m78a94a048e" x="385.619108" y="203.292279" style="fill: #008000; stroke: #008000"/>
     <use xlink:href="#m78a94a048e" x="360.752484" y="206.768133" style="fill: #008000; stroke: #008000"/>
     <use xlink:href="#m78a94a048e" x="209.443819" y="208.422399" style="fill: #008000; stroke: #008000"/>
     <use xlink:href="#m78a94a048e" x="334.246046" y="205.290591" style="fill: #008000; stroke: #008000"/>
     <use xlink:href="#m78a94a048e" x="420.080769" y="213.122532" style="fill: #008000; stroke: #008000"/>
     <use xlink:href="#m78a94a048e" x="374.014851" y="195.903808" style="fill: #008000; stroke: #008000"/>
     <use xlink:href="#m78a94a048e" x="392.430431" y="224.614112" style="fill: #008000; stroke: #008000"/>
     <use xlink:href="#m78a94a048e" x="303.003609" y="248.98378" style="fill: #008000; stroke: #008000"/>
     <use xlink:href="#m78a94a048e" x="359.944108" y="214.776175" style="fill: #008000; stroke: #008000"/>
     <use xlink:href="#m78a94a048e" x="303.156625" y="228.1428" style="fill: #008000; stroke: #008000"/>
     <use xlink:href="#m78a94a048e" x="325.714378" y="228.17808" style="fill: #008000; stroke: #008000"/>
     <use xlink:href="#m78a94a048e" x="425.75333" y="205.142429" style="fill: #008000; stroke: #008000"/>
     <use xlink:href="#m78a94a048e" x="295.415248" y="207.304277" style="fill: #008000; stroke: #008000"/>
     <use xlink:href="#m78a94a048e" x="481.334221" y="202.701437" style="fill: #008000; stroke: #008000"/>
     <use xlink:href="#m78a94a048e" x="251.032634" y="227.843432" style="fill: #008000; stroke: #008000"/>
     <use xlink:href="#m78a94a048e" x="404.116816" y="211.327151" style="fill: #008000; stroke: #008000"/>
     <use xlink:href="#m78a94a048e" x="287.752349" y="215.780411" style="fill: #008000; stroke: #008000"/>
     <use xlink:href="#m78a94a048e" x="312.01033" y="197.983181" style="fill: #008000; stroke: #008000"/>
     <use xlink:href="#m78a94a048e" x="479.248839" y="196.123786" style="fill: #008000; stroke: #008000"/>
     <use xlink:href="#m78a94a048e" x="438.353261" y="207.630892" style="fill: #008000; stroke: #008000"/>
     <use xlink:href="#m78a94a048e" x="370.370855" y="205.590044" style="fill: #008000; stroke: #008000"/>
     <use xlink:href="#m78a94a048e" x="259.322663" y="223.437887" style="fill: #008000; stroke: #008000"/>
     <use xlink:href="#m78a94a048e" x="470.678003" y="206.81843" style="fill: #008000; stroke: #008000"/>
     <use xlink:href="#m78a94a048e" x="397.659201" y="215.218632" style="fill: #008000; stroke: #008000"/>
     <use xlink:href="#m78a94a048e" x="319.272158" y="228.833702" style="fill: #008000; stroke: #008000"/>
     <use xlink:href="#m78a94a048e" x="250.590237" y="252.766796" style="fill: #008000; stroke: #008000"/>
     <use xlink:href="#m78a94a048e" x="534.595615" y="198.74562" style="fill: #008000; stroke: #008000"/>
     <use xlink:href="#m78a94a048e" x="395.113801" y="212.751518" style="fill: #008000; stroke: #008000"/>
     <use xlink:href="#m78a94a048e" x="349.286459" y="208.308141" style="fill: #008000; stroke: #008000"/>
     <use xlink:href="#m78a94a048e" x="282.528461" y="213.933113" style="fill: #008000; stroke: #008000"/>
     <use xlink:href="#m78a94a048e" x="359.136509" y="219.993908" style="fill: #008000; stroke: #008000"/>
     <use xlink:href="#m78a94a048e" x="293.771303" y="244.337514" style="fill: #008000; stroke: #008000"/>
     <use xlink:href="#m78a94a048e" x="265.003158" y="221.546885" style="fill: #008000; stroke: #008000"/>
     <use xlink:href="#m78a94a048e" x="369.929674" y="215.973494" style="fill: #008000; stroke: #008000"/>
     <use xlink:href="#m78a94a048e" x="296.067303" y="234.291078" style="fill: #008000; stroke: #008000"/>
     <use xlink:href="#m78a94a048e" x="239.810694" y="213.415254" style="fill: #008000; stroke: #008000"/>
     <use xlink:href="#m78a94a048e" x="263.323011" y="231.710066" style="fill: #008000; stroke: #008000"/>
     <use xlink:href="#m78a94a048e" x="418.024504" y="200.963763" style="fill: #008000; stroke: #008000"/>
     <use xlink:href="#m78a94a048e" x="366.377633" y="211.607346" style="fill: #008000; stroke: #008000"/>
     <use xlink:href="#m78a94a048e" x="438.39159" y="198.544401" style="fill: #008000; stroke: #008000"/>
     <use xlink:href="#m78a94a048e" x="254.831839" y="208.673063" style="fill: #008000; stroke: #008000"/>
     <use xlink:href="#m78a94a048e" x="237.925087" y="233.701279" style="fill: #008000; stroke: #008000"/>
     <use xlink:href="#m78a94a048e" x="265.35188" y="241.503584" style="fill: #008000; stroke: #008000"/>
     <use xlink:href="#m78a94a048e" x="330.699927" y="222.596546" style="fill: #008000; stroke: #008000"/>
     <use xlink:href="#m78a94a048e" x="210.365399" y="243.091795" style="fill: #008000; stroke: #008000"/>
     <use xlink:href="#m78a94a048e" x="373.83615" y="209.273295" style="fill: #008000; stroke: #008000"/>
     <use xlink:href="#m78a94a048e" x="280.211522" y="217.949521" style="fill: #008000; stroke: #008000"/>
     <use xlink:href="#m78a94a048e" x="318.989987" y="225.432234" style="fill: #008000; stroke: #008000"/>
     <use xlink:href="#m78a94a048e" x="285.355685" y="224.971859" style="fill: #008000; stroke: #008000"/>
     <use xlink:href="#m78a94a048e" x="428.036098" y="199.799574" style="fill: #008000; stroke: #008000"/>
     <use xlink:href="#m78a94a048e" x="337.782119" y="210.702018" style="fill: #008000; stroke: #008000"/>
     <use xlink:href="#m78a94a048e" x="471.749041" y="215.675163" style="fill: #008000; stroke: #008000"/>
     <use xlink:href="#m78a94a048e" x="361.328838" y="200.111268" style="fill: #008000; stroke: #008000"/>
     <use xlink:href="#m78a94a048e" x="267.098692" y="214.273608" style="fill: #008000; stroke: #008000"/>
     <use xlink:href="#m78a94a048e" x="228.233382" y="206.602026" style="fill: #008000; stroke: #008000"/>
     <use xlink:href="#m78a94a048e" x="247.549894" y="229.983811" style="fill: #008000; stroke: #008000"/>
     <use xlink:href="#m78a94a048e" x="438.118173" y="211.817442" style="fill: #008000; stroke: #008000"/>
     <use xlink:href="#m78a94a048e" x="329.712618" y="220.607315" style="fill: #008000; stroke: #008000"/>
     <use xlink:href="#m78a94a048e" x="238.177737" y="228.498435" style="fill: #008000; stroke: #008000"/>
    </g>
   </g>
   <g id="line2d_38">
    <path d="M 302.294197 220.072015 
L 534.595615 191.83071 
L 89.366123 245.958067 
L 238.177737 227.866769 
" clip-path="url(#p180b8a0604)" style="fill: none; stroke: #000000; stroke-width: 1.5; stroke-linecap: round"/>
   </g>
   <g id="line2d_39">
    <path d="M 18.225 218.16 
L 175.1625 176.58 
L 332.1 135 
L 489.0375 93.42 
L 645.975 51.84 
" clip-path="url(#p180b8a0604)" style="fill: none; stroke-dasharray: 5.55,2.4; stroke-dashoffset: 0; stroke: #000000; stroke-width: 1.5"/>
   </g>
   <g id="patch_3">
    <path d="M 81 384.48 
L 81 51.84 
" style="fill: none"/>
   </g>
   <g id="patch_4">
    <path d="M 583.2 384.48 
L 583.2 51.84 
" style="fill: none"/>
   </g>
   <g id="patch_5">
    <path d="M 81 384.48 
L 583.2 384.48 
" style="fill: none"/>
   </g>
   <g id="patch_6">
    <path d="M 81 51.84 
L 583.2 51.84 
" style="fill: none"/>
   </g>
   <g id="legend_1">
    <g id="line2d_40">
     <g>
      <use xlink:href="#m78a94a048e" x="100" y="64.497813" style="fill: #008000; stroke: #008000"/>
     </g>
    </g>
    <g id="text_21">
     <!-- Simulated data -->
     <g style="fill: #262626" transform="translate(118 67.997813) scale(0.1 -0.1)">
      <defs>
       <path id="ArialMT-53" d="M 288 1472 
L 859 1522 
Q 900 1178 1048 958 
Q 1197 738 1509 602 
Q 1822 466 2213 466 
Q 2559 466 2825 569 
Q 3091 672 3220 851 
Q 3350 1031 3350 1244 
Q 3350 1459 3225 1620 
Q 3100 1781 2813 1891 
Q 2628 1963 1997 2114 
Q 1366 2266 1113 2400 
Q 784 2572 623 2826 
Q 463 3081 463 3397 
Q 463 3744 659 4045 
Q 856 4347 1234 4503 
Q 1613 4659 2075 4659 
Q 2584 4659 2973 4495 
Q 3363 4331 3572 4012 
Q 3781 3694 3797 3291 
L 3216 3247 
Q 3169 3681 2898 3903 
Q 2628 4125 2100 4125 
Q 1550 4125 1298 3923 
Q 1047 3722 1047 3438 
Q 1047 3191 1225 3031 
Q 1400 2872 2139 2705 
Q 2878 2538 3153 2413 
Q 3553 2228 3743 1945 
Q 3934 1663 3934 1294 
Q 3934 928 3725 604 
Q 3516 281 3123 101 
Q 2731 -78 2241 -78 
Q 1619 -78 1198 103 
Q 778 284 539 648 
Q 300 1013 288 1472 
z
" transform="scale(0.015625)"/>
       <path id="ArialMT-6c" d="M 409 0 
L 409 4581 
L 972 4581 
L 972 0 
L 409 0 
z
" transform="scale(0.015625)"/>
       <path id="ArialMT-61" d="M 2588 409 
Q 2275 144 1986 34 
Q 1697 -75 1366 -75 
Q 819 -75 525 192 
Q 231 459 231 875 
Q 231 1119 342 1320 
Q 453 1522 633 1644 
Q 813 1766 1038 1828 
Q 1203 1872 1538 1913 
Q 2219 1994 2541 2106 
Q 2544 2222 2544 2253 
Q 2544 2597 2384 2738 
Q 2169 2928 1744 2928 
Q 1347 2928 1158 2789 
Q 969 2650 878 2297 
L 328 2372 
Q 403 2725 575 2942 
Q 747 3159 1072 3276 
Q 1397 3394 1825 3394 
Q 2250 3394 2515 3294 
Q 2781 3194 2906 3042 
Q 3031 2891 3081 2659 
Q 3109 2516 3109 2141 
L 3109 1391 
Q 3109 606 3145 398 
Q 3181 191 3288 0 
L 2700 0 
Q 2613 175 2588 409 
z
M 2541 1666 
Q 2234 1541 1622 1453 
Q 1275 1403 1131 1340 
Q 988 1278 909 1158 
Q 831 1038 831 891 
Q 831 666 1001 516 
Q 1172 366 1500 366 
Q 1825 366 2078 508 
Q 2331 650 2450 897 
Q 2541 1088 2541 1459 
L 2541 1666 
z
" transform="scale(0.015625)"/>
       <path id="ArialMT-64" d="M 2575 0 
L 2575 419 
Q 2259 -75 1647 -75 
Q 1250 -75 917 144 
Q 584 363 401 755 
Q 219 1147 219 1656 
Q 219 2153 384 2558 
Q 550 2963 881 3178 
Q 1213 3394 1622 3394 
Q 1922 3394 2156 3267 
Q 2391 3141 2538 2938 
L 2538 4581 
L 3097 4581 
L 3097 0 
L 2575 0 
z
M 797 1656 
Q 797 1019 1065 703 
Q 1334 388 1700 388 
Q 2069 388 2326 689 
Q 2584 991 2584 1609 
Q 2584 2291 2321 2609 
Q 2059 2928 1675 2928 
Q 1300 2928 1048 2622 
Q 797 2316 797 1656 
z
" transform="scale(0.015625)"/>
      </defs>
      <use xlink:href="#ArialMT-53"/>
      <use xlink:href="#ArialMT-69" transform="translate(66.699219 0)"/>
      <use xlink:href="#ArialMT-6d" transform="translate(88.916016 0)"/>
      <use xlink:href="#ArialMT-75" transform="translate(172.216797 0)"/>
      <use xlink:href="#ArialMT-6c" transform="translate(227.832031 0)"/>
      <use xlink:href="#ArialMT-61" transform="translate(250.048828 0)"/>
      <use xlink:href="#ArialMT-74" transform="translate(305.664062 0)"/>
      <use xlink:href="#ArialMT-65" transform="translate(333.447266 0)"/>
      <use xlink:href="#ArialMT-64" transform="translate(389.0625 0)"/>
      <use xlink:href="#ArialMT-20" transform="translate(444.677734 0)"/>
      <use xlink:href="#ArialMT-64" transform="translate(472.460938 0)"/>
      <use xlink:href="#ArialMT-61" transform="translate(528.076172 0)"/>
      <use xlink:href="#ArialMT-74" transform="translate(583.691406 0)"/>
      <use xlink:href="#ArialMT-61" transform="translate(611.474609 0)"/>
     </g>
    </g>
    <g id="line2d_41">
     <path d="M 90 78.643125 
L 100 78.643125 
L 110 78.643125 
" style="fill: none; stroke: #000000; stroke-width: 1.5; stroke-linecap: round"/>
    </g>
    <g id="text_22">
     <!-- Line of best fit -->
     <g style="fill: #262626" transform="translate(118 82.143125) scale(0.1 -0.1)">
      <defs>
       <path id="ArialMT-4c" d="M 469 0 
L 469 4581 
L 1075 4581 
L 1075 541 
L 3331 541 
L 3331 0 
L 469 0 
z
" transform="scale(0.015625)"/>
       <path id="ArialMT-66" d="M 556 0 
L 556 2881 
L 59 2881 
L 59 3319 
L 556 3319 
L 556 3672 
Q 556 4006 616 4169 
Q 697 4388 901 4523 
Q 1106 4659 1475 4659 
Q 1713 4659 2000 4603 
L 1916 4113 
Q 1741 4144 1584 4144 
Q 1328 4144 1222 4034 
Q 1116 3925 1116 3625 
L 1116 3319 
L 1763 3319 
L 1763 2881 
L 1116 2881 
L 1116 0 
L 556 0 
z
" transform="scale(0.015625)"/>
       <path id="ArialMT-62" d="M 941 0 
L 419 0 
L 419 4581 
L 981 4581 
L 981 2947 
Q 1338 3394 1891 3394 
Q 2197 3394 2470 3270 
Q 2744 3147 2920 2923 
Q 3097 2700 3197 2384 
Q 3297 2069 3297 1709 
Q 3297 856 2875 390 
Q 2453 -75 1863 -75 
Q 1275 -75 941 416 
L 941 0 
z
M 934 1684 
Q 934 1088 1097 822 
Q 1363 388 1816 388 
Q 2184 388 2453 708 
Q 2722 1028 2722 1663 
Q 2722 2313 2464 2622 
Q 2206 2931 1841 2931 
Q 1472 2931 1203 2611 
Q 934 2291 934 1684 
z
" transform="scale(0.015625)"/>
      </defs>
      <use xlink:href="#ArialMT-4c"/>
      <use xlink:href="#ArialMT-69" transform="translate(55.615234 0)"/>
      <use xlink:href="#ArialMT-6e" transform="translate(77.832031 0)"/>
      <use xlink:href="#ArialMT-65" transform="translate(133.447266 0)"/>
      <use xlink:href="#ArialMT-20" transform="translate(189.0625 0)"/>
      <use xlink:href="#ArialMT-6f" transform="translate(216.845703 0)"/>
      <use xlink:href="#ArialMT-66" transform="translate(272.460938 0)"/>
      <use xlink:href="#ArialMT-20" transform="translate(300.244141 0)"/>
      <use xlink:href="#ArialMT-62" transform="translate(328.027344 0)"/>
      <use xlink:href="#ArialMT-65" transform="translate(383.642578 0)"/>
      <use xlink:href="#ArialMT-73" transform="translate(439.257812 0)"/>
      <use xlink:href="#ArialMT-74" transform="translate(489.257812 0)"/>
      <use xlink:href="#ArialMT-20" transform="translate(517.041016 0)"/>
      <use xlink:href="#ArialMT-66" transform="translate(544.824219 0)"/>
      <use xlink:href="#ArialMT-69" transform="translate(572.607422 0)"/>
      <use xlink:href="#ArialMT-74" transform="translate(594.824219 0)"/>
     </g>
    </g>
    <g id="line2d_42">
     <path d="M 90 92.788437 
L 100 92.788437 
L 110 92.788437 
" style="fill: none; stroke-dasharray: 5.55,2.4; stroke-dashoffset: 0; stroke: #000000; stroke-width: 1.5"/>
    </g>
    <g id="text_23">
     <!-- C=Y -->
     <g style="fill: #262626" transform="translate(118 96.288437) scale(0.1 -0.1)">
      <defs>
       <path id="ArialMT-3d" d="M 3381 2694 
L 356 2694 
L 356 3219 
L 3381 3219 
L 3381 2694 
z
M 3381 1303 
L 356 1303 
L 356 1828 
L 3381 1828 
L 3381 1303 
z
" transform="scale(0.015625)"/>
       <path id="ArialMT-59" d="M 1784 0 
L 1784 1941 
L 19 4581 
L 756 4581 
L 1659 3200 
Q 1909 2813 2125 2425 
Q 2331 2784 2625 3234 
L 3513 4581 
L 4219 4581 
L 2391 1941 
L 2391 0 
L 1784 0 
z
" transform="scale(0.015625)"/>
      </defs>
      <use xlink:href="#ArialMT-43"/>
      <use xlink:href="#ArialMT-3d" transform="translate(72.216797 0)"/>
      <use xlink:href="#ArialMT-59" transform="translate(130.615234 0)"/>
     </g>
    </g>
   </g>
  </g>
 </g>
 <defs>
  <clipPath id="p180b8a0604">
   <rect x="81" y="51.84" width="502.2" height="332.64"/>
  </clipPath>
 </defs>
</svg>
