<?xml version="1.0" encoding="utf-8" standalone="no"?>
<!DOCTYPE svg PUBLIC "-//W3C//DTD SVG 1.1//EN"
  "http://www.w3.org/Graphics/SVG/1.1/DTD/svg11.dtd">
<svg xmlns:xlink="http://www.w3.org/1999/xlink" width="648pt" height="432pt" viewBox="0 0 648 432" xmlns="http://www.w3.org/2000/svg" version="1.1">
 <metadata>
  <rdf:RDF xmlns:dc="http://purl.org/dc/elements/1.1/" xmlns:cc="http://creativecommons.org/ns#" xmlns:rdf="http://www.w3.org/1999/02/22-rdf-syntax-ns#">
   <cc:Work>
    <dc:type rdf:resource="http://purl.org/dc/dcmitype/StillImage"/>
    <dc:format>image/svg+xml</dc:format>
    <dc:creator>
     <cc:Agent>
      <dc:title>Matplotlib v3.10.6, https://matplotlib.org/</dc:title>
     </cc:Agent>
    </dc:creator>
   </cc:Work>
  </rdf:RDF>
 </metadata>
 <defs>
  <style type="text/css">*{stroke-linejoin: round; stroke-linecap: butt}</style>
 </defs>
 <g id="figure_1">
  <g id="patch_1">
   <path d="M 0 432 
L 648 432 
L 648 0 
L 0 0 
z
" style="fill: #ffffff"/>
  </g>
  <g id="axes_1">
   <g id="patch_2">
    <path d="M 81 384.48 
L 583.2 384.48 
L 583.2 51.84 
L 81 51.84 
z
" style="fill: #eaeaf2"/>
   </g>
   <g id="matplotlib.axis_1">
    <g id="xtick_1">
     <g id="line2d_1">
      <path d="M 122.051491 384.48 
L 122.051491 51.84 
" clip-path="url(#pdfe247cef6)" style="fill: none; stroke: #ffffff; stroke-width: 0.8; stroke-linecap: round"/>
     </g>
     <g id="line2d_2"/>
     <g id="text_1">
      <!-- 0 -->
      <g style="fill: #262626" transform="translate(119.271022 395.137812) scale(0.1 -0.1)">
       <defs>
        <path id="ArialMT-30" d="M 266 2259 
Q 266 3072 433 3567 
Q 600 4063 929 4331 
Q 1259 4600 1759 4600 
Q 2128 4600 2406 4451 
Q 2684 4303 2865 4023 
Q 3047 3744 3150 3342 
Q 3253 2941 3253 2259 
Q 3253 1453 3087 958 
Q 2922 463 2592 192 
Q 2263 -78 1759 -78 
Q 1097 -78 719 397 
Q 266 969 266 2259 
z
M 844 2259 
Q 844 1131 1108 757 
Q 1372 384 1759 384 
Q 2147 384 2411 759 
Q 2675 1134 2675 2259 
Q 2675 3391 2411 3762 
Q 2147 4134 1753 4134 
Q 1366 4134 1134 3806 
Q 844 3388 844 2259 
z
" transform="scale(0.015625)"/>
       </defs>
       <use xlink:href="#ArialMT-30"/>
      </g>
     </g>
    </g>
    <g id="xtick_2">
     <g id="line2d_3">
      <path d="M 213.172581 384.48 
L 213.172581 51.84 
" clip-path="url(#pdfe247cef6)" style="fill: none; stroke: #ffffff; stroke-width: 0.8; stroke-linecap: round"/>
     </g>
     <g id="line2d_4"/>
     <g id="text_2">
      <!-- 500 -->
      <g style="fill: #262626" transform="translate(204.831174 395.137812) scale(0.1 -0.1)">
       <defs>
        <path id="ArialMT-35" d="M 266 1200 
L 856 1250 
Q 922 819 1161 601 
Q 1400 384 1738 384 
Q 2144 384 2425 690 
Q 2706 997 2706 1503 
Q 2706 1984 2436 2262 
Q 2166 2541 1728 2541 
Q 1456 2541 1237 2417 
Q 1019 2294 894 2097 
L 366 2166 
L 809 4519 
L 3088 4519 
L 3088 3981 
L 1259 3981 
L 1013 2750 
Q 1425 3038 1878 3038 
Q 2478 3038 2890 2622 
Q 3303 2206 3303 1553 
Q 3303 931 2941 478 
Q 2500 -78 1738 -78 
Q 1113 -78 717 272 
Q 322 622 266 1200 
z
" transform="scale(0.015625)"/>
       </defs>
       <use xlink:href="#ArialMT-35"/>
       <use xlink:href="#ArialMT-30" transform="translate(55.615234 0)"/>
       <use xlink:href="#ArialMT-30" transform="translate(111.230469 0)"/>
      </g>
     </g>
    </g>
    <g id="xtick_3">
     <g id="line2d_5">
      <path d="M 304.29367 384.48 
L 304.29367 51.84 
" clip-path="url(#pdfe247cef6)" style="fill: none; stroke: #ffffff; stroke-width: 0.8; stroke-linecap: round"/>
     </g>
     <g id="line2d_6"/>
     <g id="text_3">
      <!-- 1000 -->
      <g style="fill: #262626" transform="translate(293.171795 395.137812) scale(0.1 -0.1)">
       <defs>
        <path id="ArialMT-31" d="M 2384 0 
L 1822 0 
L 1822 3584 
Q 1619 3391 1289 3197 
Q 959 3003 697 2906 
L 697 3450 
Q 1169 3672 1522 3987 
Q 1875 4303 2022 4600 
L 2384 4600 
L 2384 0 
z
" transform="scale(0.015625)"/>
       </defs>
       <use xlink:href="#ArialMT-31"/>
       <use xlink:href="#ArialMT-30" transform="translate(55.615234 0)"/>
       <use xlink:href="#ArialMT-30" transform="translate(111.230469 0)"/>
       <use xlink:href="#ArialMT-30" transform="translate(166.845703 0)"/>
      </g>
     </g>
    </g>
    <g id="xtick_4">
     <g id="line2d_7">
      <path d="M 395.41476 384.48 
L 395.41476 51.84 
" clip-path="url(#pdfe247cef6)" style="fill: none; stroke: #ffffff; stroke-width: 0.8; stroke-linecap: round"/>
     </g>
     <g id="line2d_8"/>
     <g id="text_4">
      <!-- 1500 -->
      <g style="fill: #262626" transform="translate(384.292885 395.137812) scale(0.1 -0.1)">
       <use xlink:href="#ArialMT-31"/>
       <use xlink:href="#ArialMT-35" transform="translate(55.615234 0)"/>
       <use xlink:href="#ArialMT-30" transform="translate(111.230469 0)"/>
       <use xlink:href="#ArialMT-30" transform="translate(166.845703 0)"/>
      </g>
     </g>
    </g>
    <g id="xtick_5">
     <g id="line2d_9">
      <path d="M 486.53585 384.48 
L 486.53585 51.84 
" clip-path="url(#pdfe247cef6)" style="fill: none; stroke: #ffffff; stroke-width: 0.8; stroke-linecap: round"/>
     </g>
     <g id="line2d_10"/>
     <g id="text_5">
      <!-- 2000 -->
      <g style="fill: #262626" transform="translate(475.413975 395.137812) scale(0.1 -0.1)">
       <defs>
        <path id="ArialMT-32" d="M 3222 541 
L 3222 0 
L 194 0 
Q 188 203 259 391 
Q 375 700 629 1000 
Q 884 1300 1366 1694 
Q 2113 2306 2375 2664 
Q 2638 3022 2638 3341 
Q 2638 3675 2398 3904 
Q 2159 4134 1775 4134 
Q 1369 4134 1125 3890 
Q 881 3647 878 3216 
L 300 3275 
Q 359 3922 746 4261 
Q 1134 4600 1788 4600 
Q 2447 4600 2831 4234 
Q 3216 3869 3216 3328 
Q 3216 3053 3103 2787 
Q 2991 2522 2730 2228 
Q 2469 1934 1863 1422 
Q 1356 997 1212 845 
Q 1069 694 975 541 
L 3222 541 
z
" transform="scale(0.015625)"/>
       </defs>
       <use xlink:href="#ArialMT-32"/>
       <use xlink:href="#ArialMT-30" transform="translate(55.615234 0)"/>
       <use xlink:href="#ArialMT-30" transform="translate(111.230469 0)"/>
       <use xlink:href="#ArialMT-30" transform="translate(166.845703 0)"/>
      </g>
     </g>
    </g>
    <g id="xtick_6">
     <g id="line2d_11">
      <path d="M 577.65694 384.48 
L 577.65694 51.84 
" clip-path="url(#pdfe247cef6)" style="fill: none; stroke: #ffffff; stroke-width: 0.8; stroke-linecap: round"/>
     </g>
     <g id="line2d_12"/>
     <g id="text_6">
      <!-- 2500 -->
      <g style="fill: #262626" transform="translate(566.535065 395.137812) scale(0.1 -0.1)">
       <use xlink:href="#ArialMT-32"/>
       <use xlink:href="#ArialMT-35" transform="translate(55.615234 0)"/>
       <use xlink:href="#ArialMT-30" transform="translate(111.230469 0)"/>
       <use xlink:href="#ArialMT-30" transform="translate(166.845703 0)"/>
      </g>
     </g>
    </g>
    <g id="text_7">
     <!-- Change in income (dy) -->
     <g style="fill: #262626" transform="translate(281.800781 408.405) scale(0.1 -0.1)">
      <defs>
       <path id="ArialMT-43" d="M 3763 1606 
L 4369 1453 
Q 4178 706 3683 314 
Q 3188 -78 2472 -78 
Q 1731 -78 1267 223 
Q 803 525 561 1097 
Q 319 1669 319 2325 
Q 319 3041 592 3573 
Q 866 4106 1370 4382 
Q 1875 4659 2481 4659 
Q 3169 4659 3637 4309 
Q 4106 3959 4291 3325 
L 3694 3184 
Q 3534 3684 3231 3912 
Q 2928 4141 2469 4141 
Q 1941 4141 1586 3887 
Q 1231 3634 1087 3207 
Q 944 2781 944 2328 
Q 944 1744 1114 1308 
Q 1284 872 1643 656 
Q 2003 441 2422 441 
Q 2931 441 3284 734 
Q 3638 1028 3763 1606 
z
" transform="scale(0.015625)"/>
       <path id="ArialMT-68" d="M 422 0 
L 422 4581 
L 984 4581 
L 984 2938 
Q 1378 3394 1978 3394 
Q 2347 3394 2619 3248 
Q 2891 3103 3008 2847 
Q 3125 2591 3125 2103 
L 3125 0 
L 2563 0 
L 2563 2103 
Q 2563 2525 2380 2717 
Q 2197 2909 1863 2909 
Q 1613 2909 1392 2779 
Q 1172 2650 1078 2428 
Q 984 2206 984 1816 
L 984 0 
L 422 0 
z
" transform="scale(0.015625)"/>
       <path id="ArialMT-61" d="M 2588 409 
Q 2275 144 1986 34 
Q 1697 -75 1366 -75 
Q 819 -75 525 192 
Q 231 459 231 875 
Q 231 1119 342 1320 
Q 453 1522 633 1644 
Q 813 1766 1038 1828 
Q 1203 1872 1538 1913 
Q 2219 1994 2541 2106 
Q 2544 2222 2544 2253 
Q 2544 2597 2384 2738 
Q 2169 2928 1744 2928 
Q 1347 2928 1158 2789 
Q 969 2650 878 2297 
L 328 2372 
Q 403 2725 575 2942 
Q 747 3159 1072 3276 
Q 1397 3394 1825 3394 
Q 2250 3394 2515 3294 
Q 2781 3194 2906 3042 
Q 3031 2891 3081 2659 
Q 3109 2516 3109 2141 
L 3109 1391 
Q 3109 606 3145 398 
Q 3181 191 3288 0 
L 2700 0 
Q 2613 175 2588 409 
z
M 2541 1666 
Q 2234 1541 1622 1453 
Q 1275 1403 1131 1340 
Q 988 1278 909 1158 
Q 831 1038 831 891 
Q 831 666 1001 516 
Q 1172 366 1500 366 
Q 1825 366 2078 508 
Q 2331 650 2450 897 
Q 2541 1088 2541 1459 
L 2541 1666 
z
" transform="scale(0.015625)"/>
       <path id="ArialMT-6e" d="M 422 0 
L 422 3319 
L 928 3319 
L 928 2847 
Q 1294 3394 1984 3394 
Q 2284 3394 2536 3286 
Q 2788 3178 2913 3003 
Q 3038 2828 3088 2588 
Q 3119 2431 3119 2041 
L 3119 0 
L 2556 0 
L 2556 2019 
Q 2556 2363 2490 2533 
Q 2425 2703 2258 2804 
Q 2091 2906 1866 2906 
Q 1506 2906 1245 2678 
Q 984 2450 984 1813 
L 984 0 
L 422 0 
z
" transform="scale(0.015625)"/>
       <path id="ArialMT-67" d="M 319 -275 
L 866 -356 
Q 900 -609 1056 -725 
Q 1266 -881 1628 -881 
Q 2019 -881 2231 -725 
Q 2444 -569 2519 -288 
Q 2563 -116 2559 434 
Q 2191 0 1641 0 
Q 956 0 581 494 
Q 206 988 206 1678 
Q 206 2153 378 2554 
Q 550 2956 876 3175 
Q 1203 3394 1644 3394 
Q 2231 3394 2613 2919 
L 2613 3319 
L 3131 3319 
L 3131 450 
Q 3131 -325 2973 -648 
Q 2816 -972 2473 -1159 
Q 2131 -1347 1631 -1347 
Q 1038 -1347 672 -1080 
Q 306 -813 319 -275 
z
M 784 1719 
Q 784 1066 1043 766 
Q 1303 466 1694 466 
Q 2081 466 2343 764 
Q 2606 1063 2606 1700 
Q 2606 2309 2336 2618 
Q 2066 2928 1684 2928 
Q 1309 2928 1046 2623 
Q 784 2319 784 1719 
z
" transform="scale(0.015625)"/>
       <path id="ArialMT-65" d="M 2694 1069 
L 3275 997 
Q 3138 488 2766 206 
Q 2394 -75 1816 -75 
Q 1088 -75 661 373 
Q 234 822 234 1631 
Q 234 2469 665 2931 
Q 1097 3394 1784 3394 
Q 2450 3394 2872 2941 
Q 3294 2488 3294 1666 
Q 3294 1616 3291 1516 
L 816 1516 
Q 847 969 1125 678 
Q 1403 388 1819 388 
Q 2128 388 2347 550 
Q 2566 713 2694 1069 
z
M 847 1978 
L 2700 1978 
Q 2663 2397 2488 2606 
Q 2219 2931 1791 2931 
Q 1403 2931 1139 2672 
Q 875 2413 847 1978 
z
" transform="scale(0.015625)"/>
       <path id="ArialMT-20" transform="scale(0.015625)"/>
       <path id="ArialMT-69" d="M 425 3934 
L 425 4581 
L 988 4581 
L 988 3934 
L 425 3934 
z
M 425 0 
L 425 3319 
L 988 3319 
L 988 0 
L 425 0 
z
" transform="scale(0.015625)"/>
       <path id="ArialMT-63" d="M 2588 1216 
L 3141 1144 
Q 3050 572 2676 248 
Q 2303 -75 1759 -75 
Q 1078 -75 664 370 
Q 250 816 250 1647 
Q 250 2184 428 2587 
Q 606 2991 970 3192 
Q 1334 3394 1763 3394 
Q 2303 3394 2647 3120 
Q 2991 2847 3088 2344 
L 2541 2259 
Q 2463 2594 2264 2762 
Q 2066 2931 1784 2931 
Q 1359 2931 1093 2626 
Q 828 2322 828 1663 
Q 828 994 1084 691 
Q 1341 388 1753 388 
Q 2084 388 2306 591 
Q 2528 794 2588 1216 
z
" transform="scale(0.015625)"/>
       <path id="ArialMT-6f" d="M 213 1659 
Q 213 2581 725 3025 
Q 1153 3394 1769 3394 
Q 2453 3394 2887 2945 
Q 3322 2497 3322 1706 
Q 3322 1066 3130 698 
Q 2938 331 2570 128 
Q 2203 -75 1769 -75 
Q 1072 -75 642 372 
Q 213 819 213 1659 
z
M 791 1659 
Q 791 1022 1069 705 
Q 1347 388 1769 388 
Q 2188 388 2466 706 
Q 2744 1025 2744 1678 
Q 2744 2294 2464 2611 
Q 2184 2928 1769 2928 
Q 1347 2928 1069 2612 
Q 791 2297 791 1659 
z
" transform="scale(0.015625)"/>
       <path id="ArialMT-6d" d="M 422 0 
L 422 3319 
L 925 3319 
L 925 2853 
Q 1081 3097 1340 3245 
Q 1600 3394 1931 3394 
Q 2300 3394 2536 3241 
Q 2772 3088 2869 2813 
Q 3263 3394 3894 3394 
Q 4388 3394 4653 3120 
Q 4919 2847 4919 2278 
L 4919 0 
L 4359 0 
L 4359 2091 
Q 4359 2428 4304 2576 
Q 4250 2725 4106 2815 
Q 3963 2906 3769 2906 
Q 3419 2906 3187 2673 
Q 2956 2441 2956 1928 
L 2956 0 
L 2394 0 
L 2394 2156 
Q 2394 2531 2256 2718 
Q 2119 2906 1806 2906 
Q 1569 2906 1367 2781 
Q 1166 2656 1075 2415 
Q 984 2175 984 1722 
L 984 0 
L 422 0 
z
" transform="scale(0.015625)"/>
       <path id="ArialMT-28" d="M 1497 -1347 
Q 1031 -759 709 28 
Q 388 816 388 1659 
Q 388 2403 628 3084 
Q 909 3875 1497 4659 
L 1900 4659 
Q 1522 4009 1400 3731 
Q 1209 3300 1100 2831 
Q 966 2247 966 1656 
Q 966 153 1900 -1347 
L 1497 -1347 
z
" transform="scale(0.015625)"/>
       <path id="ArialMT-64" d="M 2575 0 
L 2575 419 
Q 2259 -75 1647 -75 
Q 1250 -75 917 144 
Q 584 363 401 755 
Q 219 1147 219 1656 
Q 219 2153 384 2558 
Q 550 2963 881 3178 
Q 1213 3394 1622 3394 
Q 1922 3394 2156 3267 
Q 2391 3141 2538 2938 
L 2538 4581 
L 3097 4581 
L 3097 0 
L 2575 0 
z
M 797 1656 
Q 797 1019 1065 703 
Q 1334 388 1700 388 
Q 2069 388 2326 689 
Q 2584 991 2584 1609 
Q 2584 2291 2321 2609 
Q 2059 2928 1675 2928 
Q 1300 2928 1048 2622 
Q 797 2316 797 1656 
z
" transform="scale(0.015625)"/>
       <path id="ArialMT-79" d="M 397 -1278 
L 334 -750 
Q 519 -800 656 -800 
Q 844 -800 956 -737 
Q 1069 -675 1141 -563 
Q 1194 -478 1313 -144 
Q 1328 -97 1363 -6 
L 103 3319 
L 709 3319 
L 1400 1397 
Q 1534 1031 1641 628 
Q 1738 1016 1872 1384 
L 2581 3319 
L 3144 3319 
L 1881 -56 
Q 1678 -603 1566 -809 
Q 1416 -1088 1222 -1217 
Q 1028 -1347 759 -1347 
Q 597 -1347 397 -1278 
z
" transform="scale(0.015625)"/>
       <path id="ArialMT-29" d="M 791 -1347 
L 388 -1347 
Q 1322 153 1322 1656 
Q 1322 2244 1188 2822 
Q 1081 3291 891 3722 
Q 769 4003 388 4659 
L 791 4659 
Q 1378 3875 1659 3084 
Q 1900 2403 1900 1659 
Q 1900 816 1576 28 
Q 1253 -759 791 -1347 
z
" transform="scale(0.015625)"/>
      </defs>
      <use xlink:href="#ArialMT-43"/>
      <use xlink:href="#ArialMT-68" transform="translate(72.216797 0)"/>
      <use xlink:href="#ArialMT-61" transform="translate(127.832031 0)"/>
      <use xlink:href="#ArialMT-6e" transform="translate(183.447266 0)"/>
      <use xlink:href="#ArialMT-67" transform="translate(239.0625 0)"/>
      <use xlink:href="#ArialMT-65" transform="translate(294.677734 0)"/>
      <use xlink:href="#ArialMT-20" transform="translate(350.292969 0)"/>
      <use xlink:href="#ArialMT-69" transform="translate(378.076172 0)"/>
      <use xlink:href="#ArialMT-6e" transform="translate(400.292969 0)"/>
      <use xlink:href="#ArialMT-20" transform="translate(455.908203 0)"/>
      <use xlink:href="#ArialMT-69" transform="translate(483.691406 0)"/>
      <use xlink:href="#ArialMT-6e" transform="translate(505.908203 0)"/>
      <use xlink:href="#ArialMT-63" transform="translate(561.523438 0)"/>
      <use xlink:href="#ArialMT-6f" transform="translate(611.523438 0)"/>
      <use xlink:href="#ArialMT-6d" transform="translate(667.138672 0)"/>
      <use xlink:href="#ArialMT-65" transform="translate(750.439453 0)"/>
      <use xlink:href="#ArialMT-20" transform="translate(806.054688 0)"/>
      <use xlink:href="#ArialMT-28" transform="translate(833.837891 0)"/>
      <use xlink:href="#ArialMT-64" transform="translate(867.138672 0)"/>
      <use xlink:href="#ArialMT-79" transform="translate(922.753906 0)"/>
      <use xlink:href="#ArialMT-29" transform="translate(972.753906 0)"/>
     </g>
    </g>
   </g>
   <g id="matplotlib.axis_2">
    <g id="ytick_1">
     <g id="line2d_13">
      <path d="M 81 356.171935 
L 583.2 356.171935 
" clip-path="url(#pdfe247cef6)" style="fill: none; stroke: #ffffff; stroke-width: 0.8; stroke-linecap: round"/>
     </g>
     <g id="line2d_14"/>
     <g id="text_8">
      <!-- 0 -->
      <g style="fill: #262626" transform="translate(71.939063 359.750841) scale(0.1 -0.1)">
       <use xlink:href="#ArialMT-30"/>
      </g>
     </g>
    </g>
    <g id="ytick_2">
     <g id="line2d_15">
      <path d="M 81 290.231608 
L 583.2 290.231608 
" clip-path="url(#pdfe247cef6)" style="fill: none; stroke: #ffffff; stroke-width: 0.8; stroke-linecap: round"/>
     </g>
     <g id="line2d_16"/>
     <g id="text_9">
      <!-- 500 -->
      <g style="fill: #262626" transform="translate(60.817188 293.810515) scale(0.1 -0.1)">
       <use xlink:href="#ArialMT-35"/>
       <use xlink:href="#ArialMT-30" transform="translate(55.615234 0)"/>
       <use xlink:href="#ArialMT-30" transform="translate(111.230469 0)"/>
      </g>
     </g>
    </g>
    <g id="ytick_3">
     <g id="line2d_17">
      <path d="M 81 224.291282 
L 583.2 224.291282 
" clip-path="url(#pdfe247cef6)" style="fill: none; stroke: #ffffff; stroke-width: 0.8; stroke-linecap: round"/>
     </g>
     <g id="line2d_18"/>
     <g id="text_10">
      <!-- 1000 -->
      <g style="fill: #262626" transform="translate(55.25625 227.870188) scale(0.1 -0.1)">
       <use xlink:href="#ArialMT-31"/>
       <use xlink:href="#ArialMT-30" transform="translate(55.615234 0)"/>
       <use xlink:href="#ArialMT-30" transform="translate(111.230469 0)"/>
       <use xlink:href="#ArialMT-30" transform="translate(166.845703 0)"/>
      </g>
     </g>
    </g>
    <g id="ytick_4">
     <g id="line2d_19">
      <path d="M 81 158.350956 
L 583.2 158.350956 
" clip-path="url(#pdfe247cef6)" style="fill: none; stroke: #ffffff; stroke-width: 0.8; stroke-linecap: round"/>
     </g>
     <g id="line2d_20"/>
     <g id="text_11">
      <!-- 1500 -->
      <g style="fill: #262626" transform="translate(55.25625 161.929862) scale(0.1 -0.1)">
       <use xlink:href="#ArialMT-31"/>
       <use xlink:href="#ArialMT-35" transform="translate(55.615234 0)"/>
       <use xlink:href="#ArialMT-30" transform="translate(111.230469 0)"/>
       <use xlink:href="#ArialMT-30" transform="translate(166.845703 0)"/>
      </g>
     </g>
    </g>
    <g id="ytick_5">
     <g id="line2d_21">
      <path d="M 81 92.410629 
L 583.2 92.410629 
" clip-path="url(#pdfe247cef6)" style="fill: none; stroke: #ffffff; stroke-width: 0.8; stroke-linecap: round"/>
     </g>
     <g id="line2d_22"/>
     <g id="text_12">
      <!-- 2000 -->
      <g style="fill: #262626" transform="translate(55.25625 95.989535) scale(0.1 -0.1)">
       <use xlink:href="#ArialMT-32"/>
       <use xlink:href="#ArialMT-30" transform="translate(55.615234 0)"/>
       <use xlink:href="#ArialMT-30" transform="translate(111.230469 0)"/>
       <use xlink:href="#ArialMT-30" transform="translate(166.845703 0)"/>
      </g>
     </g>
    </g>
    <g id="text_13">
     <!-- Change in consumption (dc) -->
     <g style="fill: #262626" transform="translate(49.151562 280.689687) rotate(-90) scale(0.1 -0.1)">
      <defs>
       <path id="ArialMT-73" d="M 197 991 
L 753 1078 
Q 800 744 1014 566 
Q 1228 388 1613 388 
Q 2000 388 2187 545 
Q 2375 703 2375 916 
Q 2375 1106 2209 1216 
Q 2094 1291 1634 1406 
Q 1016 1563 777 1677 
Q 538 1791 414 1992 
Q 291 2194 291 2438 
Q 291 2659 392 2848 
Q 494 3038 669 3163 
Q 800 3259 1026 3326 
Q 1253 3394 1513 3394 
Q 1903 3394 2198 3281 
Q 2494 3169 2634 2976 
Q 2775 2784 2828 2463 
L 2278 2388 
Q 2241 2644 2061 2787 
Q 1881 2931 1553 2931 
Q 1166 2931 1000 2803 
Q 834 2675 834 2503 
Q 834 2394 903 2306 
Q 972 2216 1119 2156 
Q 1203 2125 1616 2013 
Q 2213 1853 2448 1751 
Q 2684 1650 2818 1456 
Q 2953 1263 2953 975 
Q 2953 694 2789 445 
Q 2625 197 2315 61 
Q 2006 -75 1616 -75 
Q 969 -75 630 194 
Q 291 463 197 991 
z
" transform="scale(0.015625)"/>
       <path id="ArialMT-75" d="M 2597 0 
L 2597 488 
Q 2209 -75 1544 -75 
Q 1250 -75 995 37 
Q 741 150 617 320 
Q 494 491 444 738 
Q 409 903 409 1263 
L 409 3319 
L 972 3319 
L 972 1478 
Q 972 1038 1006 884 
Q 1059 663 1231 536 
Q 1403 409 1656 409 
Q 1909 409 2131 539 
Q 2353 669 2445 892 
Q 2538 1116 2538 1541 
L 2538 3319 
L 3100 3319 
L 3100 0 
L 2597 0 
z
" transform="scale(0.015625)"/>
       <path id="ArialMT-70" d="M 422 -1272 
L 422 3319 
L 934 3319 
L 934 2888 
Q 1116 3141 1344 3267 
Q 1572 3394 1897 3394 
Q 2322 3394 2647 3175 
Q 2972 2956 3137 2557 
Q 3303 2159 3303 1684 
Q 3303 1175 3120 767 
Q 2938 359 2589 142 
Q 2241 -75 1856 -75 
Q 1575 -75 1351 44 
Q 1128 163 984 344 
L 984 -1272 
L 422 -1272 
z
M 931 1641 
Q 931 1000 1190 694 
Q 1450 388 1819 388 
Q 2194 388 2461 705 
Q 2728 1022 2728 1688 
Q 2728 2322 2467 2637 
Q 2206 2953 1844 2953 
Q 1484 2953 1207 2617 
Q 931 2281 931 1641 
z
" transform="scale(0.015625)"/>
       <path id="ArialMT-74" d="M 1650 503 
L 1731 6 
Q 1494 -44 1306 -44 
Q 1000 -44 831 53 
Q 663 150 594 308 
Q 525 466 525 972 
L 525 2881 
L 113 2881 
L 113 3319 
L 525 3319 
L 525 4141 
L 1084 4478 
L 1084 3319 
L 1650 3319 
L 1650 2881 
L 1084 2881 
L 1084 941 
Q 1084 700 1114 631 
Q 1144 563 1211 522 
Q 1278 481 1403 481 
Q 1497 481 1650 503 
z
" transform="scale(0.015625)"/>
      </defs>
      <use xlink:href="#ArialMT-43"/>
      <use xlink:href="#ArialMT-68" transform="translate(72.216797 0)"/>
      <use xlink:href="#ArialMT-61" transform="translate(127.832031 0)"/>
      <use xlink:href="#ArialMT-6e" transform="translate(183.447266 0)"/>
      <use xlink:href="#ArialMT-67" transform="translate(239.0625 0)"/>
      <use xlink:href="#ArialMT-65" transform="translate(294.677734 0)"/>
      <use xlink:href="#ArialMT-20" transform="translate(350.292969 0)"/>
      <use xlink:href="#ArialMT-69" transform="translate(378.076172 0)"/>
      <use xlink:href="#ArialMT-6e" transform="translate(400.292969 0)"/>
      <use xlink:href="#ArialMT-20" transform="translate(455.908203 0)"/>
      <use xlink:href="#ArialMT-63" transform="translate(483.691406 0)"/>
      <use xlink:href="#ArialMT-6f" transform="translate(533.691406 0)"/>
      <use xlink:href="#ArialMT-6e" transform="translate(589.306641 0)"/>
      <use xlink:href="#ArialMT-73" transform="translate(644.921875 0)"/>
      <use xlink:href="#ArialMT-75" transform="translate(694.921875 0)"/>
      <use xlink:href="#ArialMT-6d" transform="translate(750.537109 0)"/>
      <use xlink:href="#ArialMT-70" transform="translate(833.837891 0)"/>
      <use xlink:href="#ArialMT-74" transform="translate(889.453125 0)"/>
      <use xlink:href="#ArialMT-69" transform="translate(917.236328 0)"/>
      <use xlink:href="#ArialMT-6f" transform="translate(939.453125 0)"/>
      <use xlink:href="#ArialMT-6e" transform="translate(995.068359 0)"/>
      <use xlink:href="#ArialMT-20" transform="translate(1050.683594 0)"/>
      <use xlink:href="#ArialMT-28" transform="translate(1078.466797 0)"/>
      <use xlink:href="#ArialMT-64" transform="translate(1111.767578 0)"/>
      <use xlink:href="#ArialMT-63" transform="translate(1167.382812 0)"/>
      <use xlink:href="#ArialMT-29" transform="translate(1217.382812 0)"/>
     </g>
    </g>
   </g>
   <g id="line2d_23">
    <defs>
     <path id="mfdb0a7bcc4" d="M 0 3 
C 0.795609 3 1.55874 2.683901 2.12132 2.12132 
C 2.683901 1.55874 3 0.795609 3 0 
C 3 -0.795609 2.683901 -1.55874 2.12132 -2.12132 
C 1.55874 -2.683901 0.795609 -3 0 -3 
C -0.795609 -3 -1.55874 -2.683901 -2.12132 -2.12132 
C -2.683901 -1.55874 -3 -0.795609 -3 0 
C -3 0.795609 -2.683901 1.55874 -2.12132 2.12132 
C -1.55874 2.683901 -0.795609 3 0 3 
z
" style="stroke: #008000"/>
    </defs>
    <g clip-path="url(#pdfe247cef6)">
     <use xlink:href="#mfdb0a7bcc4" x="286.992874" y="240.932115" style="fill: #008000; stroke: #008000"/>
     <use xlink:href="#mfdb0a7bcc4" x="281.400955" y="235.125937" style="fill: #008000; stroke: #008000"/>
     <use xlink:href="#mfdb0a7bcc4" x="294.638115" y="229.739535" style="fill: #008000; stroke: #008000"/>
     <use xlink:href="#mfdb0a7bcc4" x="313.692993" y="216.545404" style="fill: #008000; stroke: #008000"/>
     <use xlink:href="#mfdb0a7bcc4" x="323.657813" y="204.379677" style="fill: #008000; stroke: #008000"/>
     <use xlink:href="#mfdb0a7bcc4" x="327.477792" y="200.684777" style="fill: #008000; stroke: #008000"/>
     <use xlink:href="#mfdb0a7bcc4" x="334.334654" y="198.844382" style="fill: #008000; stroke: #008000"/>
     <use xlink:href="#mfdb0a7bcc4" x="331.67975" y="190.430924" style="fill: #008000; stroke: #008000"/>
     <use xlink:href="#mfdb0a7bcc4" x="320.018072" y="195.601305" style="fill: #008000; stroke: #008000"/>
     <use xlink:href="#mfdb0a7bcc4" x="320.652822" y="196.847577" style="fill: #008000; stroke: #008000"/>
     <use xlink:href="#mfdb0a7bcc4" x="333.335966" y="188.654624" style="fill: #008000; stroke: #008000"/>
     <use xlink:href="#mfdb0a7bcc4" x="350.77308" y="186.623266" style="fill: #008000; stroke: #008000"/>
     <use xlink:href="#mfdb0a7bcc4" x="379.923082" y="179.337915" style="fill: #008000; stroke: #008000"/>
     <use xlink:href="#mfdb0a7bcc4" x="398.770021" y="168.645427" style="fill: #008000; stroke: #008000"/>
     <use xlink:href="#mfdb0a7bcc4" x="414.291405" y="164.483142" style="fill: #008000; stroke: #008000"/>
     <use xlink:href="#mfdb0a7bcc4" x="417.232976" y="156.565028" style="fill: #008000; stroke: #008000"/>
     <use xlink:href="#mfdb0a7bcc4" x="426.309366" y="155.584099" style="fill: #008000; stroke: #008000"/>
     <use xlink:href="#mfdb0a7bcc4" x="413.297639" y="145.530574" style="fill: #008000; stroke: #008000"/>
     <use xlink:href="#mfdb0a7bcc4" x="417.056201" y="139.784138" style="fill: #008000; stroke: #008000"/>
     <use xlink:href="#mfdb0a7bcc4" x="418.909787" y="133.028024" style="fill: #008000; stroke: #008000"/>
     <use xlink:href="#mfdb0a7bcc4" x="437.297111" y="117.637947" style="fill: #008000; stroke: #008000"/>
     <use xlink:href="#mfdb0a7bcc4" x="454.404185" y="114.866212" style="fill: #008000; stroke: #008000"/>
     <use xlink:href="#mfdb0a7bcc4" x="464.916643" y="112.055571" style="fill: #008000; stroke: #008000"/>
     <use xlink:href="#mfdb0a7bcc4" x="468.726051" y="108.212965" style="fill: #008000; stroke: #008000"/>
     <use xlink:href="#mfdb0a7bcc4" x="469.478711" y="112.783552" style="fill: #008000; stroke: #008000"/>
     <use xlink:href="#mfdb0a7bcc4" x="454.330923" y="120.925336" style="fill: #008000; stroke: #008000"/>
     <use xlink:href="#mfdb0a7bcc4" x="484.937404" y="122.673546" style="fill: #008000; stroke: #008000"/>
     <use xlink:href="#mfdb0a7bcc4" x="445.553776" y="110.710389" style="fill: #008000; stroke: #008000"/>
     <use xlink:href="#mfdb0a7bcc4" x="476.234611" y="118.571003" style="fill: #008000; stroke: #008000"/>
     <use xlink:href="#mfdb0a7bcc4" x="478.20064" y="116.800637" style="fill: #008000; stroke: #008000"/>
     <use xlink:href="#mfdb0a7bcc4" x="461.891422" y="125.42972" style="fill: #008000; stroke: #008000"/>
     <use xlink:href="#mfdb0a7bcc4" x="450.163409" y="130.816781" style="fill: #008000; stroke: #008000"/>
     <use xlink:href="#mfdb0a7bcc4" x="416.204766" y="135.188888" style="fill: #008000; stroke: #008000"/>
     <use xlink:href="#mfdb0a7bcc4" x="415.156691" y="139.23103" style="fill: #008000; stroke: #008000"/>
     <use xlink:href="#mfdb0a7bcc4" x="432.064574" y="134.969703" style="fill: #008000; stroke: #008000"/>
     <use xlink:href="#mfdb0a7bcc4" x="424.815709" y="141.765381" style="fill: #008000; stroke: #008000"/>
     <use xlink:href="#mfdb0a7bcc4" x="415.659862" y="140.823225" style="fill: #008000; stroke: #008000"/>
     <use xlink:href="#mfdb0a7bcc4" x="435.175448" y="150.761092" style="fill: #008000; stroke: #008000"/>
     <use xlink:href="#mfdb0a7bcc4" x="436.117093" y="147.771358" style="fill: #008000; stroke: #008000"/>
     <use xlink:href="#mfdb0a7bcc4" x="437.489559" y="149.252377" style="fill: #008000; stroke: #008000"/>
     <use xlink:href="#mfdb0a7bcc4" x="378.565924" y="158.232922" style="fill: #008000; stroke: #008000"/>
     <use xlink:href="#mfdb0a7bcc4" x="376.090893" y="153.959725" style="fill: #008000; stroke: #008000"/>
     <use xlink:href="#mfdb0a7bcc4" x="359.797531" y="153.826922" style="fill: #008000; stroke: #008000"/>
     <use xlink:href="#mfdb0a7bcc4" x="366.071765" y="161.828648" style="fill: #008000; stroke: #008000"/>
     <use xlink:href="#mfdb0a7bcc4" x="390.106228" y="150.791029" style="fill: #008000; stroke: #008000"/>
     <use xlink:href="#mfdb0a7bcc4" x="399.501906" y="145.820711" style="fill: #008000; stroke: #008000"/>
     <use xlink:href="#mfdb0a7bcc4" x="360.042647" y="140.844458" style="fill: #008000; stroke: #008000"/>
     <use xlink:href="#mfdb0a7bcc4" x="417.768039" y="146.947367" style="fill: #008000; stroke: #008000"/>
     <use xlink:href="#mfdb0a7bcc4" x="389.5041" y="140.704401" style="fill: #008000; stroke: #008000"/>
     <use xlink:href="#mfdb0a7bcc4" x="384.905218" y="143.204594" style="fill: #008000; stroke: #008000"/>
     <use xlink:href="#mfdb0a7bcc4" x="386.258731" y="142.198213" style="fill: #008000; stroke: #008000"/>
     <use xlink:href="#mfdb0a7bcc4" x="377.088669" y="143.421538" style="fill: #008000; stroke: #008000"/>
     <use xlink:href="#mfdb0a7bcc4" x="385.949466" y="151.783958" style="fill: #008000; stroke: #008000"/>
     <use xlink:href="#mfdb0a7bcc4" x="409.356652" y="162.419078" style="fill: #008000; stroke: #008000"/>
     <use xlink:href="#mfdb0a7bcc4" x="332.248892" y="192.374318" style="fill: #008000; stroke: #008000"/>
     <use xlink:href="#mfdb0a7bcc4" x="352.054607" y="214.834252" style="fill: #008000; stroke: #008000"/>
     <use xlink:href="#mfdb0a7bcc4" x="341.250198" y="230.974598" style="fill: #008000; stroke: #008000"/>
     <use xlink:href="#mfdb0a7bcc4" x="335.554036" y="245.516945" style="fill: #008000; stroke: #008000"/>
     <use xlink:href="#mfdb0a7bcc4" x="295.143291" y="251.551804" style="fill: #008000; stroke: #008000"/>
     <use xlink:href="#mfdb0a7bcc4" x="274.512565" y="268.621381" style="fill: #008000; stroke: #008000"/>
     <use xlink:href="#mfdb0a7bcc4" x="316.070889" y="268.885802" style="fill: #008000; stroke: #008000"/>
     <use xlink:href="#mfdb0a7bcc4" x="334.622778" y="271.042182" style="fill: #008000; stroke: #008000"/>
     <use xlink:href="#mfdb0a7bcc4" x="339.370734" y="272.068609" style="fill: #008000; stroke: #008000"/>
     <use xlink:href="#mfdb0a7bcc4" x="329.467147" y="265.479192" style="fill: #008000; stroke: #008000"/>
     <use xlink:href="#mfdb0a7bcc4" x="313.83496" y="275.191279" style="fill: #008000; stroke: #008000"/>
     <use xlink:href="#mfdb0a7bcc4" x="301.281936" y="281.072233" style="fill: #008000; stroke: #008000"/>
     <use xlink:href="#mfdb0a7bcc4" x="310.536559" y="285.717729" style="fill: #008000; stroke: #008000"/>
     <use xlink:href="#mfdb0a7bcc4" x="289.657254" y="296.941828" style="fill: #008000; stroke: #008000"/>
     <use xlink:href="#mfdb0a7bcc4" x="308.895468" y="294.982741" style="fill: #008000; stroke: #008000"/>
     <use xlink:href="#mfdb0a7bcc4" x="314.025585" y="296.15516" style="fill: #008000; stroke: #008000"/>
     <use xlink:href="#mfdb0a7bcc4" x="291.398396" y="302.899273" style="fill: #008000; stroke: #008000"/>
     <use xlink:href="#mfdb0a7bcc4" x="354.671605" y="302.620741" style="fill: #008000; stroke: #008000"/>
     <use xlink:href="#mfdb0a7bcc4" x="248.807305" y="290.506579" style="fill: #008000; stroke: #008000"/>
     <use xlink:href="#mfdb0a7bcc4" x="220.980747" y="290.166459" style="fill: #008000; stroke: #008000"/>
     <use xlink:href="#mfdb0a7bcc4" x="272.737708" y="272.27975" style="fill: #008000; stroke: #008000"/>
     <use xlink:href="#mfdb0a7bcc4" x="250.745086" y="245.09862" style="fill: #008000; stroke: #008000"/>
     <use xlink:href="#mfdb0a7bcc4" x="280.077512" y="235.667439" style="fill: #008000; stroke: #008000"/>
     <use xlink:href="#mfdb0a7bcc4" x="295.226211" y="213.193393" style="fill: #008000; stroke: #008000"/>
     <use xlink:href="#mfdb0a7bcc4" x="345.294881" y="207.165788" style="fill: #008000; stroke: #008000"/>
     <use xlink:href="#mfdb0a7bcc4" x="376.960553" y="186.883467" style="fill: #008000; stroke: #008000"/>
     <use xlink:href="#mfdb0a7bcc4" x="397.769329" y="182.827082" style="fill: #008000; stroke: #008000"/>
     <use xlink:href="#mfdb0a7bcc4" x="368.07734" y="184.714162" style="fill: #008000; stroke: #008000"/>
     <use xlink:href="#mfdb0a7bcc4" x="369.796613" y="183.646456" style="fill: #008000; stroke: #008000"/>
     <use xlink:href="#mfdb0a7bcc4" x="375.499517" y="186.040222" style="fill: #008000; stroke: #008000"/>
     <use xlink:href="#mfdb0a7bcc4" x="373.098841" y="179.122422" style="fill: #008000; stroke: #008000"/>
     <use xlink:href="#mfdb0a7bcc4" x="372.511657" y="172.283355" style="fill: #008000; stroke: #008000"/>
     <use xlink:href="#mfdb0a7bcc4" x="374.705124" y="165.065131" style="fill: #008000; stroke: #008000"/>
     <use xlink:href="#mfdb0a7bcc4" x="386.26438" y="158.855927" style="fill: #008000; stroke: #008000"/>
     <use xlink:href="#mfdb0a7bcc4" x="377.385724" y="156.613032" style="fill: #008000; stroke: #008000"/>
     <use xlink:href="#mfdb0a7bcc4" x="390.103312" y="150.703196" style="fill: #008000; stroke: #008000"/>
     <use xlink:href="#mfdb0a7bcc4" x="427.593262" y="142.001975" style="fill: #008000; stroke: #008000"/>
     <use xlink:href="#mfdb0a7bcc4" x="378.228229" y="128.955417" style="fill: #008000; stroke: #008000"/>
     <use xlink:href="#mfdb0a7bcc4" x="502.999244" y="126.165878" style="fill: #008000; stroke: #008000"/>
     <use xlink:href="#mfdb0a7bcc4" x="509.676598" y="121.04482" style="fill: #008000; stroke: #008000"/>
     <use xlink:href="#mfdb0a7bcc4" x="530.390426" y="119.112241" style="fill: #008000; stroke: #008000"/>
     <use xlink:href="#mfdb0a7bcc4" x="553.567987" y="127.287127" style="fill: #008000; stroke: #008000"/>
     <use xlink:href="#mfdb0a7bcc4" x="560.372727" y="130.111615" style="fill: #008000; stroke: #008000"/>
     <use xlink:href="#mfdb0a7bcc4" x="528.164156" y="129.890319" style="fill: #008000; stroke: #008000"/>
     <use xlink:href="#mfdb0a7bcc4" x="524.456985" y="124.967215" style="fill: #008000; stroke: #008000"/>
     <use xlink:href="#mfdb0a7bcc4" x="503.204996" y="131.489636" style="fill: #008000; stroke: #008000"/>
     <use xlink:href="#mfdb0a7bcc4" x="485.748382" y="175.476186" style="fill: #008000; stroke: #008000"/>
    </g>
   </g>
   <g id="line2d_24">
    <path d="M 286.992874 243.905765 
L 281.400955 247.525148 
L 294.638115 238.957364 
L 313.692993 226.624049 
L 323.657813 220.174295 
L 327.477792 217.701805 
L 334.334654 213.263685 
L 331.67975 214.982078 
L 320.018072 222.530126 
L 320.652822 222.119283 
L 333.335966 213.910087 
L 350.77308 202.623874 
L 379.923082 183.756465 
L 398.770021 171.557739 
L 414.291405 161.511486 
L 417.232976 159.607547 
L 426.309366 153.732832 
L 413.297639 162.154703 
L 417.056201 159.721965 
L 418.909787 158.522227 
L 437.297111 146.620987 
L 454.404185 135.548393 
L 464.916643 128.744179 
L 468.726051 126.278531 
L 469.478711 125.79137 
L 454.330923 135.595812 
L 484.937404 115.785694 
L 445.553776 141.276842 
L 476.234611 121.418597 
L 478.20064 120.146081 
L 461.891422 130.70226 
L 450.163409 138.293245 
L 416.204766 160.273058 
L 415.156691 160.951427 
L 432.064574 150.00776 
L 424.815709 154.699605 
L 415.659862 160.625749 
L 435.175448 147.994239 
L 436.117093 147.384757 
L 437.489559 146.496425 
L 378.565924 184.634889 
L 376.090893 186.236859 
L 359.797531 196.782776 
L 366.071765 192.721764 
L 390.106228 177.1654 
L 399.501906 171.084025 
L 360.042647 196.624125 
L 417.768039 159.261226 
L 389.5041 177.555129 
L 384.905218 180.531766 
L 386.258731 179.655701 
L 377.088669 185.591046 
L 385.949466 179.855874 
L 409.356652 164.705517 
L 332.248892 214.613699 
L 352.054607 201.794402 
L 341.250198 208.787582 
L 335.554036 212.474437 
L 295.143291 238.630388 
L 274.512565 251.983675 
L 316.070889 225.08495 
L 334.622778 213.077195 
L 339.370734 210.00407 
L 329.467147 216.41419 
L 313.83496 226.532161 
L 301.281936 234.657135 
L 310.536559 228.667059 
L 289.657254 242.181238 
L 308.895468 229.729259 
L 314.025585 226.408778 
L 291.398396 241.05428 
L 354.671605 200.100544 
L 248.807305 268.621466 
L 220.980747 286.632273 
L 272.737708 253.132455 
L 250.745086 267.367232 
L 280.077512 248.38175 
L 295.226211 238.576718 
L 345.294881 206.169652 
L 376.960553 185.673969 
L 397.769329 172.205439 
L 368.07734 191.42365 
L 369.796613 190.310847 
L 375.499517 186.619628 
L 373.098841 188.173472 
L 372.511657 188.553528 
L 374.705124 187.133801 
L 386.26438 179.652045 
L 377.385724 185.398776 
L 390.103312 177.167287 
L 427.593262 152.901827 
L 378.228229 184.853463 
L 502.999244 104.095124 
L 509.676598 99.773191 
L 530.390426 86.366116 
L 553.567987 71.364385 
L 560.372727 66.96 
L 528.164156 87.807075 
L 524.456985 90.20655 
L 503.204996 103.961951 
L 485.748382 115.260786 
" clip-path="url(#pdfe247cef6)" style="fill: none; stroke: #000000; stroke-width: 1.5; stroke-linecap: round"/>
   </g>
   <g id="line2d_25">
    <path d="M 103.827273 369.36 
L 295.181561 230.885315 
L 486.53585 92.410629 
" clip-path="url(#pdfe247cef6)" style="fill: none; stroke-dasharray: 5.55,2.4; stroke-dashoffset: 0; stroke: #000000; stroke-width: 1.5"/>
   </g>
   <g id="patch_3">
    <path d="M 81 384.48 
L 81 51.84 
" style="fill: none"/>
   </g>
   <g id="patch_4">
    <path d="M 583.2 384.48 
L 583.2 51.84 
" style="fill: none"/>
   </g>
   <g id="patch_5">
    <path d="M 81 384.48 
L 583.2 384.48 
" style="fill: none"/>
   </g>
   <g id="patch_6">
    <path d="M 81 51.84 
L 583.2 51.84 
" style="fill: none"/>
   </g>
   <g id="legend_1">
    <g id="line2d_26">
     <g>
      <use xlink:href="#mfdb0a7bcc4" x="100" y="64.497813" style="fill: #008000; stroke: #008000"/>
     </g>
    </g>
    <g id="text_14">
     <!-- Data -->
     <g style="fill: #262626" transform="translate(118 67.997813) scale(0.1 -0.1)">
      <defs>
       <path id="ArialMT-44" d="M 494 0 
L 494 4581 
L 2072 4581 
Q 2606 4581 2888 4516 
Q 3281 4425 3559 4188 
Q 3922 3881 4101 3404 
Q 4281 2928 4281 2316 
Q 4281 1794 4159 1391 
Q 4038 988 3847 723 
Q 3656 459 3429 307 
Q 3203 156 2883 78 
Q 2563 0 2147 0 
L 494 0 
z
M 1100 541 
L 2078 541 
Q 2531 541 2789 625 
Q 3047 709 3200 863 
Q 3416 1078 3536 1442 
Q 3656 1806 3656 2325 
Q 3656 3044 3420 3430 
Q 3184 3816 2847 3947 
Q 2603 4041 2063 4041 
L 1100 4041 
L 1100 541 
z
" transform="scale(0.015625)"/>
      </defs>
      <use xlink:href="#ArialMT-44"/>
      <use xlink:href="#ArialMT-61" transform="translate(72.216797 0)"/>
      <use xlink:href="#ArialMT-74" transform="translate(127.832031 0)"/>
      <use xlink:href="#ArialMT-61" transform="translate(155.615234 0)"/>
     </g>
    </g>
    <g id="line2d_27">
     <path d="M 90 78.643125 
L 100 78.643125 
L 110 78.643125 
" style="fill: none; stroke: #000000; stroke-width: 1.5; stroke-linecap: round"/>
    </g>
    <g id="text_15">
     <!-- Line of best fit -->
     <g style="fill: #262626" transform="translate(118 82.143125) scale(0.1 -0.1)">
      <defs>
       <path id="ArialMT-4c" d="M 469 0 
L 469 4581 
L 1075 4581 
L 1075 541 
L 3331 541 
L 3331 0 
L 469 0 
z
" transform="scale(0.015625)"/>
       <path id="ArialMT-66" d="M 556 0 
L 556 2881 
L 59 2881 
L 59 3319 
L 556 3319 
L 556 3672 
Q 556 4006 616 4169 
Q 697 4388 901 4523 
Q 1106 4659 1475 4659 
Q 1713 4659 2000 4603 
L 1916 4113 
Q 1741 4144 1584 4144 
Q 1328 4144 1222 4034 
Q 1116 3925 1116 3625 
L 1116 3319 
L 1763 3319 
L 1763 2881 
L 1116 2881 
L 1116 0 
L 556 0 
z
" transform="scale(0.015625)"/>
       <path id="ArialMT-62" d="M 941 0 
L 419 0 
L 419 4581 
L 981 4581 
L 981 2947 
Q 1338 3394 1891 3394 
Q 2197 3394 2470 3270 
Q 2744 3147 2920 2923 
Q 3097 2700 3197 2384 
Q 3297 2069 3297 1709 
Q 3297 856 2875 390 
Q 2453 -75 1863 -75 
Q 1275 -75 941 416 
L 941 0 
z
M 934 1684 
Q 934 1088 1097 822 
Q 1363 388 1816 388 
Q 2184 388 2453 708 
Q 2722 1028 2722 1663 
Q 2722 2313 2464 2622 
Q 2206 2931 1841 2931 
Q 1472 2931 1203 2611 
Q 934 2291 934 1684 
z
" transform="scale(0.015625)"/>
      </defs>
      <use xlink:href="#ArialMT-4c"/>
      <use xlink:href="#ArialMT-69" transform="translate(55.615234 0)"/>
      <use xlink:href="#ArialMT-6e" transform="translate(77.832031 0)"/>
      <use xlink:href="#ArialMT-65" transform="translate(133.447266 0)"/>
      <use xlink:href="#ArialMT-20" transform="translate(189.0625 0)"/>
      <use xlink:href="#ArialMT-6f" transform="translate(216.845703 0)"/>
      <use xlink:href="#ArialMT-66" transform="translate(272.460938 0)"/>
      <use xlink:href="#ArialMT-20" transform="translate(300.244141 0)"/>
      <use xlink:href="#ArialMT-62" transform="translate(328.027344 0)"/>
      <use xlink:href="#ArialMT-65" transform="translate(383.642578 0)"/>
      <use xlink:href="#ArialMT-73" transform="translate(439.257812 0)"/>
      <use xlink:href="#ArialMT-74" transform="translate(489.257812 0)"/>
      <use xlink:href="#ArialMT-20" transform="translate(517.041016 0)"/>
      <use xlink:href="#ArialMT-66" transform="translate(544.824219 0)"/>
      <use xlink:href="#ArialMT-69" transform="translate(572.607422 0)"/>
      <use xlink:href="#ArialMT-74" transform="translate(594.824219 0)"/>
     </g>
    </g>
    <g id="line2d_28">
     <path d="M 90 92.788437 
L 100 92.788437 
L 110 92.788437 
" style="fill: none; stroke-dasharray: 5.55,2.4; stroke-dashoffset: 0; stroke: #000000; stroke-width: 1.5"/>
    </g>
    <g id="text_16">
     <!-- C=Y -->
     <g style="fill: #262626" transform="translate(118 96.288437) scale(0.1 -0.1)">
      <defs>
       <path id="ArialMT-3d" d="M 3381 2694 
L 356 2694 
L 356 3219 
L 3381 3219 
L 3381 2694 
z
M 3381 1303 
L 356 1303 
L 356 1828 
L 3381 1828 
L 3381 1303 
z
" transform="scale(0.015625)"/>
       <path id="ArialMT-59" d="M 1784 0 
L 1784 1941 
L 19 4581 
L 756 4581 
L 1659 3200 
Q 1909 2813 2125 2425 
Q 2331 2784 2625 3234 
L 3513 4581 
L 4219 4581 
L 2391 1941 
L 2391 0 
L 1784 0 
z
" transform="scale(0.015625)"/>
      </defs>
      <use xlink:href="#ArialMT-43"/>
      <use xlink:href="#ArialMT-3d" transform="translate(72.216797 0)"/>
      <use xlink:href="#ArialMT-59" transform="translate(130.615234 0)"/>
     </g>
    </g>
   </g>
  </g>
 </g>
 <defs>
  <clipPath id="pdfe247cef6">
   <rect x="81" y="51.84" width="502.2" height="332.64"/>
  </clipPath>
 </defs>
</svg>
