<?xml version="1.0" encoding="utf-8" standalone="no"?>
<!DOCTYPE svg PUBLIC "-//W3C//DTD SVG 1.1//EN"
  "http://www.w3.org/Graphics/SVG/1.1/DTD/svg11.dtd">
<svg xmlns:xlink="http://www.w3.org/1999/xlink" width="648pt" height="432pt" viewBox="0 0 648 432" xmlns="http://www.w3.org/2000/svg" version="1.1">
 <metadata>
  <rdf:RDF xmlns:dc="http://purl.org/dc/elements/1.1/" xmlns:cc="http://creativecommons.org/ns#" xmlns:rdf="http://www.w3.org/1999/02/22-rdf-syntax-ns#">
   <cc:Work>
    <dc:type rdf:resource="http://purl.org/dc/dcmitype/StillImage"/>
    <dc:format>image/svg+xml</dc:format>
    <dc:creator>
     <cc:Agent>
      <dc:title>Matplotlib v3.10.6, https://matplotlib.org/</dc:title>
     </cc:Agent>
    </dc:creator>
   </cc:Work>
  </rdf:RDF>
 </metadata>
 <defs>
  <style type="text/css">*{stroke-linejoin: round; stroke-linecap: butt}</style>
 </defs>
 <g id="figure_1">
  <g id="patch_1">
   <path d="M 0 432 
L 648 432 
L 648 0 
L 0 0 
z
" style="fill: #ffffff"/>
  </g>
  <g id="axes_1">
   <g id="patch_2">
    <path d="M 81 384.48 
L 583.2 384.48 
L 583.2 51.84 
L 81 51.84 
z
" style="fill: #eaeaf2"/>
   </g>
   <g id="matplotlib.axis_1">
    <g id="xtick_1">
     <g id="line2d_1">
      <path d="M 81 384.48 
L 81 51.84 
" clip-path="url(#pcc51263ae6)" style="fill: none; stroke: #ffffff; stroke-width: 0.8; stroke-linecap: round"/>
     </g>
     <g id="line2d_2"/>
     <g id="text_1">
      <!-- 1.1 -->
      <g style="fill: #262626" transform="translate(74.05 395.137812) scale(0.1 -0.1)">
       <defs>
        <path id="ArialMT-31" d="M 2384 0 
L 1822 0 
L 1822 3584 
Q 1619 3391 1289 3197 
Q 959 3003 697 2906 
L 697 3450 
Q 1169 3672 1522 3987 
Q 1875 4303 2022 4600 
L 2384 4600 
L 2384 0 
z
" transform="scale(0.015625)"/>
        <path id="ArialMT-2e" d="M 581 0 
L 581 641 
L 1222 641 
L 1222 0 
L 581 0 
z
" transform="scale(0.015625)"/>
       </defs>
       <use xlink:href="#ArialMT-31"/>
       <use xlink:href="#ArialMT-2e" transform="translate(55.615234 0)"/>
       <use xlink:href="#ArialMT-31" transform="translate(83.398438 0)"/>
      </g>
     </g>
    </g>
    <g id="xtick_2">
     <g id="line2d_3">
      <path d="M 143.775 384.48 
L 143.775 51.84 
" clip-path="url(#pcc51263ae6)" style="fill: none; stroke: #ffffff; stroke-width: 0.8; stroke-linecap: round"/>
     </g>
     <g id="line2d_4"/>
     <g id="text_2">
      <!-- 1.2 -->
      <g style="fill: #262626" transform="translate(136.825 395.137812) scale(0.1 -0.1)">
       <defs>
        <path id="ArialMT-32" d="M 3222 541 
L 3222 0 
L 194 0 
Q 188 203 259 391 
Q 375 700 629 1000 
Q 884 1300 1366 1694 
Q 2113 2306 2375 2664 
Q 2638 3022 2638 3341 
Q 2638 3675 2398 3904 
Q 2159 4134 1775 4134 
Q 1369 4134 1125 3890 
Q 881 3647 878 3216 
L 300 3275 
Q 359 3922 746 4261 
Q 1134 4600 1788 4600 
Q 2447 4600 2831 4234 
Q 3216 3869 3216 3328 
Q 3216 3053 3103 2787 
Q 2991 2522 2730 2228 
Q 2469 1934 1863 1422 
Q 1356 997 1212 845 
Q 1069 694 975 541 
L 3222 541 
z
" transform="scale(0.015625)"/>
       </defs>
       <use xlink:href="#ArialMT-31"/>
       <use xlink:href="#ArialMT-2e" transform="translate(55.615234 0)"/>
       <use xlink:href="#ArialMT-32" transform="translate(83.398438 0)"/>
      </g>
     </g>
    </g>
    <g id="xtick_3">
     <g id="line2d_5">
      <path d="M 206.55 384.48 
L 206.55 51.84 
" clip-path="url(#pcc51263ae6)" style="fill: none; stroke: #ffffff; stroke-width: 0.8; stroke-linecap: round"/>
     </g>
     <g id="line2d_6"/>
     <g id="text_3">
      <!-- 1.3 -->
      <g style="fill: #262626" transform="translate(199.6 395.137812) scale(0.1 -0.1)">
       <defs>
        <path id="ArialMT-33" d="M 269 1209 
L 831 1284 
Q 928 806 1161 595 
Q 1394 384 1728 384 
Q 2125 384 2398 659 
Q 2672 934 2672 1341 
Q 2672 1728 2419 1979 
Q 2166 2231 1775 2231 
Q 1616 2231 1378 2169 
L 1441 2663 
Q 1497 2656 1531 2656 
Q 1891 2656 2178 2843 
Q 2466 3031 2466 3422 
Q 2466 3731 2256 3934 
Q 2047 4138 1716 4138 
Q 1388 4138 1169 3931 
Q 950 3725 888 3313 
L 325 3413 
Q 428 3978 793 4289 
Q 1159 4600 1703 4600 
Q 2078 4600 2393 4439 
Q 2709 4278 2876 4000 
Q 3044 3722 3044 3409 
Q 3044 3113 2884 2869 
Q 2725 2625 2413 2481 
Q 2819 2388 3044 2092 
Q 3269 1797 3269 1353 
Q 3269 753 2831 336 
Q 2394 -81 1725 -81 
Q 1122 -81 723 278 
Q 325 638 269 1209 
z
" transform="scale(0.015625)"/>
       </defs>
       <use xlink:href="#ArialMT-31"/>
       <use xlink:href="#ArialMT-2e" transform="translate(55.615234 0)"/>
       <use xlink:href="#ArialMT-33" transform="translate(83.398438 0)"/>
      </g>
     </g>
    </g>
    <g id="xtick_4">
     <g id="line2d_7">
      <path d="M 269.325 384.48 
L 269.325 51.84 
" clip-path="url(#pcc51263ae6)" style="fill: none; stroke: #ffffff; stroke-width: 0.8; stroke-linecap: round"/>
     </g>
     <g id="line2d_8"/>
     <g id="text_4">
      <!-- 1.4 -->
      <g style="fill: #262626" transform="translate(262.375 395.137812) scale(0.1 -0.1)">
       <defs>
        <path id="ArialMT-34" d="M 2069 0 
L 2069 1097 
L 81 1097 
L 81 1613 
L 2172 4581 
L 2631 4581 
L 2631 1613 
L 3250 1613 
L 3250 1097 
L 2631 1097 
L 2631 0 
L 2069 0 
z
M 2069 1613 
L 2069 3678 
L 634 1613 
L 2069 1613 
z
" transform="scale(0.015625)"/>
       </defs>
       <use xlink:href="#ArialMT-31"/>
       <use xlink:href="#ArialMT-2e" transform="translate(55.615234 0)"/>
       <use xlink:href="#ArialMT-34" transform="translate(83.398438 0)"/>
      </g>
     </g>
    </g>
    <g id="xtick_5">
     <g id="line2d_9">
      <path d="M 332.1 384.48 
L 332.1 51.84 
" clip-path="url(#pcc51263ae6)" style="fill: none; stroke: #ffffff; stroke-width: 0.8; stroke-linecap: round"/>
     </g>
     <g id="line2d_10"/>
     <g id="text_5">
      <!-- 1.5 -->
      <g style="fill: #262626" transform="translate(325.15 395.137812) scale(0.1 -0.1)">
       <defs>
        <path id="ArialMT-35" d="M 266 1200 
L 856 1250 
Q 922 819 1161 601 
Q 1400 384 1738 384 
Q 2144 384 2425 690 
Q 2706 997 2706 1503 
Q 2706 1984 2436 2262 
Q 2166 2541 1728 2541 
Q 1456 2541 1237 2417 
Q 1019 2294 894 2097 
L 366 2166 
L 809 4519 
L 3088 4519 
L 3088 3981 
L 1259 3981 
L 1013 2750 
Q 1425 3038 1878 3038 
Q 2478 3038 2890 2622 
Q 3303 2206 3303 1553 
Q 3303 931 2941 478 
Q 2500 -78 1738 -78 
Q 1113 -78 717 272 
Q 322 622 266 1200 
z
" transform="scale(0.015625)"/>
       </defs>
       <use xlink:href="#ArialMT-31"/>
       <use xlink:href="#ArialMT-2e" transform="translate(55.615234 0)"/>
       <use xlink:href="#ArialMT-35" transform="translate(83.398438 0)"/>
      </g>
     </g>
    </g>
    <g id="xtick_6">
     <g id="line2d_11">
      <path d="M 394.875 384.48 
L 394.875 51.84 
" clip-path="url(#pcc51263ae6)" style="fill: none; stroke: #ffffff; stroke-width: 0.8; stroke-linecap: round"/>
     </g>
     <g id="line2d_12"/>
     <g id="text_6">
      <!-- 1.6 -->
      <g style="fill: #262626" transform="translate(387.925 395.137812) scale(0.1 -0.1)">
       <defs>
        <path id="ArialMT-36" d="M 3184 3459 
L 2625 3416 
Q 2550 3747 2413 3897 
Q 2184 4138 1850 4138 
Q 1581 4138 1378 3988 
Q 1113 3794 959 3422 
Q 806 3050 800 2363 
Q 1003 2672 1297 2822 
Q 1591 2972 1913 2972 
Q 2475 2972 2870 2558 
Q 3266 2144 3266 1488 
Q 3266 1056 3080 686 
Q 2894 316 2569 119 
Q 2244 -78 1831 -78 
Q 1128 -78 684 439 
Q 241 956 241 2144 
Q 241 3472 731 4075 
Q 1159 4600 1884 4600 
Q 2425 4600 2770 4297 
Q 3116 3994 3184 3459 
z
M 888 1484 
Q 888 1194 1011 928 
Q 1134 663 1356 523 
Q 1578 384 1822 384 
Q 2178 384 2434 671 
Q 2691 959 2691 1453 
Q 2691 1928 2437 2201 
Q 2184 2475 1800 2475 
Q 1419 2475 1153 2201 
Q 888 1928 888 1484 
z
" transform="scale(0.015625)"/>
       </defs>
       <use xlink:href="#ArialMT-31"/>
       <use xlink:href="#ArialMT-2e" transform="translate(55.615234 0)"/>
       <use xlink:href="#ArialMT-36" transform="translate(83.398438 0)"/>
      </g>
     </g>
    </g>
    <g id="xtick_7">
     <g id="line2d_13">
      <path d="M 457.65 384.48 
L 457.65 51.84 
" clip-path="url(#pcc51263ae6)" style="fill: none; stroke: #ffffff; stroke-width: 0.8; stroke-linecap: round"/>
     </g>
     <g id="line2d_14"/>
     <g id="text_7">
      <!-- 1.7 -->
      <g style="fill: #262626" transform="translate(450.7 395.137812) scale(0.1 -0.1)">
       <defs>
        <path id="ArialMT-37" d="M 303 3981 
L 303 4522 
L 3269 4522 
L 3269 4084 
Q 2831 3619 2401 2847 
Q 1972 2075 1738 1259 
Q 1569 684 1522 0 
L 944 0 
Q 953 541 1156 1306 
Q 1359 2072 1739 2783 
Q 2119 3494 2547 3981 
L 303 3981 
z
" transform="scale(0.015625)"/>
       </defs>
       <use xlink:href="#ArialMT-31"/>
       <use xlink:href="#ArialMT-2e" transform="translate(55.615234 0)"/>
       <use xlink:href="#ArialMT-37" transform="translate(83.398438 0)"/>
      </g>
     </g>
    </g>
    <g id="xtick_8">
     <g id="line2d_15">
      <path d="M 520.425 384.48 
L 520.425 51.84 
" clip-path="url(#pcc51263ae6)" style="fill: none; stroke: #ffffff; stroke-width: 0.8; stroke-linecap: round"/>
     </g>
     <g id="line2d_16"/>
     <g id="text_8">
      <!-- 1.8 -->
      <g style="fill: #262626" transform="translate(513.475 395.137812) scale(0.1 -0.1)">
       <defs>
        <path id="ArialMT-38" d="M 1131 2484 
Q 781 2613 612 2850 
Q 444 3088 444 3419 
Q 444 3919 803 4259 
Q 1163 4600 1759 4600 
Q 2359 4600 2725 4251 
Q 3091 3903 3091 3403 
Q 3091 3084 2923 2848 
Q 2756 2613 2416 2484 
Q 2838 2347 3058 2040 
Q 3278 1734 3278 1309 
Q 3278 722 2862 322 
Q 2447 -78 1769 -78 
Q 1091 -78 675 323 
Q 259 725 259 1325 
Q 259 1772 486 2073 
Q 713 2375 1131 2484 
z
M 1019 3438 
Q 1019 3113 1228 2906 
Q 1438 2700 1772 2700 
Q 2097 2700 2305 2904 
Q 2513 3109 2513 3406 
Q 2513 3716 2298 3927 
Q 2084 4138 1766 4138 
Q 1444 4138 1231 3931 
Q 1019 3725 1019 3438 
z
M 838 1322 
Q 838 1081 952 856 
Q 1066 631 1291 507 
Q 1516 384 1775 384 
Q 2178 384 2440 643 
Q 2703 903 2703 1303 
Q 2703 1709 2433 1975 
Q 2163 2241 1756 2241 
Q 1359 2241 1098 1978 
Q 838 1716 838 1322 
z
" transform="scale(0.015625)"/>
       </defs>
       <use xlink:href="#ArialMT-31"/>
       <use xlink:href="#ArialMT-2e" transform="translate(55.615234 0)"/>
       <use xlink:href="#ArialMT-38" transform="translate(83.398438 0)"/>
      </g>
     </g>
    </g>
    <g id="xtick_9">
     <g id="line2d_17">
      <path d="M 583.2 384.48 
L 583.2 51.84 
" clip-path="url(#pcc51263ae6)" style="fill: none; stroke: #ffffff; stroke-width: 0.8; stroke-linecap: round"/>
     </g>
     <g id="line2d_18"/>
     <g id="text_9">
      <!-- 1.9 -->
      <g style="fill: #262626" transform="translate(576.25 395.137812) scale(0.1 -0.1)">
       <defs>
        <path id="ArialMT-39" d="M 350 1059 
L 891 1109 
Q 959 728 1153 556 
Q 1347 384 1650 384 
Q 1909 384 2104 503 
Q 2300 622 2425 820 
Q 2550 1019 2634 1356 
Q 2719 1694 2719 2044 
Q 2719 2081 2716 2156 
Q 2547 1888 2255 1720 
Q 1963 1553 1622 1553 
Q 1053 1553 659 1965 
Q 266 2378 266 3053 
Q 266 3750 677 4175 
Q 1088 4600 1706 4600 
Q 2153 4600 2523 4359 
Q 2894 4119 3086 3673 
Q 3278 3228 3278 2384 
Q 3278 1506 3087 986 
Q 2897 466 2520 194 
Q 2144 -78 1638 -78 
Q 1100 -78 759 220 
Q 419 519 350 1059 
z
M 2653 3081 
Q 2653 3566 2395 3850 
Q 2138 4134 1775 4134 
Q 1400 4134 1122 3828 
Q 844 3522 844 3034 
Q 844 2597 1108 2323 
Q 1372 2050 1759 2050 
Q 2150 2050 2401 2323 
Q 2653 2597 2653 3081 
z
" transform="scale(0.015625)"/>
       </defs>
       <use xlink:href="#ArialMT-31"/>
       <use xlink:href="#ArialMT-2e" transform="translate(55.615234 0)"/>
       <use xlink:href="#ArialMT-39" transform="translate(83.398438 0)"/>
      </g>
     </g>
    </g>
    <g id="text_10">
     <!-- Income (y) -->
     <g style="fill: #262626" transform="translate(308.485938 408.405) scale(0.1 -0.1)">
      <defs>
       <path id="ArialMT-49" d="M 597 0 
L 597 4581 
L 1203 4581 
L 1203 0 
L 597 0 
z
" transform="scale(0.015625)"/>
       <path id="ArialMT-6e" d="M 422 0 
L 422 3319 
L 928 3319 
L 928 2847 
Q 1294 3394 1984 3394 
Q 2284 3394 2536 3286 
Q 2788 3178 2913 3003 
Q 3038 2828 3088 2588 
Q 3119 2431 3119 2041 
L 3119 0 
L 2556 0 
L 2556 2019 
Q 2556 2363 2490 2533 
Q 2425 2703 2258 2804 
Q 2091 2906 1866 2906 
Q 1506 2906 1245 2678 
Q 984 2450 984 1813 
L 984 0 
L 422 0 
z
" transform="scale(0.015625)"/>
       <path id="ArialMT-63" d="M 2588 1216 
L 3141 1144 
Q 3050 572 2676 248 
Q 2303 -75 1759 -75 
Q 1078 -75 664 370 
Q 250 816 250 1647 
Q 250 2184 428 2587 
Q 606 2991 970 3192 
Q 1334 3394 1763 3394 
Q 2303 3394 2647 3120 
Q 2991 2847 3088 2344 
L 2541 2259 
Q 2463 2594 2264 2762 
Q 2066 2931 1784 2931 
Q 1359 2931 1093 2626 
Q 828 2322 828 1663 
Q 828 994 1084 691 
Q 1341 388 1753 388 
Q 2084 388 2306 591 
Q 2528 794 2588 1216 
z
" transform="scale(0.015625)"/>
       <path id="ArialMT-6f" d="M 213 1659 
Q 213 2581 725 3025 
Q 1153 3394 1769 3394 
Q 2453 3394 2887 2945 
Q 3322 2497 3322 1706 
Q 3322 1066 3130 698 
Q 2938 331 2570 128 
Q 2203 -75 1769 -75 
Q 1072 -75 642 372 
Q 213 819 213 1659 
z
M 791 1659 
Q 791 1022 1069 705 
Q 1347 388 1769 388 
Q 2188 388 2466 706 
Q 2744 1025 2744 1678 
Q 2744 2294 2464 2611 
Q 2184 2928 1769 2928 
Q 1347 2928 1069 2612 
Q 791 2297 791 1659 
z
" transform="scale(0.015625)"/>
       <path id="ArialMT-6d" d="M 422 0 
L 422 3319 
L 925 3319 
L 925 2853 
Q 1081 3097 1340 3245 
Q 1600 3394 1931 3394 
Q 2300 3394 2536 3241 
Q 2772 3088 2869 2813 
Q 3263 3394 3894 3394 
Q 4388 3394 4653 3120 
Q 4919 2847 4919 2278 
L 4919 0 
L 4359 0 
L 4359 2091 
Q 4359 2428 4304 2576 
Q 4250 2725 4106 2815 
Q 3963 2906 3769 2906 
Q 3419 2906 3187 2673 
Q 2956 2441 2956 1928 
L 2956 0 
L 2394 0 
L 2394 2156 
Q 2394 2531 2256 2718 
Q 2119 2906 1806 2906 
Q 1569 2906 1367 2781 
Q 1166 2656 1075 2415 
Q 984 2175 984 1722 
L 984 0 
L 422 0 
z
" transform="scale(0.015625)"/>
       <path id="ArialMT-65" d="M 2694 1069 
L 3275 997 
Q 3138 488 2766 206 
Q 2394 -75 1816 -75 
Q 1088 -75 661 373 
Q 234 822 234 1631 
Q 234 2469 665 2931 
Q 1097 3394 1784 3394 
Q 2450 3394 2872 2941 
Q 3294 2488 3294 1666 
Q 3294 1616 3291 1516 
L 816 1516 
Q 847 969 1125 678 
Q 1403 388 1819 388 
Q 2128 388 2347 550 
Q 2566 713 2694 1069 
z
M 847 1978 
L 2700 1978 
Q 2663 2397 2488 2606 
Q 2219 2931 1791 2931 
Q 1403 2931 1139 2672 
Q 875 2413 847 1978 
z
" transform="scale(0.015625)"/>
       <path id="ArialMT-20" transform="scale(0.015625)"/>
       <path id="ArialMT-28" d="M 1497 -1347 
Q 1031 -759 709 28 
Q 388 816 388 1659 
Q 388 2403 628 3084 
Q 909 3875 1497 4659 
L 1900 4659 
Q 1522 4009 1400 3731 
Q 1209 3300 1100 2831 
Q 966 2247 966 1656 
Q 966 153 1900 -1347 
L 1497 -1347 
z
" transform="scale(0.015625)"/>
       <path id="ArialMT-79" d="M 397 -1278 
L 334 -750 
Q 519 -800 656 -800 
Q 844 -800 956 -737 
Q 1069 -675 1141 -563 
Q 1194 -478 1313 -144 
Q 1328 -97 1363 -6 
L 103 3319 
L 709 3319 
L 1400 1397 
Q 1534 1031 1641 628 
Q 1738 1016 1872 1384 
L 2581 3319 
L 3144 3319 
L 1881 -56 
Q 1678 -603 1566 -809 
Q 1416 -1088 1222 -1217 
Q 1028 -1347 759 -1347 
Q 597 -1347 397 -1278 
z
" transform="scale(0.015625)"/>
       <path id="ArialMT-29" d="M 791 -1347 
L 388 -1347 
Q 1322 153 1322 1656 
Q 1322 2244 1188 2822 
Q 1081 3291 891 3722 
Q 769 4003 388 4659 
L 791 4659 
Q 1378 3875 1659 3084 
Q 1900 2403 1900 1659 
Q 1900 816 1576 28 
Q 1253 -759 791 -1347 
z
" transform="scale(0.015625)"/>
      </defs>
      <use xlink:href="#ArialMT-49"/>
      <use xlink:href="#ArialMT-6e" transform="translate(27.783203 0)"/>
      <use xlink:href="#ArialMT-63" transform="translate(83.398438 0)"/>
      <use xlink:href="#ArialMT-6f" transform="translate(133.398438 0)"/>
      <use xlink:href="#ArialMT-6d" transform="translate(189.013672 0)"/>
      <use xlink:href="#ArialMT-65" transform="translate(272.314453 0)"/>
      <use xlink:href="#ArialMT-20" transform="translate(327.929688 0)"/>
      <use xlink:href="#ArialMT-28" transform="translate(355.712891 0)"/>
      <use xlink:href="#ArialMT-79" transform="translate(389.013672 0)"/>
      <use xlink:href="#ArialMT-29" transform="translate(439.013672 0)"/>
     </g>
    </g>
   </g>
   <g id="matplotlib.axis_2">
    <g id="ytick_1">
     <g id="line2d_19">
      <path d="M 81 384.48 
L 583.2 384.48 
" clip-path="url(#pcc51263ae6)" style="fill: none; stroke: #ffffff; stroke-width: 0.8; stroke-linecap: round"/>
     </g>
     <g id="line2d_20"/>
     <g id="text_11">
      <!-- 0.00 -->
      <g style="fill: #262626" transform="translate(58.039062 388.058906) scale(0.1 -0.1)">
       <defs>
        <path id="ArialMT-30" d="M 266 2259 
Q 266 3072 433 3567 
Q 600 4063 929 4331 
Q 1259 4600 1759 4600 
Q 2128 4600 2406 4451 
Q 2684 4303 2865 4023 
Q 3047 3744 3150 3342 
Q 3253 2941 3253 2259 
Q 3253 1453 3087 958 
Q 2922 463 2592 192 
Q 2263 -78 1759 -78 
Q 1097 -78 719 397 
Q 266 969 266 2259 
z
M 844 2259 
Q 844 1131 1108 757 
Q 1372 384 1759 384 
Q 2147 384 2411 759 
Q 2675 1134 2675 2259 
Q 2675 3391 2411 3762 
Q 2147 4134 1753 4134 
Q 1366 4134 1134 3806 
Q 844 3388 844 2259 
z
" transform="scale(0.015625)"/>
       </defs>
       <use xlink:href="#ArialMT-30"/>
       <use xlink:href="#ArialMT-2e" transform="translate(55.615234 0)"/>
       <use xlink:href="#ArialMT-30" transform="translate(83.398438 0)"/>
       <use xlink:href="#ArialMT-30" transform="translate(139.013672 0)"/>
      </g>
     </g>
    </g>
    <g id="ytick_2">
     <g id="line2d_21">
      <path d="M 81 342.9 
L 583.2 342.9 
" clip-path="url(#pcc51263ae6)" style="fill: none; stroke: #ffffff; stroke-width: 0.8; stroke-linecap: round"/>
     </g>
     <g id="line2d_22"/>
     <g id="text_12">
      <!-- 0.25 -->
      <g style="fill: #262626" transform="translate(58.039062 346.478906) scale(0.1 -0.1)">
       <use xlink:href="#ArialMT-30"/>
       <use xlink:href="#ArialMT-2e" transform="translate(55.615234 0)"/>
       <use xlink:href="#ArialMT-32" transform="translate(83.398438 0)"/>
       <use xlink:href="#ArialMT-35" transform="translate(139.013672 0)"/>
      </g>
     </g>
    </g>
    <g id="ytick_3">
     <g id="line2d_23">
      <path d="M 81 301.32 
L 583.2 301.32 
" clip-path="url(#pcc51263ae6)" style="fill: none; stroke: #ffffff; stroke-width: 0.8; stroke-linecap: round"/>
     </g>
     <g id="line2d_24"/>
     <g id="text_13">
      <!-- 0.50 -->
      <g style="fill: #262626" transform="translate(58.039062 304.898906) scale(0.1 -0.1)">
       <use xlink:href="#ArialMT-30"/>
       <use xlink:href="#ArialMT-2e" transform="translate(55.615234 0)"/>
       <use xlink:href="#ArialMT-35" transform="translate(83.398438 0)"/>
       <use xlink:href="#ArialMT-30" transform="translate(139.013672 0)"/>
      </g>
     </g>
    </g>
    <g id="ytick_4">
     <g id="line2d_25">
      <path d="M 81 259.74 
L 583.2 259.74 
" clip-path="url(#pcc51263ae6)" style="fill: none; stroke: #ffffff; stroke-width: 0.8; stroke-linecap: round"/>
     </g>
     <g id="line2d_26"/>
     <g id="text_14">
      <!-- 0.75 -->
      <g style="fill: #262626" transform="translate(58.039062 263.318906) scale(0.1 -0.1)">
       <use xlink:href="#ArialMT-30"/>
       <use xlink:href="#ArialMT-2e" transform="translate(55.615234 0)"/>
       <use xlink:href="#ArialMT-37" transform="translate(83.398438 0)"/>
       <use xlink:href="#ArialMT-35" transform="translate(139.013672 0)"/>
      </g>
     </g>
    </g>
    <g id="ytick_5">
     <g id="line2d_27">
      <path d="M 81 218.16 
L 583.2 218.16 
" clip-path="url(#pcc51263ae6)" style="fill: none; stroke: #ffffff; stroke-width: 0.8; stroke-linecap: round"/>
     </g>
     <g id="line2d_28"/>
     <g id="text_15">
      <!-- 1.00 -->
      <g style="fill: #262626" transform="translate(58.039062 221.738906) scale(0.1 -0.1)">
       <use xlink:href="#ArialMT-31"/>
       <use xlink:href="#ArialMT-2e" transform="translate(55.615234 0)"/>
       <use xlink:href="#ArialMT-30" transform="translate(83.398438 0)"/>
       <use xlink:href="#ArialMT-30" transform="translate(139.013672 0)"/>
      </g>
     </g>
    </g>
    <g id="ytick_6">
     <g id="line2d_29">
      <path d="M 81 176.58 
L 583.2 176.58 
" clip-path="url(#pcc51263ae6)" style="fill: none; stroke: #ffffff; stroke-width: 0.8; stroke-linecap: round"/>
     </g>
     <g id="line2d_30"/>
     <g id="text_16">
      <!-- 1.25 -->
      <g style="fill: #262626" transform="translate(58.039062 180.158906) scale(0.1 -0.1)">
       <use xlink:href="#ArialMT-31"/>
       <use xlink:href="#ArialMT-2e" transform="translate(55.615234 0)"/>
       <use xlink:href="#ArialMT-32" transform="translate(83.398438 0)"/>
       <use xlink:href="#ArialMT-35" transform="translate(139.013672 0)"/>
      </g>
     </g>
    </g>
    <g id="ytick_7">
     <g id="line2d_31">
      <path d="M 81 135 
L 583.2 135 
" clip-path="url(#pcc51263ae6)" style="fill: none; stroke: #ffffff; stroke-width: 0.8; stroke-linecap: round"/>
     </g>
     <g id="line2d_32"/>
     <g id="text_17">
      <!-- 1.50 -->
      <g style="fill: #262626" transform="translate(58.039062 138.578906) scale(0.1 -0.1)">
       <use xlink:href="#ArialMT-31"/>
       <use xlink:href="#ArialMT-2e" transform="translate(55.615234 0)"/>
       <use xlink:href="#ArialMT-35" transform="translate(83.398438 0)"/>
       <use xlink:href="#ArialMT-30" transform="translate(139.013672 0)"/>
      </g>
     </g>
    </g>
    <g id="ytick_8">
     <g id="line2d_33">
      <path d="M 81 93.42 
L 583.2 93.42 
" clip-path="url(#pcc51263ae6)" style="fill: none; stroke: #ffffff; stroke-width: 0.8; stroke-linecap: round"/>
     </g>
     <g id="line2d_34"/>
     <g id="text_18">
      <!-- 1.75 -->
      <g style="fill: #262626" transform="translate(58.039062 96.998906) scale(0.1 -0.1)">
       <use xlink:href="#ArialMT-31"/>
       <use xlink:href="#ArialMT-2e" transform="translate(55.615234 0)"/>
       <use xlink:href="#ArialMT-37" transform="translate(83.398438 0)"/>
       <use xlink:href="#ArialMT-35" transform="translate(139.013672 0)"/>
      </g>
     </g>
    </g>
    <g id="ytick_9">
     <g id="line2d_35">
      <path d="M 81 51.84 
L 583.2 51.84 
" clip-path="url(#pcc51263ae6)" style="fill: none; stroke: #ffffff; stroke-width: 0.8; stroke-linecap: round"/>
     </g>
     <g id="line2d_36"/>
     <g id="text_19">
      <!-- 2.00 -->
      <g style="fill: #262626" transform="translate(58.039062 55.418906) scale(0.1 -0.1)">
       <use xlink:href="#ArialMT-32"/>
       <use xlink:href="#ArialMT-2e" transform="translate(55.615234 0)"/>
       <use xlink:href="#ArialMT-30" transform="translate(83.398438 0)"/>
       <use xlink:href="#ArialMT-30" transform="translate(139.013672 0)"/>
      </g>
     </g>
    </g>
    <g id="text_20">
     <!-- Consumption (c) -->
     <g style="fill: #262626" transform="translate(51.934375 254.837344) rotate(-90) scale(0.1 -0.1)">
      <defs>
       <path id="ArialMT-43" d="M 3763 1606 
L 4369 1453 
Q 4178 706 3683 314 
Q 3188 -78 2472 -78 
Q 1731 -78 1267 223 
Q 803 525 561 1097 
Q 319 1669 319 2325 
Q 319 3041 592 3573 
Q 866 4106 1370 4382 
Q 1875 4659 2481 4659 
Q 3169 4659 3637 4309 
Q 4106 3959 4291 3325 
L 3694 3184 
Q 3534 3684 3231 3912 
Q 2928 4141 2469 4141 
Q 1941 4141 1586 3887 
Q 1231 3634 1087 3207 
Q 944 2781 944 2328 
Q 944 1744 1114 1308 
Q 1284 872 1643 656 
Q 2003 441 2422 441 
Q 2931 441 3284 734 
Q 3638 1028 3763 1606 
z
" transform="scale(0.015625)"/>
       <path id="ArialMT-73" d="M 197 991 
L 753 1078 
Q 800 744 1014 566 
Q 1228 388 1613 388 
Q 2000 388 2187 545 
Q 2375 703 2375 916 
Q 2375 1106 2209 1216 
Q 2094 1291 1634 1406 
Q 1016 1563 777 1677 
Q 538 1791 414 1992 
Q 291 2194 291 2438 
Q 291 2659 392 2848 
Q 494 3038 669 3163 
Q 800 3259 1026 3326 
Q 1253 3394 1513 3394 
Q 1903 3394 2198 3281 
Q 2494 3169 2634 2976 
Q 2775 2784 2828 2463 
L 2278 2388 
Q 2241 2644 2061 2787 
Q 1881 2931 1553 2931 
Q 1166 2931 1000 2803 
Q 834 2675 834 2503 
Q 834 2394 903 2306 
Q 972 2216 1119 2156 
Q 1203 2125 1616 2013 
Q 2213 1853 2448 1751 
Q 2684 1650 2818 1456 
Q 2953 1263 2953 975 
Q 2953 694 2789 445 
Q 2625 197 2315 61 
Q 2006 -75 1616 -75 
Q 969 -75 630 194 
Q 291 463 197 991 
z
" transform="scale(0.015625)"/>
       <path id="ArialMT-75" d="M 2597 0 
L 2597 488 
Q 2209 -75 1544 -75 
Q 1250 -75 995 37 
Q 741 150 617 320 
Q 494 491 444 738 
Q 409 903 409 1263 
L 409 3319 
L 972 3319 
L 972 1478 
Q 972 1038 1006 884 
Q 1059 663 1231 536 
Q 1403 409 1656 409 
Q 1909 409 2131 539 
Q 2353 669 2445 892 
Q 2538 1116 2538 1541 
L 2538 3319 
L 3100 3319 
L 3100 0 
L 2597 0 
z
" transform="scale(0.015625)"/>
       <path id="ArialMT-70" d="M 422 -1272 
L 422 3319 
L 934 3319 
L 934 2888 
Q 1116 3141 1344 3267 
Q 1572 3394 1897 3394 
Q 2322 3394 2647 3175 
Q 2972 2956 3137 2557 
Q 3303 2159 3303 1684 
Q 3303 1175 3120 767 
Q 2938 359 2589 142 
Q 2241 -75 1856 -75 
Q 1575 -75 1351 44 
Q 1128 163 984 344 
L 984 -1272 
L 422 -1272 
z
M 931 1641 
Q 931 1000 1190 694 
Q 1450 388 1819 388 
Q 2194 388 2461 705 
Q 2728 1022 2728 1688 
Q 2728 2322 2467 2637 
Q 2206 2953 1844 2953 
Q 1484 2953 1207 2617 
Q 931 2281 931 1641 
z
" transform="scale(0.015625)"/>
       <path id="ArialMT-74" d="M 1650 503 
L 1731 6 
Q 1494 -44 1306 -44 
Q 1000 -44 831 53 
Q 663 150 594 308 
Q 525 466 525 972 
L 525 2881 
L 113 2881 
L 113 3319 
L 525 3319 
L 525 4141 
L 1084 4478 
L 1084 3319 
L 1650 3319 
L 1650 2881 
L 1084 2881 
L 1084 941 
Q 1084 700 1114 631 
Q 1144 563 1211 522 
Q 1278 481 1403 481 
Q 1497 481 1650 503 
z
" transform="scale(0.015625)"/>
       <path id="ArialMT-69" d="M 425 3934 
L 425 4581 
L 988 4581 
L 988 3934 
L 425 3934 
z
M 425 0 
L 425 3319 
L 988 3319 
L 988 0 
L 425 0 
z
" transform="scale(0.015625)"/>
      </defs>
      <use xlink:href="#ArialMT-43"/>
      <use xlink:href="#ArialMT-6f" transform="translate(72.216797 0)"/>
      <use xlink:href="#ArialMT-6e" transform="translate(127.832031 0)"/>
      <use xlink:href="#ArialMT-73" transform="translate(183.447266 0)"/>
      <use xlink:href="#ArialMT-75" transform="translate(233.447266 0)"/>
      <use xlink:href="#ArialMT-6d" transform="translate(289.0625 0)"/>
      <use xlink:href="#ArialMT-70" transform="translate(372.363281 0)"/>
      <use xlink:href="#ArialMT-74" transform="translate(427.978516 0)"/>
      <use xlink:href="#ArialMT-69" transform="translate(455.761719 0)"/>
      <use xlink:href="#ArialMT-6f" transform="translate(477.978516 0)"/>
      <use xlink:href="#ArialMT-6e" transform="translate(533.59375 0)"/>
      <use xlink:href="#ArialMT-20" transform="translate(589.208984 0)"/>
      <use xlink:href="#ArialMT-28" transform="translate(616.992188 0)"/>
      <use xlink:href="#ArialMT-63" transform="translate(650.292969 0)"/>
      <use xlink:href="#ArialMT-29" transform="translate(700.292969 0)"/>
     </g>
    </g>
   </g>
   <g id="line2d_37">
    <defs>
     <path id="mdc98d18449" d="M 0 3 
C 0.795609 3 1.55874 2.683901 2.12132 2.12132 
C 2.683901 1.55874 3 0.795609 3 0 
C 3 -0.795609 2.683901 -1.55874 2.12132 -2.12132 
C 1.55874 -2.683901 0.795609 -3 0 -3 
C -0.795609 -3 -1.55874 -2.683901 -2.12132 -2.12132 
C -2.683901 -1.55874 -3 -0.795609 -3 0 
C -3 0.795609 -2.683901 1.55874 -2.12132 2.12132 
C -1.55874 2.683901 -0.795609 3 0 3 
z
" style="stroke: #008000"/>
    </defs>
    <g clip-path="url(#pcc51263ae6)">
     <use xlink:href="#mdc98d18449" x="456.504482" y="196.967155" style="fill: #008000; stroke: #008000"/>
     <use xlink:href="#mdc98d18449" x="403.341536" y="221.079786" style="fill: #008000; stroke: #008000"/>
     <use xlink:href="#mdc98d18449" x="358.75371" y="226.634027" style="fill: #008000; stroke: #008000"/>
     <use xlink:href="#mdc98d18449" x="374.173061" y="204.88625" style="fill: #008000; stroke: #008000"/>
     <use xlink:href="#mdc98d18449" x="258.972968" y="228.124507" style="fill: #008000; stroke: #008000"/>
     <use xlink:href="#mdc98d18449" x="573.358322" y="179.413496" style="fill: #008000; stroke: #008000"/>
     <use xlink:href="#mdc98d18449" x="417.568048" y="219.920875" style="fill: #008000; stroke: #008000"/>
     <use xlink:href="#mdc98d18449" x="378.901869" y="210.809586" style="fill: #008000; stroke: #008000"/>
     <use xlink:href="#mdc98d18449" x="336.833829" y="219.36861" style="fill: #008000; stroke: #008000"/>
     <use xlink:href="#mdc98d18449" x="373.575372" y="224.762979" style="fill: #008000; stroke: #008000"/>
     <use xlink:href="#mdc98d18449" x="439.262618" y="203.793618" style="fill: #008000; stroke: #008000"/>
     <use xlink:href="#mdc98d18449" x="344.072178" y="216.13316" style="fill: #008000; stroke: #008000"/>
     <use xlink:href="#mdc98d18449" x="499.625427" y="193.989873" style="fill: #008000; stroke: #008000"/>
     <use xlink:href="#mdc98d18449" x="316.565198" y="233.995737" style="fill: #008000; stroke: #008000"/>
     <use xlink:href="#mdc98d18449" x="300.621281" y="237.178321" style="fill: #008000; stroke: #008000"/>
     <use xlink:href="#mdc98d18449" x="198.411587" y="215.284781" style="fill: #008000; stroke: #008000"/>
     <use xlink:href="#mdc98d18449" x="248.955273" y="226.833353" style="fill: #008000; stroke: #008000"/>
     <use xlink:href="#mdc98d18449" x="458.054027" y="200.516976" style="fill: #008000; stroke: #008000"/>
     <use xlink:href="#mdc98d18449" x="409.003803" y="173.725151" style="fill: #008000; stroke: #008000"/>
     <use xlink:href="#mdc98d18449" x="308.726371" y="217.070094" style="fill: #008000; stroke: #008000"/>
     <use xlink:href="#mdc98d18449" x="591.235654" y="172.068487" style="fill: #008000; stroke: #008000"/>
     <use xlink:href="#mdc98d18449" x="396.997414" y="205.523166" style="fill: #008000; stroke: #008000"/>
     <use xlink:href="#mdc98d18449" x="350.434553" y="183.920577" style="fill: #008000; stroke: #008000"/>
     <use xlink:href="#mdc98d18449" x="270.361525" y="215.213027" style="fill: #008000; stroke: #008000"/>
     <use xlink:href="#mdc98d18449" x="410.488148" y="201.594281" style="fill: #008000; stroke: #008000"/>
     <use xlink:href="#mdc98d18449" x="451.273595" y="197.546775" style="fill: #008000; stroke: #008000"/>
     <use xlink:href="#mdc98d18449" x="382.817755" y="219.356417" style="fill: #008000; stroke: #008000"/>
     <use xlink:href="#mdc98d18449" x="238.629521" y="240.315037" style="fill: #008000; stroke: #008000"/>
     <use xlink:href="#mdc98d18449" x="316.979508" y="199.1764" style="fill: #008000; stroke: #008000"/>
     <use xlink:href="#mdc98d18449" x="226.068936" y="256.771942" style="fill: #008000; stroke: #008000"/>
     <use xlink:href="#mdc98d18449" x="273.381459" y="230.536026" style="fill: #008000; stroke: #008000"/>
     <use xlink:href="#mdc98d18449" x="369.750495" y="239.301347" style="fill: #008000; stroke: #008000"/>
     <use xlink:href="#mdc98d18449" x="325.915254" y="219.719934" style="fill: #008000; stroke: #008000"/>
     <use xlink:href="#mdc98d18449" x="316.407206" y="250.973668" style="fill: #008000; stroke: #008000"/>
     <use xlink:href="#mdc98d18449" x="403.995341" y="225.549175" style="fill: #008000; stroke: #008000"/>
     <use xlink:href="#mdc98d18449" x="385.101905" y="211.428729" style="fill: #008000; stroke: #008000"/>
     <use xlink:href="#mdc98d18449" x="358.819742" y="228.764219" style="fill: #008000; stroke: #008000"/>
     <use xlink:href="#mdc98d18449" x="230.427207" y="228.135488" style="fill: #008000; stroke: #008000"/>
     <use xlink:href="#mdc98d18449" x="172.564663" y="225.360668" style="fill: #008000; stroke: #008000"/>
     <use xlink:href="#mdc98d18449" x="186.835397" y="249.309068" style="fill: #008000; stroke: #008000"/>
     <use xlink:href="#mdc98d18449" x="480.890577" y="211.770534" style="fill: #008000; stroke: #008000"/>
     <use xlink:href="#mdc98d18449" x="262.632754" y="223.046591" style="fill: #008000; stroke: #008000"/>
     <use xlink:href="#mdc98d18449" x="284.642558" y="246.219992" style="fill: #008000; stroke: #008000"/>
     <use xlink:href="#mdc98d18449" x="351.465795" y="220.980505" style="fill: #008000; stroke: #008000"/>
     <use xlink:href="#mdc98d18449" x="323.069498" y="227.9895" style="fill: #008000; stroke: #008000"/>
     <use xlink:href="#mdc98d18449" x="349.93261" y="203.625358" style="fill: #008000; stroke: #008000"/>
     <use xlink:href="#mdc98d18449" x="228.317599" y="235.262697" style="fill: #008000; stroke: #008000"/>
     <use xlink:href="#mdc98d18449" x="427.142356" y="219.561229" style="fill: #008000; stroke: #008000"/>
     <use xlink:href="#mdc98d18449" x="456.762218" y="204.881019" style="fill: #008000; stroke: #008000"/>
     <use xlink:href="#mdc98d18449" x="304.050059" y="226.041381" style="fill: #008000; stroke: #008000"/>
     <use xlink:href="#mdc98d18449" x="263.458063" y="250.071325" style="fill: #008000; stroke: #008000"/>
     <use xlink:href="#mdc98d18449" x="356.707168" y="210.391054" style="fill: #008000; stroke: #008000"/>
     <use xlink:href="#mdc98d18449" x="338.995287" y="210.207949" style="fill: #008000; stroke: #008000"/>
     <use xlink:href="#mdc98d18449" x="447.784401" y="216.725293" style="fill: #008000; stroke: #008000"/>
     <use xlink:href="#mdc98d18449" x="412.829544" y="219.742337" style="fill: #008000; stroke: #008000"/>
     <use xlink:href="#mdc98d18449" x="279.335932" y="196.494232" style="fill: #008000; stroke: #008000"/>
     <use xlink:href="#mdc98d18449" x="306.180396" y="223.126106" style="fill: #008000; stroke: #008000"/>
     <use xlink:href="#mdc98d18449" x="238.391777" y="231.203379" style="fill: #008000; stroke: #008000"/>
     <use xlink:href="#mdc98d18449" x="271.236457" y="224.036825" style="fill: #008000; stroke: #008000"/>
     <use xlink:href="#mdc98d18449" x="204.642602" y="238.039217" style="fill: #008000; stroke: #008000"/>
     <use xlink:href="#mdc98d18449" x="273.095391" y="254.107596" style="fill: #008000; stroke: #008000"/>
     <use xlink:href="#mdc98d18449" x="344.060583" y="219.600603" style="fill: #008000; stroke: #008000"/>
     <use xlink:href="#mdc98d18449" x="243.320826" y="228.724922" style="fill: #008000; stroke: #008000"/>
     <use xlink:href="#mdc98d18449" x="323.053584" y="209.994009" style="fill: #008000; stroke: #008000"/>
     <use xlink:href="#mdc98d18449" x="275.570226" y="193.163374" style="fill: #008000; stroke: #008000"/>
     <use xlink:href="#mdc98d18449" x="333.657323" y="213.409293" style="fill: #008000; stroke: #008000"/>
     <use xlink:href="#mdc98d18449" x="268.58125" y="228.605577" style="fill: #008000; stroke: #008000"/>
     <use xlink:href="#mdc98d18449" x="149.835834" y="234.987555" style="fill: #008000; stroke: #008000"/>
     <use xlink:href="#mdc98d18449" x="453.181581" y="202.001433" style="fill: #008000; stroke: #008000"/>
     <use xlink:href="#mdc98d18449" x="304.489306" y="223.648797" style="fill: #008000; stroke: #008000"/>
     <use xlink:href="#mdc98d18449" x="313.366531" y="232.862816" style="fill: #008000; stroke: #008000"/>
     <use xlink:href="#mdc98d18449" x="409.403659" y="191.84626" style="fill: #008000; stroke: #008000"/>
     <use xlink:href="#mdc98d18449" x="460.954223" y="214.421204" style="fill: #008000; stroke: #008000"/>
     <use xlink:href="#mdc98d18449" x="386.882842" y="233.121291" style="fill: #008000; stroke: #008000"/>
     <use xlink:href="#mdc98d18449" x="265.523895" y="181.66723" style="fill: #008000; stroke: #008000"/>
     <use xlink:href="#mdc98d18449" x="264.14162" y="224.971225" style="fill: #008000; stroke: #008000"/>
     <use xlink:href="#mdc98d18449" x="255.672136" y="212.570645" style="fill: #008000; stroke: #008000"/>
     <use xlink:href="#mdc98d18449" x="301.472044" y="209.720917" style="fill: #008000; stroke: #008000"/>
     <use xlink:href="#mdc98d18449" x="504.18313" y="193.397926" style="fill: #008000; stroke: #008000"/>
     <use xlink:href="#mdc98d18449" x="305.17769" y="218.258521" style="fill: #008000; stroke: #008000"/>
     <use xlink:href="#mdc98d18449" x="254.559927" y="240.526752" style="fill: #008000; stroke: #008000"/>
     <use xlink:href="#mdc98d18449" x="264.555385" y="214.698783" style="fill: #008000; stroke: #008000"/>
     <use xlink:href="#mdc98d18449" x="318.496822" y="200.685463" style="fill: #008000; stroke: #008000"/>
     <use xlink:href="#mdc98d18449" x="303.692035" y="229.512929" style="fill: #008000; stroke: #008000"/>
     <use xlink:href="#mdc98d18449" x="22.174751" y="238.561491" style="fill: #008000; stroke: #008000"/>
     <use xlink:href="#mdc98d18449" x="263.119323" y="233.760517" style="fill: #008000; stroke: #008000"/>
     <use xlink:href="#mdc98d18449" x="318.960546" y="203.471695" style="fill: #008000; stroke: #008000"/>
     <use xlink:href="#mdc98d18449" x="496.215509" y="202.574194" style="fill: #008000; stroke: #008000"/>
     <use xlink:href="#mdc98d18449" x="357.903536" y="214.865107" style="fill: #008000; stroke: #008000"/>
     <use xlink:href="#mdc98d18449" x="279.476504" y="217.3264" style="fill: #008000; stroke: #008000"/>
     <use xlink:href="#mdc98d18449" x="274.795103" y="230.094811" style="fill: #008000; stroke: #008000"/>
     <use xlink:href="#mdc98d18449" x="250.08313" y="219.458547" style="fill: #008000; stroke: #008000"/>
     <use xlink:href="#mdc98d18449" x="299.699459" y="241.099608" style="fill: #008000; stroke: #008000"/>
     <use xlink:href="#mdc98d18449" x="279.869231" y="216.48718" style="fill: #008000; stroke: #008000"/>
     <use xlink:href="#mdc98d18449" x="409.015848" y="191.080951" style="fill: #008000; stroke: #008000"/>
     <use xlink:href="#mdc98d18449" x="326.919731" y="220.711348" style="fill: #008000; stroke: #008000"/>
     <use xlink:href="#mdc98d18449" x="316.990336" y="212.810547" style="fill: #008000; stroke: #008000"/>
     <use xlink:href="#mdc98d18449" x="285.705616" y="216.570513" style="fill: #008000; stroke: #008000"/>
     <use xlink:href="#mdc98d18449" x="433.378241" y="191.56788" style="fill: #008000; stroke: #008000"/>
     <use xlink:href="#mdc98d18449" x="331.974652" y="225.460059" style="fill: #008000; stroke: #008000"/>
     <use xlink:href="#mdc98d18449" x="487.581725" y="202.356279" style="fill: #008000; stroke: #008000"/>
     <use xlink:href="#mdc98d18449" x="395.754546" y="217.387784" style="fill: #008000; stroke: #008000"/>
     <use xlink:href="#mdc98d18449" x="385.602428" y="196.405392" style="fill: #008000; stroke: #008000"/>
     <use xlink:href="#mdc98d18449" x="270.49188" y="219.057227" style="fill: #008000; stroke: #008000"/>
     <use xlink:href="#mdc98d18449" x="214.236818" y="226.560377" style="fill: #008000; stroke: #008000"/>
     <use xlink:href="#mdc98d18449" x="376.323902" y="182.253101" style="fill: #008000; stroke: #008000"/>
     <use xlink:href="#mdc98d18449" x="389.565549" y="206.941403" style="fill: #008000; stroke: #008000"/>
     <use xlink:href="#mdc98d18449" x="325.865761" y="222.286093" style="fill: #008000; stroke: #008000"/>
     <use xlink:href="#mdc98d18449" x="426.364483" y="215.401732" style="fill: #008000; stroke: #008000"/>
     <use xlink:href="#mdc98d18449" x="357.435804" y="189.421332" style="fill: #008000; stroke: #008000"/>
     <use xlink:href="#mdc98d18449" x="374.321804" y="233.24475" style="fill: #008000; stroke: #008000"/>
     <use xlink:href="#mdc98d18449" x="388.480594" y="203.212389" style="fill: #008000; stroke: #008000"/>
     <use xlink:href="#mdc98d18449" x="274.531499" y="231.489855" style="fill: #008000; stroke: #008000"/>
     <use xlink:href="#mdc98d18449" x="272.310419" y="234.136199" style="fill: #008000; stroke: #008000"/>
     <use xlink:href="#mdc98d18449" x="368.924617" y="189.915533" style="fill: #008000; stroke: #008000"/>
     <use xlink:href="#mdc98d18449" x="332.620451" y="224.106587" style="fill: #008000; stroke: #008000"/>
     <use xlink:href="#mdc98d18449" x="243.415924" y="247.731834" style="fill: #008000; stroke: #008000"/>
     <use xlink:href="#mdc98d18449" x="348.803247" y="211.795269" style="fill: #008000; stroke: #008000"/>
     <use xlink:href="#mdc98d18449" x="320.14517" y="211.508184" style="fill: #008000; stroke: #008000"/>
     <use xlink:href="#mdc98d18449" x="378.357736" y="211.592459" style="fill: #008000; stroke: #008000"/>
     <use xlink:href="#mdc98d18449" x="326.548631" y="222.861343" style="fill: #008000; stroke: #008000"/>
     <use xlink:href="#mdc98d18449" x="394.09847" y="209.775065" style="fill: #008000; stroke: #008000"/>
     <use xlink:href="#mdc98d18449" x="329.431595" y="204.268636" style="fill: #008000; stroke: #008000"/>
     <use xlink:href="#mdc98d18449" x="409.75824" y="190.12234" style="fill: #008000; stroke: #008000"/>
     <use xlink:href="#mdc98d18449" x="378.763427" y="191.525898" style="fill: #008000; stroke: #008000"/>
     <use xlink:href="#mdc98d18449" x="294.658938" y="213.862308" style="fill: #008000; stroke: #008000"/>
     <use xlink:href="#mdc98d18449" x="257.244788" y="234.587077" style="fill: #008000; stroke: #008000"/>
     <use xlink:href="#mdc98d18449" x="371.89572" y="205.698501" style="fill: #008000; stroke: #008000"/>
     <use xlink:href="#mdc98d18449" x="400.165606" y="207.047641" style="fill: #008000; stroke: #008000"/>
     <use xlink:href="#mdc98d18449" x="339.696891" y="218.883034" style="fill: #008000; stroke: #008000"/>
     <use xlink:href="#mdc98d18449" x="350.43847" y="218.690269" style="fill: #008000; stroke: #008000"/>
     <use xlink:href="#mdc98d18449" x="483.535747" y="192.141641" style="fill: #008000; stroke: #008000"/>
     <use xlink:href="#mdc98d18449" x="150.894605" y="237.158054" style="fill: #008000; stroke: #008000"/>
     <use xlink:href="#mdc98d18449" x="284.243241" y="222.562705" style="fill: #008000; stroke: #008000"/>
     <use xlink:href="#mdc98d18449" x="305.907449" y="226.529593" style="fill: #008000; stroke: #008000"/>
     <use xlink:href="#mdc98d18449" x="378.523467" y="225.275245" style="fill: #008000; stroke: #008000"/>
     <use xlink:href="#mdc98d18449" x="443.896681" y="219.968575" style="fill: #008000; stroke: #008000"/>
     <use xlink:href="#mdc98d18449" x="179.98937" y="235.44296" style="fill: #008000; stroke: #008000"/>
     <use xlink:href="#mdc98d18449" x="309.209072" y="217.763627" style="fill: #008000; stroke: #008000"/>
     <use xlink:href="#mdc98d18449" x="238.831741" y="216.23046" style="fill: #008000; stroke: #008000"/>
     <use xlink:href="#mdc98d18449" x="282.001318" y="235.836434" style="fill: #008000; stroke: #008000"/>
     <use xlink:href="#mdc98d18449" x="319.706134" y="219.976037" style="fill: #008000; stroke: #008000"/>
     <use xlink:href="#mdc98d18449" x="357.879776" y="213.093475" style="fill: #008000; stroke: #008000"/>
     <use xlink:href="#mdc98d18449" x="276.520415" y="219.805522" style="fill: #008000; stroke: #008000"/>
     <use xlink:href="#mdc98d18449" x="275.938191" y="248.698458" style="fill: #008000; stroke: #008000"/>
     <use xlink:href="#mdc98d18449" x="229.916633" y="234.133285" style="fill: #008000; stroke: #008000"/>
     <use xlink:href="#mdc98d18449" x="219.55199" y="237.674394" style="fill: #008000; stroke: #008000"/>
     <use xlink:href="#mdc98d18449" x="327.028219" y="223.039846" style="fill: #008000; stroke: #008000"/>
     <use xlink:href="#mdc98d18449" x="363.817649" y="191.018676" style="fill: #008000; stroke: #008000"/>
     <use xlink:href="#mdc98d18449" x="314.779012" y="216.22948" style="fill: #008000; stroke: #008000"/>
     <use xlink:href="#mdc98d18449" x="494.860054" y="179.192893" style="fill: #008000; stroke: #008000"/>
     <use xlink:href="#mdc98d18449" x="520.824361" y="174.649341" style="fill: #008000; stroke: #008000"/>
     <use xlink:href="#mdc98d18449" x="281.845313" y="230.872761" style="fill: #008000; stroke: #008000"/>
     <use xlink:href="#mdc98d18449" x="265.419572" y="230.577334" style="fill: #008000; stroke: #008000"/>
     <use xlink:href="#mdc98d18449" x="418.165511" y="225.116692" style="fill: #008000; stroke: #008000"/>
     <use xlink:href="#mdc98d18449" x="257.125349" y="239.15521" style="fill: #008000; stroke: #008000"/>
     <use xlink:href="#mdc98d18449" x="502.009183" y="203.797754" style="fill: #008000; stroke: #008000"/>
     <use xlink:href="#mdc98d18449" x="404.952923" y="228.740843" style="fill: #008000; stroke: #008000"/>
     <use xlink:href="#mdc98d18449" x="410.81908" y="211.817074" style="fill: #008000; stroke: #008000"/>
     <use xlink:href="#mdc98d18449" x="192.923205" y="207.467696" style="fill: #008000; stroke: #008000"/>
     <use xlink:href="#mdc98d18449" x="347.150174" y="220.564302" style="fill: #008000; stroke: #008000"/>
     <use xlink:href="#mdc98d18449" x="309.868006" y="233.57912" style="fill: #008000; stroke: #008000"/>
     <use xlink:href="#mdc98d18449" x="398.616011" y="210.996891" style="fill: #008000; stroke: #008000"/>
     <use xlink:href="#mdc98d18449" x="174.952388" y="225.819667" style="fill: #008000; stroke: #008000"/>
     <use xlink:href="#mdc98d18449" x="392.258963" y="214.050956" style="fill: #008000; stroke: #008000"/>
     <use xlink:href="#mdc98d18449" x="259.920323" y="232.03251" style="fill: #008000; stroke: #008000"/>
     <use xlink:href="#mdc98d18449" x="342.210148" y="206.515059" style="fill: #008000; stroke: #008000"/>
     <use xlink:href="#mdc98d18449" x="230.256297" y="235.291418" style="fill: #008000; stroke: #008000"/>
     <use xlink:href="#mdc98d18449" x="321.19777" y="238.190477" style="fill: #008000; stroke: #008000"/>
     <use xlink:href="#mdc98d18449" x="431.921949" y="201.202062" style="fill: #008000; stroke: #008000"/>
     <use xlink:href="#mdc98d18449" x="319.437356" y="206.84735" style="fill: #008000; stroke: #008000"/>
     <use xlink:href="#mdc98d18449" x="231.600122" y="239.242033" style="fill: #008000; stroke: #008000"/>
     <use xlink:href="#mdc98d18449" x="325.918254" y="205.417454" style="fill: #008000; stroke: #008000"/>
     <use xlink:href="#mdc98d18449" x="294.496253" y="226.652978" style="fill: #008000; stroke: #008000"/>
     <use xlink:href="#mdc98d18449" x="322.215676" y="229.731151" style="fill: #008000; stroke: #008000"/>
     <use xlink:href="#mdc98d18449" x="410.783673" y="195.329103" style="fill: #008000; stroke: #008000"/>
     <use xlink:href="#mdc98d18449" x="453.961375" y="195.926733" style="fill: #008000; stroke: #008000"/>
     <use xlink:href="#mdc98d18449" x="212.613234" y="243.883382" style="fill: #008000; stroke: #008000"/>
     <use xlink:href="#mdc98d18449" x="330.993744" y="213.430132" style="fill: #008000; stroke: #008000"/>
     <use xlink:href="#mdc98d18449" x="229.365457" y="213.542004" style="fill: #008000; stroke: #008000"/>
     <use xlink:href="#mdc98d18449" x="368.346227" y="206.803943" style="fill: #008000; stroke: #008000"/>
     <use xlink:href="#mdc98d18449" x="260.346808" y="225.071755" style="fill: #008000; stroke: #008000"/>
     <use xlink:href="#mdc98d18449" x="280.03041" y="248.24435" style="fill: #008000; stroke: #008000"/>
     <use xlink:href="#mdc98d18449" x="575.418074" y="199.895244" style="fill: #008000; stroke: #008000"/>
     <use xlink:href="#mdc98d18449" x="460.366777" y="191.051585" style="fill: #008000; stroke: #008000"/>
     <use xlink:href="#mdc98d18449" x="422.934826" y="223.642384" style="fill: #008000; stroke: #008000"/>
     <use xlink:href="#mdc98d18449" x="391.678767" y="195.54089" style="fill: #008000; stroke: #008000"/>
     <use xlink:href="#mdc98d18449" x="375.317092" y="211.412143" style="fill: #008000; stroke: #008000"/>
     <use xlink:href="#mdc98d18449" x="292.173997" y="240.643345" style="fill: #008000; stroke: #008000"/>
     <use xlink:href="#mdc98d18449" x="358.331225" y="212.063608" style="fill: #008000; stroke: #008000"/>
     <use xlink:href="#mdc98d18449" x="395.449439" y="205.178492" style="fill: #008000; stroke: #008000"/>
     <use xlink:href="#mdc98d18449" x="199.368609" y="253.316163" style="fill: #008000; stroke: #008000"/>
     <use xlink:href="#mdc98d18449" x="326.376614" y="251.581561" style="fill: #008000; stroke: #008000"/>
     <use xlink:href="#mdc98d18449" x="443.942258" y="210.448982" style="fill: #008000; stroke: #008000"/>
     <use xlink:href="#mdc98d18449" x="307.901328" y="226.118918" style="fill: #008000; stroke: #008000"/>
     <use xlink:href="#mdc98d18449" x="245.358153" y="235.005632" style="fill: #008000; stroke: #008000"/>
     <use xlink:href="#mdc98d18449" x="258.827089" y="237.694159" style="fill: #008000; stroke: #008000"/>
     <use xlink:href="#mdc98d18449" x="382.731319" y="210.882238" style="fill: #008000; stroke: #008000"/>
     <use xlink:href="#mdc98d18449" x="449.052101" y="194.462778" style="fill: #008000; stroke: #008000"/>
     <use xlink:href="#mdc98d18449" x="324.929496" y="222.814204" style="fill: #008000; stroke: #008000"/>
    </g>
   </g>
   <g id="line2d_38">
    <path d="M 456.504482 201.959391 
L 22.174751 257.801485 
L 591.235654 184.636905 
L 324.929496 218.876084 
" clip-path="url(#pcc51263ae6)" style="fill: none; stroke: #000000; stroke-width: 1.5; stroke-linecap: round"/>
   </g>
   <g id="line2d_39">
    <path d="M 18.225 218.16 
L 175.1625 176.58 
L 332.1 135 
L 489.0375 93.42 
L 645.975 51.84 
" clip-path="url(#pcc51263ae6)" style="fill: none; stroke-dasharray: 5.55,2.4; stroke-dashoffset: 0; stroke: #000000; stroke-width: 1.5"/>
   </g>
   <g id="patch_3">
    <path d="M 81 384.48 
L 81 51.84 
" style="fill: none"/>
   </g>
   <g id="patch_4">
    <path d="M 583.2 384.48 
L 583.2 51.84 
" style="fill: none"/>
   </g>
   <g id="patch_5">
    <path d="M 81 384.48 
L 583.2 384.48 
" style="fill: none"/>
   </g>
   <g id="patch_6">
    <path d="M 81 51.84 
L 583.2 51.84 
" style="fill: none"/>
   </g>
   <g id="legend_1">
    <g id="line2d_40">
     <g>
      <use xlink:href="#mdc98d18449" x="100" y="64.497813" style="fill: #008000; stroke: #008000"/>
     </g>
    </g>
    <g id="text_21">
     <!-- Simulated data -->
     <g style="fill: #262626" transform="translate(118 67.997813) scale(0.1 -0.1)">
      <defs>
       <path id="ArialMT-53" d="M 288 1472 
L 859 1522 
Q 900 1178 1048 958 
Q 1197 738 1509 602 
Q 1822 466 2213 466 
Q 2559 466 2825 569 
Q 3091 672 3220 851 
Q 3350 1031 3350 1244 
Q 3350 1459 3225 1620 
Q 3100 1781 2813 1891 
Q 2628 1963 1997 2114 
Q 1366 2266 1113 2400 
Q 784 2572 623 2826 
Q 463 3081 463 3397 
Q 463 3744 659 4045 
Q 856 4347 1234 4503 
Q 1613 4659 2075 4659 
Q 2584 4659 2973 4495 
Q 3363 4331 3572 4012 
Q 3781 3694 3797 3291 
L 3216 3247 
Q 3169 3681 2898 3903 
Q 2628 4125 2100 4125 
Q 1550 4125 1298 3923 
Q 1047 3722 1047 3438 
Q 1047 3191 1225 3031 
Q 1400 2872 2139 2705 
Q 2878 2538 3153 2413 
Q 3553 2228 3743 1945 
Q 3934 1663 3934 1294 
Q 3934 928 3725 604 
Q 3516 281 3123 101 
Q 2731 -78 2241 -78 
Q 1619 -78 1198 103 
Q 778 284 539 648 
Q 300 1013 288 1472 
z
" transform="scale(0.015625)"/>
       <path id="ArialMT-6c" d="M 409 0 
L 409 4581 
L 972 4581 
L 972 0 
L 409 0 
z
" transform="scale(0.015625)"/>
       <path id="ArialMT-61" d="M 2588 409 
Q 2275 144 1986 34 
Q 1697 -75 1366 -75 
Q 819 -75 525 192 
Q 231 459 231 875 
Q 231 1119 342 1320 
Q 453 1522 633 1644 
Q 813 1766 1038 1828 
Q 1203 1872 1538 1913 
Q 2219 1994 2541 2106 
Q 2544 2222 2544 2253 
Q 2544 2597 2384 2738 
Q 2169 2928 1744 2928 
Q 1347 2928 1158 2789 
Q 969 2650 878 2297 
L 328 2372 
Q 403 2725 575 2942 
Q 747 3159 1072 3276 
Q 1397 3394 1825 3394 
Q 2250 3394 2515 3294 
Q 2781 3194 2906 3042 
Q 3031 2891 3081 2659 
Q 3109 2516 3109 2141 
L 3109 1391 
Q 3109 606 3145 398 
Q 3181 191 3288 0 
L 2700 0 
Q 2613 175 2588 409 
z
M 2541 1666 
Q 2234 1541 1622 1453 
Q 1275 1403 1131 1340 
Q 988 1278 909 1158 
Q 831 1038 831 891 
Q 831 666 1001 516 
Q 1172 366 1500 366 
Q 1825 366 2078 508 
Q 2331 650 2450 897 
Q 2541 1088 2541 1459 
L 2541 1666 
z
" transform="scale(0.015625)"/>
       <path id="ArialMT-64" d="M 2575 0 
L 2575 419 
Q 2259 -75 1647 -75 
Q 1250 -75 917 144 
Q 584 363 401 755 
Q 219 1147 219 1656 
Q 219 2153 384 2558 
Q 550 2963 881 3178 
Q 1213 3394 1622 3394 
Q 1922 3394 2156 3267 
Q 2391 3141 2538 2938 
L 2538 4581 
L 3097 4581 
L 3097 0 
L 2575 0 
z
M 797 1656 
Q 797 1019 1065 703 
Q 1334 388 1700 388 
Q 2069 388 2326 689 
Q 2584 991 2584 1609 
Q 2584 2291 2321 2609 
Q 2059 2928 1675 2928 
Q 1300 2928 1048 2622 
Q 797 2316 797 1656 
z
" transform="scale(0.015625)"/>
      </defs>
      <use xlink:href="#ArialMT-53"/>
      <use xlink:href="#ArialMT-69" transform="translate(66.699219 0)"/>
      <use xlink:href="#ArialMT-6d" transform="translate(88.916016 0)"/>
      <use xlink:href="#ArialMT-75" transform="translate(172.216797 0)"/>
      <use xlink:href="#ArialMT-6c" transform="translate(227.832031 0)"/>
      <use xlink:href="#ArialMT-61" transform="translate(250.048828 0)"/>
      <use xlink:href="#ArialMT-74" transform="translate(305.664062 0)"/>
      <use xlink:href="#ArialMT-65" transform="translate(333.447266 0)"/>
      <use xlink:href="#ArialMT-64" transform="translate(389.0625 0)"/>
      <use xlink:href="#ArialMT-20" transform="translate(444.677734 0)"/>
      <use xlink:href="#ArialMT-64" transform="translate(472.460938 0)"/>
      <use xlink:href="#ArialMT-61" transform="translate(528.076172 0)"/>
      <use xlink:href="#ArialMT-74" transform="translate(583.691406 0)"/>
      <use xlink:href="#ArialMT-61" transform="translate(611.474609 0)"/>
     </g>
    </g>
    <g id="line2d_41">
     <path d="M 90 78.643125 
L 100 78.643125 
L 110 78.643125 
" style="fill: none; stroke: #000000; stroke-width: 1.5; stroke-linecap: round"/>
    </g>
    <g id="text_22">
     <!-- Line of best fit -->
     <g style="fill: #262626" transform="translate(118 82.143125) scale(0.1 -0.1)">
      <defs>
       <path id="ArialMT-4c" d="M 469 0 
L 469 4581 
L 1075 4581 
L 1075 541 
L 3331 541 
L 3331 0 
L 469 0 
z
" transform="scale(0.015625)"/>
       <path id="ArialMT-66" d="M 556 0 
L 556 2881 
L 59 2881 
L 59 3319 
L 556 3319 
L 556 3672 
Q 556 4006 616 4169 
Q 697 4388 901 4523 
Q 1106 4659 1475 4659 
Q 1713 4659 2000 4603 
L 1916 4113 
Q 1741 4144 1584 4144 
Q 1328 4144 1222 4034 
Q 1116 3925 1116 3625 
L 1116 3319 
L 1763 3319 
L 1763 2881 
L 1116 2881 
L 1116 0 
L 556 0 
z
" transform="scale(0.015625)"/>
       <path id="ArialMT-62" d="M 941 0 
L 419 0 
L 419 4581 
L 981 4581 
L 981 2947 
Q 1338 3394 1891 3394 
Q 2197 3394 2470 3270 
Q 2744 3147 2920 2923 
Q 3097 2700 3197 2384 
Q 3297 2069 3297 1709 
Q 3297 856 2875 390 
Q 2453 -75 1863 -75 
Q 1275 -75 941 416 
L 941 0 
z
M 934 1684 
Q 934 1088 1097 822 
Q 1363 388 1816 388 
Q 2184 388 2453 708 
Q 2722 1028 2722 1663 
Q 2722 2313 2464 2622 
Q 2206 2931 1841 2931 
Q 1472 2931 1203 2611 
Q 934 2291 934 1684 
z
" transform="scale(0.015625)"/>
      </defs>
      <use xlink:href="#ArialMT-4c"/>
      <use xlink:href="#ArialMT-69" transform="translate(55.615234 0)"/>
      <use xlink:href="#ArialMT-6e" transform="translate(77.832031 0)"/>
      <use xlink:href="#ArialMT-65" transform="translate(133.447266 0)"/>
      <use xlink:href="#ArialMT-20" transform="translate(189.0625 0)"/>
      <use xlink:href="#ArialMT-6f" transform="translate(216.845703 0)"/>
      <use xlink:href="#ArialMT-66" transform="translate(272.460938 0)"/>
      <use xlink:href="#ArialMT-20" transform="translate(300.244141 0)"/>
      <use xlink:href="#ArialMT-62" transform="translate(328.027344 0)"/>
      <use xlink:href="#ArialMT-65" transform="translate(383.642578 0)"/>
      <use xlink:href="#ArialMT-73" transform="translate(439.257812 0)"/>
      <use xlink:href="#ArialMT-74" transform="translate(489.257812 0)"/>
      <use xlink:href="#ArialMT-20" transform="translate(517.041016 0)"/>
      <use xlink:href="#ArialMT-66" transform="translate(544.824219 0)"/>
      <use xlink:href="#ArialMT-69" transform="translate(572.607422 0)"/>
      <use xlink:href="#ArialMT-74" transform="translate(594.824219 0)"/>
     </g>
    </g>
    <g id="line2d_42">
     <path d="M 90 92.788437 
L 100 92.788437 
L 110 92.788437 
" style="fill: none; stroke-dasharray: 5.55,2.4; stroke-dashoffset: 0; stroke: #000000; stroke-width: 1.5"/>
    </g>
    <g id="text_23">
     <!-- C=Y -->
     <g style="fill: #262626" transform="translate(118 96.288437) scale(0.1 -0.1)">
      <defs>
       <path id="ArialMT-3d" d="M 3381 2694 
L 356 2694 
L 356 3219 
L 3381 3219 
L 3381 2694 
z
M 3381 1303 
L 356 1303 
L 356 1828 
L 3381 1828 
L 3381 1303 
z
" transform="scale(0.015625)"/>
       <path id="ArialMT-59" d="M 1784 0 
L 1784 1941 
L 19 4581 
L 756 4581 
L 1659 3200 
Q 1909 2813 2125 2425 
Q 2331 2784 2625 3234 
L 3513 4581 
L 4219 4581 
L 2391 1941 
L 2391 0 
L 1784 0 
z
" transform="scale(0.015625)"/>
      </defs>
      <use xlink:href="#ArialMT-43"/>
      <use xlink:href="#ArialMT-3d" transform="translate(72.216797 0)"/>
      <use xlink:href="#ArialMT-59" transform="translate(130.615234 0)"/>
     </g>
    </g>
   </g>
  </g>
 </g>
 <defs>
  <clipPath id="pcc51263ae6">
   <rect x="81" y="51.84" width="502.2" height="332.64"/>
  </clipPath>
 </defs>
</svg>
