<?xml version="1.0" encoding="utf-8" standalone="no"?>
<!DOCTYPE svg PUBLIC "-//W3C//DTD SVG 1.1//EN"
  "http://www.w3.org/Graphics/SVG/1.1/DTD/svg11.dtd">
<svg xmlns:xlink="http://www.w3.org/1999/xlink" width="576pt" height="432pt" viewBox="0 0 576 432" xmlns="http://www.w3.org/2000/svg" version="1.1">
 <metadata>
  <rdf:RDF xmlns:dc="http://purl.org/dc/elements/1.1/" xmlns:cc="http://creativecommons.org/ns#" xmlns:rdf="http://www.w3.org/1999/02/22-rdf-syntax-ns#">
   <cc:Work>
    <dc:type rdf:resource="http://purl.org/dc/dcmitype/StillImage"/>
    <dc:format>image/svg+xml</dc:format>
    <dc:creator>
     <cc:Agent>
      <dc:title>Matplotlib v3.10.6, https://matplotlib.org/</dc:title>
     </cc:Agent>
    </dc:creator>
   </cc:Work>
  </rdf:RDF>
 </metadata>
 <defs>
  <style type="text/css">*{stroke-linejoin: round; stroke-linecap: butt}</style>
 </defs>
 <g id="figure_1">
  <g id="patch_1">
   <path d="M 0 432 
L 576 432 
L 576 0 
L 0 0 
z
" style="fill: #ffffff"/>
  </g>
  <g id="axes_1">
   <g id="patch_2">
    <path d="M 72 384.48 
L 518.4 384.48 
L 518.4 51.84 
L 72 51.84 
z
" style="fill: #ffffff"/>
   </g>
   <g id="matplotlib.axis_1">
    <g id="xtick_1">
     <g id="line2d_1">
      <defs>
       <path id="m89d14d85df" d="M 0 0 
L 0 3.5 
" style="stroke: #000000; stroke-width: 0.8"/>
      </defs>
      <g>
       <use xlink:href="#m89d14d85df" x="92.290909" y="384.48" style="stroke: #000000; stroke-width: 0.8"/>
      </g>
     </g>
     <g id="text_1">
      <!-- 0 -->
      <g transform="translate(89.109659 399.078438) scale(0.1 -0.1)">
       <defs>
        <path id="DejaVuSans-30" d="M 2034 4250 
Q 1547 4250 1301 3770 
Q 1056 3291 1056 2328 
Q 1056 1369 1301 889 
Q 1547 409 2034 409 
Q 2525 409 2770 889 
Q 3016 1369 3016 2328 
Q 3016 3291 2770 3770 
Q 2525 4250 2034 4250 
z
M 2034 4750 
Q 2819 4750 3233 4129 
Q 3647 3509 3647 2328 
Q 3647 1150 3233 529 
Q 2819 -91 2034 -91 
Q 1250 -91 836 529 
Q 422 1150 422 2328 
Q 422 3509 836 4129 
Q 1250 4750 2034 4750 
z
" transform="scale(0.015625)"/>
       </defs>
       <use xlink:href="#DejaVuSans-30"/>
      </g>
     </g>
    </g>
    <g id="xtick_2">
     <g id="line2d_2">
      <g>
       <use xlink:href="#m89d14d85df" x="173.454545" y="384.48" style="stroke: #000000; stroke-width: 0.8"/>
      </g>
     </g>
     <g id="text_2">
      <!-- 2 -->
      <g transform="translate(170.273295 399.078438) scale(0.1 -0.1)">
       <defs>
        <path id="DejaVuSans-32" d="M 1228 531 
L 3431 531 
L 3431 0 
L 469 0 
L 469 531 
Q 828 903 1448 1529 
Q 2069 2156 2228 2338 
Q 2531 2678 2651 2914 
Q 2772 3150 2772 3378 
Q 2772 3750 2511 3984 
Q 2250 4219 1831 4219 
Q 1534 4219 1204 4116 
Q 875 4013 500 3803 
L 500 4441 
Q 881 4594 1212 4672 
Q 1544 4750 1819 4750 
Q 2544 4750 2975 4387 
Q 3406 4025 3406 3419 
Q 3406 3131 3298 2873 
Q 3191 2616 2906 2266 
Q 2828 2175 2409 1742 
Q 1991 1309 1228 531 
z
" transform="scale(0.015625)"/>
       </defs>
       <use xlink:href="#DejaVuSans-32"/>
      </g>
     </g>
    </g>
    <g id="xtick_3">
     <g id="line2d_3">
      <g>
       <use xlink:href="#m89d14d85df" x="254.618182" y="384.48" style="stroke: #000000; stroke-width: 0.8"/>
      </g>
     </g>
     <g id="text_3">
      <!-- 4 -->
      <g transform="translate(251.436932 399.078438) scale(0.1 -0.1)">
       <defs>
        <path id="DejaVuSans-34" d="M 2419 4116 
L 825 1625 
L 2419 1625 
L 2419 4116 
z
M 2253 4666 
L 3047 4666 
L 3047 1625 
L 3713 1625 
L 3713 1100 
L 3047 1100 
L 3047 0 
L 2419 0 
L 2419 1100 
L 313 1100 
L 313 1709 
L 2253 4666 
z
" transform="scale(0.015625)"/>
       </defs>
       <use xlink:href="#DejaVuSans-34"/>
      </g>
     </g>
    </g>
    <g id="xtick_4">
     <g id="line2d_4">
      <g>
       <use xlink:href="#m89d14d85df" x="335.781818" y="384.48" style="stroke: #000000; stroke-width: 0.8"/>
      </g>
     </g>
     <g id="text_4">
      <!-- 6 -->
      <g transform="translate(332.600568 399.078438) scale(0.1 -0.1)">
       <defs>
        <path id="DejaVuSans-36" d="M 2113 2584 
Q 1688 2584 1439 2293 
Q 1191 2003 1191 1497 
Q 1191 994 1439 701 
Q 1688 409 2113 409 
Q 2538 409 2786 701 
Q 3034 994 3034 1497 
Q 3034 2003 2786 2293 
Q 2538 2584 2113 2584 
z
M 3366 4563 
L 3366 3988 
Q 3128 4100 2886 4159 
Q 2644 4219 2406 4219 
Q 1781 4219 1451 3797 
Q 1122 3375 1075 2522 
Q 1259 2794 1537 2939 
Q 1816 3084 2150 3084 
Q 2853 3084 3261 2657 
Q 3669 2231 3669 1497 
Q 3669 778 3244 343 
Q 2819 -91 2113 -91 
Q 1303 -91 875 529 
Q 447 1150 447 2328 
Q 447 3434 972 4092 
Q 1497 4750 2381 4750 
Q 2619 4750 2861 4703 
Q 3103 4656 3366 4563 
z
" transform="scale(0.015625)"/>
       </defs>
       <use xlink:href="#DejaVuSans-36"/>
      </g>
     </g>
    </g>
    <g id="xtick_5">
     <g id="line2d_5">
      <g>
       <use xlink:href="#m89d14d85df" x="416.945455" y="384.48" style="stroke: #000000; stroke-width: 0.8"/>
      </g>
     </g>
     <g id="text_5">
      <!-- 8 -->
      <g transform="translate(413.764205 399.078438) scale(0.1 -0.1)">
       <defs>
        <path id="DejaVuSans-38" d="M 2034 2216 
Q 1584 2216 1326 1975 
Q 1069 1734 1069 1313 
Q 1069 891 1326 650 
Q 1584 409 2034 409 
Q 2484 409 2743 651 
Q 3003 894 3003 1313 
Q 3003 1734 2745 1975 
Q 2488 2216 2034 2216 
z
M 1403 2484 
Q 997 2584 770 2862 
Q 544 3141 544 3541 
Q 544 4100 942 4425 
Q 1341 4750 2034 4750 
Q 2731 4750 3128 4425 
Q 3525 4100 3525 3541 
Q 3525 3141 3298 2862 
Q 3072 2584 2669 2484 
Q 3125 2378 3379 2068 
Q 3634 1759 3634 1313 
Q 3634 634 3220 271 
Q 2806 -91 2034 -91 
Q 1263 -91 848 271 
Q 434 634 434 1313 
Q 434 1759 690 2068 
Q 947 2378 1403 2484 
z
M 1172 3481 
Q 1172 3119 1398 2916 
Q 1625 2713 2034 2713 
Q 2441 2713 2670 2916 
Q 2900 3119 2900 3481 
Q 2900 3844 2670 4047 
Q 2441 4250 2034 4250 
Q 1625 4250 1398 4047 
Q 1172 3844 1172 3481 
z
" transform="scale(0.015625)"/>
       </defs>
       <use xlink:href="#DejaVuSans-38"/>
      </g>
     </g>
    </g>
    <g id="xtick_6">
     <g id="line2d_6">
      <g>
       <use xlink:href="#m89d14d85df" x="498.109091" y="384.48" style="stroke: #000000; stroke-width: 0.8"/>
      </g>
     </g>
     <g id="text_6">
      <!-- 10 -->
      <g transform="translate(491.746591 399.078438) scale(0.1 -0.1)">
       <defs>
        <path id="DejaVuSans-31" d="M 794 531 
L 1825 531 
L 1825 4091 
L 703 3866 
L 703 4441 
L 1819 4666 
L 2450 4666 
L 2450 531 
L 3481 531 
L 3481 0 
L 794 0 
L 794 531 
z
" transform="scale(0.015625)"/>
       </defs>
       <use xlink:href="#DejaVuSans-31"/>
       <use xlink:href="#DejaVuSans-30" transform="translate(63.623047 0)"/>
      </g>
     </g>
    </g>
   </g>
   <g id="matplotlib.axis_2">
    <g id="ytick_1">
     <g id="line2d_7">
      <defs>
       <path id="m6b7a1bde5a" d="M 0 0 
L -3.5 0 
" style="stroke: #000000; stroke-width: 0.8"/>
      </defs>
      <g>
       <use xlink:href="#m6b7a1bde5a" x="72" y="369.36" style="stroke: #000000; stroke-width: 0.8"/>
      </g>
     </g>
     <g id="text_7">
      <!-- 0 -->
      <g transform="translate(58.6375 373.159219) scale(0.1 -0.1)">
       <use xlink:href="#DejaVuSans-30"/>
      </g>
     </g>
    </g>
    <g id="ytick_2">
     <g id="line2d_8">
      <g>
       <use xlink:href="#m6b7a1bde5a" x="72" y="308.88" style="stroke: #000000; stroke-width: 0.8"/>
      </g>
     </g>
     <g id="text_8">
      <!-- 2 -->
      <g transform="translate(58.6375 312.679219) scale(0.1 -0.1)">
       <use xlink:href="#DejaVuSans-32"/>
      </g>
     </g>
    </g>
    <g id="ytick_3">
     <g id="line2d_9">
      <g>
       <use xlink:href="#m6b7a1bde5a" x="72" y="248.4" style="stroke: #000000; stroke-width: 0.8"/>
      </g>
     </g>
     <g id="text_9">
      <!-- 4 -->
      <g transform="translate(58.6375 252.199219) scale(0.1 -0.1)">
       <use xlink:href="#DejaVuSans-34"/>
      </g>
     </g>
    </g>
    <g id="ytick_4">
     <g id="line2d_10">
      <g>
       <use xlink:href="#m6b7a1bde5a" x="72" y="187.92" style="stroke: #000000; stroke-width: 0.8"/>
      </g>
     </g>
     <g id="text_10">
      <!-- 6 -->
      <g transform="translate(58.6375 191.719219) scale(0.1 -0.1)">
       <use xlink:href="#DejaVuSans-36"/>
      </g>
     </g>
    </g>
    <g id="ytick_5">
     <g id="line2d_11">
      <g>
       <use xlink:href="#m6b7a1bde5a" x="72" y="127.44" style="stroke: #000000; stroke-width: 0.8"/>
      </g>
     </g>
     <g id="text_11">
      <!-- 8 -->
      <g transform="translate(58.6375 131.239219) scale(0.1 -0.1)">
       <use xlink:href="#DejaVuSans-38"/>
      </g>
     </g>
    </g>
    <g id="ytick_6">
     <g id="line2d_12">
      <g>
       <use xlink:href="#m6b7a1bde5a" x="72" y="66.96" style="stroke: #000000; stroke-width: 0.8"/>
      </g>
     </g>
     <g id="text_12">
      <!-- 10 -->
      <g transform="translate(52.275 70.759219) scale(0.1 -0.1)">
       <use xlink:href="#DejaVuSans-31"/>
       <use xlink:href="#DejaVuSans-30" transform="translate(63.623047 0)"/>
      </g>
     </g>
    </g>
   </g>
   <g id="line2d_13">
    <path d="M 92.290909 369.36 
L 96.390083 366.305455 
L 100.489256 363.250909 
L 104.58843 360.196364 
L 108.687603 357.141818 
L 112.786777 354.087273 
L 116.88595 351.032727 
L 120.985124 347.978182 
L 125.084298 345.738061 
L 129.183471 344.325962 
L 133.282645 343.077028 
L 137.381818 341.946205 
L 141.480992 340.931298 
L 145.580165 340.025055 
L 149.679339 339.226586 
L 153.778512 338.556331 
L 157.877686 337.980596 
L 161.97686 337.456319 
L 166.076033 336.96757 
L 170.175207 336.507344 
L 174.27438 336.071298 
L 178.373554 335.655785 
L 182.472727 335.26611 
L 186.571901 334.895645 
L 190.671074 334.536557 
L 194.770248 334.198964 
L 198.869421 333.868739 
L 202.968595 333.551747 
L 207.067769 333.2423 
L 211.166942 332.943272 
L 215.266116 332.648441 
L 219.365289 332.365622 
L 223.464463 332.082804 
L 227.563636 331.812157 
L 231.66281 331.543879 
L 235.761983 331.277047 
L 239.861157 331.021934 
L 243.960331 330.766822 
L 248.059504 330.511984 
L 252.158678 330.268659 
L 256.257851 330.025334 
L 260.357025 329.782009 
L 264.456198 329.544179 
L 268.555372 329.311588 
L 272.654545 329.078998 
L 276.753719 328.846408 
L 280.852893 328.618628 
L 284.952066 328.395757 
L 289.05124 328.172885 
L 293.150413 327.950013 
L 297.249587 327.727142 
L 301.34876 327.512006 
L 305.447934 327.297988 
L 309.547107 327.083969 
L 313.646281 326.869951 
L 317.745455 326.655933 
L 321.844628 326.446154 
L 325.943802 326.240206 
L 330.042975 326.034258 
L 334.142149 325.82831 
L 338.241322 325.622362 
L 342.340496 325.416414 
L 346.439669 325.21265 
L 350.538843 325.014086 
L 354.638017 324.815521 
L 358.73719 324.616957 
L 362.836364 324.418393 
L 366.935537 324.219828 
L 371.034711 324.021264 
L 375.133884 323.8227 
L 379.233058 323.630819 
L 383.332231 323.438998 
L 387.431405 323.247176 
L 391.530579 323.055355 
L 395.629752 322.863533 
L 399.728926 322.671712 
L 403.828099 322.479891 
L 407.927273 322.288069 
L 412.026446 322.098508 
L 416.12562 321.91287 
L 420.224793 321.727232 
L 424.323967 321.541594 
L 428.42314 321.355956 
L 432.522314 321.170318 
L 436.621488 320.98468 
L 440.720661 320.799042 
L 444.819835 320.613404 
L 448.919008 320.427766 
L 453.018182 320.242706 
L 457.117355 320.0627 
L 461.216529 319.882694 
L 465.315702 319.702689 
L 469.414876 319.522683 
L 473.51405 319.342677 
L 477.613223 319.162672 
L 481.712397 318.982666 
L 485.81157 318.80266 
L 489.910744 318.622655 
L 494.009917 318.442649 
L 498.109091 318.262643 
" clip-path="url(#p6278ffb511)" style="fill: none; stroke: #1f77b4; stroke-width: 1.5; stroke-linecap: square"/>
   </g>
   <g id="line2d_14">
    <path d="M 92.290909 369.36 
L 96.390083 366.305455 
L 100.489256 363.250909 
L 104.58843 360.196364 
L 108.687603 357.141818 
L 112.786777 354.087273 
L 116.88595 351.032727 
L 120.985124 347.978182 
L 125.084298 344.923636 
L 129.183471 341.869091 
L 133.282645 338.814545 
L 137.381818 335.76 
L 141.480992 332.705455 
L 145.580165 329.650909 
L 149.679339 326.596364 
L 153.778512 323.541818 
L 157.877686 320.487273 
L 161.97686 317.432727 
L 166.076033 314.378182 
L 170.175207 311.323636 
L 174.27438 308.269091 
L 178.373554 305.214545 
L 182.472727 302.16 
L 186.571901 299.105455 
L 190.671074 296.050909 
L 194.770248 292.996364 
L 198.869421 289.941818 
L 202.968595 286.887273 
L 207.067769 283.832727 
L 211.166942 280.778182 
L 215.266116 277.723636 
L 219.365289 274.669091 
L 223.464463 271.614545 
L 227.563636 268.56 
L 231.66281 265.505455 
L 235.761983 262.450909 
L 239.861157 259.396364 
L 243.960331 256.341818 
L 248.059504 253.287273 
L 252.158678 250.232727 
L 256.257851 247.178182 
L 260.357025 244.123636 
L 264.456198 241.069091 
L 268.555372 238.014545 
L 272.654545 234.96 
L 276.753719 231.905455 
L 280.852893 228.850909 
L 284.952066 225.796364 
L 289.05124 222.741818 
L 293.150413 219.687273 
L 297.249587 216.632727 
L 301.34876 213.578182 
L 305.447934 210.523636 
L 309.547107 207.469091 
L 313.646281 204.414545 
L 317.745455 201.36 
L 321.844628 198.305455 
L 325.943802 195.250909 
L 330.042975 192.196364 
L 334.142149 189.141818 
L 338.241322 186.087273 
L 342.340496 183.032727 
L 346.439669 179.978182 
L 350.538843 176.923636 
L 354.638017 173.869091 
L 358.73719 170.814545 
L 362.836364 167.76 
L 366.935537 164.705455 
L 371.034711 161.650909 
L 375.133884 158.596364 
L 379.233058 155.541818 
L 383.332231 152.487273 
L 387.431405 149.432727 
L 391.530579 146.378182 
L 395.629752 143.323636 
L 399.728926 140.269091 
L 403.828099 137.214545 
L 407.927273 134.16 
L 412.026446 131.105455 
L 416.12562 128.050909 
L 420.224793 124.996364 
L 424.323967 121.941818 
L 428.42314 118.887273 
L 432.522314 115.832727 
L 436.621488 112.778182 
L 440.720661 109.723636 
L 444.819835 106.669091 
L 448.919008 103.614545 
L 453.018182 100.56 
L 457.117355 97.505455 
L 461.216529 94.450909 
L 465.315702 91.396364 
L 469.414876 88.341818 
L 473.51405 85.287273 
L 477.613223 82.232727 
L 481.712397 79.178182 
L 485.81157 76.123636 
L 489.910744 73.069091 
L 494.009917 70.014545 
L 498.109091 66.96 
" clip-path="url(#p6278ffb511)" style="fill: none; stroke: #ff7f0e; stroke-width: 1.5; stroke-linecap: square"/>
   </g>
   <g id="patch_3">
    <path d="M 72 384.48 
L 72 51.84 
" style="fill: none; stroke: #000000; stroke-width: 0.8; stroke-linejoin: miter; stroke-linecap: square"/>
   </g>
   <g id="patch_4">
    <path d="M 518.4 384.48 
L 518.4 51.84 
" style="fill: none; stroke: #000000; stroke-width: 0.8; stroke-linejoin: miter; stroke-linecap: square"/>
   </g>
   <g id="patch_5">
    <path d="M 72 384.48 
L 518.4 384.48 
" style="fill: none; stroke: #000000; stroke-width: 0.8; stroke-linejoin: miter; stroke-linecap: square"/>
   </g>
   <g id="patch_6">
    <path d="M 72 51.84 
L 518.4 51.84 
" style="fill: none; stroke: #000000; stroke-width: 0.8; stroke-linejoin: miter; stroke-linecap: square"/>
   </g>
  </g>
 </g>
 <defs>
  <clipPath id="p6278ffb511">
   <rect x="72" y="51.84" width="446.4" height="332.64"/>
  </clipPath>
 </defs>
</svg>
