<?xml version="1.0" encoding="utf-8" standalone="no"?>
<!DOCTYPE svg PUBLIC "-//W3C//DTD SVG 1.1//EN"
  "http://www.w3.org/Graphics/SVG/1.1/DTD/svg11.dtd">
<svg xmlns:xlink="http://www.w3.org/1999/xlink" width="576pt" height="432pt" viewBox="0 0 576 432" xmlns="http://www.w3.org/2000/svg" version="1.1">
 <metadata>
  <rdf:RDF xmlns:dc="http://purl.org/dc/elements/1.1/" xmlns:cc="http://creativecommons.org/ns#" xmlns:rdf="http://www.w3.org/1999/02/22-rdf-syntax-ns#">
   <cc:Work>
    <dc:type rdf:resource="http://purl.org/dc/dcmitype/StillImage"/>
    <dc:format>image/svg+xml</dc:format>
    <dc:creator>
     <cc:Agent>
      <dc:title>Matplotlib v3.10.6, https://matplotlib.org/</dc:title>
     </cc:Agent>
    </dc:creator>
   </cc:Work>
  </rdf:RDF>
 </metadata>
 <defs>
  <style type="text/css">*{stroke-linejoin: round; stroke-linecap: butt}</style>
 </defs>
 <g id="figure_1">
  <g id="patch_1">
   <path d="M 0 432 
L 576 432 
L 576 0 
L 0 0 
z
" style="fill: #ffffff"/>
  </g>
  <g id="axes_1">
   <g id="patch_2">
    <path d="M 72 384.48 
L 518.4 384.48 
L 518.4 51.84 
L 72 51.84 
z
" style="fill: #ffffff"/>
   </g>
   <g id="matplotlib.axis_1">
    <g id="xtick_1">
     <g id="line2d_1">
      <defs>
       <path id="mc10d2714b2" d="M 0 0 
L 0 3.5 
" style="stroke: #000000; stroke-width: 0.8"/>
      </defs>
      <g>
       <use xlink:href="#mc10d2714b2" x="91.273821" y="384.48" style="stroke: #000000; stroke-width: 0.8"/>
      </g>
     </g>
     <g id="text_1">
      <!-- 0 -->
      <g transform="translate(88.092571 399.078438) scale(0.1 -0.1)">
       <defs>
        <path id="DejaVuSans-30" d="M 2034 4250 
Q 1547 4250 1301 3770 
Q 1056 3291 1056 2328 
Q 1056 1369 1301 889 
Q 1547 409 2034 409 
Q 2525 409 2770 889 
Q 3016 1369 3016 2328 
Q 3016 3291 2770 3770 
Q 2525 4250 2034 4250 
z
M 2034 4750 
Q 2819 4750 3233 4129 
Q 3647 3509 3647 2328 
Q 3647 1150 3233 529 
Q 2819 -91 2034 -91 
Q 1250 -91 836 529 
Q 422 1150 422 2328 
Q 422 3509 836 4129 
Q 1250 4750 2034 4750 
z
" transform="scale(0.015625)"/>
       </defs>
       <use xlink:href="#DejaVuSans-30"/>
      </g>
     </g>
    </g>
    <g id="xtick_2">
     <g id="line2d_2">
      <g>
       <use xlink:href="#mc10d2714b2" x="142.12823" y="384.48" style="stroke: #000000; stroke-width: 0.8"/>
      </g>
     </g>
     <g id="text_2">
      <!-- 50 -->
      <g transform="translate(135.76573 399.078438) scale(0.1 -0.1)">
       <defs>
        <path id="DejaVuSans-35" d="M 691 4666 
L 3169 4666 
L 3169 4134 
L 1269 4134 
L 1269 2991 
Q 1406 3038 1543 3061 
Q 1681 3084 1819 3084 
Q 2600 3084 3056 2656 
Q 3513 2228 3513 1497 
Q 3513 744 3044 326 
Q 2575 -91 1722 -91 
Q 1428 -91 1123 -41 
Q 819 9 494 109 
L 494 744 
Q 775 591 1075 516 
Q 1375 441 1709 441 
Q 2250 441 2565 725 
Q 2881 1009 2881 1497 
Q 2881 1984 2565 2268 
Q 2250 2553 1709 2553 
Q 1456 2553 1204 2497 
Q 953 2441 691 2322 
L 691 4666 
z
" transform="scale(0.015625)"/>
       </defs>
       <use xlink:href="#DejaVuSans-35"/>
       <use xlink:href="#DejaVuSans-30" transform="translate(63.623047 0)"/>
      </g>
     </g>
    </g>
    <g id="xtick_3">
     <g id="line2d_3">
      <g>
       <use xlink:href="#mc10d2714b2" x="192.982638" y="384.48" style="stroke: #000000; stroke-width: 0.8"/>
      </g>
     </g>
     <g id="text_3">
      <!-- 100 -->
      <g transform="translate(183.438888 399.078438) scale(0.1 -0.1)">
       <defs>
        <path id="DejaVuSans-31" d="M 794 531 
L 1825 531 
L 1825 4091 
L 703 3866 
L 703 4441 
L 1819 4666 
L 2450 4666 
L 2450 531 
L 3481 531 
L 3481 0 
L 794 0 
L 794 531 
z
" transform="scale(0.015625)"/>
       </defs>
       <use xlink:href="#DejaVuSans-31"/>
       <use xlink:href="#DejaVuSans-30" transform="translate(63.623047 0)"/>
       <use xlink:href="#DejaVuSans-30" transform="translate(127.246094 0)"/>
      </g>
     </g>
    </g>
    <g id="xtick_4">
     <g id="line2d_4">
      <g>
       <use xlink:href="#mc10d2714b2" x="243.837047" y="384.48" style="stroke: #000000; stroke-width: 0.8"/>
      </g>
     </g>
     <g id="text_4">
      <!-- 150 -->
      <g transform="translate(234.293297 399.078438) scale(0.1 -0.1)">
       <use xlink:href="#DejaVuSans-31"/>
       <use xlink:href="#DejaVuSans-35" transform="translate(63.623047 0)"/>
       <use xlink:href="#DejaVuSans-30" transform="translate(127.246094 0)"/>
      </g>
     </g>
    </g>
    <g id="xtick_5">
     <g id="line2d_5">
      <g>
       <use xlink:href="#mc10d2714b2" x="294.691456" y="384.48" style="stroke: #000000; stroke-width: 0.8"/>
      </g>
     </g>
     <g id="text_5">
      <!-- 200 -->
      <g transform="translate(285.147706 399.078438) scale(0.1 -0.1)">
       <defs>
        <path id="DejaVuSans-32" d="M 1228 531 
L 3431 531 
L 3431 0 
L 469 0 
L 469 531 
Q 828 903 1448 1529 
Q 2069 2156 2228 2338 
Q 2531 2678 2651 2914 
Q 2772 3150 2772 3378 
Q 2772 3750 2511 3984 
Q 2250 4219 1831 4219 
Q 1534 4219 1204 4116 
Q 875 4013 500 3803 
L 500 4441 
Q 881 4594 1212 4672 
Q 1544 4750 1819 4750 
Q 2544 4750 2975 4387 
Q 3406 4025 3406 3419 
Q 3406 3131 3298 2873 
Q 3191 2616 2906 2266 
Q 2828 2175 2409 1742 
Q 1991 1309 1228 531 
z
" transform="scale(0.015625)"/>
       </defs>
       <use xlink:href="#DejaVuSans-32"/>
       <use xlink:href="#DejaVuSans-30" transform="translate(63.623047 0)"/>
       <use xlink:href="#DejaVuSans-30" transform="translate(127.246094 0)"/>
      </g>
     </g>
    </g>
    <g id="xtick_6">
     <g id="line2d_6">
      <g>
       <use xlink:href="#mc10d2714b2" x="345.545865" y="384.48" style="stroke: #000000; stroke-width: 0.8"/>
      </g>
     </g>
     <g id="text_6">
      <!-- 250 -->
      <g transform="translate(336.002115 399.078438) scale(0.1 -0.1)">
       <use xlink:href="#DejaVuSans-32"/>
       <use xlink:href="#DejaVuSans-35" transform="translate(63.623047 0)"/>
       <use xlink:href="#DejaVuSans-30" transform="translate(127.246094 0)"/>
      </g>
     </g>
    </g>
    <g id="xtick_7">
     <g id="line2d_7">
      <g>
       <use xlink:href="#mc10d2714b2" x="396.400273" y="384.48" style="stroke: #000000; stroke-width: 0.8"/>
      </g>
     </g>
     <g id="text_7">
      <!-- 300 -->
      <g transform="translate(386.856523 399.078438) scale(0.1 -0.1)">
       <defs>
        <path id="DejaVuSans-33" d="M 2597 2516 
Q 3050 2419 3304 2112 
Q 3559 1806 3559 1356 
Q 3559 666 3084 287 
Q 2609 -91 1734 -91 
Q 1441 -91 1130 -33 
Q 819 25 488 141 
L 488 750 
Q 750 597 1062 519 
Q 1375 441 1716 441 
Q 2309 441 2620 675 
Q 2931 909 2931 1356 
Q 2931 1769 2642 2001 
Q 2353 2234 1838 2234 
L 1294 2234 
L 1294 2753 
L 1863 2753 
Q 2328 2753 2575 2939 
Q 2822 3125 2822 3475 
Q 2822 3834 2567 4026 
Q 2313 4219 1838 4219 
Q 1578 4219 1281 4162 
Q 984 4106 628 3988 
L 628 4550 
Q 988 4650 1302 4700 
Q 1616 4750 1894 4750 
Q 2613 4750 3031 4423 
Q 3450 4097 3450 3541 
Q 3450 3153 3228 2886 
Q 3006 2619 2597 2516 
z
" transform="scale(0.015625)"/>
       </defs>
       <use xlink:href="#DejaVuSans-33"/>
       <use xlink:href="#DejaVuSans-30" transform="translate(63.623047 0)"/>
       <use xlink:href="#DejaVuSans-30" transform="translate(127.246094 0)"/>
      </g>
     </g>
    </g>
    <g id="xtick_8">
     <g id="line2d_8">
      <g>
       <use xlink:href="#mc10d2714b2" x="447.254682" y="384.48" style="stroke: #000000; stroke-width: 0.8"/>
      </g>
     </g>
     <g id="text_8">
      <!-- 350 -->
      <g transform="translate(437.710932 399.078438) scale(0.1 -0.1)">
       <use xlink:href="#DejaVuSans-33"/>
       <use xlink:href="#DejaVuSans-35" transform="translate(63.623047 0)"/>
       <use xlink:href="#DejaVuSans-30" transform="translate(127.246094 0)"/>
      </g>
     </g>
    </g>
    <g id="xtick_9">
     <g id="line2d_9">
      <g>
       <use xlink:href="#mc10d2714b2" x="498.109091" y="384.48" style="stroke: #000000; stroke-width: 0.8"/>
      </g>
     </g>
     <g id="text_9">
      <!-- 400 -->
      <g transform="translate(488.565341 399.078438) scale(0.1 -0.1)">
       <defs>
        <path id="DejaVuSans-34" d="M 2419 4116 
L 825 1625 
L 2419 1625 
L 2419 4116 
z
M 2253 4666 
L 3047 4666 
L 3047 1625 
L 3713 1625 
L 3713 1100 
L 3047 1100 
L 3047 0 
L 2419 0 
L 2419 1100 
L 313 1100 
L 313 1709 
L 2253 4666 
z
" transform="scale(0.015625)"/>
       </defs>
       <use xlink:href="#DejaVuSans-34"/>
       <use xlink:href="#DejaVuSans-30" transform="translate(63.623047 0)"/>
       <use xlink:href="#DejaVuSans-30" transform="translate(127.246094 0)"/>
      </g>
     </g>
    </g>
   </g>
   <g id="matplotlib.axis_2">
    <g id="ytick_1">
     <g id="line2d_10">
      <defs>
       <path id="m434faf2b8a" d="M 0 0 
L -3.5 0 
" style="stroke: #000000; stroke-width: 0.8"/>
      </defs>
      <g>
       <use xlink:href="#m434faf2b8a" x="72" y="356.194186" style="stroke: #000000; stroke-width: 0.8"/>
      </g>
     </g>
     <g id="text_10">
      <!-- 1.88 -->
      <g transform="translate(42.734375 359.993405) scale(0.1 -0.1)">
       <defs>
        <path id="DejaVuSans-2e" d="M 684 794 
L 1344 794 
L 1344 0 
L 684 0 
L 684 794 
z
" transform="scale(0.015625)"/>
        <path id="DejaVuSans-38" d="M 2034 2216 
Q 1584 2216 1326 1975 
Q 1069 1734 1069 1313 
Q 1069 891 1326 650 
Q 1584 409 2034 409 
Q 2484 409 2743 651 
Q 3003 894 3003 1313 
Q 3003 1734 2745 1975 
Q 2488 2216 2034 2216 
z
M 1403 2484 
Q 997 2584 770 2862 
Q 544 3141 544 3541 
Q 544 4100 942 4425 
Q 1341 4750 2034 4750 
Q 2731 4750 3128 4425 
Q 3525 4100 3525 3541 
Q 3525 3141 3298 2862 
Q 3072 2584 2669 2484 
Q 3125 2378 3379 2068 
Q 3634 1759 3634 1313 
Q 3634 634 3220 271 
Q 2806 -91 2034 -91 
Q 1263 -91 848 271 
Q 434 634 434 1313 
Q 434 1759 690 2068 
Q 947 2378 1403 2484 
z
M 1172 3481 
Q 1172 3119 1398 2916 
Q 1625 2713 2034 2713 
Q 2441 2713 2670 2916 
Q 2900 3119 2900 3481 
Q 2900 3844 2670 4047 
Q 2441 4250 2034 4250 
Q 1625 4250 1398 4047 
Q 1172 3844 1172 3481 
z
" transform="scale(0.015625)"/>
       </defs>
       <use xlink:href="#DejaVuSans-31"/>
       <use xlink:href="#DejaVuSans-2e" transform="translate(63.623047 0)"/>
       <use xlink:href="#DejaVuSans-38" transform="translate(95.410156 0)"/>
       <use xlink:href="#DejaVuSans-38" transform="translate(159.033203 0)"/>
      </g>
     </g>
    </g>
    <g id="ytick_2">
     <g id="line2d_11">
      <g>
       <use xlink:href="#m434faf2b8a" x="72" y="315.811836" style="stroke: #000000; stroke-width: 0.8"/>
      </g>
     </g>
     <g id="text_11">
      <!-- 1.90 -->
      <g transform="translate(42.734375 319.611055) scale(0.1 -0.1)">
       <defs>
        <path id="DejaVuSans-39" d="M 703 97 
L 703 672 
Q 941 559 1184 500 
Q 1428 441 1663 441 
Q 2288 441 2617 861 
Q 2947 1281 2994 2138 
Q 2813 1869 2534 1725 
Q 2256 1581 1919 1581 
Q 1219 1581 811 2004 
Q 403 2428 403 3163 
Q 403 3881 828 4315 
Q 1253 4750 1959 4750 
Q 2769 4750 3195 4129 
Q 3622 3509 3622 2328 
Q 3622 1225 3098 567 
Q 2575 -91 1691 -91 
Q 1453 -91 1209 -44 
Q 966 3 703 97 
z
M 1959 2075 
Q 2384 2075 2632 2365 
Q 2881 2656 2881 3163 
Q 2881 3666 2632 3958 
Q 2384 4250 1959 4250 
Q 1534 4250 1286 3958 
Q 1038 3666 1038 3163 
Q 1038 2656 1286 2365 
Q 1534 2075 1959 2075 
z
" transform="scale(0.015625)"/>
       </defs>
       <use xlink:href="#DejaVuSans-31"/>
       <use xlink:href="#DejaVuSans-2e" transform="translate(63.623047 0)"/>
       <use xlink:href="#DejaVuSans-39" transform="translate(95.410156 0)"/>
       <use xlink:href="#DejaVuSans-30" transform="translate(159.033203 0)"/>
      </g>
     </g>
    </g>
    <g id="ytick_3">
     <g id="line2d_12">
      <g>
       <use xlink:href="#m434faf2b8a" x="72" y="275.429486" style="stroke: #000000; stroke-width: 0.8"/>
      </g>
     </g>
     <g id="text_12">
      <!-- 1.92 -->
      <g transform="translate(42.734375 279.228705) scale(0.1 -0.1)">
       <use xlink:href="#DejaVuSans-31"/>
       <use xlink:href="#DejaVuSans-2e" transform="translate(63.623047 0)"/>
       <use xlink:href="#DejaVuSans-39" transform="translate(95.410156 0)"/>
       <use xlink:href="#DejaVuSans-32" transform="translate(159.033203 0)"/>
      </g>
     </g>
    </g>
    <g id="ytick_4">
     <g id="line2d_13">
      <g>
       <use xlink:href="#m434faf2b8a" x="72" y="235.047136" style="stroke: #000000; stroke-width: 0.8"/>
      </g>
     </g>
     <g id="text_13">
      <!-- 1.94 -->
      <g transform="translate(42.734375 238.846355) scale(0.1 -0.1)">
       <use xlink:href="#DejaVuSans-31"/>
       <use xlink:href="#DejaVuSans-2e" transform="translate(63.623047 0)"/>
       <use xlink:href="#DejaVuSans-39" transform="translate(95.410156 0)"/>
       <use xlink:href="#DejaVuSans-34" transform="translate(159.033203 0)"/>
      </g>
     </g>
    </g>
    <g id="ytick_5">
     <g id="line2d_14">
      <g>
       <use xlink:href="#m434faf2b8a" x="72" y="194.664786" style="stroke: #000000; stroke-width: 0.8"/>
      </g>
     </g>
     <g id="text_14">
      <!-- 1.96 -->
      <g transform="translate(42.734375 198.464005) scale(0.1 -0.1)">
       <defs>
        <path id="DejaVuSans-36" d="M 2113 2584 
Q 1688 2584 1439 2293 
Q 1191 2003 1191 1497 
Q 1191 994 1439 701 
Q 1688 409 2113 409 
Q 2538 409 2786 701 
Q 3034 994 3034 1497 
Q 3034 2003 2786 2293 
Q 2538 2584 2113 2584 
z
M 3366 4563 
L 3366 3988 
Q 3128 4100 2886 4159 
Q 2644 4219 2406 4219 
Q 1781 4219 1451 3797 
Q 1122 3375 1075 2522 
Q 1259 2794 1537 2939 
Q 1816 3084 2150 3084 
Q 2853 3084 3261 2657 
Q 3669 2231 3669 1497 
Q 3669 778 3244 343 
Q 2819 -91 2113 -91 
Q 1303 -91 875 529 
Q 447 1150 447 2328 
Q 447 3434 972 4092 
Q 1497 4750 2381 4750 
Q 2619 4750 2861 4703 
Q 3103 4656 3366 4563 
z
" transform="scale(0.015625)"/>
       </defs>
       <use xlink:href="#DejaVuSans-31"/>
       <use xlink:href="#DejaVuSans-2e" transform="translate(63.623047 0)"/>
       <use xlink:href="#DejaVuSans-39" transform="translate(95.410156 0)"/>
       <use xlink:href="#DejaVuSans-36" transform="translate(159.033203 0)"/>
      </g>
     </g>
    </g>
    <g id="ytick_6">
     <g id="line2d_15">
      <g>
       <use xlink:href="#m434faf2b8a" x="72" y="154.282436" style="stroke: #000000; stroke-width: 0.8"/>
      </g>
     </g>
     <g id="text_15">
      <!-- 1.98 -->
      <g transform="translate(42.734375 158.081655) scale(0.1 -0.1)">
       <use xlink:href="#DejaVuSans-31"/>
       <use xlink:href="#DejaVuSans-2e" transform="translate(63.623047 0)"/>
       <use xlink:href="#DejaVuSans-39" transform="translate(95.410156 0)"/>
       <use xlink:href="#DejaVuSans-38" transform="translate(159.033203 0)"/>
      </g>
     </g>
    </g>
    <g id="ytick_7">
     <g id="line2d_16">
      <g>
       <use xlink:href="#m434faf2b8a" x="72" y="113.900086" style="stroke: #000000; stroke-width: 0.8"/>
      </g>
     </g>
     <g id="text_16">
      <!-- 2.00 -->
      <g transform="translate(42.734375 117.699305) scale(0.1 -0.1)">
       <use xlink:href="#DejaVuSans-32"/>
       <use xlink:href="#DejaVuSans-2e" transform="translate(63.623047 0)"/>
       <use xlink:href="#DejaVuSans-30" transform="translate(95.410156 0)"/>
       <use xlink:href="#DejaVuSans-30" transform="translate(159.033203 0)"/>
      </g>
     </g>
    </g>
    <g id="ytick_8">
     <g id="line2d_17">
      <g>
       <use xlink:href="#m434faf2b8a" x="72" y="73.517736" style="stroke: #000000; stroke-width: 0.8"/>
      </g>
     </g>
     <g id="text_17">
      <!-- 2.02 -->
      <g transform="translate(42.734375 77.316955) scale(0.1 -0.1)">
       <use xlink:href="#DejaVuSans-32"/>
       <use xlink:href="#DejaVuSans-2e" transform="translate(63.623047 0)"/>
       <use xlink:href="#DejaVuSans-30" transform="translate(95.410156 0)"/>
       <use xlink:href="#DejaVuSans-32" transform="translate(159.033203 0)"/>
      </g>
     </g>
    </g>
   </g>
   <g id="line2d_18">
    <path d="M 92.290909 366.597489 
L 93.307997 369.36 
L 94.325085 363.342238 
L 96.359262 337.557868 
L 99.410526 295.73499 
L 100.427614 278.809882 
L 101.444703 263.851739 
L 102.461791 250.760939 
L 103.478879 240.82939 
L 104.495967 227.075665 
L 105.513055 216.191549 
L 106.530144 211.188844 
L 107.547232 198.616318 
L 109.581408 186.85478 
L 110.598496 179.051147 
L 111.615584 174.431968 
L 112.632673 165.764339 
L 113.649761 161.093826 
L 114.666849 157.880457 
L 116.701025 150.687024 
L 117.718113 143.120122 
L 118.735202 138.143198 
L 119.75229 135.895865 
L 120.769378 130.347925 
L 121.786466 128.999805 
L 122.803554 127.184931 
L 123.820643 123.243934 
L 124.837731 116.850722 
L 125.854819 117.87845 
L 126.871907 113.48196 
L 127.888995 107.87026 
L 128.906083 106.320564 
L 129.923172 105.516582 
L 131.957348 103.086046 
L 132.974436 100.295129 
L 133.991524 101.342953 
L 135.008612 96.606009 
L 136.025701 94.15915 
L 137.042789 93.744963 
L 138.059877 92.530888 
L 139.076965 87.390226 
L 140.094053 91.29508 
L 141.111141 88.576267 
L 142.12823 85.196897 
L 143.145318 84.221899 
L 144.162406 86.163078 
L 145.179494 84.440864 
L 146.196582 82.372067 
L 147.213671 84.539122 
L 148.230759 83.674678 
L 149.247847 80.786131 
L 150.264935 79.150121 
L 151.282023 79.57714 
L 152.299111 80.38267 
L 153.3162 77.646714 
L 154.333288 78.066572 
L 155.350376 78.861957 
L 156.367464 79.927499 
L 157.384552 79.815052 
L 158.40164 78.256918 
L 159.418729 79.048648 
L 160.435817 74.001691 
L 161.452905 74.265869 
L 162.469993 74.124116 
L 163.487081 75.008482 
L 164.50417 70.907752 
L 165.521258 70.584735 
L 166.538346 73.006731 
L 167.555434 75.722521 
L 168.572522 76.854953 
L 169.58961 73.913373 
L 170.606699 73.274914 
L 171.623787 73.425376 
L 172.640875 72.891832 
L 173.657963 73.60873 
L 174.675051 76.102627 
L 175.692139 74.033548 
L 176.709228 73.012726 
L 177.726316 72.781595 
L 178.743404 72.387813 
L 179.760492 69.030144 
L 180.77758 67.212897 
L 181.794668 68.655795 
L 182.811757 71.603664 
L 183.828845 71.743909 
L 184.845933 71.163891 
L 185.863021 72.337936 
L 186.880109 72.693362 
L 187.897198 72.867912 
L 188.914286 70.62445 
L 189.931374 70.877706 
L 191.96555 70.533806 
L 192.982638 71.714133 
L 193.999727 72.054793 
L 195.016815 71.477166 
L 196.033903 66.96 
L 197.050991 68.060164 
L 198.068079 70.22284 
L 199.085167 67.595772 
L 200.102256 69.694394 
L 201.119344 72.306878 
L 202.136432 73.275658 
L 203.15352 75.250819 
L 204.170608 74.653715 
L 206.204785 73.786315 
L 207.221873 74.356558 
L 208.238961 74.10377 
L 209.256049 74.154126 
L 210.273137 72.379123 
L 211.290226 73.251187 
L 212.307314 74.702951 
L 213.324402 77.308526 
L 214.34149 75.997518 
L 215.358578 74.071955 
L 216.375666 74.551918 
L 217.392755 76.763386 
L 218.409843 74.575678 
L 219.426931 71.297921 
L 221.461107 71.120681 
L 222.478195 70.50233 
L 223.495284 71.080231 
L 224.512372 71.389843 
L 225.52946 71.852053 
L 226.546548 72.130974 
L 227.563636 74.168001 
L 228.580725 72.615505 
L 229.597813 72.202484 
L 230.614901 72.636115 
L 231.631989 72.830589 
L 232.649077 74.210386 
L 233.666165 76.796285 
L 234.683254 76.363327 
L 235.700342 75.230864 
L 236.71743 77.194299 
L 237.734518 77.842262 
L 238.751606 80.032744 
L 239.768694 79.332006 
L 240.785783 80.010566 
L 241.802871 83.195348 
L 242.819959 79.543348 
L 243.837047 78.705809 
L 244.854135 76.111657 
L 246.888312 79.064763 
L 247.9054 79.641907 
L 248.922488 78.556019 
L 249.939576 78.56221 
L 250.956664 80.230657 
L 251.973753 79.808108 
L 252.990841 78.138841 
L 254.007929 74.483771 
L 255.025017 72.874109 
L 256.042105 72.894443 
L 257.059193 73.430319 
L 258.076282 77.907514 
L 259.09337 75.927729 
L 260.110458 77.379613 
L 262.144634 74.807727 
L 263.161722 74.647112 
L 264.178811 72.355633 
L 265.195899 70.867371 
L 266.212987 71.9032 
L 267.230075 76.688948 
L 268.247163 75.342842 
L 269.264252 78.858365 
L 270.28134 76.188992 
L 271.298428 71.740864 
L 272.315516 69.167958 
L 273.332604 69.07087 
L 274.349692 70.747148 
L 275.366781 69.72079 
L 276.383869 67.277391 
L 278.418045 73.126506 
L 279.435133 73.918682 
L 280.452221 71.902644 
L 281.46931 72.739842 
L 282.486398 74.797932 
L 283.503486 75.869952 
L 284.520574 75.807852 
L 286.554751 70.921391 
L 287.571839 73.972345 
L 288.588927 74.052078 
L 289.606015 70.593795 
L 290.623103 70.720087 
L 291.640191 72.152422 
L 292.65728 71.748523 
L 294.691456 76.854973 
L 295.708544 75.811441 
L 296.725632 72.369806 
L 297.74272 73.236939 
L 298.759809 75.199783 
L 299.776897 76.722781 
L 300.793985 78.841239 
L 301.811073 78.649479 
L 302.828161 82.747969 
L 303.845249 82.345303 
L 304.862338 78.555341 
L 305.879426 75.961018 
L 306.896514 77.846693 
L 307.913602 75.17806 
L 308.93069 71.797319 
L 309.947779 74.347779 
L 310.964867 72.010529 
L 311.981955 75.038353 
L 312.999043 74.926796 
L 314.016131 74.468892 
L 315.033219 75.710284 
L 316.050308 80.240446 
L 317.067396 79.768982 
L 318.084484 78.13685 
L 319.101572 82.246202 
L 320.11866 80.042877 
L 321.135748 80.140603 
L 322.152837 77.839183 
L 323.169925 76.148163 
L 324.187013 77.133049 
L 325.204101 79.220099 
L 326.221189 76.43347 
L 328.255366 69.810277 
L 329.272454 71.884628 
L 330.289542 70.250617 
L 331.30663 69.652367 
L 333.340807 70.57426 
L 334.357895 71.733193 
L 335.374983 68.777328 
L 336.392071 70.003755 
L 337.409159 70.875505 
L 338.426247 70.619301 
L 339.443336 69.296835 
L 340.460424 71.075624 
L 341.477512 70.52395 
L 342.4946 74.069527 
L 343.511688 74.840104 
L 344.528776 74.270222 
L 345.545865 73.917234 
L 346.562953 74.157582 
L 347.580041 76.404036 
L 348.597129 74.866531 
L 349.614217 74.06815 
L 351.648394 76.21226 
L 352.665482 73.281138 
L 355.716746 73.506629 
L 356.733835 77.629618 
L 357.750923 79.183759 
L 358.768011 76.684229 
L 359.785099 77.579287 
L 360.802187 79.746765 
L 361.819275 79.139144 
L 362.836364 79.293042 
L 363.853452 77.980283 
L 364.87054 76.158784 
L 365.887628 77.906909 
L 366.904716 74.559438 
L 367.921805 71.908178 
L 368.938893 71.003897 
L 369.955981 72.325662 
L 370.973069 71.423471 
L 371.990157 71.841384 
L 373.007245 70.864901 
L 374.024334 72.350027 
L 375.041422 70.582076 
L 376.05851 71.619581 
L 377.075598 75.542346 
L 378.092686 76.624816 
L 379.109774 77.337631 
L 380.126863 76.011914 
L 381.143951 77.50307 
L 382.161039 78.360618 
L 383.178127 79.640034 
L 384.195215 79.802823 
L 385.212303 78.924077 
L 386.229392 77.339803 
L 387.24648 78.71328 
L 388.263568 81.005918 
L 389.280656 78.322588 
L 390.297744 78.837435 
L 391.314833 77.755247 
L 392.331921 77.496577 
L 393.349009 75.600293 
L 394.366097 76.670871 
L 395.383185 75.75631 
L 396.400273 77.905181 
L 397.417362 77.934246 
L 399.451538 72.938267 
L 400.468626 72.614803 
L 401.485714 71.902252 
L 402.502802 72.792897 
L 403.519891 74.2347 
L 404.536979 73.313464 
L 405.554067 76.0658 
L 406.571155 77.129165 
L 407.588243 76.764654 
L 408.605332 78.778952 
L 409.62242 76.343826 
L 410.639508 78.82235 
L 411.656596 80.226763 
L 412.673684 78.977461 
L 413.690772 75.105341 
L 414.707861 77.411787 
L 415.724949 75.21023 
L 416.742037 74.283205 
L 417.759125 75.49092 
L 418.776213 72.681172 
L 419.793301 72.662219 
L 421.827478 71.005069 
L 422.844566 73.547793 
L 423.861654 72.803829 
L 424.878742 71.270007 
L 425.89583 71.634349 
L 426.912919 70.865401 
L 427.930007 73.361934 
L 428.947095 74.483719 
L 429.964183 73.807777 
L 430.981271 72.375283 
L 431.99836 73.283852 
L 433.015448 69.76114 
L 434.032536 73.680753 
L 435.049624 72.1245 
L 436.066712 73.381104 
L 437.0838 72.528874 
L 438.100889 73.780479 
L 439.117977 72.662837 
L 440.135065 77.246807 
L 441.152153 75.971851 
L 442.169241 73.589589 
L 443.186329 69.973955 
L 444.203418 73.421803 
L 445.220506 73.21004 
L 446.237594 71.932387 
L 447.254682 72.550825 
L 448.27177 74.209481 
L 449.288859 71.916032 
L 450.305947 72.982385 
L 451.323035 72.633353 
L 452.340123 71.174518 
L 453.357211 68.202823 
L 454.374299 68.570655 
L 455.391388 69.514082 
L 456.408476 70.802164 
L 457.425564 69.507655 
L 458.442652 70.33346 
L 459.45974 71.532516 
L 460.476828 69.651278 
L 462.511005 75.875546 
L 463.528093 76.932423 
L 464.545181 75.453235 
L 465.562269 77.316504 
L 466.579357 76.690714 
L 467.596446 76.814944 
L 468.613534 71.200491 
L 469.630622 75.304963 
L 470.64771 71.062986 
L 471.664798 74.542762 
L 472.681887 71.487927 
L 474.716063 68.283415 
L 475.733151 71.880603 
L 476.750239 73.448018 
L 477.767327 74.370399 
L 478.784416 73.791357 
L 479.801504 74.794773 
L 480.818592 73.971154 
L 481.83568 71.790364 
L 482.852768 71.525896 
L 483.869856 72.438169 
L 484.886945 71.077621 
L 485.904033 71.975838 
L 486.921121 70.751657 
L 487.938209 73.181341 
L 488.955297 74.562432 
L 489.972386 74.753163 
L 490.989474 75.760227 
L 492.006562 75.130469 
L 493.02365 75.689889 
L 494.040738 75.219839 
L 495.057826 77.719244 
L 497.092003 81.942906 
L 498.109091 80.799922 
L 498.109091 80.799922 
" clip-path="url(#p4c8a0eae27)" style="fill: none; stroke: #1f77b4; stroke-width: 1.5; stroke-linecap: square"/>
   </g>
   <g id="patch_3">
    <path d="M 72 384.48 
L 72 51.84 
" style="fill: none; stroke: #000000; stroke-width: 0.8; stroke-linejoin: miter; stroke-linecap: square"/>
   </g>
   <g id="patch_4">
    <path d="M 518.4 384.48 
L 518.4 51.84 
" style="fill: none; stroke: #000000; stroke-width: 0.8; stroke-linejoin: miter; stroke-linecap: square"/>
   </g>
   <g id="patch_5">
    <path d="M 72 384.48 
L 518.4 384.48 
" style="fill: none; stroke: #000000; stroke-width: 0.8; stroke-linejoin: miter; stroke-linecap: square"/>
   </g>
   <g id="patch_6">
    <path d="M 72 51.84 
L 518.4 51.84 
" style="fill: none; stroke: #000000; stroke-width: 0.8; stroke-linejoin: miter; stroke-linecap: square"/>
   </g>
  </g>
 </g>
 <defs>
  <clipPath id="p4c8a0eae27">
   <rect x="72" y="51.84" width="446.4" height="332.64"/>
  </clipPath>
 </defs>
</svg>
