<?xml version="1.0" encoding="utf-8" standalone="no"?>
<!DOCTYPE svg PUBLIC "-//W3C//DTD SVG 1.1//EN"
  "http://www.w3.org/Graphics/SVG/1.1/DTD/svg11.dtd">
<svg xmlns:xlink="http://www.w3.org/1999/xlink" width="936pt" height="288pt" viewBox="0 0 936 288" xmlns="http://www.w3.org/2000/svg" version="1.1">
 <metadata>
  <rdf:RDF xmlns:dc="http://purl.org/dc/elements/1.1/" xmlns:cc="http://creativecommons.org/ns#" xmlns:rdf="http://www.w3.org/1999/02/22-rdf-syntax-ns#">
   <cc:Work>
    <dc:type rdf:resource="http://purl.org/dc/dcmitype/StillImage"/>
    <dc:format>image/svg+xml</dc:format>
    <dc:creator>
     <cc:Agent>
      <dc:title>Matplotlib v3.10.6, https://matplotlib.org/</dc:title>
     </cc:Agent>
    </dc:creator>
   </cc:Work>
  </rdf:RDF>
 </metadata>
 <defs>
  <style type="text/css">*{stroke-linejoin: round; stroke-linecap: butt}</style>
 </defs>
 <g id="figure_1">
  <g id="patch_1">
   <path d="M 0 288 
L 936 288 
L 936 0 
L 0 0 
z
" style="fill: #ffffff"/>
  </g>
  <g id="axes_1">
   <g id="patch_2">
    <path d="M 117 256.32 
L 842.4 256.32 
L 842.4 34.56 
L 117 34.56 
z
" style="fill: #ffffff"/>
   </g>
   <g id="FillBetweenPolyCollection_1">
    <path d="M 289.355303 44.64 
L 289.355303 246.24 
L 294.756818 246.24 
L 294.756818 44.64 
L 294.756818 44.64 
L 289.355303 44.64 
z
" clip-path="url(#pfb296045c3)" style="fill-opacity: 0.1"/>
    <path d="M 514.516288 44.64 
L 514.516288 246.24 
L 519.859091 246.24 
L 525.260606 246.24 
L 525.260606 44.64 
L 525.260606 44.64 
L 519.859091 44.64 
L 514.516288 44.64 
z
" clip-path="url(#pfb296045c3)" style="fill-opacity: 0.1"/>
    <path d="M 659.300379 44.64 
L 659.300379 246.24 
L 664.643182 246.24 
L 669.985985 246.24 
L 675.3875 246.24 
L 680.789015 246.24 
L 686.073106 246.24 
L 686.073106 44.64 
L 686.073106 44.64 
L 680.789015 44.64 
L 675.3875 44.64 
L 669.985985 44.64 
L 664.643182 44.64 
L 659.300379 44.64 
z
" clip-path="url(#pfb296045c3)" style="fill-opacity: 0.1"/>
   </g>
   <g id="matplotlib.axis_1">
    <g id="xtick_1">
     <g id="line2d_1">
      <path d="M 144.629924 256.32 
L 144.629924 34.56 
" clip-path="url(#pfb296045c3)" style="fill: none; stroke: #b0b0b0; stroke-width: 0.8; stroke-linecap: square"/>
     </g>
     <g id="line2d_2">
      <defs>
       <path id="m52aa3ba792" d="M 0 0 
L 0 3.5 
" style="stroke: #000000; stroke-width: 0.8"/>
      </defs>
      <g>
       <use xlink:href="#m52aa3ba792" x="144.629924" y="256.32" style="stroke: #000000; stroke-width: 0.8"/>
      </g>
     </g>
     <g id="text_1">
      <!-- 1984 -->
      <g transform="translate(131.904924 270.918437) scale(0.1 -0.1)">
       <defs>
        <path id="DejaVuSans-31" d="M 794 531 
L 1825 531 
L 1825 4091 
L 703 3866 
L 703 4441 
L 1819 4666 
L 2450 4666 
L 2450 531 
L 3481 531 
L 3481 0 
L 794 0 
L 794 531 
z
" transform="scale(0.015625)"/>
        <path id="DejaVuSans-39" d="M 703 97 
L 703 672 
Q 941 559 1184 500 
Q 1428 441 1663 441 
Q 2288 441 2617 861 
Q 2947 1281 2994 2138 
Q 2813 1869 2534 1725 
Q 2256 1581 1919 1581 
Q 1219 1581 811 2004 
Q 403 2428 403 3163 
Q 403 3881 828 4315 
Q 1253 4750 1959 4750 
Q 2769 4750 3195 4129 
Q 3622 3509 3622 2328 
Q 3622 1225 3098 567 
Q 2575 -91 1691 -91 
Q 1453 -91 1209 -44 
Q 966 3 703 97 
z
M 1959 2075 
Q 2384 2075 2632 2365 
Q 2881 2656 2881 3163 
Q 2881 3666 2632 3958 
Q 2384 4250 1959 4250 
Q 1534 4250 1286 3958 
Q 1038 3666 1038 3163 
Q 1038 2656 1286 2365 
Q 1534 2075 1959 2075 
z
" transform="scale(0.015625)"/>
        <path id="DejaVuSans-38" d="M 2034 2216 
Q 1584 2216 1326 1975 
Q 1069 1734 1069 1313 
Q 1069 891 1326 650 
Q 1584 409 2034 409 
Q 2484 409 2743 651 
Q 3003 894 3003 1313 
Q 3003 1734 2745 1975 
Q 2488 2216 2034 2216 
z
M 1403 2484 
Q 997 2584 770 2862 
Q 544 3141 544 3541 
Q 544 4100 942 4425 
Q 1341 4750 2034 4750 
Q 2731 4750 3128 4425 
Q 3525 4100 3525 3541 
Q 3525 3141 3298 2862 
Q 3072 2584 2669 2484 
Q 3125 2378 3379 2068 
Q 3634 1759 3634 1313 
Q 3634 634 3220 271 
Q 2806 -91 2034 -91 
Q 1263 -91 848 271 
Q 434 634 434 1313 
Q 434 1759 690 2068 
Q 947 2378 1403 2484 
z
M 1172 3481 
Q 1172 3119 1398 2916 
Q 1625 2713 2034 2713 
Q 2441 2713 2670 2916 
Q 2900 3119 2900 3481 
Q 2900 3844 2670 4047 
Q 2441 4250 2034 4250 
Q 1625 4250 1398 4047 
Q 1172 3844 1172 3481 
z
" transform="scale(0.015625)"/>
        <path id="DejaVuSans-34" d="M 2419 4116 
L 825 1625 
L 2419 1625 
L 2419 4116 
z
M 2253 4666 
L 3047 4666 
L 3047 1625 
L 3713 1625 
L 3713 1100 
L 3047 1100 
L 3047 0 
L 2419 0 
L 2419 1100 
L 313 1100 
L 313 1709 
L 2253 4666 
z
" transform="scale(0.015625)"/>
       </defs>
       <use xlink:href="#DejaVuSans-31"/>
       <use xlink:href="#DejaVuSans-39" transform="translate(63.623047 0)"/>
       <use xlink:href="#DejaVuSans-38" transform="translate(127.246094 0)"/>
       <use xlink:href="#DejaVuSans-34" transform="translate(190.869141 0)"/>
      </g>
     </g>
    </g>
    <g id="xtick_2">
     <g id="line2d_3">
      <path d="M 230.408333 256.32 
L 230.408333 34.56 
" clip-path="url(#pfb296045c3)" style="fill: none; stroke: #b0b0b0; stroke-width: 0.8; stroke-linecap: square"/>
     </g>
     <g id="line2d_4">
      <g>
       <use xlink:href="#m52aa3ba792" x="230.408333" y="256.32" style="stroke: #000000; stroke-width: 0.8"/>
      </g>
     </g>
     <g id="text_2">
      <!-- 1988 -->
      <g transform="translate(217.683333 270.918437) scale(0.1 -0.1)">
       <use xlink:href="#DejaVuSans-31"/>
       <use xlink:href="#DejaVuSans-39" transform="translate(63.623047 0)"/>
       <use xlink:href="#DejaVuSans-38" transform="translate(127.246094 0)"/>
       <use xlink:href="#DejaVuSans-38" transform="translate(190.869141 0)"/>
      </g>
     </g>
    </g>
    <g id="xtick_3">
     <g id="line2d_5">
      <path d="M 316.186742 256.32 
L 316.186742 34.56 
" clip-path="url(#pfb296045c3)" style="fill: none; stroke: #b0b0b0; stroke-width: 0.8; stroke-linecap: square"/>
     </g>
     <g id="line2d_6">
      <g>
       <use xlink:href="#m52aa3ba792" x="316.186742" y="256.32" style="stroke: #000000; stroke-width: 0.8"/>
      </g>
     </g>
     <g id="text_3">
      <!-- 1992 -->
      <g transform="translate(303.461742 270.918437) scale(0.1 -0.1)">
       <defs>
        <path id="DejaVuSans-32" d="M 1228 531 
L 3431 531 
L 3431 0 
L 469 0 
L 469 531 
Q 828 903 1448 1529 
Q 2069 2156 2228 2338 
Q 2531 2678 2651 2914 
Q 2772 3150 2772 3378 
Q 2772 3750 2511 3984 
Q 2250 4219 1831 4219 
Q 1534 4219 1204 4116 
Q 875 4013 500 3803 
L 500 4441 
Q 881 4594 1212 4672 
Q 1544 4750 1819 4750 
Q 2544 4750 2975 4387 
Q 3406 4025 3406 3419 
Q 3406 3131 3298 2873 
Q 3191 2616 2906 2266 
Q 2828 2175 2409 1742 
Q 1991 1309 1228 531 
z
" transform="scale(0.015625)"/>
       </defs>
       <use xlink:href="#DejaVuSans-31"/>
       <use xlink:href="#DejaVuSans-39" transform="translate(63.623047 0)"/>
       <use xlink:href="#DejaVuSans-39" transform="translate(127.246094 0)"/>
       <use xlink:href="#DejaVuSans-32" transform="translate(190.869141 0)"/>
      </g>
     </g>
    </g>
    <g id="xtick_4">
     <g id="line2d_7">
      <path d="M 401.965152 256.32 
L 401.965152 34.56 
" clip-path="url(#pfb296045c3)" style="fill: none; stroke: #b0b0b0; stroke-width: 0.8; stroke-linecap: square"/>
     </g>
     <g id="line2d_8">
      <g>
       <use xlink:href="#m52aa3ba792" x="401.965152" y="256.32" style="stroke: #000000; stroke-width: 0.8"/>
      </g>
     </g>
     <g id="text_4">
      <!-- 1996 -->
      <g transform="translate(389.240152 270.918437) scale(0.1 -0.1)">
       <defs>
        <path id="DejaVuSans-36" d="M 2113 2584 
Q 1688 2584 1439 2293 
Q 1191 2003 1191 1497 
Q 1191 994 1439 701 
Q 1688 409 2113 409 
Q 2538 409 2786 701 
Q 3034 994 3034 1497 
Q 3034 2003 2786 2293 
Q 2538 2584 2113 2584 
z
M 3366 4563 
L 3366 3988 
Q 3128 4100 2886 4159 
Q 2644 4219 2406 4219 
Q 1781 4219 1451 3797 
Q 1122 3375 1075 2522 
Q 1259 2794 1537 2939 
Q 1816 3084 2150 3084 
Q 2853 3084 3261 2657 
Q 3669 2231 3669 1497 
Q 3669 778 3244 343 
Q 2819 -91 2113 -91 
Q 1303 -91 875 529 
Q 447 1150 447 2328 
Q 447 3434 972 4092 
Q 1497 4750 2381 4750 
Q 2619 4750 2861 4703 
Q 3103 4656 3366 4563 
z
" transform="scale(0.015625)"/>
       </defs>
       <use xlink:href="#DejaVuSans-31"/>
       <use xlink:href="#DejaVuSans-39" transform="translate(63.623047 0)"/>
       <use xlink:href="#DejaVuSans-39" transform="translate(127.246094 0)"/>
       <use xlink:href="#DejaVuSans-36" transform="translate(190.869141 0)"/>
      </g>
     </g>
    </g>
    <g id="xtick_5">
     <g id="line2d_9">
      <path d="M 487.743561 256.32 
L 487.743561 34.56 
" clip-path="url(#pfb296045c3)" style="fill: none; stroke: #b0b0b0; stroke-width: 0.8; stroke-linecap: square"/>
     </g>
     <g id="line2d_10">
      <g>
       <use xlink:href="#m52aa3ba792" x="487.743561" y="256.32" style="stroke: #000000; stroke-width: 0.8"/>
      </g>
     </g>
     <g id="text_5">
      <!-- 2000 -->
      <g transform="translate(475.018561 270.918437) scale(0.1 -0.1)">
       <defs>
        <path id="DejaVuSans-30" d="M 2034 4250 
Q 1547 4250 1301 3770 
Q 1056 3291 1056 2328 
Q 1056 1369 1301 889 
Q 1547 409 2034 409 
Q 2525 409 2770 889 
Q 3016 1369 3016 2328 
Q 3016 3291 2770 3770 
Q 2525 4250 2034 4250 
z
M 2034 4750 
Q 2819 4750 3233 4129 
Q 3647 3509 3647 2328 
Q 3647 1150 3233 529 
Q 2819 -91 2034 -91 
Q 1250 -91 836 529 
Q 422 1150 422 2328 
Q 422 3509 836 4129 
Q 1250 4750 2034 4750 
z
" transform="scale(0.015625)"/>
       </defs>
       <use xlink:href="#DejaVuSans-32"/>
       <use xlink:href="#DejaVuSans-30" transform="translate(63.623047 0)"/>
       <use xlink:href="#DejaVuSans-30" transform="translate(127.246094 0)"/>
       <use xlink:href="#DejaVuSans-30" transform="translate(190.869141 0)"/>
      </g>
     </g>
    </g>
    <g id="xtick_6">
     <g id="line2d_11">
      <path d="M 573.52197 256.32 
L 573.52197 34.56 
" clip-path="url(#pfb296045c3)" style="fill: none; stroke: #b0b0b0; stroke-width: 0.8; stroke-linecap: square"/>
     </g>
     <g id="line2d_12">
      <g>
       <use xlink:href="#m52aa3ba792" x="573.52197" y="256.32" style="stroke: #000000; stroke-width: 0.8"/>
      </g>
     </g>
     <g id="text_6">
      <!-- 2004 -->
      <g transform="translate(560.79697 270.918437) scale(0.1 -0.1)">
       <use xlink:href="#DejaVuSans-32"/>
       <use xlink:href="#DejaVuSans-30" transform="translate(63.623047 0)"/>
       <use xlink:href="#DejaVuSans-30" transform="translate(127.246094 0)"/>
       <use xlink:href="#DejaVuSans-34" transform="translate(190.869141 0)"/>
      </g>
     </g>
    </g>
    <g id="xtick_7">
     <g id="line2d_13">
      <path d="M 659.300379 256.32 
L 659.300379 34.56 
" clip-path="url(#pfb296045c3)" style="fill: none; stroke: #b0b0b0; stroke-width: 0.8; stroke-linecap: square"/>
     </g>
     <g id="line2d_14">
      <g>
       <use xlink:href="#m52aa3ba792" x="659.300379" y="256.32" style="stroke: #000000; stroke-width: 0.8"/>
      </g>
     </g>
     <g id="text_7">
      <!-- 2008 -->
      <g transform="translate(646.575379 270.918437) scale(0.1 -0.1)">
       <use xlink:href="#DejaVuSans-32"/>
       <use xlink:href="#DejaVuSans-30" transform="translate(63.623047 0)"/>
       <use xlink:href="#DejaVuSans-30" transform="translate(127.246094 0)"/>
       <use xlink:href="#DejaVuSans-38" transform="translate(190.869141 0)"/>
      </g>
     </g>
    </g>
    <g id="xtick_8">
     <g id="line2d_15">
      <path d="M 745.078788 256.32 
L 745.078788 34.56 
" clip-path="url(#pfb296045c3)" style="fill: none; stroke: #b0b0b0; stroke-width: 0.8; stroke-linecap: square"/>
     </g>
     <g id="line2d_16">
      <g>
       <use xlink:href="#m52aa3ba792" x="745.078788" y="256.32" style="stroke: #000000; stroke-width: 0.8"/>
      </g>
     </g>
     <g id="text_8">
      <!-- 2012 -->
      <g transform="translate(732.353788 270.918437) scale(0.1 -0.1)">
       <use xlink:href="#DejaVuSans-32"/>
       <use xlink:href="#DejaVuSans-30" transform="translate(63.623047 0)"/>
       <use xlink:href="#DejaVuSans-31" transform="translate(127.246094 0)"/>
       <use xlink:href="#DejaVuSans-32" transform="translate(190.869141 0)"/>
      </g>
     </g>
    </g>
    <g id="xtick_9">
     <g id="line2d_17">
      <path d="M 830.857197 256.32 
L 830.857197 34.56 
" clip-path="url(#pfb296045c3)" style="fill: none; stroke: #b0b0b0; stroke-width: 0.8; stroke-linecap: square"/>
     </g>
     <g id="line2d_18">
      <g>
       <use xlink:href="#m52aa3ba792" x="830.857197" y="256.32" style="stroke: #000000; stroke-width: 0.8"/>
      </g>
     </g>
     <g id="text_9">
      <!-- 2016 -->
      <g transform="translate(818.132197 270.918437) scale(0.1 -0.1)">
       <use xlink:href="#DejaVuSans-32"/>
       <use xlink:href="#DejaVuSans-30" transform="translate(63.623047 0)"/>
       <use xlink:href="#DejaVuSans-31" transform="translate(127.246094 0)"/>
       <use xlink:href="#DejaVuSans-36" transform="translate(190.869141 0)"/>
      </g>
     </g>
    </g>
   </g>
   <g id="matplotlib.axis_2">
    <g id="ytick_1">
     <g id="line2d_19">
      <defs>
       <path id="m6f47f576ad" d="M 0 0 
L -3.5 0 
" style="stroke: #000000; stroke-width: 0.8"/>
      </defs>
      <g>
       <use xlink:href="#m6f47f576ad" x="117" y="241.465727" style="stroke: #000000; stroke-width: 0.8"/>
      </g>
     </g>
     <g id="text_10">
      <!-- −0.03 -->
      <g transform="translate(79.354687 245.264946) scale(0.1 -0.1)">
       <defs>
        <path id="DejaVuSans-2212" d="M 678 2272 
L 4684 2272 
L 4684 1741 
L 678 1741 
L 678 2272 
z
" transform="scale(0.015625)"/>
        <path id="DejaVuSans-2e" d="M 684 794 
L 1344 794 
L 1344 0 
L 684 0 
L 684 794 
z
" transform="scale(0.015625)"/>
        <path id="DejaVuSans-33" d="M 2597 2516 
Q 3050 2419 3304 2112 
Q 3559 1806 3559 1356 
Q 3559 666 3084 287 
Q 2609 -91 1734 -91 
Q 1441 -91 1130 -33 
Q 819 25 488 141 
L 488 750 
Q 750 597 1062 519 
Q 1375 441 1716 441 
Q 2309 441 2620 675 
Q 2931 909 2931 1356 
Q 2931 1769 2642 2001 
Q 2353 2234 1838 2234 
L 1294 2234 
L 1294 2753 
L 1863 2753 
Q 2328 2753 2575 2939 
Q 2822 3125 2822 3475 
Q 2822 3834 2567 4026 
Q 2313 4219 1838 4219 
Q 1578 4219 1281 4162 
Q 984 4106 628 3988 
L 628 4550 
Q 988 4650 1302 4700 
Q 1616 4750 1894 4750 
Q 2613 4750 3031 4423 
Q 3450 4097 3450 3541 
Q 3450 3153 3228 2886 
Q 3006 2619 2597 2516 
z
" transform="scale(0.015625)"/>
       </defs>
       <use xlink:href="#DejaVuSans-2212"/>
       <use xlink:href="#DejaVuSans-30" transform="translate(83.789062 0)"/>
       <use xlink:href="#DejaVuSans-2e" transform="translate(147.412109 0)"/>
       <use xlink:href="#DejaVuSans-30" transform="translate(179.199219 0)"/>
       <use xlink:href="#DejaVuSans-33" transform="translate(242.822266 0)"/>
      </g>
     </g>
    </g>
    <g id="ytick_2">
     <g id="line2d_20">
      <g>
       <use xlink:href="#m6f47f576ad" x="117" y="200.961335" style="stroke: #000000; stroke-width: 0.8"/>
      </g>
     </g>
     <g id="text_11">
      <!-- −0.02 -->
      <g transform="translate(79.354687 204.760554) scale(0.1 -0.1)">
       <use xlink:href="#DejaVuSans-2212"/>
       <use xlink:href="#DejaVuSans-30" transform="translate(83.789062 0)"/>
       <use xlink:href="#DejaVuSans-2e" transform="translate(147.412109 0)"/>
       <use xlink:href="#DejaVuSans-30" transform="translate(179.199219 0)"/>
       <use xlink:href="#DejaVuSans-32" transform="translate(242.822266 0)"/>
      </g>
     </g>
    </g>
    <g id="ytick_3">
     <g id="line2d_21">
      <g>
       <use xlink:href="#m6f47f576ad" x="117" y="160.456943" style="stroke: #000000; stroke-width: 0.8"/>
      </g>
     </g>
     <g id="text_12">
      <!-- −0.01 -->
      <g transform="translate(79.354687 164.256162) scale(0.1 -0.1)">
       <use xlink:href="#DejaVuSans-2212"/>
       <use xlink:href="#DejaVuSans-30" transform="translate(83.789062 0)"/>
       <use xlink:href="#DejaVuSans-2e" transform="translate(147.412109 0)"/>
       <use xlink:href="#DejaVuSans-30" transform="translate(179.199219 0)"/>
       <use xlink:href="#DejaVuSans-31" transform="translate(242.822266 0)"/>
      </g>
     </g>
    </g>
    <g id="ytick_4">
     <g id="line2d_22">
      <g>
       <use xlink:href="#m6f47f576ad" x="117" y="119.952551" style="stroke: #000000; stroke-width: 0.8"/>
      </g>
     </g>
     <g id="text_13">
      <!-- 0.00 -->
      <g transform="translate(87.734375 123.751769) scale(0.1 -0.1)">
       <use xlink:href="#DejaVuSans-30"/>
       <use xlink:href="#DejaVuSans-2e" transform="translate(63.623047 0)"/>
       <use xlink:href="#DejaVuSans-30" transform="translate(95.410156 0)"/>
       <use xlink:href="#DejaVuSans-30" transform="translate(159.033203 0)"/>
      </g>
     </g>
    </g>
    <g id="ytick_5">
     <g id="line2d_23">
      <g>
       <use xlink:href="#m6f47f576ad" x="117" y="79.448158" style="stroke: #000000; stroke-width: 0.8"/>
      </g>
     </g>
     <g id="text_14">
      <!-- 0.01 -->
      <g transform="translate(87.734375 83.247377) scale(0.1 -0.1)">
       <use xlink:href="#DejaVuSans-30"/>
       <use xlink:href="#DejaVuSans-2e" transform="translate(63.623047 0)"/>
       <use xlink:href="#DejaVuSans-30" transform="translate(95.410156 0)"/>
       <use xlink:href="#DejaVuSans-31" transform="translate(159.033203 0)"/>
      </g>
     </g>
    </g>
    <g id="ytick_6">
     <g id="line2d_24">
      <g>
       <use xlink:href="#m6f47f576ad" x="117" y="38.943766" style="stroke: #000000; stroke-width: 0.8"/>
      </g>
     </g>
     <g id="text_15">
      <!-- 0.02 -->
      <g transform="translate(87.734375 42.742985) scale(0.1 -0.1)">
       <use xlink:href="#DejaVuSans-30"/>
       <use xlink:href="#DejaVuSans-2e" transform="translate(63.623047 0)"/>
       <use xlink:href="#DejaVuSans-30" transform="translate(95.410156 0)"/>
       <use xlink:href="#DejaVuSans-32" transform="translate(159.033203 0)"/>
      </g>
     </g>
    </g>
   </g>
   <g id="line2d_25">
    <path d="M 149.972727 62.32907 
L 155.31553 91.441546 
L 160.717045 92.110467 
L 166.118561 84.342477 
L 171.402652 86.22792 
L 176.745455 67.582461 
L 182.14697 100.342975 
L 187.548485 106.953272 
L 192.832576 98.259934 
L 198.175379 81.873524 
L 203.576894 106.3901 
L 208.978409 112.882058 
L 214.2625 81.909184 
L 219.605303 89.711647 
L 225.006818 80.780802 
L 230.408333 91.970936 
L 235.751136 88.230704 
L 241.093939 94.482639 
L 246.495455 77.490615 
L 251.89697 90.938178 
L 257.181061 115.042584 
L 262.523864 98.094571 
L 267.925379 114.155558 
L 273.326894 114.750641 
L 278.610985 115.706174 
L 283.953788 123.094463 
L 289.355303 187.143017 
L 294.756818 154.624511 
L 300.040909 97.841438 
L 305.383712 100.701263 
L 310.785227 115.720794 
L 316.186742 75.508585 
L 321.529545 74.993128 
L 326.872348 87.52814 
L 332.273864 73.097082 
L 337.675379 103.405038 
L 342.95947 92.236318 
L 348.302273 91.26224 
L 353.703788 72.112739 
L 359.105303 66.056194 
L 364.389394 71.317887 
L 369.732197 111.069826 
L 375.133712 67.549818 
L 380.535227 107.704217 
L 385.819318 109.621836 
L 391.162121 99.708805 
L 396.563636 92.308307 
L 401.965152 87.754796 
L 407.307955 64.886762 
L 412.650758 85.836251 
L 418.052273 102.694568 
L 423.453788 84.631207 
L 428.737879 84.118734 
L 434.080682 58.748589 
L 439.482197 83.200414 
L 444.883712 67.113207 
L 450.167803 78.349315 
L 455.510606 69.330474 
L 460.912121 62.025678 
L 466.313636 79.14582 
L 471.597727 81.974146 
L 476.94053 77.249369 
L 482.342045 61.295474 
L 487.743561 127.332091 
L 493.086364 55.99159 
L 498.429167 107.033952 
L 503.830682 100.733859 
L 509.232197 152.431441 
L 514.516288 124.621525 
L 519.859091 131.299651 
L 525.260606 112.749487 
L 530.662121 100.576218 
L 535.946212 105.744745 
L 541.289015 108.820573 
L 546.69053 110.514858 
L 552.092045 126.170923 
L 557.376136 89.563719 
L 562.718939 61.798882 
L 568.120455 81.840565 
L 573.52197 82.883778 
L 578.864773 77.650393 
L 584.207576 76.163412 
L 589.609091 73.357385 
L 595.010606 80.2702 
L 600.294697 98.182801 
L 605.6375 89.491459 
L 611.039015 93.09592 
L 616.44053 75.499514 
L 621.724621 115.19876 
L 627.067424 112.096959 
L 632.468939 111.918093 
L 637.870455 119.702249 
L 643.154545 112.458527 
L 648.497348 114.789984 
L 653.898864 132.297281 
L 659.300379 145.144714 
L 664.643182 128.07934 
L 669.985985 170.124699 
L 675.3875 219.086361 
L 680.789015 219.29744 
L 686.073106 193.326712 
L 691.415909 114.516087 
L 696.817424 86.060574 
L 702.218939 92.412787 
L 707.50303 64.587516 
L 712.845833 79.757992 
L 718.247348 109.004792 
L 723.648864 118.99921 
L 728.932955 97.423008 
L 734.275758 111.620811 
L 739.677273 71.064482 
L 745.078788 111.462111 
L 750.421591 103.394883 
L 755.764394 121.125656 
L 761.165909 118.502068 
L 766.567424 79.241635 
L 771.851515 110.031441 
L 777.194318 85.667949 
L 782.595833 89.892788 
L 787.997348 119.938827 
L 793.281439 61.141678 
L 798.624242 76.17381 
L 804.025758 85.105666 
L 809.427273 81.20763 
" clip-path="url(#pfb296045c3)" style="fill: none; stroke: #1f77b4; stroke-width: 1.5; stroke-linecap: square"/>
   </g>
   <g id="line2d_26">
    <path d="M 149.972727 77.827747 
L 155.31553 113.199914 
L 160.717045 105.987322 
L 166.118561 96.61836 
L 171.402652 102.062803 
L 176.745455 119.212606 
L 182.14697 111.655988 
L 187.548485 145.766813 
L 192.832576 142.07816 
L 198.175379 111.050606 
L 203.576894 101.447333 
L 208.978409 84.009601 
L 214.2625 108.458073 
L 219.605303 102.699416 
L 225.006818 88.295736 
L 230.408333 127.244361 
L 235.751136 72.67412 
L 241.093939 118.961137 
L 246.495455 83.79162 
L 251.89697 90.895568 
L 257.181061 113.148251 
L 262.523864 119.893791 
L 267.925379 128.756365 
L 273.326894 139.779 
L 278.610985 145.929442 
L 283.953788 150.281733 
L 289.355303 148.199279 
L 294.756818 168.396168 
L 300.040909 153.857224 
L 305.383712 134.182332 
L 310.785227 138.361808 
L 316.186742 152.740268 
L 321.529545 112.74703 
L 326.872348 124.440338 
L 332.273864 105.852725 
L 337.675379 94.872788 
L 342.95947 83.568814 
L 348.302273 106.874011 
L 353.703788 92.859461 
L 359.105303 104.101016 
L 364.389394 64.143131 
L 369.732197 83.250425 
L 375.133712 114.692051 
L 380.535227 105.927593 
L 385.819318 134.375393 
L 391.162121 84.093041 
L 396.563636 120.8032 
L 401.965152 120.473921 
L 407.307955 92.583028 
L 412.650758 97.946414 
L 418.052273 86.775313 
L 423.453788 103.947729 
L 428.737879 109.141725 
L 434.080682 106.114253 
L 439.482197 112.275287 
L 444.883712 104.321048 
L 450.167803 108.749736 
L 455.510606 125.718649 
L 460.912121 82.154027 
L 466.313636 141.223367 
L 471.597727 108.676444 
L 476.94053 105.862018 
L 482.342045 115.112762 
L 487.743561 157.459104 
L 493.086364 121.674915 
L 498.429167 133.143253 
L 503.830682 147.565951 
L 509.232197 131.261451 
L 514.516288 171.765322 
L 519.859091 181.636556 
L 525.260606 179.658782 
L 530.662121 163.320529 
L 535.946212 121.668522 
L 541.289015 146.868743 
L 546.69053 126.29603 
L 552.092045 169.36359 
L 557.376136 145.161111 
L 562.718939 127.471754 
L 568.120455 114.698606 
L 573.52197 103.657009 
L 578.864773 127.054132 
L 584.207576 109.940601 
L 589.609091 110.374333 
L 595.010606 120.000051 
L 600.294697 110.78718 
L 605.6375 123.015602 
L 611.039015 107.630881 
L 616.44053 86.597849 
L 621.724621 122.624897 
L 627.067424 117.514128 
L 632.468939 113.786075 
L 637.870455 138.607921 
L 643.154545 113.679996 
L 648.497348 143.367517 
L 653.898864 143.671095 
L 659.300379 131.499251 
L 664.643182 153.881296 
L 669.985985 176.885881 
L 675.3875 237.113186 
L 680.789015 231.883912 
L 686.073106 229.846351 
L 691.415909 181.81577 
L 696.817424 131.20922 
L 702.218939 107.147205 
L 707.50303 98.006465 
L 712.845833 111.222693 
L 718.247348 110.8535 
L 723.648864 115.309908 
L 728.932955 87.30514 
L 734.275758 118.836512 
L 739.677273 91.470802 
L 745.078788 123.572704 
L 750.421591 123.595079 
L 755.764394 106.61198 
L 761.165909 106.609822 
L 766.567424 104.017006 
L 771.851515 112.291091 
L 777.194318 113.550824 
L 782.595833 118.4659 
L 787.997348 112.974119 
L 793.281439 86.115303 
L 798.624242 97.643247 
L 804.025758 89.186778 
L 809.427273 113.887869 
" clip-path="url(#pfb296045c3)" style="fill: none; stroke: #ff7f0e; stroke-width: 1.5; stroke-linecap: square"/>
   </g>
   <g id="line2d_27">
    <path d="M 149.972727 73.886137 
L 155.31553 100.819194 
L 160.717045 80.120539 
L 166.118561 60.624311 
L 171.402652 92.598978 
L 176.745455 54.352314 
L 182.14697 123.143228 
L 187.548485 104.672394 
L 192.832576 87.200506 
L 198.175379 60.501741 
L 203.576894 107.07711 
L 208.978409 130.303464 
L 214.2625 76.76909 
L 219.605303 84.856723 
L 225.006818 121.366048 
L 230.408333 60.041328 
L 235.751136 99.429005 
L 241.093939 94.009618 
L 246.495455 83.19784 
L 251.89697 112.546794 
L 257.181061 109.920761 
L 262.523864 90.151196 
L 267.925379 111.392354 
L 273.326894 118.407027 
L 278.610985 116.146067 
L 283.953788 113.282055 
L 289.355303 161.857026 
L 294.756818 143.850115 
L 300.040909 94.688873 
L 305.383712 109.688909 
L 310.785227 133.18236 
L 316.186742 53.766814 
L 321.529545 101.649496 
L 326.872348 87.643578 
L 332.273864 84.351286 
L 337.675379 114.697742 
L 342.95947 92.641849 
L 348.302273 85.782423 
L 353.703788 96.018137 
L 359.105303 83.490498 
L 364.389394 97.569804 
L 369.732197 100.053326 
L 375.133712 87.700262 
L 380.535227 115.64643 
L 385.819318 93.056959 
L 391.162121 93.842356 
L 396.563636 102.87817 
L 401.965152 91.379961 
L 407.307955 86.803556 
L 412.650758 107.022849 
L 418.052273 100.053875 
L 423.453788 96.302633 
L 428.737879 110.548172 
L 434.080682 62.120733 
L 439.482197 83.138688 
L 444.883712 88.306415 
L 450.167803 59.342115 
L 455.510606 78.877364 
L 460.912121 73.959664 
L 466.313636 93.831091 
L 471.597727 69.258979 
L 476.94053 86.603764 
L 482.342045 73.123675 
L 487.743561 115.563576 
L 493.086364 94.845413 
L 498.429167 94.223685 
L 503.830682 96.906104 
L 509.232197 115.530197 
L 514.516288 123.812659 
L 519.859091 118.801285 
L 525.260606 68.072809 
L 530.662121 121.283412 
L 535.946212 109.592281 
L 541.289015 104.068728 
L 546.69053 110.022181 
L 552.092045 128.977157 
L 557.376136 86.05197 
L 562.718939 76.610315 
L 568.120455 106.090513 
L 573.52197 83.826064 
L 578.864773 109.141334 
L 584.207576 85.469347 
L 589.609091 87.736774 
L 595.010606 105.471564 
L 600.294697 86.743775 
L 605.6375 99.894036 
L 611.039015 126.310005 
L 616.44053 86.131087 
L 621.724621 110.887144 
L 627.067424 107.013187 
L 632.468939 94.374287 
L 637.870455 111.63377 
L 643.154545 120.598701 
L 648.497348 105.740507 
L 653.898864 116.677638 
L 659.300379 123.249045 
L 664.643182 119.289726 
L 669.985985 163.426226 
L 675.3875 168.915186 
L 680.789015 131.763301 
L 686.073106 149.327967 
L 691.415909 103.691279 
L 696.817424 135.485021 
L 702.218939 100.946743 
L 707.50303 92.492767 
L 712.845833 101.3371 
L 718.247348 105.526486 
L 723.648864 106.889771 
L 728.932955 123.653487 
L 734.275758 117.02717 
L 739.677273 122.421689 
L 745.078788 124.474467 
L 750.421591 121.729132 
L 755.764394 121.664991 
L 761.165909 113.891289 
L 766.567424 104.630603 
L 771.851515 117.229575 
L 777.194318 113.37291 
L 782.595833 94.360366 
L 787.997348 113.967102 
L 793.281439 90.056038 
L 798.624242 90.04256 
L 804.025758 83.485609 
L 809.427273 103.297415 
" clip-path="url(#pfb296045c3)" style="fill: none; stroke: #2ca02c; stroke-width: 1.5; stroke-linecap: square"/>
   </g>
   <g id="patch_3">
    <path d="M 117 256.32 
L 117 34.56 
" style="fill: none; stroke: #000000; stroke-width: 0.8; stroke-linejoin: miter; stroke-linecap: square"/>
   </g>
   <g id="patch_4">
    <path d="M 842.4 256.32 
L 842.4 34.56 
" style="fill: none; stroke: #000000; stroke-width: 0.8; stroke-linejoin: miter; stroke-linecap: square"/>
   </g>
   <g id="patch_5">
    <path d="M 117 256.32 
L 842.4 256.32 
" style="fill: none; stroke: #000000; stroke-width: 0.8; stroke-linejoin: miter; stroke-linecap: square"/>
   </g>
   <g id="patch_6">
    <path d="M 117 34.56 
L 842.4 34.56 
" style="fill: none; stroke: #000000; stroke-width: 0.8; stroke-linejoin: miter; stroke-linecap: square"/>
   </g>
   <g id="legend_1">
    <g id="patch_7">
     <path d="M 124 251.32 
L 222.229688 251.32 
Q 224.229688 251.32 224.229688 249.32 
L 224.229688 206.285625 
Q 224.229688 204.285625 222.229688 204.285625 
L 124 204.285625 
Q 122 204.285625 122 206.285625 
L 122 249.32 
Q 122 251.32 124 251.32 
z
" style="fill: #ffffff; opacity: 0.8; stroke: #cccccc; stroke-linejoin: miter"/>
    </g>
    <g id="line2d_28">
     <path d="M 126 212.384062 
L 136 212.384062 
L 146 212.384062 
" style="fill: none; stroke: #1f77b4; stroke-width: 1.5; stroke-linecap: square"/>
    </g>
    <g id="text_16">
     <!-- Output -->
     <g transform="translate(154 215.884062) scale(0.1 -0.1)">
      <defs>
       <path id="DejaVuSans-4f" d="M 2522 4238 
Q 1834 4238 1429 3725 
Q 1025 3213 1025 2328 
Q 1025 1447 1429 934 
Q 1834 422 2522 422 
Q 3209 422 3611 934 
Q 4013 1447 4013 2328 
Q 4013 3213 3611 3725 
Q 3209 4238 2522 4238 
z
M 2522 4750 
Q 3503 4750 4090 4092 
Q 4678 3434 4678 2328 
Q 4678 1225 4090 567 
Q 3503 -91 2522 -91 
Q 1538 -91 948 565 
Q 359 1222 359 2328 
Q 359 3434 948 4092 
Q 1538 4750 2522 4750 
z
" transform="scale(0.015625)"/>
       <path id="DejaVuSans-75" d="M 544 1381 
L 544 3500 
L 1119 3500 
L 1119 1403 
Q 1119 906 1312 657 
Q 1506 409 1894 409 
Q 2359 409 2629 706 
Q 2900 1003 2900 1516 
L 2900 3500 
L 3475 3500 
L 3475 0 
L 2900 0 
L 2900 538 
Q 2691 219 2414 64 
Q 2138 -91 1772 -91 
Q 1169 -91 856 284 
Q 544 659 544 1381 
z
M 1991 3584 
L 1991 3584 
z
" transform="scale(0.015625)"/>
       <path id="DejaVuSans-74" d="M 1172 4494 
L 1172 3500 
L 2356 3500 
L 2356 3053 
L 1172 3053 
L 1172 1153 
Q 1172 725 1289 603 
Q 1406 481 1766 481 
L 2356 481 
L 2356 0 
L 1766 0 
Q 1100 0 847 248 
Q 594 497 594 1153 
L 594 3053 
L 172 3053 
L 172 3500 
L 594 3500 
L 594 4494 
L 1172 4494 
z
" transform="scale(0.015625)"/>
       <path id="DejaVuSans-70" d="M 1159 525 
L 1159 -1331 
L 581 -1331 
L 581 3500 
L 1159 3500 
L 1159 2969 
Q 1341 3281 1617 3432 
Q 1894 3584 2278 3584 
Q 2916 3584 3314 3078 
Q 3713 2572 3713 1747 
Q 3713 922 3314 415 
Q 2916 -91 2278 -91 
Q 1894 -91 1617 61 
Q 1341 213 1159 525 
z
M 3116 1747 
Q 3116 2381 2855 2742 
Q 2594 3103 2138 3103 
Q 1681 3103 1420 2742 
Q 1159 2381 1159 1747 
Q 1159 1113 1420 752 
Q 1681 391 2138 391 
Q 2594 391 2855 752 
Q 3116 1113 3116 1747 
z
" transform="scale(0.015625)"/>
      </defs>
      <use xlink:href="#DejaVuSans-4f"/>
      <use xlink:href="#DejaVuSans-75" transform="translate(78.710938 0)"/>
      <use xlink:href="#DejaVuSans-74" transform="translate(142.089844 0)"/>
      <use xlink:href="#DejaVuSans-70" transform="translate(181.298828 0)"/>
      <use xlink:href="#DejaVuSans-75" transform="translate(244.775391 0)"/>
      <use xlink:href="#DejaVuSans-74" transform="translate(308.154297 0)"/>
     </g>
    </g>
    <g id="line2d_29">
     <path d="M 126 227.062187 
L 136 227.062187 
L 146 227.062187 
" style="fill: none; stroke: #ff7f0e; stroke-width: 1.5; stroke-linecap: square"/>
    </g>
    <g id="text_17">
     <!-- Labor -->
     <g transform="translate(154 230.562187) scale(0.1 -0.1)">
      <defs>
       <path id="DejaVuSans-4c" d="M 628 4666 
L 1259 4666 
L 1259 531 
L 3531 531 
L 3531 0 
L 628 0 
L 628 4666 
z
" transform="scale(0.015625)"/>
       <path id="DejaVuSans-61" d="M 2194 1759 
Q 1497 1759 1228 1600 
Q 959 1441 959 1056 
Q 959 750 1161 570 
Q 1363 391 1709 391 
Q 2188 391 2477 730 
Q 2766 1069 2766 1631 
L 2766 1759 
L 2194 1759 
z
M 3341 1997 
L 3341 0 
L 2766 0 
L 2766 531 
Q 2569 213 2275 61 
Q 1981 -91 1556 -91 
Q 1019 -91 701 211 
Q 384 513 384 1019 
Q 384 1609 779 1909 
Q 1175 2209 1959 2209 
L 2766 2209 
L 2766 2266 
Q 2766 2663 2505 2880 
Q 2244 3097 1772 3097 
Q 1472 3097 1187 3025 
Q 903 2953 641 2809 
L 641 3341 
Q 956 3463 1253 3523 
Q 1550 3584 1831 3584 
Q 2591 3584 2966 3190 
Q 3341 2797 3341 1997 
z
" transform="scale(0.015625)"/>
       <path id="DejaVuSans-62" d="M 3116 1747 
Q 3116 2381 2855 2742 
Q 2594 3103 2138 3103 
Q 1681 3103 1420 2742 
Q 1159 2381 1159 1747 
Q 1159 1113 1420 752 
Q 1681 391 2138 391 
Q 2594 391 2855 752 
Q 3116 1113 3116 1747 
z
M 1159 2969 
Q 1341 3281 1617 3432 
Q 1894 3584 2278 3584 
Q 2916 3584 3314 3078 
Q 3713 2572 3713 1747 
Q 3713 922 3314 415 
Q 2916 -91 2278 -91 
Q 1894 -91 1617 61 
Q 1341 213 1159 525 
L 1159 0 
L 581 0 
L 581 4863 
L 1159 4863 
L 1159 2969 
z
" transform="scale(0.015625)"/>
       <path id="DejaVuSans-6f" d="M 1959 3097 
Q 1497 3097 1228 2736 
Q 959 2375 959 1747 
Q 959 1119 1226 758 
Q 1494 397 1959 397 
Q 2419 397 2687 759 
Q 2956 1122 2956 1747 
Q 2956 2369 2687 2733 
Q 2419 3097 1959 3097 
z
M 1959 3584 
Q 2709 3584 3137 3096 
Q 3566 2609 3566 1747 
Q 3566 888 3137 398 
Q 2709 -91 1959 -91 
Q 1206 -91 779 398 
Q 353 888 353 1747 
Q 353 2609 779 3096 
Q 1206 3584 1959 3584 
z
" transform="scale(0.015625)"/>
       <path id="DejaVuSans-72" d="M 2631 2963 
Q 2534 3019 2420 3045 
Q 2306 3072 2169 3072 
Q 1681 3072 1420 2755 
Q 1159 2438 1159 1844 
L 1159 0 
L 581 0 
L 581 3500 
L 1159 3500 
L 1159 2956 
Q 1341 3275 1631 3429 
Q 1922 3584 2338 3584 
Q 2397 3584 2469 3576 
Q 2541 3569 2628 3553 
L 2631 2963 
z
" transform="scale(0.015625)"/>
      </defs>
      <use xlink:href="#DejaVuSans-4c"/>
      <use xlink:href="#DejaVuSans-61" transform="translate(55.712891 0)"/>
      <use xlink:href="#DejaVuSans-62" transform="translate(116.992188 0)"/>
      <use xlink:href="#DejaVuSans-6f" transform="translate(180.46875 0)"/>
      <use xlink:href="#DejaVuSans-72" transform="translate(241.650391 0)"/>
     </g>
    </g>
    <g id="line2d_30">
     <path d="M 126 241.740313 
L 136 241.740313 
L 146 241.740313 
" style="fill: none; stroke: #2ca02c; stroke-width: 1.5; stroke-linecap: square"/>
    </g>
    <g id="text_18">
     <!-- Consumption -->
     <g transform="translate(154 245.240313) scale(0.1 -0.1)">
      <defs>
       <path id="DejaVuSans-43" d="M 4122 4306 
L 4122 3641 
Q 3803 3938 3442 4084 
Q 3081 4231 2675 4231 
Q 1875 4231 1450 3742 
Q 1025 3253 1025 2328 
Q 1025 1406 1450 917 
Q 1875 428 2675 428 
Q 3081 428 3442 575 
Q 3803 722 4122 1019 
L 4122 359 
Q 3791 134 3420 21 
Q 3050 -91 2638 -91 
Q 1578 -91 968 557 
Q 359 1206 359 2328 
Q 359 3453 968 4101 
Q 1578 4750 2638 4750 
Q 3056 4750 3426 4639 
Q 3797 4528 4122 4306 
z
" transform="scale(0.015625)"/>
       <path id="DejaVuSans-6e" d="M 3513 2113 
L 3513 0 
L 2938 0 
L 2938 2094 
Q 2938 2591 2744 2837 
Q 2550 3084 2163 3084 
Q 1697 3084 1428 2787 
Q 1159 2491 1159 1978 
L 1159 0 
L 581 0 
L 581 3500 
L 1159 3500 
L 1159 2956 
Q 1366 3272 1645 3428 
Q 1925 3584 2291 3584 
Q 2894 3584 3203 3211 
Q 3513 2838 3513 2113 
z
" transform="scale(0.015625)"/>
       <path id="DejaVuSans-73" d="M 2834 3397 
L 2834 2853 
Q 2591 2978 2328 3040 
Q 2066 3103 1784 3103 
Q 1356 3103 1142 2972 
Q 928 2841 928 2578 
Q 928 2378 1081 2264 
Q 1234 2150 1697 2047 
L 1894 2003 
Q 2506 1872 2764 1633 
Q 3022 1394 3022 966 
Q 3022 478 2636 193 
Q 2250 -91 1575 -91 
Q 1294 -91 989 -36 
Q 684 19 347 128 
L 347 722 
Q 666 556 975 473 
Q 1284 391 1588 391 
Q 1994 391 2212 530 
Q 2431 669 2431 922 
Q 2431 1156 2273 1281 
Q 2116 1406 1581 1522 
L 1381 1569 
Q 847 1681 609 1914 
Q 372 2147 372 2553 
Q 372 3047 722 3315 
Q 1072 3584 1716 3584 
Q 2034 3584 2315 3537 
Q 2597 3491 2834 3397 
z
" transform="scale(0.015625)"/>
       <path id="DejaVuSans-6d" d="M 3328 2828 
Q 3544 3216 3844 3400 
Q 4144 3584 4550 3584 
Q 5097 3584 5394 3201 
Q 5691 2819 5691 2113 
L 5691 0 
L 5113 0 
L 5113 2094 
Q 5113 2597 4934 2840 
Q 4756 3084 4391 3084 
Q 3944 3084 3684 2787 
Q 3425 2491 3425 1978 
L 3425 0 
L 2847 0 
L 2847 2094 
Q 2847 2600 2669 2842 
Q 2491 3084 2119 3084 
Q 1678 3084 1418 2786 
Q 1159 2488 1159 1978 
L 1159 0 
L 581 0 
L 581 3500 
L 1159 3500 
L 1159 2956 
Q 1356 3278 1631 3431 
Q 1906 3584 2284 3584 
Q 2666 3584 2933 3390 
Q 3200 3197 3328 2828 
z
" transform="scale(0.015625)"/>
       <path id="DejaVuSans-69" d="M 603 3500 
L 1178 3500 
L 1178 0 
L 603 0 
L 603 3500 
z
M 603 4863 
L 1178 4863 
L 1178 4134 
L 603 4134 
L 603 4863 
z
" transform="scale(0.015625)"/>
      </defs>
      <use xlink:href="#DejaVuSans-43"/>
      <use xlink:href="#DejaVuSans-6f" transform="translate(69.824219 0)"/>
      <use xlink:href="#DejaVuSans-6e" transform="translate(131.005859 0)"/>
      <use xlink:href="#DejaVuSans-73" transform="translate(194.384766 0)"/>
      <use xlink:href="#DejaVuSans-75" transform="translate(246.484375 0)"/>
      <use xlink:href="#DejaVuSans-6d" transform="translate(309.863281 0)"/>
      <use xlink:href="#DejaVuSans-70" transform="translate(407.275391 0)"/>
      <use xlink:href="#DejaVuSans-74" transform="translate(470.751953 0)"/>
      <use xlink:href="#DejaVuSans-69" transform="translate(509.960938 0)"/>
      <use xlink:href="#DejaVuSans-6f" transform="translate(537.744141 0)"/>
      <use xlink:href="#DejaVuSans-6e" transform="translate(598.925781 0)"/>
     </g>
    </g>
   </g>
  </g>
 </g>
 <defs>
  <clipPath id="pfb296045c3">
   <rect x="117" y="34.56" width="725.4" height="221.76"/>
  </clipPath>
 </defs>
</svg>
