<?xml version="1.0" encoding="utf-8" standalone="no"?>
<!DOCTYPE svg PUBLIC "-//W3C//DTD SVG 1.1//EN"
  "http://www.w3.org/Graphics/SVG/1.1/DTD/svg11.dtd">
<svg xmlns:xlink="http://www.w3.org/1999/xlink" width="936pt" height="288pt" viewBox="0 0 936 288" xmlns="http://www.w3.org/2000/svg" version="1.1">
 <metadata>
  <rdf:RDF xmlns:dc="http://purl.org/dc/elements/1.1/" xmlns:cc="http://creativecommons.org/ns#" xmlns:rdf="http://www.w3.org/1999/02/22-rdf-syntax-ns#">
   <cc:Work>
    <dc:type rdf:resource="http://purl.org/dc/dcmitype/StillImage"/>
    <dc:format>image/svg+xml</dc:format>
    <dc:creator>
     <cc:Agent>
      <dc:title>Matplotlib v3.10.6, https://matplotlib.org/</dc:title>
     </cc:Agent>
    </dc:creator>
   </cc:Work>
  </rdf:RDF>
 </metadata>
 <defs>
  <style type="text/css">*{stroke-linejoin: round; stroke-linecap: butt}</style>
 </defs>
 <g id="figure_1">
  <g id="patch_1">
   <path d="M 0 288 
L 936 288 
L 936 0 
L 0 0 
z
" style="fill: #ffffff"/>
  </g>
  <g id="axes_1">
   <g id="patch_2">
    <path d="M 42.01 260.12 
L 925.2 260.12 
L 925.2 26.88 
L 42.01 26.88 
z
" style="fill: #ffffff"/>
   </g>
   <g id="matplotlib.axis_1">
    <g id="xtick_1">
     <g id="line2d_1">
      <path d="M 82.155 260.12 
L 82.155 26.88 
" clip-path="url(#p4872de253f)" style="fill: none; stroke: #b0b0b0; stroke-width: 0.8; stroke-linecap: square"/>
     </g>
     <g id="line2d_2">
      <defs>
       <path id="mb30c41f8ac" d="M 0 0 
L 0 3.5 
" style="stroke: #000000; stroke-width: 0.8"/>
      </defs>
      <g>
       <use xlink:href="#mb30c41f8ac" x="82.155" y="260.12" style="stroke: #000000; stroke-width: 0.8"/>
      </g>
     </g>
     <g id="text_1">
      <!-- 0 -->
      <g transform="translate(78.97375 274.718437) scale(0.1 -0.1)">
       <defs>
        <path id="DejaVuSans-30" d="M 2034 4250 
Q 1547 4250 1301 3770 
Q 1056 3291 1056 2328 
Q 1056 1369 1301 889 
Q 1547 409 2034 409 
Q 2525 409 2770 889 
Q 3016 1369 3016 2328 
Q 3016 3291 2770 3770 
Q 2525 4250 2034 4250 
z
M 2034 4750 
Q 2819 4750 3233 4129 
Q 3647 3509 3647 2328 
Q 3647 1150 3233 529 
Q 2819 -91 2034 -91 
Q 1250 -91 836 529 
Q 422 1150 422 2328 
Q 422 3509 836 4129 
Q 1250 4750 2034 4750 
z
" transform="scale(0.015625)"/>
       </defs>
       <use xlink:href="#DejaVuSans-30"/>
      </g>
     </g>
    </g>
    <g id="xtick_2">
     <g id="line2d_3">
      <path d="M 183.021834 260.12 
L 183.021834 26.88 
" clip-path="url(#p4872de253f)" style="fill: none; stroke: #b0b0b0; stroke-width: 0.8; stroke-linecap: square"/>
     </g>
     <g id="line2d_4">
      <g>
       <use xlink:href="#mb30c41f8ac" x="183.021834" y="260.12" style="stroke: #000000; stroke-width: 0.8"/>
      </g>
     </g>
     <g id="text_2">
      <!-- 25 -->
      <g transform="translate(176.659334 274.718437) scale(0.1 -0.1)">
       <defs>
        <path id="DejaVuSans-32" d="M 1228 531 
L 3431 531 
L 3431 0 
L 469 0 
L 469 531 
Q 828 903 1448 1529 
Q 2069 2156 2228 2338 
Q 2531 2678 2651 2914 
Q 2772 3150 2772 3378 
Q 2772 3750 2511 3984 
Q 2250 4219 1831 4219 
Q 1534 4219 1204 4116 
Q 875 4013 500 3803 
L 500 4441 
Q 881 4594 1212 4672 
Q 1544 4750 1819 4750 
Q 2544 4750 2975 4387 
Q 3406 4025 3406 3419 
Q 3406 3131 3298 2873 
Q 3191 2616 2906 2266 
Q 2828 2175 2409 1742 
Q 1991 1309 1228 531 
z
" transform="scale(0.015625)"/>
        <path id="DejaVuSans-35" d="M 691 4666 
L 3169 4666 
L 3169 4134 
L 1269 4134 
L 1269 2991 
Q 1406 3038 1543 3061 
Q 1681 3084 1819 3084 
Q 2600 3084 3056 2656 
Q 3513 2228 3513 1497 
Q 3513 744 3044 326 
Q 2575 -91 1722 -91 
Q 1428 -91 1123 -41 
Q 819 9 494 109 
L 494 744 
Q 775 591 1075 516 
Q 1375 441 1709 441 
Q 2250 441 2565 725 
Q 2881 1009 2881 1497 
Q 2881 1984 2565 2268 
Q 2250 2553 1709 2553 
Q 1456 2553 1204 2497 
Q 953 2441 691 2322 
L 691 4666 
z
" transform="scale(0.015625)"/>
       </defs>
       <use xlink:href="#DejaVuSans-32"/>
       <use xlink:href="#DejaVuSans-35" transform="translate(63.623047 0)"/>
      </g>
     </g>
    </g>
    <g id="xtick_3">
     <g id="line2d_5">
      <path d="M 283.888668 260.12 
L 283.888668 26.88 
" clip-path="url(#p4872de253f)" style="fill: none; stroke: #b0b0b0; stroke-width: 0.8; stroke-linecap: square"/>
     </g>
     <g id="line2d_6">
      <g>
       <use xlink:href="#mb30c41f8ac" x="283.888668" y="260.12" style="stroke: #000000; stroke-width: 0.8"/>
      </g>
     </g>
     <g id="text_3">
      <!-- 50 -->
      <g transform="translate(277.526168 274.718437) scale(0.1 -0.1)">
       <use xlink:href="#DejaVuSans-35"/>
       <use xlink:href="#DejaVuSans-30" transform="translate(63.623047 0)"/>
      </g>
     </g>
    </g>
    <g id="xtick_4">
     <g id="line2d_7">
      <path d="M 384.755503 260.12 
L 384.755503 26.88 
" clip-path="url(#p4872de253f)" style="fill: none; stroke: #b0b0b0; stroke-width: 0.8; stroke-linecap: square"/>
     </g>
     <g id="line2d_8">
      <g>
       <use xlink:href="#mb30c41f8ac" x="384.755503" y="260.12" style="stroke: #000000; stroke-width: 0.8"/>
      </g>
     </g>
     <g id="text_4">
      <!-- 75 -->
      <g transform="translate(378.393003 274.718437) scale(0.1 -0.1)">
       <defs>
        <path id="DejaVuSans-37" d="M 525 4666 
L 3525 4666 
L 3525 4397 
L 1831 0 
L 1172 0 
L 2766 4134 
L 525 4134 
L 525 4666 
z
" transform="scale(0.015625)"/>
       </defs>
       <use xlink:href="#DejaVuSans-37"/>
       <use xlink:href="#DejaVuSans-35" transform="translate(63.623047 0)"/>
      </g>
     </g>
    </g>
    <g id="xtick_5">
     <g id="line2d_9">
      <path d="M 485.622337 260.12 
L 485.622337 26.88 
" clip-path="url(#p4872de253f)" style="fill: none; stroke: #b0b0b0; stroke-width: 0.8; stroke-linecap: square"/>
     </g>
     <g id="line2d_10">
      <g>
       <use xlink:href="#mb30c41f8ac" x="485.622337" y="260.12" style="stroke: #000000; stroke-width: 0.8"/>
      </g>
     </g>
     <g id="text_5">
      <!-- 100 -->
      <g transform="translate(476.078587 274.718437) scale(0.1 -0.1)">
       <defs>
        <path id="DejaVuSans-31" d="M 794 531 
L 1825 531 
L 1825 4091 
L 703 3866 
L 703 4441 
L 1819 4666 
L 2450 4666 
L 2450 531 
L 3481 531 
L 3481 0 
L 794 0 
L 794 531 
z
" transform="scale(0.015625)"/>
       </defs>
       <use xlink:href="#DejaVuSans-31"/>
       <use xlink:href="#DejaVuSans-30" transform="translate(63.623047 0)"/>
       <use xlink:href="#DejaVuSans-30" transform="translate(127.246094 0)"/>
      </g>
     </g>
    </g>
    <g id="xtick_6">
     <g id="line2d_11">
      <path d="M 586.489171 260.12 
L 586.489171 26.88 
" clip-path="url(#p4872de253f)" style="fill: none; stroke: #b0b0b0; stroke-width: 0.8; stroke-linecap: square"/>
     </g>
     <g id="line2d_12">
      <g>
       <use xlink:href="#mb30c41f8ac" x="586.489171" y="260.12" style="stroke: #000000; stroke-width: 0.8"/>
      </g>
     </g>
     <g id="text_6">
      <!-- 125 -->
      <g transform="translate(576.945421 274.718437) scale(0.1 -0.1)">
       <use xlink:href="#DejaVuSans-31"/>
       <use xlink:href="#DejaVuSans-32" transform="translate(63.623047 0)"/>
       <use xlink:href="#DejaVuSans-35" transform="translate(127.246094 0)"/>
      </g>
     </g>
    </g>
    <g id="xtick_7">
     <g id="line2d_13">
      <path d="M 687.356005 260.12 
L 687.356005 26.88 
" clip-path="url(#p4872de253f)" style="fill: none; stroke: #b0b0b0; stroke-width: 0.8; stroke-linecap: square"/>
     </g>
     <g id="line2d_14">
      <g>
       <use xlink:href="#mb30c41f8ac" x="687.356005" y="260.12" style="stroke: #000000; stroke-width: 0.8"/>
      </g>
     </g>
     <g id="text_7">
      <!-- 150 -->
      <g transform="translate(677.812255 274.718437) scale(0.1 -0.1)">
       <use xlink:href="#DejaVuSans-31"/>
       <use xlink:href="#DejaVuSans-35" transform="translate(63.623047 0)"/>
       <use xlink:href="#DejaVuSans-30" transform="translate(127.246094 0)"/>
      </g>
     </g>
    </g>
    <g id="xtick_8">
     <g id="line2d_15">
      <path d="M 788.222839 260.12 
L 788.222839 26.88 
" clip-path="url(#p4872de253f)" style="fill: none; stroke: #b0b0b0; stroke-width: 0.8; stroke-linecap: square"/>
     </g>
     <g id="line2d_16">
      <g>
       <use xlink:href="#mb30c41f8ac" x="788.222839" y="260.12" style="stroke: #000000; stroke-width: 0.8"/>
      </g>
     </g>
     <g id="text_8">
      <!-- 175 -->
      <g transform="translate(778.679089 274.718437) scale(0.1 -0.1)">
       <use xlink:href="#DejaVuSans-31"/>
       <use xlink:href="#DejaVuSans-37" transform="translate(63.623047 0)"/>
       <use xlink:href="#DejaVuSans-35" transform="translate(127.246094 0)"/>
      </g>
     </g>
    </g>
    <g id="xtick_9">
     <g id="line2d_17">
      <path d="M 889.089673 260.12 
L 889.089673 26.88 
" clip-path="url(#p4872de253f)" style="fill: none; stroke: #b0b0b0; stroke-width: 0.8; stroke-linecap: square"/>
     </g>
     <g id="line2d_18">
      <g>
       <use xlink:href="#mb30c41f8ac" x="889.089673" y="260.12" style="stroke: #000000; stroke-width: 0.8"/>
      </g>
     </g>
     <g id="text_9">
      <!-- 200 -->
      <g transform="translate(879.545923 274.718437) scale(0.1 -0.1)">
       <use xlink:href="#DejaVuSans-32"/>
       <use xlink:href="#DejaVuSans-30" transform="translate(63.623047 0)"/>
       <use xlink:href="#DejaVuSans-30" transform="translate(127.246094 0)"/>
      </g>
     </g>
    </g>
   </g>
   <g id="matplotlib.axis_2">
    <g id="ytick_1">
     <g id="line2d_19">
      <defs>
       <path id="m915dea0989" d="M 0 0 
L -3.5 0 
" style="stroke: #000000; stroke-width: 0.8"/>
      </defs>
      <g>
       <use xlink:href="#m915dea0989" x="42.01" y="242.739013" style="stroke: #000000; stroke-width: 0.8"/>
      </g>
     </g>
     <g id="text_10">
      <!-- −0.4 -->
      <g transform="translate(10.727188 246.538232) scale(0.1 -0.1)">
       <defs>
        <path id="DejaVuSans-2212" d="M 678 2272 
L 4684 2272 
L 4684 1741 
L 678 1741 
L 678 2272 
z
" transform="scale(0.015625)"/>
        <path id="DejaVuSans-2e" d="M 684 794 
L 1344 794 
L 1344 0 
L 684 0 
L 684 794 
z
" transform="scale(0.015625)"/>
        <path id="DejaVuSans-34" d="M 2419 4116 
L 825 1625 
L 2419 1625 
L 2419 4116 
z
M 2253 4666 
L 3047 4666 
L 3047 1625 
L 3713 1625 
L 3713 1100 
L 3047 1100 
L 3047 0 
L 2419 0 
L 2419 1100 
L 313 1100 
L 313 1709 
L 2253 4666 
z
" transform="scale(0.015625)"/>
       </defs>
       <use xlink:href="#DejaVuSans-2212"/>
       <use xlink:href="#DejaVuSans-30" transform="translate(83.789062 0)"/>
       <use xlink:href="#DejaVuSans-2e" transform="translate(147.412109 0)"/>
       <use xlink:href="#DejaVuSans-34" transform="translate(179.199219 0)"/>
      </g>
     </g>
    </g>
    <g id="ytick_2">
     <g id="line2d_20">
      <g>
       <use xlink:href="#m915dea0989" x="42.01" y="216.152049" style="stroke: #000000; stroke-width: 0.8"/>
      </g>
     </g>
     <g id="text_11">
      <!-- −0.3 -->
      <g transform="translate(10.727188 219.951267) scale(0.1 -0.1)">
       <defs>
        <path id="DejaVuSans-33" d="M 2597 2516 
Q 3050 2419 3304 2112 
Q 3559 1806 3559 1356 
Q 3559 666 3084 287 
Q 2609 -91 1734 -91 
Q 1441 -91 1130 -33 
Q 819 25 488 141 
L 488 750 
Q 750 597 1062 519 
Q 1375 441 1716 441 
Q 2309 441 2620 675 
Q 2931 909 2931 1356 
Q 2931 1769 2642 2001 
Q 2353 2234 1838 2234 
L 1294 2234 
L 1294 2753 
L 1863 2753 
Q 2328 2753 2575 2939 
Q 2822 3125 2822 3475 
Q 2822 3834 2567 4026 
Q 2313 4219 1838 4219 
Q 1578 4219 1281 4162 
Q 984 4106 628 3988 
L 628 4550 
Q 988 4650 1302 4700 
Q 1616 4750 1894 4750 
Q 2613 4750 3031 4423 
Q 3450 4097 3450 3541 
Q 3450 3153 3228 2886 
Q 3006 2619 2597 2516 
z
" transform="scale(0.015625)"/>
       </defs>
       <use xlink:href="#DejaVuSans-2212"/>
       <use xlink:href="#DejaVuSans-30" transform="translate(83.789062 0)"/>
       <use xlink:href="#DejaVuSans-2e" transform="translate(147.412109 0)"/>
       <use xlink:href="#DejaVuSans-33" transform="translate(179.199219 0)"/>
      </g>
     </g>
    </g>
    <g id="ytick_3">
     <g id="line2d_21">
      <g>
       <use xlink:href="#m915dea0989" x="42.01" y="189.565084" style="stroke: #000000; stroke-width: 0.8"/>
      </g>
     </g>
     <g id="text_12">
      <!-- −0.2 -->
      <g transform="translate(10.727188 193.364303) scale(0.1 -0.1)">
       <use xlink:href="#DejaVuSans-2212"/>
       <use xlink:href="#DejaVuSans-30" transform="translate(83.789062 0)"/>
       <use xlink:href="#DejaVuSans-2e" transform="translate(147.412109 0)"/>
       <use xlink:href="#DejaVuSans-32" transform="translate(179.199219 0)"/>
      </g>
     </g>
    </g>
    <g id="ytick_4">
     <g id="line2d_22">
      <g>
       <use xlink:href="#m915dea0989" x="42.01" y="162.978119" style="stroke: #000000; stroke-width: 0.8"/>
      </g>
     </g>
     <g id="text_13">
      <!-- −0.1 -->
      <g transform="translate(10.727188 166.777338) scale(0.1 -0.1)">
       <use xlink:href="#DejaVuSans-2212"/>
       <use xlink:href="#DejaVuSans-30" transform="translate(83.789062 0)"/>
       <use xlink:href="#DejaVuSans-2e" transform="translate(147.412109 0)"/>
       <use xlink:href="#DejaVuSans-31" transform="translate(179.199219 0)"/>
      </g>
     </g>
    </g>
    <g id="ytick_5">
     <g id="line2d_23">
      <g>
       <use xlink:href="#m915dea0989" x="42.01" y="136.391155" style="stroke: #000000; stroke-width: 0.8"/>
      </g>
     </g>
     <g id="text_14">
      <!-- 0.0 -->
      <g transform="translate(19.106875 140.190374) scale(0.1 -0.1)">
       <use xlink:href="#DejaVuSans-30"/>
       <use xlink:href="#DejaVuSans-2e" transform="translate(63.623047 0)"/>
       <use xlink:href="#DejaVuSans-30" transform="translate(95.410156 0)"/>
      </g>
     </g>
    </g>
    <g id="ytick_6">
     <g id="line2d_24">
      <g>
       <use xlink:href="#m915dea0989" x="42.01" y="109.80419" style="stroke: #000000; stroke-width: 0.8"/>
      </g>
     </g>
     <g id="text_15">
      <!-- 0.1 -->
      <g transform="translate(19.106875 113.603409) scale(0.1 -0.1)">
       <use xlink:href="#DejaVuSans-30"/>
       <use xlink:href="#DejaVuSans-2e" transform="translate(63.623047 0)"/>
       <use xlink:href="#DejaVuSans-31" transform="translate(95.410156 0)"/>
      </g>
     </g>
    </g>
    <g id="ytick_7">
     <g id="line2d_25">
      <g>
       <use xlink:href="#m915dea0989" x="42.01" y="83.217225" style="stroke: #000000; stroke-width: 0.8"/>
      </g>
     </g>
     <g id="text_16">
      <!-- 0.2 -->
      <g transform="translate(19.106875 87.016444) scale(0.1 -0.1)">
       <use xlink:href="#DejaVuSans-30"/>
       <use xlink:href="#DejaVuSans-2e" transform="translate(63.623047 0)"/>
       <use xlink:href="#DejaVuSans-32" transform="translate(95.410156 0)"/>
      </g>
     </g>
    </g>
    <g id="ytick_8">
     <g id="line2d_26">
      <g>
       <use xlink:href="#m915dea0989" x="42.01" y="56.630261" style="stroke: #000000; stroke-width: 0.8"/>
      </g>
     </g>
     <g id="text_17">
      <!-- 0.3 -->
      <g transform="translate(19.106875 60.42948) scale(0.1 -0.1)">
       <use xlink:href="#DejaVuSans-30"/>
       <use xlink:href="#DejaVuSans-2e" transform="translate(63.623047 0)"/>
       <use xlink:href="#DejaVuSans-33" transform="translate(95.410156 0)"/>
      </g>
     </g>
    </g>
    <g id="ytick_9">
     <g id="line2d_27">
      <g>
       <use xlink:href="#m915dea0989" x="42.01" y="30.043296" style="stroke: #000000; stroke-width: 0.8"/>
      </g>
     </g>
     <g id="text_18">
      <!-- 0.4 -->
      <g transform="translate(19.106875 33.842515) scale(0.1 -0.1)">
       <use xlink:href="#DejaVuSans-30"/>
       <use xlink:href="#DejaVuSans-2e" transform="translate(63.623047 0)"/>
       <use xlink:href="#DejaVuSans-34" transform="translate(95.410156 0)"/>
      </g>
     </g>
    </g>
   </g>
   <g id="line2d_28">
    <path d="M 82.155 170.527378 
L 86.189673 164.774112 
L 90.224347 150.860771 
L 94.25902 165.025641 
L 98.293693 165.697916 
L 102.328367 154.855416 
L 106.36304 145.074343 
L 110.397714 119.858746 
L 114.432387 98.215678 
L 118.46706 98.510642 
L 122.501734 146.543993 
L 126.536407 163.42598 
L 130.57108 160.74446 
L 134.605754 175.144415 
L 138.640427 180.967476 
L 142.675101 183.602189 
L 146.709774 159.691781 
L 150.744447 150.96848 
L 154.779121 154.47714 
L 158.813794 153.745919 
L 162.848467 168.361652 
L 166.883141 200.54979 
L 170.917814 193.66047 
L 174.952487 198.402945 
L 178.987161 133.433074 
L 183.021834 119.015407 
L 187.056508 130.699136 
L 191.091181 103.212043 
L 195.125854 108.80291 
L 199.160528 130.814441 
L 203.195201 186.665925 
L 207.229874 186.509314 
L 211.264548 184.716332 
L 215.299221 184.153905 
L 219.333894 149.121337 
L 223.368568 136.892412 
L 227.403241 123.419244 
L 231.437915 153.186903 
L 235.472588 173.994389 
L 239.507261 138.087512 
L 243.541935 123.455225 
L 247.576608 127.060548 
L 251.611281 109.037823 
L 255.645955 106.714407 
L 259.680628 102.410205 
L 263.715302 110.548041 
L 267.749975 114.744949 
L 271.784648 130.751811 
L 275.819322 159.805874 
L 279.853995 151.59833 
L 283.888668 194.560923 
L 287.923342 139.335038 
L 291.958015 109.595263 
L 295.992688 116.316658 
L 300.027362 107.152214 
L 304.062035 126.446064 
L 308.096709 133.963913 
L 312.131382 172.255412 
L 316.166055 199.028639 
L 320.200729 209.882501 
L 324.235402 247.749508 
L 328.270075 194.126445 
L 332.304749 186.257875 
L 336.339422 183.108632 
L 340.374095 195.543961 
L 344.408769 180.964533 
L 348.443442 121.404552 
L 352.478116 98.18302 
L 356.512789 86.410167 
L 360.547462 124.902779 
L 364.582136 134.362722 
L 368.616809 105.337836 
L 372.651482 136.020627 
L 376.686156 120.213691 
L 380.720829 101.656133 
L 384.755503 103.981508 
L 388.790176 115.244439 
L 392.824849 90.701213 
L 396.859523 101.750574 
L 400.894196 94.772925 
L 404.928869 104.673899 
L 408.963543 110.608737 
L 412.998216 117.488622 
L 417.032889 97.470926 
L 421.067563 95.413103 
L 425.102236 79.178212 
L 429.13691 93.033223 
L 433.171583 100.451328 
L 437.206256 116.22821 
L 441.24093 120.084084 
L 445.275603 143.695288 
L 449.310276 156.91803 
L 453.34495 121.470007 
L 457.379623 148.822342 
L 461.414296 171.717348 
L 465.44897 197.8005 
L 469.483643 163.677525 
L 473.518317 156.619868 
L 477.55299 124.310763 
L 481.587663 132.526573 
L 485.622337 143.480835 
L 489.65701 130.498573 
L 493.691683 116.086923 
L 497.726357 125.91879 
L 501.76103 104.894184 
L 505.795704 92.137986 
L 509.830377 106.644255 
L 513.86505 108.157863 
L 517.899724 94.126442 
L 521.934397 143.252073 
L 525.96907 173.375327 
L 530.003744 148.414395 
L 534.038417 136.614501 
L 538.07309 156.379666 
L 542.107764 175.452844 
L 546.142437 221.243888 
L 550.177111 203.268677 
L 554.211784 186.349166 
L 558.246457 161.40896 
L 562.281131 152.90862 
L 566.315804 134.75179 
L 570.350477 121.8013 
L 574.385151 148.753257 
L 578.419824 168.651268 
L 582.454497 182.575966 
L 586.489171 193.191021 
L 590.523844 170.109485 
L 594.558518 161.003244 
L 598.593191 137.914749 
L 602.627864 170.544241 
L 606.662538 184.135641 
L 610.697211 194.814878 
L 614.731884 190.904841 
L 618.766558 189.201572 
L 622.801231 200.867323 
L 626.835905 198.438843 
L 630.870578 221.736726 
L 634.905251 203.911217 
L 638.939925 193.278625 
L 642.974598 213.017497 
L 647.009271 178.811922 
L 651.043945 205.371064 
L 655.078618 170.836061 
L 659.113291 156.725058 
L 663.147965 159.670065 
L 667.182638 145.696575 
L 671.217312 147.975053 
L 675.251985 189.601307 
L 679.286658 173.856384 
L 683.321332 184.775219 
L 687.356005 198.898094 
L 691.390678 249.518182 
L 695.425352 231.514386 
L 699.460025 188.838699 
L 703.494698 171.76833 
L 707.529372 172.103884 
L 711.564045 126.203223 
L 715.598719 157.276799 
L 719.633392 168.50455 
L 723.668065 165.477422 
L 727.702739 155.127413 
L 731.737412 197.665224 
L 735.772085 149.894582 
L 739.806759 112.195397 
L 743.841432 127.771864 
L 747.876106 110.777551 
L 751.910779 81.42889 
L 755.945452 79.081305 
L 759.980126 55.572694 
L 764.014799 66.291169 
L 768.049472 47.139197 
L 772.084146 37.481818 
L 776.118819 63.373185 
L 780.153492 62.772157 
L 784.188166 79.590799 
L 788.222839 81.157037 
L 792.257513 114.235312 
L 796.292186 81.429334 
L 800.326859 98.098866 
L 804.361533 119.478777 
L 808.396206 137.500612 
L 812.430879 151.761832 
L 816.465553 164.328788 
L 820.500226 159.093221 
L 824.534899 169.531787 
L 828.569573 170.728961 
L 832.604246 188.757525 
L 836.63892 187.968771 
L 840.673593 191.806571 
L 844.708266 174.879082 
L 848.74294 179.518106 
L 852.777613 194.166712 
L 856.812286 199.753661 
L 860.84696 157.440678 
L 864.881633 150.367239 
L 868.916307 154.843823 
L 872.95098 143.17182 
L 876.985653 133.502197 
L 881.020327 132.873193 
L 885.055 117.070431 
L 885.055 117.070431 
" clip-path="url(#p4872de253f)" style="fill: none; stroke: #1f77b4; stroke-width: 1.5; stroke-linecap: square"/>
   </g>
   <g id="line2d_29">
    <path d="M 82.155 148.144915 
L 86.189673 142.587357 
L 90.224347 131.608301 
L 94.25902 142.838956 
L 98.293693 142.698381 
L 102.328367 133.998904 
L 106.36304 127.111493 
L 110.397714 109.52491 
L 114.432387 96.646238 
L 118.46706 101.594923 
L 122.501734 141.501744 
L 126.536407 153.502527 
L 130.57108 149.527828 
L 134.605754 158.760537 
L 138.640427 160.534694 
L 142.675101 159.745048 
L 146.709774 139.288458 
L 150.744447 132.558512 
L 154.779121 135.731208 
L 158.813794 135.36968 
L 162.848467 146.484684 
L 166.883141 169.393215 
L 170.917814 160.514813 
L 174.952487 161.369292 
L 178.987161 110.198435 
L 183.021834 102.69596 
L 187.056508 115.49502 
L 191.091181 97.579975 
L 195.125854 106.386718 
L 199.160528 126.365301 
L 203.195201 169.198195 
L 207.229874 165.283136 
L 211.264548 160.634744 
L 215.299221 157.471321 
L 219.333894 129.012985 
L 227.403241 112.780663 
L 231.437915 137.825358 
L 235.472588 153.245584 
L 239.507261 124.604387 
L 243.541935 115.17654 
L 247.576608 120.42882 
L 251.611281 108.932142 
L 255.645955 110.462491 
L 259.680628 110.31355 
L 263.715302 119.430123 
L 267.749975 124.521978 
L 271.784648 137.804212 
L 275.819322 159.246325 
L 279.853995 150.419389 
L 283.888668 180.773248 
L 287.923342 134.428477 
L 291.958015 112.528668 
L 295.992688 120.354549 
L 300.027362 115.407632 
L 304.062035 132.23008 
L 308.096709 138.293733 
L 312.131382 166.57616 
L 316.166055 182.973055 
L 320.200729 185.618557 
L 324.235402 208.12448 
L 328.270075 159.870473 
L 332.304749 151.410665 
L 336.339422 147.475426 
L 340.374095 155.624663 
L 344.408769 142.700253 
L 348.443442 97.78456 
L 352.478116 85.198382 
L 356.512789 82.578287 
L 360.547462 117.673039 
L 364.582136 126.985488 
L 368.616809 106.516137 
L 372.651482 132.920548 
L 376.686156 121.571656 
L 380.720829 109.495992 
L 384.755503 114.378902 
L 388.790176 125.32735 
L 392.824849 108.296632 
L 396.859523 119.767968 
L 400.894196 116.441915 
L 404.928869 126.067396 
L 412.998216 137.174423 
L 417.032889 122.055144 
L 421.067563 122.086669 
L 425.102236 111.538815 
L 429.13691 124.633046 
L 433.171583 131.380054 
L 437.206256 143.558024 
L 441.24093 145.427039 
L 445.275603 161.80575 
L 449.310276 168.538935 
L 453.34495 138.242171 
L 457.379623 158.309821 
L 461.414296 172.713679 
L 465.44897 187.8301 
L 469.483643 156.350557 
L 473.518317 148.762243 
L 477.55299 123.262162 
L 481.587663 130.949181 
L 485.622337 139.766788 
L 493.691683 119.771815 
L 497.726357 129.051038 
L 501.76103 114.238887 
L 505.795704 107.312184 
L 509.830377 121.489878 
L 513.86505 124.304285 
L 517.899724 115.19391 
L 521.934397 154.198929 
L 525.96907 174.4689 
L 530.003744 151.341213 
L 534.038417 140.756754 
L 538.07309 154.942966 
L 542.107764 166.960031 
L 546.142437 197.498073 
L 550.177111 176.979876 
L 554.211784 159.699306 
L 558.246457 138.496438 
L 562.281131 132.040741 
L 566.315804 119.144812 
L 570.350477 111.630414 
L 574.385151 134.710996 
L 578.419824 149.816008 
L 582.454497 158.703016 
L 586.489171 164.096654 
L 590.523844 143.770218 
L 594.558518 136.25591 
L 598.593191 119.206317 
L 602.627864 145.665558 
L 606.662538 154.830958 
L 610.697211 160.762679 
L 614.731884 155.145443 
L 618.766558 151.849226 
L 622.801231 158.915211 
L 626.835905 154.665584 
L 630.870578 170.100645 
L 634.905251 153.103877 
L 638.939925 143.480754 
L 642.974598 157.625888 
L 647.009271 129.926168 
L 651.043945 150.75801 
L 655.078618 123.62409 
L 659.113291 114.889944 
L 663.147965 119.872118 
L 667.182638 111.644511 
L 671.217312 116.471874 
L 675.251985 150.031368 
L 679.286658 136.900801 
L 683.321332 145.183281 
L 687.356005 154.884361 
L 691.390678 190.653721 
L 695.425352 171.123693 
L 699.460025 135.537524 
L 703.494698 123.217483 
L 707.529372 125.303866 
L 711.564045 92.680099 
L 715.598719 121.213166 
L 719.633392 131.583902 
L 723.668065 130.105892 
L 727.702739 123.338148 
L 731.737412 156.763044 
L 735.772085 118.97676 
L 739.806759 93.126744 
L 743.841432 109.97828 
L 747.876106 100.551518 
L 751.910779 82.996158 
L 755.945452 87.579289 
L 759.980126 75.811342 
L 764.014799 90.879276 
L 768.049472 81.875649 
L 772.084146 80.959296 
L 776.118819 106.591707 
L 780.153492 109.440854 
L 784.188166 124.912454 
L 788.222839 127.188974 
L 792.257513 152.672115 
L 796.292186 126.078249 
L 800.326859 139.474191 
L 804.361533 154.807464 
L 808.396206 165.851369 
L 812.430879 172.820574 
L 816.465553 177.740477 
L 820.500226 168.853494 
L 824.534899 172.721835 
L 828.569573 169.281406 
L 832.604246 178.817313 
L 836.63892 173.246703 
L 840.673593 171.811875 
L 844.708266 155.103871 
L 848.74294 156.449005 
L 852.777613 165.111399 
L 856.812286 166.026338 
L 860.84696 131.166506 
L 864.881633 126.663377 
L 868.916307 131.287062 
L 872.95098 123.327816 
L 876.985653 117.785081 
L 881.020327 119.614043 
L 885.055 109.905424 
L 885.055 109.905424 
" clip-path="url(#p4872de253f)" style="fill: none; stroke: #ff7f0e; stroke-width: 1.5; stroke-linecap: square"/>
   </g>
   <g id="line2d_30">
    <path d="M 82.155 158.773618 
L 86.189673 158.57791 
L 90.224347 155.643625 
L 94.25902 158.577841 
L 98.293693 159.39069 
L 102.328367 157.247667 
L 106.36304 154.354005 
L 110.397714 146.724991 
L 114.432387 137.960595 
L 118.46706 133.306874 
L 122.501734 141.433404 
L 126.536407 146.314607 
L 130.57108 147.607786 
L 134.605754 152.775032 
L 138.640427 156.823937 
L 142.675101 160.248296 
L 146.709774 156.794478 
L 150.744447 154.801122 
L 154.779121 155.137087 
L 158.813794 154.767394 
L 162.848467 158.268123 
L 166.883141 167.547729 
L 170.917814 169.536811 
L 174.952487 173.424807 
L 178.987161 159.625794 
L 183.021834 152.710601 
L 187.056508 151.595271 
L 191.091181 142.023223 
L 195.125854 138.807346 
L 199.160528 140.840295 
L 203.195201 153.858885 
L 207.229874 157.617333 
L 211.264548 160.472743 
L 215.299221 163.073738 
L 219.333894 156.499506 
L 223.368568 152.394052 
L 227.403241 147.029737 
L 231.437915 151.7527 
L 235.472588 157.13996 
L 239.507261 149.874279 
L 243.541935 144.66984 
L 247.576608 143.022882 
L 251.611281 136.496835 
L 255.645955 132.643071 
L 259.680628 128.487809 
L 267.749975 126.614126 
L 271.784648 129.338754 
L 275.819322 136.950703 
L 279.853995 137.570097 
L 283.888668 150.17883 
L 287.923342 141.297716 
L 291.958015 133.45775 
L 295.992688 132.353263 
L 300.027362 128.135736 
L 304.062035 130.607139 
L 308.096709 132.061335 
L 312.131382 142.070406 
L 316.166055 152.446739 
L 320.200729 160.655098 
L 324.235402 176.016183 
L 328.270075 170.647127 
L 332.304749 171.238365 
L 336.339422 172.02436 
L 340.374095 176.310452 
L 344.408769 174.655435 
L 348.443442 160.011147 
L 352.478116 149.375793 
L 356.512789 140.223035 
L 360.547462 143.620895 
L 364.582136 143.768389 
L 368.616809 135.212854 
L 372.651482 139.491235 
L 376.686156 135.03319 
L 380.720829 128.551296 
L 384.755503 125.993761 
L 388.790176 126.308244 
L 392.824849 118.795735 
L 396.859523 118.373761 
L 400.894196 114.722165 
L 404.928869 114.997658 
L 408.963543 115.40393 
L 412.998216 116.705353 
L 417.032889 111.806936 
L 421.067563 109.717589 
L 425.102236 104.030551 
L 433.171583 105.462429 
L 437.206256 109.061341 
L 441.24093 111.0482 
L 445.275603 118.280693 
L 449.310276 124.770249 
L 453.34495 119.618991 
L 457.379623 126.903676 
L 461.414296 135.394824 
L 465.44897 146.361555 
L 469.483643 143.718122 
L 473.518317 144.24878 
L 477.55299 137.439756 
L 481.587663 137.968546 
L 485.622337 140.105202 
L 489.65701 137.176669 
L 493.691683 132.706262 
L 497.726357 133.258907 
L 501.76103 127.046452 
L 505.795704 121.216957 
L 509.830377 121.545531 
L 513.86505 120.244732 
L 517.899724 115.323687 
L 525.96907 135.297582 
L 530.003744 133.464337 
L 534.038417 132.248902 
L 538.07309 137.827855 
L 542.107764 144.883968 
L 546.142437 160.13697 
L 550.177111 162.679956 
L 554.211784 163.041014 
L 558.246457 159.303676 
L 562.281131 157.259034 
L 570.350477 146.562041 
L 574.385151 150.433416 
L 578.419824 155.226415 
L 582.454497 160.264105 
L 586.489171 165.485522 
L 590.523844 162.730422 
L 594.558518 161.138489 
L 598.593191 155.099587 
L 602.627864 161.269837 
L 606.662538 165.695838 
L 610.697211 170.443354 
L 618.766558 173.743501 
L 622.801231 178.343267 
L 626.835905 180.164414 
L 630.870578 188.027236 
L 634.905251 187.198495 
L 638.939925 186.189026 
L 642.974598 191.782764 
L 647.009271 185.276909 
L 651.043945 191.004209 
L 655.078618 183.603126 
L 659.113291 178.226269 
L 663.147965 176.189103 
L 667.182638 170.443219 
L 671.217312 167.894333 
L 675.251985 175.961094 
L 679.286658 173.346738 
L 683.321332 175.983092 
L 687.356005 180.404888 
L 691.390678 195.255616 
L 695.425352 196.781848 
L 699.460025 189.692331 
L 703.494698 184.942002 
L 707.529372 183.191174 
L 711.564045 169.914278 
L 715.598719 172.454788 
L 719.633392 173.311803 
L 723.668065 171.762684 
L 727.702739 168.180419 
L 731.737412 177.293335 
L 735.772085 167.308977 
L 739.806759 155.459809 
L 743.841432 154.184739 
L 747.876106 146.617188 
L 751.910779 134.823887 
L 755.945452 127.893171 
L 759.980126 116.152506 
L 764.014799 111.803049 
L 768.049472 101.654703 
L 772.084146 92.913677 
L 776.118819 93.172633 
L 780.153492 89.722458 
L 784.188166 91.0695 
L 788.222839 90.359218 
L 792.257513 97.954352 
L 796.292186 91.74224 
L 800.326859 95.015829 
L 804.361533 101.062467 
L 808.396206 108.040398 
L 812.430879 115.332413 
L 816.465553 122.979465 
L 820.500226 126.630882 
L 824.534899 133.201106 
L 828.569573 137.838709 
L 832.604246 146.331367 
L 836.63892 151.113223 
L 840.673593 156.385851 
L 844.708266 156.166366 
L 848.74294 159.460256 
L 852.777613 165.446468 
L 856.812286 170.118477 
L 860.84696 162.665327 
L 864.881633 160.095016 
L 868.916307 159.947916 
L 872.95098 156.235159 
L 876.985653 152.108271 
L 881.020327 149.650305 
L 885.055 143.556162 
L 885.055 143.556162 
" clip-path="url(#p4872de253f)" style="fill: none; stroke: #2ca02c; stroke-width: 1.5; stroke-linecap: square"/>
   </g>
   <g id="patch_3">
    <path d="M 42.01 260.12 
L 42.01 26.88 
" style="fill: none; stroke: #000000; stroke-width: 0.8; stroke-linejoin: miter; stroke-linecap: square"/>
   </g>
   <g id="patch_4">
    <path d="M 925.2 260.12 
L 925.2 26.88 
" style="fill: none; stroke: #000000; stroke-width: 0.8; stroke-linejoin: miter; stroke-linecap: square"/>
   </g>
   <g id="patch_5">
    <path d="M 42.01 260.12 
L 925.2 260.12 
" style="fill: none; stroke: #000000; stroke-width: 0.8; stroke-linejoin: miter; stroke-linecap: square"/>
   </g>
   <g id="patch_6">
    <path d="M 42.01 26.88 
L 925.2 26.88 
" style="fill: none; stroke: #000000; stroke-width: 0.8; stroke-linejoin: miter; stroke-linecap: square"/>
   </g>
   <g id="text_19">
    <!-- Simulated observed series -->
    <g transform="translate(403.886563 20.88) scale(0.12 -0.12)">
     <defs>
      <path id="DejaVuSans-53" d="M 3425 4513 
L 3425 3897 
Q 3066 4069 2747 4153 
Q 2428 4238 2131 4238 
Q 1616 4238 1336 4038 
Q 1056 3838 1056 3469 
Q 1056 3159 1242 3001 
Q 1428 2844 1947 2747 
L 2328 2669 
Q 3034 2534 3370 2195 
Q 3706 1856 3706 1288 
Q 3706 609 3251 259 
Q 2797 -91 1919 -91 
Q 1588 -91 1214 -16 
Q 841 59 441 206 
L 441 856 
Q 825 641 1194 531 
Q 1563 422 1919 422 
Q 2459 422 2753 634 
Q 3047 847 3047 1241 
Q 3047 1584 2836 1778 
Q 2625 1972 2144 2069 
L 1759 2144 
Q 1053 2284 737 2584 
Q 422 2884 422 3419 
Q 422 4038 858 4394 
Q 1294 4750 2059 4750 
Q 2388 4750 2728 4690 
Q 3069 4631 3425 4513 
z
" transform="scale(0.015625)"/>
      <path id="DejaVuSans-69" d="M 603 3500 
L 1178 3500 
L 1178 0 
L 603 0 
L 603 3500 
z
M 603 4863 
L 1178 4863 
L 1178 4134 
L 603 4134 
L 603 4863 
z
" transform="scale(0.015625)"/>
      <path id="DejaVuSans-6d" d="M 3328 2828 
Q 3544 3216 3844 3400 
Q 4144 3584 4550 3584 
Q 5097 3584 5394 3201 
Q 5691 2819 5691 2113 
L 5691 0 
L 5113 0 
L 5113 2094 
Q 5113 2597 4934 2840 
Q 4756 3084 4391 3084 
Q 3944 3084 3684 2787 
Q 3425 2491 3425 1978 
L 3425 0 
L 2847 0 
L 2847 2094 
Q 2847 2600 2669 2842 
Q 2491 3084 2119 3084 
Q 1678 3084 1418 2786 
Q 1159 2488 1159 1978 
L 1159 0 
L 581 0 
L 581 3500 
L 1159 3500 
L 1159 2956 
Q 1356 3278 1631 3431 
Q 1906 3584 2284 3584 
Q 2666 3584 2933 3390 
Q 3200 3197 3328 2828 
z
" transform="scale(0.015625)"/>
      <path id="DejaVuSans-75" d="M 544 1381 
L 544 3500 
L 1119 3500 
L 1119 1403 
Q 1119 906 1312 657 
Q 1506 409 1894 409 
Q 2359 409 2629 706 
Q 2900 1003 2900 1516 
L 2900 3500 
L 3475 3500 
L 3475 0 
L 2900 0 
L 2900 538 
Q 2691 219 2414 64 
Q 2138 -91 1772 -91 
Q 1169 -91 856 284 
Q 544 659 544 1381 
z
M 1991 3584 
L 1991 3584 
z
" transform="scale(0.015625)"/>
      <path id="DejaVuSans-6c" d="M 603 4863 
L 1178 4863 
L 1178 0 
L 603 0 
L 603 4863 
z
" transform="scale(0.015625)"/>
      <path id="DejaVuSans-61" d="M 2194 1759 
Q 1497 1759 1228 1600 
Q 959 1441 959 1056 
Q 959 750 1161 570 
Q 1363 391 1709 391 
Q 2188 391 2477 730 
Q 2766 1069 2766 1631 
L 2766 1759 
L 2194 1759 
z
M 3341 1997 
L 3341 0 
L 2766 0 
L 2766 531 
Q 2569 213 2275 61 
Q 1981 -91 1556 -91 
Q 1019 -91 701 211 
Q 384 513 384 1019 
Q 384 1609 779 1909 
Q 1175 2209 1959 2209 
L 2766 2209 
L 2766 2266 
Q 2766 2663 2505 2880 
Q 2244 3097 1772 3097 
Q 1472 3097 1187 3025 
Q 903 2953 641 2809 
L 641 3341 
Q 956 3463 1253 3523 
Q 1550 3584 1831 3584 
Q 2591 3584 2966 3190 
Q 3341 2797 3341 1997 
z
" transform="scale(0.015625)"/>
      <path id="DejaVuSans-74" d="M 1172 4494 
L 1172 3500 
L 2356 3500 
L 2356 3053 
L 1172 3053 
L 1172 1153 
Q 1172 725 1289 603 
Q 1406 481 1766 481 
L 2356 481 
L 2356 0 
L 1766 0 
Q 1100 0 847 248 
Q 594 497 594 1153 
L 594 3053 
L 172 3053 
L 172 3500 
L 594 3500 
L 594 4494 
L 1172 4494 
z
" transform="scale(0.015625)"/>
      <path id="DejaVuSans-65" d="M 3597 1894 
L 3597 1613 
L 953 1613 
Q 991 1019 1311 708 
Q 1631 397 2203 397 
Q 2534 397 2845 478 
Q 3156 559 3463 722 
L 3463 178 
Q 3153 47 2828 -22 
Q 2503 -91 2169 -91 
Q 1331 -91 842 396 
Q 353 884 353 1716 
Q 353 2575 817 3079 
Q 1281 3584 2069 3584 
Q 2775 3584 3186 3129 
Q 3597 2675 3597 1894 
z
M 3022 2063 
Q 3016 2534 2758 2815 
Q 2500 3097 2075 3097 
Q 1594 3097 1305 2825 
Q 1016 2553 972 2059 
L 3022 2063 
z
" transform="scale(0.015625)"/>
      <path id="DejaVuSans-64" d="M 2906 2969 
L 2906 4863 
L 3481 4863 
L 3481 0 
L 2906 0 
L 2906 525 
Q 2725 213 2448 61 
Q 2172 -91 1784 -91 
Q 1150 -91 751 415 
Q 353 922 353 1747 
Q 353 2572 751 3078 
Q 1150 3584 1784 3584 
Q 2172 3584 2448 3432 
Q 2725 3281 2906 2969 
z
M 947 1747 
Q 947 1113 1208 752 
Q 1469 391 1925 391 
Q 2381 391 2643 752 
Q 2906 1113 2906 1747 
Q 2906 2381 2643 2742 
Q 2381 3103 1925 3103 
Q 1469 3103 1208 2742 
Q 947 2381 947 1747 
z
" transform="scale(0.015625)"/>
      <path id="DejaVuSans-20" transform="scale(0.015625)"/>
      <path id="DejaVuSans-6f" d="M 1959 3097 
Q 1497 3097 1228 2736 
Q 959 2375 959 1747 
Q 959 1119 1226 758 
Q 1494 397 1959 397 
Q 2419 397 2687 759 
Q 2956 1122 2956 1747 
Q 2956 2369 2687 2733 
Q 2419 3097 1959 3097 
z
M 1959 3584 
Q 2709 3584 3137 3096 
Q 3566 2609 3566 1747 
Q 3566 888 3137 398 
Q 2709 -91 1959 -91 
Q 1206 -91 779 398 
Q 353 888 353 1747 
Q 353 2609 779 3096 
Q 1206 3584 1959 3584 
z
" transform="scale(0.015625)"/>
      <path id="DejaVuSans-62" d="M 3116 1747 
Q 3116 2381 2855 2742 
Q 2594 3103 2138 3103 
Q 1681 3103 1420 2742 
Q 1159 2381 1159 1747 
Q 1159 1113 1420 752 
Q 1681 391 2138 391 
Q 2594 391 2855 752 
Q 3116 1113 3116 1747 
z
M 1159 2969 
Q 1341 3281 1617 3432 
Q 1894 3584 2278 3584 
Q 2916 3584 3314 3078 
Q 3713 2572 3713 1747 
Q 3713 922 3314 415 
Q 2916 -91 2278 -91 
Q 1894 -91 1617 61 
Q 1341 213 1159 525 
L 1159 0 
L 581 0 
L 581 4863 
L 1159 4863 
L 1159 2969 
z
" transform="scale(0.015625)"/>
      <path id="DejaVuSans-73" d="M 2834 3397 
L 2834 2853 
Q 2591 2978 2328 3040 
Q 2066 3103 1784 3103 
Q 1356 3103 1142 2972 
Q 928 2841 928 2578 
Q 928 2378 1081 2264 
Q 1234 2150 1697 2047 
L 1894 2003 
Q 2506 1872 2764 1633 
Q 3022 1394 3022 966 
Q 3022 478 2636 193 
Q 2250 -91 1575 -91 
Q 1294 -91 989 -36 
Q 684 19 347 128 
L 347 722 
Q 666 556 975 473 
Q 1284 391 1588 391 
Q 1994 391 2212 530 
Q 2431 669 2431 922 
Q 2431 1156 2273 1281 
Q 2116 1406 1581 1522 
L 1381 1569 
Q 847 1681 609 1914 
Q 372 2147 372 2553 
Q 372 3047 722 3315 
Q 1072 3584 1716 3584 
Q 2034 3584 2315 3537 
Q 2597 3491 2834 3397 
z
" transform="scale(0.015625)"/>
      <path id="DejaVuSans-72" d="M 2631 2963 
Q 2534 3019 2420 3045 
Q 2306 3072 2169 3072 
Q 1681 3072 1420 2755 
Q 1159 2438 1159 1844 
L 1159 0 
L 581 0 
L 581 3500 
L 1159 3500 
L 1159 2956 
Q 1341 3275 1631 3429 
Q 1922 3584 2338 3584 
Q 2397 3584 2469 3576 
Q 2541 3569 2628 3553 
L 2631 2963 
z
" transform="scale(0.015625)"/>
      <path id="DejaVuSans-76" d="M 191 3500 
L 800 3500 
L 1894 563 
L 2988 3500 
L 3597 3500 
L 2284 0 
L 1503 0 
L 191 3500 
z
" transform="scale(0.015625)"/>
     </defs>
     <use xlink:href="#DejaVuSans-53"/>
     <use xlink:href="#DejaVuSans-69" transform="translate(63.476562 0)"/>
     <use xlink:href="#DejaVuSans-6d" transform="translate(91.259766 0)"/>
     <use xlink:href="#DejaVuSans-75" transform="translate(188.671875 0)"/>
     <use xlink:href="#DejaVuSans-6c" transform="translate(252.050781 0)"/>
     <use xlink:href="#DejaVuSans-61" transform="translate(279.833984 0)"/>
     <use xlink:href="#DejaVuSans-74" transform="translate(341.113281 0)"/>
     <use xlink:href="#DejaVuSans-65" transform="translate(380.322266 0)"/>
     <use xlink:href="#DejaVuSans-64" transform="translate(441.845703 0)"/>
     <use xlink:href="#DejaVuSans-20" transform="translate(505.322266 0)"/>
     <use xlink:href="#DejaVuSans-6f" transform="translate(537.109375 0)"/>
     <use xlink:href="#DejaVuSans-62" transform="translate(598.291016 0)"/>
     <use xlink:href="#DejaVuSans-73" transform="translate(661.767578 0)"/>
     <use xlink:href="#DejaVuSans-65" transform="translate(713.867188 0)"/>
     <use xlink:href="#DejaVuSans-72" transform="translate(775.390625 0)"/>
     <use xlink:href="#DejaVuSans-76" transform="translate(816.503906 0)"/>
     <use xlink:href="#DejaVuSans-65" transform="translate(875.683594 0)"/>
     <use xlink:href="#DejaVuSans-64" transform="translate(937.207031 0)"/>
     <use xlink:href="#DejaVuSans-20" transform="translate(1000.683594 0)"/>
     <use xlink:href="#DejaVuSans-73" transform="translate(1032.470703 0)"/>
     <use xlink:href="#DejaVuSans-65" transform="translate(1084.570312 0)"/>
     <use xlink:href="#DejaVuSans-72" transform="translate(1146.09375 0)"/>
     <use xlink:href="#DejaVuSans-69" transform="translate(1187.207031 0)"/>
     <use xlink:href="#DejaVuSans-65" transform="translate(1214.990234 0)"/>
     <use xlink:href="#DejaVuSans-73" transform="translate(1276.513672 0)"/>
    </g>
   </g>
   <g id="legend_1">
    <g id="patch_7">
     <path d="M 49.01 255.12 
L 147.239688 255.12 
Q 149.239688 255.12 149.239688 253.12 
L 149.239688 210.085625 
Q 149.239688 208.085625 147.239688 208.085625 
L 49.01 208.085625 
Q 47.01 208.085625 47.01 210.085625 
L 47.01 253.12 
Q 47.01 255.12 49.01 255.12 
z
" style="fill: #ffffff; opacity: 0.8; stroke: #cccccc; stroke-linejoin: miter"/>
    </g>
    <g id="line2d_31">
     <path d="M 51.01 216.184062 
L 61.01 216.184062 
L 71.01 216.184062 
" style="fill: none; stroke: #1f77b4; stroke-width: 1.5; stroke-linecap: square"/>
    </g>
    <g id="text_20">
     <!-- Output -->
     <g transform="translate(79.01 219.684062) scale(0.1 -0.1)">
      <defs>
       <path id="DejaVuSans-4f" d="M 2522 4238 
Q 1834 4238 1429 3725 
Q 1025 3213 1025 2328 
Q 1025 1447 1429 934 
Q 1834 422 2522 422 
Q 3209 422 3611 934 
Q 4013 1447 4013 2328 
Q 4013 3213 3611 3725 
Q 3209 4238 2522 4238 
z
M 2522 4750 
Q 3503 4750 4090 4092 
Q 4678 3434 4678 2328 
Q 4678 1225 4090 567 
Q 3503 -91 2522 -91 
Q 1538 -91 948 565 
Q 359 1222 359 2328 
Q 359 3434 948 4092 
Q 1538 4750 2522 4750 
z
" transform="scale(0.015625)"/>
       <path id="DejaVuSans-70" d="M 1159 525 
L 1159 -1331 
L 581 -1331 
L 581 3500 
L 1159 3500 
L 1159 2969 
Q 1341 3281 1617 3432 
Q 1894 3584 2278 3584 
Q 2916 3584 3314 3078 
Q 3713 2572 3713 1747 
Q 3713 922 3314 415 
Q 2916 -91 2278 -91 
Q 1894 -91 1617 61 
Q 1341 213 1159 525 
z
M 3116 1747 
Q 3116 2381 2855 2742 
Q 2594 3103 2138 3103 
Q 1681 3103 1420 2742 
Q 1159 2381 1159 1747 
Q 1159 1113 1420 752 
Q 1681 391 2138 391 
Q 2594 391 2855 752 
Q 3116 1113 3116 1747 
z
" transform="scale(0.015625)"/>
      </defs>
      <use xlink:href="#DejaVuSans-4f"/>
      <use xlink:href="#DejaVuSans-75" transform="translate(78.710938 0)"/>
      <use xlink:href="#DejaVuSans-74" transform="translate(142.089844 0)"/>
      <use xlink:href="#DejaVuSans-70" transform="translate(181.298828 0)"/>
      <use xlink:href="#DejaVuSans-75" transform="translate(244.775391 0)"/>
      <use xlink:href="#DejaVuSans-74" transform="translate(308.154297 0)"/>
     </g>
    </g>
    <g id="line2d_32">
     <path d="M 51.01 230.862187 
L 61.01 230.862187 
L 71.01 230.862187 
" style="fill: none; stroke: #ff7f0e; stroke-width: 1.5; stroke-linecap: square"/>
    </g>
    <g id="text_21">
     <!-- Labor -->
     <g transform="translate(79.01 234.362187) scale(0.1 -0.1)">
      <defs>
       <path id="DejaVuSans-4c" d="M 628 4666 
L 1259 4666 
L 1259 531 
L 3531 531 
L 3531 0 
L 628 0 
L 628 4666 
z
" transform="scale(0.015625)"/>
      </defs>
      <use xlink:href="#DejaVuSans-4c"/>
      <use xlink:href="#DejaVuSans-61" transform="translate(55.712891 0)"/>
      <use xlink:href="#DejaVuSans-62" transform="translate(116.992188 0)"/>
      <use xlink:href="#DejaVuSans-6f" transform="translate(180.46875 0)"/>
      <use xlink:href="#DejaVuSans-72" transform="translate(241.650391 0)"/>
     </g>
    </g>
    <g id="line2d_33">
     <path d="M 51.01 245.540312 
L 61.01 245.540312 
L 71.01 245.540312 
" style="fill: none; stroke: #2ca02c; stroke-width: 1.5; stroke-linecap: square"/>
    </g>
    <g id="text_22">
     <!-- Consumption -->
     <g transform="translate(79.01 249.040312) scale(0.1 -0.1)">
      <defs>
       <path id="DejaVuSans-43" d="M 4122 4306 
L 4122 3641 
Q 3803 3938 3442 4084 
Q 3081 4231 2675 4231 
Q 1875 4231 1450 3742 
Q 1025 3253 1025 2328 
Q 1025 1406 1450 917 
Q 1875 428 2675 428 
Q 3081 428 3442 575 
Q 3803 722 4122 1019 
L 4122 359 
Q 3791 134 3420 21 
Q 3050 -91 2638 -91 
Q 1578 -91 968 557 
Q 359 1206 359 2328 
Q 359 3453 968 4101 
Q 1578 4750 2638 4750 
Q 3056 4750 3426 4639 
Q 3797 4528 4122 4306 
z
" transform="scale(0.015625)"/>
       <path id="DejaVuSans-6e" d="M 3513 2113 
L 3513 0 
L 2938 0 
L 2938 2094 
Q 2938 2591 2744 2837 
Q 2550 3084 2163 3084 
Q 1697 3084 1428 2787 
Q 1159 2491 1159 1978 
L 1159 0 
L 581 0 
L 581 3500 
L 1159 3500 
L 1159 2956 
Q 1366 3272 1645 3428 
Q 1925 3584 2291 3584 
Q 2894 3584 3203 3211 
Q 3513 2838 3513 2113 
z
" transform="scale(0.015625)"/>
      </defs>
      <use xlink:href="#DejaVuSans-43"/>
      <use xlink:href="#DejaVuSans-6f" transform="translate(69.824219 0)"/>
      <use xlink:href="#DejaVuSans-6e" transform="translate(131.005859 0)"/>
      <use xlink:href="#DejaVuSans-73" transform="translate(194.384766 0)"/>
      <use xlink:href="#DejaVuSans-75" transform="translate(246.484375 0)"/>
      <use xlink:href="#DejaVuSans-6d" transform="translate(309.863281 0)"/>
      <use xlink:href="#DejaVuSans-70" transform="translate(407.275391 0)"/>
      <use xlink:href="#DejaVuSans-74" transform="translate(470.751953 0)"/>
      <use xlink:href="#DejaVuSans-69" transform="translate(509.960938 0)"/>
      <use xlink:href="#DejaVuSans-6f" transform="translate(537.744141 0)"/>
      <use xlink:href="#DejaVuSans-6e" transform="translate(598.925781 0)"/>
     </g>
    </g>
   </g>
  </g>
 </g>
 <defs>
  <clipPath id="p4872de253f">
   <rect x="42.01" y="26.88" width="883.19" height="233.24"/>
  </clipPath>
 </defs>
</svg>
