<?xml version="1.0" encoding="utf-8" standalone="no"?>
<!DOCTYPE svg PUBLIC "-//W3C//DTD SVG 1.1//EN"
  "http://www.w3.org/Graphics/SVG/1.1/DTD/svg11.dtd">
<svg xmlns:xlink="http://www.w3.org/1999/xlink" width="936pt" height="288pt" viewBox="0 0 936 288" xmlns="http://www.w3.org/2000/svg" version="1.1">
 <metadata>
  <rdf:RDF xmlns:dc="http://purl.org/dc/elements/1.1/" xmlns:cc="http://creativecommons.org/ns#" xmlns:rdf="http://www.w3.org/1999/02/22-rdf-syntax-ns#">
   <cc:Work>
    <dc:type rdf:resource="http://purl.org/dc/dcmitype/StillImage"/>
    <dc:format>image/svg+xml</dc:format>
    <dc:creator>
     <cc:Agent>
      <dc:title>Matplotlib v3.10.6, https://matplotlib.org/</dc:title>
     </cc:Agent>
    </dc:creator>
   </cc:Work>
  </rdf:RDF>
 </metadata>
 <defs>
  <style type="text/css">*{stroke-linejoin: round; stroke-linecap: butt}</style>
 </defs>
 <g id="figure_1">
  <g id="patch_1">
   <path d="M 0 288 
L 936 288 
L 936 0 
L 0 0 
z
" style="fill: #ffffff"/>
  </g>
  <g id="axes_1">
   <g id="patch_2">
    <path d="M 42.01 260.12 
L 925.2 260.12 
L 925.2 26.88 
L 42.01 26.88 
z
" style="fill: #ffffff"/>
   </g>
   <g id="matplotlib.axis_1">
    <g id="xtick_1">
     <g id="line2d_1">
      <path d="M 82.155 260.12 
L 82.155 26.88 
" clip-path="url(#p41fe8f4dec)" style="fill: none; stroke: #b0b0b0; stroke-width: 0.8; stroke-linecap: square"/>
     </g>
     <g id="line2d_2">
      <defs>
       <path id="md413ddd0d5" d="M 0 0 
L 0 3.5 
" style="stroke: #000000; stroke-width: 0.8"/>
      </defs>
      <g>
       <use xlink:href="#md413ddd0d5" x="82.155" y="260.12" style="stroke: #000000; stroke-width: 0.8"/>
      </g>
     </g>
     <g id="text_1">
      <!-- 0 -->
      <g transform="translate(78.97375 274.718437) scale(0.1 -0.1)">
       <defs>
        <path id="DejaVuSans-30" d="M 2034 4250 
Q 1547 4250 1301 3770 
Q 1056 3291 1056 2328 
Q 1056 1369 1301 889 
Q 1547 409 2034 409 
Q 2525 409 2770 889 
Q 3016 1369 3016 2328 
Q 3016 3291 2770 3770 
Q 2525 4250 2034 4250 
z
M 2034 4750 
Q 2819 4750 3233 4129 
Q 3647 3509 3647 2328 
Q 3647 1150 3233 529 
Q 2819 -91 2034 -91 
Q 1250 -91 836 529 
Q 422 1150 422 2328 
Q 422 3509 836 4129 
Q 1250 4750 2034 4750 
z
" transform="scale(0.015625)"/>
       </defs>
       <use xlink:href="#DejaVuSans-30"/>
      </g>
     </g>
    </g>
    <g id="xtick_2">
     <g id="line2d_3">
      <path d="M 183.021834 260.12 
L 183.021834 26.88 
" clip-path="url(#p41fe8f4dec)" style="fill: none; stroke: #b0b0b0; stroke-width: 0.8; stroke-linecap: square"/>
     </g>
     <g id="line2d_4">
      <g>
       <use xlink:href="#md413ddd0d5" x="183.021834" y="260.12" style="stroke: #000000; stroke-width: 0.8"/>
      </g>
     </g>
     <g id="text_2">
      <!-- 25 -->
      <g transform="translate(176.659334 274.718437) scale(0.1 -0.1)">
       <defs>
        <path id="DejaVuSans-32" d="M 1228 531 
L 3431 531 
L 3431 0 
L 469 0 
L 469 531 
Q 828 903 1448 1529 
Q 2069 2156 2228 2338 
Q 2531 2678 2651 2914 
Q 2772 3150 2772 3378 
Q 2772 3750 2511 3984 
Q 2250 4219 1831 4219 
Q 1534 4219 1204 4116 
Q 875 4013 500 3803 
L 500 4441 
Q 881 4594 1212 4672 
Q 1544 4750 1819 4750 
Q 2544 4750 2975 4387 
Q 3406 4025 3406 3419 
Q 3406 3131 3298 2873 
Q 3191 2616 2906 2266 
Q 2828 2175 2409 1742 
Q 1991 1309 1228 531 
z
" transform="scale(0.015625)"/>
        <path id="DejaVuSans-35" d="M 691 4666 
L 3169 4666 
L 3169 4134 
L 1269 4134 
L 1269 2991 
Q 1406 3038 1543 3061 
Q 1681 3084 1819 3084 
Q 2600 3084 3056 2656 
Q 3513 2228 3513 1497 
Q 3513 744 3044 326 
Q 2575 -91 1722 -91 
Q 1428 -91 1123 -41 
Q 819 9 494 109 
L 494 744 
Q 775 591 1075 516 
Q 1375 441 1709 441 
Q 2250 441 2565 725 
Q 2881 1009 2881 1497 
Q 2881 1984 2565 2268 
Q 2250 2553 1709 2553 
Q 1456 2553 1204 2497 
Q 953 2441 691 2322 
L 691 4666 
z
" transform="scale(0.015625)"/>
       </defs>
       <use xlink:href="#DejaVuSans-32"/>
       <use xlink:href="#DejaVuSans-35" transform="translate(63.623047 0)"/>
      </g>
     </g>
    </g>
    <g id="xtick_3">
     <g id="line2d_5">
      <path d="M 283.888668 260.12 
L 283.888668 26.88 
" clip-path="url(#p41fe8f4dec)" style="fill: none; stroke: #b0b0b0; stroke-width: 0.8; stroke-linecap: square"/>
     </g>
     <g id="line2d_6">
      <g>
       <use xlink:href="#md413ddd0d5" x="283.888668" y="260.12" style="stroke: #000000; stroke-width: 0.8"/>
      </g>
     </g>
     <g id="text_3">
      <!-- 50 -->
      <g transform="translate(277.526168 274.718437) scale(0.1 -0.1)">
       <use xlink:href="#DejaVuSans-35"/>
       <use xlink:href="#DejaVuSans-30" transform="translate(63.623047 0)"/>
      </g>
     </g>
    </g>
    <g id="xtick_4">
     <g id="line2d_7">
      <path d="M 384.755503 260.12 
L 384.755503 26.88 
" clip-path="url(#p41fe8f4dec)" style="fill: none; stroke: #b0b0b0; stroke-width: 0.8; stroke-linecap: square"/>
     </g>
     <g id="line2d_8">
      <g>
       <use xlink:href="#md413ddd0d5" x="384.755503" y="260.12" style="stroke: #000000; stroke-width: 0.8"/>
      </g>
     </g>
     <g id="text_4">
      <!-- 75 -->
      <g transform="translate(378.393003 274.718437) scale(0.1 -0.1)">
       <defs>
        <path id="DejaVuSans-37" d="M 525 4666 
L 3525 4666 
L 3525 4397 
L 1831 0 
L 1172 0 
L 2766 4134 
L 525 4134 
L 525 4666 
z
" transform="scale(0.015625)"/>
       </defs>
       <use xlink:href="#DejaVuSans-37"/>
       <use xlink:href="#DejaVuSans-35" transform="translate(63.623047 0)"/>
      </g>
     </g>
    </g>
    <g id="xtick_5">
     <g id="line2d_9">
      <path d="M 485.622337 260.12 
L 485.622337 26.88 
" clip-path="url(#p41fe8f4dec)" style="fill: none; stroke: #b0b0b0; stroke-width: 0.8; stroke-linecap: square"/>
     </g>
     <g id="line2d_10">
      <g>
       <use xlink:href="#md413ddd0d5" x="485.622337" y="260.12" style="stroke: #000000; stroke-width: 0.8"/>
      </g>
     </g>
     <g id="text_5">
      <!-- 100 -->
      <g transform="translate(476.078587 274.718437) scale(0.1 -0.1)">
       <defs>
        <path id="DejaVuSans-31" d="M 794 531 
L 1825 531 
L 1825 4091 
L 703 3866 
L 703 4441 
L 1819 4666 
L 2450 4666 
L 2450 531 
L 3481 531 
L 3481 0 
L 794 0 
L 794 531 
z
" transform="scale(0.015625)"/>
       </defs>
       <use xlink:href="#DejaVuSans-31"/>
       <use xlink:href="#DejaVuSans-30" transform="translate(63.623047 0)"/>
       <use xlink:href="#DejaVuSans-30" transform="translate(127.246094 0)"/>
      </g>
     </g>
    </g>
    <g id="xtick_6">
     <g id="line2d_11">
      <path d="M 586.489171 260.12 
L 586.489171 26.88 
" clip-path="url(#p41fe8f4dec)" style="fill: none; stroke: #b0b0b0; stroke-width: 0.8; stroke-linecap: square"/>
     </g>
     <g id="line2d_12">
      <g>
       <use xlink:href="#md413ddd0d5" x="586.489171" y="260.12" style="stroke: #000000; stroke-width: 0.8"/>
      </g>
     </g>
     <g id="text_6">
      <!-- 125 -->
      <g transform="translate(576.945421 274.718437) scale(0.1 -0.1)">
       <use xlink:href="#DejaVuSans-31"/>
       <use xlink:href="#DejaVuSans-32" transform="translate(63.623047 0)"/>
       <use xlink:href="#DejaVuSans-35" transform="translate(127.246094 0)"/>
      </g>
     </g>
    </g>
    <g id="xtick_7">
     <g id="line2d_13">
      <path d="M 687.356005 260.12 
L 687.356005 26.88 
" clip-path="url(#p41fe8f4dec)" style="fill: none; stroke: #b0b0b0; stroke-width: 0.8; stroke-linecap: square"/>
     </g>
     <g id="line2d_14">
      <g>
       <use xlink:href="#md413ddd0d5" x="687.356005" y="260.12" style="stroke: #000000; stroke-width: 0.8"/>
      </g>
     </g>
     <g id="text_7">
      <!-- 150 -->
      <g transform="translate(677.812255 274.718437) scale(0.1 -0.1)">
       <use xlink:href="#DejaVuSans-31"/>
       <use xlink:href="#DejaVuSans-35" transform="translate(63.623047 0)"/>
       <use xlink:href="#DejaVuSans-30" transform="translate(127.246094 0)"/>
      </g>
     </g>
    </g>
    <g id="xtick_8">
     <g id="line2d_15">
      <path d="M 788.222839 260.12 
L 788.222839 26.88 
" clip-path="url(#p41fe8f4dec)" style="fill: none; stroke: #b0b0b0; stroke-width: 0.8; stroke-linecap: square"/>
     </g>
     <g id="line2d_16">
      <g>
       <use xlink:href="#md413ddd0d5" x="788.222839" y="260.12" style="stroke: #000000; stroke-width: 0.8"/>
      </g>
     </g>
     <g id="text_8">
      <!-- 175 -->
      <g transform="translate(778.679089 274.718437) scale(0.1 -0.1)">
       <use xlink:href="#DejaVuSans-31"/>
       <use xlink:href="#DejaVuSans-37" transform="translate(63.623047 0)"/>
       <use xlink:href="#DejaVuSans-35" transform="translate(127.246094 0)"/>
      </g>
     </g>
    </g>
    <g id="xtick_9">
     <g id="line2d_17">
      <path d="M 889.089673 260.12 
L 889.089673 26.88 
" clip-path="url(#p41fe8f4dec)" style="fill: none; stroke: #b0b0b0; stroke-width: 0.8; stroke-linecap: square"/>
     </g>
     <g id="line2d_18">
      <g>
       <use xlink:href="#md413ddd0d5" x="889.089673" y="260.12" style="stroke: #000000; stroke-width: 0.8"/>
      </g>
     </g>
     <g id="text_9">
      <!-- 200 -->
      <g transform="translate(879.545923 274.718437) scale(0.1 -0.1)">
       <use xlink:href="#DejaVuSans-32"/>
       <use xlink:href="#DejaVuSans-30" transform="translate(63.623047 0)"/>
       <use xlink:href="#DejaVuSans-30" transform="translate(127.246094 0)"/>
      </g>
     </g>
    </g>
   </g>
   <g id="matplotlib.axis_2">
    <g id="ytick_1">
     <g id="line2d_19">
      <defs>
       <path id="m07c75feeff" d="M 0 0 
L -3.5 0 
" style="stroke: #000000; stroke-width: 0.8"/>
      </defs>
      <g>
       <use xlink:href="#m07c75feeff" x="42.01" y="254.285548" style="stroke: #000000; stroke-width: 0.8"/>
      </g>
     </g>
     <g id="text_10">
      <!-- −0.3 -->
      <g transform="translate(10.727188 258.084767) scale(0.1 -0.1)">
       <defs>
        <path id="DejaVuSans-2212" d="M 678 2272 
L 4684 2272 
L 4684 1741 
L 678 1741 
L 678 2272 
z
" transform="scale(0.015625)"/>
        <path id="DejaVuSans-2e" d="M 684 794 
L 1344 794 
L 1344 0 
L 684 0 
L 684 794 
z
" transform="scale(0.015625)"/>
        <path id="DejaVuSans-33" d="M 2597 2516 
Q 3050 2419 3304 2112 
Q 3559 1806 3559 1356 
Q 3559 666 3084 287 
Q 2609 -91 1734 -91 
Q 1441 -91 1130 -33 
Q 819 25 488 141 
L 488 750 
Q 750 597 1062 519 
Q 1375 441 1716 441 
Q 2309 441 2620 675 
Q 2931 909 2931 1356 
Q 2931 1769 2642 2001 
Q 2353 2234 1838 2234 
L 1294 2234 
L 1294 2753 
L 1863 2753 
Q 2328 2753 2575 2939 
Q 2822 3125 2822 3475 
Q 2822 3834 2567 4026 
Q 2313 4219 1838 4219 
Q 1578 4219 1281 4162 
Q 984 4106 628 3988 
L 628 4550 
Q 988 4650 1302 4700 
Q 1616 4750 1894 4750 
Q 2613 4750 3031 4423 
Q 3450 4097 3450 3541 
Q 3450 3153 3228 2886 
Q 3006 2619 2597 2516 
z
" transform="scale(0.015625)"/>
       </defs>
       <use xlink:href="#DejaVuSans-2212"/>
       <use xlink:href="#DejaVuSans-30" transform="translate(83.789062 0)"/>
       <use xlink:href="#DejaVuSans-2e" transform="translate(147.412109 0)"/>
       <use xlink:href="#DejaVuSans-33" transform="translate(179.199219 0)"/>
      </g>
     </g>
    </g>
    <g id="ytick_2">
     <g id="line2d_20">
      <g>
       <use xlink:href="#m07c75feeff" x="42.01" y="213.885375" style="stroke: #000000; stroke-width: 0.8"/>
      </g>
     </g>
     <g id="text_11">
      <!-- −0.2 -->
      <g transform="translate(10.727188 217.684593) scale(0.1 -0.1)">
       <use xlink:href="#DejaVuSans-2212"/>
       <use xlink:href="#DejaVuSans-30" transform="translate(83.789062 0)"/>
       <use xlink:href="#DejaVuSans-2e" transform="translate(147.412109 0)"/>
       <use xlink:href="#DejaVuSans-32" transform="translate(179.199219 0)"/>
      </g>
     </g>
    </g>
    <g id="ytick_3">
     <g id="line2d_21">
      <g>
       <use xlink:href="#m07c75feeff" x="42.01" y="173.485201" style="stroke: #000000; stroke-width: 0.8"/>
      </g>
     </g>
     <g id="text_12">
      <!-- −0.1 -->
      <g transform="translate(10.727188 177.28442) scale(0.1 -0.1)">
       <use xlink:href="#DejaVuSans-2212"/>
       <use xlink:href="#DejaVuSans-30" transform="translate(83.789062 0)"/>
       <use xlink:href="#DejaVuSans-2e" transform="translate(147.412109 0)"/>
       <use xlink:href="#DejaVuSans-31" transform="translate(179.199219 0)"/>
      </g>
     </g>
    </g>
    <g id="ytick_4">
     <g id="line2d_22">
      <g>
       <use xlink:href="#m07c75feeff" x="42.01" y="133.085028" style="stroke: #000000; stroke-width: 0.8"/>
      </g>
     </g>
     <g id="text_13">
      <!-- 0.0 -->
      <g transform="translate(19.106875 136.884247) scale(0.1 -0.1)">
       <use xlink:href="#DejaVuSans-30"/>
       <use xlink:href="#DejaVuSans-2e" transform="translate(63.623047 0)"/>
       <use xlink:href="#DejaVuSans-30" transform="translate(95.410156 0)"/>
      </g>
     </g>
    </g>
    <g id="ytick_5">
     <g id="line2d_23">
      <g>
       <use xlink:href="#m07c75feeff" x="42.01" y="92.684854" style="stroke: #000000; stroke-width: 0.8"/>
      </g>
     </g>
     <g id="text_14">
      <!-- 0.1 -->
      <g transform="translate(19.106875 96.484073) scale(0.1 -0.1)">
       <use xlink:href="#DejaVuSans-30"/>
       <use xlink:href="#DejaVuSans-2e" transform="translate(63.623047 0)"/>
       <use xlink:href="#DejaVuSans-31" transform="translate(95.410156 0)"/>
      </g>
     </g>
    </g>
    <g id="ytick_6">
     <g id="line2d_24">
      <g>
       <use xlink:href="#m07c75feeff" x="42.01" y="52.284681" style="stroke: #000000; stroke-width: 0.8"/>
      </g>
     </g>
     <g id="text_15">
      <!-- 0.2 -->
      <g transform="translate(19.106875 56.0839) scale(0.1 -0.1)">
       <use xlink:href="#DejaVuSans-30"/>
       <use xlink:href="#DejaVuSans-2e" transform="translate(63.623047 0)"/>
       <use xlink:href="#DejaVuSans-32" transform="translate(95.410156 0)"/>
      </g>
     </g>
    </g>
   </g>
   <g id="line2d_25">
    <path d="M 82.155 172.978003 
L 86.189673 176.682436 
L 90.224347 178.465721 
L 94.25902 176.495333 
L 102.328367 180.174195 
L 106.36304 179.005384 
L 110.397714 175.498998 
L 114.432387 166.027677 
L 118.46706 152.240104 
L 122.501734 140.242018 
L 126.536407 141.929281 
L 130.57108 147.692214 
L 134.605754 152.05777 
L 138.640427 159.53586 
L 142.675101 167.562168 
L 146.709774 175.259153 
L 150.744447 175.929285 
L 154.779121 174.301668 
L 158.813794 173.767134 
L 162.848467 173.113453 
L 166.883141 176.251271 
L 170.917814 187.16984 
L 178.987161 203.026016 
L 183.021834 193.577306 
L 187.056508 181.643701 
L 191.091181 174.160066 
L 195.125854 160.629484 
L 199.160528 150.200797 
L 203.195201 146.656645 
L 207.229874 157.731153 
L 211.264548 167.388689 
L 215.299221 175.390073 
L 219.333894 182.25364 
L 223.368568 179.370634 
L 227.403241 173.74184 
L 231.437915 165.392872 
L 235.472588 165.638701 
L 239.507261 171.135944 
L 243.541935 166.834586 
L 247.576608 159.353731 
L 251.611281 153.718401 
L 255.645955 144.208803 
L 263.715302 126.391479 
L 267.749975 120.663603 
L 271.784648 116.713426 
L 275.819322 117.317835 
L 279.853995 125.222462 
L 283.888668 130.060589 
L 287.923342 145.203115 
L 291.958015 144.443426 
L 295.992688 136.228762 
L 300.027362 130.741894 
L 304.062035 123.610972 
L 308.096709 122.264593 
L 312.131382 122.994057 
L 316.166055 133.353112 
L 320.200729 149.220314 
L 324.235402 165.869539 
L 328.270075 190.060831 
L 332.304749 197.631487 
L 336.339422 202.263224 
L 340.374095 205.519526 
L 344.408769 211.527589 
L 348.443442 213.087502 
L 352.478116 199.334111 
L 356.512789 181.396289 
L 360.547462 162.700656 
L 364.582136 156.101355 
L 368.616809 152.724147 
L 372.651482 142.39895 
L 376.686156 141.146621 
L 380.720829 136.037435 
L 384.755503 126.852782 
L 388.790176 119.400622 
L 392.824849 115.734304 
L 396.859523 106.293623 
L 400.894196 100.831859 
L 404.928869 94.278038 
L 408.963543 91.052608 
L 412.998216 89.73485 
L 417.032889 90.327428 
L 425.102236 81.247229 
L 429.13691 73.170214 
L 433.171583 69.614747 
L 437.206256 68.384522 
L 441.24093 71.312253 
L 445.275603 74.854708 
L 449.310276 83.950336 
L 453.34495 95.271436 
L 457.379623 96.186165 
L 461.414296 103.930535 
L 465.44897 116.523725 
L 469.483643 134.172052 
L 473.518317 140.963522 
L 477.55299 145.118823 
L 481.587663 140.5557 
L 485.622337 138.645629 
L 489.65701 139.753834 
L 493.691683 137.428674 
L 497.726357 131.734268 
L 501.76103 129.243835 
L 505.795704 121.726009 
L 509.830377 111.904929 
L 513.86505 106.98761 
L 517.899724 103.066034 
L 521.934397 96.070263 
L 525.96907 102.415033 
L 530.003744 115.617568 
L 534.038417 120.841908 
L 538.07309 122.421149 
L 542.107764 128.821388 
L 546.142437 139.26743 
L 550.177111 160.038478 
L 554.211784 173.663446 
L 558.246457 181.299002 
L 562.281131 181.65393 
L 566.315804 179.806906 
L 570.350477 173.58046 
L 574.385151 164.840845 
L 578.419824 164.029842 
L 582.454497 168.370809 
L 586.489171 175.706725 
L 590.523844 184.824988 
L 594.558518 186.950057 
L 598.593191 186.499234 
L 602.627864 180.243454 
L 606.662538 183.048642 
L 610.697211 188.955159 
L 614.731884 196.838075 
L 618.766558 202.748113 
L 622.801231 207.490809 
L 626.835905 214.605061 
L 630.870578 220.218121 
L 634.905251 231.047319 
L 638.939925 236.004798 
L 642.974598 237.646682 
L 647.009271 244.095101 
L 651.043945 241.058506 
L 655.078618 245.141584 
L 659.113291 239.950176 
L 663.147965 231.822285 
L 667.182638 225.452762 
L 671.217312 216.328174 
L 675.251985 208.916704 
L 679.286658 212.993752 
L 683.321332 212.56693 
L 687.356005 214.964935 
L 691.390678 220.649823 
L 695.425352 238.477664 
L 699.460025 249.518182 
L 703.494698 248.352477 
L 707.529372 242.998422 
L 711.564045 238.395372 
L 715.598719 222.71286 
L 719.633392 216.868646 
L 723.668065 214.601381 
L 727.702739 211.847634 
L 731.737412 206.808988 
L 735.772085 213.195177 
L 739.806759 206.660597 
L 743.841432 191.368704 
L 747.876106 181.932587 
L 751.910779 169.355928 
L 755.945452 150.893126 
L 759.980126 134.130407 
L 764.014799 113.484619 
L 768.049472 98.12721 
L 776.118819 61.333998 
L 780.153492 51.721265 
L 784.188166 43.151391 
L 788.222839 39.916677 
L 792.257513 37.481818 
L 796.292186 43.746685 
L 800.326859 40.904652 
L 804.361533 42.647617 
L 808.396206 49.601124 
L 812.430879 60.264746 
L 816.465553 73.222464 
L 820.500226 87.758895 
L 824.534899 99.158539 
L 828.569573 111.790365 
L 832.604246 123.155211 
L 836.63892 137.68329 
L 840.673593 150.204445 
L 844.708266 162.142706 
L 848.74294 168.299288 
L 852.777613 174.86786 
L 860.84696 194.048919 
L 864.881633 191.810929 
L 868.916307 188.055659 
L 872.95098 185.903773 
L 876.985653 181.056553 
L 881.020327 174.357493 
L 885.055 168.33185 
L 885.055 168.33185 
" clip-path="url(#p41fe8f4dec)" style="fill: none; stroke: #1f77b4; stroke-width: 1.5; stroke-linecap: square"/>
   </g>
   <g id="line2d_26">
    <path d="M 82.155 159.164533 
L 86.189673 154.493358 
L 90.224347 143.386635 
L 94.25902 154.698244 
L 98.293693 155.183163 
L 102.328367 146.516752 
L 106.36304 138.772794 
L 110.397714 118.821921 
L 114.432387 101.868561 
L 118.46706 102.467649 
L 122.501734 140.966135 
L 126.536407 154.340821 
L 130.57108 152.056904 
L 134.605754 163.38782 
L 138.640427 167.818742 
L 142.675101 169.700784 
L 146.709774 150.491109 
L 150.744447 143.53933 
L 154.779121 146.371368 
L 158.813794 145.804265 
L 162.848467 157.439439 
L 166.883141 182.942456 
L 170.917814 177.177459 
L 174.952487 180.740608 
L 178.987161 128.884029 
L 183.021834 117.673463 
L 187.056508 127.276326 
L 191.091181 105.625049 
L 195.125854 110.426995 
L 199.160528 128.199517 
L 203.195201 172.68898 
L 207.229874 172.271616 
L 211.264548 170.590992 
L 215.299221 169.932321 
L 219.333894 141.903802 
L 223.368568 132.259408 
L 227.403241 121.698592 
L 231.437915 145.581375 
L 235.472588 162.114517 
L 239.507261 133.427153 
L 243.541935 121.909861 
L 247.576608 124.973531 
L 251.611281 110.796495 
L 255.645955 109.201127 
L 259.680628 106.015576 
L 263.715302 112.719636 
L 267.749975 116.207191 
L 271.784648 129.035337 
L 275.819322 152.11411 
L 279.853995 145.380978 
L 283.888668 179.403525 
L 287.923342 135.104615 
L 291.958015 111.484884 
L 295.992688 117.044891 
L 300.027362 109.905279 
L 304.062035 125.430334 
L 308.096709 131.441796 
L 312.131382 161.859998 
L 316.166055 182.867789 
L 320.200729 191.075784 
L 324.235402 220.73555 
L 328.270075 177.471403 
L 332.304749 171.016549 
L 336.339422 168.39076 
L 340.374095 178.189351 
L 344.408769 166.441435 
L 348.443442 119.056604 
L 352.478116 100.961783 
L 356.512789 92.078052 
L 360.547462 123.169832 
L 364.582136 130.863962 
L 368.616809 107.88171 
L 372.651482 132.544185 
L 376.686156 120.012543 
L 380.720829 105.396459 
L 384.755503 107.487771 
L 388.790176 116.637631 
L 392.824849 97.225448 
L 396.859523 106.258132 
L 400.894196 100.856116 
L 404.928869 108.899613 
L 408.963543 113.702451 
L 412.998216 119.206045 
L 417.032889 103.278526 
L 421.067563 101.763448 
L 425.102236 88.977982 
L 429.13691 100.204783 
L 433.171583 106.195381 
L 437.206256 118.768786 
L 441.24093 121.756353 
L 445.275603 140.430957 
L 449.310276 150.701028 
L 453.34495 122.224385 
L 457.379623 143.942266 
L 461.414296 161.936449 
L 465.44897 182.336624 
L 469.483643 154.745918 
L 473.518317 148.956257 
L 477.55299 123.164212 
L 481.587663 129.815545 
L 485.622337 138.573482 
L 489.65701 128.224717 
L 493.691683 116.830544 
L 497.726357 124.796382 
L 501.76103 108.150014 
L 505.795704 98.209067 
L 509.830377 109.999669 
L 513.86505 111.332862 
L 517.899724 100.283149 
L 521.934397 139.517586 
L 525.96907 163.294438 
L 530.003744 143.104113 
L 534.038417 133.586344 
L 538.07309 149.255693 
L 542.107764 164.247494 
L 546.142437 200.370039 
L 550.177111 185.532431 
L 554.211784 171.722972 
L 558.246457 151.696346 
L 562.281131 144.930132 
L 566.315804 130.546312 
L 570.350477 120.416773 
L 574.385151 142.071717 
L 578.419824 157.909875 
L 582.454497 168.863665 
L 586.489171 177.107452 
L 590.523844 158.51905 
L 594.558518 151.224399 
L 598.593191 132.883529 
L 602.627864 158.985795 
L 606.662538 169.715265 
L 610.697211 178.047871 
L 614.731884 174.731355 
L 618.766558 173.221148 
L 622.801231 182.368701 
L 626.835905 180.250187 
L 630.870578 198.620977 
L 634.905251 184.165287 
L 638.939925 175.582451 
L 642.974598 191.229243 
L 647.009271 163.869071 
L 651.043945 185.060948 
L 655.078618 157.501471 
L 659.113291 146.422081 
L 663.147965 148.977984 
L 667.182638 138.039057 
L 671.217312 140.091502 
L 675.251985 173.37576 
L 679.286658 160.752471 
L 683.321332 169.443021 
L 687.356005 180.605723 
L 691.390678 220.692735 
L 695.425352 205.910242 
L 699.460025 171.695828 
L 703.494698 158.157606 
L 707.529372 158.565928 
L 711.564045 122.201725 
L 715.598719 147.31651 
L 719.633392 156.395881 
L 723.668065 154.04961 
L 727.702739 145.895327 
L 731.737412 179.84142 
L 735.772085 141.70017 
L 739.806759 111.906313 
L 743.841432 124.692284 
L 747.876106 111.433236 
L 751.910779 88.436908 
L 755.945452 87.059103 
L 759.980126 68.81567 
L 764.014799 77.881666 
L 768.049472 63.064113 
L 772.084146 55.871774 
L 776.118819 76.941362 
L 780.153492 76.717829 
L 784.188166 90.313422 
L 788.222839 91.643952 
L 792.257513 118.001904 
L 796.292186 91.75911 
L 800.326859 105.084699 
L 804.361533 122.033262 
L 808.396206 136.174731 
L 812.430879 147.228809 
L 816.465553 156.875467 
L 820.500226 152.329342 
L 824.534899 160.325371 
L 828.569573 160.942931 
L 832.604246 174.973086 
L 836.63892 173.961906 
L 840.673593 176.681399 
L 844.708266 162.910204 
L 848.74294 166.434897 
L 852.777613 177.905202 
L 856.812286 182.095757 
L 860.84696 148.204819 
L 864.881633 142.641405 
L 868.916307 146.299105 
L 872.95098 137.078065 
L 876.985653 129.519977 
L 881.020327 129.197151 
L 885.055 116.795062 
L 885.055 116.795062 
" clip-path="url(#p41fe8f4dec)" style="fill: none; stroke: #ff7f0e; stroke-width: 1.5; stroke-linecap: square"/>
   </g>
   <g id="patch_3">
    <path d="M 42.01 260.12 
L 42.01 26.88 
" style="fill: none; stroke: #000000; stroke-width: 0.8; stroke-linejoin: miter; stroke-linecap: square"/>
   </g>
   <g id="patch_4">
    <path d="M 925.2 260.12 
L 925.2 26.88 
" style="fill: none; stroke: #000000; stroke-width: 0.8; stroke-linejoin: miter; stroke-linecap: square"/>
   </g>
   <g id="patch_5">
    <path d="M 42.01 260.12 
L 925.2 260.12 
" style="fill: none; stroke: #000000; stroke-width: 0.8; stroke-linejoin: miter; stroke-linecap: square"/>
   </g>
   <g id="patch_6">
    <path d="M 42.01 26.88 
L 925.2 26.88 
" style="fill: none; stroke: #000000; stroke-width: 0.8; stroke-linejoin: miter; stroke-linecap: square"/>
   </g>
   <g id="text_16">
    <!-- Simulated unobserved states -->
    <g transform="translate(395.725625 20.88) scale(0.12 -0.12)">
     <defs>
      <path id="DejaVuSans-53" d="M 3425 4513 
L 3425 3897 
Q 3066 4069 2747 4153 
Q 2428 4238 2131 4238 
Q 1616 4238 1336 4038 
Q 1056 3838 1056 3469 
Q 1056 3159 1242 3001 
Q 1428 2844 1947 2747 
L 2328 2669 
Q 3034 2534 3370 2195 
Q 3706 1856 3706 1288 
Q 3706 609 3251 259 
Q 2797 -91 1919 -91 
Q 1588 -91 1214 -16 
Q 841 59 441 206 
L 441 856 
Q 825 641 1194 531 
Q 1563 422 1919 422 
Q 2459 422 2753 634 
Q 3047 847 3047 1241 
Q 3047 1584 2836 1778 
Q 2625 1972 2144 2069 
L 1759 2144 
Q 1053 2284 737 2584 
Q 422 2884 422 3419 
Q 422 4038 858 4394 
Q 1294 4750 2059 4750 
Q 2388 4750 2728 4690 
Q 3069 4631 3425 4513 
z
" transform="scale(0.015625)"/>
      <path id="DejaVuSans-69" d="M 603 3500 
L 1178 3500 
L 1178 0 
L 603 0 
L 603 3500 
z
M 603 4863 
L 1178 4863 
L 1178 4134 
L 603 4134 
L 603 4863 
z
" transform="scale(0.015625)"/>
      <path id="DejaVuSans-6d" d="M 3328 2828 
Q 3544 3216 3844 3400 
Q 4144 3584 4550 3584 
Q 5097 3584 5394 3201 
Q 5691 2819 5691 2113 
L 5691 0 
L 5113 0 
L 5113 2094 
Q 5113 2597 4934 2840 
Q 4756 3084 4391 3084 
Q 3944 3084 3684 2787 
Q 3425 2491 3425 1978 
L 3425 0 
L 2847 0 
L 2847 2094 
Q 2847 2600 2669 2842 
Q 2491 3084 2119 3084 
Q 1678 3084 1418 2786 
Q 1159 2488 1159 1978 
L 1159 0 
L 581 0 
L 581 3500 
L 1159 3500 
L 1159 2956 
Q 1356 3278 1631 3431 
Q 1906 3584 2284 3584 
Q 2666 3584 2933 3390 
Q 3200 3197 3328 2828 
z
" transform="scale(0.015625)"/>
      <path id="DejaVuSans-75" d="M 544 1381 
L 544 3500 
L 1119 3500 
L 1119 1403 
Q 1119 906 1312 657 
Q 1506 409 1894 409 
Q 2359 409 2629 706 
Q 2900 1003 2900 1516 
L 2900 3500 
L 3475 3500 
L 3475 0 
L 2900 0 
L 2900 538 
Q 2691 219 2414 64 
Q 2138 -91 1772 -91 
Q 1169 -91 856 284 
Q 544 659 544 1381 
z
M 1991 3584 
L 1991 3584 
z
" transform="scale(0.015625)"/>
      <path id="DejaVuSans-6c" d="M 603 4863 
L 1178 4863 
L 1178 0 
L 603 0 
L 603 4863 
z
" transform="scale(0.015625)"/>
      <path id="DejaVuSans-61" d="M 2194 1759 
Q 1497 1759 1228 1600 
Q 959 1441 959 1056 
Q 959 750 1161 570 
Q 1363 391 1709 391 
Q 2188 391 2477 730 
Q 2766 1069 2766 1631 
L 2766 1759 
L 2194 1759 
z
M 3341 1997 
L 3341 0 
L 2766 0 
L 2766 531 
Q 2569 213 2275 61 
Q 1981 -91 1556 -91 
Q 1019 -91 701 211 
Q 384 513 384 1019 
Q 384 1609 779 1909 
Q 1175 2209 1959 2209 
L 2766 2209 
L 2766 2266 
Q 2766 2663 2505 2880 
Q 2244 3097 1772 3097 
Q 1472 3097 1187 3025 
Q 903 2953 641 2809 
L 641 3341 
Q 956 3463 1253 3523 
Q 1550 3584 1831 3584 
Q 2591 3584 2966 3190 
Q 3341 2797 3341 1997 
z
" transform="scale(0.015625)"/>
      <path id="DejaVuSans-74" d="M 1172 4494 
L 1172 3500 
L 2356 3500 
L 2356 3053 
L 1172 3053 
L 1172 1153 
Q 1172 725 1289 603 
Q 1406 481 1766 481 
L 2356 481 
L 2356 0 
L 1766 0 
Q 1100 0 847 248 
Q 594 497 594 1153 
L 594 3053 
L 172 3053 
L 172 3500 
L 594 3500 
L 594 4494 
L 1172 4494 
z
" transform="scale(0.015625)"/>
      <path id="DejaVuSans-65" d="M 3597 1894 
L 3597 1613 
L 953 1613 
Q 991 1019 1311 708 
Q 1631 397 2203 397 
Q 2534 397 2845 478 
Q 3156 559 3463 722 
L 3463 178 
Q 3153 47 2828 -22 
Q 2503 -91 2169 -91 
Q 1331 -91 842 396 
Q 353 884 353 1716 
Q 353 2575 817 3079 
Q 1281 3584 2069 3584 
Q 2775 3584 3186 3129 
Q 3597 2675 3597 1894 
z
M 3022 2063 
Q 3016 2534 2758 2815 
Q 2500 3097 2075 3097 
Q 1594 3097 1305 2825 
Q 1016 2553 972 2059 
L 3022 2063 
z
" transform="scale(0.015625)"/>
      <path id="DejaVuSans-64" d="M 2906 2969 
L 2906 4863 
L 3481 4863 
L 3481 0 
L 2906 0 
L 2906 525 
Q 2725 213 2448 61 
Q 2172 -91 1784 -91 
Q 1150 -91 751 415 
Q 353 922 353 1747 
Q 353 2572 751 3078 
Q 1150 3584 1784 3584 
Q 2172 3584 2448 3432 
Q 2725 3281 2906 2969 
z
M 947 1747 
Q 947 1113 1208 752 
Q 1469 391 1925 391 
Q 2381 391 2643 752 
Q 2906 1113 2906 1747 
Q 2906 2381 2643 2742 
Q 2381 3103 1925 3103 
Q 1469 3103 1208 2742 
Q 947 2381 947 1747 
z
" transform="scale(0.015625)"/>
      <path id="DejaVuSans-20" transform="scale(0.015625)"/>
      <path id="DejaVuSans-6e" d="M 3513 2113 
L 3513 0 
L 2938 0 
L 2938 2094 
Q 2938 2591 2744 2837 
Q 2550 3084 2163 3084 
Q 1697 3084 1428 2787 
Q 1159 2491 1159 1978 
L 1159 0 
L 581 0 
L 581 3500 
L 1159 3500 
L 1159 2956 
Q 1366 3272 1645 3428 
Q 1925 3584 2291 3584 
Q 2894 3584 3203 3211 
Q 3513 2838 3513 2113 
z
" transform="scale(0.015625)"/>
      <path id="DejaVuSans-6f" d="M 1959 3097 
Q 1497 3097 1228 2736 
Q 959 2375 959 1747 
Q 959 1119 1226 758 
Q 1494 397 1959 397 
Q 2419 397 2687 759 
Q 2956 1122 2956 1747 
Q 2956 2369 2687 2733 
Q 2419 3097 1959 3097 
z
M 1959 3584 
Q 2709 3584 3137 3096 
Q 3566 2609 3566 1747 
Q 3566 888 3137 398 
Q 2709 -91 1959 -91 
Q 1206 -91 779 398 
Q 353 888 353 1747 
Q 353 2609 779 3096 
Q 1206 3584 1959 3584 
z
" transform="scale(0.015625)"/>
      <path id="DejaVuSans-62" d="M 3116 1747 
Q 3116 2381 2855 2742 
Q 2594 3103 2138 3103 
Q 1681 3103 1420 2742 
Q 1159 2381 1159 1747 
Q 1159 1113 1420 752 
Q 1681 391 2138 391 
Q 2594 391 2855 752 
Q 3116 1113 3116 1747 
z
M 1159 2969 
Q 1341 3281 1617 3432 
Q 1894 3584 2278 3584 
Q 2916 3584 3314 3078 
Q 3713 2572 3713 1747 
Q 3713 922 3314 415 
Q 2916 -91 2278 -91 
Q 1894 -91 1617 61 
Q 1341 213 1159 525 
L 1159 0 
L 581 0 
L 581 4863 
L 1159 4863 
L 1159 2969 
z
" transform="scale(0.015625)"/>
      <path id="DejaVuSans-73" d="M 2834 3397 
L 2834 2853 
Q 2591 2978 2328 3040 
Q 2066 3103 1784 3103 
Q 1356 3103 1142 2972 
Q 928 2841 928 2578 
Q 928 2378 1081 2264 
Q 1234 2150 1697 2047 
L 1894 2003 
Q 2506 1872 2764 1633 
Q 3022 1394 3022 966 
Q 3022 478 2636 193 
Q 2250 -91 1575 -91 
Q 1294 -91 989 -36 
Q 684 19 347 128 
L 347 722 
Q 666 556 975 473 
Q 1284 391 1588 391 
Q 1994 391 2212 530 
Q 2431 669 2431 922 
Q 2431 1156 2273 1281 
Q 2116 1406 1581 1522 
L 1381 1569 
Q 847 1681 609 1914 
Q 372 2147 372 2553 
Q 372 3047 722 3315 
Q 1072 3584 1716 3584 
Q 2034 3584 2315 3537 
Q 2597 3491 2834 3397 
z
" transform="scale(0.015625)"/>
      <path id="DejaVuSans-72" d="M 2631 2963 
Q 2534 3019 2420 3045 
Q 2306 3072 2169 3072 
Q 1681 3072 1420 2755 
Q 1159 2438 1159 1844 
L 1159 0 
L 581 0 
L 581 3500 
L 1159 3500 
L 1159 2956 
Q 1341 3275 1631 3429 
Q 1922 3584 2338 3584 
Q 2397 3584 2469 3576 
Q 2541 3569 2628 3553 
L 2631 2963 
z
" transform="scale(0.015625)"/>
      <path id="DejaVuSans-76" d="M 191 3500 
L 800 3500 
L 1894 563 
L 2988 3500 
L 3597 3500 
L 2284 0 
L 1503 0 
L 191 3500 
z
" transform="scale(0.015625)"/>
     </defs>
     <use xlink:href="#DejaVuSans-53"/>
     <use xlink:href="#DejaVuSans-69" transform="translate(63.476562 0)"/>
     <use xlink:href="#DejaVuSans-6d" transform="translate(91.259766 0)"/>
     <use xlink:href="#DejaVuSans-75" transform="translate(188.671875 0)"/>
     <use xlink:href="#DejaVuSans-6c" transform="translate(252.050781 0)"/>
     <use xlink:href="#DejaVuSans-61" transform="translate(279.833984 0)"/>
     <use xlink:href="#DejaVuSans-74" transform="translate(341.113281 0)"/>
     <use xlink:href="#DejaVuSans-65" transform="translate(380.322266 0)"/>
     <use xlink:href="#DejaVuSans-64" transform="translate(441.845703 0)"/>
     <use xlink:href="#DejaVuSans-20" transform="translate(505.322266 0)"/>
     <use xlink:href="#DejaVuSans-75" transform="translate(537.109375 0)"/>
     <use xlink:href="#DejaVuSans-6e" transform="translate(600.488281 0)"/>
     <use xlink:href="#DejaVuSans-6f" transform="translate(663.867188 0)"/>
     <use xlink:href="#DejaVuSans-62" transform="translate(725.048828 0)"/>
     <use xlink:href="#DejaVuSans-73" transform="translate(788.525391 0)"/>
     <use xlink:href="#DejaVuSans-65" transform="translate(840.625 0)"/>
     <use xlink:href="#DejaVuSans-72" transform="translate(902.148438 0)"/>
     <use xlink:href="#DejaVuSans-76" transform="translate(943.261719 0)"/>
     <use xlink:href="#DejaVuSans-65" transform="translate(1002.441406 0)"/>
     <use xlink:href="#DejaVuSans-64" transform="translate(1063.964844 0)"/>
     <use xlink:href="#DejaVuSans-20" transform="translate(1127.441406 0)"/>
     <use xlink:href="#DejaVuSans-73" transform="translate(1159.228516 0)"/>
     <use xlink:href="#DejaVuSans-74" transform="translate(1211.328125 0)"/>
     <use xlink:href="#DejaVuSans-61" transform="translate(1250.537109 0)"/>
     <use xlink:href="#DejaVuSans-74" transform="translate(1311.816406 0)"/>
     <use xlink:href="#DejaVuSans-65" transform="translate(1351.025391 0)"/>
     <use xlink:href="#DejaVuSans-73" transform="translate(1412.548828 0)"/>
    </g>
   </g>
   <g id="legend_1">
    <g id="patch_7">
     <path d="M 49.01 255.12 
L 169.16 255.12 
Q 171.16 255.12 171.16 253.12 
L 171.16 224.76375 
Q 171.16 222.76375 169.16 222.76375 
L 49.01 222.76375 
Q 47.01 222.76375 47.01 224.76375 
L 47.01 253.12 
Q 47.01 255.12 49.01 255.12 
z
" style="fill: #ffffff; opacity: 0.8; stroke: #cccccc; stroke-linejoin: miter"/>
    </g>
    <g id="line2d_27">
     <path d="M 51.01 230.862188 
L 61.01 230.862188 
L 71.01 230.862188 
" style="fill: none; stroke: #1f77b4; stroke-width: 1.5; stroke-linecap: square"/>
    </g>
    <g id="text_17">
     <!-- Capital -->
     <g transform="translate(79.01 234.362188) scale(0.1 -0.1)">
      <defs>
       <path id="DejaVuSans-43" d="M 4122 4306 
L 4122 3641 
Q 3803 3938 3442 4084 
Q 3081 4231 2675 4231 
Q 1875 4231 1450 3742 
Q 1025 3253 1025 2328 
Q 1025 1406 1450 917 
Q 1875 428 2675 428 
Q 3081 428 3442 575 
Q 3803 722 4122 1019 
L 4122 359 
Q 3791 134 3420 21 
Q 3050 -91 2638 -91 
Q 1578 -91 968 557 
Q 359 1206 359 2328 
Q 359 3453 968 4101 
Q 1578 4750 2638 4750 
Q 3056 4750 3426 4639 
Q 3797 4528 4122 4306 
z
" transform="scale(0.015625)"/>
       <path id="DejaVuSans-70" d="M 1159 525 
L 1159 -1331 
L 581 -1331 
L 581 3500 
L 1159 3500 
L 1159 2969 
Q 1341 3281 1617 3432 
Q 1894 3584 2278 3584 
Q 2916 3584 3314 3078 
Q 3713 2572 3713 1747 
Q 3713 922 3314 415 
Q 2916 -91 2278 -91 
Q 1894 -91 1617 61 
Q 1341 213 1159 525 
z
M 3116 1747 
Q 3116 2381 2855 2742 
Q 2594 3103 2138 3103 
Q 1681 3103 1420 2742 
Q 1159 2381 1159 1747 
Q 1159 1113 1420 752 
Q 1681 391 2138 391 
Q 2594 391 2855 752 
Q 3116 1113 3116 1747 
z
" transform="scale(0.015625)"/>
      </defs>
      <use xlink:href="#DejaVuSans-43"/>
      <use xlink:href="#DejaVuSans-61" transform="translate(69.824219 0)"/>
      <use xlink:href="#DejaVuSans-70" transform="translate(131.103516 0)"/>
      <use xlink:href="#DejaVuSans-69" transform="translate(194.580078 0)"/>
      <use xlink:href="#DejaVuSans-74" transform="translate(222.363281 0)"/>
      <use xlink:href="#DejaVuSans-61" transform="translate(261.572266 0)"/>
      <use xlink:href="#DejaVuSans-6c" transform="translate(322.851562 0)"/>
     </g>
    </g>
    <g id="line2d_28">
     <path d="M 51.01 245.540312 
L 61.01 245.540312 
L 71.01 245.540312 
" style="fill: none; stroke: #ff7f0e; stroke-width: 1.5; stroke-linecap: square"/>
    </g>
    <g id="text_18">
     <!-- Technology shock -->
     <g transform="translate(79.01 249.040312) scale(0.1 -0.1)">
      <defs>
       <path id="DejaVuSans-54" d="M -19 4666 
L 3928 4666 
L 3928 4134 
L 2272 4134 
L 2272 0 
L 1638 0 
L 1638 4134 
L -19 4134 
L -19 4666 
z
" transform="scale(0.015625)"/>
       <path id="DejaVuSans-63" d="M 3122 3366 
L 3122 2828 
Q 2878 2963 2633 3030 
Q 2388 3097 2138 3097 
Q 1578 3097 1268 2742 
Q 959 2388 959 1747 
Q 959 1106 1268 751 
Q 1578 397 2138 397 
Q 2388 397 2633 464 
Q 2878 531 3122 666 
L 3122 134 
Q 2881 22 2623 -34 
Q 2366 -91 2075 -91 
Q 1284 -91 818 406 
Q 353 903 353 1747 
Q 353 2603 823 3093 
Q 1294 3584 2113 3584 
Q 2378 3584 2631 3529 
Q 2884 3475 3122 3366 
z
" transform="scale(0.015625)"/>
       <path id="DejaVuSans-68" d="M 3513 2113 
L 3513 0 
L 2938 0 
L 2938 2094 
Q 2938 2591 2744 2837 
Q 2550 3084 2163 3084 
Q 1697 3084 1428 2787 
Q 1159 2491 1159 1978 
L 1159 0 
L 581 0 
L 581 4863 
L 1159 4863 
L 1159 2956 
Q 1366 3272 1645 3428 
Q 1925 3584 2291 3584 
Q 2894 3584 3203 3211 
Q 3513 2838 3513 2113 
z
" transform="scale(0.015625)"/>
       <path id="DejaVuSans-67" d="M 2906 1791 
Q 2906 2416 2648 2759 
Q 2391 3103 1925 3103 
Q 1463 3103 1205 2759 
Q 947 2416 947 1791 
Q 947 1169 1205 825 
Q 1463 481 1925 481 
Q 2391 481 2648 825 
Q 2906 1169 2906 1791 
z
M 3481 434 
Q 3481 -459 3084 -895 
Q 2688 -1331 1869 -1331 
Q 1566 -1331 1297 -1286 
Q 1028 -1241 775 -1147 
L 775 -588 
Q 1028 -725 1275 -790 
Q 1522 -856 1778 -856 
Q 2344 -856 2625 -561 
Q 2906 -266 2906 331 
L 2906 616 
Q 2728 306 2450 153 
Q 2172 0 1784 0 
Q 1141 0 747 490 
Q 353 981 353 1791 
Q 353 2603 747 3093 
Q 1141 3584 1784 3584 
Q 2172 3584 2450 3431 
Q 2728 3278 2906 2969 
L 2906 3500 
L 3481 3500 
L 3481 434 
z
" transform="scale(0.015625)"/>
       <path id="DejaVuSans-79" d="M 2059 -325 
Q 1816 -950 1584 -1140 
Q 1353 -1331 966 -1331 
L 506 -1331 
L 506 -850 
L 844 -850 
Q 1081 -850 1212 -737 
Q 1344 -625 1503 -206 
L 1606 56 
L 191 3500 
L 800 3500 
L 1894 763 
L 2988 3500 
L 3597 3500 
L 2059 -325 
z
" transform="scale(0.015625)"/>
       <path id="DejaVuSans-6b" d="M 581 4863 
L 1159 4863 
L 1159 1991 
L 2875 3500 
L 3609 3500 
L 1753 1863 
L 3688 0 
L 2938 0 
L 1159 1709 
L 1159 0 
L 581 0 
L 581 4863 
z
" transform="scale(0.015625)"/>
      </defs>
      <use xlink:href="#DejaVuSans-54"/>
      <use xlink:href="#DejaVuSans-65" transform="translate(44.083984 0)"/>
      <use xlink:href="#DejaVuSans-63" transform="translate(105.607422 0)"/>
      <use xlink:href="#DejaVuSans-68" transform="translate(160.587891 0)"/>
      <use xlink:href="#DejaVuSans-6e" transform="translate(223.966797 0)"/>
      <use xlink:href="#DejaVuSans-6f" transform="translate(287.345703 0)"/>
      <use xlink:href="#DejaVuSans-6c" transform="translate(348.527344 0)"/>
      <use xlink:href="#DejaVuSans-6f" transform="translate(376.310547 0)"/>
      <use xlink:href="#DejaVuSans-67" transform="translate(437.492188 0)"/>
      <use xlink:href="#DejaVuSans-79" transform="translate(500.96875 0)"/>
      <use xlink:href="#DejaVuSans-20" transform="translate(560.148438 0)"/>
      <use xlink:href="#DejaVuSans-73" transform="translate(591.935547 0)"/>
      <use xlink:href="#DejaVuSans-68" transform="translate(644.035156 0)"/>
      <use xlink:href="#DejaVuSans-6f" transform="translate(707.414062 0)"/>
      <use xlink:href="#DejaVuSans-63" transform="translate(768.595703 0)"/>
      <use xlink:href="#DejaVuSans-6b" transform="translate(823.576172 0)"/>
     </g>
    </g>
   </g>
  </g>
 </g>
 <defs>
  <clipPath id="p41fe8f4dec">
   <rect x="42.01" y="26.88" width="883.19" height="233.24"/>
  </clipPath>
 </defs>
</svg>
