<?xml version="1.0" encoding="utf-8" standalone="no"?>
<!DOCTYPE svg PUBLIC "-//W3C//DTD SVG 1.1//EN"
  "http://www.w3.org/Graphics/SVG/1.1/DTD/svg11.dtd">
<svg xmlns:xlink="http://www.w3.org/1999/xlink" width="576pt" height="432pt" viewBox="0 0 576 432" xmlns="http://www.w3.org/2000/svg" version="1.1">
 <metadata>
  <rdf:RDF xmlns:dc="http://purl.org/dc/elements/1.1/" xmlns:cc="http://creativecommons.org/ns#" xmlns:rdf="http://www.w3.org/1999/02/22-rdf-syntax-ns#">
   <cc:Work>
    <dc:type rdf:resource="http://purl.org/dc/dcmitype/StillImage"/>
    <dc:format>image/svg+xml</dc:format>
    <dc:creator>
     <cc:Agent>
      <dc:title>Matplotlib v3.10.6, https://matplotlib.org/</dc:title>
     </cc:Agent>
    </dc:creator>
   </cc:Work>
  </rdf:RDF>
 </metadata>
 <defs>
  <style type="text/css">*{stroke-linejoin: round; stroke-linecap: butt}</style>
 </defs>
 <g id="figure_1">
  <g id="patch_1">
   <path d="M 0 432 
L 576 432 
L 576 0 
L 0 0 
z
" style="fill: #ffffff"/>
  </g>
  <g id="axes_1">
   <g id="patch_2">
    <path d="M 72 384.48 
L 518.4 384.48 
L 518.4 51.84 
L 72 51.84 
z
" style="fill: #ffffff"/>
   </g>
   <g id="matplotlib.axis_1">
    <g id="xtick_1">
     <g id="line2d_1">
      <defs>
       <path id="mdc83f865b8" d="M 0 0 
L 0 3.5 
" style="stroke: #000000; stroke-width: 0.8"/>
      </defs>
      <g>
       <use xlink:href="#mdc83f865b8" x="104.663415" y="384.48" style="stroke: #000000; stroke-width: 0.8"/>
      </g>
     </g>
     <g id="text_1">
      <!-- 0 -->
      <g transform="translate(101.482165 399.078438) scale(0.1 -0.1)">
       <defs>
        <path id="DejaVuSans-30" d="M 2034 4250 
Q 1547 4250 1301 3770 
Q 1056 3291 1056 2328 
Q 1056 1369 1301 889 
Q 1547 409 2034 409 
Q 2525 409 2770 889 
Q 3016 1369 3016 2328 
Q 3016 3291 2770 3770 
Q 2525 4250 2034 4250 
z
M 2034 4750 
Q 2819 4750 3233 4129 
Q 3647 3509 3647 2328 
Q 3647 1150 3233 529 
Q 2819 -91 2034 -91 
Q 1250 -91 836 529 
Q 422 1150 422 2328 
Q 422 3509 836 4129 
Q 1250 4750 2034 4750 
z
" transform="scale(0.015625)"/>
       </defs>
       <use xlink:href="#DejaVuSans-30"/>
      </g>
     </g>
    </g>
    <g id="xtick_2">
     <g id="line2d_2">
      <g>
       <use xlink:href="#mdc83f865b8" x="166.525942" y="384.48" style="stroke: #000000; stroke-width: 0.8"/>
      </g>
     </g>
     <g id="text_2">
      <!-- 25 -->
      <g transform="translate(160.163442 399.078438) scale(0.1 -0.1)">
       <defs>
        <path id="DejaVuSans-32" d="M 1228 531 
L 3431 531 
L 3431 0 
L 469 0 
L 469 531 
Q 828 903 1448 1529 
Q 2069 2156 2228 2338 
Q 2531 2678 2651 2914 
Q 2772 3150 2772 3378 
Q 2772 3750 2511 3984 
Q 2250 4219 1831 4219 
Q 1534 4219 1204 4116 
Q 875 4013 500 3803 
L 500 4441 
Q 881 4594 1212 4672 
Q 1544 4750 1819 4750 
Q 2544 4750 2975 4387 
Q 3406 4025 3406 3419 
Q 3406 3131 3298 2873 
Q 3191 2616 2906 2266 
Q 2828 2175 2409 1742 
Q 1991 1309 1228 531 
z
" transform="scale(0.015625)"/>
        <path id="DejaVuSans-35" d="M 691 4666 
L 3169 4666 
L 3169 4134 
L 1269 4134 
L 1269 2991 
Q 1406 3038 1543 3061 
Q 1681 3084 1819 3084 
Q 2600 3084 3056 2656 
Q 3513 2228 3513 1497 
Q 3513 744 3044 326 
Q 2575 -91 1722 -91 
Q 1428 -91 1123 -41 
Q 819 9 494 109 
L 494 744 
Q 775 591 1075 516 
Q 1375 441 1709 441 
Q 2250 441 2565 725 
Q 2881 1009 2881 1497 
Q 2881 1984 2565 2268 
Q 2250 2553 1709 2553 
Q 1456 2553 1204 2497 
Q 953 2441 691 2322 
L 691 4666 
z
" transform="scale(0.015625)"/>
       </defs>
       <use xlink:href="#DejaVuSans-32"/>
       <use xlink:href="#DejaVuSans-35" transform="translate(63.623047 0)"/>
      </g>
     </g>
    </g>
    <g id="xtick_3">
     <g id="line2d_3">
      <g>
       <use xlink:href="#mdc83f865b8" x="228.38847" y="384.48" style="stroke: #000000; stroke-width: 0.8"/>
      </g>
     </g>
     <g id="text_3">
      <!-- 50 -->
      <g transform="translate(222.02597 399.078438) scale(0.1 -0.1)">
       <use xlink:href="#DejaVuSans-35"/>
       <use xlink:href="#DejaVuSans-30" transform="translate(63.623047 0)"/>
      </g>
     </g>
    </g>
    <g id="xtick_4">
     <g id="line2d_4">
      <g>
       <use xlink:href="#mdc83f865b8" x="290.250998" y="384.48" style="stroke: #000000; stroke-width: 0.8"/>
      </g>
     </g>
     <g id="text_4">
      <!-- 75 -->
      <g transform="translate(283.888498 399.078438) scale(0.1 -0.1)">
       <defs>
        <path id="DejaVuSans-37" d="M 525 4666 
L 3525 4666 
L 3525 4397 
L 1831 0 
L 1172 0 
L 2766 4134 
L 525 4134 
L 525 4666 
z
" transform="scale(0.015625)"/>
       </defs>
       <use xlink:href="#DejaVuSans-37"/>
       <use xlink:href="#DejaVuSans-35" transform="translate(63.623047 0)"/>
      </g>
     </g>
    </g>
    <g id="xtick_5">
     <g id="line2d_5">
      <g>
       <use xlink:href="#mdc83f865b8" x="352.113525" y="384.48" style="stroke: #000000; stroke-width: 0.8"/>
      </g>
     </g>
     <g id="text_5">
      <!-- 100 -->
      <g transform="translate(342.569775 399.078438) scale(0.1 -0.1)">
       <defs>
        <path id="DejaVuSans-31" d="M 794 531 
L 1825 531 
L 1825 4091 
L 703 3866 
L 703 4441 
L 1819 4666 
L 2450 4666 
L 2450 531 
L 3481 531 
L 3481 0 
L 794 0 
L 794 531 
z
" transform="scale(0.015625)"/>
       </defs>
       <use xlink:href="#DejaVuSans-31"/>
       <use xlink:href="#DejaVuSans-30" transform="translate(63.623047 0)"/>
       <use xlink:href="#DejaVuSans-30" transform="translate(127.246094 0)"/>
      </g>
     </g>
    </g>
    <g id="xtick_6">
     <g id="line2d_6">
      <g>
       <use xlink:href="#mdc83f865b8" x="413.976053" y="384.48" style="stroke: #000000; stroke-width: 0.8"/>
      </g>
     </g>
     <g id="text_6">
      <!-- 125 -->
      <g transform="translate(404.432303 399.078438) scale(0.1 -0.1)">
       <use xlink:href="#DejaVuSans-31"/>
       <use xlink:href="#DejaVuSans-32" transform="translate(63.623047 0)"/>
       <use xlink:href="#DejaVuSans-35" transform="translate(127.246094 0)"/>
      </g>
     </g>
    </g>
    <g id="xtick_7">
     <g id="line2d_7">
      <g>
       <use xlink:href="#mdc83f865b8" x="475.838581" y="384.48" style="stroke: #000000; stroke-width: 0.8"/>
      </g>
     </g>
     <g id="text_7">
      <!-- 150 -->
      <g transform="translate(466.294831 399.078438) scale(0.1 -0.1)">
       <use xlink:href="#DejaVuSans-31"/>
       <use xlink:href="#DejaVuSans-35" transform="translate(63.623047 0)"/>
       <use xlink:href="#DejaVuSans-30" transform="translate(127.246094 0)"/>
      </g>
     </g>
    </g>
    <g id="text_8">
     <!-- Quarters Since Economic Reforms -->
     <g transform="translate(210.160937 412.756563) scale(0.1 -0.1)">
      <defs>
       <path id="DejaVuSans-51" d="M 2522 4238 
Q 1834 4238 1429 3725 
Q 1025 3213 1025 2328 
Q 1025 1447 1429 934 
Q 1834 422 2522 422 
Q 3209 422 3611 934 
Q 4013 1447 4013 2328 
Q 4013 3213 3611 3725 
Q 3209 4238 2522 4238 
z
M 3406 84 
L 4238 -825 
L 3475 -825 
L 2784 -78 
Q 2681 -84 2626 -87 
Q 2572 -91 2522 -91 
Q 1538 -91 948 567 
Q 359 1225 359 2328 
Q 359 3434 948 4092 
Q 1538 4750 2522 4750 
Q 3503 4750 4090 4092 
Q 4678 3434 4678 2328 
Q 4678 1516 4351 937 
Q 4025 359 3406 84 
z
" transform="scale(0.015625)"/>
       <path id="DejaVuSans-75" d="M 544 1381 
L 544 3500 
L 1119 3500 
L 1119 1403 
Q 1119 906 1312 657 
Q 1506 409 1894 409 
Q 2359 409 2629 706 
Q 2900 1003 2900 1516 
L 2900 3500 
L 3475 3500 
L 3475 0 
L 2900 0 
L 2900 538 
Q 2691 219 2414 64 
Q 2138 -91 1772 -91 
Q 1169 -91 856 284 
Q 544 659 544 1381 
z
M 1991 3584 
L 1991 3584 
z
" transform="scale(0.015625)"/>
       <path id="DejaVuSans-61" d="M 2194 1759 
Q 1497 1759 1228 1600 
Q 959 1441 959 1056 
Q 959 750 1161 570 
Q 1363 391 1709 391 
Q 2188 391 2477 730 
Q 2766 1069 2766 1631 
L 2766 1759 
L 2194 1759 
z
M 3341 1997 
L 3341 0 
L 2766 0 
L 2766 531 
Q 2569 213 2275 61 
Q 1981 -91 1556 -91 
Q 1019 -91 701 211 
Q 384 513 384 1019 
Q 384 1609 779 1909 
Q 1175 2209 1959 2209 
L 2766 2209 
L 2766 2266 
Q 2766 2663 2505 2880 
Q 2244 3097 1772 3097 
Q 1472 3097 1187 3025 
Q 903 2953 641 2809 
L 641 3341 
Q 956 3463 1253 3523 
Q 1550 3584 1831 3584 
Q 2591 3584 2966 3190 
Q 3341 2797 3341 1997 
z
" transform="scale(0.015625)"/>
       <path id="DejaVuSans-72" d="M 2631 2963 
Q 2534 3019 2420 3045 
Q 2306 3072 2169 3072 
Q 1681 3072 1420 2755 
Q 1159 2438 1159 1844 
L 1159 0 
L 581 0 
L 581 3500 
L 1159 3500 
L 1159 2956 
Q 1341 3275 1631 3429 
Q 1922 3584 2338 3584 
Q 2397 3584 2469 3576 
Q 2541 3569 2628 3553 
L 2631 2963 
z
" transform="scale(0.015625)"/>
       <path id="DejaVuSans-74" d="M 1172 4494 
L 1172 3500 
L 2356 3500 
L 2356 3053 
L 1172 3053 
L 1172 1153 
Q 1172 725 1289 603 
Q 1406 481 1766 481 
L 2356 481 
L 2356 0 
L 1766 0 
Q 1100 0 847 248 
Q 594 497 594 1153 
L 594 3053 
L 172 3053 
L 172 3500 
L 594 3500 
L 594 4494 
L 1172 4494 
z
" transform="scale(0.015625)"/>
       <path id="DejaVuSans-65" d="M 3597 1894 
L 3597 1613 
L 953 1613 
Q 991 1019 1311 708 
Q 1631 397 2203 397 
Q 2534 397 2845 478 
Q 3156 559 3463 722 
L 3463 178 
Q 3153 47 2828 -22 
Q 2503 -91 2169 -91 
Q 1331 -91 842 396 
Q 353 884 353 1716 
Q 353 2575 817 3079 
Q 1281 3584 2069 3584 
Q 2775 3584 3186 3129 
Q 3597 2675 3597 1894 
z
M 3022 2063 
Q 3016 2534 2758 2815 
Q 2500 3097 2075 3097 
Q 1594 3097 1305 2825 
Q 1016 2553 972 2059 
L 3022 2063 
z
" transform="scale(0.015625)"/>
       <path id="DejaVuSans-73" d="M 2834 3397 
L 2834 2853 
Q 2591 2978 2328 3040 
Q 2066 3103 1784 3103 
Q 1356 3103 1142 2972 
Q 928 2841 928 2578 
Q 928 2378 1081 2264 
Q 1234 2150 1697 2047 
L 1894 2003 
Q 2506 1872 2764 1633 
Q 3022 1394 3022 966 
Q 3022 478 2636 193 
Q 2250 -91 1575 -91 
Q 1294 -91 989 -36 
Q 684 19 347 128 
L 347 722 
Q 666 556 975 473 
Q 1284 391 1588 391 
Q 1994 391 2212 530 
Q 2431 669 2431 922 
Q 2431 1156 2273 1281 
Q 2116 1406 1581 1522 
L 1381 1569 
Q 847 1681 609 1914 
Q 372 2147 372 2553 
Q 372 3047 722 3315 
Q 1072 3584 1716 3584 
Q 2034 3584 2315 3537 
Q 2597 3491 2834 3397 
z
" transform="scale(0.015625)"/>
       <path id="DejaVuSans-20" transform="scale(0.015625)"/>
       <path id="DejaVuSans-53" d="M 3425 4513 
L 3425 3897 
Q 3066 4069 2747 4153 
Q 2428 4238 2131 4238 
Q 1616 4238 1336 4038 
Q 1056 3838 1056 3469 
Q 1056 3159 1242 3001 
Q 1428 2844 1947 2747 
L 2328 2669 
Q 3034 2534 3370 2195 
Q 3706 1856 3706 1288 
Q 3706 609 3251 259 
Q 2797 -91 1919 -91 
Q 1588 -91 1214 -16 
Q 841 59 441 206 
L 441 856 
Q 825 641 1194 531 
Q 1563 422 1919 422 
Q 2459 422 2753 634 
Q 3047 847 3047 1241 
Q 3047 1584 2836 1778 
Q 2625 1972 2144 2069 
L 1759 2144 
Q 1053 2284 737 2584 
Q 422 2884 422 3419 
Q 422 4038 858 4394 
Q 1294 4750 2059 4750 
Q 2388 4750 2728 4690 
Q 3069 4631 3425 4513 
z
" transform="scale(0.015625)"/>
       <path id="DejaVuSans-69" d="M 603 3500 
L 1178 3500 
L 1178 0 
L 603 0 
L 603 3500 
z
M 603 4863 
L 1178 4863 
L 1178 4134 
L 603 4134 
L 603 4863 
z
" transform="scale(0.015625)"/>
       <path id="DejaVuSans-6e" d="M 3513 2113 
L 3513 0 
L 2938 0 
L 2938 2094 
Q 2938 2591 2744 2837 
Q 2550 3084 2163 3084 
Q 1697 3084 1428 2787 
Q 1159 2491 1159 1978 
L 1159 0 
L 581 0 
L 581 3500 
L 1159 3500 
L 1159 2956 
Q 1366 3272 1645 3428 
Q 1925 3584 2291 3584 
Q 2894 3584 3203 3211 
Q 3513 2838 3513 2113 
z
" transform="scale(0.015625)"/>
       <path id="DejaVuSans-63" d="M 3122 3366 
L 3122 2828 
Q 2878 2963 2633 3030 
Q 2388 3097 2138 3097 
Q 1578 3097 1268 2742 
Q 959 2388 959 1747 
Q 959 1106 1268 751 
Q 1578 397 2138 397 
Q 2388 397 2633 464 
Q 2878 531 3122 666 
L 3122 134 
Q 2881 22 2623 -34 
Q 2366 -91 2075 -91 
Q 1284 -91 818 406 
Q 353 903 353 1747 
Q 353 2603 823 3093 
Q 1294 3584 2113 3584 
Q 2378 3584 2631 3529 
Q 2884 3475 3122 3366 
z
" transform="scale(0.015625)"/>
       <path id="DejaVuSans-45" d="M 628 4666 
L 3578 4666 
L 3578 4134 
L 1259 4134 
L 1259 2753 
L 3481 2753 
L 3481 2222 
L 1259 2222 
L 1259 531 
L 3634 531 
L 3634 0 
L 628 0 
L 628 4666 
z
" transform="scale(0.015625)"/>
       <path id="DejaVuSans-6f" d="M 1959 3097 
Q 1497 3097 1228 2736 
Q 959 2375 959 1747 
Q 959 1119 1226 758 
Q 1494 397 1959 397 
Q 2419 397 2687 759 
Q 2956 1122 2956 1747 
Q 2956 2369 2687 2733 
Q 2419 3097 1959 3097 
z
M 1959 3584 
Q 2709 3584 3137 3096 
Q 3566 2609 3566 1747 
Q 3566 888 3137 398 
Q 2709 -91 1959 -91 
Q 1206 -91 779 398 
Q 353 888 353 1747 
Q 353 2609 779 3096 
Q 1206 3584 1959 3584 
z
" transform="scale(0.015625)"/>
       <path id="DejaVuSans-6d" d="M 3328 2828 
Q 3544 3216 3844 3400 
Q 4144 3584 4550 3584 
Q 5097 3584 5394 3201 
Q 5691 2819 5691 2113 
L 5691 0 
L 5113 0 
L 5113 2094 
Q 5113 2597 4934 2840 
Q 4756 3084 4391 3084 
Q 3944 3084 3684 2787 
Q 3425 2491 3425 1978 
L 3425 0 
L 2847 0 
L 2847 2094 
Q 2847 2600 2669 2842 
Q 2491 3084 2119 3084 
Q 1678 3084 1418 2786 
Q 1159 2488 1159 1978 
L 1159 0 
L 581 0 
L 581 3500 
L 1159 3500 
L 1159 2956 
Q 1356 3278 1631 3431 
Q 1906 3584 2284 3584 
Q 2666 3584 2933 3390 
Q 3200 3197 3328 2828 
z
" transform="scale(0.015625)"/>
       <path id="DejaVuSans-52" d="M 2841 2188 
Q 3044 2119 3236 1894 
Q 3428 1669 3622 1275 
L 4263 0 
L 3584 0 
L 2988 1197 
Q 2756 1666 2539 1819 
Q 2322 1972 1947 1972 
L 1259 1972 
L 1259 0 
L 628 0 
L 628 4666 
L 2053 4666 
Q 2853 4666 3247 4331 
Q 3641 3997 3641 3322 
Q 3641 2881 3436 2590 
Q 3231 2300 2841 2188 
z
M 1259 4147 
L 1259 2491 
L 2053 2491 
Q 2509 2491 2742 2702 
Q 2975 2913 2975 3322 
Q 2975 3731 2742 3939 
Q 2509 4147 2053 4147 
L 1259 4147 
z
" transform="scale(0.015625)"/>
       <path id="DejaVuSans-66" d="M 2375 4863 
L 2375 4384 
L 1825 4384 
Q 1516 4384 1395 4259 
Q 1275 4134 1275 3809 
L 1275 3500 
L 2222 3500 
L 2222 3053 
L 1275 3053 
L 1275 0 
L 697 0 
L 697 3053 
L 147 3053 
L 147 3500 
L 697 3500 
L 697 3744 
Q 697 4328 969 4595 
Q 1241 4863 1831 4863 
L 2375 4863 
z
" transform="scale(0.015625)"/>
      </defs>
      <use xlink:href="#DejaVuSans-51"/>
      <use xlink:href="#DejaVuSans-75" transform="translate(78.710938 0)"/>
      <use xlink:href="#DejaVuSans-61" transform="translate(142.089844 0)"/>
      <use xlink:href="#DejaVuSans-72" transform="translate(203.369141 0)"/>
      <use xlink:href="#DejaVuSans-74" transform="translate(244.482422 0)"/>
      <use xlink:href="#DejaVuSans-65" transform="translate(283.691406 0)"/>
      <use xlink:href="#DejaVuSans-72" transform="translate(345.214844 0)"/>
      <use xlink:href="#DejaVuSans-73" transform="translate(386.328125 0)"/>
      <use xlink:href="#DejaVuSans-20" transform="translate(438.427734 0)"/>
      <use xlink:href="#DejaVuSans-53" transform="translate(470.214844 0)"/>
      <use xlink:href="#DejaVuSans-69" transform="translate(533.691406 0)"/>
      <use xlink:href="#DejaVuSans-6e" transform="translate(561.474609 0)"/>
      <use xlink:href="#DejaVuSans-63" transform="translate(624.853516 0)"/>
      <use xlink:href="#DejaVuSans-65" transform="translate(679.833984 0)"/>
      <use xlink:href="#DejaVuSans-20" transform="translate(741.357422 0)"/>
      <use xlink:href="#DejaVuSans-45" transform="translate(773.144531 0)"/>
      <use xlink:href="#DejaVuSans-63" transform="translate(836.328125 0)"/>
      <use xlink:href="#DejaVuSans-6f" transform="translate(891.308594 0)"/>
      <use xlink:href="#DejaVuSans-6e" transform="translate(952.490234 0)"/>
      <use xlink:href="#DejaVuSans-6f" transform="translate(1015.869141 0)"/>
      <use xlink:href="#DejaVuSans-6d" transform="translate(1077.050781 0)"/>
      <use xlink:href="#DejaVuSans-69" transform="translate(1174.462891 0)"/>
      <use xlink:href="#DejaVuSans-63" transform="translate(1202.246094 0)"/>
      <use xlink:href="#DejaVuSans-20" transform="translate(1257.226562 0)"/>
      <use xlink:href="#DejaVuSans-52" transform="translate(1289.013672 0)"/>
      <use xlink:href="#DejaVuSans-65" transform="translate(1353.996094 0)"/>
      <use xlink:href="#DejaVuSans-66" transform="translate(1415.519531 0)"/>
      <use xlink:href="#DejaVuSans-6f" transform="translate(1450.724609 0)"/>
      <use xlink:href="#DejaVuSans-72" transform="translate(1511.90625 0)"/>
      <use xlink:href="#DejaVuSans-6d" transform="translate(1551.269531 0)"/>
      <use xlink:href="#DejaVuSans-73" transform="translate(1648.681641 0)"/>
     </g>
    </g>
   </g>
   <g id="matplotlib.axis_2">
    <g id="ytick_1">
     <g id="line2d_8">
      <defs>
       <path id="mebf9e5dc48" d="M 0 0 
L -3.5 0 
" style="stroke: #000000; stroke-width: 0.8"/>
      </defs>
      <g>
       <use xlink:href="#mebf9e5dc48" x="72" y="332.925033" style="stroke: #000000; stroke-width: 0.8"/>
      </g>
     </g>
     <g id="text_9">
      <!-- −0.1 -->
      <g transform="translate(40.717187 336.724251) scale(0.1 -0.1)">
       <defs>
        <path id="DejaVuSans-2212" d="M 678 2272 
L 4684 2272 
L 4684 1741 
L 678 1741 
L 678 2272 
z
" transform="scale(0.015625)"/>
        <path id="DejaVuSans-2e" d="M 684 794 
L 1344 794 
L 1344 0 
L 684 0 
L 684 794 
z
" transform="scale(0.015625)"/>
       </defs>
       <use xlink:href="#DejaVuSans-2212"/>
       <use xlink:href="#DejaVuSans-30" transform="translate(83.789062 0)"/>
       <use xlink:href="#DejaVuSans-2e" transform="translate(147.412109 0)"/>
       <use xlink:href="#DejaVuSans-31" transform="translate(179.199219 0)"/>
      </g>
     </g>
    </g>
    <g id="ytick_2">
     <g id="line2d_9">
      <g>
       <use xlink:href="#mebf9e5dc48" x="72" y="269.794" style="stroke: #000000; stroke-width: 0.8"/>
      </g>
     </g>
     <g id="text_10">
      <!-- 0.0 -->
      <g transform="translate(49.096875 273.593219) scale(0.1 -0.1)">
       <use xlink:href="#DejaVuSans-30"/>
       <use xlink:href="#DejaVuSans-2e" transform="translate(63.623047 0)"/>
       <use xlink:href="#DejaVuSans-30" transform="translate(95.410156 0)"/>
      </g>
     </g>
    </g>
    <g id="ytick_3">
     <g id="line2d_10">
      <g>
       <use xlink:href="#mebf9e5dc48" x="72" y="206.662967" style="stroke: #000000; stroke-width: 0.8"/>
      </g>
     </g>
     <g id="text_11">
      <!-- 0.1 -->
      <g transform="translate(49.096875 210.462186) scale(0.1 -0.1)">
       <use xlink:href="#DejaVuSans-30"/>
       <use xlink:href="#DejaVuSans-2e" transform="translate(63.623047 0)"/>
       <use xlink:href="#DejaVuSans-31" transform="translate(95.410156 0)"/>
      </g>
     </g>
    </g>
    <g id="ytick_4">
     <g id="line2d_11">
      <g>
       <use xlink:href="#mebf9e5dc48" x="72" y="143.531934" style="stroke: #000000; stroke-width: 0.8"/>
      </g>
     </g>
     <g id="text_12">
      <!-- 0.2 -->
      <g transform="translate(49.096875 147.331153) scale(0.1 -0.1)">
       <use xlink:href="#DejaVuSans-30"/>
       <use xlink:href="#DejaVuSans-2e" transform="translate(63.623047 0)"/>
       <use xlink:href="#DejaVuSans-32" transform="translate(95.410156 0)"/>
      </g>
     </g>
    </g>
    <g id="ytick_5">
     <g id="line2d_12">
      <g>
       <use xlink:href="#mebf9e5dc48" x="72" y="80.400902" style="stroke: #000000; stroke-width: 0.8"/>
      </g>
     </g>
     <g id="text_13">
      <!-- 0.3 -->
      <g transform="translate(49.096875 84.20012) scale(0.1 -0.1)">
       <defs>
        <path id="DejaVuSans-33" d="M 2597 2516 
Q 3050 2419 3304 2112 
Q 3559 1806 3559 1356 
Q 3559 666 3084 287 
Q 2609 -91 1734 -91 
Q 1441 -91 1130 -33 
Q 819 25 488 141 
L 488 750 
Q 750 597 1062 519 
Q 1375 441 1716 441 
Q 2309 441 2620 675 
Q 2931 909 2931 1356 
Q 2931 1769 2642 2001 
Q 2353 2234 1838 2234 
L 1294 2234 
L 1294 2753 
L 1863 2753 
Q 2328 2753 2575 2939 
Q 2822 3125 2822 3475 
Q 2822 3834 2567 4026 
Q 2313 4219 1838 4219 
Q 1578 4219 1281 4162 
Q 984 4106 628 3988 
L 628 4550 
Q 988 4650 1302 4700 
Q 1616 4750 1894 4750 
Q 2613 4750 3031 4423 
Q 3450 4097 3450 3541 
Q 3450 3153 3228 2886 
Q 3006 2619 2597 2516 
z
" transform="scale(0.015625)"/>
       </defs>
       <use xlink:href="#DejaVuSans-30"/>
       <use xlink:href="#DejaVuSans-2e" transform="translate(63.623047 0)"/>
       <use xlink:href="#DejaVuSans-33" transform="translate(95.410156 0)"/>
      </g>
     </g>
    </g>
    <g id="text_14">
     <!-- Natl Saving Rate -->
     <g transform="translate(34.6375 259.884219) rotate(-90) scale(0.1 -0.1)">
      <defs>
       <path id="DejaVuSans-4e" d="M 628 4666 
L 1478 4666 
L 3547 763 
L 3547 4666 
L 4159 4666 
L 4159 0 
L 3309 0 
L 1241 3903 
L 1241 0 
L 628 0 
L 628 4666 
z
" transform="scale(0.015625)"/>
       <path id="DejaVuSans-6c" d="M 603 4863 
L 1178 4863 
L 1178 0 
L 603 0 
L 603 4863 
z
" transform="scale(0.015625)"/>
       <path id="DejaVuSans-76" d="M 191 3500 
L 800 3500 
L 1894 563 
L 2988 3500 
L 3597 3500 
L 2284 0 
L 1503 0 
L 191 3500 
z
" transform="scale(0.015625)"/>
       <path id="DejaVuSans-67" d="M 2906 1791 
Q 2906 2416 2648 2759 
Q 2391 3103 1925 3103 
Q 1463 3103 1205 2759 
Q 947 2416 947 1791 
Q 947 1169 1205 825 
Q 1463 481 1925 481 
Q 2391 481 2648 825 
Q 2906 1169 2906 1791 
z
M 3481 434 
Q 3481 -459 3084 -895 
Q 2688 -1331 1869 -1331 
Q 1566 -1331 1297 -1286 
Q 1028 -1241 775 -1147 
L 775 -588 
Q 1028 -725 1275 -790 
Q 1522 -856 1778 -856 
Q 2344 -856 2625 -561 
Q 2906 -266 2906 331 
L 2906 616 
Q 2728 306 2450 153 
Q 2172 0 1784 0 
Q 1141 0 747 490 
Q 353 981 353 1791 
Q 353 2603 747 3093 
Q 1141 3584 1784 3584 
Q 2172 3584 2450 3431 
Q 2728 3278 2906 2969 
L 2906 3500 
L 3481 3500 
L 3481 434 
z
" transform="scale(0.015625)"/>
      </defs>
      <use xlink:href="#DejaVuSans-4e"/>
      <use xlink:href="#DejaVuSans-61" transform="translate(74.804688 0)"/>
      <use xlink:href="#DejaVuSans-74" transform="translate(136.083984 0)"/>
      <use xlink:href="#DejaVuSans-6c" transform="translate(175.292969 0)"/>
      <use xlink:href="#DejaVuSans-20" transform="translate(203.076172 0)"/>
      <use xlink:href="#DejaVuSans-53" transform="translate(234.863281 0)"/>
      <use xlink:href="#DejaVuSans-61" transform="translate(298.339844 0)"/>
      <use xlink:href="#DejaVuSans-76" transform="translate(359.619141 0)"/>
      <use xlink:href="#DejaVuSans-69" transform="translate(418.798828 0)"/>
      <use xlink:href="#DejaVuSans-6e" transform="translate(446.582031 0)"/>
      <use xlink:href="#DejaVuSans-67" transform="translate(509.960938 0)"/>
      <use xlink:href="#DejaVuSans-20" transform="translate(573.4375 0)"/>
      <use xlink:href="#DejaVuSans-52" transform="translate(605.224609 0)"/>
      <use xlink:href="#DejaVuSans-61" transform="translate(672.457031 0)"/>
      <use xlink:href="#DejaVuSans-74" transform="translate(733.736328 0)"/>
      <use xlink:href="#DejaVuSans-65" transform="translate(772.945312 0)"/>
     </g>
    </g>
   </g>
   <g id="line2d_13">
    <path d="M 92.290909 202.313265 
L 97.239911 202.156866 
L 102.188914 202.311916 
L 104.663415 369.36 
L 112.086918 358.334788 
L 114.561419 354.49266 
L 117.03592 351.078701 
L 126.933925 338.323312 
L 134.357428 330.247831 
L 136.831929 327.241339 
L 141.780931 322.21728 
L 144.255432 320.141473 
L 146.729933 317.861543 
L 149.204435 315.355594 
L 151.678936 313.267864 
L 154.153437 311.51991 
L 156.627938 309.464887 
L 159.102439 308.043119 
L 161.57694 306.0619 
L 164.051441 304.545021 
L 166.525942 303.284422 
L 171.474945 300.400008 
L 173.949446 299.131544 
L 176.423947 297.668877 
L 178.898448 295.581249 
L 181.372949 294.32676 
L 186.321951 292.454903 
L 188.796452 291.23131 
L 193.745455 288.44384 
L 196.219956 286.764048 
L 198.694457 286.224147 
L 201.168958 285.871914 
L 203.643459 285.223144 
L 206.11796 284.108794 
L 208.592461 283.756972 
L 211.066962 282.169475 
L 213.541463 282.046629 
L 216.015965 281.024818 
L 218.490466 279.878183 
L 220.964967 279.637301 
L 223.439468 279.20405 
L 225.913969 278.614784 
L 228.38847 277.588995 
L 230.862971 277.549752 
L 233.337472 276.292207 
L 238.286475 275.043362 
L 240.760976 274.369215 
L 243.235477 273.980149 
L 245.709978 272.82504 
L 248.184479 273.070451 
L 253.133481 272.13766 
L 255.607982 271.316205 
L 258.082483 270.668928 
L 260.556984 270.924138 
L 263.031486 270.183838 
L 265.505987 269.818877 
L 267.980488 270.306189 
L 275.403991 270.016026 
L 277.878492 270.585523 
L 280.352993 269.694758 
L 282.827494 270.278186 
L 287.776497 269.907476 
L 290.250998 269.673246 
L 292.725499 269.162864 
L 295.2 269.108241 
L 297.674501 268.274699 
L 300.149002 268.73318 
L 302.623503 268.73017 
L 305.098004 267.970443 
L 307.572506 267.492457 
L 310.047007 267.590207 
L 312.521508 266.910918 
L 314.996009 266.872638 
L 317.47051 264.979739 
L 319.945011 266.445541 
L 322.419512 266.082972 
L 324.894013 266.871433 
L 327.368514 267.157022 
L 329.843016 267.852728 
L 332.317517 265.725126 
L 334.792018 265.985112 
L 337.266519 265.518876 
L 339.74102 265.577829 
L 342.215521 264.656429 
L 344.690022 264.617686 
L 349.639024 264.383436 
L 352.113525 263.749459 
L 354.588027 264.21943 
L 357.062528 262.960118 
L 359.537029 263.568272 
L 362.01153 263.104476 
L 364.486031 264.017467 
L 366.960532 263.67342 
L 369.435033 264.44726 
L 371.909534 263.589954 
L 374.384035 262.851961 
L 379.333038 263.741401 
L 381.807539 263.467706 
L 386.756541 261.925436 
L 389.231042 261.676331 
L 391.705543 262.508871 
L 394.180044 260.975155 
L 396.654545 261.939706 
L 401.603548 262.013811 
L 404.078049 262.369192 
L 406.55255 260.894893 
L 409.027051 261.6794 
L 411.501552 262.989053 
L 413.976053 261.939454 
L 416.450554 262.564882 
L 418.925055 262.551123 
L 421.399557 260.317554 
L 423.874058 259.93704 
L 426.348559 261.21019 
L 428.82306 261.973233 
L 431.297561 261.150731 
L 433.772062 262.555449 
L 436.246563 262.34827 
L 438.721064 263.073355 
L 441.195565 263.196379 
L 443.670067 262.805161 
L 446.144568 262.77763 
L 448.619069 263.883352 
L 451.09357 262.916376 
L 453.568071 262.570084 
L 456.042572 262.790526 
L 458.517073 261.576602 
L 460.991574 261.47719 
L 463.466075 262.669768 
L 465.940576 262.404421 
L 468.415078 263.094808 
L 470.889579 261.224971 
L 473.36408 262.021737 
L 475.838581 262.290721 
L 478.313082 262.726844 
L 480.787583 262.240176 
L 483.262084 262.227504 
L 485.736585 260.491003 
L 490.685588 262.132841 
L 493.160089 261.40485 
L 495.63459 261.229475 
L 498.109091 262.166806 
L 498.109091 262.166806 
" clip-path="url(#p3418756b8c)" style="fill: none; stroke: #1f77b4; stroke-width: 1.5; stroke-linecap: square"/>
   </g>
   <g id="line2d_14">
    <path d="M 92.290909 201.990788 
L 94.76541 202.070999 
L 97.239911 201.846208 
L 102.188914 201.93026 
L 104.663415 296.797448 
L 107.137916 295.036391 
L 109.612417 292.774392 
L 117.03592 286.696189 
L 119.510421 285.125627 
L 121.984922 283.400106 
L 124.459424 281.422412 
L 126.933925 279.603215 
L 129.408426 277.608045 
L 134.357428 274.475348 
L 136.831929 272.888577 
L 139.30643 271.770728 
L 141.780931 270.209266 
L 144.255432 269.262402 
L 146.729933 267.999678 
L 149.204435 266.45988 
L 151.678936 265.400444 
L 154.153437 264.763959 
L 156.627938 263.188738 
L 161.57694 261.379644 
L 169.000443 258.667428 
L 171.474945 257.353116 
L 173.949446 256.520385 
L 176.423947 255.516643 
L 178.898448 254.63537 
L 181.372949 254.314304 
L 183.84745 253.153681 
L 186.321951 252.151671 
L 188.796452 252.011729 
L 191.270953 251.56776 
L 193.745455 250.763015 
L 196.219956 250.094395 
L 198.694457 249.67449 
L 201.168958 248.899719 
L 208.592461 247.598515 
L 211.066962 247.094338 
L 213.541463 247.214967 
L 218.490466 246.302599 
L 220.964967 245.634718 
L 223.439468 245.187443 
L 225.913969 245.053729 
L 228.38847 244.240004 
L 230.862971 244.003034 
L 233.337472 243.457625 
L 235.811973 243.604428 
L 238.286475 243.269096 
L 240.760976 243.501341 
L 243.235477 242.523937 
L 245.709978 242.624407 
L 248.184479 242.562259 
L 253.133481 241.292486 
L 255.607982 241.43472 
L 258.082483 240.906854 
L 260.556984 240.839933 
L 263.031486 240.414928 
L 265.505987 240.208383 
L 267.980488 239.745625 
L 280.352993 238.767822 
L 282.827494 237.98641 
L 285.301996 238.489338 
L 287.776497 238.619285 
L 290.250998 238.081667 
L 292.725499 237.726925 
L 297.674501 237.595818 
L 300.149002 237.389195 
L 302.623503 237.56414 
L 305.098004 236.982356 
L 307.572506 236.592182 
L 310.047007 236.889288 
L 312.521508 236.687631 
L 317.47051 235.86016 
L 319.945011 235.667291 
L 322.419512 236.179604 
L 324.894013 235.469779 
L 329.843016 235.927919 
L 332.317517 235.672959 
L 334.792018 235.907164 
L 339.74102 235.232013 
L 342.215521 234.988 
L 344.690022 234.935055 
L 347.164523 234.53926 
L 349.639024 234.810984 
L 354.588027 234.675175 
L 357.062528 234.160427 
L 359.537029 234.200491 
L 362.01153 234.563305 
L 364.486031 234.361857 
L 366.960532 234.498474 
L 369.435033 233.521274 
L 371.909534 234.062414 
L 374.384035 233.910462 
L 376.858537 234.015711 
L 381.807539 233.606527 
L 384.28204 234.348592 
L 386.756541 234.370495 
L 389.231042 234.713898 
L 391.705543 234.730631 
L 396.654545 233.922802 
L 399.129047 234.838466 
L 401.603548 235.285385 
L 404.078049 234.121518 
L 406.55255 234.053977 
L 409.027051 234.793291 
L 413.976053 234.472869 
L 416.450554 235.030803 
L 418.925055 234.819599 
L 421.399557 231.377184 
L 423.874058 232.983026 
L 426.348559 233.906921 
L 428.82306 234.467422 
L 431.297561 234.860302 
L 433.772062 234.665343 
L 436.246563 234.99297 
L 438.721064 234.015466 
L 441.195565 234.424152 
L 443.670067 233.813991 
L 446.144568 234.466163 
L 448.619069 233.614865 
L 451.09357 232.601808 
L 453.568071 233.971266 
L 456.042572 234.066151 
L 458.517073 233.803908 
L 460.991574 234.004354 
L 463.466075 233.230103 
L 465.940576 232.935912 
L 468.415078 233.278958 
L 470.889579 233.958171 
L 473.36408 234.467355 
L 475.838581 233.844428 
L 478.313082 234.590144 
L 480.787583 233.639662 
L 483.262084 234.462765 
L 485.736585 234.387693 
L 488.211086 234.463084 
L 490.685588 234.763401 
L 493.160089 232.945417 
L 495.63459 233.530735 
L 498.109091 233.437023 
L 498.109091 233.437023 
" clip-path="url(#p3418756b8c)" style="fill: none; stroke: #ff7f0e; stroke-width: 1.5; stroke-linecap: square"/>
   </g>
   <g id="line2d_15">
    <path d="M 92.290909 202.496929 
L 99.714412 202.317004 
L 102.188914 202.346577 
L 104.663415 194.191688 
L 107.137916 192.792105 
L 114.561419 191.051248 
L 117.03592 190.029012 
L 119.510421 189.354855 
L 121.984922 188.86568 
L 124.459424 187.940942 
L 129.408426 187.175411 
L 131.882927 186.778244 
L 136.831929 185.53384 
L 141.780931 185.155702 
L 144.255432 184.759343 
L 149.204435 183.411391 
L 156.627938 181.76807 
L 159.102439 181.52588 
L 161.57694 180.991929 
L 164.051441 181.111607 
L 169.000443 179.83449 
L 171.474945 179.387381 
L 173.949446 179.295611 
L 176.423947 178.980358 
L 181.372949 178.201352 
L 183.84745 177.845595 
L 186.321951 177.091697 
L 188.796452 177.233177 
L 191.270953 176.941782 
L 193.745455 176.347084 
L 196.219956 176.102835 
L 198.694457 176.172488 
L 203.643459 174.68028 
L 206.11796 174.37212 
L 208.592461 174.377292 
L 211.066962 173.924263 
L 213.541463 174.989232 
L 216.015965 175.444624 
L 218.490466 174.982687 
L 220.964967 175.306562 
L 223.439468 174.591995 
L 225.913969 174.559088 
L 228.38847 174.209331 
L 230.862971 174.214459 
L 233.337472 174.650176 
L 235.811973 174.0345 
L 238.286475 173.655207 
L 243.235477 173.685603 
L 245.709978 174.105491 
L 248.184479 174.115775 
L 253.133481 173.077274 
L 258.082483 172.476498 
L 260.556984 173.001115 
L 263.031486 173.06275 
L 265.505987 171.857607 
L 267.980488 170.903426 
L 270.454989 170.245413 
L 272.92949 170.78803 
L 275.403991 171.172346 
L 282.827494 171.745403 
L 285.301996 171.356222 
L 287.776497 172.458546 
L 290.250998 171.938887 
L 292.725499 171.632441 
L 295.2 171.802107 
L 297.674501 172.831112 
L 300.149002 172.953343 
L 302.623503 172.633865 
L 305.098004 173.907822 
L 307.572506 172.523449 
L 310.047007 172.198784 
L 312.521508 171.373286 
L 314.996009 171.645879 
L 317.47051 169.589079 
L 319.945011 168.270163 
L 322.419512 169.014986 
L 324.894013 169.422223 
L 327.368514 168.838834 
L 332.317517 166.823833 
L 334.792018 169.106462 
L 339.74102 167.56003 
L 342.215521 167.159211 
L 344.690022 168.691967 
L 347.164523 166.745395 
L 349.639024 167.499616 
L 352.113525 170.002896 
L 354.588027 171.170788 
L 357.062528 172.537998 
L 359.537029 171.120573 
L 362.01153 171.224887 
L 364.486031 171.1357 
L 366.960532 170.569806 
L 369.435033 169.739844 
L 371.909534 169.466871 
L 374.384035 170.072072 
L 376.858537 170.34521 
L 379.333038 172.562208 
L 381.807539 172.40636 
L 384.28204 172.568974 
L 386.756541 171.661804 
L 389.231042 169.004262 
L 391.705543 169.528106 
L 394.180044 167.124423 
L 396.654545 167.146812 
L 399.129047 169.755009 
L 401.603548 171.207065 
L 404.078049 171.867227 
L 406.55255 170.127168 
L 409.027051 170.98716 
L 411.501552 170.966687 
L 413.976053 173.003517 
L 416.450554 174.071027 
L 418.925055 174.180657 
L 421.399557 173.010345 
L 423.874058 174.429188 
L 426.348559 173.59396 
L 428.82306 174.446275 
L 431.297561 174.10069 
L 433.772062 171.396598 
L 436.246563 168.285263 
L 438.721064 167.624586 
L 441.195565 171.657022 
L 443.670067 173.67768 
L 446.144568 174.500078 
L 448.619069 177.992187 
L 451.09357 173.495715 
L 453.568071 172.735387 
L 456.042572 172.45919 
L 460.991574 170.936433 
L 463.466075 173.318288 
L 465.940576 175.253486 
L 468.415078 173.973954 
L 473.36408 175.567796 
L 475.838581 175.620831 
L 478.313082 173.166495 
L 480.787583 173.529183 
L 483.262084 174.132884 
L 485.736585 176.574637 
L 488.211086 177.320469 
L 493.160089 176.133668 
L 495.63459 176.147572 
L 498.109091 176.400852 
L 498.109091 176.400852 
" clip-path="url(#p3418756b8c)" style="fill: none; stroke: #2ca02c; stroke-width: 1.5; stroke-linecap: square"/>
   </g>
   <g id="line2d_16">
    <path d="M 92.290909 202.292668 
L 99.714412 202.258857 
L 102.188914 202.099732 
L 104.663415 101.889522 
L 107.137916 101.697425 
L 109.612417 102.716991 
L 112.086918 103.344513 
L 114.561419 103.396273 
L 117.03592 102.889325 
L 119.510421 104.413328 
L 121.984922 104.757361 
L 124.459424 105.252694 
L 126.933925 104.534199 
L 129.408426 105.99684 
L 131.882927 106.627436 
L 136.831929 106.57653 
L 139.30643 107.336282 
L 141.780931 107.290809 
L 144.255432 108.00331 
L 149.204435 107.810514 
L 151.678936 106.913494 
L 154.153437 107.148049 
L 156.627938 105.487223 
L 159.102439 104.573327 
L 161.57694 106.264556 
L 164.051441 107.169964 
L 166.525942 108.2353 
L 169.000443 111.023591 
L 171.474945 111.968025 
L 173.949446 111.880639 
L 176.423947 112.491351 
L 178.898448 111.808353 
L 181.372949 112.208406 
L 186.321951 109.889807 
L 188.796452 108.69008 
L 191.270953 107.719757 
L 193.745455 110.211363 
L 196.219956 111.658539 
L 198.694457 110.191173 
L 201.168958 109.303383 
L 203.643459 109.494357 
L 206.11796 106.135185 
L 208.592461 106.954734 
L 211.066962 104.741359 
L 213.541463 108.254999 
L 216.015965 112.143397 
L 218.490466 111.765969 
L 220.964967 113.023881 
L 223.439468 112.297894 
L 225.913969 110.303304 
L 228.38847 109.701366 
L 230.862971 109.364759 
L 233.337472 106.176652 
L 235.811973 105.6948 
L 238.286475 106.631104 
L 240.760976 109.824645 
L 243.235477 107.396385 
L 245.709978 111.39904 
L 248.184479 112.870308 
L 250.65898 114.126917 
L 253.133481 112.870014 
L 255.607982 112.55879 
L 258.082483 115.216443 
L 260.556984 122.146567 
L 263.031486 118.883324 
L 265.505987 118.85968 
L 267.980488 120.384319 
L 270.454989 122.1364 
L 272.92949 121.620085 
L 275.403991 120.054778 
L 277.878492 117.985075 
L 280.352993 109.067604 
L 282.827494 114.168424 
L 285.301996 110.085992 
L 287.776497 107.02635 
L 290.250998 100.607873 
L 292.725499 93.101038 
L 295.2 90.755166 
L 297.674501 89.413517 
L 300.149002 86.275789 
L 302.623503 78.282888 
L 305.098004 96.281916 
L 307.572506 86.146278 
L 310.047007 83.106615 
L 312.521508 88.681724 
L 314.996009 80.15558 
L 317.47051 89.047142 
L 319.945011 94.052447 
L 322.419512 101.54355 
L 324.894013 103.206883 
L 327.368514 106.79947 
L 329.843016 99.657518 
L 332.317517 97.51425 
L 334.792018 87.487951 
L 337.266519 90.609127 
L 339.74102 100.847002 
L 342.215521 110.363115 
L 344.690022 105.480352 
L 347.164523 104.392639 
L 349.639024 118.03091 
L 354.588027 114.18169 
L 357.062528 98.141039 
L 359.537029 115.225168 
L 362.01153 131.2624 
L 364.486031 131.430934 
L 366.960532 125.826085 
L 369.435033 134.673058 
L 371.909534 139.859087 
L 374.384035 152.658478 
L 376.858537 157.35185 
L 379.333038 148.9191 
L 381.807539 154.062421 
L 384.28204 163.309793 
L 386.756541 154.572614 
L 389.231042 142.001325 
L 391.705543 141.134925 
L 394.180044 157.857697 
L 396.654545 145.698772 
L 399.129047 141.450586 
L 401.603548 148.280336 
L 404.078049 136.768325 
L 406.55255 141.44364 
L 409.027051 134.159311 
L 411.501552 135.960634 
L 413.976053 123.527063 
L 416.450554 134.03989 
L 418.925055 126.857221 
L 421.399557 121.411197 
L 423.874058 111.748093 
L 426.348559 120.915727 
L 428.82306 117.000695 
L 431.297561 111.245348 
L 433.772062 110.530174 
L 436.246563 120.542566 
L 438.721064 137.006277 
L 441.195565 135.671121 
L 443.670067 150.716924 
L 446.144568 157.260222 
L 448.619069 168.456841 
L 451.09357 182.850219 
L 453.568071 164.924885 
L 456.042572 166.004402 
L 458.517073 168.76828 
L 460.991574 164.374346 
L 463.466075 171.523393 
L 465.940576 169.861871 
L 468.415078 167.7094 
L 470.889579 164.303099 
L 473.36408 165.145758 
L 475.838581 159.220271 
L 478.313082 166.623954 
L 480.787583 160.25558 
L 483.262084 162.782911 
L 485.736585 164.293666 
L 488.211086 162.009579 
L 490.685588 153.304321 
L 493.160089 146.588693 
L 495.63459 143.977173 
L 498.109091 133.488613 
L 498.109091 133.488613 
" clip-path="url(#p3418756b8c)" style="fill: none; stroke: #d62728; stroke-width: 1.5; stroke-linecap: square"/>
   </g>
   <g id="line2d_17">
    <path d="M 92.290909 202.439086 
L 94.76541 202.419572 
L 97.239911 202.236558 
L 102.188914 202.259871 
L 104.663415 67.441433 
L 107.137916 67.061693 
L 109.612417 66.96 
L 112.086918 68.472931 
L 114.561419 69.628035 
L 117.03592 70.246185 
L 119.510421 70.448918 
L 121.984922 70.141849 
L 124.459424 70.686405 
L 126.933925 72.776657 
L 129.408426 74.279467 
L 131.882927 76.362205 
L 136.831929 79.252454 
L 139.30643 78.777658 
L 141.780931 79.691487 
L 144.255432 80.363753 
L 146.729933 80.606009 
L 149.204435 79.878847 
L 151.678936 82.204029 
L 154.153437 83.134831 
L 156.627938 85.421276 
L 159.102439 86.031388 
L 161.57694 88.474837 
L 164.051441 85.590982 
L 166.525942 87.21206 
L 169.000443 89.523368 
L 171.474945 88.861915 
L 173.949446 89.29503 
L 176.423947 91.27099 
L 178.898448 92.595745 
L 181.372949 94.777744 
L 183.84745 93.823127 
L 186.321951 95.748081 
L 188.796452 99.334316 
L 191.270953 95.20064 
L 193.745455 99.225414 
L 196.219956 98.644039 
L 198.694457 96.382539 
L 201.168958 96.379765 
L 203.643459 92.393587 
L 206.11796 94.562074 
L 208.592461 93.088728 
L 211.066962 90.182747 
L 216.015965 91.560718 
L 218.490466 91.238369 
L 220.964967 94.786952 
L 223.439468 92.662195 
L 225.913969 97.248753 
L 228.38847 96.479137 
L 230.862971 100.006811 
L 233.337472 102.973844 
L 235.811973 99.496249 
L 238.286475 96.859625 
L 240.760976 99.38915 
L 243.235477 104.837661 
L 245.709978 102.623801 
L 248.184479 101.993773 
L 250.65898 106.121979 
L 253.133481 103.914427 
L 255.607982 96.728743 
L 258.082483 95.83271 
L 260.556984 87.235046 
L 263.031486 91.637238 
L 265.505987 100.055949 
L 267.980488 104.262683 
L 270.454989 103.675547 
L 272.92949 98.433607 
L 275.403991 104.231677 
L 277.878492 100.807141 
L 280.352993 112.152794 
L 282.827494 113.802644 
L 285.301996 110.886158 
L 287.776497 109.240443 
L 290.250998 112.481306 
L 292.725499 106.902002 
L 295.2 109.253533 
L 297.674501 93.369 
L 300.149002 84.27752 
L 302.623503 91.026287 
L 307.572506 96.023471 
L 310.047007 105.785303 
L 312.521508 110.234809 
L 314.996009 113.855376 
L 317.47051 119.096821 
L 319.945011 118.650593 
L 322.419512 112.11346 
L 324.894013 131.447217 
L 327.368514 135.011172 
L 329.843016 124.345755 
L 332.317517 120.162332 
L 334.792018 119.509877 
L 337.266519 114.31773 
L 339.74102 106.340111 
L 342.215521 90.363883 
L 344.690022 112.206144 
L 347.164523 115.255957 
L 349.639024 109.769996 
L 352.113525 108.745489 
L 354.588027 110.945915 
L 357.062528 108.14349 
L 359.537029 119.786922 
L 362.01153 124.972887 
L 364.486031 120.903551 
L 366.960532 128.754208 
L 369.435033 125.790754 
L 371.909534 135.785498 
L 374.384035 125.654647 
L 376.858537 127.949977 
L 379.333038 123.105431 
L 381.807539 122.693914 
L 384.28204 115.302921 
L 386.756541 113.19595 
L 389.231042 96.060623 
L 391.705543 90.876433 
L 394.180044 86.446908 
L 396.654545 77.572539 
L 399.129047 92.261818 
L 401.603548 101.792908 
L 404.078049 82.890998 
L 406.55255 79.09528 
L 409.027051 97.981805 
L 411.501552 100.047908 
L 413.976053 101.817376 
L 416.450554 105.679508 
L 418.925055 110.6403 
L 421.399557 107.268933 
L 423.874058 107.563848 
L 426.348559 104.79988 
L 428.82306 98.552127 
L 431.297561 126.687838 
L 433.772062 122.477168 
L 436.246563 119.333488 
L 438.721064 123.545235 
L 441.195565 126.541323 
L 443.670067 133.280576 
L 446.144568 133.931824 
L 448.619069 146.670737 
L 451.09357 154.003119 
L 453.568071 127.015897 
L 456.042572 116.771103 
L 458.517073 115.019842 
L 460.991574 132.619129 
L 463.466075 132.328146 
L 465.940576 122.484307 
L 468.415078 133.649571 
L 470.889579 145.393137 
L 473.36408 124.114901 
L 475.838581 116.276626 
L 478.313082 113.511582 
L 480.787583 137.795487 
L 483.262084 138.700704 
L 485.736585 133.99273 
L 488.211086 141.056431 
L 490.685588 135.085413 
L 493.160089 138.592583 
L 495.63459 137.45258 
L 498.109091 131.29992 
L 498.109091 131.29992 
" clip-path="url(#p3418756b8c)" style="fill: none; stroke: #9467bd; stroke-width: 1.5; stroke-linecap: square"/>
   </g>
   <g id="patch_3">
    <path d="M 72 384.48 
L 72 51.84 
" style="fill: none; stroke: #000000; stroke-width: 0.8; stroke-linejoin: miter; stroke-linecap: square"/>
   </g>
   <g id="patch_4">
    <path d="M 518.4 384.48 
L 518.4 51.84 
" style="fill: none; stroke: #000000; stroke-width: 0.8; stroke-linejoin: miter; stroke-linecap: square"/>
   </g>
   <g id="patch_5">
    <path d="M 72 384.48 
L 518.4 384.48 
" style="fill: none; stroke: #000000; stroke-width: 0.8; stroke-linejoin: miter; stroke-linecap: square"/>
   </g>
   <g id="patch_6">
    <path d="M 72 51.84 
L 518.4 51.84 
" style="fill: none; stroke: #000000; stroke-width: 0.8; stroke-linejoin: miter; stroke-linecap: square"/>
   </g>
   <g id="legend_1">
    <g id="patch_7">
     <path d="M 74 45.1872 
L 516.4 45.1872 
Q 518.4 45.1872 518.4 43.1872 
L 518.4 0.152825 
Q 518.4 -1.847175 516.4 -1.847175 
L 74 -1.847175 
Q 72 -1.847175 72 0.152825 
L 72 43.1872 
Q 72 45.1872 74 45.1872 
z
" style="fill: #ffffff; opacity: 0.8; stroke: #cccccc; stroke-linejoin: miter"/>
    </g>
    <g id="line2d_18">
     <path d="M 76 6.251262 
L 86 6.251262 
L 96 6.251262 
" style="fill: none; stroke: #1f77b4; stroke-width: 1.5; stroke-linecap: square"/>
    </g>
    <g id="text_15">
     <!-- 1.0 x variance -->
     <g transform="translate(104 9.751262) scale(0.1 -0.1)">
      <defs>
       <path id="DejaVuSans-78" d="M 3513 3500 
L 2247 1797 
L 3578 0 
L 2900 0 
L 1881 1375 
L 863 0 
L 184 0 
L 1544 1831 
L 300 3500 
L 978 3500 
L 1906 2253 
L 2834 3500 
L 3513 3500 
z
" transform="scale(0.015625)"/>
      </defs>
      <use xlink:href="#DejaVuSans-31"/>
      <use xlink:href="#DejaVuSans-2e" transform="translate(63.623047 0)"/>
      <use xlink:href="#DejaVuSans-30" transform="translate(95.410156 0)"/>
      <use xlink:href="#DejaVuSans-20" transform="translate(159.033203 0)"/>
      <use xlink:href="#DejaVuSans-78" transform="translate(190.820312 0)"/>
      <use xlink:href="#DejaVuSans-20" transform="translate(250 0)"/>
      <use xlink:href="#DejaVuSans-76" transform="translate(281.787109 0)"/>
      <use xlink:href="#DejaVuSans-61" transform="translate(340.966797 0)"/>
      <use xlink:href="#DejaVuSans-72" transform="translate(402.246094 0)"/>
      <use xlink:href="#DejaVuSans-69" transform="translate(443.359375 0)"/>
      <use xlink:href="#DejaVuSans-61" transform="translate(471.142578 0)"/>
      <use xlink:href="#DejaVuSans-6e" transform="translate(532.421875 0)"/>
      <use xlink:href="#DejaVuSans-63" transform="translate(595.800781 0)"/>
      <use xlink:href="#DejaVuSans-65" transform="translate(650.78125 0)"/>
     </g>
    </g>
    <g id="line2d_19">
     <path d="M 76 20.929387 
L 86 20.929387 
L 96 20.929387 
" style="fill: none; stroke: #ff7f0e; stroke-width: 1.5; stroke-linecap: square"/>
    </g>
    <g id="text_16">
     <!-- 2.0 x variance -->
     <g transform="translate(104 24.429387) scale(0.1 -0.1)">
      <use xlink:href="#DejaVuSans-32"/>
      <use xlink:href="#DejaVuSans-2e" transform="translate(63.623047 0)"/>
      <use xlink:href="#DejaVuSans-30" transform="translate(95.410156 0)"/>
      <use xlink:href="#DejaVuSans-20" transform="translate(159.033203 0)"/>
      <use xlink:href="#DejaVuSans-78" transform="translate(190.820312 0)"/>
      <use xlink:href="#DejaVuSans-20" transform="translate(250 0)"/>
      <use xlink:href="#DejaVuSans-76" transform="translate(281.787109 0)"/>
      <use xlink:href="#DejaVuSans-61" transform="translate(340.966797 0)"/>
      <use xlink:href="#DejaVuSans-72" transform="translate(402.246094 0)"/>
      <use xlink:href="#DejaVuSans-69" transform="translate(443.359375 0)"/>
      <use xlink:href="#DejaVuSans-61" transform="translate(471.142578 0)"/>
      <use xlink:href="#DejaVuSans-6e" transform="translate(532.421875 0)"/>
      <use xlink:href="#DejaVuSans-63" transform="translate(595.800781 0)"/>
      <use xlink:href="#DejaVuSans-65" transform="translate(650.78125 0)"/>
     </g>
    </g>
    <g id="line2d_20">
     <path d="M 76 35.607512 
L 86 35.607512 
L 96 35.607512 
" style="fill: none; stroke: #2ca02c; stroke-width: 1.5; stroke-linecap: square"/>
    </g>
    <g id="text_17">
     <!-- 4.0 x variance -->
     <g transform="translate(104 39.107512) scale(0.1 -0.1)">
      <defs>
       <path id="DejaVuSans-34" d="M 2419 4116 
L 825 1625 
L 2419 1625 
L 2419 4116 
z
M 2253 4666 
L 3047 4666 
L 3047 1625 
L 3713 1625 
L 3713 1100 
L 3047 1100 
L 3047 0 
L 2419 0 
L 2419 1100 
L 313 1100 
L 313 1709 
L 2253 4666 
z
" transform="scale(0.015625)"/>
      </defs>
      <use xlink:href="#DejaVuSans-34"/>
      <use xlink:href="#DejaVuSans-2e" transform="translate(63.623047 0)"/>
      <use xlink:href="#DejaVuSans-30" transform="translate(95.410156 0)"/>
      <use xlink:href="#DejaVuSans-20" transform="translate(159.033203 0)"/>
      <use xlink:href="#DejaVuSans-78" transform="translate(190.820312 0)"/>
      <use xlink:href="#DejaVuSans-20" transform="translate(250 0)"/>
      <use xlink:href="#DejaVuSans-76" transform="translate(281.787109 0)"/>
      <use xlink:href="#DejaVuSans-61" transform="translate(340.966797 0)"/>
      <use xlink:href="#DejaVuSans-72" transform="translate(402.246094 0)"/>
      <use xlink:href="#DejaVuSans-69" transform="translate(443.359375 0)"/>
      <use xlink:href="#DejaVuSans-61" transform="translate(471.142578 0)"/>
      <use xlink:href="#DejaVuSans-6e" transform="translate(532.421875 0)"/>
      <use xlink:href="#DejaVuSans-63" transform="translate(595.800781 0)"/>
      <use xlink:href="#DejaVuSans-65" transform="translate(650.78125 0)"/>
     </g>
    </g>
    <g id="line2d_21">
     <path d="M 408.80625 6.251262 
L 418.80625 6.251262 
L 428.80625 6.251262 
" style="fill: none; stroke: #d62728; stroke-width: 1.5; stroke-linecap: square"/>
    </g>
    <g id="text_18">
     <!-- 8.0 x variance -->
     <g transform="translate(436.80625 9.751262) scale(0.1 -0.1)">
      <defs>
       <path id="DejaVuSans-38" d="M 2034 2216 
Q 1584 2216 1326 1975 
Q 1069 1734 1069 1313 
Q 1069 891 1326 650 
Q 1584 409 2034 409 
Q 2484 409 2743 651 
Q 3003 894 3003 1313 
Q 3003 1734 2745 1975 
Q 2488 2216 2034 2216 
z
M 1403 2484 
Q 997 2584 770 2862 
Q 544 3141 544 3541 
Q 544 4100 942 4425 
Q 1341 4750 2034 4750 
Q 2731 4750 3128 4425 
Q 3525 4100 3525 3541 
Q 3525 3141 3298 2862 
Q 3072 2584 2669 2484 
Q 3125 2378 3379 2068 
Q 3634 1759 3634 1313 
Q 3634 634 3220 271 
Q 2806 -91 2034 -91 
Q 1263 -91 848 271 
Q 434 634 434 1313 
Q 434 1759 690 2068 
Q 947 2378 1403 2484 
z
M 1172 3481 
Q 1172 3119 1398 2916 
Q 1625 2713 2034 2713 
Q 2441 2713 2670 2916 
Q 2900 3119 2900 3481 
Q 2900 3844 2670 4047 
Q 2441 4250 2034 4250 
Q 1625 4250 1398 4047 
Q 1172 3844 1172 3481 
z
" transform="scale(0.015625)"/>
      </defs>
      <use xlink:href="#DejaVuSans-38"/>
      <use xlink:href="#DejaVuSans-2e" transform="translate(63.623047 0)"/>
      <use xlink:href="#DejaVuSans-30" transform="translate(95.410156 0)"/>
      <use xlink:href="#DejaVuSans-20" transform="translate(159.033203 0)"/>
      <use xlink:href="#DejaVuSans-78" transform="translate(190.820312 0)"/>
      <use xlink:href="#DejaVuSans-20" transform="translate(250 0)"/>
      <use xlink:href="#DejaVuSans-76" transform="translate(281.787109 0)"/>
      <use xlink:href="#DejaVuSans-61" transform="translate(340.966797 0)"/>
      <use xlink:href="#DejaVuSans-72" transform="translate(402.246094 0)"/>
      <use xlink:href="#DejaVuSans-69" transform="translate(443.359375 0)"/>
      <use xlink:href="#DejaVuSans-61" transform="translate(471.142578 0)"/>
      <use xlink:href="#DejaVuSans-6e" transform="translate(532.421875 0)"/>
      <use xlink:href="#DejaVuSans-63" transform="translate(595.800781 0)"/>
      <use xlink:href="#DejaVuSans-65" transform="translate(650.78125 0)"/>
     </g>
    </g>
    <g id="line2d_22">
     <path d="M 408.80625 20.929387 
L 418.80625 20.929387 
L 428.80625 20.929387 
" style="fill: none; stroke: #9467bd; stroke-width: 1.5; stroke-linecap: square"/>
    </g>
    <g id="text_19">
     <!-- 11.0 x variance -->
     <g transform="translate(436.80625 24.429387) scale(0.1 -0.1)">
      <use xlink:href="#DejaVuSans-31"/>
      <use xlink:href="#DejaVuSans-31" transform="translate(63.623047 0)"/>
      <use xlink:href="#DejaVuSans-2e" transform="translate(127.246094 0)"/>
      <use xlink:href="#DejaVuSans-30" transform="translate(159.033203 0)"/>
      <use xlink:href="#DejaVuSans-20" transform="translate(222.65625 0)"/>
      <use xlink:href="#DejaVuSans-78" transform="translate(254.443359 0)"/>
      <use xlink:href="#DejaVuSans-20" transform="translate(313.623047 0)"/>
      <use xlink:href="#DejaVuSans-76" transform="translate(345.410156 0)"/>
      <use xlink:href="#DejaVuSans-61" transform="translate(404.589844 0)"/>
      <use xlink:href="#DejaVuSans-72" transform="translate(465.869141 0)"/>
      <use xlink:href="#DejaVuSans-69" transform="translate(506.982422 0)"/>
      <use xlink:href="#DejaVuSans-61" transform="translate(534.765625 0)"/>
      <use xlink:href="#DejaVuSans-6e" transform="translate(596.044922 0)"/>
      <use xlink:href="#DejaVuSans-63" transform="translate(659.423828 0)"/>
      <use xlink:href="#DejaVuSans-65" transform="translate(714.404297 0)"/>
     </g>
    </g>
   </g>
  </g>
 </g>
 <defs>
  <clipPath id="p3418756b8c">
   <rect x="72" y="51.84" width="446.4" height="332.64"/>
  </clipPath>
 </defs>
</svg>
