<?xml version="1.0" encoding="utf-8" standalone="no"?>
<!DOCTYPE svg PUBLIC "-//W3C//DTD SVG 1.1//EN"
  "http://www.w3.org/Graphics/SVG/1.1/DTD/svg11.dtd">
<svg xmlns:xlink="http://www.w3.org/1999/xlink" width="1008pt" height="576pt" viewBox="0 0 1008 576" xmlns="http://www.w3.org/2000/svg" version="1.1">
 <metadata>
  <rdf:RDF xmlns:dc="http://purl.org/dc/elements/1.1/" xmlns:cc="http://creativecommons.org/ns#" xmlns:rdf="http://www.w3.org/1999/02/22-rdf-syntax-ns#">
   <cc:Work>
    <dc:type rdf:resource="http://purl.org/dc/dcmitype/StillImage"/>
    <dc:format>image/svg+xml</dc:format>
    <dc:creator>
     <cc:Agent>
      <dc:title>Matplotlib v3.10.6, https://matplotlib.org/</dc:title>
     </cc:Agent>
    </dc:creator>
   </cc:Work>
  </rdf:RDF>
 </metadata>
 <defs>
  <style type="text/css">*{stroke-linejoin: round; stroke-linecap: butt}</style>
 </defs>
 <g id="figure_1">
  <g id="patch_1">
   <path d="M 0 576 
L 1008 576 
L 1008 0 
L 0 0 
z
" style="fill: #ffffff"/>
  </g>
  <g id="axes_1">
   <g id="patch_2">
    <path d="M 126 512.64 
L 907.2 512.64 
L 907.2 69.12 
L 126 69.12 
z
" style="fill: #eaeaf2"/>
   </g>
   <g id="matplotlib.axis_1">
    <g id="xtick_1">
     <g id="line2d_1">
      <path d="M 196.272126 512.64 
L 196.272126 69.12 
" clip-path="url(#pebf6af777b)" style="fill: none; stroke: #ffffff; stroke-width: 0.8; stroke-linecap: round"/>
     </g>
     <g id="line2d_2"/>
     <g id="text_1">
      <!-- 1960 -->
      <g style="fill: #262626" transform="translate(185.150251 523.297812) scale(0.1 -0.1)">
       <defs>
        <path id="ArialMT-31" d="M 2384 0 
L 1822 0 
L 1822 3584 
Q 1619 3391 1289 3197 
Q 959 3003 697 2906 
L 697 3450 
Q 1169 3672 1522 3987 
Q 1875 4303 2022 4600 
L 2384 4600 
L 2384 0 
z
" transform="scale(0.015625)"/>
        <path id="ArialMT-39" d="M 350 1059 
L 891 1109 
Q 959 728 1153 556 
Q 1347 384 1650 384 
Q 1909 384 2104 503 
Q 2300 622 2425 820 
Q 2550 1019 2634 1356 
Q 2719 1694 2719 2044 
Q 2719 2081 2716 2156 
Q 2547 1888 2255 1720 
Q 1963 1553 1622 1553 
Q 1053 1553 659 1965 
Q 266 2378 266 3053 
Q 266 3750 677 4175 
Q 1088 4600 1706 4600 
Q 2153 4600 2523 4359 
Q 2894 4119 3086 3673 
Q 3278 3228 3278 2384 
Q 3278 1506 3087 986 
Q 2897 466 2520 194 
Q 2144 -78 1638 -78 
Q 1100 -78 759 220 
Q 419 519 350 1059 
z
M 2653 3081 
Q 2653 3566 2395 3850 
Q 2138 4134 1775 4134 
Q 1400 4134 1122 3828 
Q 844 3522 844 3034 
Q 844 2597 1108 2323 
Q 1372 2050 1759 2050 
Q 2150 2050 2401 2323 
Q 2653 2597 2653 3081 
z
" transform="scale(0.015625)"/>
        <path id="ArialMT-36" d="M 3184 3459 
L 2625 3416 
Q 2550 3747 2413 3897 
Q 2184 4138 1850 4138 
Q 1581 4138 1378 3988 
Q 1113 3794 959 3422 
Q 806 3050 800 2363 
Q 1003 2672 1297 2822 
Q 1591 2972 1913 2972 
Q 2475 2972 2870 2558 
Q 3266 2144 3266 1488 
Q 3266 1056 3080 686 
Q 2894 316 2569 119 
Q 2244 -78 1831 -78 
Q 1128 -78 684 439 
Q 241 956 241 2144 
Q 241 3472 731 4075 
Q 1159 4600 1884 4600 
Q 2425 4600 2770 4297 
Q 3116 3994 3184 3459 
z
M 888 1484 
Q 888 1194 1011 928 
Q 1134 663 1356 523 
Q 1578 384 1822 384 
Q 2178 384 2434 671 
Q 2691 959 2691 1453 
Q 2691 1928 2437 2201 
Q 2184 2475 1800 2475 
Q 1419 2475 1153 2201 
Q 888 1928 888 1484 
z
" transform="scale(0.015625)"/>
        <path id="ArialMT-30" d="M 266 2259 
Q 266 3072 433 3567 
Q 600 4063 929 4331 
Q 1259 4600 1759 4600 
Q 2128 4600 2406 4451 
Q 2684 4303 2865 4023 
Q 3047 3744 3150 3342 
Q 3253 2941 3253 2259 
Q 3253 1453 3087 958 
Q 2922 463 2592 192 
Q 2263 -78 1759 -78 
Q 1097 -78 719 397 
Q 266 969 266 2259 
z
M 844 2259 
Q 844 1131 1108 757 
Q 1372 384 1759 384 
Q 2147 384 2411 759 
Q 2675 1134 2675 2259 
Q 2675 3391 2411 3762 
Q 2147 4134 1753 4134 
Q 1366 4134 1134 3806 
Q 844 3388 844 2259 
z
" transform="scale(0.015625)"/>
       </defs>
       <use xlink:href="#ArialMT-31"/>
       <use xlink:href="#ArialMT-39" transform="translate(55.615234 0)"/>
       <use xlink:href="#ArialMT-36" transform="translate(111.230469 0)"/>
       <use xlink:href="#ArialMT-30" transform="translate(166.845703 0)"/>
      </g>
     </g>
    </g>
    <g id="xtick_2">
     <g id="line2d_3">
      <path d="M 312.24415 512.64 
L 312.24415 69.12 
" clip-path="url(#pebf6af777b)" style="fill: none; stroke: #ffffff; stroke-width: 0.8; stroke-linecap: round"/>
     </g>
     <g id="line2d_4"/>
     <g id="text_2">
      <!-- 1970 -->
      <g style="fill: #262626" transform="translate(301.122275 523.297812) scale(0.1 -0.1)">
       <defs>
        <path id="ArialMT-37" d="M 303 3981 
L 303 4522 
L 3269 4522 
L 3269 4084 
Q 2831 3619 2401 2847 
Q 1972 2075 1738 1259 
Q 1569 684 1522 0 
L 944 0 
Q 953 541 1156 1306 
Q 1359 2072 1739 2783 
Q 2119 3494 2547 3981 
L 303 3981 
z
" transform="scale(0.015625)"/>
       </defs>
       <use xlink:href="#ArialMT-31"/>
       <use xlink:href="#ArialMT-39" transform="translate(55.615234 0)"/>
       <use xlink:href="#ArialMT-37" transform="translate(111.230469 0)"/>
       <use xlink:href="#ArialMT-30" transform="translate(166.845703 0)"/>
      </g>
     </g>
    </g>
    <g id="xtick_3">
     <g id="line2d_5">
      <path d="M 428.184427 512.64 
L 428.184427 69.12 
" clip-path="url(#pebf6af777b)" style="fill: none; stroke: #ffffff; stroke-width: 0.8; stroke-linecap: round"/>
     </g>
     <g id="line2d_6"/>
     <g id="text_3">
      <!-- 1980 -->
      <g style="fill: #262626" transform="translate(417.062552 523.297812) scale(0.1 -0.1)">
       <defs>
        <path id="ArialMT-38" d="M 1131 2484 
Q 781 2613 612 2850 
Q 444 3088 444 3419 
Q 444 3919 803 4259 
Q 1163 4600 1759 4600 
Q 2359 4600 2725 4251 
Q 3091 3903 3091 3403 
Q 3091 3084 2923 2848 
Q 2756 2613 2416 2484 
Q 2838 2347 3058 2040 
Q 3278 1734 3278 1309 
Q 3278 722 2862 322 
Q 2447 -78 1769 -78 
Q 1091 -78 675 323 
Q 259 725 259 1325 
Q 259 1772 486 2073 
Q 713 2375 1131 2484 
z
M 1019 3438 
Q 1019 3113 1228 2906 
Q 1438 2700 1772 2700 
Q 2097 2700 2305 2904 
Q 2513 3109 2513 3406 
Q 2513 3716 2298 3927 
Q 2084 4138 1766 4138 
Q 1444 4138 1231 3931 
Q 1019 3725 1019 3438 
z
M 838 1322 
Q 838 1081 952 856 
Q 1066 631 1291 507 
Q 1516 384 1775 384 
Q 2178 384 2440 643 
Q 2703 903 2703 1303 
Q 2703 1709 2433 1975 
Q 2163 2241 1756 2241 
Q 1359 2241 1098 1978 
Q 838 1716 838 1322 
z
" transform="scale(0.015625)"/>
       </defs>
       <use xlink:href="#ArialMT-31"/>
       <use xlink:href="#ArialMT-39" transform="translate(55.615234 0)"/>
       <use xlink:href="#ArialMT-38" transform="translate(111.230469 0)"/>
       <use xlink:href="#ArialMT-30" transform="translate(166.845703 0)"/>
      </g>
     </g>
    </g>
    <g id="xtick_4">
     <g id="line2d_7">
      <path d="M 544.156451 512.64 
L 544.156451 69.12 
" clip-path="url(#pebf6af777b)" style="fill: none; stroke: #ffffff; stroke-width: 0.8; stroke-linecap: round"/>
     </g>
     <g id="line2d_8"/>
     <g id="text_4">
      <!-- 1990 -->
      <g style="fill: #262626" transform="translate(533.034576 523.297812) scale(0.1 -0.1)">
       <use xlink:href="#ArialMT-31"/>
       <use xlink:href="#ArialMT-39" transform="translate(55.615234 0)"/>
       <use xlink:href="#ArialMT-39" transform="translate(111.230469 0)"/>
       <use xlink:href="#ArialMT-30" transform="translate(166.845703 0)"/>
      </g>
     </g>
    </g>
    <g id="xtick_5">
     <g id="line2d_9">
      <path d="M 660.096729 512.64 
L 660.096729 69.12 
" clip-path="url(#pebf6af777b)" style="fill: none; stroke: #ffffff; stroke-width: 0.8; stroke-linecap: round"/>
     </g>
     <g id="line2d_10"/>
     <g id="text_5">
      <!-- 2000 -->
      <g style="fill: #262626" transform="translate(648.974854 523.297812) scale(0.1 -0.1)">
       <defs>
        <path id="ArialMT-32" d="M 3222 541 
L 3222 0 
L 194 0 
Q 188 203 259 391 
Q 375 700 629 1000 
Q 884 1300 1366 1694 
Q 2113 2306 2375 2664 
Q 2638 3022 2638 3341 
Q 2638 3675 2398 3904 
Q 2159 4134 1775 4134 
Q 1369 4134 1125 3890 
Q 881 3647 878 3216 
L 300 3275 
Q 359 3922 746 4261 
Q 1134 4600 1788 4600 
Q 2447 4600 2831 4234 
Q 3216 3869 3216 3328 
Q 3216 3053 3103 2787 
Q 2991 2522 2730 2228 
Q 2469 1934 1863 1422 
Q 1356 997 1212 845 
Q 1069 694 975 541 
L 3222 541 
z
" transform="scale(0.015625)"/>
       </defs>
       <use xlink:href="#ArialMT-32"/>
       <use xlink:href="#ArialMT-30" transform="translate(55.615234 0)"/>
       <use xlink:href="#ArialMT-30" transform="translate(111.230469 0)"/>
       <use xlink:href="#ArialMT-30" transform="translate(166.845703 0)"/>
      </g>
     </g>
    </g>
    <g id="xtick_6">
     <g id="line2d_11">
      <path d="M 776.068753 512.64 
L 776.068753 69.12 
" clip-path="url(#pebf6af777b)" style="fill: none; stroke: #ffffff; stroke-width: 0.8; stroke-linecap: round"/>
     </g>
     <g id="line2d_12"/>
     <g id="text_6">
      <!-- 2010 -->
      <g style="fill: #262626" transform="translate(764.946878 523.297812) scale(0.1 -0.1)">
       <use xlink:href="#ArialMT-32"/>
       <use xlink:href="#ArialMT-30" transform="translate(55.615234 0)"/>
       <use xlink:href="#ArialMT-31" transform="translate(111.230469 0)"/>
       <use xlink:href="#ArialMT-30" transform="translate(166.845703 0)"/>
      </g>
     </g>
    </g>
    <g id="xtick_7">
     <g id="line2d_13">
      <path d="M 892.00903 512.64 
L 892.00903 69.12 
" clip-path="url(#pebf6af777b)" style="fill: none; stroke: #ffffff; stroke-width: 0.8; stroke-linecap: round"/>
     </g>
     <g id="line2d_14"/>
     <g id="text_7">
      <!-- 2020 -->
      <g style="fill: #262626" transform="translate(880.887155 523.297812) scale(0.1 -0.1)">
       <use xlink:href="#ArialMT-32"/>
       <use xlink:href="#ArialMT-30" transform="translate(55.615234 0)"/>
       <use xlink:href="#ArialMT-32" transform="translate(111.230469 0)"/>
       <use xlink:href="#ArialMT-30" transform="translate(166.845703 0)"/>
      </g>
     </g>
    </g>
    <g id="text_8">
     <!-- Year -->
     <g style="fill: #262626" transform="translate(506.495313 536.443125) scale(0.1 -0.1)">
      <defs>
       <path id="ArialMT-59" d="M 1784 0 
L 1784 1941 
L 19 4581 
L 756 4581 
L 1659 3200 
Q 1909 2813 2125 2425 
Q 2331 2784 2625 3234 
L 3513 4581 
L 4219 4581 
L 2391 1941 
L 2391 0 
L 1784 0 
z
" transform="scale(0.015625)"/>
       <path id="ArialMT-65" d="M 2694 1069 
L 3275 997 
Q 3138 488 2766 206 
Q 2394 -75 1816 -75 
Q 1088 -75 661 373 
Q 234 822 234 1631 
Q 234 2469 665 2931 
Q 1097 3394 1784 3394 
Q 2450 3394 2872 2941 
Q 3294 2488 3294 1666 
Q 3294 1616 3291 1516 
L 816 1516 
Q 847 969 1125 678 
Q 1403 388 1819 388 
Q 2128 388 2347 550 
Q 2566 713 2694 1069 
z
M 847 1978 
L 2700 1978 
Q 2663 2397 2488 2606 
Q 2219 2931 1791 2931 
Q 1403 2931 1139 2672 
Q 875 2413 847 1978 
z
" transform="scale(0.015625)"/>
       <path id="ArialMT-61" d="M 2588 409 
Q 2275 144 1986 34 
Q 1697 -75 1366 -75 
Q 819 -75 525 192 
Q 231 459 231 875 
Q 231 1119 342 1320 
Q 453 1522 633 1644 
Q 813 1766 1038 1828 
Q 1203 1872 1538 1913 
Q 2219 1994 2541 2106 
Q 2544 2222 2544 2253 
Q 2544 2597 2384 2738 
Q 2169 2928 1744 2928 
Q 1347 2928 1158 2789 
Q 969 2650 878 2297 
L 328 2372 
Q 403 2725 575 2942 
Q 747 3159 1072 3276 
Q 1397 3394 1825 3394 
Q 2250 3394 2515 3294 
Q 2781 3194 2906 3042 
Q 3031 2891 3081 2659 
Q 3109 2516 3109 2141 
L 3109 1391 
Q 3109 606 3145 398 
Q 3181 191 3288 0 
L 2700 0 
Q 2613 175 2588 409 
z
M 2541 1666 
Q 2234 1541 1622 1453 
Q 1275 1403 1131 1340 
Q 988 1278 909 1158 
Q 831 1038 831 891 
Q 831 666 1001 516 
Q 1172 366 1500 366 
Q 1825 366 2078 508 
Q 2331 650 2450 897 
Q 2541 1088 2541 1459 
L 2541 1666 
z
" transform="scale(0.015625)"/>
       <path id="ArialMT-72" d="M 416 0 
L 416 3319 
L 922 3319 
L 922 2816 
Q 1116 3169 1280 3281 
Q 1444 3394 1641 3394 
Q 1925 3394 2219 3213 
L 2025 2691 
Q 1819 2813 1613 2813 
Q 1428 2813 1281 2702 
Q 1134 2591 1072 2394 
Q 978 2094 978 1738 
L 978 0 
L 416 0 
z
" transform="scale(0.015625)"/>
      </defs>
      <use xlink:href="#ArialMT-59"/>
      <use xlink:href="#ArialMT-65" transform="translate(57.574219 0)"/>
      <use xlink:href="#ArialMT-61" transform="translate(113.189453 0)"/>
      <use xlink:href="#ArialMT-72" transform="translate(168.804688 0)"/>
     </g>
    </g>
   </g>
   <g id="matplotlib.axis_2">
    <g id="ytick_1">
     <g id="line2d_15">
      <path d="M 126 473.860477 
L 907.2 473.860477 
" clip-path="url(#pebf6af777b)" style="fill: none; stroke: #ffffff; stroke-width: 0.8; stroke-linecap: round"/>
     </g>
     <g id="line2d_16"/>
     <g id="text_9">
      <!-- 0 -->
      <g style="fill: #262626" transform="translate(116.939063 477.439383) scale(0.1 -0.1)">
       <use xlink:href="#ArialMT-30"/>
      </g>
     </g>
    </g>
    <g id="ytick_2">
     <g id="line2d_17">
      <path d="M 126 420.221171 
L 907.2 420.221171 
" clip-path="url(#pebf6af777b)" style="fill: none; stroke: #ffffff; stroke-width: 0.8; stroke-linecap: round"/>
     </g>
     <g id="line2d_18"/>
     <g id="text_10">
      <!-- 25 -->
      <g style="fill: #262626" transform="translate(111.378125 423.800078) scale(0.1 -0.1)">
       <defs>
        <path id="ArialMT-35" d="M 266 1200 
L 856 1250 
Q 922 819 1161 601 
Q 1400 384 1738 384 
Q 2144 384 2425 690 
Q 2706 997 2706 1503 
Q 2706 1984 2436 2262 
Q 2166 2541 1728 2541 
Q 1456 2541 1237 2417 
Q 1019 2294 894 2097 
L 366 2166 
L 809 4519 
L 3088 4519 
L 3088 3981 
L 1259 3981 
L 1013 2750 
Q 1425 3038 1878 3038 
Q 2478 3038 2890 2622 
Q 3303 2206 3303 1553 
Q 3303 931 2941 478 
Q 2500 -78 1738 -78 
Q 1113 -78 717 272 
Q 322 622 266 1200 
z
" transform="scale(0.015625)"/>
       </defs>
       <use xlink:href="#ArialMT-32"/>
       <use xlink:href="#ArialMT-35" transform="translate(55.615234 0)"/>
      </g>
     </g>
    </g>
    <g id="ytick_3">
     <g id="line2d_19">
      <path d="M 126 366.581865 
L 907.2 366.581865 
" clip-path="url(#pebf6af777b)" style="fill: none; stroke: #ffffff; stroke-width: 0.8; stroke-linecap: round"/>
     </g>
     <g id="line2d_20"/>
     <g id="text_11">
      <!-- 50 -->
      <g style="fill: #262626" transform="translate(111.378125 370.160772) scale(0.1 -0.1)">
       <use xlink:href="#ArialMT-35"/>
       <use xlink:href="#ArialMT-30" transform="translate(55.615234 0)"/>
      </g>
     </g>
    </g>
    <g id="ytick_4">
     <g id="line2d_21">
      <path d="M 126 312.94256 
L 907.2 312.94256 
" clip-path="url(#pebf6af777b)" style="fill: none; stroke: #ffffff; stroke-width: 0.8; stroke-linecap: round"/>
     </g>
     <g id="line2d_22"/>
     <g id="text_12">
      <!-- 75 -->
      <g style="fill: #262626" transform="translate(111.378125 316.521466) scale(0.1 -0.1)">
       <use xlink:href="#ArialMT-37"/>
       <use xlink:href="#ArialMT-35" transform="translate(55.615234 0)"/>
      </g>
     </g>
    </g>
    <g id="ytick_5">
     <g id="line2d_23">
      <path d="M 126 259.303254 
L 907.2 259.303254 
" clip-path="url(#pebf6af777b)" style="fill: none; stroke: #ffffff; stroke-width: 0.8; stroke-linecap: round"/>
     </g>
     <g id="line2d_24"/>
     <g id="text_13">
      <!-- 100 -->
      <g style="fill: #262626" transform="translate(105.817188 262.88216) scale(0.1 -0.1)">
       <use xlink:href="#ArialMT-31"/>
       <use xlink:href="#ArialMT-30" transform="translate(55.615234 0)"/>
       <use xlink:href="#ArialMT-30" transform="translate(111.230469 0)"/>
      </g>
     </g>
    </g>
    <g id="ytick_6">
     <g id="line2d_25">
      <path d="M 126 205.663948 
L 907.2 205.663948 
" clip-path="url(#pebf6af777b)" style="fill: none; stroke: #ffffff; stroke-width: 0.8; stroke-linecap: round"/>
     </g>
     <g id="line2d_26"/>
     <g id="text_14">
      <!-- 125 -->
      <g style="fill: #262626" transform="translate(105.817188 209.242854) scale(0.1 -0.1)">
       <use xlink:href="#ArialMT-31"/>
       <use xlink:href="#ArialMT-32" transform="translate(55.615234 0)"/>
       <use xlink:href="#ArialMT-35" transform="translate(111.230469 0)"/>
      </g>
     </g>
    </g>
    <g id="ytick_7">
     <g id="line2d_27">
      <path d="M 126 152.024642 
L 907.2 152.024642 
" clip-path="url(#pebf6af777b)" style="fill: none; stroke: #ffffff; stroke-width: 0.8; stroke-linecap: round"/>
     </g>
     <g id="line2d_28"/>
     <g id="text_15">
      <!-- 150 -->
      <g style="fill: #262626" transform="translate(105.817188 155.603548) scale(0.1 -0.1)">
       <use xlink:href="#ArialMT-31"/>
       <use xlink:href="#ArialMT-35" transform="translate(55.615234 0)"/>
       <use xlink:href="#ArialMT-30" transform="translate(111.230469 0)"/>
      </g>
     </g>
    </g>
    <g id="ytick_8">
     <g id="line2d_29">
      <path d="M 126 98.385336 
L 907.2 98.385336 
" clip-path="url(#pebf6af777b)" style="fill: none; stroke: #ffffff; stroke-width: 0.8; stroke-linecap: round"/>
     </g>
     <g id="line2d_30"/>
     <g id="text_16">
      <!-- 175 -->
      <g style="fill: #262626" transform="translate(105.817188 101.964242) scale(0.1 -0.1)">
       <use xlink:href="#ArialMT-31"/>
       <use xlink:href="#ArialMT-37" transform="translate(55.615234 0)"/>
       <use xlink:href="#ArialMT-35" transform="translate(111.230469 0)"/>
      </g>
     </g>
    </g>
    <g id="text_17">
     <!--  Growth (Percentage Terms) -->
     <g style="fill: #262626" transform="translate(99.7125 353.583906) rotate(-90) scale(0.1 -0.1)">
      <defs>
       <path id="ArialMT-20" transform="scale(0.015625)"/>
       <path id="ArialMT-47" d="M 2638 1797 
L 2638 2334 
L 4578 2338 
L 4578 638 
Q 4131 281 3656 101 
Q 3181 -78 2681 -78 
Q 2006 -78 1454 211 
Q 903 500 622 1047 
Q 341 1594 341 2269 
Q 341 2938 620 3517 
Q 900 4097 1425 4378 
Q 1950 4659 2634 4659 
Q 3131 4659 3532 4498 
Q 3934 4338 4162 4050 
Q 4391 3763 4509 3300 
L 3963 3150 
Q 3859 3500 3706 3700 
Q 3553 3900 3268 4020 
Q 2984 4141 2638 4141 
Q 2222 4141 1919 4014 
Q 1616 3888 1430 3681 
Q 1244 3475 1141 3228 
Q 966 2803 966 2306 
Q 966 1694 1177 1281 
Q 1388 869 1791 669 
Q 2194 469 2647 469 
Q 3041 469 3416 620 
Q 3791 772 3984 944 
L 3984 1797 
L 2638 1797 
z
" transform="scale(0.015625)"/>
       <path id="ArialMT-6f" d="M 213 1659 
Q 213 2581 725 3025 
Q 1153 3394 1769 3394 
Q 2453 3394 2887 2945 
Q 3322 2497 3322 1706 
Q 3322 1066 3130 698 
Q 2938 331 2570 128 
Q 2203 -75 1769 -75 
Q 1072 -75 642 372 
Q 213 819 213 1659 
z
M 791 1659 
Q 791 1022 1069 705 
Q 1347 388 1769 388 
Q 2188 388 2466 706 
Q 2744 1025 2744 1678 
Q 2744 2294 2464 2611 
Q 2184 2928 1769 2928 
Q 1347 2928 1069 2612 
Q 791 2297 791 1659 
z
" transform="scale(0.015625)"/>
       <path id="ArialMT-77" d="M 1034 0 
L 19 3319 
L 600 3319 
L 1128 1403 
L 1325 691 
Q 1338 744 1497 1375 
L 2025 3319 
L 2603 3319 
L 3100 1394 
L 3266 759 
L 3456 1400 
L 4025 3319 
L 4572 3319 
L 3534 0 
L 2950 0 
L 2422 1988 
L 2294 2553 
L 1622 0 
L 1034 0 
z
" transform="scale(0.015625)"/>
       <path id="ArialMT-74" d="M 1650 503 
L 1731 6 
Q 1494 -44 1306 -44 
Q 1000 -44 831 53 
Q 663 150 594 308 
Q 525 466 525 972 
L 525 2881 
L 113 2881 
L 113 3319 
L 525 3319 
L 525 4141 
L 1084 4478 
L 1084 3319 
L 1650 3319 
L 1650 2881 
L 1084 2881 
L 1084 941 
Q 1084 700 1114 631 
Q 1144 563 1211 522 
Q 1278 481 1403 481 
Q 1497 481 1650 503 
z
" transform="scale(0.015625)"/>
       <path id="ArialMT-68" d="M 422 0 
L 422 4581 
L 984 4581 
L 984 2938 
Q 1378 3394 1978 3394 
Q 2347 3394 2619 3248 
Q 2891 3103 3008 2847 
Q 3125 2591 3125 2103 
L 3125 0 
L 2563 0 
L 2563 2103 
Q 2563 2525 2380 2717 
Q 2197 2909 1863 2909 
Q 1613 2909 1392 2779 
Q 1172 2650 1078 2428 
Q 984 2206 984 1816 
L 984 0 
L 422 0 
z
" transform="scale(0.015625)"/>
       <path id="ArialMT-28" d="M 1497 -1347 
Q 1031 -759 709 28 
Q 388 816 388 1659 
Q 388 2403 628 3084 
Q 909 3875 1497 4659 
L 1900 4659 
Q 1522 4009 1400 3731 
Q 1209 3300 1100 2831 
Q 966 2247 966 1656 
Q 966 153 1900 -1347 
L 1497 -1347 
z
" transform="scale(0.015625)"/>
       <path id="ArialMT-50" d="M 494 0 
L 494 4581 
L 2222 4581 
Q 2678 4581 2919 4538 
Q 3256 4481 3484 4323 
Q 3713 4166 3852 3881 
Q 3991 3597 3991 3256 
Q 3991 2672 3619 2267 
Q 3247 1863 2275 1863 
L 1100 1863 
L 1100 0 
L 494 0 
z
M 1100 2403 
L 2284 2403 
Q 2872 2403 3119 2622 
Q 3366 2841 3366 3238 
Q 3366 3525 3220 3729 
Q 3075 3934 2838 4000 
Q 2684 4041 2272 4041 
L 1100 4041 
L 1100 2403 
z
" transform="scale(0.015625)"/>
       <path id="ArialMT-63" d="M 2588 1216 
L 3141 1144 
Q 3050 572 2676 248 
Q 2303 -75 1759 -75 
Q 1078 -75 664 370 
Q 250 816 250 1647 
Q 250 2184 428 2587 
Q 606 2991 970 3192 
Q 1334 3394 1763 3394 
Q 2303 3394 2647 3120 
Q 2991 2847 3088 2344 
L 2541 2259 
Q 2463 2594 2264 2762 
Q 2066 2931 1784 2931 
Q 1359 2931 1093 2626 
Q 828 2322 828 1663 
Q 828 994 1084 691 
Q 1341 388 1753 388 
Q 2084 388 2306 591 
Q 2528 794 2588 1216 
z
" transform="scale(0.015625)"/>
       <path id="ArialMT-6e" d="M 422 0 
L 422 3319 
L 928 3319 
L 928 2847 
Q 1294 3394 1984 3394 
Q 2284 3394 2536 3286 
Q 2788 3178 2913 3003 
Q 3038 2828 3088 2588 
Q 3119 2431 3119 2041 
L 3119 0 
L 2556 0 
L 2556 2019 
Q 2556 2363 2490 2533 
Q 2425 2703 2258 2804 
Q 2091 2906 1866 2906 
Q 1506 2906 1245 2678 
Q 984 2450 984 1813 
L 984 0 
L 422 0 
z
" transform="scale(0.015625)"/>
       <path id="ArialMT-67" d="M 319 -275 
L 866 -356 
Q 900 -609 1056 -725 
Q 1266 -881 1628 -881 
Q 2019 -881 2231 -725 
Q 2444 -569 2519 -288 
Q 2563 -116 2559 434 
Q 2191 0 1641 0 
Q 956 0 581 494 
Q 206 988 206 1678 
Q 206 2153 378 2554 
Q 550 2956 876 3175 
Q 1203 3394 1644 3394 
Q 2231 3394 2613 2919 
L 2613 3319 
L 3131 3319 
L 3131 450 
Q 3131 -325 2973 -648 
Q 2816 -972 2473 -1159 
Q 2131 -1347 1631 -1347 
Q 1038 -1347 672 -1080 
Q 306 -813 319 -275 
z
M 784 1719 
Q 784 1066 1043 766 
Q 1303 466 1694 466 
Q 2081 466 2343 764 
Q 2606 1063 2606 1700 
Q 2606 2309 2336 2618 
Q 2066 2928 1684 2928 
Q 1309 2928 1046 2623 
Q 784 2319 784 1719 
z
" transform="scale(0.015625)"/>
       <path id="ArialMT-54" d="M 1659 0 
L 1659 4041 
L 150 4041 
L 150 4581 
L 3781 4581 
L 3781 4041 
L 2266 4041 
L 2266 0 
L 1659 0 
z
" transform="scale(0.015625)"/>
       <path id="ArialMT-6d" d="M 422 0 
L 422 3319 
L 925 3319 
L 925 2853 
Q 1081 3097 1340 3245 
Q 1600 3394 1931 3394 
Q 2300 3394 2536 3241 
Q 2772 3088 2869 2813 
Q 3263 3394 3894 3394 
Q 4388 3394 4653 3120 
Q 4919 2847 4919 2278 
L 4919 0 
L 4359 0 
L 4359 2091 
Q 4359 2428 4304 2576 
Q 4250 2725 4106 2815 
Q 3963 2906 3769 2906 
Q 3419 2906 3187 2673 
Q 2956 2441 2956 1928 
L 2956 0 
L 2394 0 
L 2394 2156 
Q 2394 2531 2256 2718 
Q 2119 2906 1806 2906 
Q 1569 2906 1367 2781 
Q 1166 2656 1075 2415 
Q 984 2175 984 1722 
L 984 0 
L 422 0 
z
" transform="scale(0.015625)"/>
       <path id="ArialMT-73" d="M 197 991 
L 753 1078 
Q 800 744 1014 566 
Q 1228 388 1613 388 
Q 2000 388 2187 545 
Q 2375 703 2375 916 
Q 2375 1106 2209 1216 
Q 2094 1291 1634 1406 
Q 1016 1563 777 1677 
Q 538 1791 414 1992 
Q 291 2194 291 2438 
Q 291 2659 392 2848 
Q 494 3038 669 3163 
Q 800 3259 1026 3326 
Q 1253 3394 1513 3394 
Q 1903 3394 2198 3281 
Q 2494 3169 2634 2976 
Q 2775 2784 2828 2463 
L 2278 2388 
Q 2241 2644 2061 2787 
Q 1881 2931 1553 2931 
Q 1166 2931 1000 2803 
Q 834 2675 834 2503 
Q 834 2394 903 2306 
Q 972 2216 1119 2156 
Q 1203 2125 1616 2013 
Q 2213 1853 2448 1751 
Q 2684 1650 2818 1456 
Q 2953 1263 2953 975 
Q 2953 694 2789 445 
Q 2625 197 2315 61 
Q 2006 -75 1616 -75 
Q 969 -75 630 194 
Q 291 463 197 991 
z
" transform="scale(0.015625)"/>
       <path id="ArialMT-29" d="M 791 -1347 
L 388 -1347 
Q 1322 153 1322 1656 
Q 1322 2244 1188 2822 
Q 1081 3291 891 3722 
Q 769 4003 388 4659 
L 791 4659 
Q 1378 3875 1659 3084 
Q 1900 2403 1900 1659 
Q 1900 816 1576 28 
Q 1253 -759 791 -1347 
z
" transform="scale(0.015625)"/>
      </defs>
      <use xlink:href="#ArialMT-20"/>
      <use xlink:href="#ArialMT-47" transform="translate(27.783203 0)"/>
      <use xlink:href="#ArialMT-72" transform="translate(105.566406 0)"/>
      <use xlink:href="#ArialMT-6f" transform="translate(138.867188 0)"/>
      <use xlink:href="#ArialMT-77" transform="translate(194.482422 0)"/>
      <use xlink:href="#ArialMT-74" transform="translate(266.699219 0)"/>
      <use xlink:href="#ArialMT-68" transform="translate(294.482422 0)"/>
      <use xlink:href="#ArialMT-20" transform="translate(350.097656 0)"/>
      <use xlink:href="#ArialMT-28" transform="translate(377.880859 0)"/>
      <use xlink:href="#ArialMT-50" transform="translate(411.181641 0)"/>
      <use xlink:href="#ArialMT-65" transform="translate(477.880859 0)"/>
      <use xlink:href="#ArialMT-72" transform="translate(533.496094 0)"/>
      <use xlink:href="#ArialMT-63" transform="translate(566.796875 0)"/>
      <use xlink:href="#ArialMT-65" transform="translate(616.796875 0)"/>
      <use xlink:href="#ArialMT-6e" transform="translate(672.412109 0)"/>
      <use xlink:href="#ArialMT-74" transform="translate(728.027344 0)"/>
      <use xlink:href="#ArialMT-61" transform="translate(755.810547 0)"/>
      <use xlink:href="#ArialMT-67" transform="translate(811.425781 0)"/>
      <use xlink:href="#ArialMT-65" transform="translate(867.041016 0)"/>
      <use xlink:href="#ArialMT-20" transform="translate(922.65625 0)"/>
      <use xlink:href="#ArialMT-54" transform="translate(948.689453 0)"/>
      <use xlink:href="#ArialMT-65" transform="translate(998.648438 0)"/>
      <use xlink:href="#ArialMT-72" transform="translate(1054.263672 0)"/>
      <use xlink:href="#ArialMT-6d" transform="translate(1087.564453 0)"/>
      <use xlink:href="#ArialMT-73" transform="translate(1170.865234 0)"/>
      <use xlink:href="#ArialMT-29" transform="translate(1220.865234 0)"/>
     </g>
    </g>
   </g>
   <g id="line2d_31">
    <path d="M 161.509091 247.365001 
L 164.366327 264.649347 
L 167.255309 275.703034 
L 170.176039 309.626642 
L 173.096769 329.446436 
L 175.954005 343.289557 
L 178.842988 354.015027 
L 181.763718 338.773029 
L 184.684448 305.163148 
L 187.541683 318.762004 
L 190.430666 324.425334 
L 193.351396 354.709941 
L 196.272126 355.958229 
L 199.161109 354.086008 
L 202.050091 424.653899 
L 204.970821 400.403694 
L 207.891551 434.113387 
L 210.748787 386.006153 
L 213.63777 371.623708 
L 216.5585 358.840692 
L 219.479229 355.859581 
L 222.336465 349.030203 
L 225.225448 327.506923 
L 228.146178 360.464475 
L 231.066908 367.740448 
L 236.813126 348.987019 
L 239.733856 333.36604 
L 242.654586 310.318455 
L 245.543569 309.145115 
L 248.432552 292.152143 
L 251.353282 325.088809 
L 254.274011 326.05898 
L 257.131247 346.793733 
L 260.02023 351.061985 
L 262.94096 330.281786 
L 265.86169 297.353983 
L 268.718926 312.739151 
L 271.607908 297.402907 
L 274.528638 312.915415 
L 277.449368 330.283379 
L 280.306604 309.454796 
L 283.195587 305.687496 
L 286.116316 297.033287 
L 289.037046 248.046025 
L 291.926029 227.027485 
L 294.815012 211.632948 
L 297.735742 225.347819 
L 300.656472 245.967467 
L 303.513707 261.577895 
L 306.40269 268.767924 
L 309.32342 246.469615 
L 312.24415 265.434809 
L 315.101386 267.906983 
L 317.990369 258.522995 
L 320.911098 269.174134 
L 323.831828 190.364555 
L 326.689064 188.234888 
L 329.578047 190.566011 
L 332.498777 195.252754 
L 335.419507 190.485898 
L 338.308489 189.433374 
L 341.197472 179.409722 
L 344.118202 174.705787 
L 347.038932 150.63952 
L 349.896168 165.593502 
L 352.785151 175.372513 
L 355.70588 194.931082 
L 358.62661 219.858317 
L 361.483846 217.3449 
L 364.372829 211.874005 
L 367.293559 228.971756 
L 370.214289 252.834972 
L 373.071524 235.946844 
L 375.960507 216.237405 
L 378.881237 212.310858 
L 381.801967 203.898521 
L 384.69095 177.882232 
L 387.579933 184.546572 
L 390.500662 170.068129 
L 393.421392 133.387959 
L 396.278628 143.338132 
L 402.088341 119.118606 
L 405.009071 162.58414 
L 407.866306 130.133525 
L 410.755289 157.226512 
L 413.676019 145.345533 
L 416.596749 156.194886 
L 419.453985 161.558357 
L 422.342967 141.697827 
L 425.263697 147.445072 
L 428.184427 132.804255 
L 431.07341 188.79874 
L 433.962393 162.901626 
L 436.883123 107.99476 
L 439.803853 150.018064 
L 442.661088 176.534632 
L 445.550071 165.880158 
L 448.470801 214.832949 
L 451.391531 210.790265 
L 457.137749 228.4218 
L 460.058479 228.837992 
L 462.979209 250.702213 
L 465.836445 215.1907 
L 468.725428 192.43948 
L 471.646158 154.087354 
L 474.566887 126.937174 
L 477.45587 127.688286 
L 480.344853 150.033687 
L 483.265583 91.326689 
L 486.186313 89.28 
L 489.043549 102.548021 
L 491.932531 108.932826 
L 494.853261 151.644182 
L 497.773991 173.857193 
L 500.631227 161.671311 
L 503.52021 125.376949 
L 506.44094 148.97299 
L 509.361669 200.237055 
L 512.218905 190.527426 
L 515.107888 179.054437 
L 518.028618 207.416594 
L 520.949348 179.071663 
L 523.838331 218.762203 
L 526.727313 222.765962 
L 529.648043 219.18676 
L 532.568773 220.96647 
L 535.426009 211.830387 
L 538.314992 218.633152 
L 541.235722 227.653934 
L 544.156451 211.886251 
L 547.013687 183.801166 
L 549.90267 218.513551 
L 552.8234 251.594888 
L 555.74413 277.095021 
L 558.601365 265.202028 
L 561.490348 275.922762 
L 564.411078 255.889819 
L 567.331808 256.428433 
L 570.220791 257.119165 
L 573.109774 252.598633 
L 576.030504 263.887296 
L 578.951233 267.253364 
L 581.808469 282.513167 
L 584.697452 293.425262 
L 587.618182 302.8128 
L 590.538912 307.242152 
L 593.396147 311.999346 
L 596.28513 306.244605 
L 599.20586 305.29626 
L 602.12659 326.212351 
L 604.983826 328.046457 
L 607.872809 340.676764 
L 610.793538 323.746682 
L 613.714268 326.924286 
L 616.603251 332.132106 
L 619.492234 361.372544 
L 622.412964 352.991745 
L 625.333694 326.671629 
L 628.190929 348.045502 
L 631.079912 351.68882 
L 634.000642 336.904046 
L 636.921372 351.967506 
L 639.778608 339.64858 
L 642.667591 330.337769 
L 645.58832 324.238146 
L 648.50905 326.766134 
L 651.366286 316.659683 
L 654.255269 318.74548 
L 657.175999 306.16836 
L 660.096729 305.059759 
L 662.985711 300.149054 
L 665.874694 292.115638 
L 668.795424 279.856175 
L 671.716154 266.840874 
L 674.57339 273.306303 
L 677.462372 279.14223 
L 680.383102 240.892323 
L 683.303832 266.269942 
L 686.161068 269.830493 
L 689.050051 268.715261 
L 691.970781 283.924272 
L 694.891511 292.297018 
L 697.748746 293.714764 
L 700.637729 286.863071 
L 703.558459 296.889544 
L 706.479189 300.631164 
L 709.368172 306.416748 
L 712.257154 306.338862 
L 715.177884 312.484975 
L 718.098614 305.077616 
L 720.95585 298.972694 
L 723.844833 303.805287 
L 726.765563 321.718543 
L 729.686293 313.126526 
L 732.543528 323.833924 
L 735.432511 321.907367 
L 738.353241 324.593715 
L 741.273971 329.898832 
L 744.131207 323.21022 
L 747.020189 334.613899 
L 749.940919 340.428046 
L 752.861649 352.924929 
L 758.639615 388.92381 
L 761.560345 426.331467 
L 764.481074 425.573667 
L 767.33831 438.746641 
L 770.227293 433.491926 
L 773.148023 440.104395 
L 776.068753 450.512271 
L 778.925989 440.087728 
L 781.814971 440.731664 
L 784.735701 435.76265 
L 787.656431 436.56204 
L 790.513667 435.726056 
L 793.40265 435.108464 
L 796.32338 448.755385 
L 799.244109 438.290864 
L 802.133092 439.580388 
L 805.022075 443.884109 
L 810.863535 426.479172 
L 813.720771 435.582811 
L 816.609753 442.935145 
L 819.530483 442.964576 
L 822.451213 444.968015 
L 825.308449 437.980374 
L 828.197432 439.015884 
L 831.118161 441.114554 
L 834.038891 438.85752 
L 836.896127 439.949697 
L 839.78511 441.245866 
L 842.70584 432.918214 
L 845.62657 439.556136 
L 848.515552 437.146657 
L 851.404535 435.814734 
L 857.245995 436.360432 
L 860.103231 436.095111 
L 862.992214 433.185732 
L 865.912943 425.271732 
L 868.833673 412.511912 
L 871.690909 407.781101 
L 871.690909 407.781101 
" clip-path="url(#pebf6af777b)" style="fill: none; stroke: #1f77b4; stroke-width: 1.5; stroke-linecap: round"/>
   </g>
   <g id="line2d_32">
    <path d="M 161.509091 357.672548 
L 164.366327 363.419185 
L 167.255309 362.818541 
L 170.176039 368.984617 
L 173.096769 373.046525 
L 175.954005 375.792948 
L 178.842988 372.163978 
L 181.763718 370.296865 
L 184.684448 361.453354 
L 187.541683 355.287312 
L 190.430666 345.714301 
L 193.351396 345.278283 
L 196.272126 347.072473 
L 199.161109 346.421448 
L 202.050091 362.539971 
L 204.970821 360.552612 
L 207.891551 377.192376 
L 210.748787 373.438921 
L 213.63777 378.465633 
L 216.5585 382.34762 
L 219.479229 376.3427 
L 222.336465 380.25586 
L 225.225448 383.469907 
L 228.146178 385.87001 
L 231.066908 384.335874 
L 233.924144 383.717681 
L 236.813126 376.460669 
L 239.733856 376.58326 
L 242.654586 373.44801 
L 245.543569 367.706277 
L 248.432552 363.258408 
L 251.353282 365.226245 
L 254.274011 364.514354 
L 257.131247 363.377316 
L 260.02023 359.24685 
L 262.94096 352.855996 
L 265.86169 350.505747 
L 268.718926 346.721668 
L 271.607908 345.357433 
L 274.528638 347.933907 
L 277.449368 349.387284 
L 280.306604 349.446428 
L 283.195587 354.452092 
L 286.116316 349.846503 
L 289.037046 341.983199 
L 294.815012 334.663195 
L 297.735742 333.922756 
L 300.656472 333.016562 
L 303.513707 330.322856 
L 306.40269 326.903475 
L 309.32342 324.233409 
L 312.24415 316.791114 
L 315.101386 320.07016 
L 317.990369 313.837771 
L 320.911098 308.482913 
L 323.831828 309.120687 
L 326.689064 306.704186 
L 329.578047 305.161839 
L 332.498777 304.58706 
L 335.419507 303.861019 
L 338.308489 295.161504 
L 341.197472 289.711635 
L 344.118202 281.895328 
L 349.896168 265.643677 
L 352.785151 259.918107 
L 355.70588 248.792418 
L 358.62661 242.630978 
L 361.483846 237.902072 
L 364.372829 234.487667 
L 367.293559 232.713582 
L 370.214289 231.169819 
L 373.071524 228.190268 
L 375.960507 222.914482 
L 378.881237 235.942187 
L 381.801967 235.581601 
L 384.69095 236.794102 
L 387.579933 234.158393 
L 390.500662 225.026478 
L 393.421392 221.989414 
L 396.278628 217.723544 
L 399.167611 215.006369 
L 402.088341 204.624648 
L 405.009071 210.520545 
L 407.866306 205.84648 
L 410.755289 206.480803 
L 413.676019 197.185302 
L 416.596749 190.547215 
L 419.453985 182.833828 
L 422.342967 169.530901 
L 425.263697 161.761266 
L 428.184427 153.232747 
L 431.07341 152.456507 
L 436.883123 147.392182 
L 439.803853 129.758102 
L 442.661088 128.874791 
L 445.550071 126.977319 
L 448.470801 128.494648 
L 451.391531 132.696774 
L 454.248767 149.522197 
L 457.137749 152.429694 
L 460.058479 162.752223 
L 462.979209 176.667223 
L 465.836445 175.216885 
L 468.725428 178.928292 
L 471.646158 186.380827 
L 474.566887 197.648783 
L 477.45587 201.052057 
L 480.344853 213.969301 
L 483.265583 213.290303 
L 486.186313 214.648451 
L 489.043549 220.067508 
L 491.932531 230.035532 
L 494.853261 227.073049 
L 497.773991 233.388402 
L 500.631227 247.046456 
L 503.52021 253.764118 
L 506.44094 259.417249 
L 509.361669 256.896116 
L 512.218905 256.713392 
L 515.107888 258.864622 
L 518.028618 269.649616 
L 520.949348 271.12878 
L 523.838331 276.708546 
L 526.727313 278.357321 
L 529.648043 283.262304 
L 532.568773 288.815443 
L 535.426009 290.360541 
L 538.314992 303.831681 
L 541.235722 309.995415 
L 544.156451 315.139109 
L 547.013687 316.543005 
L 549.90267 315.088973 
L 552.8234 318.723901 
L 555.74413 334.056762 
L 558.601365 336.443046 
L 561.490348 339.059458 
L 564.411078 343.919267 
L 567.331808 340.464629 
L 570.220791 336.639402 
L 573.109774 338.026643 
L 576.030504 337.276839 
L 578.951233 336.006948 
L 581.808469 342.1144 
L 584.697452 347.922094 
L 587.618182 347.947859 
L 590.538912 349.222021 
L 593.396147 353.354816 
L 596.28513 348.006245 
L 599.20586 347.890044 
L 602.12659 351.184386 
L 604.983826 352.945015 
L 607.872809 354.460483 
L 610.793538 357.805451 
L 613.714268 354.93647 
L 616.603251 341.878145 
L 619.492234 341.553779 
L 622.412964 339.101574 
L 625.333694 343.725382 
L 628.190929 350.918663 
L 631.079912 349.232048 
L 634.000642 349.026202 
L 636.921372 354.01674 
L 639.778608 356.623709 
L 642.667591 359.521848 
L 645.58832 360.365712 
L 648.50905 359.174794 
L 651.366286 360.419886 
L 654.255269 358.414929 
L 657.175999 354.023563 
L 660.096729 359.764937 
L 662.985711 352.617478 
L 665.874694 355.281263 
L 668.795424 356.168398 
L 671.716154 355.747905 
L 674.57339 354.406932 
L 680.383102 355.894248 
L 683.303832 360.558281 
L 686.161068 358.651252 
L 689.050051 361.496528 
L 691.970781 360.665028 
L 694.891511 353.835727 
L 697.748746 358.565048 
L 700.637729 349.755904 
L 703.558459 350.290347 
L 706.479189 346.652842 
L 709.368172 345.495957 
L 712.257154 347.559101 
L 715.177884 342.051341 
L 718.098614 340.526174 
L 720.95585 338.50493 
L 723.844833 328.427385 
L 726.765563 324.762552 
L 729.686293 326.554413 
L 732.543528 328.928275 
L 735.432511 324.729604 
L 738.353241 334.371764 
L 741.273971 331.814761 
L 744.131207 324.680639 
L 747.020189 326.537397 
L 749.940919 322.14579 
L 752.861649 318.497336 
L 755.750632 313.603458 
L 758.639615 313.560761 
L 761.560345 345.310751 
L 764.481074 360.674646 
L 767.33831 364.710215 
L 770.227293 361.625465 
L 773.148023 366.744807 
L 776.068753 365.610959 
L 778.925989 374.317072 
L 781.814971 376.712876 
L 784.735701 372.840434 
L 787.656431 363.517628 
L 790.513667 360.429131 
L 793.40265 359.843174 
L 796.32338 356.27794 
L 799.244109 351.403377 
L 802.133092 357.448352 
L 805.022075 357.948998 
L 807.942805 360.346546 
L 810.863535 363.678498 
L 813.720771 364.298609 
L 816.609753 370.73274 
L 819.530483 370.815702 
L 822.451213 374.508701 
L 825.308449 374.06552 
L 828.197432 375.838179 
L 831.118161 385.32508 
L 834.038891 392.917357 
L 836.896127 393.194059 
L 842.70584 407.573127 
L 845.62657 411.872802 
L 848.515552 411.763552 
L 851.404535 415.822424 
L 854.325265 410.493611 
L 857.245995 410.304527 
L 860.103231 414.179894 
L 862.992214 414.040403 
L 865.912943 413.70103 
L 868.833673 411.791083 
L 871.690909 416.54489 
L 871.690909 416.54489 
" clip-path="url(#pebf6af777b)" style="fill: none; stroke: #ff7f0e; stroke-width: 1.5; stroke-linecap: round"/>
   </g>
   <g id="line2d_33">
    <path d="M 161.509091 468.173007 
L 164.366327 476.011237 
L 167.255309 475.356323 
L 170.176039 475.956043 
L 173.096769 484.576179 
L 175.954005 477.999565 
L 178.842988 469.639971 
L 181.763718 466.796798 
L 184.684448 458.274722 
L 187.541683 464.933906 
L 190.430666 469.750077 
L 193.351396 484.200305 
L 196.272126 467.283116 
L 199.161109 469.23939 
L 202.050091 476.226272 
L 204.970821 479.61664 
L 207.891551 485.622956 
L 210.748787 468.374639 
L 213.63777 467.619893 
L 216.5585 463.739036 
L 219.479229 469.177106 
L 222.336465 467.810847 
L 225.225448 471.585725 
L 228.146178 465.294118 
L 231.066908 469.51905 
L 233.924144 468.589262 
L 236.813126 470.59519 
L 239.733856 469.789064 
L 242.654586 465.176412 
L 245.543569 468.381397 
L 248.432552 466.99909 
L 251.353282 480.855313 
L 254.274011 453.84906 
L 257.131247 474.181082 
L 260.02023 467.630777 
L 262.94096 466.056642 
L 265.86169 463.971589 
L 268.718926 481.548244 
L 271.607908 465.853164 
L 274.528638 472.964548 
L 277.449368 478.359901 
L 280.306604 463.65798 
L 283.195587 473.238263 
L 286.116316 471.151907 
L 289.037046 459.062547 
L 291.926029 467.956498 
L 294.815012 462.340332 
L 297.735742 473.171796 
L 300.656472 468.522564 
L 303.513707 472.81881 
L 306.40269 473.433488 
L 309.32342 473.349108 
L 312.24415 476.772602 
L 315.101386 470.520404 
L 317.990369 471.491073 
L 320.911098 484.789928 
L 323.831828 447.501516 
L 326.689064 467.433739 
L 329.578047 468.648931 
L 332.498777 465.854146 
L 335.419507 467.05796 
L 338.308489 467.34453 
L 341.197472 467.229981 
L 347.038932 459.264133 
L 349.896168 474.702025 
L 352.785151 474.669387 
L 355.70588 478.123736 
L 358.62661 476.452884 
L 361.483846 467.201092 
L 364.372829 464.427603 
L 367.293559 488.302374 
L 370.214289 466.032348 
L 373.071524 465.87484 
L 375.960507 458.013392 
L 378.881237 464.207536 
L 381.801967 460.005848 
L 384.69095 470.440375 
L 387.579933 468.758438 
L 390.500662 466.773627 
L 393.421392 463.4955 
L 396.278628 467.68731 
L 399.167611 468.452977 
L 402.088341 466.434721 
L 405.009071 476.573631 
L 407.866306 454.35124 
L 410.755289 473.311646 
L 413.676019 468.357462 
L 416.596749 472.915572 
L 419.453985 474.991506 
L 422.342967 465.329427 
L 425.263697 475.609959 
L 428.184427 471.044665 
L 431.07341 492.48 
L 433.962393 460.246957 
L 436.883123 463.514532 
L 439.803853 464.944132 
L 442.661088 478.317357 
L 445.550071 464.074603 
L 448.470801 486.704528 
L 451.391531 465.168357 
L 454.248767 471.434031 
L 457.137749 471.380241 
L 460.058479 463.43589 
L 462.979209 470.165972 
L 465.836445 457.36344 
L 468.725428 464.393061 
L 471.646158 461.862496 
L 474.566887 465.682613 
L 477.45587 467.497021 
L 480.344853 473.353742 
L 483.265583 466.481201 
L 486.186313 465.270063 
L 489.043549 470.803095 
L 491.932531 460.524337 
L 494.853261 480.73311 
L 497.773991 469.458093 
L 500.631227 465.27821 
L 503.52021 453.623275 
L 506.44094 476.062338 
L 509.361669 484.870121 
L 512.218905 463.297111 
L 515.107888 463.384284 
L 518.028618 478.795087 
L 520.949348 464.089864 
L 523.838331 472.590754 
L 526.727313 475.1454 
L 529.648043 466.665983 
L 532.568773 473.732933 
L 535.426009 470.820206 
L 538.314992 468.513769 
L 541.235722 479.696284 
L 544.156451 463.605995 
L 547.013687 480.932122 
L 549.90267 475.942738 
L 552.8234 479.347755 
L 555.74413 477.989709 
L 558.601365 472.242511 
L 561.490348 469.757575 
L 564.411078 476.908266 
L 567.331808 465.446363 
L 570.220791 471.780978 
L 573.109774 469.105425 
L 576.030504 469.263409 
L 578.951233 471.896473 
L 581.808469 465.735096 
L 584.697452 470.415606 
L 587.618182 467.246892 
L 590.538912 468.241118 
L 593.396147 470.254183 
L 596.28513 470.065811 
L 599.20586 465.930477 
L 602.12659 477.452561 
L 604.983826 471.905034 
L 607.872809 468.511554 
L 610.793538 470.621798 
L 613.714268 471.366024 
L 616.603251 468.492848 
L 619.492234 472.892906 
L 622.412964 470.620558 
L 625.333694 468.898203 
L 628.190929 476.598428 
L 631.079912 465.793024 
L 634.000642 469.591175 
L 636.921372 473.703014 
L 639.778608 464.688377 
L 642.667591 469.45184 
L 645.58832 462.888608 
L 648.50905 475.223189 
L 651.366286 464.739385 
L 654.255269 469.747569 
L 657.175999 472.595089 
L 660.096729 462.953996 
L 662.985711 478.274292 
L 665.874694 471.546555 
L 668.795424 472.880251 
L 671.716154 471.28623 
L 674.57339 475.557839 
L 677.462372 472.831652 
L 680.383102 457.141099 
L 683.303832 478.090298 
L 686.161068 473.608173 
L 689.050051 468.521116 
L 691.970781 477.205036 
L 694.891511 476.378319 
L 697.748746 466.532093 
L 700.637729 466.631283 
L 703.558459 472.769337 
L 706.479189 470.345225 
L 709.368172 473.509074 
L 712.257154 470.021291 
L 715.177884 469.509402 
L 718.098614 473.295715 
L 720.95585 468.456939 
L 723.844833 471.240352 
L 726.765563 480.765604 
L 729.686293 466.280352 
L 732.543528 474.767504 
L 735.432511 471.754015 
L 738.353241 472.216909 
L 741.273971 472.099138 
L 744.131207 472.646677 
L 747.020189 472.744526 
L 749.940919 473.187206 
L 752.861649 481.413774 
L 755.750632 476.795619 
L 758.639615 481.764023 
L 761.560345 491.057847 
L 764.481074 474.606755 
L 767.33831 475.949488 
L 770.227293 465.145317 
L 773.148023 478.193269 
L 776.068753 472.404147 
L 778.925989 469.066226 
L 781.814971 472.108916 
L 784.735701 468.556194 
L 787.656431 471.973225 
L 790.513667 474.851293 
L 796.32338 469.601022 
L 799.244109 468.906645 
L 802.133092 474.71562 
L 805.022075 472.324298 
L 807.942805 469.747015 
L 810.863535 469.032778 
L 813.720771 474.243698 
L 816.609753 473.08074 
L 819.530483 472.795191 
L 822.451213 472.125178 
L 825.308449 467.340636 
L 828.197432 470.924318 
L 831.118161 471.351475 
L 834.038891 471.332385 
L 836.896127 469.419577 
L 839.78511 472.373289 
L 842.70584 473.769441 
L 845.62657 472.051519 
L 848.515552 472.698941 
L 851.404535 470.605538 
L 854.325265 472.480943 
L 857.245995 472.302521 
L 860.103231 472.419552 
L 862.992214 470.257729 
L 865.912943 466.513535 
L 868.833673 471.376254 
L 871.690909 473.167047 
L 871.690909 473.167047 
" clip-path="url(#pebf6af777b)" style="fill: none; stroke: #2ca02c; stroke-width: 1.5; stroke-linecap: round"/>
   </g>
   <g id="line2d_34">
    <path d="M 161.509091 470.574435 
L 164.366327 471.886247 
L 167.255309 468.566497 
L 170.176039 474.401576 
L 173.096769 472.400684 
L 178.842988 470.597404 
L 181.763718 472.022302 
L 184.684448 470.412483 
L 187.541683 472.025898 
L 190.430666 472.112323 
L 193.351396 471.729768 
L 196.272126 473.621824 
L 199.161109 469.960189 
L 202.050091 474.47995 
L 204.970821 472.502169 
L 207.891551 472.259558 
L 210.748787 472.503019 
L 213.63777 473.299491 
L 216.5585 471.356172 
L 219.479229 471.23695 
L 222.336465 472.439249 
L 228.146178 471.534932 
L 231.066908 472.37274 
L 233.924144 473.34087 
L 236.813126 470.310141 
L 239.733856 473.693462 
L 242.654586 468.880494 
L 245.543569 469.81329 
L 248.432552 469.012735 
L 251.353282 472.581809 
L 257.131247 469.769528 
L 260.02023 469.45504 
L 262.94096 465.391647 
L 265.86169 469.395594 
L 268.718926 469.985743 
L 271.607908 470.795339 
L 274.528638 473.115727 
L 277.449368 471.504313 
L 280.306604 471.924021 
L 283.195587 471.813089 
L 286.116316 471.450163 
L 289.037046 467.383696 
L 291.926029 469.16657 
L 294.815012 468.357925 
L 297.735742 471.569368 
L 300.656472 469.855197 
L 303.513707 470.385791 
L 306.40269 470.046863 
L 309.32342 470.129358 
L 312.24415 469.232359 
L 315.101386 471.887748 
L 317.990369 470.860154 
L 320.911098 469.41552 
L 323.831828 472.622409 
L 326.689064 471.127426 
L 329.578047 472.430287 
L 332.498777 471.030639 
L 335.419507 470.826139 
L 338.308489 467.553342 
L 341.197472 468.982144 
L 344.118202 467.283122 
L 347.038932 467.938196 
L 349.896168 469.241502 
L 352.785151 467.35634 
L 355.70588 468.118298 
L 358.62661 465.803635 
L 361.483846 467.494334 
L 364.372829 467.349891 
L 367.293559 471.738262 
L 370.214289 470.42531 
L 373.071524 468.344757 
L 375.960507 466.944976 
L 378.881237 471.633317 
L 381.801967 469.221051 
L 384.69095 470.570611 
L 387.579933 469.525279 
L 390.500662 468.78754 
L 393.421392 470.082664 
L 396.278628 469.944008 
L 399.167611 470.562696 
L 402.088341 466.692152 
L 405.009071 470.077397 
L 407.866306 467.022188 
L 410.755289 468.647186 
L 413.676019 467.386841 
L 416.596749 466.901734 
L 419.453985 467.007876 
L 422.342967 464.301088 
L 425.263697 466.860782 
L 428.184427 465.682936 
L 431.07341 471.57369 
L 433.962393 469.847344 
L 436.883123 468.370557 
L 439.803853 465.58882 
L 442.661088 470.783863 
L 445.550071 471.69785 
L 448.470801 471.618142 
L 451.391531 472.459126 
L 454.248767 474.240397 
L 457.137749 470.166062 
L 460.058479 471.541927 
L 462.979209 473.774555 
L 465.836445 468.620341 
L 468.725428 468.95503 
L 471.646158 471.340718 
L 474.566887 470.800091 
L 477.45587 469.026344 
L 480.344853 473.209119 
L 483.265583 471.428165 
L 486.186313 471.04844 
L 489.043549 470.861991 
L 491.932531 471.658641 
L 494.853261 470.232258 
L 497.773991 472.221636 
L 500.631227 477.109459 
L 503.52021 472.856818 
L 506.44094 471.644063 
L 509.361669 468.799561 
L 512.218905 469.851498 
L 515.107888 471.648291 
L 518.028618 472.25912 
L 520.949348 470.848614 
L 523.838331 469.982572 
L 526.727313 469.527303 
L 529.648043 470.030726 
L 532.568773 469.937874 
L 535.426009 467.863977 
L 538.314992 471.885693 
L 541.235722 470.41166 
L 544.156451 468.710452 
L 547.013687 472.389237 
L 549.90267 468.992733 
L 552.8234 470.513054 
L 555.74413 474.830533 
L 558.601365 472.24942 
L 561.490348 473.308842 
L 564.411078 474.63397 
L 567.331808 470.293489 
L 570.220791 471.885836 
L 573.109774 471.02674 
L 576.030504 471.077833 
L 578.951233 472.998304 
L 581.808469 472.429538 
L 584.697452 472.635537 
L 587.618182 471.357145 
L 590.538912 471.614496 
L 593.396147 471.69943 
L 596.28513 469.773769 
L 599.20586 471.354095 
L 602.12659 473.151319 
L 604.983826 471.997807 
L 607.872809 472.637831 
L 610.793538 472.417638 
L 613.714268 470.345534 
L 616.603251 468.835135 
L 619.492234 472.65505 
L 622.412964 470.11155 
L 625.333694 471.70659 
L 628.190929 474.412691 
L 631.079912 470.565009 
L 634.000642 472.127938 
L 636.921372 474.04783 
L 639.778608 471.685479 
L 642.667591 471.439256 
L 645.58832 470.591052 
L 648.50905 469.144734 
L 651.366286 468.698041 
L 654.255269 470.562094 
L 657.175999 467.510641 
L 660.096729 472.482712 
L 662.985711 467.691104 
L 665.874694 470.733354 
L 668.795424 471.093329 
L 671.716154 474.560218 
L 674.57339 471.378058 
L 677.462372 473.761739 
L 680.383102 475.136879 
L 683.303832 473.352937 
L 686.161068 470.626356 
L 689.050051 472.902422 
L 691.970781 470.525045 
L 694.891511 468.509664 
L 697.748746 475.482533 
L 700.637729 466.872795 
L 703.558459 471.699688 
L 706.479189 469.282171 
L 709.368172 470.965832 
L 712.257154 471.089212 
L 715.177884 467.846676 
L 718.098614 472.203429 
L 720.95585 470.740411 
L 723.844833 466.423335 
L 726.765563 470.218679 
L 729.686293 471.420054 
L 732.543528 470.27562 
L 735.432511 470.135042 
L 738.353241 475.899319 
L 741.273971 470.141451 
L 744.131207 470.131353 
L 747.020189 471.677075 
L 749.940919 469.503148 
L 752.861649 471.912481 
L 755.750632 468.81821 
L 758.639615 471.414539 
L 761.560345 489.040741 
L 764.481074 478.963499 
L 767.33831 471.403495 
L 770.227293 468.486053 
L 773.148023 470.971246 
L 776.068753 471.721574 
L 778.925989 473.644111 
L 781.814971 472.393742 
L 784.735701 468.393416 
L 787.656431 468.242425 
L 790.513667 469.314882 
L 793.40265 473.378253 
L 796.32338 472.822652 
L 799.244109 470.196595 
L 802.133092 474.532846 
L 805.022075 473.228425 
L 807.942805 472.105855 
L 810.863535 470.743091 
L 813.720771 475.889147 
L 816.609753 471.270711 
L 819.530483 471.756284 
L 822.451213 471.830226 
L 825.308449 470.658831 
L 828.197432 472.314745 
L 831.118161 474.541086 
L 834.038891 477.619459 
L 836.896127 470.94424 
L 839.78511 471.786281 
L 842.70584 475.707553 
L 845.62657 474.742245 
L 848.515552 470.189442 
L 851.404535 473.337529 
L 854.325265 471.744916 
L 857.245995 469.992948 
L 860.103231 473.173063 
L 862.992214 471.56683 
L 865.912943 469.232376 
L 868.833673 470.407245 
L 871.690909 472.59201 
L 871.690909 472.59201 
" clip-path="url(#pebf6af777b)" style="fill: none; stroke: #d62728; stroke-width: 1.5; stroke-linecap: round"/>
   </g>
   <g id="patch_3">
    <path d="M 126 512.64 
L 126 69.12 
" style="fill: none"/>
   </g>
   <g id="patch_4">
    <path d="M 907.2 512.64 
L 907.2 69.12 
" style="fill: none"/>
   </g>
   <g id="patch_5">
    <path d="M 126 512.64 
L 907.2 512.64 
" style="fill: none"/>
   </g>
   <g id="patch_6">
    <path d="M 126 69.12 
L 907.2 69.12 
" style="fill: none"/>
   </g>
   <g id="text_18">
    <!-- Durables vs Non Durables Growth 10 year vs Quarterly -->
    <g style="fill: #262626" transform="translate(369.884063 63.12) scale(0.12 -0.12)">
     <defs>
      <path id="ArialMT-44" d="M 494 0 
L 494 4581 
L 2072 4581 
Q 2606 4581 2888 4516 
Q 3281 4425 3559 4188 
Q 3922 3881 4101 3404 
Q 4281 2928 4281 2316 
Q 4281 1794 4159 1391 
Q 4038 988 3847 723 
Q 3656 459 3429 307 
Q 3203 156 2883 78 
Q 2563 0 2147 0 
L 494 0 
z
M 1100 541 
L 2078 541 
Q 2531 541 2789 625 
Q 3047 709 3200 863 
Q 3416 1078 3536 1442 
Q 3656 1806 3656 2325 
Q 3656 3044 3420 3430 
Q 3184 3816 2847 3947 
Q 2603 4041 2063 4041 
L 1100 4041 
L 1100 541 
z
" transform="scale(0.015625)"/>
      <path id="ArialMT-75" d="M 2597 0 
L 2597 488 
Q 2209 -75 1544 -75 
Q 1250 -75 995 37 
Q 741 150 617 320 
Q 494 491 444 738 
Q 409 903 409 1263 
L 409 3319 
L 972 3319 
L 972 1478 
Q 972 1038 1006 884 
Q 1059 663 1231 536 
Q 1403 409 1656 409 
Q 1909 409 2131 539 
Q 2353 669 2445 892 
Q 2538 1116 2538 1541 
L 2538 3319 
L 3100 3319 
L 3100 0 
L 2597 0 
z
" transform="scale(0.015625)"/>
      <path id="ArialMT-62" d="M 941 0 
L 419 0 
L 419 4581 
L 981 4581 
L 981 2947 
Q 1338 3394 1891 3394 
Q 2197 3394 2470 3270 
Q 2744 3147 2920 2923 
Q 3097 2700 3197 2384 
Q 3297 2069 3297 1709 
Q 3297 856 2875 390 
Q 2453 -75 1863 -75 
Q 1275 -75 941 416 
L 941 0 
z
M 934 1684 
Q 934 1088 1097 822 
Q 1363 388 1816 388 
Q 2184 388 2453 708 
Q 2722 1028 2722 1663 
Q 2722 2313 2464 2622 
Q 2206 2931 1841 2931 
Q 1472 2931 1203 2611 
Q 934 2291 934 1684 
z
" transform="scale(0.015625)"/>
      <path id="ArialMT-6c" d="M 409 0 
L 409 4581 
L 972 4581 
L 972 0 
L 409 0 
z
" transform="scale(0.015625)"/>
      <path id="ArialMT-76" d="M 1344 0 
L 81 3319 
L 675 3319 
L 1388 1331 
Q 1503 1009 1600 663 
Q 1675 925 1809 1294 
L 2547 3319 
L 3125 3319 
L 1869 0 
L 1344 0 
z
" transform="scale(0.015625)"/>
      <path id="ArialMT-4e" d="M 488 0 
L 488 4581 
L 1109 4581 
L 3516 984 
L 3516 4581 
L 4097 4581 
L 4097 0 
L 3475 0 
L 1069 3600 
L 1069 0 
L 488 0 
z
" transform="scale(0.015625)"/>
      <path id="ArialMT-79" d="M 397 -1278 
L 334 -750 
Q 519 -800 656 -800 
Q 844 -800 956 -737 
Q 1069 -675 1141 -563 
Q 1194 -478 1313 -144 
Q 1328 -97 1363 -6 
L 103 3319 
L 709 3319 
L 1400 1397 
Q 1534 1031 1641 628 
Q 1738 1016 1872 1384 
L 2581 3319 
L 3144 3319 
L 1881 -56 
Q 1678 -603 1566 -809 
Q 1416 -1088 1222 -1217 
Q 1028 -1347 759 -1347 
Q 597 -1347 397 -1278 
z
" transform="scale(0.015625)"/>
      <path id="ArialMT-51" d="M 3966 491 
Q 4388 200 4744 66 
L 4566 -356 
Q 4072 -178 3581 206 
Q 3072 -78 2456 -78 
Q 1834 -78 1328 222 
Q 822 522 548 1065 
Q 275 1609 275 2291 
Q 275 2969 550 3525 
Q 825 4081 1333 4372 
Q 1841 4663 2469 4663 
Q 3103 4663 3612 4361 
Q 4122 4059 4389 3517 
Q 4656 2975 4656 2294 
Q 4656 1728 4484 1276 
Q 4313 825 3966 491 
z
M 2631 1266 
Q 3156 1119 3497 828 
Q 4031 1316 4031 2294 
Q 4031 2850 3842 3265 
Q 3653 3681 3289 3911 
Q 2925 4141 2472 4141 
Q 1794 4141 1347 3677 
Q 900 3213 900 2291 
Q 900 1397 1342 919 
Q 1784 441 2472 441 
Q 2797 441 3084 563 
Q 2800 747 2484 825 
L 2631 1266 
z
" transform="scale(0.015625)"/>
     </defs>
     <use xlink:href="#ArialMT-44"/>
     <use xlink:href="#ArialMT-75" transform="translate(72.216797 0)"/>
     <use xlink:href="#ArialMT-72" transform="translate(127.832031 0)"/>
     <use xlink:href="#ArialMT-61" transform="translate(161.132812 0)"/>
     <use xlink:href="#ArialMT-62" transform="translate(216.748047 0)"/>
     <use xlink:href="#ArialMT-6c" transform="translate(272.363281 0)"/>
     <use xlink:href="#ArialMT-65" transform="translate(294.580078 0)"/>
     <use xlink:href="#ArialMT-73" transform="translate(350.195312 0)"/>
     <use xlink:href="#ArialMT-20" transform="translate(400.195312 0)"/>
     <use xlink:href="#ArialMT-76" transform="translate(427.978516 0)"/>
     <use xlink:href="#ArialMT-73" transform="translate(477.978516 0)"/>
     <use xlink:href="#ArialMT-20" transform="translate(527.978516 0)"/>
     <use xlink:href="#ArialMT-4e" transform="translate(555.761719 0)"/>
     <use xlink:href="#ArialMT-6f" transform="translate(627.978516 0)"/>
     <use xlink:href="#ArialMT-6e" transform="translate(683.59375 0)"/>
     <use xlink:href="#ArialMT-20" transform="translate(739.208984 0)"/>
     <use xlink:href="#ArialMT-44" transform="translate(766.992188 0)"/>
     <use xlink:href="#ArialMT-75" transform="translate(839.208984 0)"/>
     <use xlink:href="#ArialMT-72" transform="translate(894.824219 0)"/>
     <use xlink:href="#ArialMT-61" transform="translate(928.125 0)"/>
     <use xlink:href="#ArialMT-62" transform="translate(983.740234 0)"/>
     <use xlink:href="#ArialMT-6c" transform="translate(1039.355469 0)"/>
     <use xlink:href="#ArialMT-65" transform="translate(1061.572266 0)"/>
     <use xlink:href="#ArialMT-73" transform="translate(1117.1875 0)"/>
     <use xlink:href="#ArialMT-20" transform="translate(1167.1875 0)"/>
     <use xlink:href="#ArialMT-47" transform="translate(1194.970703 0)"/>
     <use xlink:href="#ArialMT-72" transform="translate(1272.753906 0)"/>
     <use xlink:href="#ArialMT-6f" transform="translate(1306.054688 0)"/>
     <use xlink:href="#ArialMT-77" transform="translate(1361.669922 0)"/>
     <use xlink:href="#ArialMT-74" transform="translate(1433.886719 0)"/>
     <use xlink:href="#ArialMT-68" transform="translate(1461.669922 0)"/>
     <use xlink:href="#ArialMT-20" transform="translate(1517.285156 0)"/>
     <use xlink:href="#ArialMT-31" transform="translate(1545.068359 0)"/>
     <use xlink:href="#ArialMT-30" transform="translate(1600.683594 0)"/>
     <use xlink:href="#ArialMT-20" transform="translate(1656.298828 0)"/>
     <use xlink:href="#ArialMT-79" transform="translate(1684.082031 0)"/>
     <use xlink:href="#ArialMT-65" transform="translate(1734.082031 0)"/>
     <use xlink:href="#ArialMT-61" transform="translate(1789.697266 0)"/>
     <use xlink:href="#ArialMT-72" transform="translate(1845.3125 0)"/>
     <use xlink:href="#ArialMT-20" transform="translate(1878.613281 0)"/>
     <use xlink:href="#ArialMT-76" transform="translate(1906.396484 0)"/>
     <use xlink:href="#ArialMT-73" transform="translate(1956.396484 0)"/>
     <use xlink:href="#ArialMT-20" transform="translate(2006.396484 0)"/>
     <use xlink:href="#ArialMT-51" transform="translate(2034.179688 0)"/>
     <use xlink:href="#ArialMT-75" transform="translate(2111.962891 0)"/>
     <use xlink:href="#ArialMT-61" transform="translate(2167.578125 0)"/>
     <use xlink:href="#ArialMT-72" transform="translate(2223.193359 0)"/>
     <use xlink:href="#ArialMT-74" transform="translate(2256.494141 0)"/>
     <use xlink:href="#ArialMT-65" transform="translate(2284.277344 0)"/>
     <use xlink:href="#ArialMT-72" transform="translate(2339.892578 0)"/>
     <use xlink:href="#ArialMT-6c" transform="translate(2373.193359 0)"/>
     <use xlink:href="#ArialMT-79" transform="translate(2395.410156 0)"/>
    </g>
   </g>
   <g id="legend_1">
    <g id="line2d_35">
     <path d="M 764.057813 81.899688 
L 774.057813 81.899688 
L 784.057813 81.899688 
" style="fill: none; stroke: #1f77b4; stroke-width: 1.5; stroke-linecap: round"/>
    </g>
    <g id="text_19">
     <!-- PCDG 10 year growth -->
     <g style="fill: #262626" transform="translate(792.057813 85.399688) scale(0.1 -0.1)">
      <defs>
       <path id="ArialMT-43" d="M 3763 1606 
L 4369 1453 
Q 4178 706 3683 314 
Q 3188 -78 2472 -78 
Q 1731 -78 1267 223 
Q 803 525 561 1097 
Q 319 1669 319 2325 
Q 319 3041 592 3573 
Q 866 4106 1370 4382 
Q 1875 4659 2481 4659 
Q 3169 4659 3637 4309 
Q 4106 3959 4291 3325 
L 3694 3184 
Q 3534 3684 3231 3912 
Q 2928 4141 2469 4141 
Q 1941 4141 1586 3887 
Q 1231 3634 1087 3207 
Q 944 2781 944 2328 
Q 944 1744 1114 1308 
Q 1284 872 1643 656 
Q 2003 441 2422 441 
Q 2931 441 3284 734 
Q 3638 1028 3763 1606 
z
" transform="scale(0.015625)"/>
      </defs>
      <use xlink:href="#ArialMT-50"/>
      <use xlink:href="#ArialMT-43" transform="translate(66.699219 0)"/>
      <use xlink:href="#ArialMT-44" transform="translate(138.916016 0)"/>
      <use xlink:href="#ArialMT-47" transform="translate(211.132812 0)"/>
      <use xlink:href="#ArialMT-20" transform="translate(288.916016 0)"/>
      <use xlink:href="#ArialMT-31" transform="translate(316.699219 0)"/>
      <use xlink:href="#ArialMT-30" transform="translate(372.314453 0)"/>
      <use xlink:href="#ArialMT-20" transform="translate(427.929688 0)"/>
      <use xlink:href="#ArialMT-79" transform="translate(455.712891 0)"/>
      <use xlink:href="#ArialMT-65" transform="translate(505.712891 0)"/>
      <use xlink:href="#ArialMT-61" transform="translate(561.328125 0)"/>
      <use xlink:href="#ArialMT-72" transform="translate(616.943359 0)"/>
      <use xlink:href="#ArialMT-20" transform="translate(650.244141 0)"/>
      <use xlink:href="#ArialMT-67" transform="translate(678.027344 0)"/>
      <use xlink:href="#ArialMT-72" transform="translate(733.642578 0)"/>
      <use xlink:href="#ArialMT-6f" transform="translate(766.943359 0)"/>
      <use xlink:href="#ArialMT-77" transform="translate(822.558594 0)"/>
      <use xlink:href="#ArialMT-74" transform="translate(894.775391 0)"/>
      <use xlink:href="#ArialMT-68" transform="translate(922.558594 0)"/>
     </g>
    </g>
    <g id="line2d_36">
     <path d="M 764.057813 96.284063 
L 774.057813 96.284063 
L 784.057813 96.284063 
" style="fill: none; stroke: #ff7f0e; stroke-width: 1.5; stroke-linecap: round"/>
    </g>
    <g id="text_20">
     <!-- PCND 10 year growth -->
     <g style="fill: #262626" transform="translate(792.057813 99.784063) scale(0.1 -0.1)">
      <use xlink:href="#ArialMT-50"/>
      <use xlink:href="#ArialMT-43" transform="translate(66.699219 0)"/>
      <use xlink:href="#ArialMT-4e" transform="translate(138.916016 0)"/>
      <use xlink:href="#ArialMT-44" transform="translate(211.132812 0)"/>
      <use xlink:href="#ArialMT-20" transform="translate(283.349609 0)"/>
      <use xlink:href="#ArialMT-31" transform="translate(311.132812 0)"/>
      <use xlink:href="#ArialMT-30" transform="translate(366.748047 0)"/>
      <use xlink:href="#ArialMT-20" transform="translate(422.363281 0)"/>
      <use xlink:href="#ArialMT-79" transform="translate(450.146484 0)"/>
      <use xlink:href="#ArialMT-65" transform="translate(500.146484 0)"/>
      <use xlink:href="#ArialMT-61" transform="translate(555.761719 0)"/>
      <use xlink:href="#ArialMT-72" transform="translate(611.376953 0)"/>
      <use xlink:href="#ArialMT-20" transform="translate(644.677734 0)"/>
      <use xlink:href="#ArialMT-67" transform="translate(672.460938 0)"/>
      <use xlink:href="#ArialMT-72" transform="translate(728.076172 0)"/>
      <use xlink:href="#ArialMT-6f" transform="translate(761.376953 0)"/>
      <use xlink:href="#ArialMT-77" transform="translate(816.992188 0)"/>
      <use xlink:href="#ArialMT-74" transform="translate(889.208984 0)"/>
      <use xlink:href="#ArialMT-68" transform="translate(916.992188 0)"/>
     </g>
    </g>
    <g id="line2d_37">
     <path d="M 764.057813 110.668438 
L 774.057813 110.668438 
L 784.057813 110.668438 
" style="fill: none; stroke: #2ca02c; stroke-width: 1.5; stroke-linecap: round"/>
    </g>
    <g id="text_21">
     <!-- PCDG  quarterly growth -->
     <g style="fill: #262626" transform="translate(792.057813 114.168438) scale(0.1 -0.1)">
      <defs>
       <path id="ArialMT-71" d="M 2538 -1272 
L 2538 353 
Q 2406 169 2170 47 
Q 1934 -75 1669 -75 
Q 1078 -75 651 397 
Q 225 869 225 1691 
Q 225 2191 398 2587 
Q 572 2984 901 3189 
Q 1231 3394 1625 3394 
Q 2241 3394 2594 2875 
L 2594 3319 
L 3100 3319 
L 3100 -1272 
L 2538 -1272 
z
M 803 1669 
Q 803 1028 1072 708 
Q 1341 388 1716 388 
Q 2075 388 2334 692 
Q 2594 997 2594 1619 
Q 2594 2281 2320 2615 
Q 2047 2950 1678 2950 
Q 1313 2950 1058 2639 
Q 803 2328 803 1669 
z
" transform="scale(0.015625)"/>
      </defs>
      <use xlink:href="#ArialMT-50"/>
      <use xlink:href="#ArialMT-43" transform="translate(66.699219 0)"/>
      <use xlink:href="#ArialMT-44" transform="translate(138.916016 0)"/>
      <use xlink:href="#ArialMT-47" transform="translate(211.132812 0)"/>
      <use xlink:href="#ArialMT-20" transform="translate(288.916016 0)"/>
      <use xlink:href="#ArialMT-20" transform="translate(316.699219 0)"/>
      <use xlink:href="#ArialMT-71" transform="translate(344.482422 0)"/>
      <use xlink:href="#ArialMT-75" transform="translate(400.097656 0)"/>
      <use xlink:href="#ArialMT-61" transform="translate(455.712891 0)"/>
      <use xlink:href="#ArialMT-72" transform="translate(511.328125 0)"/>
      <use xlink:href="#ArialMT-74" transform="translate(544.628906 0)"/>
      <use xlink:href="#ArialMT-65" transform="translate(572.412109 0)"/>
      <use xlink:href="#ArialMT-72" transform="translate(628.027344 0)"/>
      <use xlink:href="#ArialMT-6c" transform="translate(661.328125 0)"/>
      <use xlink:href="#ArialMT-79" transform="translate(683.544922 0)"/>
      <use xlink:href="#ArialMT-20" transform="translate(733.544922 0)"/>
      <use xlink:href="#ArialMT-67" transform="translate(761.328125 0)"/>
      <use xlink:href="#ArialMT-72" transform="translate(816.943359 0)"/>
      <use xlink:href="#ArialMT-6f" transform="translate(850.244141 0)"/>
      <use xlink:href="#ArialMT-77" transform="translate(905.859375 0)"/>
      <use xlink:href="#ArialMT-74" transform="translate(978.076172 0)"/>
      <use xlink:href="#ArialMT-68" transform="translate(1005.859375 0)"/>
     </g>
    </g>
    <g id="line2d_38">
     <path d="M 764.057813 125.052813 
L 774.057813 125.052813 
L 784.057813 125.052813 
" style="fill: none; stroke: #d62728; stroke-width: 1.5; stroke-linecap: round"/>
    </g>
    <g id="text_22">
     <!-- PCND  quarterly growth -->
     <g style="fill: #262626" transform="translate(792.057813 128.552813) scale(0.1 -0.1)">
      <use xlink:href="#ArialMT-50"/>
      <use xlink:href="#ArialMT-43" transform="translate(66.699219 0)"/>
      <use xlink:href="#ArialMT-4e" transform="translate(138.916016 0)"/>
      <use xlink:href="#ArialMT-44" transform="translate(211.132812 0)"/>
      <use xlink:href="#ArialMT-20" transform="translate(283.349609 0)"/>
      <use xlink:href="#ArialMT-20" transform="translate(311.132812 0)"/>
      <use xlink:href="#ArialMT-71" transform="translate(338.916016 0)"/>
      <use xlink:href="#ArialMT-75" transform="translate(394.53125 0)"/>
      <use xlink:href="#ArialMT-61" transform="translate(450.146484 0)"/>
      <use xlink:href="#ArialMT-72" transform="translate(505.761719 0)"/>
      <use xlink:href="#ArialMT-74" transform="translate(539.0625 0)"/>
      <use xlink:href="#ArialMT-65" transform="translate(566.845703 0)"/>
      <use xlink:href="#ArialMT-72" transform="translate(622.460938 0)"/>
      <use xlink:href="#ArialMT-6c" transform="translate(655.761719 0)"/>
      <use xlink:href="#ArialMT-79" transform="translate(677.978516 0)"/>
      <use xlink:href="#ArialMT-20" transform="translate(727.978516 0)"/>
      <use xlink:href="#ArialMT-67" transform="translate(755.761719 0)"/>
      <use xlink:href="#ArialMT-72" transform="translate(811.376953 0)"/>
      <use xlink:href="#ArialMT-6f" transform="translate(844.677734 0)"/>
      <use xlink:href="#ArialMT-77" transform="translate(900.292969 0)"/>
      <use xlink:href="#ArialMT-74" transform="translate(972.509766 0)"/>
      <use xlink:href="#ArialMT-68" transform="translate(1000.292969 0)"/>
     </g>
    </g>
   </g>
  </g>
 </g>
 <defs>
  <clipPath id="pebf6af777b">
   <rect x="126" y="69.12" width="781.2" height="443.52"/>
  </clipPath>
 </defs>
</svg>
