<?xml version="1.0" encoding="utf-8" standalone="no"?>
<!DOCTYPE svg PUBLIC "-//W3C//DTD SVG 1.1//EN"
  "http://www.w3.org/Graphics/SVG/1.1/DTD/svg11.dtd">
<svg xmlns:xlink="http://www.w3.org/1999/xlink" width="576pt" height="432pt" viewBox="0 0 576 432" xmlns="http://www.w3.org/2000/svg" version="1.1">
 <metadata>
  <rdf:RDF xmlns:dc="http://purl.org/dc/elements/1.1/" xmlns:cc="http://creativecommons.org/ns#" xmlns:rdf="http://www.w3.org/1999/02/22-rdf-syntax-ns#">
   <cc:Work>
    <dc:type rdf:resource="http://purl.org/dc/dcmitype/StillImage"/>
    <dc:format>image/svg+xml</dc:format>
    <dc:creator>
     <cc:Agent>
      <dc:title>Matplotlib v3.10.6, https://matplotlib.org/</dc:title>
     </cc:Agent>
    </dc:creator>
   </cc:Work>
  </rdf:RDF>
 </metadata>
 <defs>
  <style type="text/css">*{stroke-linejoin: round; stroke-linecap: butt}</style>
 </defs>
 <g id="figure_1">
  <g id="patch_1">
   <path d="M 0 432 
L 576 432 
L 576 0 
L 0 0 
z
" style="fill: #ffffff"/>
  </g>
  <g id="axes_1">
   <g id="patch_2">
    <path d="M 72 384.48 
L 518.4 384.48 
L 518.4 51.84 
L 72 51.84 
z
" style="fill: #ffffff"/>
   </g>
   <g id="patch_3">
    <path d="M 92.290909 384.48 
L 100.407273 384.48 
L 100.407273 383.28603 
L 92.290909 383.28603 
z
" clip-path="url(#pd0c089acd3)" style="fill: #1f77b4"/>
   </g>
   <g id="patch_4">
    <path d="M 100.407273 384.48 
L 108.523636 384.48 
L 108.523636 384.48 
L 100.407273 384.48 
z
" clip-path="url(#pd0c089acd3)" style="fill: #1f77b4"/>
   </g>
   <g id="patch_5">
    <path d="M 108.523636 384.48 
L 116.64 384.48 
L 116.64 384.48 
L 108.523636 384.48 
z
" clip-path="url(#pd0c089acd3)" style="fill: #1f77b4"/>
   </g>
   <g id="patch_6">
    <path d="M 116.64 384.48 
L 124.756364 384.48 
L 124.756364 384.08201 
L 116.64 384.08201 
z
" clip-path="url(#pd0c089acd3)" style="fill: #1f77b4"/>
   </g>
   <g id="patch_7">
    <path d="M 124.756364 384.48 
L 132.872727 384.48 
L 132.872727 384.48 
L 124.756364 384.48 
z
" clip-path="url(#pd0c089acd3)" style="fill: #1f77b4"/>
   </g>
   <g id="patch_8">
    <path d="M 132.872727 384.48 
L 140.989091 384.48 
L 140.989091 384.08201 
L 132.872727 384.08201 
z
" clip-path="url(#pd0c089acd3)" style="fill: #1f77b4"/>
   </g>
   <g id="patch_9">
    <path d="M 140.989091 384.48 
L 149.105455 384.48 
L 149.105455 384.08201 
L 140.989091 384.08201 
z
" clip-path="url(#pd0c089acd3)" style="fill: #1f77b4"/>
   </g>
   <g id="patch_10">
    <path d="M 149.105455 384.48 
L 157.221818 384.48 
L 157.221818 383.68402 
L 149.105455 383.68402 
z
" clip-path="url(#pd0c089acd3)" style="fill: #1f77b4"/>
   </g>
   <g id="patch_11">
    <path d="M 157.221818 384.48 
L 165.338182 384.48 
L 165.338182 384.08201 
L 157.221818 384.08201 
z
" clip-path="url(#pd0c089acd3)" style="fill: #1f77b4"/>
   </g>
   <g id="patch_12">
    <path d="M 165.338182 384.48 
L 173.454545 384.48 
L 173.454545 382.88804 
L 165.338182 382.88804 
z
" clip-path="url(#pd0c089acd3)" style="fill: #1f77b4"/>
   </g>
   <g id="patch_13">
    <path d="M 173.454545 384.48 
L 181.570909 384.48 
L 181.570909 383.28603 
L 173.454545 383.28603 
z
" clip-path="url(#pd0c089acd3)" style="fill: #1f77b4"/>
   </g>
   <g id="patch_14">
    <path d="M 181.570909 384.48 
L 189.687273 384.48 
L 189.687273 383.28603 
L 181.570909 383.28603 
z
" clip-path="url(#pd0c089acd3)" style="fill: #1f77b4"/>
   </g>
   <g id="patch_15">
    <path d="M 189.687273 384.48 
L 197.803636 384.48 
L 197.803636 382.88804 
L 189.687273 382.88804 
z
" clip-path="url(#pd0c089acd3)" style="fill: #1f77b4"/>
   </g>
   <g id="patch_16">
    <path d="M 197.803636 384.48 
L 205.92 384.48 
L 205.92 381.29608 
L 197.803636 381.29608 
z
" clip-path="url(#pd0c089acd3)" style="fill: #1f77b4"/>
   </g>
   <g id="patch_17">
    <path d="M 205.92 384.48 
L 214.036364 384.48 
L 214.036364 380.89809 
L 205.92 380.89809 
z
" clip-path="url(#pd0c089acd3)" style="fill: #1f77b4"/>
   </g>
   <g id="patch_18">
    <path d="M 214.036364 384.48 
L 222.152727 384.48 
L 222.152727 379.704121 
L 214.036364 379.704121 
z
" clip-path="url(#pd0c089acd3)" style="fill: #1f77b4"/>
   </g>
   <g id="patch_19">
    <path d="M 222.152727 384.48 
L 230.269091 384.48 
L 230.269091 377.714171 
L 222.152727 377.714171 
z
" clip-path="url(#pd0c089acd3)" style="fill: #1f77b4"/>
   </g>
   <g id="patch_20">
    <path d="M 230.269091 384.48 
L 238.385455 384.48 
L 238.385455 378.510151 
L 230.269091 378.510151 
z
" clip-path="url(#pd0c089acd3)" style="fill: #1f77b4"/>
   </g>
   <g id="patch_21">
    <path d="M 238.385455 384.48 
L 246.501818 384.48 
L 246.501818 377.316181 
L 238.385455 377.316181 
z
" clip-path="url(#pd0c089acd3)" style="fill: #1f77b4"/>
   </g>
   <g id="patch_22">
    <path d="M 246.501818 384.48 
L 254.618182 384.48 
L 254.618182 368.162412 
L 246.501818 368.162412 
z
" clip-path="url(#pd0c089acd3)" style="fill: #1f77b4"/>
   </g>
   <g id="patch_23">
    <path d="M 254.618182 384.48 
L 262.734545 384.48 
L 262.734545 368.958392 
L 254.618182 368.958392 
z
" clip-path="url(#pd0c089acd3)" style="fill: #1f77b4"/>
   </g>
   <g id="patch_24">
    <path d="M 262.734545 384.48 
L 270.850909 384.48 
L 270.850909 366.570452 
L 262.734545 366.570452 
z
" clip-path="url(#pd0c089acd3)" style="fill: #1f77b4"/>
   </g>
   <g id="patch_25">
    <path d="M 270.850909 384.48 
L 278.967273 384.48 
L 278.967273 355.028744 
L 270.850909 355.028744 
z
" clip-path="url(#pd0c089acd3)" style="fill: #1f77b4"/>
   </g>
   <g id="patch_26">
    <path d="M 278.967273 384.48 
L 287.083636 384.48 
L 287.083636 346.670955 
L 278.967273 346.670955 
z
" clip-path="url(#pd0c089acd3)" style="fill: #1f77b4"/>
   </g>
   <g id="patch_27">
    <path d="M 287.083636 384.48 
L 295.2 384.48 
L 295.2 338.313166 
L 287.083636 338.313166 
z
" clip-path="url(#pd0c089acd3)" style="fill: #1f77b4"/>
   </g>
   <g id="patch_28">
    <path d="M 295.2 384.48 
L 303.316364 384.48 
L 303.316364 325.975477 
L 295.2 325.975477 
z
" clip-path="url(#pd0c089acd3)" style="fill: #1f77b4"/>
   </g>
   <g id="patch_29">
    <path d="M 303.316364 384.48 
L 311.432727 384.48 
L 311.432727 304.48402 
L 303.316364 304.48402 
z
" clip-path="url(#pd0c089acd3)" style="fill: #1f77b4"/>
   </g>
   <g id="patch_30">
    <path d="M 311.432727 384.48 
L 319.549091 384.48 
L 319.549091 283.788543 
L 311.432727 283.788543 
z
" clip-path="url(#pd0c089acd3)" style="fill: #1f77b4"/>
   </g>
   <g id="patch_31">
    <path d="M 319.549091 384.48 
L 327.665455 384.48 
L 327.665455 257.521206 
L 319.549091 257.521206 
z
" clip-path="url(#pd0c089acd3)" style="fill: #1f77b4"/>
   </g>
   <g id="patch_32">
    <path d="M 327.665455 384.48 
L 335.781818 384.48 
L 335.781818 233.641809 
L 327.665455 233.641809 
z
" clip-path="url(#pd0c089acd3)" style="fill: #1f77b4"/>
   </g>
   <g id="patch_33">
    <path d="M 335.781818 384.48 
L 343.898182 384.48 
L 343.898182 205.782513 
L 335.781818 205.782513 
z
" clip-path="url(#pd0c089acd3)" style="fill: #1f77b4"/>
   </g>
   <g id="patch_34">
    <path d="M 343.898182 384.48 
L 352.014545 384.48 
L 352.014545 176.331256 
L 343.898182 176.331256 
z
" clip-path="url(#pd0c089acd3)" style="fill: #1f77b4"/>
   </g>
   <g id="patch_35">
    <path d="M 352.014545 384.48 
L 360.130909 384.48 
L 360.130909 143.29809 
L 352.014545 143.29809 
z
" clip-path="url(#pd0c089acd3)" style="fill: #1f77b4"/>
   </g>
   <g id="patch_36">
    <path d="M 360.130909 384.48 
L 368.247273 384.48 
L 368.247273 117.428744 
L 360.130909 117.428744 
z
" clip-path="url(#pd0c089acd3)" style="fill: #1f77b4"/>
   </g>
   <g id="patch_37">
    <path d="M 368.247273 384.48 
L 376.363636 384.48 
L 376.363636 88.773467 
L 368.247273 88.773467 
z
" clip-path="url(#pd0c089acd3)" style="fill: #1f77b4"/>
   </g>
   <g id="patch_38">
    <path d="M 376.363636 384.48 
L 384.48 384.48 
L 384.48 90.365427 
L 376.363636 90.365427 
z
" clip-path="url(#pd0c089acd3)" style="fill: #1f77b4"/>
   </g>
   <g id="patch_39">
    <path d="M 384.48 384.48 
L 392.596364 384.48 
L 392.596364 67.68 
L 384.48 67.68 
z
" clip-path="url(#pd0c089acd3)" style="fill: #1f77b4"/>
   </g>
   <g id="patch_40">
    <path d="M 392.596364 384.48 
L 400.712727 384.48 
L 400.712727 99.121206 
L 392.596364 99.121206 
z
" clip-path="url(#pd0c089acd3)" style="fill: #1f77b4"/>
   </g>
   <g id="patch_41">
    <path d="M 400.712727 384.48 
L 408.829091 384.48 
L 408.829091 135.736281 
L 400.712727 135.736281 
z
" clip-path="url(#pd0c089acd3)" style="fill: #1f77b4"/>
   </g>
   <g id="patch_42">
    <path d="M 408.829091 384.48 
L 416.945455 384.48 
L 416.945455 158.819698 
L 408.829091 158.819698 
z
" clip-path="url(#pd0c089acd3)" style="fill: #1f77b4"/>
   </g>
   <g id="patch_43">
    <path d="M 416.945455 384.48 
L 425.061818 384.48 
L 425.061818 191.852864 
L 416.945455 191.852864 
z
" clip-path="url(#pd0c089acd3)" style="fill: #1f77b4"/>
   </g>
   <g id="patch_44">
    <path d="M 425.061818 384.48 
L 433.178182 384.48 
L 433.178182 243.591558 
L 425.061818 243.591558 
z
" clip-path="url(#pd0c089acd3)" style="fill: #1f77b4"/>
   </g>
   <g id="patch_45">
    <path d="M 433.178182 384.48 
L 441.294545 384.48 
L 441.294545 277.420704 
L 433.178182 277.420704 
z
" clip-path="url(#pd0c089acd3)" style="fill: #1f77b4"/>
   </g>
   <g id="patch_46">
    <path d="M 441.294545 384.48 
L 449.410909 384.48 
L 449.410909 301.69809 
L 441.294545 301.69809 
z
" clip-path="url(#pd0c089acd3)" style="fill: #1f77b4"/>
   </g>
   <g id="patch_47">
    <path d="M 449.410909 384.48 
L 457.527273 384.48 
L 457.527273 329.955377 
L 449.410909 329.955377 
z
" clip-path="url(#pd0c089acd3)" style="fill: #1f77b4"/>
   </g>
   <g id="patch_48">
    <path d="M 457.527273 384.48 
L 465.643636 384.48 
L 465.643636 352.242814 
L 457.527273 352.242814 
z
" clip-path="url(#pd0c089acd3)" style="fill: #1f77b4"/>
   </g>
   <g id="patch_49">
    <path d="M 465.643636 384.48 
L 473.76 384.48 
L 473.76 365.376482 
L 465.643636 365.376482 
z
" clip-path="url(#pd0c089acd3)" style="fill: #1f77b4"/>
   </g>
   <g id="patch_50">
    <path d="M 473.76 384.48 
L 481.876364 384.48 
L 481.876364 375.326231 
L 473.76 375.326231 
z
" clip-path="url(#pd0c089acd3)" style="fill: #1f77b4"/>
   </g>
   <g id="patch_51">
    <path d="M 481.876364 384.48 
L 489.992727 384.48 
L 489.992727 380.89809 
L 481.876364 380.89809 
z
" clip-path="url(#pd0c089acd3)" style="fill: #1f77b4"/>
   </g>
   <g id="patch_52">
    <path d="M 489.992727 384.48 
L 498.109091 384.48 
L 498.109091 382.88804 
L 489.992727 382.88804 
z
" clip-path="url(#pd0c089acd3)" style="fill: #1f77b4"/>
   </g>
   <g id="matplotlib.axis_1">
    <g id="xtick_1">
     <g id="line2d_1">
      <defs>
       <path id="m5cea351ff1" d="M 0 0 
L 0 3.5 
" style="stroke: #000000; stroke-width: 0.8"/>
      </defs>
      <g>
       <use xlink:href="#m5cea351ff1" x="96.844885" y="384.48" style="stroke: #000000; stroke-width: 0.8"/>
      </g>
     </g>
     <g id="text_1">
      <!-- 0.87 -->
      <g transform="translate(85.712072 399.078438) scale(0.1 -0.1)">
       <defs>
        <path id="DejaVuSans-30" d="M 2034 4250 
Q 1547 4250 1301 3770 
Q 1056 3291 1056 2328 
Q 1056 1369 1301 889 
Q 1547 409 2034 409 
Q 2525 409 2770 889 
Q 3016 1369 3016 2328 
Q 3016 3291 2770 3770 
Q 2525 4250 2034 4250 
z
M 2034 4750 
Q 2819 4750 3233 4129 
Q 3647 3509 3647 2328 
Q 3647 1150 3233 529 
Q 2819 -91 2034 -91 
Q 1250 -91 836 529 
Q 422 1150 422 2328 
Q 422 3509 836 4129 
Q 1250 4750 2034 4750 
z
" transform="scale(0.015625)"/>
        <path id="DejaVuSans-2e" d="M 684 794 
L 1344 794 
L 1344 0 
L 684 0 
L 684 794 
z
" transform="scale(0.015625)"/>
        <path id="DejaVuSans-38" d="M 2034 2216 
Q 1584 2216 1326 1975 
Q 1069 1734 1069 1313 
Q 1069 891 1326 650 
Q 1584 409 2034 409 
Q 2484 409 2743 651 
Q 3003 894 3003 1313 
Q 3003 1734 2745 1975 
Q 2488 2216 2034 2216 
z
M 1403 2484 
Q 997 2584 770 2862 
Q 544 3141 544 3541 
Q 544 4100 942 4425 
Q 1341 4750 2034 4750 
Q 2731 4750 3128 4425 
Q 3525 4100 3525 3541 
Q 3525 3141 3298 2862 
Q 3072 2584 2669 2484 
Q 3125 2378 3379 2068 
Q 3634 1759 3634 1313 
Q 3634 634 3220 271 
Q 2806 -91 2034 -91 
Q 1263 -91 848 271 
Q 434 634 434 1313 
Q 434 1759 690 2068 
Q 947 2378 1403 2484 
z
M 1172 3481 
Q 1172 3119 1398 2916 
Q 1625 2713 2034 2713 
Q 2441 2713 2670 2916 
Q 2900 3119 2900 3481 
Q 2900 3844 2670 4047 
Q 2441 4250 2034 4250 
Q 1625 4250 1398 4047 
Q 1172 3844 1172 3481 
z
" transform="scale(0.015625)"/>
        <path id="DejaVuSans-37" d="M 525 4666 
L 3525 4666 
L 3525 4397 
L 1831 0 
L 1172 0 
L 2766 4134 
L 525 4134 
L 525 4666 
z
" transform="scale(0.015625)"/>
       </defs>
       <use xlink:href="#DejaVuSans-30"/>
       <use xlink:href="#DejaVuSans-2e" transform="translate(63.623047 0)"/>
       <use xlink:href="#DejaVuSans-38" transform="translate(95.410156 0)"/>
       <use xlink:href="#DejaVuSans-37" transform="translate(159.033203 0)"/>
      </g>
     </g>
    </g>
    <g id="xtick_2">
     <g id="line2d_2">
      <g>
       <use xlink:href="#m5cea351ff1" x="154.498788" y="384.48" style="stroke: #000000; stroke-width: 0.8"/>
      </g>
     </g>
     <g id="text_2">
      <!-- 0.88 -->
      <g transform="translate(143.365975 399.078438) scale(0.1 -0.1)">
       <use xlink:href="#DejaVuSans-30"/>
       <use xlink:href="#DejaVuSans-2e" transform="translate(63.623047 0)"/>
       <use xlink:href="#DejaVuSans-38" transform="translate(95.410156 0)"/>
       <use xlink:href="#DejaVuSans-38" transform="translate(159.033203 0)"/>
      </g>
     </g>
    </g>
    <g id="xtick_3">
     <g id="line2d_3">
      <g>
       <use xlink:href="#m5cea351ff1" x="212.152691" y="384.48" style="stroke: #000000; stroke-width: 0.8"/>
      </g>
     </g>
     <g id="text_3">
      <!-- 0.89 -->
      <g transform="translate(201.019878 399.078438) scale(0.1 -0.1)">
       <defs>
        <path id="DejaVuSans-39" d="M 703 97 
L 703 672 
Q 941 559 1184 500 
Q 1428 441 1663 441 
Q 2288 441 2617 861 
Q 2947 1281 2994 2138 
Q 2813 1869 2534 1725 
Q 2256 1581 1919 1581 
Q 1219 1581 811 2004 
Q 403 2428 403 3163 
Q 403 3881 828 4315 
Q 1253 4750 1959 4750 
Q 2769 4750 3195 4129 
Q 3622 3509 3622 2328 
Q 3622 1225 3098 567 
Q 2575 -91 1691 -91 
Q 1453 -91 1209 -44 
Q 966 3 703 97 
z
M 1959 2075 
Q 2384 2075 2632 2365 
Q 2881 2656 2881 3163 
Q 2881 3666 2632 3958 
Q 2384 4250 1959 4250 
Q 1534 4250 1286 3958 
Q 1038 3666 1038 3163 
Q 1038 2656 1286 2365 
Q 1534 2075 1959 2075 
z
" transform="scale(0.015625)"/>
       </defs>
       <use xlink:href="#DejaVuSans-30"/>
       <use xlink:href="#DejaVuSans-2e" transform="translate(63.623047 0)"/>
       <use xlink:href="#DejaVuSans-38" transform="translate(95.410156 0)"/>
       <use xlink:href="#DejaVuSans-39" transform="translate(159.033203 0)"/>
      </g>
     </g>
    </g>
    <g id="xtick_4">
     <g id="line2d_4">
      <g>
       <use xlink:href="#m5cea351ff1" x="269.806594" y="384.48" style="stroke: #000000; stroke-width: 0.8"/>
      </g>
     </g>
     <g id="text_4">
      <!-- 0.90 -->
      <g transform="translate(258.673782 399.078438) scale(0.1 -0.1)">
       <use xlink:href="#DejaVuSans-30"/>
       <use xlink:href="#DejaVuSans-2e" transform="translate(63.623047 0)"/>
       <use xlink:href="#DejaVuSans-39" transform="translate(95.410156 0)"/>
       <use xlink:href="#DejaVuSans-30" transform="translate(159.033203 0)"/>
      </g>
     </g>
    </g>
    <g id="xtick_5">
     <g id="line2d_5">
      <g>
       <use xlink:href="#m5cea351ff1" x="327.460497" y="384.48" style="stroke: #000000; stroke-width: 0.8"/>
      </g>
     </g>
     <g id="text_5">
      <!-- 0.91 -->
      <g transform="translate(316.327685 399.078438) scale(0.1 -0.1)">
       <defs>
        <path id="DejaVuSans-31" d="M 794 531 
L 1825 531 
L 1825 4091 
L 703 3866 
L 703 4441 
L 1819 4666 
L 2450 4666 
L 2450 531 
L 3481 531 
L 3481 0 
L 794 0 
L 794 531 
z
" transform="scale(0.015625)"/>
       </defs>
       <use xlink:href="#DejaVuSans-30"/>
       <use xlink:href="#DejaVuSans-2e" transform="translate(63.623047 0)"/>
       <use xlink:href="#DejaVuSans-39" transform="translate(95.410156 0)"/>
       <use xlink:href="#DejaVuSans-31" transform="translate(159.033203 0)"/>
      </g>
     </g>
    </g>
    <g id="xtick_6">
     <g id="line2d_6">
      <g>
       <use xlink:href="#m5cea351ff1" x="385.1144" y="384.48" style="stroke: #000000; stroke-width: 0.8"/>
      </g>
     </g>
     <g id="text_6">
      <!-- 0.92 -->
      <g transform="translate(373.981588 399.078438) scale(0.1 -0.1)">
       <defs>
        <path id="DejaVuSans-32" d="M 1228 531 
L 3431 531 
L 3431 0 
L 469 0 
L 469 531 
Q 828 903 1448 1529 
Q 2069 2156 2228 2338 
Q 2531 2678 2651 2914 
Q 2772 3150 2772 3378 
Q 2772 3750 2511 3984 
Q 2250 4219 1831 4219 
Q 1534 4219 1204 4116 
Q 875 4013 500 3803 
L 500 4441 
Q 881 4594 1212 4672 
Q 1544 4750 1819 4750 
Q 2544 4750 2975 4387 
Q 3406 4025 3406 3419 
Q 3406 3131 3298 2873 
Q 3191 2616 2906 2266 
Q 2828 2175 2409 1742 
Q 1991 1309 1228 531 
z
" transform="scale(0.015625)"/>
       </defs>
       <use xlink:href="#DejaVuSans-30"/>
       <use xlink:href="#DejaVuSans-2e" transform="translate(63.623047 0)"/>
       <use xlink:href="#DejaVuSans-39" transform="translate(95.410156 0)"/>
       <use xlink:href="#DejaVuSans-32" transform="translate(159.033203 0)"/>
      </g>
     </g>
    </g>
    <g id="xtick_7">
     <g id="line2d_7">
      <g>
       <use xlink:href="#m5cea351ff1" x="442.768304" y="384.48" style="stroke: #000000; stroke-width: 0.8"/>
      </g>
     </g>
     <g id="text_7">
      <!-- 0.93 -->
      <g transform="translate(431.635491 399.078438) scale(0.1 -0.1)">
       <defs>
        <path id="DejaVuSans-33" d="M 2597 2516 
Q 3050 2419 3304 2112 
Q 3559 1806 3559 1356 
Q 3559 666 3084 287 
Q 2609 -91 1734 -91 
Q 1441 -91 1130 -33 
Q 819 25 488 141 
L 488 750 
Q 750 597 1062 519 
Q 1375 441 1716 441 
Q 2309 441 2620 675 
Q 2931 909 2931 1356 
Q 2931 1769 2642 2001 
Q 2353 2234 1838 2234 
L 1294 2234 
L 1294 2753 
L 1863 2753 
Q 2328 2753 2575 2939 
Q 2822 3125 2822 3475 
Q 2822 3834 2567 4026 
Q 2313 4219 1838 4219 
Q 1578 4219 1281 4162 
Q 984 4106 628 3988 
L 628 4550 
Q 988 4650 1302 4700 
Q 1616 4750 1894 4750 
Q 2613 4750 3031 4423 
Q 3450 4097 3450 3541 
Q 3450 3153 3228 2886 
Q 3006 2619 2597 2516 
z
" transform="scale(0.015625)"/>
       </defs>
       <use xlink:href="#DejaVuSans-30"/>
       <use xlink:href="#DejaVuSans-2e" transform="translate(63.623047 0)"/>
       <use xlink:href="#DejaVuSans-39" transform="translate(95.410156 0)"/>
       <use xlink:href="#DejaVuSans-33" transform="translate(159.033203 0)"/>
      </g>
     </g>
    </g>
    <g id="xtick_8">
     <g id="line2d_8">
      <g>
       <use xlink:href="#m5cea351ff1" x="500.422207" y="384.48" style="stroke: #000000; stroke-width: 0.8"/>
      </g>
     </g>
     <g id="text_8">
      <!-- 0.94 -->
      <g transform="translate(489.289394 399.078438) scale(0.1 -0.1)">
       <defs>
        <path id="DejaVuSans-34" d="M 2419 4116 
L 825 1625 
L 2419 1625 
L 2419 4116 
z
M 2253 4666 
L 3047 4666 
L 3047 1625 
L 3713 1625 
L 3713 1100 
L 3047 1100 
L 3047 0 
L 2419 0 
L 2419 1100 
L 313 1100 
L 313 1709 
L 2253 4666 
z
" transform="scale(0.015625)"/>
       </defs>
       <use xlink:href="#DejaVuSans-30"/>
       <use xlink:href="#DejaVuSans-2e" transform="translate(63.623047 0)"/>
       <use xlink:href="#DejaVuSans-39" transform="translate(95.410156 0)"/>
       <use xlink:href="#DejaVuSans-34" transform="translate(159.033203 0)"/>
      </g>
     </g>
    </g>
   </g>
   <g id="matplotlib.axis_2">
    <g id="ytick_1">
     <g id="line2d_9">
      <defs>
       <path id="m9b88de43d6" d="M 0 0 
L -3.5 0 
" style="stroke: #000000; stroke-width: 0.8"/>
      </defs>
      <g>
       <use xlink:href="#m9b88de43d6" x="72" y="384.48" style="stroke: #000000; stroke-width: 0.8"/>
      </g>
     </g>
     <g id="text_9">
      <!-- 0 -->
      <g transform="translate(58.6375 388.279219) scale(0.1 -0.1)">
       <use xlink:href="#DejaVuSans-30"/>
      </g>
     </g>
    </g>
    <g id="ytick_2">
     <g id="line2d_10">
      <g>
       <use xlink:href="#m9b88de43d6" x="72" y="329.21401" style="stroke: #000000; stroke-width: 0.8"/>
      </g>
     </g>
     <g id="text_10">
      <!-- 10 -->
      <g transform="translate(52.275 333.013229) scale(0.1 -0.1)">
       <use xlink:href="#DejaVuSans-31"/>
       <use xlink:href="#DejaVuSans-30" transform="translate(63.623047 0)"/>
      </g>
     </g>
    </g>
    <g id="ytick_3">
     <g id="line2d_11">
      <g>
       <use xlink:href="#m9b88de43d6" x="72" y="273.948021" style="stroke: #000000; stroke-width: 0.8"/>
      </g>
     </g>
     <g id="text_11">
      <!-- 20 -->
      <g transform="translate(52.275 277.74724) scale(0.1 -0.1)">
       <use xlink:href="#DejaVuSans-32"/>
       <use xlink:href="#DejaVuSans-30" transform="translate(63.623047 0)"/>
      </g>
     </g>
    </g>
    <g id="ytick_4">
     <g id="line2d_12">
      <g>
       <use xlink:href="#m9b88de43d6" x="72" y="218.682031" style="stroke: #000000; stroke-width: 0.8"/>
      </g>
     </g>
     <g id="text_12">
      <!-- 30 -->
      <g transform="translate(52.275 222.48125) scale(0.1 -0.1)">
       <use xlink:href="#DejaVuSans-33"/>
       <use xlink:href="#DejaVuSans-30" transform="translate(63.623047 0)"/>
      </g>
     </g>
    </g>
    <g id="ytick_5">
     <g id="line2d_13">
      <g>
       <use xlink:href="#m9b88de43d6" x="72" y="163.416042" style="stroke: #000000; stroke-width: 0.8"/>
      </g>
     </g>
     <g id="text_13">
      <!-- 40 -->
      <g transform="translate(52.275 167.21526) scale(0.1 -0.1)">
       <use xlink:href="#DejaVuSans-34"/>
       <use xlink:href="#DejaVuSans-30" transform="translate(63.623047 0)"/>
      </g>
     </g>
    </g>
    <g id="ytick_6">
     <g id="line2d_14">
      <g>
       <use xlink:href="#m9b88de43d6" x="72" y="108.150052" style="stroke: #000000; stroke-width: 0.8"/>
      </g>
     </g>
     <g id="text_14">
      <!-- 50 -->
      <g transform="translate(52.275 111.949271) scale(0.1 -0.1)">
       <defs>
        <path id="DejaVuSans-35" d="M 691 4666 
L 3169 4666 
L 3169 4134 
L 1269 4134 
L 1269 2991 
Q 1406 3038 1543 3061 
Q 1681 3084 1819 3084 
Q 2600 3084 3056 2656 
Q 3513 2228 3513 1497 
Q 3513 744 3044 326 
Q 2575 -91 1722 -91 
Q 1428 -91 1123 -41 
Q 819 9 494 109 
L 494 744 
Q 775 591 1075 516 
Q 1375 441 1709 441 
Q 2250 441 2565 725 
Q 2881 1009 2881 1497 
Q 2881 1984 2565 2268 
Q 2250 2553 1709 2553 
Q 1456 2553 1204 2497 
Q 953 2441 691 2322 
L 691 4666 
z
" transform="scale(0.015625)"/>
       </defs>
       <use xlink:href="#DejaVuSans-35"/>
       <use xlink:href="#DejaVuSans-30" transform="translate(63.623047 0)"/>
      </g>
     </g>
    </g>
    <g id="ytick_7">
     <g id="line2d_15">
      <g>
       <use xlink:href="#m9b88de43d6" x="72" y="52.884062" style="stroke: #000000; stroke-width: 0.8"/>
      </g>
     </g>
     <g id="text_15">
      <!-- 60 -->
      <g transform="translate(52.275 56.683281) scale(0.1 -0.1)">
       <defs>
        <path id="DejaVuSans-36" d="M 2113 2584 
Q 1688 2584 1439 2293 
Q 1191 2003 1191 1497 
Q 1191 994 1439 701 
Q 1688 409 2113 409 
Q 2538 409 2786 701 
Q 3034 994 3034 1497 
Q 3034 2003 2786 2293 
Q 2538 2584 2113 2584 
z
M 3366 4563 
L 3366 3988 
Q 3128 4100 2886 4159 
Q 2644 4219 2406 4219 
Q 1781 4219 1451 3797 
Q 1122 3375 1075 2522 
Q 1259 2794 1537 2939 
Q 1816 3084 2150 3084 
Q 2853 3084 3261 2657 
Q 3669 2231 3669 1497 
Q 3669 778 3244 343 
Q 2819 -91 2113 -91 
Q 1303 -91 875 529 
Q 447 1150 447 2328 
Q 447 3434 972 4092 
Q 1497 4750 2381 4750 
Q 2619 4750 2861 4703 
Q 3103 4656 3366 4563 
z
" transform="scale(0.015625)"/>
       </defs>
       <use xlink:href="#DejaVuSans-36"/>
       <use xlink:href="#DejaVuSans-30" transform="translate(63.623047 0)"/>
      </g>
     </g>
    </g>
   </g>
   <g id="patch_53">
    <path d="M 72 384.48 
L 72 51.84 
" style="fill: none; stroke: #000000; stroke-width: 0.8; stroke-linejoin: miter; stroke-linecap: square"/>
   </g>
   <g id="patch_54">
    <path d="M 518.4 384.48 
L 518.4 51.84 
" style="fill: none; stroke: #000000; stroke-width: 0.8; stroke-linejoin: miter; stroke-linecap: square"/>
   </g>
   <g id="patch_55">
    <path d="M 72 384.48 
L 518.4 384.48 
" style="fill: none; stroke: #000000; stroke-width: 0.8; stroke-linejoin: miter; stroke-linecap: square"/>
   </g>
   <g id="patch_56">
    <path d="M 72 51.84 
L 518.4 51.84 
" style="fill: none; stroke: #000000; stroke-width: 0.8; stroke-linejoin: miter; stroke-linecap: square"/>
   </g>
  </g>
 </g>
 <defs>
  <clipPath id="pd0c089acd3">
   <rect x="72" y="51.84" width="446.4" height="332.64"/>
  </clipPath>
 </defs>
</svg>
