<?xml version="1.0" encoding="utf-8" standalone="no"?>
<!DOCTYPE svg PUBLIC "-//W3C//DTD SVG 1.1//EN"
  "http://www.w3.org/Graphics/SVG/1.1/DTD/svg11.dtd">
<svg xmlns:xlink="http://www.w3.org/1999/xlink" width="720pt" height="576pt" viewBox="0 0 720 576" xmlns="http://www.w3.org/2000/svg" version="1.1">
 <metadata>
  <rdf:RDF xmlns:dc="http://purl.org/dc/elements/1.1/" xmlns:cc="http://creativecommons.org/ns#" xmlns:rdf="http://www.w3.org/1999/02/22-rdf-syntax-ns#">
   <cc:Work>
    <dc:type rdf:resource="http://purl.org/dc/dcmitype/StillImage"/>
    <dc:format>image/svg+xml</dc:format>
    <dc:creator>
     <cc:Agent>
      <dc:title>Matplotlib v3.10.6, https://matplotlib.org/</dc:title>
     </cc:Agent>
    </dc:creator>
   </cc:Work>
  </rdf:RDF>
 </metadata>
 <defs>
  <style type="text/css">*{stroke-linejoin: round; stroke-linecap: butt}</style>
 </defs>
 <g id="figure_1">
  <g id="patch_1">
   <path d="M 0 576 
L 720 576 
L 720 0 
L 0 0 
z
" style="fill: #ffffff"/>
  </g>
  <g id="axes_1">
   <g id="patch_2">
    <path d="M 90 512.64 
L 648 512.64 
L 648 69.12 
L 90 69.12 
z
" style="fill: #ffffff"/>
   </g>
   <g id="matplotlib.axis_1">
    <g id="xtick_1">
     <g id="line2d_1">
      <defs>
       <path id="m6b5fbd8e95" d="M 0 0 
L 0 3.5 
" style="stroke: #000000; stroke-width: 0.8"/>
      </defs>
      <g>
       <use xlink:href="#m6b5fbd8e95" x="304.713826" y="512.64" style="stroke: #000000; stroke-width: 0.8"/>
      </g>
     </g>
     <g id="text_1">
      <!-- $a^*$ -->
      <g transform="translate(298.163826 527.238438) scale(0.1 -0.1)">
       <defs>
        <path id="DejaVuSans-Oblique-61" d="M 3438 1997 
L 3047 0 
L 2472 0 
L 2578 531 
Q 2325 219 2001 64 
Q 1678 -91 1281 -91 
Q 834 -91 548 182 
Q 263 456 263 884 
Q 263 1497 752 1853 
Q 1241 2209 2100 2209 
L 2900 2209 
L 2931 2363 
Q 2938 2388 2941 2417 
Q 2944 2447 2944 2509 
Q 2944 2788 2717 2942 
Q 2491 3097 2081 3097 
Q 1800 3097 1504 3025 
Q 1209 2953 897 2809 
L 997 3341 
Q 1322 3463 1633 3523 
Q 1944 3584 2234 3584 
Q 2853 3584 3176 3315 
Q 3500 3047 3500 2534 
Q 3500 2431 3484 2292 
Q 3469 2153 3438 1997 
z
M 2816 1759 
L 2241 1759 
Q 1534 1759 1195 1570 
Q 856 1381 856 984 
Q 856 709 1029 553 
Q 1203 397 1509 397 
Q 1978 397 2328 733 
Q 2678 1069 2791 1631 
L 2816 1759 
z
" transform="scale(0.015625)"/>
        <path id="DejaVuSans-2a" d="M 3009 3897 
L 1888 3291 
L 3009 2681 
L 2828 2375 
L 1778 3009 
L 1778 1831 
L 1422 1831 
L 1422 3009 
L 372 2375 
L 191 2681 
L 1313 3291 
L 191 3897 
L 372 4206 
L 1422 3572 
L 1422 4750 
L 1778 4750 
L 1778 3572 
L 2828 4206 
L 3009 3897 
z
" transform="scale(0.015625)"/>
       </defs>
       <use xlink:href="#DejaVuSans-Oblique-61" transform="translate(0 0.765625)"/>
       <use xlink:href="#DejaVuSans-2a" transform="translate(79.566888 39.046875) scale(0.7)"/>
      </g>
     </g>
    </g>
    <g id="xtick_2">
     <g id="line2d_2">
      <g>
       <use xlink:href="#m6b5fbd8e95" x="364.129822" y="512.64" style="stroke: #000000; stroke-width: 0.8"/>
      </g>
     </g>
     <g id="text_2">
      <!-- $a^{**}$ -->
      <g transform="translate(355.829822 527.238438) scale(0.1 -0.1)">
       <use xlink:href="#DejaVuSans-Oblique-61" transform="translate(0 0.765625)"/>
       <use xlink:href="#DejaVuSans-2a" transform="translate(65.929193 39.046875) scale(0.7)"/>
       <use xlink:href="#DejaVuSans-2a" transform="translate(114.566888 39.046875) scale(0.7)"/>
      </g>
     </g>
    </g>
    <g id="text_3">
     <!-- a -->
     <g transform="translate(644.935938 540.916563) scale(0.1 -0.1)">
      <defs>
       <path id="DejaVuSans-61" d="M 2194 1759 
Q 1497 1759 1228 1600 
Q 959 1441 959 1056 
Q 959 750 1161 570 
Q 1363 391 1709 391 
Q 2188 391 2477 730 
Q 2766 1069 2766 1631 
L 2766 1759 
L 2194 1759 
z
M 3341 1997 
L 3341 0 
L 2766 0 
L 2766 531 
Q 2569 213 2275 61 
Q 1981 -91 1556 -91 
Q 1019 -91 701 211 
Q 384 513 384 1019 
Q 384 1609 779 1909 
Q 1175 2209 1959 2209 
L 2766 2209 
L 2766 2266 
Q 2766 2663 2505 2880 
Q 2244 3097 1772 3097 
Q 1472 3097 1187 3025 
Q 903 2953 641 2809 
L 641 3341 
Q 956 3463 1253 3523 
Q 1550 3584 1831 3584 
Q 2591 3584 2966 3190 
Q 3341 2797 3341 1997 
z
" transform="scale(0.015625)"/>
      </defs>
      <use xlink:href="#DejaVuSans-61"/>
     </g>
    </g>
   </g>
   <g id="matplotlib.axis_2">
    <g id="ytick_1">
     <g id="line2d_3">
      <defs>
       <path id="ma039fbe624" d="M 0 0 
L -3.5 0 
" style="stroke: #000000; stroke-width: 0.8"/>
      </defs>
      <g>
       <use xlink:href="#ma039fbe624" x="90" y="512.64" style="stroke: #000000; stroke-width: 0.8"/>
      </g>
     </g>
     <g id="text_4">
      <!-- 0.0 -->
      <g transform="translate(67.096875 516.439219) scale(0.1 -0.1)">
       <defs>
        <path id="DejaVuSans-30" d="M 2034 4250 
Q 1547 4250 1301 3770 
Q 1056 3291 1056 2328 
Q 1056 1369 1301 889 
Q 1547 409 2034 409 
Q 2525 409 2770 889 
Q 3016 1369 3016 2328 
Q 3016 3291 2770 3770 
Q 2525 4250 2034 4250 
z
M 2034 4750 
Q 2819 4750 3233 4129 
Q 3647 3509 3647 2328 
Q 3647 1150 3233 529 
Q 2819 -91 2034 -91 
Q 1250 -91 836 529 
Q 422 1150 422 2328 
Q 422 3509 836 4129 
Q 1250 4750 2034 4750 
z
" transform="scale(0.015625)"/>
        <path id="DejaVuSans-2e" d="M 684 794 
L 1344 794 
L 1344 0 
L 684 0 
L 684 794 
z
" transform="scale(0.015625)"/>
       </defs>
       <use xlink:href="#DejaVuSans-30"/>
       <use xlink:href="#DejaVuSans-2e" transform="translate(63.623047 0)"/>
       <use xlink:href="#DejaVuSans-30" transform="translate(95.410156 0)"/>
      </g>
     </g>
    </g>
    <g id="ytick_2">
     <g id="line2d_4">
      <g>
       <use xlink:href="#ma039fbe624" x="90" y="453.504" style="stroke: #000000; stroke-width: 0.8"/>
      </g>
     </g>
     <g id="text_5">
      <!-- 0.2 -->
      <g transform="translate(67.096875 457.303219) scale(0.1 -0.1)">
       <defs>
        <path id="DejaVuSans-32" d="M 1228 531 
L 3431 531 
L 3431 0 
L 469 0 
L 469 531 
Q 828 903 1448 1529 
Q 2069 2156 2228 2338 
Q 2531 2678 2651 2914 
Q 2772 3150 2772 3378 
Q 2772 3750 2511 3984 
Q 2250 4219 1831 4219 
Q 1534 4219 1204 4116 
Q 875 4013 500 3803 
L 500 4441 
Q 881 4594 1212 4672 
Q 1544 4750 1819 4750 
Q 2544 4750 2975 4387 
Q 3406 4025 3406 3419 
Q 3406 3131 3298 2873 
Q 3191 2616 2906 2266 
Q 2828 2175 2409 1742 
Q 1991 1309 1228 531 
z
" transform="scale(0.015625)"/>
       </defs>
       <use xlink:href="#DejaVuSans-30"/>
       <use xlink:href="#DejaVuSans-2e" transform="translate(63.623047 0)"/>
       <use xlink:href="#DejaVuSans-32" transform="translate(95.410156 0)"/>
      </g>
     </g>
    </g>
    <g id="ytick_3">
     <g id="line2d_5">
      <g>
       <use xlink:href="#ma039fbe624" x="90" y="394.368" style="stroke: #000000; stroke-width: 0.8"/>
      </g>
     </g>
     <g id="text_6">
      <!-- 0.4 -->
      <g transform="translate(67.096875 398.167219) scale(0.1 -0.1)">
       <defs>
        <path id="DejaVuSans-34" d="M 2419 4116 
L 825 1625 
L 2419 1625 
L 2419 4116 
z
M 2253 4666 
L 3047 4666 
L 3047 1625 
L 3713 1625 
L 3713 1100 
L 3047 1100 
L 3047 0 
L 2419 0 
L 2419 1100 
L 313 1100 
L 313 1709 
L 2253 4666 
z
" transform="scale(0.015625)"/>
       </defs>
       <use xlink:href="#DejaVuSans-30"/>
       <use xlink:href="#DejaVuSans-2e" transform="translate(63.623047 0)"/>
       <use xlink:href="#DejaVuSans-34" transform="translate(95.410156 0)"/>
      </g>
     </g>
    </g>
    <g id="ytick_4">
     <g id="line2d_6">
      <g>
       <use xlink:href="#ma039fbe624" x="90" y="335.232" style="stroke: #000000; stroke-width: 0.8"/>
      </g>
     </g>
     <g id="text_7">
      <!-- 0.6 -->
      <g transform="translate(67.096875 339.031219) scale(0.1 -0.1)">
       <defs>
        <path id="DejaVuSans-36" d="M 2113 2584 
Q 1688 2584 1439 2293 
Q 1191 2003 1191 1497 
Q 1191 994 1439 701 
Q 1688 409 2113 409 
Q 2538 409 2786 701 
Q 3034 994 3034 1497 
Q 3034 2003 2786 2293 
Q 2538 2584 2113 2584 
z
M 3366 4563 
L 3366 3988 
Q 3128 4100 2886 4159 
Q 2644 4219 2406 4219 
Q 1781 4219 1451 3797 
Q 1122 3375 1075 2522 
Q 1259 2794 1537 2939 
Q 1816 3084 2150 3084 
Q 2853 3084 3261 2657 
Q 3669 2231 3669 1497 
Q 3669 778 3244 343 
Q 2819 -91 2113 -91 
Q 1303 -91 875 529 
Q 447 1150 447 2328 
Q 447 3434 972 4092 
Q 1497 4750 2381 4750 
Q 2619 4750 2861 4703 
Q 3103 4656 3366 4563 
z
" transform="scale(0.015625)"/>
       </defs>
       <use xlink:href="#DejaVuSans-30"/>
       <use xlink:href="#DejaVuSans-2e" transform="translate(63.623047 0)"/>
       <use xlink:href="#DejaVuSans-36" transform="translate(95.410156 0)"/>
      </g>
     </g>
    </g>
    <g id="ytick_5">
     <g id="line2d_7">
      <g>
       <use xlink:href="#ma039fbe624" x="90" y="276.096" style="stroke: #000000; stroke-width: 0.8"/>
      </g>
     </g>
     <g id="text_8">
      <!-- 0.8 -->
      <g transform="translate(67.096875 279.895219) scale(0.1 -0.1)">
       <defs>
        <path id="DejaVuSans-38" d="M 2034 2216 
Q 1584 2216 1326 1975 
Q 1069 1734 1069 1313 
Q 1069 891 1326 650 
Q 1584 409 2034 409 
Q 2484 409 2743 651 
Q 3003 894 3003 1313 
Q 3003 1734 2745 1975 
Q 2488 2216 2034 2216 
z
M 1403 2484 
Q 997 2584 770 2862 
Q 544 3141 544 3541 
Q 544 4100 942 4425 
Q 1341 4750 2034 4750 
Q 2731 4750 3128 4425 
Q 3525 4100 3525 3541 
Q 3525 3141 3298 2862 
Q 3072 2584 2669 2484 
Q 3125 2378 3379 2068 
Q 3634 1759 3634 1313 
Q 3634 634 3220 271 
Q 2806 -91 2034 -91 
Q 1263 -91 848 271 
Q 434 634 434 1313 
Q 434 1759 690 2068 
Q 947 2378 1403 2484 
z
M 1172 3481 
Q 1172 3119 1398 2916 
Q 1625 2713 2034 2713 
Q 2441 2713 2670 2916 
Q 2900 3119 2900 3481 
Q 2900 3844 2670 4047 
Q 2441 4250 2034 4250 
Q 1625 4250 1398 4047 
Q 1172 3844 1172 3481 
z
" transform="scale(0.015625)"/>
       </defs>
       <use xlink:href="#DejaVuSans-30"/>
       <use xlink:href="#DejaVuSans-2e" transform="translate(63.623047 0)"/>
       <use xlink:href="#DejaVuSans-38" transform="translate(95.410156 0)"/>
      </g>
     </g>
    </g>
    <g id="ytick_6">
     <g id="line2d_8">
      <g>
       <use xlink:href="#ma039fbe624" x="90" y="216.96" style="stroke: #000000; stroke-width: 0.8"/>
      </g>
     </g>
     <g id="text_9">
      <!-- 1.0 -->
      <g transform="translate(67.096875 220.759219) scale(0.1 -0.1)">
       <defs>
        <path id="DejaVuSans-31" d="M 794 531 
L 1825 531 
L 1825 4091 
L 703 3866 
L 703 4441 
L 1819 4666 
L 2450 4666 
L 2450 531 
L 3481 531 
L 3481 0 
L 794 0 
L 794 531 
z
" transform="scale(0.015625)"/>
       </defs>
       <use xlink:href="#DejaVuSans-31"/>
       <use xlink:href="#DejaVuSans-2e" transform="translate(63.623047 0)"/>
       <use xlink:href="#DejaVuSans-30" transform="translate(95.410156 0)"/>
      </g>
     </g>
    </g>
    <g id="ytick_7">
     <g id="line2d_9">
      <g>
       <use xlink:href="#ma039fbe624" x="90" y="157.824" style="stroke: #000000; stroke-width: 0.8"/>
      </g>
     </g>
     <g id="text_10">
      <!-- 1.2 -->
      <g transform="translate(67.096875 161.623219) scale(0.1 -0.1)">
       <use xlink:href="#DejaVuSans-31"/>
       <use xlink:href="#DejaVuSans-2e" transform="translate(63.623047 0)"/>
       <use xlink:href="#DejaVuSans-32" transform="translate(95.410156 0)"/>
      </g>
     </g>
    </g>
    <g id="ytick_8">
     <g id="line2d_10">
      <g>
       <use xlink:href="#ma039fbe624" x="90" y="98.688" style="stroke: #000000; stroke-width: 0.8"/>
      </g>
     </g>
     <g id="text_11">
      <!-- 1.4 -->
      <g transform="translate(67.096875 102.487219) scale(0.1 -0.1)">
       <use xlink:href="#DejaVuSans-31"/>
       <use xlink:href="#DejaVuSans-2e" transform="translate(63.623047 0)"/>
       <use xlink:href="#DejaVuSans-34" transform="translate(95.410156 0)"/>
      </g>
     </g>
    </g>
   </g>
   <g id="line2d_11">
    <path d="M 115.363636 187.646754 
L 125.716141 203.831397 
L 136.068646 218.760935 
L 146.42115 232.555119 
L 156.773655 245.330948 
L 167.12616 257.209884 
L 177.478664 268.280085 
L 187.831169 278.583896 
L 198.183673 288.179083 
L 208.536178 297.160009 
L 218.888683 305.613525 
L 229.241187 313.565032 
L 239.593692 321.020283 
L 249.946197 328.005124 
L 260.298701 334.57546 
L 270.651206 340.78859 
L 281.003711 346.679867 
L 291.356215 352.264062 
L 301.70872 357.555195 
L 312.061224 362.568969 
L 322.413729 367.32322 
L 332.766234 371.83592 
L 343.118738 376.124689 
L 353.471243 380.20557 
L 363.823748 384.094162 
L 374.176252 387.80606 
L 384.528757 391.354954 
L 394.881262 394.749347 
L 405.233766 397.996866 
L 415.586271 401.10514 
L 425.938776 404.081663 
L 436.29128 406.933116 
L 446.643785 409.665874 
L 456.996289 412.286309 
L 467.348794 414.800794 
L 477.701299 417.215451 
L 488.053803 419.535612 
L 498.406308 421.766461 
L 508.758813 423.913181 
L 519.111317 425.980954 
L 529.463822 427.97482 
L 539.816327 429.898458 
L 550.168831 431.754799 
L 560.521336 433.546766 
L 570.87384 435.277282 
L 581.226345 436.949269 
L 591.57885 438.565604 
L 601.931354 440.128647 
L 612.283859 441.64044 
L 622.636364 443.10302 
" clip-path="url(#pc78927a622)" style="fill: none; stroke: #1f77b4; stroke-width: 1.5; stroke-linecap: square"/>
   </g>
   <g id="line2d_12">
    <path d="M 115.363636 356.58258 
L 125.716141 360.852228 
L 136.068646 364.949045 
L 146.42115 368.882191 
L 156.773655 372.660303 
L 167.12616 376.291397 
L 177.478664 379.783031 
L 187.831169 383.142216 
L 198.183673 386.375631 
L 208.536178 389.489386 
L 218.888683 392.489422 
L 229.241187 395.381116 
L 239.593692 398.169657 
L 249.946197 400.859942 
L 260.298701 403.456427 
L 270.651206 405.963515 
L 281.003711 408.385263 
L 291.356215 410.725405 
L 301.70872 412.987653 
L 312.061224 415.17546 
L 322.413729 417.291942 
L 332.766234 419.340195 
L 343.118738 421.323234 
L 353.471243 423.243707 
L 363.823748 425.104159 
L 374.176252 426.907133 
L 384.528757 428.655059 
L 394.881262 430.350053 
L 405.233766 431.994178 
L 415.586271 433.589499 
L 425.938776 435.138034 
L 436.29128 436.641533 
L 446.643785 438.101646 
L 456.996289 439.520022 
L 467.348794 440.898311 
L 477.701299 442.238085 
L 488.053803 443.540688 
L 498.406308 444.807417 
L 508.758813 446.039569 
L 519.111317 447.238441 
L 529.463822 448.405314 
L 539.816327 449.541288 
L 550.168831 450.647368 
L 560.521336 451.724558 
L 570.87384 452.773862 
L 581.226345 453.796284 
L 591.57885 454.792814 
L 601.931354 455.764302 
L 612.283859 456.711514 
L 622.636364 457.63521 
" clip-path="url(#pc78927a622)" style="fill: none; stroke: #ff7f0e; stroke-width: 1.5; stroke-linecap: square"/>
   </g>
   <g id="line2d_13">
    <path d="M 115.363636 461.306667 
L 125.716141 459.698409 
L 136.068646 458.01337 
L 146.42115 456.246585 
L 156.773655 454.392678 
L 167.12616 452.445826 
L 177.478664 450.39971 
L 187.831169 448.247467 
L 198.183673 445.981626 
L 208.536178 443.594052 
L 218.888683 441.075864 
L 229.241187 438.41736 
L 239.593692 435.607917 
L 249.946197 432.635889 
L 260.298701 429.488485 
L 270.651206 426.15163 
L 281.003711 422.609808 
L 291.356215 418.845882 
L 301.70872 414.840886 
L 312.061224 410.573785 
L 322.413729 406.0212 
L 332.766234 401.157082 
L 343.118738 395.952347 
L 353.471243 390.374433 
L 363.823748 384.386792 
L 374.176252 377.94829 
L 384.528757 371.012498 
L 394.881262 363.526856 
L 405.233766 355.431667 
L 415.586271 346.65891 
L 425.938776 337.130803 
L 436.29128 326.758076 
L 446.643785 315.437867 
L 456.996289 303.051167 
L 467.348794 289.459677 
L 477.701299 274.501933 
L 488.053803 257.988485 
L 498.406308 239.695871 
L 508.758813 219.359016 
L 519.111317 196.661578 
L 529.463822 171.223564 
L 539.816327 142.585331 
L 550.168831 110.186667 
L 560.521336 73.339191 
L 570.87384 31.189479 
L 577.741933 -1 
" clip-path="url(#pc78927a622)" style="fill: none; stroke: #2ca02c; stroke-width: 1.5; stroke-linecap: square"/>
   </g>
   <g id="line2d_14">
    <path d="M 304.713826 499.806667 
L 304.713826 413.630228 
" clip-path="url(#pc78927a622)" style="fill: none; stroke-dasharray: 5.55,2.4; stroke-dashoffset: 0; stroke: #000000; stroke-width: 1.5"/>
   </g>
   <g id="line2d_15">
    <path d="M 364.129822 499.806667 
L 364.129822 384.203119 
" clip-path="url(#pc78927a622)" style="fill: none; stroke-dasharray: 5.55,2.4; stroke-dashoffset: 0; stroke: #000000; stroke-width: 1.5"/>
   </g>
   <g id="patch_3">
    <path d="M 90 512.64 
L 90 69.12 
" style="fill: none; stroke: #000000; stroke-width: 0.8; stroke-linejoin: miter; stroke-linecap: square"/>
   </g>
   <g id="patch_4">
    <path d="M 648 512.64 
L 648 69.12 
" style="fill: none; stroke: #000000; stroke-width: 0.8; stroke-linejoin: miter; stroke-linecap: square"/>
   </g>
   <g id="patch_5">
    <path d="M 90 512.64 
L 648 512.64 
" style="fill: none; stroke: #000000; stroke-width: 0.8; stroke-linejoin: miter; stroke-linecap: square"/>
   </g>
   <g id="patch_6">
    <path d="M 90 69.12 
L 648 69.12 
" style="fill: none; stroke: #000000; stroke-width: 0.8; stroke-linejoin: miter; stroke-linecap: square"/>
   </g>
   <g id="legend_1">
    <g id="patch_7">
     <path d="M 97 123.598125 
L 274.3 123.598125 
Q 276.3 123.598125 276.3 121.598125 
L 276.3 76.12 
Q 276.3 74.12 274.3 74.12 
L 97 74.12 
Q 95 74.12 95 76.12 
L 95 121.598125 
Q 95 123.598125 97 123.598125 
z
" style="fill: #ffffff; opacity: 0.8; stroke: #cccccc; stroke-linejoin: miter"/>
    </g>
    <g id="line2d_16">
     <path d="M 99 82.72 
L 109 82.72 
L 119 82.72 
" style="fill: none; stroke: #1f77b4; stroke-width: 1.5; stroke-linecap: square"/>
    </g>
    <g id="text_12">
     <!-- $\omega_t'(a) = R \beta E_t [v_{t+1}'(aR + \tilde{y}_{t+1})]$ -->
     <g transform="translate(127 86.22) scale(0.1 -0.1)">
      <defs>
       <path id="DejaVuSans-Oblique-3c9" d="M 1369 -91 
Q 72 -91 434 1766 
Q 575 2500 1256 3500 
L 1875 3500 
Q 1231 2500 1088 1750 
Q 819 397 1519 397 
Q 2166 397 2478 2078 
L 3009 2078 
Q 2669 388 3316 397 
Q 4013 403 4275 1750 
Q 4419 2500 4169 3500 
L 4788 3500 
Q 5075 2500 4934 1766 
Q 4578 -94 3278 -91 
Q 2428 -88 2503 844 
Q 2194 -91 1369 -91 
z
" transform="scale(0.015625)"/>
       <path id="Cmsy10-30" d="M 225 347 
Q 184 359 184 409 
L 966 3316 
Q 1003 3434 1093 3506 
Q 1184 3578 1300 3578 
Q 1450 3578 1564 3479 
Q 1678 3381 1678 3231 
Q 1678 3166 1644 3084 
L 488 319 
Q 466 275 428 275 
Q 394 275 320 306 
Q 247 338 225 347 
z
" transform="scale(0.015625)"/>
       <path id="DejaVuSans-Oblique-74" d="M 2706 3500 
L 2619 3053 
L 1472 3053 
L 1100 1153 
Q 1081 1047 1072 975 
Q 1063 903 1063 863 
Q 1063 663 1183 572 
Q 1303 481 1569 481 
L 2150 481 
L 2053 0 
L 1503 0 
Q 991 0 739 200 
Q 488 400 488 806 
Q 488 878 497 964 
Q 506 1050 525 1153 
L 897 3053 
L 409 3053 
L 500 3500 
L 978 3500 
L 1172 4494 
L 1747 4494 
L 1556 3500 
L 2706 3500 
z
" transform="scale(0.015625)"/>
       <path id="DejaVuSans-28" d="M 1984 4856 
Q 1566 4138 1362 3434 
Q 1159 2731 1159 2009 
Q 1159 1288 1364 580 
Q 1569 -128 1984 -844 
L 1484 -844 
Q 1016 -109 783 600 
Q 550 1309 550 2009 
Q 550 2706 781 3412 
Q 1013 4119 1484 4856 
L 1984 4856 
z
" transform="scale(0.015625)"/>
       <path id="DejaVuSans-29" d="M 513 4856 
L 1013 4856 
Q 1481 4119 1714 3412 
Q 1947 2706 1947 2009 
Q 1947 1309 1714 600 
Q 1481 -109 1013 -844 
L 513 -844 
Q 928 -128 1133 580 
Q 1338 1288 1338 2009 
Q 1338 2731 1133 3434 
Q 928 4138 513 4856 
z
" transform="scale(0.015625)"/>
       <path id="DejaVuSans-3d" d="M 678 2906 
L 4684 2906 
L 4684 2381 
L 678 2381 
L 678 2906 
z
M 678 1631 
L 4684 1631 
L 4684 1100 
L 678 1100 
L 678 1631 
z
" transform="scale(0.015625)"/>
       <path id="DejaVuSans-Oblique-52" d="M 1613 4147 
L 1294 2491 
L 2106 2491 
Q 2584 2491 2879 2755 
Q 3175 3019 3175 3444 
Q 3175 3784 2976 3965 
Q 2778 4147 2406 4147 
L 1613 4147 
z
M 2772 2241 
Q 2972 2194 3105 2009 
Q 3238 1825 3413 1275 
L 3809 0 
L 3144 0 
L 2778 1197 
Q 2638 1659 2453 1815 
Q 2269 1972 1888 1972 
L 1191 1972 
L 806 0 
L 172 0 
L 1081 4666 
L 2503 4666 
Q 3150 4666 3495 4373 
Q 3841 4081 3841 3531 
Q 3841 3044 3547 2687 
Q 3253 2331 2772 2241 
z
" transform="scale(0.015625)"/>
       <path id="DejaVuSans-Oblique-3b2" d="M 872 216 
L 572 -1331 
L -6 -1331 
L 928 3478 
Q 1206 4903 2538 4903 
Q 3888 4903 3659 3700 
Q 3503 2844 2894 2531 
Q 3713 2250 3553 1416 
Q 3272 -69 1759 -66 
Q 1097 -63 872 216 
z
M 1019 966 
Q 1259 422 1875 425 
Q 2775 425 2966 1406 
Q 3138 2288 1675 2219 
L 1778 2750 
Q 2909 2731 3106 3750 
Q 3241 4438 2509 4434 
Q 1691 4434 1503 3459 
L 1019 966 
z
" transform="scale(0.015625)"/>
       <path id="DejaVuSans-Oblique-45" d="M 1081 4666 
L 4031 4666 
L 3928 4134 
L 1606 4134 
L 1338 2753 
L 3566 2753 
L 3463 2222 
L 1234 2222 
L 909 531 
L 3284 531 
L 3181 0 
L 172 0 
L 1081 4666 
z
" transform="scale(0.015625)"/>
       <path id="DejaVuSans-5b" d="M 550 4863 
L 1875 4863 
L 1875 4416 
L 1125 4416 
L 1125 -397 
L 1875 -397 
L 1875 -844 
L 550 -844 
L 550 4863 
z
" transform="scale(0.015625)"/>
       <path id="DejaVuSans-Oblique-76" d="M 459 3500 
L 1069 3500 
L 1581 525 
L 3256 3500 
L 3866 3500 
L 1875 0 
L 1100 0 
L 459 3500 
z
" transform="scale(0.015625)"/>
       <path id="DejaVuSans-2b" d="M 2944 4013 
L 2944 2272 
L 4684 2272 
L 4684 1741 
L 2944 1741 
L 2944 0 
L 2419 0 
L 2419 1741 
L 678 1741 
L 678 2272 
L 2419 2272 
L 2419 4013 
L 2944 4013 
z
" transform="scale(0.015625)"/>
       <path id="DejaVuSans-303" d="M -1621 4281 
L -1799 4453 
Q -1867 4516 -1919 4545 
Q -1971 4575 -2011 4575 
Q -2130 4575 -2186 4461 
Q -2242 4347 -2249 4091 
L -2639 4091 
Q -2633 4513 -2473 4742 
Q -2314 4972 -2030 4972 
Q -1911 4972 -1811 4928 
Q -1711 4884 -1596 4781 
L -1417 4609 
Q -1349 4547 -1297 4517 
Q -1246 4488 -1205 4488 
Q -1086 4488 -1030 4602 
Q -974 4716 -967 4972 
L -577 4972 
Q -583 4550 -742 4320 
Q -902 4091 -1186 4091 
Q -1305 4091 -1405 4134 
Q -1505 4178 -1621 4281 
z
" transform="scale(0.015625)"/>
       <path id="DejaVuSans-Oblique-79" d="M 1588 -325 
Q 1188 -997 936 -1164 
Q 684 -1331 294 -1331 
L -159 -1331 
L -63 -850 
L 269 -850 
Q 509 -850 678 -719 
Q 847 -588 1056 -206 
L 1234 128 
L 459 3500 
L 1069 3500 
L 1650 819 
L 3256 3500 
L 3859 3500 
L 1588 -325 
z
" transform="scale(0.015625)"/>
       <path id="DejaVuSans-5d" d="M 1947 4863 
L 1947 -844 
L 622 -844 
L 622 -397 
L 1369 -397 
L 1369 4416 
L 622 4416 
L 622 4863 
L 1947 4863 
z
" transform="scale(0.015625)"/>
      </defs>
      <use xlink:href="#DejaVuSans-Oblique-3c9" transform="translate(0 0.046875)"/>
      <use xlink:href="#Cmsy10-30" transform="translate(88.20638 38.328125) scale(0.7)"/>
      <use xlink:href="#DejaVuSans-Oblique-74" transform="translate(83.740234 -27.296875) scale(0.7)"/>
      <use xlink:href="#DejaVuSans-28" transform="translate(113.920898 0.046875)"/>
      <use xlink:href="#DejaVuSans-Oblique-61" transform="translate(152.93457 0.046875)"/>
      <use xlink:href="#DejaVuSans-29" transform="translate(214.213867 0.046875)"/>
      <use xlink:href="#DejaVuSans-3d" transform="translate(272.709961 0.046875)"/>
      <use xlink:href="#DejaVuSans-Oblique-52" transform="translate(375.981445 0.046875)"/>
      <use xlink:href="#DejaVuSans-Oblique-3b2" transform="translate(445.463867 0.046875)"/>
      <use xlink:href="#DejaVuSans-Oblique-45" transform="translate(509.282227 0.046875)"/>
      <use xlink:href="#DejaVuSans-Oblique-74" transform="translate(572.46582 -16.359375) scale(0.7)"/>
      <use xlink:href="#DejaVuSans-5b" transform="translate(602.646484 0.046875)"/>
      <use xlink:href="#DejaVuSans-Oblique-76" transform="translate(641.660156 0.046875)"/>
      <use xlink:href="#Cmsy10-30" transform="translate(705.30599 38.328125) scale(0.7)"/>
      <use xlink:href="#DejaVuSans-Oblique-74" transform="translate(700.839844 -27.296875) scale(0.7)"/>
      <use xlink:href="#DejaVuSans-2b" transform="translate(741.923828 -27.296875) scale(0.7)"/>
      <use xlink:href="#DejaVuSans-31" transform="translate(814.213867 -27.296875) scale(0.7)"/>
      <use xlink:href="#DejaVuSans-28" transform="translate(861.484375 0.046875)"/>
      <use xlink:href="#DejaVuSans-Oblique-61" transform="translate(900.498047 0.046875)"/>
      <use xlink:href="#DejaVuSans-Oblique-52" transform="translate(961.777344 0.046875)"/>
      <use xlink:href="#DejaVuSans-2b" transform="translate(1050.742188 0.046875)"/>
      <use xlink:href="#DejaVuSans-303" transform="translate(1216.042969 3.3125)"/>
      <use xlink:href="#DejaVuSans-Oblique-79" transform="translate(1154.013672 0.046875)"/>
      <use xlink:href="#DejaVuSans-Oblique-74" transform="translate(1214.150391 -16.359375) scale(0.7)"/>
      <use xlink:href="#DejaVuSans-2b" transform="translate(1255.234375 -16.359375) scale(0.7)"/>
      <use xlink:href="#DejaVuSans-31" transform="translate(1327.524414 -16.359375) scale(0.7)"/>
      <use xlink:href="#DejaVuSans-29" transform="translate(1374.794922 0.046875)"/>
      <use xlink:href="#DejaVuSans-5d" transform="translate(1413.808594 0.046875)"/>
     </g>
    </g>
    <g id="line2d_17">
     <path d="M 99 98.62 
L 109 98.62 
L 119 98.62 
" style="fill: none; stroke: #ff7f0e; stroke-width: 1.5; stroke-linecap: square"/>
    </g>
    <g id="text_13">
     <!-- $R \beta v_{t+1}'(aR + E_t[\tilde{y}_{t+1}])$ -->
     <g transform="translate(127 102.12) scale(0.1 -0.1)">
      <use xlink:href="#DejaVuSans-Oblique-52" transform="translate(0 0.046875)"/>
      <use xlink:href="#DejaVuSans-Oblique-3b2" transform="translate(69.482422 0.046875)"/>
      <use xlink:href="#DejaVuSans-Oblique-76" transform="translate(133.300781 0.046875)"/>
      <use xlink:href="#Cmsy10-30" transform="translate(196.946615 38.328125) scale(0.7)"/>
      <use xlink:href="#DejaVuSans-Oblique-74" transform="translate(192.480469 -27.296875) scale(0.7)"/>
      <use xlink:href="#DejaVuSans-2b" transform="translate(233.564453 -27.296875) scale(0.7)"/>
      <use xlink:href="#DejaVuSans-31" transform="translate(305.854492 -27.296875) scale(0.7)"/>
      <use xlink:href="#DejaVuSans-28" transform="translate(353.125 0.046875)"/>
      <use xlink:href="#DejaVuSans-Oblique-61" transform="translate(392.138672 0.046875)"/>
      <use xlink:href="#DejaVuSans-Oblique-52" transform="translate(453.417969 0.046875)"/>
      <use xlink:href="#DejaVuSans-2b" transform="translate(542.382812 0.046875)"/>
      <use xlink:href="#DejaVuSans-Oblique-45" transform="translate(645.654297 0.046875)"/>
      <use xlink:href="#DejaVuSans-Oblique-74" transform="translate(708.837891 -16.359375) scale(0.7)"/>
      <use xlink:href="#DejaVuSans-5b" transform="translate(739.018555 0.046875)"/>
      <use xlink:href="#DejaVuSans-303" transform="translate(840.061523 3.3125)"/>
      <use xlink:href="#DejaVuSans-Oblique-79" transform="translate(778.032227 0.046875)"/>
      <use xlink:href="#DejaVuSans-Oblique-74" transform="translate(838.168945 -16.359375) scale(0.7)"/>
      <use xlink:href="#DejaVuSans-2b" transform="translate(879.25293 -16.359375) scale(0.7)"/>
      <use xlink:href="#DejaVuSans-31" transform="translate(951.542969 -16.359375) scale(0.7)"/>
      <use xlink:href="#DejaVuSans-5d" transform="translate(998.813477 0.046875)"/>
      <use xlink:href="#DejaVuSans-29" transform="translate(1037.827148 0.046875)"/>
     </g>
    </g>
    <g id="line2d_18">
     <path d="M 99 114.018437 
L 109 114.018437 
L 119 114.018437 
" style="fill: none; stroke: #2ca02c; stroke-width: 1.5; stroke-linecap: square"/>
    </g>
    <g id="text_14">
     <!-- $u'(m_t-a)$ -->
     <g transform="translate(127 117.518437) scale(0.1 -0.1)">
      <defs>
       <path id="DejaVuSans-Oblique-75" d="M 428 1388 
L 838 3500 
L 1416 3500 
L 1006 1409 
Q 975 1256 961 1147 
Q 947 1038 947 966 
Q 947 700 1109 554 
Q 1272 409 1569 409 
Q 2031 409 2368 721 
Q 2706 1034 2809 1563 
L 3194 3500 
L 3769 3500 
L 3091 0 
L 2516 0 
L 2631 550 
Q 2388 244 2052 76 
Q 1716 -91 1338 -91 
Q 878 -91 622 161 
Q 366 413 366 863 
Q 366 956 381 1097 
Q 397 1238 428 1388 
z
" transform="scale(0.015625)"/>
       <path id="DejaVuSans-Oblique-6d" d="M 5747 2113 
L 5338 0 
L 4763 0 
L 5166 2094 
Q 5191 2228 5203 2325 
Q 5216 2422 5216 2491 
Q 5216 2772 5059 2928 
Q 4903 3084 4622 3084 
Q 4203 3084 3875 2770 
Q 3547 2456 3450 1953 
L 3066 0 
L 2491 0 
L 2900 2094 
Q 2925 2209 2937 2307 
Q 2950 2406 2950 2484 
Q 2950 2769 2794 2926 
Q 2638 3084 2363 3084 
Q 1938 3084 1609 2770 
Q 1281 2456 1184 1953 
L 800 0 
L 225 0 
L 909 3500 
L 1484 3500 
L 1375 2956 
Q 1609 3263 1923 3423 
Q 2238 3584 2597 3584 
Q 2978 3584 3223 3384 
Q 3469 3184 3519 2828 
Q 3781 3197 4126 3390 
Q 4472 3584 4856 3584 
Q 5306 3584 5551 3325 
Q 5797 3066 5797 2591 
Q 5797 2488 5784 2364 
Q 5772 2241 5747 2113 
z
" transform="scale(0.015625)"/>
       <path id="DejaVuSans-2212" d="M 678 2272 
L 4684 2272 
L 4684 1741 
L 678 1741 
L 678 2272 
z
" transform="scale(0.015625)"/>
      </defs>
      <use xlink:href="#DejaVuSans-Oblique-75" transform="translate(0 0.584375)"/>
      <use xlink:href="#Cmsy10-30" transform="translate(67.845052 38.865625) scale(0.7)"/>
      <use xlink:href="#DejaVuSans-28" transform="translate(89.822591 0.584375)"/>
      <use xlink:href="#DejaVuSans-Oblique-6d" transform="translate(128.836263 0.584375)"/>
      <use xlink:href="#DejaVuSans-Oblique-74" transform="translate(226.248372 -15.821875) scale(0.7)"/>
      <use xlink:href="#DejaVuSans-2212" transform="translate(275.911458 0.584375)"/>
      <use xlink:href="#DejaVuSans-Oblique-61" transform="translate(379.182943 0.584375)"/>
      <use xlink:href="#DejaVuSans-29" transform="translate(440.46224 0.584375)"/>
     </g>
    </g>
   </g>
  </g>
 </g>
 <defs>
  <clipPath id="pc78927a622">
   <rect x="90" y="69.12" width="558" height="443.52"/>
  </clipPath>
 </defs>
</svg>
