<?xml version="1.0" encoding="utf-8" standalone="no"?>
<!DOCTYPE svg PUBLIC "-//W3C//DTD SVG 1.1//EN"
  "http://www.w3.org/Graphics/SVG/1.1/DTD/svg11.dtd">
<svg xmlns:xlink="http://www.w3.org/1999/xlink" width="460.8pt" height="345.6pt" viewBox="0 0 460.8 345.6" xmlns="http://www.w3.org/2000/svg" version="1.1">
 <metadata>
  <rdf:RDF xmlns:dc="http://purl.org/dc/elements/1.1/" xmlns:cc="http://creativecommons.org/ns#" xmlns:rdf="http://www.w3.org/1999/02/22-rdf-syntax-ns#">
   <cc:Work>
    <dc:type rdf:resource="http://purl.org/dc/dcmitype/StillImage"/>
    <dc:format>image/svg+xml</dc:format>
    <dc:creator>
     <cc:Agent>
      <dc:title>Matplotlib v3.10.6, https://matplotlib.org/</dc:title>
     </cc:Agent>
    </dc:creator>
   </cc:Work>
  </rdf:RDF>
 </metadata>
 <defs>
  <style type="text/css">*{stroke-linejoin: round; stroke-linecap: butt}</style>
 </defs>
 <g id="figure_1">
  <g id="patch_1">
   <path d="M 0 345.6 
L 460.8 345.6 
L 460.8 0 
L 0 0 
z
" style="fill: #ffffff"/>
  </g>
  <g id="axes_1">
   <g id="patch_2">
    <path d="M 57.6 307.584 
L 414.72 307.584 
L 414.72 41.472 
L 57.6 41.472 
z
" style="fill: #ffffff"/>
   </g>
   <g id="Quiver_1">
    <path d="M 71.297126 291.500941 
L 73.16364 283.21032 
L 71.225549 283.689133 
L 75.799476 275.567421 
L 76.451544 284.865691 
L 74.905639 283.602506 
L 73.039124 291.893127 
L 71.297126 291.500941 
" clip-path="url(#p161c50feb5)" style="fill: #471365; fill-opacity: 0.3"/>
    <path d="M 95.215862 282.754254 
L 103.713981 282.739014 
L 102.817981 280.955018 
L 111.75077 283.617402 
L 102.827587 286.311809 
L 103.717184 284.524611 
L 95.219064 284.539852 
L 95.215862 282.754254 
" clip-path="url(#p161c50feb5)" style="fill: #481d6f; fill-opacity: 0.3"/>
    <path d="M 124.721316 282.707138 
L 133.219385 282.740339 
L 132.333568 280.951264 
L 141.251036 283.664523 
L 132.31264 286.308023 
L 133.212409 284.525925 
L 124.71434 284.492725 
L 124.721316 282.707138 
" clip-path="url(#p161c50feb5)" style="fill: #481f70; fill-opacity: 0.3"/>
    <path d="M 154.223929 282.68685 
L 162.72189 282.740918 
L 161.840469 280.949674 
L 170.751247 283.684823 
L 161.806387 286.306366 
L 162.710529 284.526482 
L 154.212568 284.472414 
L 154.223929 282.68685 
" clip-path="url(#p161c50feb5)" style="fill: #481d6f; fill-opacity: 0.3"/>
    <path d="M 183.72615 282.670345 
L 192.223986 282.741394 
L 191.346146 280.948392 
L 200.251441 283.701341 
L 191.30136 286.305005 
L 192.209058 284.526931 
L 183.711221 284.455882 
L 183.72615 282.670345 
" clip-path="url(#p161c50feb5)" style="fill: #481b6d; fill-opacity: 0.3"/>
    <path d="M 213.22863 282.651935 
L 221.726287 282.741929 
L 220.852446 280.946974 
L 229.751582 283.71977 
L 220.795719 286.303474 
L 221.707378 284.527429 
L 213.209721 284.437435 
L 213.22863 282.651935 
" clip-path="url(#p161c50feb5)" style="fill: #48186a; fill-opacity: 0.3"/>
    <path d="M 242.731922 282.627189 
L 251.22927 282.742655 
L 250.360814 280.945089 
L 259.251598 283.744548 
L 250.28803 286.301395 
L 251.205009 284.52809 
L 242.70766 284.412625 
L 242.731922 282.627189 
" clip-path="url(#p161c50feb5)" style="fill: #481467; fill-opacity: 0.3"/>
    <path d="M 272.237051 282.588417 
L 280.733763 282.743809 
L 279.873763 280.942182 
L 288.751295 283.783387 
L 279.775812 286.298087 
L 280.701113 284.529111 
L 272.2044 284.373719 
L 272.237051 282.588417 
" clip-path="url(#p161c50feb5)" style="fill: #471063; fill-opacity: 0.3"/>
    <path d="M 301.747026 282.514728 
L 310.24201 282.746059 
L 309.398147 280.936818 
L 318.249929 283.857258 
L 309.252328 286.291632 
L 310.193403 284.530997 
L 301.698419 284.299666 
L 301.747026 282.514728 
" clip-path="url(#p161c50feb5)" style="fill: #460b5e; fill-opacity: 0.3"/>
    <path d="M 331.277343 282.312272 
L 339.764059 282.752621 
L 338.964983 280.923157 
L 347.742203 284.060582 
L 338.68741 286.272761 
L 339.671535 284.535822 
L 331.184818 284.095474 
L 331.277343 282.312272 
" clip-path="url(#p161c50feb5)" style="fill: #450559; fill-opacity: 0.3"/>
    <path d="M 361.907468 279.271527 
L 369.579835 282.925711 
L 369.541594 280.929716 
L 376.450349 287.186881 
L 367.238178 285.765994 
L 368.812029 284.537804 
L 361.139663 280.88362 
L 361.907468 279.271527 
" clip-path="url(#p161c50feb5)" style="fill: #440154; fill-opacity: 0.3"/>
    <path d="M 406.795131 283.970403 
L 398.316008 284.538504 
L 399.326178 286.260426 
L 390.239098 284.184855 
L 398.968075 280.915609 
L 398.19664 282.756898 
L 406.675763 282.188797 
L 406.795131 283.970403 
" clip-path="url(#p161c50feb5)" style="fill: #450457; fill-opacity: 0.3"/>
    <path d="M 73.850826 271.030972 
L 73.073572 262.568458 
L 71.377114 263.62083 
L 73.227717 254.48528 
L 76.711461 263.130888 
L 74.851688 262.405144 
L 75.628942 270.867658 
L 73.850826 271.030972 
" clip-path="url(#p161c50feb5)" style="fill: #472e7c; fill-opacity: 0.3"/>
    <path d="M 95.211461 261.881808 
L 103.70939 261.822915 
L 102.804237 260.043545 
L 111.750584 262.660009 
L 102.84136 265.400216 
L 103.721765 263.608472 
L 95.223835 263.667365 
L 95.211461 261.881808 
" clip-path="url(#p161c50feb5)" style="fill: #481668; fill-opacity: 0.3"/>
    <path d="M 124.731832 261.70267 
L 133.229041 261.828009 
L 132.362674 260.029435 
L 141.250199 262.839222 
L 132.283667 265.385652 
L 133.202706 263.613414 
L 124.705497 263.488076 
L 124.731832 261.70267 
" clip-path="url(#p161c50feb5)" style="fill: #481769; fill-opacity: 0.3"/>
    <path d="M 154.24228 261.623403 
L 162.737892 261.830401 
L 161.888851 260.023584 
L 170.748962 262.918657 
L 161.75837 265.378794 
L 162.694399 263.615471 
L 154.198787 263.408473 
L 154.24228 261.623403 
" clip-path="url(#p161c50feb5)" style="fill: #481668; fill-opacity: 0.3"/>
    <path d="M 183.752592 261.550554 
L 192.246041 261.832674 
L 191.413012 260.018419 
L 200.247173 262.991734 
L 191.235177 265.372266 
L 192.186763 263.61729 
L 183.693314 263.33517 
L 183.752592 261.550554 
" clip-path="url(#p161c50feb5)" style="fill: #471365; fill-opacity: 0.3"/>
    <path d="M 213.267037 261.454866 
L 221.75663 261.83577 
L 220.944762 260.011947 
L 229.743737 263.087827 
L 220.704659 265.363364 
L 221.676596 263.619575 
L 213.187003 263.238671 
L 213.267037 261.454866 
" clip-path="url(#p161c50feb5)" style="fill: #471063; fill-opacity: 0.3"/>
    <path d="M 242.79352 261.294923 
L 251.274076 261.841224 
L 250.497909 260.001924 
L 259.235262 263.248719 
L 250.153549 265.347644 
L 251.159289 263.623131 
L 242.678733 263.07683 
L 242.79352 261.294923 
" clip-path="url(#p161c50feb5)" style="fill: #460b5e; fill-opacity: 0.3"/>
    <path d="M 272.36425 260.936318 
L 280.812609 261.854742 
L 280.118015 259.983113 
L 288.704258 263.610707 
L 279.539086 265.308537 
L 280.619633 263.629884 
L 272.171274 262.711459 
L 272.36425 260.936318 
" clip-path="url(#p161c50feb5)" style="fill: #46075a; fill-opacity: 0.3"/>
    <path d="M 302.400989 259.311782 
L 310.482546 261.939844 
L 310.185711 259.965674 
L 317.847762 265.273778 
L 308.529111 265.059885 
L 309.930346 263.637914 
L 301.848789 261.009852 
L 302.400989 259.311782 
" clip-path="url(#p161c50feb5)" style="fill: #440256; fill-opacity: 0.3"/>
    <path d="M 347.603311 260.913261 
L 339.553558 263.637184 
L 340.971594 265.042401 
L 331.656143 265.367028 
L 339.254569 259.968238 
L 338.981217 261.945796 
L 347.030969 259.221873 
L 347.603311 260.913261 
" clip-path="url(#p161c50feb5)" style="fill: #440256; fill-opacity: 0.3"/>
    <path d="M 377.301637 262.686216 
L 368.856106 263.630285 
L 369.941744 265.30565 
L 360.771459 263.635653 
L 369.34665 259.982008 
L 368.657741 261.855738 
L 377.103272 260.911669 
L 377.301637 262.686216 
" clip-path="url(#p161c50feb5)" style="fill: #46075a; fill-opacity: 0.3"/>
    <path d="M 406.795131 263.055473 
L 398.316008 263.623574 
L 399.326178 265.345496 
L 390.239098 263.269925 
L 398.968075 260.000679 
L 398.19664 261.841968 
L 406.675763 261.273867 
L 406.795131 263.055473 
" clip-path="url(#p161c50feb5)" style="fill: #470d60; fill-opacity: 0.3"/>
    <path d="M 74.423227 250.105486 
L 73.065488 241.716516 
L 71.445467 242.883132 
L 72.663043 233.641891 
L 76.733456 242.02728 
L 74.828151 241.431233 
L 76.18589 249.820203 
L 74.423227 250.105486 
" clip-path="url(#p161c50feb5)" style="fill: #3f4889; fill-opacity: 0.3"/>
    <path d="M 95.202084 241.065606 
L 103.698707 240.905362 
L 102.772396 239.136914 
L 111.749313 241.646489 
L 102.873405 244.492762 
L 103.732377 242.690645 
L 95.235754 242.850888 
L 95.202084 241.065606 
" clip-path="url(#p161c50feb5)" style="fill: #470d60; fill-opacity: 0.3"/>
    <path d="M 124.757763 240.595394 
L 133.249731 240.919031 
L 132.425581 239.100725 
L 141.245102 242.117189 
L 132.221576 244.453639 
L 133.18173 242.703335 
L 124.689761 242.379699 
L 124.757763 240.595394 
" clip-path="url(#p161c50feb5)" style="fill: #470e61; fill-opacity: 0.3"/>
    <path d="M 154.293327 240.375658 
L 162.773593 240.926447 
L 161.9984 239.086736 
L 170.734033 242.338155 
L 161.65121 244.432273 
L 162.657863 242.708293 
L 154.177597 242.157504 
L 154.293327 240.375658 
" clip-path="url(#p161c50feb5)" style="fill: #470d60; fill-opacity: 0.3"/>
    <path d="M 183.842715 240.118015 
L 192.301391 240.935993 
L 191.584607 239.072748 
L 200.213346 242.598066 
L 191.068994 244.404676 
L 192.12952 242.713302 
L 183.670845 241.895325 
L 183.842715 240.118015 
" clip-path="url(#p161c50feb5)" style="fill: #460b5e; fill-opacity: 0.3"/>
    <path d="M 213.457842 239.635914 
L 221.85276 240.956377 
L 221.248255 239.053739 
L 229.651641 243.086866 
L 220.415901 244.345477 
L 221.575308 242.72029 
L 213.180391 241.399827 
L 213.457842 239.635914 
" clip-path="url(#p161c50feb5)" style="fill: #46075a; fill-opacity: 0.3"/>
    <path d="M 243.543757 238.093941 
L 251.512842 241.045543 
L 251.295804 239.061014 
L 258.737723 244.673576 
L 249.435261 244.084328 
L 250.892661 242.719981 
L 242.923576 239.768379 
L 243.543757 238.093941 
" clip-path="url(#p161c50feb5)" style="fill: #440256; fill-opacity: 0.3"/>
    <path d="M 286.503527 236.064392 
L 281.018549 242.555409 
L 282.958663 243.025959 
L 275.150429 248.116586 
L 278.86705 239.568502 
L 279.654678 241.402923 
L 285.139656 234.911907 
L 286.503527 236.064392 
" clip-path="url(#p161c50feb5)" style="fill: #440154; fill-opacity: 0.3"/>
    <path d="M 318.243141 240.822639 
L 309.960517 242.724324 
L 311.230252 244.264854 
L 301.929298 243.652256 
L 310.031524 239.0439 
L 309.560941 240.984006 
L 317.843565 239.082321 
L 318.243141 240.822639 
" clip-path="url(#p161c50feb5)" style="fill: #450559; fill-opacity: 0.3"/>
    <path d="M 347.799894 241.645224 
L 339.369648 242.717235 
L 340.480563 244.375947 
L 331.286012 242.84518 
L 339.804821 239.061939 
L 339.1444 240.945899 
L 347.574647 239.873888 
L 347.799894 241.645224 
" clip-path="url(#p161c50feb5)" style="fill: #460b5e; fill-opacity: 0.3"/>
    <path d="M 377.300037 241.968436 
L 368.834495 242.711996 
L 369.880106 244.412631 
L 360.751995 242.525676 
L 369.411402 239.076375 
L 368.678261 240.933245 
L 377.143802 240.189684 
L 377.300037 241.968436 
" clip-path="url(#p161c50feb5)" style="fill: #471063; fill-opacity: 0.3"/>
    <path d="M 406.795131 242.140543 
L 398.316008 242.708644 
L 399.326178 244.430566 
L 390.239098 242.354996 
L 398.968075 239.085749 
L 398.19664 240.927039 
L 406.675763 240.358937 
L 406.795131 242.140543 
" clip-path="url(#p161c50feb5)" style="fill: #481668; fill-opacity: 0.3"/>
    <path d="M 74.670527 229.173769 
L 73.063337 220.828997 
L 71.47881 222.043383 
L 72.420386 212.769956 
L 76.738938 221.03029 
L 74.816713 220.4913 
L 76.423904 228.836071 
L 74.670527 229.173769 
" clip-path="url(#p161c50feb5)" style="fill: #34608d; fill-opacity: 0.3"/>
    <path d="M 95.173217 220.634794 
L 103.646044 219.979447 
L 102.618203 218.268014 
L 111.726166 220.249941 
L 103.031301 223.608862 
L 103.783743 221.75973 
L 95.310917 222.415076 
L 95.173217 220.634794 
" clip-path="url(#p161c50feb5)" style="fill: #450457; fill-opacity: 0.3"/>
    <path d="M 124.892786 218.974292 
L 133.325049 220.030322 
L 132.661059 218.147617 
L 141.187023 221.914705 
L 131.99539 223.462896 
L 133.10316 221.802081 
L 124.670896 220.746051 
L 124.892786 218.974292 
" clip-path="url(#p161c50feb5)" style="fill: #450559; fill-opacity: 0.3"/>
    <path d="M 154.6602 218.074731 
L 162.919773 220.07416 
L 162.472149 218.128629 
L 170.519352 222.832408 
L 161.211809 223.335052 
L 162.49966 221.809635 
L 154.240086 219.810206 
L 154.6602 218.074731 
" clip-path="url(#p161c50feb5)" style="fill: #450559; fill-opacity: 0.3"/>
    <path d="M 185.366529 215.854558 
L 192.644265 220.242363 
L 192.801629 218.252214 
L 199.064573 225.155731 
L 190.035776 222.839736 
L 191.722314 221.771537 
L 184.444578 217.383732 
L 185.366529 215.854558 
" clip-path="url(#p161c50feb5)" style="fill: #440256; fill-opacity: 0.3"/>
    <path d="M 226.695454 214.40747 
L 222.112386 221.563849 
L 224.09755 221.774991 
L 217.027141 227.848896 
L 219.586526 218.886053 
L 220.608711 220.600869 
L 225.191779 213.444491 
L 226.695454 214.40747 
" clip-path="url(#p161c50feb5)" style="fill: #440154; fill-opacity: 0.3"/>
    <path d="M 259.098255 219.065015 
L 251.054696 221.80717 
L 252.475912 223.20917 
L 243.16122 223.554905 
L 250.747393 218.138911 
L 250.478523 220.117084 
L 258.522082 217.374928 
L 259.098255 219.065015 
" clip-path="url(#p161c50feb5)" style="fill: #450559; fill-opacity: 0.3"/>
    <path d="M 288.773894 220.219722 
L 280.425458 221.807765 
L 281.636206 223.395074 
L 272.364963 222.432228 
L 280.635182 218.132636 
L 280.091784 220.053619 
L 288.44022 218.465576 
L 288.773894 220.219722 
" clip-path="url(#p161c50feb5)" style="fill: #460a5d; fill-opacity: 0.3"/>
    <path d="M 318.298881 220.696937 
L 309.873004 221.802767 
L 310.990566 223.457008 
L 301.789947 221.963148 
L 310.293506 218.145755 
L 309.640651 220.032349 
L 318.066528 218.926519 
L 318.298881 220.696937 
" clip-path="url(#p161c50feb5)" style="fill: #470e61; fill-opacity: 0.3"/>
    <path d="M 347.801106 220.95491 
L 339.344978 221.798811 
L 340.410682 223.486926 
L 331.260836 221.708354 
L 339.878729 218.156604 
L 339.16766 220.022037 
L 347.623788 219.178136 
L 347.801106 220.95491 
" clip-path="url(#p161c50feb5)" style="fill: #471365; fill-opacity: 0.3"/>
    <path d="M 377.298557 221.115869 
L 368.827675 221.795897 
L 369.860498 223.504328 
L 360.7468 221.548945 
L 369.431842 218.164707 
L 368.68479 220.016023 
L 377.155671 219.335995 
L 377.298557 221.115869 
" clip-path="url(#p161c50feb5)" style="fill: #48186a; fill-opacity: 0.3"/>
    <path d="M 406.795131 221.225613 
L 398.316008 221.793715 
L 399.326178 223.515636 
L 390.239098 221.440066 
L 398.968075 218.170819 
L 398.19664 220.012109 
L 406.675763 219.444008 
L 406.795131 221.225613 
" clip-path="url(#p161c50feb5)" style="fill: #481d6f; fill-opacity: 0.3"/>
    <path d="M 74.808067 208.24629 
L 73.062493 199.929364 
L 71.498355 201.169901 
L 72.285772 191.882114 
L 76.740931 200.069578 
L 74.810018 199.56259 
L 76.555592 207.879515 
L 74.808067 208.24629 
" clip-path="url(#p161c50feb5)" style="fill: #2b758e; fill-opacity: 0.3"/>
    <path d="M 111.613921 201.716396 
L 103.161458 200.836546 
L 103.864589 202.704985 
L 95.261876 199.116623 
L 104.419202 197.376973 
L 103.346329 199.060542 
L 111.798792 199.940392 
L 111.613921 201.716396 
" clip-path="url(#p161c50feb5)" style="fill: #450457; fill-opacity: 0.3"/>
    <path d="M 140.91161 197.46358 
L 133.131766 200.882981 
L 134.667577 202.15842 
L 125.416491 203.298774 
L 132.512157 197.254394 
L 132.413293 199.248306 
L 140.193136 195.828905 
L 140.91161 197.46358 
" clip-path="url(#p161c50feb5)" style="fill: #440256; fill-opacity: 0.3"/>
    <path d="M 170.380337 197.365875 
L 162.643315 200.881093 
L 164.19476 202.137467 
L 154.958461 203.391981 
L 161.978941 197.260434 
L 161.904709 199.255415 
L 169.641731 195.740197 
L 170.380337 197.365875 
" clip-path="url(#p161c50feb5)" style="fill: #450457; fill-opacity: 0.3"/>
    <path d="M 200.144768 198.374355 
L 192.028691 200.893793 
L 193.410729 202.334428 
L 184.090047 202.423324 
L 191.8226 197.218458 
L 191.499315 199.188469 
L 199.615391 196.669031 
L 200.144768 198.374355 
" clip-path="url(#p161c50feb5)" style="fill: #450559; fill-opacity: 0.3"/>
    <path d="M 229.751967 199.078985 
L 221.449952 200.894145 
L 222.703543 202.447839 
L 213.409488 201.738228 
L 221.559357 197.214662 
L 221.068556 199.149752 
L 229.370572 197.334593 
L 229.751967 199.078985 
" clip-path="url(#p161c50feb5)" style="fill: #460a5d; fill-opacity: 0.3"/>
    <path d="M 259.287897 199.516102 
L 250.901721 200.890995 
L 252.071647 202.508627 
L 242.827936 201.309952 
L 251.204983 197.222399 
L 250.612833 199.128919 
L 258.999009 197.754027 
L 259.287897 199.516102 
" clip-path="url(#p161c50feb5)" style="fill: #470d60; fill-opacity: 0.3"/>
    <path d="M 288.798923 199.798285 
L 280.370896 200.887614 
L 281.485217 202.54404 
L 272.287541 201.032166 
L 280.798559 197.231432 
L 280.14201 199.116744 
L 288.570037 198.027416 
L 288.798923 199.798285 
" clip-path="url(#p161c50feb5)" style="fill: #471365; fill-opacity: 0.3"/>
    <path d="M 318.301044 199.990809 
L 309.850054 200.884703 
L 310.925723 202.566486 
L 301.765519 200.842055 
L 310.362257 197.239403 
L 309.662232 199.109009 
L 318.113222 198.215115 
L 318.301044 199.990809 
" clip-path="url(#p161c50feb5)" style="fill: #481769; fill-opacity: 0.3"/>
    <path d="M 347.799912 200.128716 
L 339.335259 200.882317 
L 340.382886 202.58171 
L 331.252543 200.705583 
L 339.907853 197.246014 
L 339.176915 199.103752 
L 347.641568 198.350151 
L 347.799912 200.128716 
" clip-path="url(#p161c50feb5)" style="fill: #481b6d; fill-opacity: 0.3"/>
    <path d="M 377.29766 200.231522 
L 368.824334 200.880375 
L 369.850862 202.592595 
L 360.744422 200.603689 
L 369.441857 197.251432 
L 368.687999 199.099988 
L 377.161325 198.451134 
L 377.29766 200.231522 
" clip-path="url(#p161c50feb5)" style="fill: #482071; fill-opacity: 0.3"/>
    <path d="M 406.795131 200.310684 
L 398.316008 200.878785 
L 399.326178 202.600707 
L 390.239098 200.525136 
L 398.968075 197.25589 
L 398.19664 199.097179 
L 406.675763 198.529078 
L 406.795131 200.310684 
" clip-path="url(#p161c50feb5)" style="fill: #482576; fill-opacity: 0.3"/>
    <path d="M 74.89558 187.322173 
L 73.062088 179.024187 
L 71.511166 180.281207 
L 72.200248 170.985608 
L 76.741803 179.125465 
L 74.805634 178.63894 
L 76.639126 186.936926 
L 74.89558 187.322173 
" clip-path="url(#p161c50feb5)" style="fill: #228b8d; fill-opacity: 0.3"/>
    <path d="M 111.706547 180.293098 
L 103.215753 179.93999 
L 104.033588 181.761145 
L 95.224589 178.714088 
L 104.256169 176.408971 
L 103.289946 178.155932 
L 111.780741 178.50904 
L 111.706547 180.293098 
" clip-path="url(#p161c50feb5)" style="fill: #470d60; fill-opacity: 0.3"/>
    <path d="M 141.299068 179.016464 
L 132.854682 179.970724 
L 133.942341 181.644777 
L 124.770048 179.985846 
L 133.340824 176.321857 
L 132.654176 178.196417 
L 141.098563 177.242157 
L 141.299068 179.016464 
" clip-path="url(#p161c50feb5)" style="fill: #460a5d; fill-opacity: 0.3"/>
    <path d="M 170.78873 178.634787 
L 162.397057 179.975717 
L 163.560424 181.598072 
L 154.321641 180.361985 
L 162.715168 176.30838 
L 162.115305 178.212487 
L 170.506978 176.871557 
L 170.78873 178.634787 
" clip-path="url(#p161c50feb5)" style="fill: #460b5e; fill-opacity: 0.3"/>
    <path d="M 200.28996 178.653151 
L 191.895342 179.975521 
L 193.055119 181.600445 
L 183.819093 180.343931 
L 192.221563 176.308896 
L 191.61749 178.211672 
L 200.012108 176.889301 
L 200.28996 178.653151 
" clip-path="url(#p161c50feb5)" style="fill: #470e61; fill-opacity: 0.3"/>
    <path d="M 229.795737 178.787725 
L 221.380801 179.973948 
L 222.514105 181.617444 
L 213.299644 180.211492 
L 221.76637 176.313087 
L 221.131556 178.205829 
L 229.546492 177.019606 
L 229.795737 178.787725 
" clip-path="url(#p161c50feb5)" style="fill: #471365; fill-opacity: 0.3"/>
    <path d="M 259.299518 178.934274 
L 250.864978 179.971962 
L 251.969132 181.635182 
L 242.780889 180.067002 
L 251.315026 176.318468 
L 250.646942 178.199723 
L 259.081483 177.162036 
L 259.299518 178.934274 
" clip-path="url(#p161c50feb5)" style="fill: #481668; fill-opacity: 0.3"/>
    <path d="M 288.800746 179.063914 
L 280.351051 179.969968 
L 281.42914 181.650202 
L 272.266463 179.938954 
L 280.858008 176.323935 
L 280.160674 178.194546 
L 288.610369 177.288492 
L 288.800746 179.063914 
" clip-path="url(#p161c50feb5)" style="fill: #481a6c; fill-opacity: 0.3"/>
    <path d="M 318.300274 179.172172 
L 309.839499 179.968134 
L 310.895619 181.662262 
L 301.756 179.83186 
L 310.393885 176.32901 
L 309.672254 178.190383 
L 318.133029 177.394422 
L 318.300274 179.172172 
" clip-path="url(#p161c50feb5)" style="fill: #481f70; fill-opacity: 0.3"/>
    <path d="M 347.798884 179.261291 
L 339.330062 179.966507 
L 340.36796 181.67186 
L 331.248488 179.743586 
L 339.923427 176.333536 
L 339.181884 178.187066 
L 347.650706 177.48185 
L 347.798884 179.261291 
" clip-path="url(#p161c50feb5)" style="fill: #482374; fill-opacity: 0.3"/>
    <path d="M 377.297074 179.334753 
L 368.82235 179.965088 
L 369.845134 181.679547 
L 360.743062 179.670744 
L 369.447803 176.337503 
L 368.689906 178.184407 
L 377.16463 177.554072 
L 377.297074 179.334753 
" clip-path="url(#p161c50feb5)" style="fill: #482878; fill-opacity: 0.3"/>
    <path d="M 406.795131 179.395754 
L 398.316008 179.963855 
L 399.326178 181.685777 
L 390.239098 179.610206 
L 398.968075 176.34096 
L 398.19664 178.182249 
L 406.675763 177.614148 
L 406.795131 179.395754 
" clip-path="url(#p161c50feb5)" style="fill: #472d7b; fill-opacity: 0.3"/>
    <path d="M 74.956142 166.400337 
L 73.061868 158.116015 
L 71.520203 159.384371 
L 72.141122 150.08397 
L 76.742227 158.190315 
L 74.802543 157.717996 
L 76.696817 166.002319 
L 74.956142 166.400337 
" clip-path="url(#p161c50feb5)" style="fill: #1fa088; fill-opacity: 0.3"/>
    <path d="M 111.721048 159.277474 
L 103.226569 159.028277 
L 104.066625 160.83929 
L 95.221005 157.90024 
L 104.223706 155.484793 
L 103.278929 157.243445 
L 111.773408 157.492642 
L 111.721048 159.277474 
" clip-path="url(#p161c50feb5)" style="fill: #481668; fill-opacity: 0.3"/>
    <path d="M 141.294585 158.418731 
L 132.819944 159.05018 
L 133.842954 160.764505 
L 124.740618 158.756899 
L 133.44492 155.422513 
L 132.687266 157.269516 
L 141.161907 156.638067 
L 141.294585 158.418731 
" clip-path="url(#p161c50feb5)" style="fill: #471365; fill-opacity: 0.3"/>
    <path d="M 170.799467 158.125085 
L 162.352412 159.055423 
L 163.435325 160.732551 
L 154.267768 159.047646 
L 162.848887 155.407948 
L 162.156932 157.280555 
L 170.603988 156.350218 
L 170.799467 158.125085 
" clip-path="url(#p161c50feb5)" style="fill: #481467; fill-opacity: 0.3"/>
    <path d="M 200.299448 158.066009 
L 191.859216 159.05634 
L 192.954018 160.725731 
L 183.774721 159.106005 
L 192.329763 155.405429 
L 191.651131 157.282906 
L 200.091363 156.292575 
L 200.299448 158.066009 
" clip-path="url(#p161c50feb5)" style="fill: #481769; fill-opacity: 0.3"/>
    <path d="M 229.800014 158.101259 
L 221.355659 159.055798 
L 222.443374 160.729816 
L 213.271026 159.071188 
L 221.84168 155.406915 
L 221.155095 157.281498 
L 229.599449 156.326959 
L 229.800014 158.101259 
" clip-path="url(#p161c50feb5)" style="fill: #481a6c; fill-opacity: 0.3"/>
    <path d="M 259.300392 158.168692 
L 250.848574 159.054716 
L 251.922676 160.7375 
L 242.764081 159.00454 
L 251.364171 155.409895 
L 250.662405 157.278848 
L 259.114223 156.392824 
L 259.300392 158.168692 
" clip-path="url(#p161c50feb5)" style="fill: #481d6f; fill-opacity: 0.3"/>
    <path d="M 288.800149 158.242467 
L 280.340802 159.053463 
L 281.399931 160.745712 
L 272.257073 158.931556 
L 280.888719 155.413361 
L 280.170398 157.276013 
L 288.629745 156.465017 
L 288.800149 158.242467 
" clip-path="url(#p161c50feb5)" style="fill: #482173; fill-opacity: 0.3"/>
    <path d="M 318.299326 158.31264 
L 309.833435 159.052205 
L 310.878243 160.753333 
L 301.751023 158.86207 
L 310.412057 155.416857 
L 309.67804 157.27338 
L 318.143931 156.533815 
L 318.299326 158.31264 
" clip-path="url(#p161c50feb5)" style="fill: #482677; fill-opacity: 0.3"/>
    <path d="M 347.798106 158.375952 
L 339.326827 159.051014 
L 340.358648 160.760051 
L 331.246098 158.799324 
L 339.933122 155.420179 
L 339.184985 157.271057 
L 347.656264 156.595995 
L 347.798106 158.375952 
" clip-path="url(#p161c50feb5)" style="fill: #472a7a; fill-opacity: 0.3"/>
    <path d="M 377.296664 158.431854 
L 368.821036 159.049919 
L 369.841338 160.765857 
L 360.742183 158.743879 
L 369.45174 155.423244 
L 368.691171 157.269048 
L 377.166798 156.650983 
L 377.296664 158.431854 
" clip-path="url(#p161c50feb5)" style="fill: #472f7d; fill-opacity: 0.3"/>
    <path d="M 406.795131 158.480824 
L 398.316008 159.048925 
L 399.326178 160.770847 
L 390.239098 158.695277 
L 398.968075 155.42603 
L 398.19664 157.26732 
L 406.675763 156.699218 
L 406.795131 158.480824 
" clip-path="url(#p161c50feb5)" style="fill: #46337f; fill-opacity: 0.3"/>
    <path d="M 75.000535 145.480059 
L 73.061738 137.206044 
L 71.526916 138.482672 
L 72.097812 129.179066 
L 76.742443 137.260551 
L 74.800248 136.79867 
L 76.739044 145.072686 
L 75.000535 145.480059 
" clip-path="url(#p161c50feb5)" style="fill: #2fb47c; fill-opacity: 0.3"/>
    <path d="M 111.726861 138.319519 
L 103.231197 138.11468 
L 104.080697 139.921282 
L 95.219851 137.02846 
L 104.209817 134.566038 
L 103.274237 136.329599 
L 111.769901 136.534438 
L 111.726861 138.319519 
" clip-path="url(#p161c50feb5)" style="fill: #481c6e; fill-opacity: 0.3"/>
    <path d="M 141.289564 137.627288 
L 132.806473 138.132705 
L 133.803889 139.862046 
L 124.732398 137.719369 
L 133.4853 134.514728 
L 132.700277 136.350266 
L 141.183367 135.844849 
L 141.289564 137.627288 
" clip-path="url(#p161c50feb5)" style="fill: #481b6d; fill-opacity: 0.3"/>
    <path d="M 170.798112 137.378859 
L 162.33392 138.13762 
L 163.382582 139.836374 
L 154.251097 137.965813 
L 162.904297 134.500969 
L 162.174491 136.359151 
L 170.638684 135.600391 
L 170.798112 137.378859 
" clip-path="url(#p161c50feb5)" style="fill: #481c6e; fill-opacity: 0.3"/>
    <path d="M 200.299456 137.303479 
L 191.842491 138.13895 
L 192.906513 139.828127 
L 183.758444 138.040434 
L 192.379873 134.497277 
L 191.666945 136.362 
L 200.12391 135.526529 
L 200.299456 137.303479 
" clip-path="url(#p161c50feb5)" style="fill: #481f70; fill-opacity: 0.3"/>
    <path d="M 229.799762 137.304565 
L 221.342688 138.138931 
L 222.406488 139.828247 
L 213.258653 138.039359 
L 221.880545 134.497329 
L 221.167373 136.361959 
L 229.624448 135.527592 
L 229.799762 137.304565 
" clip-path="url(#p161c50feb5)" style="fill: #482173; fill-opacity: 0.3"/>
    <path d="M 259.299695 137.338454 
L 250.83929 138.138342 
L 251.896197 139.83198 
L 242.755729 138.005821 
L 251.391987 134.498962 
L 250.67122 136.36067 
L 259.131625 135.560781 
L 259.299695 137.338454 
" clip-path="url(#p161c50feb5)" style="fill: #482576; fill-opacity: 0.3"/>
    <path d="M 288.799267 137.384676 
L 280.334546 138.137514 
L 281.382019 139.837002 
L 272.251846 137.960052 
L 280.907467 134.501263 
L 280.176362 136.358935 
L 288.641083 135.606096 
L 288.799267 137.384676 
" clip-path="url(#p161c50feb5)" style="fill: #482979; fill-opacity: 0.3"/>
    <path d="M 318.298512 137.433697 
L 309.829499 138.136605 
L 310.866932 139.84224 
L 301.747986 137.911482 
L 310.423854 134.503796 
L 309.681806 136.357124 
L 318.150819 135.654216 
L 318.298512 137.433697 
" clip-path="url(#p161c50feb5)" style="fill: #472d7b; fill-opacity: 0.3"/>
    <path d="M 347.797514 137.481224 
L 339.32462 138.135694 
L 340.352283 139.847233 
L 331.244526 137.864363 
L 339.939738 134.506342 
L 339.187105 136.355397 
L 347.659999 135.700927 
L 347.797514 137.481224 
" clip-path="url(#p161c50feb5)" style="fill: #46327e; fill-opacity: 0.3"/>
    <path d="M 377.296362 137.525479 
L 368.820102 138.134818 
L 369.838636 139.851806 
L 360.741568 137.820461 
L 369.45454 134.508794 
L 368.69207 136.353814 
L 377.16833 135.744476 
L 377.296362 137.525479 
" clip-path="url(#p161c50feb5)" style="fill: #453781; fill-opacity: 0.3"/>
    <path d="M 406.795131 137.565894 
L 398.316008 138.133995 
L 399.326178 139.855917 
L 390.239098 137.780347 
L 398.968075 134.5111 
L 398.19664 136.35239 
L 406.675763 135.784289 
L 406.795131 137.565894 
" clip-path="url(#p161c50feb5)" style="fill: #443a83; fill-opacity: 0.3"/>
    <path d="M 75.034469 124.560878 
L 73.061657 116.294906 
L 71.532098 117.577837 
L 72.064723 108.271961 
L 76.742555 116.334274 
L 74.798476 115.880386 
L 76.771288 124.146357 
L 75.034469 124.560878 
" clip-path="url(#p161c50feb5)" style="fill: #58c765; fill-opacity: 0.3"/>
    <path d="M 111.729987 117.380721 
L 103.233766 117.200479 
L 104.088493 119.004613 
L 95.219309 116.137456 
L 104.202109 113.649018 
L 103.271638 115.415281 
L 111.767859 115.595523 
L 111.729987 117.380721 
" clip-path="url(#p161c50feb5)" style="fill: #482475; fill-opacity: 0.3"/>
    <path d="M 141.286144 116.778028 
L 132.799322 117.216339 
L 133.78303 118.953515 
L 124.728768 116.739162 
L 133.50674 113.603844 
L 132.707225 115.433116 
L 141.194047 114.994805 
L 141.286144 116.778028 
" clip-path="url(#p161c50feb5)" style="fill: #482374; fill-opacity: 0.3"/>
    <path d="M 170.795919 116.556293 
L 162.323819 117.220958 
L 163.353541 118.93126 
L 154.243404 116.959351 
L 162.934569 113.590869 
L 162.184161 115.440828 
L 170.656262 114.776163 
L 170.795919 116.556293 
" clip-path="url(#p161c50feb5)" style="fill: #482475; fill-opacity: 0.3"/>
    <path d="M 200.298189 116.476528 
L 191.832856 117.222461 
L 192.878943 118.922802 
L 183.750304 117.038404 
L 192.408745 113.586678 
L 191.676124 115.443753 
L 200.141456 114.69782 
L 200.298189 116.476528 
" clip-path="url(#p161c50feb5)" style="fill: #482677; fill-opacity: 0.3"/>
    <path d="M 229.79878 116.46187 
L 221.334776 117.222727 
L 222.383859 118.921222 
L 213.251912 117.052923 
L 221.904253 113.585935 
L 221.174907 115.444299 
L 229.638912 114.683442 
L 229.79878 116.46187 
" clip-path="url(#p161c50feb5)" style="fill: #482979; fill-opacity: 0.3"/>
    <path d="M 259.29879 116.478058 
L 250.83332 117.222432 
L 251.879094 118.922967 
L 242.750802 117.036889 
L 251.409878 113.586756 
L 250.676915 115.443696 
L 259.142384 114.699322 
L 259.29879 116.478058 
" clip-path="url(#p161c50feb5)" style="fill: #472d7b; fill-opacity: 0.3"/>
    <path d="M 288.79845 116.50828 
L 280.33033 117.221873 
L 281.369914 118.926197 
L 272.248539 117.006945 
L 280.920101 113.588316 
L 280.180392 115.442579 
L 288.648512 114.728986 
L 288.79845 116.50828 
" clip-path="url(#p161c50feb5)" style="fill: #46307e; fill-opacity: 0.3"/>
    <path d="M 318.297848 116.544023 
L 309.826738 117.221195 
L 310.858984 118.929974 
L 301.745946 116.971516 
L 310.432129 113.590208 
L 309.684453 115.441273 
L 318.155563 114.764101 
L 318.297848 116.544023 
" clip-path="url(#p161c50feb5)" style="fill: #463480; fill-opacity: 0.3"/>
    <path d="M 347.797054 116.580963 
L 339.323017 117.220476 
L 340.347658 118.933827 
L 331.243415 116.934884 
L 339.944541 113.592216 
L 339.188645 115.43994 
L 347.662681 114.800426 
L 347.797054 116.580963 
" clip-path="url(#p161c50feb5)" style="fill: #443983; fill-opacity: 0.3"/>
    <path d="M 377.29613 116.616946 
L 368.819404 117.219759 
L 369.836616 118.937531 
L 360.741115 116.899184 
L 369.456633 113.594225 
L 368.692743 115.438657 
L 377.169469 114.835844 
L 377.29613 116.616946 
" clip-path="url(#p161c50feb5)" style="fill: #433d84; fill-opacity: 0.3"/>
    <path d="M 406.795131 116.650964 
L 398.316008 117.219066 
L 399.326178 118.940988 
L 390.239098 116.865417 
L 398.968075 113.596171 
L 398.19664 115.43746 
L 406.675763 114.869359 
L 406.795131 116.650964 
" clip-path="url(#p161c50feb5)" style="fill: #424186; fill-opacity: 0.3"/>
    <path d="M 75.061249 103.642493 
L 73.061604 95.382971 
L 71.53622 96.670862 
L 72.038621 87.363306 
L 76.74261 95.410386 
L 74.797067 94.962813 
L 76.796712 103.222334 
L 75.061249 103.642493 
" clip-path="url(#p161c50feb5)" style="fill: #8bd646; fill-opacity: 0.3"/>
    <path d="M 111.731939 96.450617 
L 103.2354 96.286009 
L 104.093445 98.088567 
L 95.219001 95.237735 
L 104.197206 92.732772 
L 103.269987 94.500744 
L 111.766525 94.665352 
L 111.731939 96.450617 
" clip-path="url(#p161c50feb5)" style="fill: #472c7a; fill-opacity: 0.3"/>
    <path d="M 141.28376 95.903847 
L 132.794888 96.30049 
L 133.770057 98.042473 
L 124.726775 95.783699 
L 133.520032 92.691511 
L 132.711547 94.516836 
L 141.200419 94.120193 
L 141.28376 95.903847 
" clip-path="url(#p161c50feb5)" style="fill: #472a7a; fill-opacity: 0.3"/>
    <path d="M 170.794008 95.699622 
L 162.317456 96.304878 
L 163.335163 98.022356 
L 154.239074 95.98663 
L 162.95364 92.67916 
L 162.190282 94.523812 
L 170.666834 93.918557 
L 170.794008 95.699622 
" clip-path="url(#p161c50feb5)" style="fill: #472c7a; fill-opacity: 0.3"/>
    <path d="M 200.296864 95.618859 
L 191.826594 96.306461 
L 192.860943 98.013968 
L 183.745501 96.066733 
L 192.427513 92.674732 
L 191.682117 94.526715 
L 200.152387 93.839114 
L 200.296864 95.618859 
" clip-path="url(#p161c50feb5)" style="fill: #472d7b; fill-opacity: 0.3"/>
    <path d="M 229.797764 95.595638 
L 221.329448 96.3069 
L 222.368564 98.011511 
L 213.247717 96.089748 
L 221.92022 92.673506 
L 221.18 94.527565 
L 229.648316 93.816304 
L 229.797764 95.595638 
" clip-path="url(#p161c50feb5)" style="fill: #46307e; fill-opacity: 0.3"/>
    <path d="M 259.297946 95.601175 
L 250.829159 96.306796 
L 251.867138 98.012098 
L 242.747574 96.084261 
L 251.42235 92.673796 
L 250.680896 94.527362 
L 259.149684 93.821741 
L 259.297946 95.601175 
" clip-path="url(#p161c50feb5)" style="fill: #463480; fill-opacity: 0.3"/>
    <path d="M 288.797751 95.621093 
L 280.327297 96.306418 
L 281.361187 98.014203 
L 272.246268 96.064518 
L 280.929192 92.674851 
L 280.183298 94.526634 
L 288.653753 93.841309 
L 288.797751 95.621093 
" clip-path="url(#p161c50feb5)" style="fill: #453882; fill-opacity: 0.3"/>
    <path d="M 318.297307 95.647795 
L 309.824694 96.305903 
L 310.853093 98.017001 
L 301.744485 96.038043 
L 310.438254 92.676288 
L 309.686414 94.525666 
L 318.159027 93.867557 
L 318.297307 95.647795 
" clip-path="url(#p161c50feb5)" style="fill: #443b84; fill-opacity: 0.3"/>
    <path d="M 347.796687 95.677168 
L 339.321801 96.305327 
L 340.344146 98.020049 
L 331.242589 96.008909 
L 339.948186 92.677903 
L 339.189815 94.524611 
L 347.6647 93.896453 
L 347.796687 95.677168 
" clip-path="url(#p161c50feb5)" style="fill: #424086; fill-opacity: 0.3"/>
    <path d="M 377.295947 95.706979 
L 368.818862 96.304729 
L 369.835049 98.023108 
L 360.740766 95.979329 
L 369.458256 92.679576 
L 368.693265 94.523552 
L 377.17035 93.925801 
L 377.295947 95.706979 
" clip-path="url(#p161c50feb5)" style="fill: #414487; fill-opacity: 0.3"/>
    <path d="M 406.795131 95.736035 
L 398.316008 96.304136 
L 399.326178 98.026058 
L 390.239098 95.950487 
L 398.968075 92.681241 
L 398.19664 94.52253 
L 406.675763 93.954429 
L 406.795131 95.736035 
" clip-path="url(#p161c50feb5)" style="fill: #3f4889; fill-opacity: 0.3"/>
    <path d="M 75.082921 82.724702 
L 73.061568 74.470466 
L 71.539575 75.762363 
L 72.017504 66.453518 
L 76.742634 74.488203 
L 74.795921 74.045746 
L 76.817274 82.299982 
L 75.082921 82.724702 
" clip-path="url(#p161c50feb5)" style="fill: #c5e021; fill-opacity: 0.3"/>
    <path d="M 111.733272 75.525187 
L 103.23653 75.371395 
L 104.09687 77.172859 
L 95.218803 74.333326 
L 104.193813 71.816937 
L 103.268845 73.586087 
L 111.765586 73.73988 
L 111.733272 75.525187 
" clip-path="url(#p161c50feb5)" style="fill: #46337f; fill-opacity: 0.3"/>
    <path d="M 141.282022 75.016665 
L 132.791871 75.384921 
L 133.761209 77.130156 
L 124.725531 74.841155 
L 133.529079 71.778388 
L 132.714494 73.600999 
L 141.204645 73.232743 
L 141.282022 75.016665 
" clip-path="url(#p161c50feb5)" style="fill: #46327e; fill-opacity: 0.3"/>
    <path d="M 170.792455 74.824787 
L 162.313081 75.38913 
L 163.322488 77.1115 
L 154.236329 75.031902 
L 162.966754 71.766524 
L 162.194503 73.607472 
L 170.673877 73.043129 
L 170.792455 74.824787 
" clip-path="url(#p161c50feb5)" style="fill: #46337f; fill-opacity: 0.3"/>
    <path d="M 200.295697 74.744164 
L 191.822197 75.390753 
L 192.848268 77.103248 
L 183.74236 75.111908 
L 192.440691 71.761976 
L 191.686338 73.610329 
L 200.159837 72.96374 
L 200.295697 74.744164 
" clip-path="url(#p161c50feb5)" style="fill: #463480; fill-opacity: 0.3"/>
    <path d="M 229.796856 74.715759 
L 221.325616 75.391304 
L 222.357535 77.100282 
L 213.244873 75.140076 
L 221.931704 71.760434 
L 221.183673 73.611355 
L 229.654913 72.935809 
L 229.796856 74.715759 
" clip-path="url(#p161c50feb5)" style="fill: #453882; fill-opacity: 0.3"/>
    <path d="M 259.297213 74.714297 
L 250.826092 75.391333 
L 251.85831 77.100129 
L 242.745304 75.141525 
L 251.431541 71.760356 
L 250.683835 73.611408 
L 259.154956 72.934373 
L 259.297213 74.714297 
" clip-path="url(#p161c50feb5)" style="fill: #443b84; fill-opacity: 0.3"/>
    <path d="M 288.797163 74.72709 
L 280.325009 75.391086 
L 281.354597 77.101469 
L 272.244616 75.12884 
L 280.936047 71.761045 
L 280.185493 73.610945 
L 288.657646 72.946949 
L 288.797163 74.72709 
" clip-path="url(#p161c50feb5)" style="fill: #423f85; fill-opacity: 0.3"/>
    <path d="M 318.296861 74.74727 
L 309.82312 75.390692 
L 310.848551 77.10357 
L 301.743388 75.108826 
L 310.44297 71.762146 
L 309.687927 73.610218 
L 318.161667 72.966796 
L 318.296861 74.74727 
" clip-path="url(#p161c50feb5)" style="fill: #414287; fill-opacity: 0.3"/>
    <path d="M 347.796389 74.770979 
L 339.320847 75.390223 
L 340.341387 77.106019 
L 331.241951 75.085307 
L 339.951046 71.76346 
L 339.190733 73.60937 
L 347.666275 72.990126 
L 347.796389 74.770979 
" clip-path="url(#p161c50feb5)" style="fill: #404688; fill-opacity: 0.3"/>
    <path d="M 377.295799 74.796011 
L 368.81843 75.389719 
L 369.833797 77.108582 
L 360.740489 75.060467 
L 369.459552 71.764871 
L 368.693682 73.608482 
L 377.171051 73.014774 
L 377.295799 74.796011 
" clip-path="url(#p161c50feb5)" style="fill: #3e4a89; fill-opacity: 0.3"/>
    <path d="M 406.795131 74.821105 
L 398.316008 75.389206 
L 399.326178 77.111128 
L 390.239098 75.035557 
L 398.968075 71.766311 
L 398.19664 73.607601 
L 406.675763 73.039499 
L 406.795131 74.821105 
" clip-path="url(#p161c50feb5)" style="fill: #3c4f8a; fill-opacity: 0.3"/>
    <path d="M 75.100819 61.807365 
L 73.061543 53.55754 
L 71.54236 54.852739 
L 72.000069 45.542878 
L 76.742639 53.567281 
L 74.794969 53.129054 
L 76.834246 61.378879 
L 75.100819 61.807365 
" clip-path="url(#p161c50feb5)" style="fill: #fde725; fill-opacity: 0.3"/>
    <path d="M 111.734241 54.602561 
L 103.237359 54.456695 
L 104.099379 56.257357 
L 95.218667 53.426107 
L 104.191325 50.901346 
L 103.268008 52.671359 
L 111.76489 52.817224 
L 111.734241 54.602561 
" clip-path="url(#p161c50feb5)" style="fill: #443a83; fill-opacity: 0.3"/>
    <path d="M 141.280703 54.121849 
L 132.789685 54.469522 
L 133.75479 56.217101 
L 124.724686 53.906204 
L 133.535634 50.864786 
L 132.716633 52.685417 
L 141.207651 52.337744 
L 141.280703 54.121849 
" clip-path="url(#p161c50feb5)" style="fill: #443983; fill-opacity: 0.3"/>
    <path d="M 170.791199 53.939135 
L 162.309888 54.47359 
L 163.313219 56.199506 
L 154.234446 54.087898 
L 162.976325 50.85331 
L 162.19759 52.691525 
L 170.678901 52.15707 
L 170.791199 53.939135 
" clip-path="url(#p161c50feb5)" style="fill: #443983; fill-opacity: 0.3"/>
    <path d="M 200.294706 53.859051 
L 191.818941 54.475233 
L 192.838861 56.191398 
L 183.740156 54.167399 
L 192.45045 50.848698 
L 191.689471 52.694333 
L 200.165236 52.078151 
L 200.294706 53.859051 
" clip-path="url(#p161c50feb5)" style="fill: #443b84; fill-opacity: 0.3"/>
    <path d="M 229.796074 53.827261 
L 221.322728 54.475862 
L 222.349206 56.188113 
L 213.242825 54.198934 
L 221.94036 50.846938 
L 221.186446 52.69547 
L 229.659792 52.04687 
L 229.796074 53.827261 
" clip-path="url(#p161c50feb5)" style="fill: #423f85; fill-opacity: 0.3"/>
    <path d="M 259.296585 53.820905 
L 250.823738 54.475986 
L 251.851525 56.187451 
L 242.743625 54.205238 
L 251.438595 50.846591 
L 250.686095 52.695699 
L 259.158942 52.040618 
L 259.296585 53.820905 
" clip-path="url(#p161c50feb5)" style="fill: #424186; fill-opacity: 0.3"/>
    <path d="M 288.796666 53.828508 
L 280.323223 54.475838 
L 281.349444 56.188242 
L 272.243361 54.197698 
L 280.9414 50.847006 
L 280.187209 52.695425 
L 288.660652 52.048096 
L 288.796666 53.828508 
" clip-path="url(#p161c50feb5)" style="fill: #404688; fill-opacity: 0.3"/>
    <path d="M 318.296489 53.843778 
L 309.821871 54.475537 
L 310.844944 56.189824 
L 301.742534 54.182552 
L 310.446714 50.847847 
L 309.689128 52.694878 
L 318.163746 52.063119 
L 318.296489 53.843778 
" clip-path="url(#p161c50feb5)" style="fill: #3e4989; fill-opacity: 0.3"/>
    <path d="M 347.796141 53.863094 
L 339.320078 54.475152 
L 340.339163 56.191813 
L 331.241443 54.163388 
L 339.953352 50.848925 
L 339.191474 52.694189 
L 347.667538 52.082131 
L 347.796141 53.863094 
" clip-path="url(#p161c50feb5)" style="fill: #3d4d8a; fill-opacity: 0.3"/>
    <path d="M 377.295676 53.884318 
L 368.818077 54.474724 
L 369.832774 56.193982 
L 360.740265 54.142324 
L 369.460611 50.850126 
L 368.694023 52.693438 
L 377.171622 52.103033 
L 377.295676 53.884318 
" clip-path="url(#p161c50feb5)" style="fill: #3b518b; fill-opacity: 0.3"/>
    <path d="M 406.795131 53.906175 
L 398.316008 54.474276 
L 399.326178 56.196198 
L 390.239098 54.120628 
L 398.968075 50.851381 
L 398.19664 52.692671 
L 406.675763 52.124569 
L 406.795131 53.906175 
" clip-path="url(#p161c50feb5)" style="fill: #39558c; fill-opacity: 0.3"/>
   </g>
   <g id="matplotlib.axis_1">
    <g id="xtick_1">
     <g id="line2d_1">
      <defs>
       <path id="m15714448e3" d="M 0 0 
L 0 3.5 
" style="stroke: #000000; stroke-width: 0.8"/>
      </defs>
      <g>
       <use xlink:href="#m15714448e3" x="73.826774" y="307.584" style="stroke: #000000; stroke-width: 0.8"/>
      </g>
     </g>
     <g id="text_1">
      <!-- 0 -->
      <g transform="translate(70.645524 322.182437) scale(0.1 -0.1)">
       <defs>
        <path id="DejaVuSans-30" d="M 2034 4250 
Q 1547 4250 1301 3770 
Q 1056 3291 1056 2328 
Q 1056 1369 1301 889 
Q 1547 409 2034 409 
Q 2525 409 2770 889 
Q 3016 1369 3016 2328 
Q 3016 3291 2770 3770 
Q 2525 4250 2034 4250 
z
M 2034 4750 
Q 2819 4750 3233 4129 
Q 3647 3509 3647 2328 
Q 3647 1150 3233 529 
Q 2819 -91 2034 -91 
Q 1250 -91 836 529 
Q 422 1150 422 2328 
Q 422 3509 836 4129 
Q 1250 4750 2034 4750 
z
" transform="scale(0.015625)"/>
       </defs>
       <use xlink:href="#DejaVuSans-30"/>
      </g>
     </g>
    </g>
    <g id="xtick_2">
     <g id="line2d_2">
      <g>
       <use xlink:href="#m15714448e3" x="152.34023" y="307.584" style="stroke: #000000; stroke-width: 0.8"/>
      </g>
     </g>
     <g id="text_2">
      <!-- 5 -->
      <g transform="translate(149.15898 322.182437) scale(0.1 -0.1)">
       <defs>
        <path id="DejaVuSans-35" d="M 691 4666 
L 3169 4666 
L 3169 4134 
L 1269 4134 
L 1269 2991 
Q 1406 3038 1543 3061 
Q 1681 3084 1819 3084 
Q 2600 3084 3056 2656 
Q 3513 2228 3513 1497 
Q 3513 744 3044 326 
Q 2575 -91 1722 -91 
Q 1428 -91 1123 -41 
Q 819 9 494 109 
L 494 744 
Q 775 591 1075 516 
Q 1375 441 1709 441 
Q 2250 441 2565 725 
Q 2881 1009 2881 1497 
Q 2881 1984 2565 2268 
Q 2250 2553 1709 2553 
Q 1456 2553 1204 2497 
Q 953 2441 691 2322 
L 691 4666 
z
" transform="scale(0.015625)"/>
       </defs>
       <use xlink:href="#DejaVuSans-35"/>
      </g>
     </g>
    </g>
    <g id="xtick_3">
     <g id="line2d_3">
      <g>
       <use xlink:href="#m15714448e3" x="230.853685" y="307.584" style="stroke: #000000; stroke-width: 0.8"/>
      </g>
     </g>
     <g id="text_3">
      <!-- 10 -->
      <g transform="translate(224.491185 322.182437) scale(0.1 -0.1)">
       <defs>
        <path id="DejaVuSans-31" d="M 794 531 
L 1825 531 
L 1825 4091 
L 703 3866 
L 703 4441 
L 1819 4666 
L 2450 4666 
L 2450 531 
L 3481 531 
L 3481 0 
L 794 0 
L 794 531 
z
" transform="scale(0.015625)"/>
       </defs>
       <use xlink:href="#DejaVuSans-31"/>
       <use xlink:href="#DejaVuSans-30" transform="translate(63.623047 0)"/>
      </g>
     </g>
    </g>
    <g id="xtick_4">
     <g id="line2d_4">
      <g>
       <use xlink:href="#m15714448e3" x="309.367141" y="307.584" style="stroke: #000000; stroke-width: 0.8"/>
      </g>
     </g>
     <g id="text_4">
      <!-- 15 -->
      <g transform="translate(303.004641 322.182437) scale(0.1 -0.1)">
       <use xlink:href="#DejaVuSans-31"/>
       <use xlink:href="#DejaVuSans-35" transform="translate(63.623047 0)"/>
      </g>
     </g>
    </g>
    <g id="xtick_5">
     <g id="line2d_5">
      <g>
       <use xlink:href="#m15714448e3" x="387.880597" y="307.584" style="stroke: #000000; stroke-width: 0.8"/>
      </g>
     </g>
     <g id="text_5">
      <!-- 20 -->
      <g transform="translate(381.518097 322.182437) scale(0.1 -0.1)">
       <defs>
        <path id="DejaVuSans-32" d="M 1228 531 
L 3431 531 
L 3431 0 
L 469 0 
L 469 531 
Q 828 903 1448 1529 
Q 2069 2156 2228 2338 
Q 2531 2678 2651 2914 
Q 2772 3150 2772 3378 
Q 2772 3750 2511 3984 
Q 2250 4219 1831 4219 
Q 1534 4219 1204 4116 
Q 875 4013 500 3803 
L 500 4441 
Q 881 4594 1212 4672 
Q 1544 4750 1819 4750 
Q 2544 4750 2975 4387 
Q 3406 4025 3406 3419 
Q 3406 3131 3298 2873 
Q 3191 2616 2906 2266 
Q 2828 2175 2409 1742 
Q 1991 1309 1228 531 
z
" transform="scale(0.015625)"/>
       </defs>
       <use xlink:href="#DejaVuSans-32"/>
       <use xlink:href="#DejaVuSans-30" transform="translate(63.623047 0)"/>
      </g>
     </g>
    </g>
    <g id="text_6">
     <!-- k -->
     <g transform="translate(233.264688 335.860562) scale(0.1 -0.1)">
      <defs>
       <path id="DejaVuSans-6b" d="M 581 4863 
L 1159 4863 
L 1159 1991 
L 2875 3500 
L 3609 3500 
L 1753 1863 
L 3688 0 
L 2938 0 
L 1159 1709 
L 1159 0 
L 581 0 
L 581 4863 
z
" transform="scale(0.015625)"/>
      </defs>
      <use xlink:href="#DejaVuSans-6b"/>
     </g>
    </g>
   </g>
   <g id="matplotlib.axis_2">
    <g id="ytick_1">
     <g id="line2d_6">
      <defs>
       <path id="m3c0cdae601" d="M 0 0 
L -3.5 0 
" style="stroke: #000000; stroke-width: 0.8"/>
      </defs>
      <g>
       <use xlink:href="#m3c0cdae601" x="57.6" y="295.488" style="stroke: #000000; stroke-width: 0.8"/>
      </g>
     </g>
     <g id="text_7">
      <!-- 0.0 -->
      <g transform="translate(34.696875 299.287219) scale(0.1 -0.1)">
       <defs>
        <path id="DejaVuSans-2e" d="M 684 794 
L 1344 794 
L 1344 0 
L 684 0 
L 684 794 
z
" transform="scale(0.015625)"/>
       </defs>
       <use xlink:href="#DejaVuSans-30"/>
       <use xlink:href="#DejaVuSans-2e" transform="translate(63.623047 0)"/>
       <use xlink:href="#DejaVuSans-30" transform="translate(95.410156 0)"/>
      </g>
     </g>
    </g>
    <g id="ytick_2">
     <g id="line2d_7">
      <g>
       <use xlink:href="#m3c0cdae601" x="57.6" y="252.114381" style="stroke: #000000; stroke-width: 0.8"/>
      </g>
     </g>
     <g id="text_8">
      <!-- 0.5 -->
      <g transform="translate(34.696875 255.9136) scale(0.1 -0.1)">
       <use xlink:href="#DejaVuSans-30"/>
       <use xlink:href="#DejaVuSans-2e" transform="translate(63.623047 0)"/>
       <use xlink:href="#DejaVuSans-35" transform="translate(95.410156 0)"/>
      </g>
     </g>
    </g>
    <g id="ytick_3">
     <g id="line2d_8">
      <g>
       <use xlink:href="#m3c0cdae601" x="57.6" y="208.740762" style="stroke: #000000; stroke-width: 0.8"/>
      </g>
     </g>
     <g id="text_9">
      <!-- 1.0 -->
      <g transform="translate(34.696875 212.53998) scale(0.1 -0.1)">
       <use xlink:href="#DejaVuSans-31"/>
       <use xlink:href="#DejaVuSans-2e" transform="translate(63.623047 0)"/>
       <use xlink:href="#DejaVuSans-30" transform="translate(95.410156 0)"/>
      </g>
     </g>
    </g>
    <g id="ytick_4">
     <g id="line2d_9">
      <g>
       <use xlink:href="#m3c0cdae601" x="57.6" y="165.367143" style="stroke: #000000; stroke-width: 0.8"/>
      </g>
     </g>
     <g id="text_10">
      <!-- 1.5 -->
      <g transform="translate(34.696875 169.166361) scale(0.1 -0.1)">
       <use xlink:href="#DejaVuSans-31"/>
       <use xlink:href="#DejaVuSans-2e" transform="translate(63.623047 0)"/>
       <use xlink:href="#DejaVuSans-35" transform="translate(95.410156 0)"/>
      </g>
     </g>
    </g>
    <g id="ytick_5">
     <g id="line2d_10">
      <g>
       <use xlink:href="#m3c0cdae601" x="57.6" y="121.993523" style="stroke: #000000; stroke-width: 0.8"/>
      </g>
     </g>
     <g id="text_11">
      <!-- 2.0 -->
      <g transform="translate(34.696875 125.792742) scale(0.1 -0.1)">
       <use xlink:href="#DejaVuSans-32"/>
       <use xlink:href="#DejaVuSans-2e" transform="translate(63.623047 0)"/>
       <use xlink:href="#DejaVuSans-30" transform="translate(95.410156 0)"/>
      </g>
     </g>
    </g>
    <g id="ytick_6">
     <g id="line2d_11">
      <g>
       <use xlink:href="#m3c0cdae601" x="57.6" y="78.619904" style="stroke: #000000; stroke-width: 0.8"/>
      </g>
     </g>
     <g id="text_12">
      <!-- 2.5 -->
      <g transform="translate(34.696875 82.419123) scale(0.1 -0.1)">
       <use xlink:href="#DejaVuSans-32"/>
       <use xlink:href="#DejaVuSans-2e" transform="translate(63.623047 0)"/>
       <use xlink:href="#DejaVuSans-35" transform="translate(95.410156 0)"/>
      </g>
     </g>
    </g>
    <g id="text_13">
     <!-- c -->
     <g transform="translate(28.617188 177.277219) rotate(-90) scale(0.1 -0.1)">
      <defs>
       <path id="DejaVuSans-63" d="M 3122 3366 
L 3122 2828 
Q 2878 2963 2633 3030 
Q 2388 3097 2138 3097 
Q 1578 3097 1268 2742 
Q 959 2388 959 1747 
Q 959 1106 1268 751 
Q 1578 397 2138 397 
Q 2388 397 2633 464 
Q 2878 531 3122 666 
L 3122 134 
Q 2881 22 2623 -34 
Q 2366 -91 2075 -91 
Q 1284 -91 818 406 
Q 353 903 353 1747 
Q 353 2603 823 3093 
Q 1294 3584 2113 3584 
Q 2378 3584 2631 3529 
Q 2884 3475 3122 3366 
z
" transform="scale(0.015625)"/>
      </defs>
      <use xlink:href="#DejaVuSans-63"/>
     </g>
    </g>
   </g>
   <g id="line2d_12">
    <path d="M 73.983801 273.802176 
L 75.614471 251.47173 
L 77.245142 242.849469 
L 78.875813 237.115103 
L 80.506483 232.79014 
L 82.137154 229.325109 
L 83.767825 226.448317 
L 85.398496 224.00334 
L 87.029166 221.890995 
L 88.659837 220.044021 
L 90.290508 218.414488 
L 91.921178 216.966905 
L 95.18252 214.515128 
L 98.443861 212.533472 
L 101.705203 210.920207 
L 104.966544 209.60466 
L 108.227886 208.535529 
L 111.489227 207.674272 
L 114.750568 206.991122 
L 119.642581 206.250184 
L 124.534593 205.796876 
L 129.426605 205.585437 
L 134.318617 205.580691 
L 140.8413 205.848843 
L 147.363983 206.384682 
L 153.886666 207.148968 
L 160.409348 208.110876 
L 168.562702 209.553988 
L 176.716056 211.229114 
L 186.50008 213.503058 
L 196.284104 216.025817 
L 206.068128 218.764454 
L 217.482823 222.197287 
L 228.897518 225.854101 
L 241.942884 230.27271 
L 254.98825 234.915223 
L 269.664286 240.372538 
L 285.970993 246.691435 
L 302.277701 253.245906 
L 320.215078 260.694728 
L 339.783127 269.071831 
L 360.981846 278.406777 
L 382.180566 287.979631 
L 398.487273 295.488 
L 398.487273 295.488 
" clip-path="url(#p161c50feb5)" style="fill: none; stroke: #1f77b4; stroke-width: 1.5; stroke-linecap: square"/>
   </g>
   <g id="line2d_13">
    <path d="M 109.174635 307.584 
L 109.174635 41.472 
" clip-path="url(#p161c50feb5)" style="fill: none; stroke-dasharray: 5.55,2.4; stroke-dashoffset: 0; stroke: #1f77b4; stroke-width: 1.5"/>
   </g>
   <g id="line2d_14">
    <path d="M 73.983801 283.632227 
L 75.614471 268.094567 
L 77.245142 260.827039 
L 78.875813 255.403996 
L 80.506483 250.912018 
L 82.137154 247.001371 
L 83.767825 243.49661 
L 87.029166 237.329938 
L 90.290508 231.942133 
L 93.551849 227.09752 
L 96.813191 222.658658 
L 100.074532 218.537291 
L 104.966544 212.82294 
L 109.858556 207.551648 
L 114.750568 202.631858 
L 119.642581 197.998778 
L 126.165263 192.188802 
L 132.687946 186.726436 
L 139.210629 181.553186 
L 145.733312 176.625236 
L 153.886666 170.759445 
L 162.040019 165.173536 
L 170.193373 159.828656 
L 179.977397 153.689773 
L 189.761421 147.81141 
L 201.176116 141.238999 
L 212.590811 134.93483 
L 224.005506 128.86561 
L 237.050872 122.182941 
L 250.096238 115.739755 
L 264.772274 108.744555 
L 279.448311 101.987959 
L 295.755018 94.729753 
L 312.061725 87.705951 
L 329.999103 80.222144 
L 349.567151 72.317494 
L 369.1352 64.655918 
L 390.333919 56.602523 
L 398.487273 53.568 
L 398.487273 53.568 
" clip-path="url(#p161c50feb5)" style="fill: none; stroke: #ff7f0e; stroke-width: 1.5; stroke-linecap: square"/>
   </g>
   <g id="line2d_15">
    <defs>
     <path id="mf18fa11ed3" d="M 0 -3 
L -0.673542 -0.927051 
L -2.85317 -0.927051 
L -1.089814 0.354102 
L -1.763356 2.427051 
L -0 1.145898 
L 1.763356 2.427051 
L 1.089814 0.354102 
L 2.85317 -0.927051 
L 0.673542 -0.927051 
z
" style="stroke: #ff0000; stroke-linejoin: bevel"/>
    </defs>
    <g clip-path="url(#p161c50feb5)">
     <use xlink:href="#mf18fa11ed3" x="109.174635" y="208.265557" style="fill: #ff0000; stroke: #ff0000; stroke-linejoin: bevel"/>
    </g>
   </g>
   <g id="line2d_16">
    <path d="M 86.198525 252.982386 
L 87.30891 252.229058 
L 88.441576 251.548901 
L 89.595794 250.936004 
L 90.770917 250.385179 
L 91.966355 249.891826 
L 93.181572 249.451845 
L 94.416065 249.061546 
L 95.669364 248.717599 
L 96.941025 248.416976 
L 98.230618 248.156914 
L 99.53773 247.934878 
L 100.861959 247.748535 
L 102.202908 247.59573 
L 103.56019 247.474469 
L 104.933417 247.382896 
L 106.322206 247.319283 
L 107.726176 247.282018 
L 109.144943 247.26959 
L 110.578126 247.280586 
L 112.02534 247.313677 
L 113.486202 247.367612 
L 114.960326 247.441215 
L 116.447323 247.533375 
L 117.946805 247.643043 
L 119.458381 247.76923 
L 120.98166 247.910996 
L 122.516248 248.067453 
L 124.06175 248.23776 
L 125.617773 248.421116 
L 127.183919 248.616765 
L 128.759794 248.823984 
L 130.345002 249.04209 
L 131.939147 249.270431 
L 133.541833 249.508387 
L 135.152666 249.755369 
L 136.771254 250.010815 
L 138.397205 250.274189 
L 140.030127 250.544983 
L 141.669635 250.822709 
L 143.31534 251.106906 
L 144.966861 251.39713 
L 146.623817 251.692961 
L 148.285829 251.993996 
L 149.952523 252.299852 
L 151.62353 252.610164 
L 153.29848 252.92458 
L 154.977011 253.24277 
L 156.658762 253.564413 
L 158.34338 253.889207 
L 160.030513 254.216861 
L 161.719814 254.5471 
L 163.410942 254.879658 
L 165.103559 255.214284 
L 166.797335 255.550738 
L 168.491942 255.888789 
L 170.187057 256.22822 
L 171.882365 256.56882 
L 173.577554 256.910392 
L 175.272319 257.252744 
L 176.966358 257.595695 
L 178.659377 257.939073 
L 180.351086 258.282713 
L 182.041203 258.626458 
L 183.729448 258.970158 
L 185.415549 259.313672 
L 187.099239 259.656863 
L 188.780257 259.999602 
L 190.458349 260.341767 
L 192.133263 260.68324 
L 193.804757 261.023912 
L 195.472593 261.363676 
L 197.136536 261.702432 
L 198.796361 262.040085 
L 200.451847 262.376545 
L 202.102778 262.711726 
L 203.748943 263.045547 
L 205.390139 263.377932 
L 207.026166 263.708808 
L 208.656831 264.038106 
L 210.281946 264.365761 
L 211.901329 264.691713 
L 213.514801 265.015903 
L 215.122192 265.338277 
L 216.723334 265.658785 
L 218.318066 265.977377 
L 219.906231 266.294009 
L 221.487677 266.608639 
L 223.062259 266.921227 
L 224.629835 267.231736 
L 226.190269 267.540133 
L 227.743427 267.846384 
L 229.289184 268.150461 
L 230.827417 268.452336 
L 232.358008 268.751983 
L 233.880844 269.04938 
L 235.395815 269.344505 
L 236.902818 269.637339 
L 238.401751 269.927864 
L 239.89252 270.216064 
" clip-path="url(#p161c50feb5)" style="fill: none; stroke: #000000; stroke-width: 1.5; stroke-linecap: square"/>
   </g>
   <g id="line2d_17">
    <path d="M 86.198525 224.645309 
L 86.208696 224.416668 
L 86.217496 224.187527 
L 86.224912 223.95785 
L 86.230927 223.727601 
L 86.235527 223.496744 
L 86.238697 223.265242 
L 86.240419 223.033057 
L 86.240679 222.800152 
L 86.239458 222.566485 
L 86.236741 222.332017 
L 86.232509 222.096707 
L 86.226745 221.860511 
L 86.21943 221.623386 
L 86.210545 221.385288 
L 86.200072 221.146171 
L 86.18799 220.905987 
L 86.174279 220.664689 
L 86.158918 220.422226 
L 86.141887 220.178548 
L 86.123162 219.933601 
L 86.102722 219.687332 
L 86.080544 219.439685 
L 86.056603 219.190602 
L 86.030876 218.940023 
L 86.003337 218.687888 
L 85.973961 218.434133 
L 85.942721 218.178693 
L 85.909589 217.921498 
L 85.874538 217.66248 
L 85.837539 217.401566 
L 85.798561 217.138679 
L 85.757575 216.873743 
L 85.714548 216.606675 
L 85.669448 216.337392 
L 85.62224 216.065805 
L 85.572891 215.791824 
L 85.521365 215.515353 
L 85.467623 215.236294 
L 85.411628 214.954544 
L 85.35334 214.669994 
L 85.292718 214.382533 
L 85.22972 214.092042 
L 85.1643 213.798399 
L 85.096414 213.501474 
L 85.026015 213.201133 
L 84.953052 212.897234 
L 84.877475 212.589627 
L 84.799231 212.278157 
L 84.718265 211.962659 
L 84.63452 211.642958 
L 84.547935 211.318871 
L 84.45845 210.990206 
L 84.365998 210.656758 
L 84.270512 210.318309 
L 84.171922 209.974631 
L 84.070153 209.625478 
L 83.965129 209.270592 
L 83.856769 208.909697 
L 83.744988 208.542499 
L 83.629697 208.168683 
L 83.510802 207.787912 
L 83.388207 207.399827 
L 83.261806 207.004041 
L 83.131492 206.600136 
L 82.997149 206.187663 
L 82.858655 205.766137 
L 82.715883 205.335033 
L 82.568695 204.893779 
L 82.416947 204.441757 
L 82.260485 203.978287 
L 82.099144 203.502629 
L 81.932749 203.013965 
L 81.761112 202.5114 
L 81.584032 201.993941 
L 81.401292 201.460486 
L 81.212658 200.909808 
L 81.017877 200.340532 
L 80.816675 199.751109 
L 80.608754 199.139791 
L 80.393786 198.504585 
L 80.171413 197.843212 
L 79.94124 197.15304 
L 79.702828 196.431009 
L 79.45569 195.673532 
L 79.199277 194.87636 
L 78.932969 194.034396 
L 78.656061 193.141456 
L 78.367739 192.189924 
L 78.067059 191.170239 
L 77.752903 190.070167 
L 77.423934 188.873644 
L 77.078516 187.558915 
L 76.7146 186.095359 
L 76.329533 184.437624 
L 75.919727 182.51377 
L 75.480023 180.197718 
L 75.002237 177.230514 
L 74.470831 172.890536 
L 73.832727 158.238897 
" clip-path="url(#p161c50feb5)" style="fill: none; stroke: #000000; stroke-width: 1.5; stroke-linecap: square"/>
   </g>
   <g id="patch_3">
    <path d="M 57.6 307.584 
L 57.6 41.472 
" style="fill: none; stroke: #000000; stroke-width: 0.8; stroke-linejoin: miter; stroke-linecap: square"/>
   </g>
   <g id="patch_4">
    <path d="M 414.72 307.584 
L 414.72 41.472 
" style="fill: none; stroke: #000000; stroke-width: 0.8; stroke-linejoin: miter; stroke-linecap: square"/>
   </g>
   <g id="patch_5">
    <path d="M 57.6 307.584 
L 414.72 307.584 
" style="fill: none; stroke: #000000; stroke-width: 0.8; stroke-linejoin: miter; stroke-linecap: square"/>
   </g>
   <g id="patch_6">
    <path d="M 57.6 41.472 
L 414.72 41.472 
" style="fill: none; stroke: #000000; stroke-width: 0.8; stroke-linejoin: miter; stroke-linecap: square"/>
   </g>
   <g id="text_14">
    <!-- Transition to the Steady State -->
    <g transform="translate(146.879063 35.472) scale(0.12 -0.12)">
     <defs>
      <path id="DejaVuSans-54" d="M -19 4666 
L 3928 4666 
L 3928 4134 
L 2272 4134 
L 2272 0 
L 1638 0 
L 1638 4134 
L -19 4134 
L -19 4666 
z
" transform="scale(0.015625)"/>
      <path id="DejaVuSans-72" d="M 2631 2963 
Q 2534 3019 2420 3045 
Q 2306 3072 2169 3072 
Q 1681 3072 1420 2755 
Q 1159 2438 1159 1844 
L 1159 0 
L 581 0 
L 581 3500 
L 1159 3500 
L 1159 2956 
Q 1341 3275 1631 3429 
Q 1922 3584 2338 3584 
Q 2397 3584 2469 3576 
Q 2541 3569 2628 3553 
L 2631 2963 
z
" transform="scale(0.015625)"/>
      <path id="DejaVuSans-61" d="M 2194 1759 
Q 1497 1759 1228 1600 
Q 959 1441 959 1056 
Q 959 750 1161 570 
Q 1363 391 1709 391 
Q 2188 391 2477 730 
Q 2766 1069 2766 1631 
L 2766 1759 
L 2194 1759 
z
M 3341 1997 
L 3341 0 
L 2766 0 
L 2766 531 
Q 2569 213 2275 61 
Q 1981 -91 1556 -91 
Q 1019 -91 701 211 
Q 384 513 384 1019 
Q 384 1609 779 1909 
Q 1175 2209 1959 2209 
L 2766 2209 
L 2766 2266 
Q 2766 2663 2505 2880 
Q 2244 3097 1772 3097 
Q 1472 3097 1187 3025 
Q 903 2953 641 2809 
L 641 3341 
Q 956 3463 1253 3523 
Q 1550 3584 1831 3584 
Q 2591 3584 2966 3190 
Q 3341 2797 3341 1997 
z
" transform="scale(0.015625)"/>
      <path id="DejaVuSans-6e" d="M 3513 2113 
L 3513 0 
L 2938 0 
L 2938 2094 
Q 2938 2591 2744 2837 
Q 2550 3084 2163 3084 
Q 1697 3084 1428 2787 
Q 1159 2491 1159 1978 
L 1159 0 
L 581 0 
L 581 3500 
L 1159 3500 
L 1159 2956 
Q 1366 3272 1645 3428 
Q 1925 3584 2291 3584 
Q 2894 3584 3203 3211 
Q 3513 2838 3513 2113 
z
" transform="scale(0.015625)"/>
      <path id="DejaVuSans-73" d="M 2834 3397 
L 2834 2853 
Q 2591 2978 2328 3040 
Q 2066 3103 1784 3103 
Q 1356 3103 1142 2972 
Q 928 2841 928 2578 
Q 928 2378 1081 2264 
Q 1234 2150 1697 2047 
L 1894 2003 
Q 2506 1872 2764 1633 
Q 3022 1394 3022 966 
Q 3022 478 2636 193 
Q 2250 -91 1575 -91 
Q 1294 -91 989 -36 
Q 684 19 347 128 
L 347 722 
Q 666 556 975 473 
Q 1284 391 1588 391 
Q 1994 391 2212 530 
Q 2431 669 2431 922 
Q 2431 1156 2273 1281 
Q 2116 1406 1581 1522 
L 1381 1569 
Q 847 1681 609 1914 
Q 372 2147 372 2553 
Q 372 3047 722 3315 
Q 1072 3584 1716 3584 
Q 2034 3584 2315 3537 
Q 2597 3491 2834 3397 
z
" transform="scale(0.015625)"/>
      <path id="DejaVuSans-69" d="M 603 3500 
L 1178 3500 
L 1178 0 
L 603 0 
L 603 3500 
z
M 603 4863 
L 1178 4863 
L 1178 4134 
L 603 4134 
L 603 4863 
z
" transform="scale(0.015625)"/>
      <path id="DejaVuSans-74" d="M 1172 4494 
L 1172 3500 
L 2356 3500 
L 2356 3053 
L 1172 3053 
L 1172 1153 
Q 1172 725 1289 603 
Q 1406 481 1766 481 
L 2356 481 
L 2356 0 
L 1766 0 
Q 1100 0 847 248 
Q 594 497 594 1153 
L 594 3053 
L 172 3053 
L 172 3500 
L 594 3500 
L 594 4494 
L 1172 4494 
z
" transform="scale(0.015625)"/>
      <path id="DejaVuSans-6f" d="M 1959 3097 
Q 1497 3097 1228 2736 
Q 959 2375 959 1747 
Q 959 1119 1226 758 
Q 1494 397 1959 397 
Q 2419 397 2687 759 
Q 2956 1122 2956 1747 
Q 2956 2369 2687 2733 
Q 2419 3097 1959 3097 
z
M 1959 3584 
Q 2709 3584 3137 3096 
Q 3566 2609 3566 1747 
Q 3566 888 3137 398 
Q 2709 -91 1959 -91 
Q 1206 -91 779 398 
Q 353 888 353 1747 
Q 353 2609 779 3096 
Q 1206 3584 1959 3584 
z
" transform="scale(0.015625)"/>
      <path id="DejaVuSans-20" transform="scale(0.015625)"/>
      <path id="DejaVuSans-68" d="M 3513 2113 
L 3513 0 
L 2938 0 
L 2938 2094 
Q 2938 2591 2744 2837 
Q 2550 3084 2163 3084 
Q 1697 3084 1428 2787 
Q 1159 2491 1159 1978 
L 1159 0 
L 581 0 
L 581 4863 
L 1159 4863 
L 1159 2956 
Q 1366 3272 1645 3428 
Q 1925 3584 2291 3584 
Q 2894 3584 3203 3211 
Q 3513 2838 3513 2113 
z
" transform="scale(0.015625)"/>
      <path id="DejaVuSans-65" d="M 3597 1894 
L 3597 1613 
L 953 1613 
Q 991 1019 1311 708 
Q 1631 397 2203 397 
Q 2534 397 2845 478 
Q 3156 559 3463 722 
L 3463 178 
Q 3153 47 2828 -22 
Q 2503 -91 2169 -91 
Q 1331 -91 842 396 
Q 353 884 353 1716 
Q 353 2575 817 3079 
Q 1281 3584 2069 3584 
Q 2775 3584 3186 3129 
Q 3597 2675 3597 1894 
z
M 3022 2063 
Q 3016 2534 2758 2815 
Q 2500 3097 2075 3097 
Q 1594 3097 1305 2825 
Q 1016 2553 972 2059 
L 3022 2063 
z
" transform="scale(0.015625)"/>
      <path id="DejaVuSans-53" d="M 3425 4513 
L 3425 3897 
Q 3066 4069 2747 4153 
Q 2428 4238 2131 4238 
Q 1616 4238 1336 4038 
Q 1056 3838 1056 3469 
Q 1056 3159 1242 3001 
Q 1428 2844 1947 2747 
L 2328 2669 
Q 3034 2534 3370 2195 
Q 3706 1856 3706 1288 
Q 3706 609 3251 259 
Q 2797 -91 1919 -91 
Q 1588 -91 1214 -16 
Q 841 59 441 206 
L 441 856 
Q 825 641 1194 531 
Q 1563 422 1919 422 
Q 2459 422 2753 634 
Q 3047 847 3047 1241 
Q 3047 1584 2836 1778 
Q 2625 1972 2144 2069 
L 1759 2144 
Q 1053 2284 737 2584 
Q 422 2884 422 3419 
Q 422 4038 858 4394 
Q 1294 4750 2059 4750 
Q 2388 4750 2728 4690 
Q 3069 4631 3425 4513 
z
" transform="scale(0.015625)"/>
      <path id="DejaVuSans-64" d="M 2906 2969 
L 2906 4863 
L 3481 4863 
L 3481 0 
L 2906 0 
L 2906 525 
Q 2725 213 2448 61 
Q 2172 -91 1784 -91 
Q 1150 -91 751 415 
Q 353 922 353 1747 
Q 353 2572 751 3078 
Q 1150 3584 1784 3584 
Q 2172 3584 2448 3432 
Q 2725 3281 2906 2969 
z
M 947 1747 
Q 947 1113 1208 752 
Q 1469 391 1925 391 
Q 2381 391 2643 752 
Q 2906 1113 2906 1747 
Q 2906 2381 2643 2742 
Q 2381 3103 1925 3103 
Q 1469 3103 1208 2742 
Q 947 2381 947 1747 
z
" transform="scale(0.015625)"/>
      <path id="DejaVuSans-79" d="M 2059 -325 
Q 1816 -950 1584 -1140 
Q 1353 -1331 966 -1331 
L 506 -1331 
L 506 -850 
L 844 -850 
Q 1081 -850 1212 -737 
Q 1344 -625 1503 -206 
L 1606 56 
L 191 3500 
L 800 3500 
L 1894 763 
L 2988 3500 
L 3597 3500 
L 2059 -325 
z
" transform="scale(0.015625)"/>
     </defs>
     <use xlink:href="#DejaVuSans-54"/>
     <use xlink:href="#DejaVuSans-72" transform="translate(46.333984 0)"/>
     <use xlink:href="#DejaVuSans-61" transform="translate(87.447266 0)"/>
     <use xlink:href="#DejaVuSans-6e" transform="translate(148.726562 0)"/>
     <use xlink:href="#DejaVuSans-73" transform="translate(212.105469 0)"/>
     <use xlink:href="#DejaVuSans-69" transform="translate(264.205078 0)"/>
     <use xlink:href="#DejaVuSans-74" transform="translate(291.988281 0)"/>
     <use xlink:href="#DejaVuSans-69" transform="translate(331.197266 0)"/>
     <use xlink:href="#DejaVuSans-6f" transform="translate(358.980469 0)"/>
     <use xlink:href="#DejaVuSans-6e" transform="translate(420.162109 0)"/>
     <use xlink:href="#DejaVuSans-20" transform="translate(483.541016 0)"/>
     <use xlink:href="#DejaVuSans-74" transform="translate(515.328125 0)"/>
     <use xlink:href="#DejaVuSans-6f" transform="translate(554.537109 0)"/>
     <use xlink:href="#DejaVuSans-20" transform="translate(615.71875 0)"/>
     <use xlink:href="#DejaVuSans-74" transform="translate(647.505859 0)"/>
     <use xlink:href="#DejaVuSans-68" transform="translate(686.714844 0)"/>
     <use xlink:href="#DejaVuSans-65" transform="translate(750.09375 0)"/>
     <use xlink:href="#DejaVuSans-20" transform="translate(811.617188 0)"/>
     <use xlink:href="#DejaVuSans-53" transform="translate(843.404297 0)"/>
     <use xlink:href="#DejaVuSans-74" transform="translate(906.880859 0)"/>
     <use xlink:href="#DejaVuSans-65" transform="translate(946.089844 0)"/>
     <use xlink:href="#DejaVuSans-61" transform="translate(1007.613281 0)"/>
     <use xlink:href="#DejaVuSans-64" transform="translate(1068.892578 0)"/>
     <use xlink:href="#DejaVuSans-79" transform="translate(1132.369141 0)"/>
     <use xlink:href="#DejaVuSans-20" transform="translate(1191.548828 0)"/>
     <use xlink:href="#DejaVuSans-53" transform="translate(1223.335938 0)"/>
     <use xlink:href="#DejaVuSans-74" transform="translate(1286.8125 0)"/>
     <use xlink:href="#DejaVuSans-61" transform="translate(1326.021484 0)"/>
     <use xlink:href="#DejaVuSans-74" transform="translate(1387.300781 0)"/>
     <use xlink:href="#DejaVuSans-65" transform="translate(1426.509766 0)"/>
    </g>
   </g>
   <g id="legend_1">
    <g id="patch_7">
     <path d="M 312.393438 206.095188 
L 407.72 206.095188 
Q 409.72 206.095188 409.72 204.095188 
L 409.72 144.960813 
Q 409.72 142.960813 407.72 142.960813 
L 312.393438 142.960813 
Q 310.393438 142.960813 310.393438 144.960813 
L 310.393438 204.095188 
Q 310.393438 206.095188 312.393438 206.095188 
z
" style="fill: #ffffff; opacity: 0.8; stroke: #cccccc; stroke-linejoin: miter"/>
    </g>
    <g id="line2d_18">
     <path d="M 314.393438 152.481125 
L 324.393438 152.481125 
L 334.393438 152.481125 
" style="fill: none; stroke: #1f77b4; stroke-width: 1.5; stroke-linecap: square"/>
    </g>
    <g id="text_15">
     <!-- $\dot{k}=0$ locus -->
     <g transform="translate(342.393438 155.981125) scale(0.1 -0.1)">
      <defs>
       <path id="DejaVuSans-307" d="M -1894 4863 
L -1319 4863 
L -1319 4134 
L -1894 4134 
L -1894 4863 
z
M -1600 3584 
L -1600 3584 
z
" transform="scale(0.015625)"/>
       <path id="DejaVuSans-Oblique-6b" d="M 1172 4863 
L 1747 4863 
L 1197 2028 
L 3169 3500 
L 3916 3500 
L 1716 1825 
L 3322 0 
L 2625 0 
L 1131 1709 
L 800 0 
L 225 0 
L 1172 4863 
z
" transform="scale(0.015625)"/>
       <path id="DejaVuSans-3d" d="M 678 2906 
L 4684 2906 
L 4684 2381 
L 678 2381 
L 678 2906 
z
M 678 1631 
L 4684 1631 
L 4684 1100 
L 678 1100 
L 678 1631 
z
" transform="scale(0.015625)"/>
       <path id="DejaVuSans-6c" d="M 603 4863 
L 1178 4863 
L 1178 0 
L 603 0 
L 603 4863 
z
" transform="scale(0.015625)"/>
       <path id="DejaVuSans-75" d="M 544 1381 
L 544 3500 
L 1119 3500 
L 1119 1403 
Q 1119 906 1312 657 
Q 1506 409 1894 409 
Q 2359 409 2629 706 
Q 2900 1003 2900 1516 
L 2900 3500 
L 3475 3500 
L 3475 0 
L 2900 0 
L 2900 538 
Q 2691 219 2414 64 
Q 2138 -91 1772 -91 
Q 1169 -91 856 284 
Q 544 659 544 1381 
z
M 1991 3584 
L 1991 3584 
z
" transform="scale(0.015625)"/>
      </defs>
      <use xlink:href="#DejaVuSans-307" transform="translate(61.071289 33.015625)"/>
      <use xlink:href="#DejaVuSans-Oblique-6b" transform="translate(0 0.53125)"/>
      <use xlink:href="#DejaVuSans-3d" transform="translate(77.392578 0.53125)"/>
      <use xlink:href="#DejaVuSans-30" transform="translate(180.664062 0.53125)"/>
      <use xlink:href="#DejaVuSans-20" transform="translate(244.287109 0.53125)"/>
      <use xlink:href="#DejaVuSans-6c" transform="translate(276.074219 0.53125)"/>
      <use xlink:href="#DejaVuSans-6f" transform="translate(303.857422 0.53125)"/>
      <use xlink:href="#DejaVuSans-63" transform="translate(365.039062 0.53125)"/>
      <use xlink:href="#DejaVuSans-75" transform="translate(420.019531 0.53125)"/>
      <use xlink:href="#DejaVuSans-73" transform="translate(483.398438 0.53125)"/>
     </g>
    </g>
    <g id="line2d_19">
     <path d="M 314.393438 167.15925 
L 324.393438 167.15925 
L 334.393438 167.15925 
" style="fill: none; stroke-dasharray: 5.55,2.4; stroke-dashoffset: 0; stroke: #1f77b4; stroke-width: 1.5"/>
    </g>
    <g id="text_16">
     <!-- $\dot{c}=0$ locus -->
     <g transform="translate(342.393438 170.65925) scale(0.1 -0.1)">
      <defs>
       <path id="DejaVuSans-Oblique-63" d="M 3431 3366 
L 3316 2797 
Q 3109 2947 2876 3022 
Q 2644 3097 2394 3097 
Q 2119 3097 1870 3000 
Q 1622 2903 1453 2725 
Q 1184 2453 1037 2087 
Q 891 1722 891 1331 
Q 891 859 1127 628 
Q 1363 397 1844 397 
Q 2081 397 2348 469 
Q 2616 541 2906 684 
L 2797 116 
Q 2547 13 2283 -39 
Q 2019 -91 1741 -91 
Q 1044 -91 669 257 
Q 294 606 294 1253 
Q 294 1797 489 2255 
Q 684 2713 1069 3078 
Q 1331 3328 1684 3456 
Q 2038 3584 2456 3584 
Q 2700 3584 2940 3529 
Q 3181 3475 3431 3366 
z
" transform="scale(0.015625)"/>
      </defs>
      <use xlink:href="#DejaVuSans-307" transform="translate(59.338867 13.015625)"/>
      <use xlink:href="#DejaVuSans-Oblique-63" transform="translate(0 0.515625)"/>
      <use xlink:href="#DejaVuSans-3d" transform="translate(74.462891 0.515625)"/>
      <use xlink:href="#DejaVuSans-30" transform="translate(177.734375 0.515625)"/>
      <use xlink:href="#DejaVuSans-20" transform="translate(241.357422 0.515625)"/>
      <use xlink:href="#DejaVuSans-6c" transform="translate(273.144531 0.515625)"/>
      <use xlink:href="#DejaVuSans-6f" transform="translate(300.927734 0.515625)"/>
      <use xlink:href="#DejaVuSans-63" transform="translate(362.109375 0.515625)"/>
      <use xlink:href="#DejaVuSans-75" transform="translate(417.089844 0.515625)"/>
      <use xlink:href="#DejaVuSans-73" transform="translate(480.46875 0.515625)"/>
     </g>
    </g>
    <g id="line2d_20">
     <path d="M 314.393438 181.837375 
L 324.393438 181.837375 
L 334.393438 181.837375 
" style="fill: none; stroke: #ff7f0e; stroke-width: 1.5; stroke-linecap: square"/>
    </g>
    <g id="text_17">
     <!-- Saddle path -->
     <g transform="translate(342.393438 185.337375) scale(0.1 -0.1)">
      <defs>
       <path id="DejaVuSans-70" d="M 1159 525 
L 1159 -1331 
L 581 -1331 
L 581 3500 
L 1159 3500 
L 1159 2969 
Q 1341 3281 1617 3432 
Q 1894 3584 2278 3584 
Q 2916 3584 3314 3078 
Q 3713 2572 3713 1747 
Q 3713 922 3314 415 
Q 2916 -91 2278 -91 
Q 1894 -91 1617 61 
Q 1341 213 1159 525 
z
M 3116 1747 
Q 3116 2381 2855 2742 
Q 2594 3103 2138 3103 
Q 1681 3103 1420 2742 
Q 1159 2381 1159 1747 
Q 1159 1113 1420 752 
Q 1681 391 2138 391 
Q 2594 391 2855 752 
Q 3116 1113 3116 1747 
z
" transform="scale(0.015625)"/>
      </defs>
      <use xlink:href="#DejaVuSans-53"/>
      <use xlink:href="#DejaVuSans-61" transform="translate(63.476562 0)"/>
      <use xlink:href="#DejaVuSans-64" transform="translate(124.755859 0)"/>
      <use xlink:href="#DejaVuSans-64" transform="translate(188.232422 0)"/>
      <use xlink:href="#DejaVuSans-6c" transform="translate(251.708984 0)"/>
      <use xlink:href="#DejaVuSans-65" transform="translate(279.492188 0)"/>
      <use xlink:href="#DejaVuSans-20" transform="translate(341.015625 0)"/>
      <use xlink:href="#DejaVuSans-70" transform="translate(372.802734 0)"/>
      <use xlink:href="#DejaVuSans-61" transform="translate(436.279297 0)"/>
      <use xlink:href="#DejaVuSans-74" transform="translate(497.558594 0)"/>
      <use xlink:href="#DejaVuSans-68" transform="translate(536.767578 0)"/>
     </g>
    </g>
    <g id="line2d_21">
     <g>
      <use xlink:href="#mf18fa11ed3" x="324.393438" y="196.5155" style="fill: #ff0000; stroke: #ff0000; stroke-linejoin: bevel"/>
     </g>
    </g>
    <g id="text_18">
     <!-- Steady state -->
     <g transform="translate(342.393438 200.0155) scale(0.1 -0.1)">
      <use xlink:href="#DejaVuSans-53"/>
      <use xlink:href="#DejaVuSans-74" transform="translate(63.476562 0)"/>
      <use xlink:href="#DejaVuSans-65" transform="translate(102.685547 0)"/>
      <use xlink:href="#DejaVuSans-61" transform="translate(164.208984 0)"/>
      <use xlink:href="#DejaVuSans-64" transform="translate(225.488281 0)"/>
      <use xlink:href="#DejaVuSans-79" transform="translate(288.964844 0)"/>
      <use xlink:href="#DejaVuSans-20" transform="translate(348.144531 0)"/>
      <use xlink:href="#DejaVuSans-73" transform="translate(379.931641 0)"/>
      <use xlink:href="#DejaVuSans-74" transform="translate(432.03125 0)"/>
      <use xlink:href="#DejaVuSans-61" transform="translate(471.240234 0)"/>
      <use xlink:href="#DejaVuSans-74" transform="translate(532.519531 0)"/>
      <use xlink:href="#DejaVuSans-65" transform="translate(571.728516 0)"/>
     </g>
    </g>
   </g>
  </g>
 </g>
 <defs>
  <clipPath id="p161c50feb5">
   <rect x="57.6" y="41.472" width="357.12" height="266.112"/>
  </clipPath>
 </defs>
</svg>
