<?xml version="1.0" encoding="utf-8" standalone="no"?>
<!DOCTYPE svg PUBLIC "-//W3C//DTD SVG 1.1//EN"
  "http://www.w3.org/Graphics/SVG/1.1/DTD/svg11.dtd">
<svg xmlns:xlink="http://www.w3.org/1999/xlink" width="460.8pt" height="345.6pt" viewBox="0 0 460.8 345.6" xmlns="http://www.w3.org/2000/svg" version="1.1">
 <metadata>
  <rdf:RDF xmlns:dc="http://purl.org/dc/elements/1.1/" xmlns:cc="http://creativecommons.org/ns#" xmlns:rdf="http://www.w3.org/1999/02/22-rdf-syntax-ns#">
   <cc:Work>
    <dc:type rdf:resource="http://purl.org/dc/dcmitype/StillImage"/>
    <dc:format>image/svg+xml</dc:format>
    <dc:creator>
     <cc:Agent>
      <dc:title>Matplotlib v3.10.6, https://matplotlib.org/</dc:title>
     </cc:Agent>
    </dc:creator>
   </cc:Work>
  </rdf:RDF>
 </metadata>
 <defs>
  <style type="text/css">*{stroke-linejoin: round; stroke-linecap: butt}</style>
 </defs>
 <g id="figure_1">
  <g id="patch_1">
   <path d="M 0 345.6 
L 460.8 345.6 
L 460.8 0 
L 0 0 
z
" style="fill: #ffffff"/>
  </g>
  <g id="axes_1">
   <g id="patch_2">
    <path d="M 57.6 307.584 
L 414.72 307.584 
L 414.72 41.472 
L 57.6 41.472 
z
" style="fill: #ffffff"/>
   </g>
   <g id="Quiver_1">
    <path d="M 71.146053 291.500941 
L 73.012567 283.21032 
L 71.074476 283.689133 
L 75.648403 275.567421 
L 76.30047 284.865691 
L 74.754565 283.602506 
L 72.888051 291.893127 
L 71.146053 291.500941 
" clip-path="url(#p2f2b1ec705)" style="fill: #471365; fill-opacity: 0.3"/>
    <path d="M 95.078522 282.754254 
L 103.576642 282.739014 
L 102.680641 280.955018 
L 111.61343 283.617402 
L 102.690248 286.311809 
L 103.579844 284.524611 
L 95.081725 284.539852 
L 95.078522 282.754254 
" clip-path="url(#p2f2b1ec705)" style="fill: #481d6f; fill-opacity: 0.3"/>
    <path d="M 124.597711 282.707138 
L 133.095779 282.740339 
L 132.209962 280.951264 
L 141.12743 283.664523 
L 132.189034 286.308023 
L 133.088803 284.525925 
L 124.590735 284.492725 
L 124.597711 282.707138 
" clip-path="url(#p2f2b1ec705)" style="fill: #481f70; fill-opacity: 0.3"/>
    <path d="M 154.114057 282.68685 
L 162.612018 282.740918 
L 161.730597 280.949674 
L 170.641375 283.684823 
L 161.696515 286.306366 
L 162.600658 284.526482 
L 154.102696 284.472414 
L 154.114057 282.68685 
" clip-path="url(#p2f2b1ec705)" style="fill: #481d6f; fill-opacity: 0.3"/>
    <path d="M 183.630012 282.670345 
L 192.127848 282.741394 
L 191.250008 280.948392 
L 200.155303 283.701341 
L 191.205223 286.305005 
L 192.11292 284.526931 
L 183.615084 284.455882 
L 183.630012 282.670345 
" clip-path="url(#p2f2b1ec705)" style="fill: #481b6d; fill-opacity: 0.3"/>
    <path d="M 213.146227 282.651935 
L 221.643884 282.741929 
L 220.770043 280.946974 
L 229.669178 283.71977 
L 220.713315 286.303474 
L 221.624974 284.527429 
L 213.127317 284.437435 
L 213.146227 282.651935 
" clip-path="url(#p2f2b1ec705)" style="fill: #48186a; fill-opacity: 0.3"/>
    <path d="M 242.663252 282.627189 
L 251.160601 282.742655 
L 250.292144 280.945089 
L 259.182928 283.744548 
L 250.219361 286.301395 
L 251.136339 284.52809 
L 242.638991 284.412625 
L 242.663252 282.627189 
" clip-path="url(#p2f2b1ec705)" style="fill: #481467; fill-opacity: 0.3"/>
    <path d="M 272.182115 282.588417 
L 280.678828 282.743809 
L 279.818827 280.942182 
L 288.696359 283.783387 
L 279.720876 286.298087 
L 280.646177 284.529111 
L 272.149465 284.373719 
L 272.182115 282.588417 
" clip-path="url(#p2f2b1ec705)" style="fill: #471063; fill-opacity: 0.3"/>
    <path d="M 301.705824 282.514728 
L 310.200808 282.746059 
L 309.356946 280.936818 
L 318.208727 283.857258 
L 309.211126 286.291632 
L 310.152202 284.530997 
L 301.657217 284.299666 
L 301.705824 282.514728 
" clip-path="url(#p2f2b1ec705)" style="fill: #460b5e; fill-opacity: 0.3"/>
    <path d="M 331.249875 282.312272 
L 339.736592 282.752621 
L 338.937515 280.923157 
L 347.714735 284.060582 
L 338.659942 286.272761 
L 339.644067 284.535822 
L 331.15735 284.095474 
L 331.249875 282.312272 
" clip-path="url(#p2f2b1ec705)" style="fill: #450559; fill-opacity: 0.3"/>
    <path d="M 361.893734 279.271527 
L 369.566101 282.925711 
L 369.52786 280.929716 
L 376.436615 287.186881 
L 367.224444 285.765994 
L 368.798296 284.537804 
L 361.125929 280.88362 
L 361.893734 279.271527 
" clip-path="url(#p2f2b1ec705)" style="fill: #440154; fill-opacity: 0.3"/>
    <path d="M 406.795131 283.970403 
L 398.316008 284.538504 
L 399.326178 286.260426 
L 390.239098 284.184855 
L 398.968075 280.915609 
L 398.19664 282.756898 
L 406.675763 282.188797 
L 406.795131 283.970403 
" clip-path="url(#p2f2b1ec705)" style="fill: #450457; fill-opacity: 0.3"/>
    <path d="M 73.699753 271.030972 
L 72.922499 262.568458 
L 71.22604 263.62083 
L 73.076644 254.48528 
L 76.560388 263.130888 
L 74.700615 262.405144 
L 75.477869 270.867658 
L 73.699753 271.030972 
" clip-path="url(#p2f2b1ec705)" style="fill: #472e7c; fill-opacity: 0.3"/>
    <path d="M 95.074122 261.881808 
L 103.572051 261.822915 
L 102.666898 260.043545 
L 111.613245 262.660009 
L 102.704021 265.400216 
L 103.584425 263.608472 
L 95.086496 263.667365 
L 95.074122 261.881808 
" clip-path="url(#p2f2b1ec705)" style="fill: #481668; fill-opacity: 0.3"/>
    <path d="M 124.608227 261.70267 
L 133.105436 261.828009 
L 132.239069 260.029435 
L 141.126594 262.839222 
L 132.160062 265.385652 
L 133.0791 263.613414 
L 124.581891 263.488076 
L 124.608227 261.70267 
" clip-path="url(#p2f2b1ec705)" style="fill: #481769; fill-opacity: 0.3"/>
    <path d="M 154.132409 261.623403 
L 162.628021 261.830401 
L 161.778979 260.023584 
L 170.63909 262.918657 
L 161.648498 265.378794 
L 162.584527 263.615471 
L 154.088915 263.408473 
L 154.132409 261.623403 
" clip-path="url(#p2f2b1ec705)" style="fill: #481668; fill-opacity: 0.3"/>
    <path d="M 183.656455 261.550554 
L 192.149904 261.832674 
L 191.316874 260.018419 
L 200.151036 262.991734 
L 191.13904 265.372266 
L 192.090626 263.61729 
L 183.597176 263.33517 
L 183.656455 261.550554 
" clip-path="url(#p2f2b1ec705)" style="fill: #471365; fill-opacity: 0.3"/>
    <path d="M 213.184634 261.454866 
L 221.674226 261.83577 
L 220.862358 260.011947 
L 229.661334 263.087827 
L 220.622255 265.363364 
L 221.594192 263.619575 
L 213.1046 263.238671 
L 213.184634 261.454866 
" clip-path="url(#p2f2b1ec705)" style="fill: #471063; fill-opacity: 0.3"/>
    <path d="M 242.72485 261.294923 
L 251.205406 261.841224 
L 250.42924 260.001924 
L 259.166593 263.248719 
L 250.084879 265.347644 
L 251.090619 263.623131 
L 242.610063 263.07683 
L 242.72485 261.294923 
" clip-path="url(#p2f2b1ec705)" style="fill: #460b5e; fill-opacity: 0.3"/>
    <path d="M 272.309315 260.936318 
L 280.757673 261.854742 
L 280.063079 259.983113 
L 288.649322 263.610707 
L 279.48415 265.308537 
L 280.564697 263.629884 
L 272.116338 262.711459 
L 272.309315 260.936318 
" clip-path="url(#p2f2b1ec705)" style="fill: #46075a; fill-opacity: 0.3"/>
    <path d="M 302.359787 259.311782 
L 310.441344 261.939844 
L 310.144509 259.965674 
L 317.80656 265.273778 
L 308.487909 265.059885 
L 309.889144 263.637914 
L 301.807588 261.009852 
L 302.359787 259.311782 
" clip-path="url(#p2f2b1ec705)" style="fill: #440256; fill-opacity: 0.3"/>
    <path d="M 347.575843 260.913261 
L 339.52609 263.637184 
L 340.944126 265.042401 
L 331.628675 265.367028 
L 339.227101 259.968238 
L 338.953749 261.945796 
L 347.003501 259.221873 
L 347.575843 260.913261 
" clip-path="url(#p2f2b1ec705)" style="fill: #440256; fill-opacity: 0.3"/>
    <path d="M 377.287903 262.686216 
L 368.842372 263.630285 
L 369.92801 265.30565 
L 360.757726 263.635653 
L 369.332916 259.982008 
L 368.644007 261.855738 
L 377.089538 260.911669 
L 377.287903 262.686216 
" clip-path="url(#p2f2b1ec705)" style="fill: #46075a; fill-opacity: 0.3"/>
    <path d="M 406.795131 263.055473 
L 398.316008 263.623574 
L 399.326178 265.345496 
L 390.239098 263.269925 
L 398.968075 260.000679 
L 398.19664 261.841968 
L 406.675763 261.273867 
L 406.795131 263.055473 
" clip-path="url(#p2f2b1ec705)" style="fill: #470d60; fill-opacity: 0.3"/>
    <path d="M 74.272154 250.105486 
L 72.914415 241.716516 
L 71.294394 242.883132 
L 72.511969 233.641891 
L 76.582382 242.02728 
L 74.677078 241.431233 
L 76.034817 249.820203 
L 74.272154 250.105486 
" clip-path="url(#p2f2b1ec705)" style="fill: #3f4889; fill-opacity: 0.3"/>
    <path d="M 95.064745 241.065606 
L 103.561367 240.905362 
L 102.635056 239.136914 
L 111.611974 241.646489 
L 102.736066 244.492762 
L 103.595037 242.690645 
L 95.098415 242.850888 
L 95.064745 241.065606 
" clip-path="url(#p2f2b1ec705)" style="fill: #470d60; fill-opacity: 0.3"/>
    <path d="M 124.634157 240.595394 
L 133.126126 240.919031 
L 132.301975 239.100725 
L 141.121496 242.117189 
L 132.097971 244.453639 
L 133.058124 242.703335 
L 124.566156 242.379699 
L 124.634157 240.595394 
" clip-path="url(#p2f2b1ec705)" style="fill: #470e61; fill-opacity: 0.3"/>
    <path d="M 154.183456 240.375658 
L 162.663721 240.926447 
L 161.888528 239.086736 
L 170.624161 242.338155 
L 161.541338 244.432273 
L 162.547991 242.708293 
L 154.067726 242.157504 
L 154.183456 240.375658 
" clip-path="url(#p2f2b1ec705)" style="fill: #470d60; fill-opacity: 0.3"/>
    <path d="M 183.746578 240.118015 
L 192.205253 240.935993 
L 191.488469 239.072748 
L 200.117209 242.598066 
L 190.972857 244.404676 
L 192.033382 242.713302 
L 183.574707 241.895325 
L 183.746578 240.118015 
" clip-path="url(#p2f2b1ec705)" style="fill: #460b5e; fill-opacity: 0.3"/>
    <path d="M 213.375438 239.635914 
L 221.770356 240.956377 
L 221.165851 239.053739 
L 229.569238 243.086866 
L 220.333497 244.345477 
L 221.492905 242.72029 
L 213.097987 241.399827 
L 213.375438 239.635914 
" clip-path="url(#p2f2b1ec705)" style="fill: #46075a; fill-opacity: 0.3"/>
    <path d="M 243.475087 238.093941 
L 251.444172 241.045543 
L 251.227134 239.061014 
L 258.669053 244.673576 
L 249.366591 244.084328 
L 250.823991 242.719981 
L 242.854906 239.768379 
L 243.475087 238.093941 
" clip-path="url(#p2f2b1ec705)" style="fill: #440256; fill-opacity: 0.3"/>
    <path d="M 286.448591 236.064392 
L 280.963614 242.555409 
L 282.903728 243.025959 
L 275.095493 248.116586 
L 278.812114 239.568502 
L 279.599743 241.402923 
L 285.08472 234.911907 
L 286.448591 236.064392 
" clip-path="url(#p2f2b1ec705)" style="fill: #440154; fill-opacity: 0.3"/>
    <path d="M 318.201939 240.822639 
L 309.919315 242.724324 
L 311.18905 244.264854 
L 301.888096 243.652256 
L 309.990323 239.0439 
L 309.519739 240.984006 
L 317.802364 239.082321 
L 318.201939 240.822639 
" clip-path="url(#p2f2b1ec705)" style="fill: #450559; fill-opacity: 0.3"/>
    <path d="M 347.772427 241.645224 
L 339.34218 242.717235 
L 340.453095 244.375947 
L 331.258544 242.84518 
L 339.777353 239.061939 
L 339.116932 240.945899 
L 347.547179 239.873888 
L 347.772427 241.645224 
" clip-path="url(#p2f2b1ec705)" style="fill: #460b5e; fill-opacity: 0.3"/>
    <path d="M 377.286303 241.968436 
L 368.820761 242.711996 
L 369.866372 244.412631 
L 360.738261 242.525676 
L 369.397668 239.076375 
L 368.664527 240.933245 
L 377.130068 240.189684 
L 377.286303 241.968436 
" clip-path="url(#p2f2b1ec705)" style="fill: #471063; fill-opacity: 0.3"/>
    <path d="M 406.795131 242.140543 
L 398.316008 242.708644 
L 399.326178 244.430566 
L 390.239098 242.354996 
L 398.968075 239.085749 
L 398.19664 240.927039 
L 406.675763 240.358937 
L 406.795131 242.140543 
" clip-path="url(#p2f2b1ec705)" style="fill: #481668; fill-opacity: 0.3"/>
    <path d="M 74.519454 229.173769 
L 72.912264 220.828997 
L 71.327736 222.043383 
L 72.269312 212.769956 
L 76.587865 221.03029 
L 74.66564 220.4913 
L 76.27283 228.836071 
L 74.519454 229.173769 
" clip-path="url(#p2f2b1ec705)" style="fill: #34608d; fill-opacity: 0.3"/>
    <path d="M 95.035878 220.634794 
L 103.508705 219.979447 
L 102.480864 218.268014 
L 111.588826 220.249941 
L 102.893962 223.608862 
L 103.646404 221.75973 
L 95.173577 222.415076 
L 95.035878 220.634794 
" clip-path="url(#p2f2b1ec705)" style="fill: #450457; fill-opacity: 0.3"/>
    <path d="M 124.76918 218.974292 
L 133.201444 220.030322 
L 132.537454 218.147617 
L 141.063418 221.914705 
L 131.871785 223.462896 
L 132.979554 221.802081 
L 124.547291 220.746051 
L 124.76918 218.974292 
" clip-path="url(#p2f2b1ec705)" style="fill: #450559; fill-opacity: 0.3"/>
    <path d="M 154.550328 218.074731 
L 162.809902 220.07416 
L 162.362278 218.128629 
L 170.409481 222.832408 
L 161.101937 223.335052 
L 162.389788 221.809635 
L 154.130215 219.810206 
L 154.550328 218.074731 
" clip-path="url(#p2f2b1ec705)" style="fill: #450559; fill-opacity: 0.3"/>
    <path d="M 185.270392 215.854558 
L 192.548128 220.242363 
L 192.705492 218.252214 
L 198.968435 225.155731 
L 189.939638 222.839736 
L 191.626176 221.771537 
L 184.348441 217.383732 
L 185.270392 215.854558 
" clip-path="url(#p2f2b1ec705)" style="fill: #440256; fill-opacity: 0.3"/>
    <path d="M 226.61305 214.40747 
L 222.029982 221.563849 
L 224.015147 221.774991 
L 216.944738 227.848896 
L 219.504122 218.886053 
L 220.526307 220.600869 
L 225.109375 213.444491 
L 226.61305 214.40747 
" clip-path="url(#p2f2b1ec705)" style="fill: #440154; fill-opacity: 0.3"/>
    <path d="M 259.029586 219.065015 
L 250.986026 221.80717 
L 252.407242 223.20917 
L 243.09255 223.554905 
L 250.678724 218.138911 
L 250.409853 220.117084 
L 258.453413 217.374928 
L 259.029586 219.065015 
" clip-path="url(#p2f2b1ec705)" style="fill: #450559; fill-opacity: 0.3"/>
    <path d="M 288.718959 220.219722 
L 280.370522 221.807765 
L 281.58127 223.395074 
L 272.310027 222.432228 
L 280.580246 218.132636 
L 280.036848 220.053619 
L 288.385284 218.465576 
L 288.718959 220.219722 
" clip-path="url(#p2f2b1ec705)" style="fill: #460a5d; fill-opacity: 0.3"/>
    <path d="M 318.257679 220.696937 
L 309.831802 221.802767 
L 310.949364 223.457008 
L 301.748745 221.963148 
L 310.252304 218.145755 
L 309.599449 220.032349 
L 318.025326 218.926519 
L 318.257679 220.696937 
" clip-path="url(#p2f2b1ec705)" style="fill: #470e61; fill-opacity: 0.3"/>
    <path d="M 347.773638 220.95491 
L 339.31751 221.798811 
L 340.383215 223.486926 
L 331.233368 221.708354 
L 339.851261 218.156604 
L 339.140192 220.022037 
L 347.59632 219.178136 
L 347.773638 220.95491 
" clip-path="url(#p2f2b1ec705)" style="fill: #471365; fill-opacity: 0.3"/>
    <path d="M 377.284823 221.115869 
L 368.813941 221.795897 
L 369.846764 223.504328 
L 360.733066 221.548945 
L 369.418108 218.164707 
L 368.671056 220.016023 
L 377.141937 219.335995 
L 377.284823 221.115869 
" clip-path="url(#p2f2b1ec705)" style="fill: #48186a; fill-opacity: 0.3"/>
    <path d="M 406.795131 221.225613 
L 398.316008 221.793715 
L 399.326178 223.515636 
L 390.239098 221.440066 
L 398.968075 218.170819 
L 398.19664 220.012109 
L 406.675763 219.444008 
L 406.795131 221.225613 
" clip-path="url(#p2f2b1ec705)" style="fill: #481d6f; fill-opacity: 0.3"/>
    <path d="M 74.656994 208.24629 
L 72.91142 199.929364 
L 71.347282 201.169901 
L 72.134698 191.882114 
L 76.589857 200.069578 
L 74.658945 199.56259 
L 76.404519 207.879515 
L 74.656994 208.24629 
" clip-path="url(#p2f2b1ec705)" style="fill: #2b758e; fill-opacity: 0.3"/>
    <path d="M 111.476582 201.716396 
L 103.024119 200.836546 
L 103.727249 202.704985 
L 95.124536 199.116623 
L 104.281863 197.376973 
L 103.20899 199.060542 
L 111.661453 199.940392 
L 111.476582 201.716396 
" clip-path="url(#p2f2b1ec705)" style="fill: #450457; fill-opacity: 0.3"/>
    <path d="M 140.788004 197.46358 
L 133.008161 200.882981 
L 134.543972 202.15842 
L 125.292885 203.298774 
L 132.388552 197.254394 
L 132.289687 199.248306 
L 140.069531 195.828905 
L 140.788004 197.46358 
" clip-path="url(#p2f2b1ec705)" style="fill: #440256; fill-opacity: 0.3"/>
    <path d="M 170.270465 197.365875 
L 162.533443 200.881093 
L 164.084888 202.137467 
L 154.84859 203.391981 
L 161.86907 197.260434 
L 161.794837 199.255415 
L 169.531859 195.740197 
L 170.270465 197.365875 
" clip-path="url(#p2f2b1ec705)" style="fill: #450457; fill-opacity: 0.3"/>
    <path d="M 200.04863 198.374355 
L 191.932553 200.893793 
L 193.314591 202.334428 
L 183.993909 202.423324 
L 191.726463 197.218458 
L 191.403177 199.188469 
L 199.519254 196.669031 
L 200.04863 198.374355 
" clip-path="url(#p2f2b1ec705)" style="fill: #450559; fill-opacity: 0.3"/>
    <path d="M 229.669564 199.078985 
L 221.367548 200.894145 
L 222.62114 202.447839 
L 213.327084 201.738228 
L 221.476953 197.214662 
L 220.986153 199.149752 
L 229.288168 197.334593 
L 229.669564 199.078985 
" clip-path="url(#p2f2b1ec705)" style="fill: #460a5d; fill-opacity: 0.3"/>
    <path d="M 259.219227 199.516102 
L 250.833051 200.890995 
L 252.002977 202.508627 
L 242.759266 201.309952 
L 251.136314 197.222399 
L 250.544164 199.128919 
L 258.930339 197.754027 
L 259.219227 199.516102 
" clip-path="url(#p2f2b1ec705)" style="fill: #470d60; fill-opacity: 0.3"/>
    <path d="M 288.743987 199.798285 
L 280.31596 200.887614 
L 281.430281 202.54404 
L 272.232605 201.032166 
L 280.743623 197.231432 
L 280.087074 199.116744 
L 288.515101 198.027416 
L 288.743987 199.798285 
" clip-path="url(#p2f2b1ec705)" style="fill: #471365; fill-opacity: 0.3"/>
    <path d="M 318.259842 199.990809 
L 309.808852 200.884703 
L 310.884522 202.566486 
L 301.724317 200.842055 
L 310.321055 197.239403 
L 309.62103 199.109009 
L 318.07202 198.215115 
L 318.259842 199.990809 
" clip-path="url(#p2f2b1ec705)" style="fill: #481769; fill-opacity: 0.3"/>
    <path d="M 347.772444 200.128716 
L 339.307791 200.882317 
L 340.355418 202.58171 
L 331.225075 200.705583 
L 339.880385 197.246014 
L 339.149447 199.103752 
L 347.6141 198.350151 
L 347.772444 200.128716 
" clip-path="url(#p2f2b1ec705)" style="fill: #481b6d; fill-opacity: 0.3"/>
    <path d="M 377.283926 200.231522 
L 368.8106 200.880375 
L 369.837128 202.592595 
L 360.730688 200.603689 
L 369.428123 197.251432 
L 368.674265 199.099988 
L 377.147591 198.451134 
L 377.283926 200.231522 
" clip-path="url(#p2f2b1ec705)" style="fill: #482071; fill-opacity: 0.3"/>
    <path d="M 406.795131 200.310684 
L 398.316008 200.878785 
L 399.326178 202.600707 
L 390.239098 200.525136 
L 398.968075 197.25589 
L 398.19664 199.097179 
L 406.675763 198.529078 
L 406.795131 200.310684 
" clip-path="url(#p2f2b1ec705)" style="fill: #482576; fill-opacity: 0.3"/>
    <path d="M 74.744507 187.322173 
L 72.911015 179.024187 
L 71.360093 180.281207 
L 72.049175 170.985608 
L 76.59073 179.125465 
L 74.654561 178.63894 
L 76.488053 186.936926 
L 74.744507 187.322173 
" clip-path="url(#p2f2b1ec705)" style="fill: #228b8d; fill-opacity: 0.3"/>
    <path d="M 111.569207 180.293098 
L 103.078413 179.93999 
L 103.896248 181.761145 
L 95.08725 178.714088 
L 104.11883 176.408971 
L 103.152607 178.155932 
L 111.643401 178.50904 
L 111.569207 180.293098 
" clip-path="url(#p2f2b1ec705)" style="fill: #470d60; fill-opacity: 0.3"/>
    <path d="M 141.175463 179.016464 
L 132.731077 179.970724 
L 133.818736 181.644777 
L 124.646443 179.985846 
L 133.217218 176.321857 
L 132.530571 178.196417 
L 140.974957 177.242157 
L 141.175463 179.016464 
" clip-path="url(#p2f2b1ec705)" style="fill: #460a5d; fill-opacity: 0.3"/>
    <path d="M 170.678858 178.634787 
L 162.287185 179.975717 
L 163.450552 181.598072 
L 154.21177 180.361985 
L 162.605297 176.30838 
L 162.005433 178.212487 
L 170.397106 176.871557 
L 170.678858 178.634787 
" clip-path="url(#p2f2b1ec705)" style="fill: #460b5e; fill-opacity: 0.3"/>
    <path d="M 200.193822 178.653151 
L 191.799205 179.975521 
L 192.958982 181.600445 
L 183.722955 180.343931 
L 192.125425 176.308896 
L 191.521352 178.211672 
L 199.91597 176.889301 
L 200.193822 178.653151 
" clip-path="url(#p2f2b1ec705)" style="fill: #470e61; fill-opacity: 0.3"/>
    <path d="M 229.713333 178.787725 
L 221.298397 179.973948 
L 222.431702 181.617444 
L 213.21724 180.211492 
L 221.683966 176.313087 
L 221.049152 178.205829 
L 229.464088 177.019606 
L 229.713333 178.787725 
" clip-path="url(#p2f2b1ec705)" style="fill: #471365; fill-opacity: 0.3"/>
    <path d="M 259.230849 178.934274 
L 250.796308 179.971962 
L 251.900463 181.635182 
L 242.712219 180.067002 
L 251.246356 176.318468 
L 250.578272 178.199723 
L 259.012813 177.162036 
L 259.230849 178.934274 
" clip-path="url(#p2f2b1ec705)" style="fill: #481668; fill-opacity: 0.3"/>
    <path d="M 288.74581 179.063914 
L 280.296116 179.969968 
L 281.374204 181.650202 
L 272.211527 179.938954 
L 280.803072 176.323935 
L 280.105738 178.194546 
L 288.555433 177.288492 
L 288.74581 179.063914 
" clip-path="url(#p2f2b1ec705)" style="fill: #481a6c; fill-opacity: 0.3"/>
    <path d="M 318.259072 179.172172 
L 309.798297 179.968134 
L 310.854417 181.662262 
L 301.714798 179.83186 
L 310.352683 176.32901 
L 309.631052 178.190383 
L 318.091828 177.394422 
L 318.259072 179.172172 
" clip-path="url(#p2f2b1ec705)" style="fill: #481f70; fill-opacity: 0.3"/>
    <path d="M 347.771416 179.261291 
L 339.302594 179.966507 
L 340.340492 181.67186 
L 331.22102 179.743586 
L 339.895959 176.333536 
L 339.154416 178.187066 
L 347.623238 177.48185 
L 347.771416 179.261291 
" clip-path="url(#p2f2b1ec705)" style="fill: #482374; fill-opacity: 0.3"/>
    <path d="M 377.28334 179.334753 
L 368.808616 179.965088 
L 369.8314 181.679547 
L 360.729328 179.670744 
L 369.434069 176.337503 
L 368.676172 178.184407 
L 377.150896 177.554072 
L 377.28334 179.334753 
" clip-path="url(#p2f2b1ec705)" style="fill: #482878; fill-opacity: 0.3"/>
    <path d="M 406.795131 179.395754 
L 398.316008 179.963855 
L 399.326178 181.685777 
L 390.239098 179.610206 
L 398.968075 176.34096 
L 398.19664 178.182249 
L 406.675763 177.614148 
L 406.795131 179.395754 
" clip-path="url(#p2f2b1ec705)" style="fill: #472d7b; fill-opacity: 0.3"/>
    <path d="M 74.805069 166.400337 
L 72.910795 158.116015 
L 71.36913 159.384371 
L 71.990048 150.08397 
L 76.591154 158.190315 
L 74.65147 157.717996 
L 76.545744 166.002319 
L 74.805069 166.400337 
" clip-path="url(#p2f2b1ec705)" style="fill: #1fa088; fill-opacity: 0.3"/>
    <path d="M 111.583708 159.277474 
L 103.08923 159.028277 
L 103.929285 160.83929 
L 95.083665 157.90024 
L 104.086366 155.484793 
L 103.14159 157.243445 
L 111.636069 157.492642 
L 111.583708 159.277474 
" clip-path="url(#p2f2b1ec705)" style="fill: #481668; fill-opacity: 0.3"/>
    <path d="M 141.17098 158.418731 
L 132.696339 159.05018 
L 133.719349 160.764505 
L 124.617012 158.756899 
L 133.321315 155.422513 
L 132.563661 157.269516 
L 141.038302 156.638067 
L 141.17098 158.418731 
" clip-path="url(#p2f2b1ec705)" style="fill: #471365; fill-opacity: 0.3"/>
    <path d="M 170.689596 158.125085 
L 162.24254 159.055423 
L 163.325454 160.732551 
L 154.157896 159.047646 
L 162.739015 155.407948 
L 162.047061 157.280555 
L 170.494116 156.350218 
L 170.689596 158.125085 
" clip-path="url(#p2f2b1ec705)" style="fill: #481467; fill-opacity: 0.3"/>
    <path d="M 200.203311 158.066009 
L 191.763079 159.05634 
L 192.857881 160.725731 
L 183.678583 159.106005 
L 192.233626 155.405429 
L 191.554994 157.282906 
L 199.995226 156.292575 
L 200.203311 158.066009 
" clip-path="url(#p2f2b1ec705)" style="fill: #481769; fill-opacity: 0.3"/>
    <path d="M 229.71761 158.101259 
L 221.273256 159.055798 
L 222.36097 160.729816 
L 213.188622 159.071188 
L 221.759277 155.406915 
L 221.072691 157.281498 
L 229.517046 156.326959 
L 229.71761 158.101259 
" clip-path="url(#p2f2b1ec705)" style="fill: #481a6c; fill-opacity: 0.3"/>
    <path d="M 259.231722 158.168692 
L 250.779904 159.054716 
L 251.854006 160.7375 
L 242.695412 159.00454 
L 251.295501 155.409895 
L 250.593735 157.278848 
L 259.045554 156.392824 
L 259.231722 158.168692 
" clip-path="url(#p2f2b1ec705)" style="fill: #481d6f; fill-opacity: 0.3"/>
    <path d="M 288.745213 158.242467 
L 280.285866 159.053463 
L 281.344995 160.745712 
L 272.202137 158.931556 
L 280.833783 155.413361 
L 280.115462 157.276013 
L 288.574809 156.465017 
L 288.745213 158.242467 
" clip-path="url(#p2f2b1ec705)" style="fill: #482173; fill-opacity: 0.3"/>
    <path d="M 318.258124 158.31264 
L 309.792233 159.052205 
L 310.837041 160.753333 
L 301.709821 158.86207 
L 310.370856 155.416857 
L 309.636838 157.27338 
L 318.102729 156.533815 
L 318.258124 158.31264 
" clip-path="url(#p2f2b1ec705)" style="fill: #482677; fill-opacity: 0.3"/>
    <path d="M 347.770638 158.375952 
L 339.299359 159.051014 
L 340.33118 160.760051 
L 331.21863 158.799324 
L 339.905654 155.420179 
L 339.157517 157.271057 
L 347.628796 156.595995 
L 347.770638 158.375952 
" clip-path="url(#p2f2b1ec705)" style="fill: #472a7a; fill-opacity: 0.3"/>
    <path d="M 377.28293 158.431854 
L 368.807302 159.049919 
L 369.827604 160.765857 
L 360.728449 158.743879 
L 369.438006 155.423244 
L 368.677437 157.269048 
L 377.153064 156.650983 
L 377.28293 158.431854 
" clip-path="url(#p2f2b1ec705)" style="fill: #472f7d; fill-opacity: 0.3"/>
    <path d="M 406.795131 158.480824 
L 398.316008 159.048925 
L 399.326178 160.770847 
L 390.239098 158.695277 
L 398.968075 155.42603 
L 398.19664 157.26732 
L 406.675763 156.699218 
L 406.795131 158.480824 
" clip-path="url(#p2f2b1ec705)" style="fill: #46337f; fill-opacity: 0.3"/>
    <path d="M 74.849462 145.480059 
L 72.910665 137.206044 
L 71.375843 138.482672 
L 71.946738 129.179066 
L 76.59137 137.260551 
L 74.649174 136.79867 
L 76.587971 145.072686 
L 74.849462 145.480059 
" clip-path="url(#p2f2b1ec705)" style="fill: #2fb47c; fill-opacity: 0.3"/>
    <path d="M 111.589522 138.319519 
L 103.093857 138.11468 
L 103.943358 139.921282 
L 95.082512 137.02846 
L 104.072478 134.566038 
L 103.136897 136.329599 
L 111.632562 136.534438 
L 111.589522 138.319519 
" clip-path="url(#p2f2b1ec705)" style="fill: #481c6e; fill-opacity: 0.3"/>
    <path d="M 141.165958 137.627288 
L 132.682868 138.132705 
L 133.680284 139.862046 
L 124.608793 137.719369 
L 133.361694 134.514728 
L 132.576671 136.350266 
L 141.059762 135.844849 
L 141.165958 137.627288 
" clip-path="url(#p2f2b1ec705)" style="fill: #481b6d; fill-opacity: 0.3"/>
    <path d="M 170.68824 137.378859 
L 162.224048 138.13762 
L 163.272711 139.836374 
L 154.141226 137.965813 
L 162.794426 134.500969 
L 162.06462 136.359151 
L 170.528812 135.600391 
L 170.68824 137.378859 
" clip-path="url(#p2f2b1ec705)" style="fill: #481c6e; fill-opacity: 0.3"/>
    <path d="M 200.203319 137.303479 
L 191.746354 138.13895 
L 192.810375 139.828127 
L 183.662306 138.040434 
L 192.283735 134.497277 
L 191.570807 136.362 
L 200.027772 135.526529 
L 200.203319 137.303479 
" clip-path="url(#p2f2b1ec705)" style="fill: #481f70; fill-opacity: 0.3"/>
    <path d="M 229.717358 137.304565 
L 221.260284 138.138931 
L 222.324085 139.828247 
L 213.176249 138.039359 
L 221.798142 134.497329 
L 221.08497 136.361959 
L 229.542044 135.527592 
L 229.717358 137.304565 
" clip-path="url(#p2f2b1ec705)" style="fill: #482173; fill-opacity: 0.3"/>
    <path d="M 259.231025 137.338454 
L 250.770621 138.138342 
L 251.827527 139.83198 
L 242.687059 138.005821 
L 251.323317 134.498962 
L 250.602551 136.36067 
L 259.062956 135.560781 
L 259.231025 137.338454 
" clip-path="url(#p2f2b1ec705)" style="fill: #482576; fill-opacity: 0.3"/>
    <path d="M 288.744331 137.384676 
L 280.27961 138.137514 
L 281.327084 139.837002 
L 272.19691 137.960052 
L 280.852532 134.501263 
L 280.121426 136.358935 
L 288.586147 135.606096 
L 288.744331 137.384676 
" clip-path="url(#p2f2b1ec705)" style="fill: #482979; fill-opacity: 0.3"/>
    <path d="M 318.25731 137.433697 
L 309.788297 138.136605 
L 310.82573 139.84224 
L 301.706784 137.911482 
L 310.382652 134.503796 
L 309.640604 136.357124 
L 318.109618 135.654216 
L 318.25731 137.433697 
" clip-path="url(#p2f2b1ec705)" style="fill: #472d7b; fill-opacity: 0.3"/>
    <path d="M 347.770046 137.481224 
L 339.297152 138.135694 
L 340.324815 139.847233 
L 331.217058 137.864363 
L 339.91227 134.506342 
L 339.159637 136.355397 
L 347.632531 135.700927 
L 347.770046 137.481224 
" clip-path="url(#p2f2b1ec705)" style="fill: #46327e; fill-opacity: 0.3"/>
    <path d="M 377.282628 137.525479 
L 368.806368 138.134818 
L 369.824903 139.851806 
L 360.727834 137.820461 
L 369.440806 134.508794 
L 368.678336 136.353814 
L 377.154596 135.744476 
L 377.282628 137.525479 
" clip-path="url(#p2f2b1ec705)" style="fill: #453781; fill-opacity: 0.3"/>
    <path d="M 406.795131 137.565894 
L 398.316008 138.133995 
L 399.326178 139.855917 
L 390.239098 137.780347 
L 398.968075 134.5111 
L 398.19664 136.35239 
L 406.675763 135.784289 
L 406.795131 137.565894 
" clip-path="url(#p2f2b1ec705)" style="fill: #443a83; fill-opacity: 0.3"/>
    <path d="M 74.883395 124.560878 
L 72.910584 116.294906 
L 71.381025 117.577837 
L 71.91365 108.271961 
L 76.591482 116.334274 
L 74.647403 115.880386 
L 76.620214 124.146357 
L 74.883395 124.560878 
" clip-path="url(#p2f2b1ec705)" style="fill: #58c765; fill-opacity: 0.3"/>
    <path d="M 111.592648 117.380721 
L 103.096426 117.200479 
L 103.951154 119.004613 
L 95.08197 116.137456 
L 104.064769 113.649018 
L 103.134298 115.415281 
L 111.63052 115.595523 
L 111.592648 117.380721 
" clip-path="url(#p2f2b1ec705)" style="fill: #482475; fill-opacity: 0.3"/>
    <path d="M 141.162538 116.778028 
L 132.675716 117.216339 
L 133.659424 118.953515 
L 124.605163 116.739162 
L 133.383135 113.603844 
L 132.58362 115.433116 
L 141.070442 114.994805 
L 141.162538 116.778028 
" clip-path="url(#p2f2b1ec705)" style="fill: #482374; fill-opacity: 0.3"/>
    <path d="M 170.686048 116.556293 
L 162.213947 117.220958 
L 163.243669 118.93126 
L 154.133533 116.959351 
L 162.824697 113.590869 
L 162.07429 115.440828 
L 170.54639 114.776163 
L 170.686048 116.556293 
" clip-path="url(#p2f2b1ec705)" style="fill: #482475; fill-opacity: 0.3"/>
    <path d="M 200.202051 116.476528 
L 191.736719 117.222461 
L 192.782806 118.922802 
L 183.654166 117.038404 
L 192.312607 113.586678 
L 191.579986 115.443753 
L 200.045318 114.69782 
L 200.202051 116.476528 
" clip-path="url(#p2f2b1ec705)" style="fill: #482677; fill-opacity: 0.3"/>
    <path d="M 229.716377 116.46187 
L 221.252373 117.222727 
L 222.301456 118.921222 
L 213.169508 117.052923 
L 221.821849 113.585935 
L 221.092504 115.444299 
L 229.556508 114.683442 
L 229.716377 116.46187 
" clip-path="url(#p2f2b1ec705)" style="fill: #482979; fill-opacity: 0.3"/>
    <path d="M 259.23012 116.478058 
L 250.764651 117.222432 
L 251.810424 118.922967 
L 242.682132 117.036889 
L 251.341208 113.586756 
L 250.608245 115.443696 
L 259.073715 114.699322 
L 259.23012 116.478058 
" clip-path="url(#p2f2b1ec705)" style="fill: #472d7b; fill-opacity: 0.3"/>
    <path d="M 288.743514 116.50828 
L 280.275394 117.221873 
L 281.314979 118.926197 
L 272.193604 117.006945 
L 280.865165 113.588316 
L 280.125456 115.442579 
L 288.593576 114.728986 
L 288.743514 116.50828 
" clip-path="url(#p2f2b1ec705)" style="fill: #46307e; fill-opacity: 0.3"/>
    <path d="M 318.256646 116.544023 
L 309.785536 117.221195 
L 310.817782 118.929974 
L 301.704744 116.971516 
L 310.390927 113.590208 
L 309.643251 115.441273 
L 318.114361 114.764101 
L 318.256646 116.544023 
" clip-path="url(#p2f2b1ec705)" style="fill: #463480; fill-opacity: 0.3"/>
    <path d="M 347.769586 116.580963 
L 339.29555 117.220476 
L 340.32019 118.933827 
L 331.215948 116.934884 
L 339.917073 113.592216 
L 339.161177 115.43994 
L 347.635213 114.800426 
L 347.769586 116.580963 
" clip-path="url(#p2f2b1ec705)" style="fill: #443983; fill-opacity: 0.3"/>
    <path d="M 377.282396 116.616946 
L 368.80567 117.219759 
L 369.822882 118.937531 
L 360.727381 116.899184 
L 369.442899 113.594225 
L 368.679009 115.438657 
L 377.155735 114.835844 
L 377.282396 116.616946 
" clip-path="url(#p2f2b1ec705)" style="fill: #433d84; fill-opacity: 0.3"/>
    <path d="M 406.795131 116.650964 
L 398.316008 117.219066 
L 399.326178 118.940988 
L 390.239098 116.865417 
L 398.968075 113.596171 
L 398.19664 115.43746 
L 406.675763 114.869359 
L 406.795131 116.650964 
" clip-path="url(#p2f2b1ec705)" style="fill: #424186; fill-opacity: 0.3"/>
    <path d="M 74.910175 103.642493 
L 72.91053 95.382971 
L 71.385146 96.670862 
L 71.887547 87.363306 
L 76.591537 95.410386 
L 74.645994 94.962813 
L 76.645639 103.222334 
L 74.910175 103.642493 
" clip-path="url(#p2f2b1ec705)" style="fill: #8bd646; fill-opacity: 0.3"/>
    <path d="M 111.594599 96.450617 
L 103.09806 96.286009 
L 103.956106 98.088567 
L 95.081661 95.237735 
L 104.059867 92.732772 
L 103.132647 94.500744 
L 111.629186 94.665352 
L 111.594599 96.450617 
" clip-path="url(#p2f2b1ec705)" style="fill: #472c7a; fill-opacity: 0.3"/>
    <path d="M 141.160155 95.903847 
L 132.671283 96.30049 
L 133.646451 98.042473 
L 124.603169 95.783699 
L 133.396427 92.691511 
L 132.587941 94.516836 
L 141.076813 94.120193 
L 141.160155 95.903847 
" clip-path="url(#p2f2b1ec705)" style="fill: #472a7a; fill-opacity: 0.3"/>
    <path d="M 170.684136 95.699622 
L 162.207584 96.304878 
L 163.225291 98.022356 
L 154.129203 95.98663 
L 162.843768 92.67916 
L 162.08041 94.523812 
L 170.556962 93.918557 
L 170.684136 95.699622 
" clip-path="url(#p2f2b1ec705)" style="fill: #472c7a; fill-opacity: 0.3"/>
    <path d="M 200.200726 95.618859 
L 191.730456 96.306461 
L 192.764805 98.013968 
L 183.649363 96.066733 
L 192.331376 92.674732 
L 191.58598 94.526715 
L 200.05625 93.839114 
L 200.200726 95.618859 
" clip-path="url(#p2f2b1ec705)" style="fill: #472d7b; fill-opacity: 0.3"/>
    <path d="M 229.715361 95.595638 
L 221.247045 96.3069 
L 222.28616 98.011511 
L 213.165314 96.089748 
L 221.837816 92.673506 
L 221.097597 94.527565 
L 229.565913 93.816304 
L 229.715361 95.595638 
" clip-path="url(#p2f2b1ec705)" style="fill: #46307e; fill-opacity: 0.3"/>
    <path d="M 259.229277 95.601175 
L 250.760489 96.306796 
L 251.798469 98.012098 
L 242.678904 96.084261 
L 251.35368 92.673796 
L 250.612226 94.527362 
L 259.081014 93.821741 
L 259.229277 95.601175 
" clip-path="url(#p2f2b1ec705)" style="fill: #463480; fill-opacity: 0.3"/>
    <path d="M 288.742815 95.621093 
L 280.272361 96.306418 
L 281.306251 98.014203 
L 272.191333 96.064518 
L 280.874256 92.674851 
L 280.128362 94.526634 
L 288.598817 93.841309 
L 288.742815 95.621093 
" clip-path="url(#p2f2b1ec705)" style="fill: #453882; fill-opacity: 0.3"/>
    <path d="M 318.256105 95.647795 
L 309.783492 96.305903 
L 310.811891 98.017001 
L 301.703283 96.038043 
L 310.397052 92.676288 
L 309.645213 94.525666 
L 318.117825 93.867557 
L 318.256105 95.647795 
" clip-path="url(#p2f2b1ec705)" style="fill: #443b84; fill-opacity: 0.3"/>
    <path d="M 347.769219 95.677168 
L 339.294333 96.305327 
L 340.316678 98.020049 
L 331.215121 96.008909 
L 339.920718 92.677903 
L 339.162347 94.524611 
L 347.637232 93.896453 
L 347.769219 95.677168 
" clip-path="url(#p2f2b1ec705)" style="fill: #424086; fill-opacity: 0.3"/>
    <path d="M 377.282213 95.706979 
L 368.805129 96.304729 
L 369.821315 98.023108 
L 360.727032 95.979329 
L 369.444522 92.679576 
L 368.679531 94.523552 
L 377.156616 93.925801 
L 377.282213 95.706979 
" clip-path="url(#p2f2b1ec705)" style="fill: #414487; fill-opacity: 0.3"/>
    <path d="M 406.795131 95.736035 
L 398.316008 96.304136 
L 399.326178 98.026058 
L 390.239098 95.950487 
L 398.968075 92.681241 
L 398.19664 94.52253 
L 406.675763 93.954429 
L 406.795131 95.736035 
" clip-path="url(#p2f2b1ec705)" style="fill: #3f4889; fill-opacity: 0.3"/>
    <path d="M 74.931848 82.724702 
L 72.910494 74.470466 
L 71.388502 75.762363 
L 71.86643 66.453518 
L 76.59156 74.488203 
L 74.644847 74.045746 
L 76.666201 82.299982 
L 74.931848 82.724702 
" clip-path="url(#p2f2b1ec705)" style="fill: #c5e021; fill-opacity: 0.3"/>
    <path d="M 111.595932 75.525187 
L 103.099191 75.371395 
L 103.95953 77.172859 
L 95.081464 74.333326 
L 104.056474 71.816937 
L 103.131505 73.586087 
L 111.628247 73.73988 
L 111.595932 75.525187 
" clip-path="url(#p2f2b1ec705)" style="fill: #46337f; fill-opacity: 0.3"/>
    <path d="M 141.158416 75.016665 
L 132.668266 75.384921 
L 133.637604 77.130156 
L 124.601925 74.841155 
L 133.405473 71.778388 
L 132.590889 73.600999 
L 141.081039 73.232743 
L 141.158416 75.016665 
" clip-path="url(#p2f2b1ec705)" style="fill: #46327e; fill-opacity: 0.3"/>
    <path d="M 170.682583 74.824787 
L 162.203209 75.38913 
L 163.212616 77.1115 
L 154.126458 75.031902 
L 162.856883 71.766524 
L 162.084631 73.607472 
L 170.564006 73.043129 
L 170.682583 74.824787 
" clip-path="url(#p2f2b1ec705)" style="fill: #46337f; fill-opacity: 0.3"/>
    <path d="M 200.199559 74.744164 
L 191.72606 75.390753 
L 192.752131 77.103248 
L 183.646222 75.111908 
L 192.344553 71.761976 
L 191.5902 73.610329 
L 200.0637 72.96374 
L 200.199559 74.744164 
" clip-path="url(#p2f2b1ec705)" style="fill: #463480; fill-opacity: 0.3"/>
    <path d="M 229.714453 74.715759 
L 221.243213 75.391304 
L 222.275131 77.100282 
L 213.162469 75.140076 
L 221.8493 71.760434 
L 221.101269 73.611355 
L 229.572509 72.935809 
L 229.714453 74.715759 
" clip-path="url(#p2f2b1ec705)" style="fill: #453882; fill-opacity: 0.3"/>
    <path d="M 259.228543 74.714297 
L 250.757422 75.391333 
L 251.789641 77.100129 
L 242.676635 75.141525 
L 251.362871 71.760356 
L 250.615166 73.611408 
L 259.086287 72.934373 
L 259.228543 74.714297 
" clip-path="url(#p2f2b1ec705)" style="fill: #443b84; fill-opacity: 0.3"/>
    <path d="M 288.742227 74.72709 
L 280.270074 75.391086 
L 281.299661 77.101469 
L 272.18968 75.12884 
L 280.881111 71.761045 
L 280.130557 73.610945 
L 288.60271 72.946949 
L 288.742227 74.72709 
" clip-path="url(#p2f2b1ec705)" style="fill: #423f85; fill-opacity: 0.3"/>
    <path d="M 318.255659 74.74727 
L 309.781919 75.390692 
L 310.80735 77.10357 
L 301.702186 75.108826 
L 310.401769 71.762146 
L 309.646725 73.610218 
L 318.120465 72.966796 
L 318.255659 74.74727 
" clip-path="url(#p2f2b1ec705)" style="fill: #414287; fill-opacity: 0.3"/>
    <path d="M 347.768921 74.770979 
L 339.293379 75.390223 
L 340.313919 77.106019 
L 331.214483 75.085307 
L 339.923579 71.76346 
L 339.163265 73.60937 
L 347.638807 72.990126 
L 347.768921 74.770979 
" clip-path="url(#p2f2b1ec705)" style="fill: #404688; fill-opacity: 0.3"/>
    <path d="M 377.282065 74.796011 
L 368.804696 75.389719 
L 369.820063 77.108582 
L 360.726755 75.060467 
L 369.445819 71.764871 
L 368.679948 73.608482 
L 377.157317 73.014774 
L 377.282065 74.796011 
" clip-path="url(#p2f2b1ec705)" style="fill: #3e4a89; fill-opacity: 0.3"/>
    <path d="M 406.795131 74.821105 
L 398.316008 75.389206 
L 399.326178 77.111128 
L 390.239098 75.035557 
L 398.968075 71.766311 
L 398.19664 73.607601 
L 406.675763 73.039499 
L 406.795131 74.821105 
" clip-path="url(#p2f2b1ec705)" style="fill: #3c4f8a; fill-opacity: 0.3"/>
    <path d="M 74.949746 61.807365 
L 72.91047 53.55754 
L 71.391286 54.852739 
L 71.848995 45.542878 
L 76.591565 53.567281 
L 74.643896 53.129054 
L 76.683172 61.378879 
L 74.949746 61.807365 
" clip-path="url(#p2f2b1ec705)" style="fill: #fde725; fill-opacity: 0.3"/>
    <path d="M 111.596901 54.602561 
L 103.10002 54.456695 
L 103.962039 56.257357 
L 95.081328 53.426107 
L 104.053986 50.901346 
L 103.130669 52.671359 
L 111.62755 52.817224 
L 111.596901 54.602561 
" clip-path="url(#p2f2b1ec705)" style="fill: #443a83; fill-opacity: 0.3"/>
    <path d="M 141.157098 54.121849 
L 132.66608 54.469522 
L 133.631184 56.217101 
L 124.601081 53.906204 
L 133.412028 50.864786 
L 132.593028 52.685417 
L 141.084046 52.337744 
L 141.157098 54.121849 
" clip-path="url(#p2f2b1ec705)" style="fill: #443983; fill-opacity: 0.3"/>
    <path d="M 170.681327 53.939135 
L 162.200017 54.47359 
L 163.203347 56.199506 
L 154.124574 54.087898 
L 162.866453 50.85331 
L 162.087719 52.691525 
L 170.569029 52.15707 
L 170.681327 53.939135 
" clip-path="url(#p2f2b1ec705)" style="fill: #443983; fill-opacity: 0.3"/>
    <path d="M 200.198568 53.859051 
L 191.722803 54.475233 
L 192.742724 56.191398 
L 183.644018 54.167399 
L 192.354313 50.848698 
L 191.593333 52.694333 
L 200.069098 52.078151 
L 200.198568 53.859051 
" clip-path="url(#p2f2b1ec705)" style="fill: #443b84; fill-opacity: 0.3"/>
    <path d="M 229.71367 53.827261 
L 221.240325 54.475862 
L 222.266802 56.188113 
L 213.160421 54.198934 
L 221.857957 50.846938 
L 221.104043 52.69547 
L 229.577388 52.04687 
L 229.71367 53.827261 
" clip-path="url(#p2f2b1ec705)" style="fill: #423f85; fill-opacity: 0.3"/>
    <path d="M 259.227916 53.820905 
L 250.755069 54.475986 
L 251.782855 56.187451 
L 242.674956 54.205238 
L 251.369925 50.846591 
L 250.617425 52.695699 
L 259.090272 52.040618 
L 259.227916 53.820905 
" clip-path="url(#p2f2b1ec705)" style="fill: #424186; fill-opacity: 0.3"/>
    <path d="M 288.74173 53.828508 
L 280.268288 54.475838 
L 281.294508 56.188242 
L 272.188426 54.197698 
L 280.886464 50.847006 
L 280.132273 52.695425 
L 288.605716 52.048096 
L 288.74173 53.828508 
" clip-path="url(#p2f2b1ec705)" style="fill: #404688; fill-opacity: 0.3"/>
    <path d="M 318.255287 53.843778 
L 309.780669 54.475537 
L 310.803742 56.189824 
L 301.701332 54.182552 
L 310.405512 50.847847 
L 309.647926 52.694878 
L 318.122544 52.063119 
L 318.255287 53.843778 
" clip-path="url(#p2f2b1ec705)" style="fill: #3e4989; fill-opacity: 0.3"/>
    <path d="M 347.768673 53.863094 
L 339.29261 54.475152 
L 340.311695 56.191813 
L 331.213975 54.163388 
L 339.925884 50.848925 
L 339.164006 52.694189 
L 347.64007 52.082131 
L 347.768673 53.863094 
" clip-path="url(#p2f2b1ec705)" style="fill: #3d4d8a; fill-opacity: 0.3"/>
    <path d="M 377.281942 53.884318 
L 368.804343 54.474724 
L 369.81904 56.193982 
L 360.726531 54.142324 
L 369.446877 50.850126 
L 368.680289 52.693438 
L 377.157888 52.103033 
L 377.281942 53.884318 
" clip-path="url(#p2f2b1ec705)" style="fill: #3b518b; fill-opacity: 0.3"/>
    <path d="M 406.795131 53.906175 
L 398.316008 54.474276 
L 399.326178 56.196198 
L 390.239098 54.120628 
L 398.968075 50.851381 
L 398.19664 52.692671 
L 406.675763 52.124569 
L 406.795131 53.906175 
" clip-path="url(#p2f2b1ec705)" style="fill: #39558c; fill-opacity: 0.3"/>
   </g>
   <g id="matplotlib.axis_1">
    <g id="xtick_1">
     <g id="line2d_1">
      <defs>
       <path id="m0e6de8523e" d="M 0 0 
L 0 3.5 
" style="stroke: #000000; stroke-width: 0.8"/>
      </defs>
      <g>
       <use xlink:href="#m0e6de8523e" x="73.675627" y="307.584" style="stroke: #000000; stroke-width: 0.8"/>
      </g>
     </g>
     <g id="text_1">
      <!-- 0 -->
      <g transform="translate(70.494377 322.182437) scale(0.1 -0.1)">
       <defs>
        <path id="DejaVuSans-30" d="M 2034 4250 
Q 1547 4250 1301 3770 
Q 1056 3291 1056 2328 
Q 1056 1369 1301 889 
Q 1547 409 2034 409 
Q 2525 409 2770 889 
Q 3016 1369 3016 2328 
Q 3016 3291 2770 3770 
Q 2525 4250 2034 4250 
z
M 2034 4750 
Q 2819 4750 3233 4129 
Q 3647 3509 3647 2328 
Q 3647 1150 3233 529 
Q 2819 -91 2034 -91 
Q 1250 -91 836 529 
Q 422 1150 422 2328 
Q 422 3509 836 4129 
Q 1250 4750 2034 4750 
z
" transform="scale(0.015625)"/>
       </defs>
       <use xlink:href="#DejaVuSans-30"/>
      </g>
     </g>
    </g>
    <g id="xtick_2">
     <g id="line2d_2">
      <g>
       <use xlink:href="#m0e6de8523e" x="152.225635" y="307.584" style="stroke: #000000; stroke-width: 0.8"/>
      </g>
     </g>
     <g id="text_2">
      <!-- 5 -->
      <g transform="translate(149.044385 322.182437) scale(0.1 -0.1)">
       <defs>
        <path id="DejaVuSans-35" d="M 691 4666 
L 3169 4666 
L 3169 4134 
L 1269 4134 
L 1269 2991 
Q 1406 3038 1543 3061 
Q 1681 3084 1819 3084 
Q 2600 3084 3056 2656 
Q 3513 2228 3513 1497 
Q 3513 744 3044 326 
Q 2575 -91 1722 -91 
Q 1428 -91 1123 -41 
Q 819 9 494 109 
L 494 744 
Q 775 591 1075 516 
Q 1375 441 1709 441 
Q 2250 441 2565 725 
Q 2881 1009 2881 1497 
Q 2881 1984 2565 2268 
Q 2250 2553 1709 2553 
Q 1456 2553 1204 2497 
Q 953 2441 691 2322 
L 691 4666 
z
" transform="scale(0.015625)"/>
       </defs>
       <use xlink:href="#DejaVuSans-35"/>
      </g>
     </g>
    </g>
    <g id="xtick_3">
     <g id="line2d_3">
      <g>
       <use xlink:href="#m0e6de8523e" x="230.775643" y="307.584" style="stroke: #000000; stroke-width: 0.8"/>
      </g>
     </g>
     <g id="text_3">
      <!-- 10 -->
      <g transform="translate(224.413143 322.182437) scale(0.1 -0.1)">
       <defs>
        <path id="DejaVuSans-31" d="M 794 531 
L 1825 531 
L 1825 4091 
L 703 3866 
L 703 4441 
L 1819 4666 
L 2450 4666 
L 2450 531 
L 3481 531 
L 3481 0 
L 794 0 
L 794 531 
z
" transform="scale(0.015625)"/>
       </defs>
       <use xlink:href="#DejaVuSans-31"/>
       <use xlink:href="#DejaVuSans-30" transform="translate(63.623047 0)"/>
      </g>
     </g>
    </g>
    <g id="xtick_4">
     <g id="line2d_4">
      <g>
       <use xlink:href="#m0e6de8523e" x="309.325651" y="307.584" style="stroke: #000000; stroke-width: 0.8"/>
      </g>
     </g>
     <g id="text_4">
      <!-- 15 -->
      <g transform="translate(302.963151 322.182437) scale(0.1 -0.1)">
       <use xlink:href="#DejaVuSans-31"/>
       <use xlink:href="#DejaVuSans-35" transform="translate(63.623047 0)"/>
      </g>
     </g>
    </g>
    <g id="xtick_5">
     <g id="line2d_5">
      <g>
       <use xlink:href="#m0e6de8523e" x="387.875659" y="307.584" style="stroke: #000000; stroke-width: 0.8"/>
      </g>
     </g>
     <g id="text_5">
      <!-- 20 -->
      <g transform="translate(381.513159 322.182437) scale(0.1 -0.1)">
       <defs>
        <path id="DejaVuSans-32" d="M 1228 531 
L 3431 531 
L 3431 0 
L 469 0 
L 469 531 
Q 828 903 1448 1529 
Q 2069 2156 2228 2338 
Q 2531 2678 2651 2914 
Q 2772 3150 2772 3378 
Q 2772 3750 2511 3984 
Q 2250 4219 1831 4219 
Q 1534 4219 1204 4116 
Q 875 4013 500 3803 
L 500 4441 
Q 881 4594 1212 4672 
Q 1544 4750 1819 4750 
Q 2544 4750 2975 4387 
Q 3406 4025 3406 3419 
Q 3406 3131 3298 2873 
Q 3191 2616 2906 2266 
Q 2828 2175 2409 1742 
Q 1991 1309 1228 531 
z
" transform="scale(0.015625)"/>
       </defs>
       <use xlink:href="#DejaVuSans-32"/>
       <use xlink:href="#DejaVuSans-30" transform="translate(63.623047 0)"/>
      </g>
     </g>
    </g>
    <g id="text_6">
     <!-- k -->
     <g transform="translate(233.264688 335.860562) scale(0.1 -0.1)">
      <defs>
       <path id="DejaVuSans-6b" d="M 581 4863 
L 1159 4863 
L 1159 1991 
L 2875 3500 
L 3609 3500 
L 1753 1863 
L 3688 0 
L 2938 0 
L 1159 1709 
L 1159 0 
L 581 0 
L 581 4863 
z
" transform="scale(0.015625)"/>
      </defs>
      <use xlink:href="#DejaVuSans-6b"/>
     </g>
    </g>
   </g>
   <g id="matplotlib.axis_2">
    <g id="ytick_1">
     <g id="line2d_6">
      <defs>
       <path id="m23a2c220fc" d="M 0 0 
L -3.5 0 
" style="stroke: #000000; stroke-width: 0.8"/>
      </defs>
      <g>
       <use xlink:href="#m23a2c220fc" x="57.6" y="295.488" style="stroke: #000000; stroke-width: 0.8"/>
      </g>
     </g>
     <g id="text_7">
      <!-- 0.0 -->
      <g transform="translate(34.696875 299.287219) scale(0.1 -0.1)">
       <defs>
        <path id="DejaVuSans-2e" d="M 684 794 
L 1344 794 
L 1344 0 
L 684 0 
L 684 794 
z
" transform="scale(0.015625)"/>
       </defs>
       <use xlink:href="#DejaVuSans-30"/>
       <use xlink:href="#DejaVuSans-2e" transform="translate(63.623047 0)"/>
       <use xlink:href="#DejaVuSans-30" transform="translate(95.410156 0)"/>
      </g>
     </g>
    </g>
    <g id="ytick_2">
     <g id="line2d_7">
      <g>
       <use xlink:href="#m23a2c220fc" x="57.6" y="252.114381" style="stroke: #000000; stroke-width: 0.8"/>
      </g>
     </g>
     <g id="text_8">
      <!-- 0.5 -->
      <g transform="translate(34.696875 255.9136) scale(0.1 -0.1)">
       <use xlink:href="#DejaVuSans-30"/>
       <use xlink:href="#DejaVuSans-2e" transform="translate(63.623047 0)"/>
       <use xlink:href="#DejaVuSans-35" transform="translate(95.410156 0)"/>
      </g>
     </g>
    </g>
    <g id="ytick_3">
     <g id="line2d_8">
      <g>
       <use xlink:href="#m23a2c220fc" x="57.6" y="208.740762" style="stroke: #000000; stroke-width: 0.8"/>
      </g>
     </g>
     <g id="text_9">
      <!-- 1.0 -->
      <g transform="translate(34.696875 212.53998) scale(0.1 -0.1)">
       <use xlink:href="#DejaVuSans-31"/>
       <use xlink:href="#DejaVuSans-2e" transform="translate(63.623047 0)"/>
       <use xlink:href="#DejaVuSans-30" transform="translate(95.410156 0)"/>
      </g>
     </g>
    </g>
    <g id="ytick_4">
     <g id="line2d_9">
      <g>
       <use xlink:href="#m23a2c220fc" x="57.6" y="165.367143" style="stroke: #000000; stroke-width: 0.8"/>
      </g>
     </g>
     <g id="text_10">
      <!-- 1.5 -->
      <g transform="translate(34.696875 169.166361) scale(0.1 -0.1)">
       <use xlink:href="#DejaVuSans-31"/>
       <use xlink:href="#DejaVuSans-2e" transform="translate(63.623047 0)"/>
       <use xlink:href="#DejaVuSans-35" transform="translate(95.410156 0)"/>
      </g>
     </g>
    </g>
    <g id="ytick_5">
     <g id="line2d_10">
      <g>
       <use xlink:href="#m23a2c220fc" x="57.6" y="121.993523" style="stroke: #000000; stroke-width: 0.8"/>
      </g>
     </g>
     <g id="text_11">
      <!-- 2.0 -->
      <g transform="translate(34.696875 125.792742) scale(0.1 -0.1)">
       <use xlink:href="#DejaVuSans-32"/>
       <use xlink:href="#DejaVuSans-2e" transform="translate(63.623047 0)"/>
       <use xlink:href="#DejaVuSans-30" transform="translate(95.410156 0)"/>
      </g>
     </g>
    </g>
    <g id="ytick_6">
     <g id="line2d_11">
      <g>
       <use xlink:href="#m23a2c220fc" x="57.6" y="78.619904" style="stroke: #000000; stroke-width: 0.8"/>
      </g>
     </g>
     <g id="text_12">
      <!-- 2.5 -->
      <g transform="translate(34.696875 82.419123) scale(0.1 -0.1)">
       <use xlink:href="#DejaVuSans-32"/>
       <use xlink:href="#DejaVuSans-2e" transform="translate(63.623047 0)"/>
       <use xlink:href="#DejaVuSans-35" transform="translate(95.410156 0)"/>
      </g>
     </g>
    </g>
    <g id="text_13">
     <!-- c -->
     <g transform="translate(28.617188 177.277219) rotate(-90) scale(0.1 -0.1)">
      <defs>
       <path id="DejaVuSans-63" d="M 3122 3366 
L 3122 2828 
Q 2878 2963 2633 3030 
Q 2388 3097 2138 3097 
Q 1578 3097 1268 2742 
Q 959 2388 959 1747 
Q 959 1106 1268 751 
Q 1578 397 2138 397 
Q 2388 397 2633 464 
Q 2878 531 3122 666 
L 3122 134 
Q 2881 22 2623 -34 
Q 2366 -91 2075 -91 
Q 1284 -91 818 406 
Q 353 903 353 1747 
Q 353 2603 823 3093 
Q 1294 3584 2113 3584 
Q 2378 3584 2631 3529 
Q 2884 3475 3122 3366 
z
" transform="scale(0.015625)"/>
      </defs>
      <use xlink:href="#DejaVuSans-63"/>
     </g>
    </g>
   </g>
   <g id="line2d_12">
    <path d="M 73.832727 273.802176 
L 75.464157 251.47173 
L 77.095587 242.849469 
L 78.727017 237.115103 
L 80.358447 232.79014 
L 81.989877 229.325109 
L 83.621307 226.448317 
L 85.252736 224.00334 
L 86.884166 221.890995 
L 88.515596 220.044021 
L 90.147026 218.414488 
L 91.778456 216.966905 
L 95.041316 214.515128 
L 98.304175 212.533472 
L 101.567035 210.920207 
L 104.829895 209.60466 
L 108.092755 208.535529 
L 111.355614 207.674272 
L 114.618474 206.991122 
L 119.512764 206.250184 
L 124.407053 205.796876 
L 129.301343 205.585437 
L 134.195633 205.580691 
L 140.721352 205.848843 
L 147.247072 206.384682 
L 153.772791 207.148968 
L 160.298511 208.110876 
L 168.45566 209.553988 
L 176.61281 211.229114 
L 186.401389 213.503058 
L 196.189968 216.025817 
L 205.978547 218.764454 
L 217.398556 222.197287 
L 228.818566 225.854101 
L 241.870005 230.27271 
L 254.921444 234.915223 
L 269.604312 240.372538 
L 285.918611 246.691435 
L 302.23291 253.245906 
L 320.178639 260.694728 
L 339.755797 269.071831 
L 360.964386 278.406777 
L 382.172974 287.979631 
L 398.487273 295.488 
L 398.487273 295.488 
" clip-path="url(#p2f2b1ec705)" style="fill: none; stroke: #1f77b4; stroke-width: 1.5; stroke-linecap: square"/>
   </g>
   <g id="line2d_13">
    <path d="M 109.039944 307.584 
L 109.039944 41.472 
" clip-path="url(#p2f2b1ec705)" style="fill: none; stroke-dasharray: 5.55,2.4; stroke-dashoffset: 0; stroke: #1f77b4; stroke-width: 1.5"/>
   </g>
   <g id="line2d_14">
    <path d="M 73.832727 283.632227 
L 75.464157 268.094567 
L 77.095587 260.827039 
L 78.727017 255.403996 
L 80.358447 250.912018 
L 81.989877 247.001371 
L 83.621307 243.49661 
L 86.884166 237.329938 
L 90.147026 231.942133 
L 93.409886 227.09752 
L 96.672746 222.658658 
L 99.935605 218.537291 
L 104.829895 212.82294 
L 109.724185 207.551648 
L 114.618474 202.631858 
L 119.512764 197.998778 
L 126.038483 192.188802 
L 132.564203 186.726436 
L 139.089922 181.553186 
L 145.615642 176.625236 
L 153.772791 170.759445 
L 161.929941 165.173536 
L 170.08709 159.828656 
L 179.875669 153.689773 
L 189.664249 147.81141 
L 201.084258 141.238999 
L 212.504267 134.93483 
L 223.924276 128.86561 
L 236.975715 122.182941 
L 250.027154 115.739755 
L 264.710023 108.744555 
L 279.392892 101.987959 
L 295.70719 94.729753 
L 312.021489 87.705951 
L 329.967218 80.222144 
L 349.544376 72.317494 
L 369.121535 64.655918 
L 390.330123 56.602523 
L 398.487273 53.568 
L 398.487273 53.568 
" clip-path="url(#p2f2b1ec705)" style="fill: none; stroke: #ff7f0e; stroke-width: 1.5; stroke-linecap: square"/>
   </g>
   <g id="line2d_15">
    <defs>
     <path id="m6279cb8653" d="M 0 -3 
L -0.673542 -0.927051 
L -2.85317 -0.927051 
L -1.089814 0.354102 
L -1.763356 2.427051 
L -0 1.145898 
L 1.763356 2.427051 
L 1.089814 0.354102 
L 2.85317 -0.927051 
L 0.673542 -0.927051 
z
" style="stroke: #ff0000; stroke-linejoin: bevel"/>
    </defs>
    <g clip-path="url(#p2f2b1ec705)">
     <use xlink:href="#m6279cb8653" x="109.039944" y="208.265557" style="fill: #ff0000; stroke: #ff0000; stroke-linejoin: bevel"/>
    </g>
   </g>
   <g id="patch_3">
    <path d="M 57.6 307.584 
L 57.6 41.472 
" style="fill: none; stroke: #000000; stroke-width: 0.8; stroke-linejoin: miter; stroke-linecap: square"/>
   </g>
   <g id="patch_4">
    <path d="M 414.72 307.584 
L 414.72 41.472 
" style="fill: none; stroke: #000000; stroke-width: 0.8; stroke-linejoin: miter; stroke-linecap: square"/>
   </g>
   <g id="patch_5">
    <path d="M 57.6 307.584 
L 414.72 307.584 
" style="fill: none; stroke: #000000; stroke-width: 0.8; stroke-linejoin: miter; stroke-linecap: square"/>
   </g>
   <g id="patch_6">
    <path d="M 57.6 41.472 
L 414.72 41.472 
" style="fill: none; stroke: #000000; stroke-width: 0.8; stroke-linejoin: miter; stroke-linecap: square"/>
   </g>
   <g id="text_14">
    <!-- Phase diagram and consumption rule -->
    <g transform="translate(123.904687 22.034625) scale(0.12 -0.12)">
     <defs>
      <path id="DejaVuSans-50" d="M 1259 4147 
L 1259 2394 
L 2053 2394 
Q 2494 2394 2734 2622 
Q 2975 2850 2975 3272 
Q 2975 3691 2734 3919 
Q 2494 4147 2053 4147 
L 1259 4147 
z
M 628 4666 
L 2053 4666 
Q 2838 4666 3239 4311 
Q 3641 3956 3641 3272 
Q 3641 2581 3239 2228 
Q 2838 1875 2053 1875 
L 1259 1875 
L 1259 0 
L 628 0 
L 628 4666 
z
" transform="scale(0.015625)"/>
      <path id="DejaVuSans-68" d="M 3513 2113 
L 3513 0 
L 2938 0 
L 2938 2094 
Q 2938 2591 2744 2837 
Q 2550 3084 2163 3084 
Q 1697 3084 1428 2787 
Q 1159 2491 1159 1978 
L 1159 0 
L 581 0 
L 581 4863 
L 1159 4863 
L 1159 2956 
Q 1366 3272 1645 3428 
Q 1925 3584 2291 3584 
Q 2894 3584 3203 3211 
Q 3513 2838 3513 2113 
z
" transform="scale(0.015625)"/>
      <path id="DejaVuSans-61" d="M 2194 1759 
Q 1497 1759 1228 1600 
Q 959 1441 959 1056 
Q 959 750 1161 570 
Q 1363 391 1709 391 
Q 2188 391 2477 730 
Q 2766 1069 2766 1631 
L 2766 1759 
L 2194 1759 
z
M 3341 1997 
L 3341 0 
L 2766 0 
L 2766 531 
Q 2569 213 2275 61 
Q 1981 -91 1556 -91 
Q 1019 -91 701 211 
Q 384 513 384 1019 
Q 384 1609 779 1909 
Q 1175 2209 1959 2209 
L 2766 2209 
L 2766 2266 
Q 2766 2663 2505 2880 
Q 2244 3097 1772 3097 
Q 1472 3097 1187 3025 
Q 903 2953 641 2809 
L 641 3341 
Q 956 3463 1253 3523 
Q 1550 3584 1831 3584 
Q 2591 3584 2966 3190 
Q 3341 2797 3341 1997 
z
" transform="scale(0.015625)"/>
      <path id="DejaVuSans-73" d="M 2834 3397 
L 2834 2853 
Q 2591 2978 2328 3040 
Q 2066 3103 1784 3103 
Q 1356 3103 1142 2972 
Q 928 2841 928 2578 
Q 928 2378 1081 2264 
Q 1234 2150 1697 2047 
L 1894 2003 
Q 2506 1872 2764 1633 
Q 3022 1394 3022 966 
Q 3022 478 2636 193 
Q 2250 -91 1575 -91 
Q 1294 -91 989 -36 
Q 684 19 347 128 
L 347 722 
Q 666 556 975 473 
Q 1284 391 1588 391 
Q 1994 391 2212 530 
Q 2431 669 2431 922 
Q 2431 1156 2273 1281 
Q 2116 1406 1581 1522 
L 1381 1569 
Q 847 1681 609 1914 
Q 372 2147 372 2553 
Q 372 3047 722 3315 
Q 1072 3584 1716 3584 
Q 2034 3584 2315 3537 
Q 2597 3491 2834 3397 
z
" transform="scale(0.015625)"/>
      <path id="DejaVuSans-65" d="M 3597 1894 
L 3597 1613 
L 953 1613 
Q 991 1019 1311 708 
Q 1631 397 2203 397 
Q 2534 397 2845 478 
Q 3156 559 3463 722 
L 3463 178 
Q 3153 47 2828 -22 
Q 2503 -91 2169 -91 
Q 1331 -91 842 396 
Q 353 884 353 1716 
Q 353 2575 817 3079 
Q 1281 3584 2069 3584 
Q 2775 3584 3186 3129 
Q 3597 2675 3597 1894 
z
M 3022 2063 
Q 3016 2534 2758 2815 
Q 2500 3097 2075 3097 
Q 1594 3097 1305 2825 
Q 1016 2553 972 2059 
L 3022 2063 
z
" transform="scale(0.015625)"/>
      <path id="DejaVuSans-20" transform="scale(0.015625)"/>
      <path id="DejaVuSans-64" d="M 2906 2969 
L 2906 4863 
L 3481 4863 
L 3481 0 
L 2906 0 
L 2906 525 
Q 2725 213 2448 61 
Q 2172 -91 1784 -91 
Q 1150 -91 751 415 
Q 353 922 353 1747 
Q 353 2572 751 3078 
Q 1150 3584 1784 3584 
Q 2172 3584 2448 3432 
Q 2725 3281 2906 2969 
z
M 947 1747 
Q 947 1113 1208 752 
Q 1469 391 1925 391 
Q 2381 391 2643 752 
Q 2906 1113 2906 1747 
Q 2906 2381 2643 2742 
Q 2381 3103 1925 3103 
Q 1469 3103 1208 2742 
Q 947 2381 947 1747 
z
" transform="scale(0.015625)"/>
      <path id="DejaVuSans-69" d="M 603 3500 
L 1178 3500 
L 1178 0 
L 603 0 
L 603 3500 
z
M 603 4863 
L 1178 4863 
L 1178 4134 
L 603 4134 
L 603 4863 
z
" transform="scale(0.015625)"/>
      <path id="DejaVuSans-67" d="M 2906 1791 
Q 2906 2416 2648 2759 
Q 2391 3103 1925 3103 
Q 1463 3103 1205 2759 
Q 947 2416 947 1791 
Q 947 1169 1205 825 
Q 1463 481 1925 481 
Q 2391 481 2648 825 
Q 2906 1169 2906 1791 
z
M 3481 434 
Q 3481 -459 3084 -895 
Q 2688 -1331 1869 -1331 
Q 1566 -1331 1297 -1286 
Q 1028 -1241 775 -1147 
L 775 -588 
Q 1028 -725 1275 -790 
Q 1522 -856 1778 -856 
Q 2344 -856 2625 -561 
Q 2906 -266 2906 331 
L 2906 616 
Q 2728 306 2450 153 
Q 2172 0 1784 0 
Q 1141 0 747 490 
Q 353 981 353 1791 
Q 353 2603 747 3093 
Q 1141 3584 1784 3584 
Q 2172 3584 2450 3431 
Q 2728 3278 2906 2969 
L 2906 3500 
L 3481 3500 
L 3481 434 
z
" transform="scale(0.015625)"/>
      <path id="DejaVuSans-72" d="M 2631 2963 
Q 2534 3019 2420 3045 
Q 2306 3072 2169 3072 
Q 1681 3072 1420 2755 
Q 1159 2438 1159 1844 
L 1159 0 
L 581 0 
L 581 3500 
L 1159 3500 
L 1159 2956 
Q 1341 3275 1631 3429 
Q 1922 3584 2338 3584 
Q 2397 3584 2469 3576 
Q 2541 3569 2628 3553 
L 2631 2963 
z
" transform="scale(0.015625)"/>
      <path id="DejaVuSans-6d" d="M 3328 2828 
Q 3544 3216 3844 3400 
Q 4144 3584 4550 3584 
Q 5097 3584 5394 3201 
Q 5691 2819 5691 2113 
L 5691 0 
L 5113 0 
L 5113 2094 
Q 5113 2597 4934 2840 
Q 4756 3084 4391 3084 
Q 3944 3084 3684 2787 
Q 3425 2491 3425 1978 
L 3425 0 
L 2847 0 
L 2847 2094 
Q 2847 2600 2669 2842 
Q 2491 3084 2119 3084 
Q 1678 3084 1418 2786 
Q 1159 2488 1159 1978 
L 1159 0 
L 581 0 
L 581 3500 
L 1159 3500 
L 1159 2956 
Q 1356 3278 1631 3431 
Q 1906 3584 2284 3584 
Q 2666 3584 2933 3390 
Q 3200 3197 3328 2828 
z
" transform="scale(0.015625)"/>
      <path id="DejaVuSans-6e" d="M 3513 2113 
L 3513 0 
L 2938 0 
L 2938 2094 
Q 2938 2591 2744 2837 
Q 2550 3084 2163 3084 
Q 1697 3084 1428 2787 
Q 1159 2491 1159 1978 
L 1159 0 
L 581 0 
L 581 3500 
L 1159 3500 
L 1159 2956 
Q 1366 3272 1645 3428 
Q 1925 3584 2291 3584 
Q 2894 3584 3203 3211 
Q 3513 2838 3513 2113 
z
" transform="scale(0.015625)"/>
      <path id="DejaVuSans-6f" d="M 1959 3097 
Q 1497 3097 1228 2736 
Q 959 2375 959 1747 
Q 959 1119 1226 758 
Q 1494 397 1959 397 
Q 2419 397 2687 759 
Q 2956 1122 2956 1747 
Q 2956 2369 2687 2733 
Q 2419 3097 1959 3097 
z
M 1959 3584 
Q 2709 3584 3137 3096 
Q 3566 2609 3566 1747 
Q 3566 888 3137 398 
Q 2709 -91 1959 -91 
Q 1206 -91 779 398 
Q 353 888 353 1747 
Q 353 2609 779 3096 
Q 1206 3584 1959 3584 
z
" transform="scale(0.015625)"/>
      <path id="DejaVuSans-75" d="M 544 1381 
L 544 3500 
L 1119 3500 
L 1119 1403 
Q 1119 906 1312 657 
Q 1506 409 1894 409 
Q 2359 409 2629 706 
Q 2900 1003 2900 1516 
L 2900 3500 
L 3475 3500 
L 3475 0 
L 2900 0 
L 2900 538 
Q 2691 219 2414 64 
Q 2138 -91 1772 -91 
Q 1169 -91 856 284 
Q 544 659 544 1381 
z
M 1991 3584 
L 1991 3584 
z
" transform="scale(0.015625)"/>
      <path id="DejaVuSans-70" d="M 1159 525 
L 1159 -1331 
L 581 -1331 
L 581 3500 
L 1159 3500 
L 1159 2969 
Q 1341 3281 1617 3432 
Q 1894 3584 2278 3584 
Q 2916 3584 3314 3078 
Q 3713 2572 3713 1747 
Q 3713 922 3314 415 
Q 2916 -91 2278 -91 
Q 1894 -91 1617 61 
Q 1341 213 1159 525 
z
M 3116 1747 
Q 3116 2381 2855 2742 
Q 2594 3103 2138 3103 
Q 1681 3103 1420 2742 
Q 1159 2381 1159 1747 
Q 1159 1113 1420 752 
Q 1681 391 2138 391 
Q 2594 391 2855 752 
Q 3116 1113 3116 1747 
z
" transform="scale(0.015625)"/>
      <path id="DejaVuSans-74" d="M 1172 4494 
L 1172 3500 
L 2356 3500 
L 2356 3053 
L 1172 3053 
L 1172 1153 
Q 1172 725 1289 603 
Q 1406 481 1766 481 
L 2356 481 
L 2356 0 
L 1766 0 
Q 1100 0 847 248 
Q 594 497 594 1153 
L 594 3053 
L 172 3053 
L 172 3500 
L 594 3500 
L 594 4494 
L 1172 4494 
z
" transform="scale(0.015625)"/>
      <path id="DejaVuSans-6c" d="M 603 4863 
L 1178 4863 
L 1178 0 
L 603 0 
L 603 4863 
z
" transform="scale(0.015625)"/>
     </defs>
     <use xlink:href="#DejaVuSans-50"/>
     <use xlink:href="#DejaVuSans-68" transform="translate(60.302734 0)"/>
     <use xlink:href="#DejaVuSans-61" transform="translate(123.681641 0)"/>
     <use xlink:href="#DejaVuSans-73" transform="translate(184.960938 0)"/>
     <use xlink:href="#DejaVuSans-65" transform="translate(237.060547 0)"/>
     <use xlink:href="#DejaVuSans-20" transform="translate(298.583984 0)"/>
     <use xlink:href="#DejaVuSans-64" transform="translate(330.371094 0)"/>
     <use xlink:href="#DejaVuSans-69" transform="translate(393.847656 0)"/>
     <use xlink:href="#DejaVuSans-61" transform="translate(421.630859 0)"/>
     <use xlink:href="#DejaVuSans-67" transform="translate(482.910156 0)"/>
     <use xlink:href="#DejaVuSans-72" transform="translate(546.386719 0)"/>
     <use xlink:href="#DejaVuSans-61" transform="translate(587.5 0)"/>
     <use xlink:href="#DejaVuSans-6d" transform="translate(648.779297 0)"/>
     <use xlink:href="#DejaVuSans-20" transform="translate(746.191406 0)"/>
     <use xlink:href="#DejaVuSans-61" transform="translate(777.978516 0)"/>
     <use xlink:href="#DejaVuSans-6e" transform="translate(839.257812 0)"/>
     <use xlink:href="#DejaVuSans-64" transform="translate(902.636719 0)"/>
     <use xlink:href="#DejaVuSans-20" transform="translate(966.113281 0)"/>
     <use xlink:href="#DejaVuSans-63" transform="translate(997.900391 0)"/>
     <use xlink:href="#DejaVuSans-6f" transform="translate(1052.880859 0)"/>
     <use xlink:href="#DejaVuSans-6e" transform="translate(1114.0625 0)"/>
     <use xlink:href="#DejaVuSans-73" transform="translate(1177.441406 0)"/>
     <use xlink:href="#DejaVuSans-75" transform="translate(1229.541016 0)"/>
     <use xlink:href="#DejaVuSans-6d" transform="translate(1292.919922 0)"/>
     <use xlink:href="#DejaVuSans-70" transform="translate(1390.332031 0)"/>
     <use xlink:href="#DejaVuSans-74" transform="translate(1453.808594 0)"/>
     <use xlink:href="#DejaVuSans-69" transform="translate(1493.017578 0)"/>
     <use xlink:href="#DejaVuSans-6f" transform="translate(1520.800781 0)"/>
     <use xlink:href="#DejaVuSans-6e" transform="translate(1581.982422 0)"/>
     <use xlink:href="#DejaVuSans-20" transform="translate(1645.361328 0)"/>
     <use xlink:href="#DejaVuSans-72" transform="translate(1677.148438 0)"/>
     <use xlink:href="#DejaVuSans-75" transform="translate(1718.261719 0)"/>
     <use xlink:href="#DejaVuSans-6c" transform="translate(1781.640625 0)"/>
     <use xlink:href="#DejaVuSans-65" transform="translate(1809.423828 0)"/>
    </g>
    <!-- (normalized by efficiency units) -->
    <g transform="translate(141.413437 35.472) scale(0.12 -0.12)">
     <defs>
      <path id="DejaVuSans-28" d="M 1984 4856 
Q 1566 4138 1362 3434 
Q 1159 2731 1159 2009 
Q 1159 1288 1364 580 
Q 1569 -128 1984 -844 
L 1484 -844 
Q 1016 -109 783 600 
Q 550 1309 550 2009 
Q 550 2706 781 3412 
Q 1013 4119 1484 4856 
L 1984 4856 
z
" transform="scale(0.015625)"/>
      <path id="DejaVuSans-7a" d="M 353 3500 
L 3084 3500 
L 3084 2975 
L 922 459 
L 3084 459 
L 3084 0 
L 275 0 
L 275 525 
L 2438 3041 
L 353 3041 
L 353 3500 
z
" transform="scale(0.015625)"/>
      <path id="DejaVuSans-62" d="M 3116 1747 
Q 3116 2381 2855 2742 
Q 2594 3103 2138 3103 
Q 1681 3103 1420 2742 
Q 1159 2381 1159 1747 
Q 1159 1113 1420 752 
Q 1681 391 2138 391 
Q 2594 391 2855 752 
Q 3116 1113 3116 1747 
z
M 1159 2969 
Q 1341 3281 1617 3432 
Q 1894 3584 2278 3584 
Q 2916 3584 3314 3078 
Q 3713 2572 3713 1747 
Q 3713 922 3314 415 
Q 2916 -91 2278 -91 
Q 1894 -91 1617 61 
Q 1341 213 1159 525 
L 1159 0 
L 581 0 
L 581 4863 
L 1159 4863 
L 1159 2969 
z
" transform="scale(0.015625)"/>
      <path id="DejaVuSans-79" d="M 2059 -325 
Q 1816 -950 1584 -1140 
Q 1353 -1331 966 -1331 
L 506 -1331 
L 506 -850 
L 844 -850 
Q 1081 -850 1212 -737 
Q 1344 -625 1503 -206 
L 1606 56 
L 191 3500 
L 800 3500 
L 1894 763 
L 2988 3500 
L 3597 3500 
L 2059 -325 
z
" transform="scale(0.015625)"/>
      <path id="DejaVuSans-66" d="M 2375 4863 
L 2375 4384 
L 1825 4384 
Q 1516 4384 1395 4259 
Q 1275 4134 1275 3809 
L 1275 3500 
L 2222 3500 
L 2222 3053 
L 1275 3053 
L 1275 0 
L 697 0 
L 697 3053 
L 147 3053 
L 147 3500 
L 697 3500 
L 697 3744 
Q 697 4328 969 4595 
Q 1241 4863 1831 4863 
L 2375 4863 
z
" transform="scale(0.015625)"/>
      <path id="DejaVuSans-29" d="M 513 4856 
L 1013 4856 
Q 1481 4119 1714 3412 
Q 1947 2706 1947 2009 
Q 1947 1309 1714 600 
Q 1481 -109 1013 -844 
L 513 -844 
Q 928 -128 1133 580 
Q 1338 1288 1338 2009 
Q 1338 2731 1133 3434 
Q 928 4138 513 4856 
z
" transform="scale(0.015625)"/>
     </defs>
     <use xlink:href="#DejaVuSans-28"/>
     <use xlink:href="#DejaVuSans-6e" transform="translate(39.013672 0)"/>
     <use xlink:href="#DejaVuSans-6f" transform="translate(102.392578 0)"/>
     <use xlink:href="#DejaVuSans-72" transform="translate(163.574219 0)"/>
     <use xlink:href="#DejaVuSans-6d" transform="translate(202.9375 0)"/>
     <use xlink:href="#DejaVuSans-61" transform="translate(300.349609 0)"/>
     <use xlink:href="#DejaVuSans-6c" transform="translate(361.628906 0)"/>
     <use xlink:href="#DejaVuSans-69" transform="translate(389.412109 0)"/>
     <use xlink:href="#DejaVuSans-7a" transform="translate(417.195312 0)"/>
     <use xlink:href="#DejaVuSans-65" transform="translate(469.685547 0)"/>
     <use xlink:href="#DejaVuSans-64" transform="translate(531.208984 0)"/>
     <use xlink:href="#DejaVuSans-20" transform="translate(594.685547 0)"/>
     <use xlink:href="#DejaVuSans-62" transform="translate(626.472656 0)"/>
     <use xlink:href="#DejaVuSans-79" transform="translate(689.949219 0)"/>
     <use xlink:href="#DejaVuSans-20" transform="translate(749.128906 0)"/>
     <use xlink:href="#DejaVuSans-65" transform="translate(780.916016 0)"/>
     <use xlink:href="#DejaVuSans-66" transform="translate(842.439453 0)"/>
     <use xlink:href="#DejaVuSans-66" transform="translate(877.644531 0)"/>
     <use xlink:href="#DejaVuSans-69" transform="translate(912.849609 0)"/>
     <use xlink:href="#DejaVuSans-63" transform="translate(940.632812 0)"/>
     <use xlink:href="#DejaVuSans-69" transform="translate(995.613281 0)"/>
     <use xlink:href="#DejaVuSans-65" transform="translate(1023.396484 0)"/>
     <use xlink:href="#DejaVuSans-6e" transform="translate(1084.919922 0)"/>
     <use xlink:href="#DejaVuSans-63" transform="translate(1148.298828 0)"/>
     <use xlink:href="#DejaVuSans-79" transform="translate(1203.279297 0)"/>
     <use xlink:href="#DejaVuSans-20" transform="translate(1262.458984 0)"/>
     <use xlink:href="#DejaVuSans-75" transform="translate(1294.246094 0)"/>
     <use xlink:href="#DejaVuSans-6e" transform="translate(1357.625 0)"/>
     <use xlink:href="#DejaVuSans-69" transform="translate(1421.003906 0)"/>
     <use xlink:href="#DejaVuSans-74" transform="translate(1448.787109 0)"/>
     <use xlink:href="#DejaVuSans-73" transform="translate(1487.996094 0)"/>
     <use xlink:href="#DejaVuSans-29" transform="translate(1540.095703 0)"/>
    </g>
   </g>
   <g id="legend_1">
    <g id="patch_7">
     <path d="M 312.393438 206.095188 
L 407.72 206.095188 
Q 409.72 206.095188 409.72 204.095188 
L 409.72 144.960813 
Q 409.72 142.960813 407.72 142.960813 
L 312.393438 142.960813 
Q 310.393438 142.960813 310.393438 144.960813 
L 310.393438 204.095188 
Q 310.393438 206.095188 312.393438 206.095188 
z
" style="fill: #ffffff; opacity: 0.8; stroke: #cccccc; stroke-linejoin: miter"/>
    </g>
    <g id="line2d_16">
     <path d="M 314.393438 152.481125 
L 324.393438 152.481125 
L 334.393438 152.481125 
" style="fill: none; stroke: #1f77b4; stroke-width: 1.5; stroke-linecap: square"/>
    </g>
    <g id="text_15">
     <!-- $\dot{k}=0$ locus -->
     <g transform="translate(342.393438 155.981125) scale(0.1 -0.1)">
      <defs>
       <path id="DejaVuSans-307" d="M -1894 4863 
L -1319 4863 
L -1319 4134 
L -1894 4134 
L -1894 4863 
z
M -1600 3584 
L -1600 3584 
z
" transform="scale(0.015625)"/>
       <path id="DejaVuSans-Oblique-6b" d="M 1172 4863 
L 1747 4863 
L 1197 2028 
L 3169 3500 
L 3916 3500 
L 1716 1825 
L 3322 0 
L 2625 0 
L 1131 1709 
L 800 0 
L 225 0 
L 1172 4863 
z
" transform="scale(0.015625)"/>
       <path id="DejaVuSans-3d" d="M 678 2906 
L 4684 2906 
L 4684 2381 
L 678 2381 
L 678 2906 
z
M 678 1631 
L 4684 1631 
L 4684 1100 
L 678 1100 
L 678 1631 
z
" transform="scale(0.015625)"/>
      </defs>
      <use xlink:href="#DejaVuSans-307" transform="translate(61.071289 33.015625)"/>
      <use xlink:href="#DejaVuSans-Oblique-6b" transform="translate(0 0.53125)"/>
      <use xlink:href="#DejaVuSans-3d" transform="translate(77.392578 0.53125)"/>
      <use xlink:href="#DejaVuSans-30" transform="translate(180.664062 0.53125)"/>
      <use xlink:href="#DejaVuSans-20" transform="translate(244.287109 0.53125)"/>
      <use xlink:href="#DejaVuSans-6c" transform="translate(276.074219 0.53125)"/>
      <use xlink:href="#DejaVuSans-6f" transform="translate(303.857422 0.53125)"/>
      <use xlink:href="#DejaVuSans-63" transform="translate(365.039062 0.53125)"/>
      <use xlink:href="#DejaVuSans-75" transform="translate(420.019531 0.53125)"/>
      <use xlink:href="#DejaVuSans-73" transform="translate(483.398438 0.53125)"/>
     </g>
    </g>
    <g id="line2d_17">
     <path d="M 314.393438 167.15925 
L 324.393438 167.15925 
L 334.393438 167.15925 
" style="fill: none; stroke-dasharray: 5.55,2.4; stroke-dashoffset: 0; stroke: #1f77b4; stroke-width: 1.5"/>
    </g>
    <g id="text_16">
     <!-- $\dot{c}=0$ locus -->
     <g transform="translate(342.393438 170.65925) scale(0.1 -0.1)">
      <defs>
       <path id="DejaVuSans-Oblique-63" d="M 3431 3366 
L 3316 2797 
Q 3109 2947 2876 3022 
Q 2644 3097 2394 3097 
Q 2119 3097 1870 3000 
Q 1622 2903 1453 2725 
Q 1184 2453 1037 2087 
Q 891 1722 891 1331 
Q 891 859 1127 628 
Q 1363 397 1844 397 
Q 2081 397 2348 469 
Q 2616 541 2906 684 
L 2797 116 
Q 2547 13 2283 -39 
Q 2019 -91 1741 -91 
Q 1044 -91 669 257 
Q 294 606 294 1253 
Q 294 1797 489 2255 
Q 684 2713 1069 3078 
Q 1331 3328 1684 3456 
Q 2038 3584 2456 3584 
Q 2700 3584 2940 3529 
Q 3181 3475 3431 3366 
z
" transform="scale(0.015625)"/>
      </defs>
      <use xlink:href="#DejaVuSans-307" transform="translate(59.338867 13.015625)"/>
      <use xlink:href="#DejaVuSans-Oblique-63" transform="translate(0 0.515625)"/>
      <use xlink:href="#DejaVuSans-3d" transform="translate(74.462891 0.515625)"/>
      <use xlink:href="#DejaVuSans-30" transform="translate(177.734375 0.515625)"/>
      <use xlink:href="#DejaVuSans-20" transform="translate(241.357422 0.515625)"/>
      <use xlink:href="#DejaVuSans-6c" transform="translate(273.144531 0.515625)"/>
      <use xlink:href="#DejaVuSans-6f" transform="translate(300.927734 0.515625)"/>
      <use xlink:href="#DejaVuSans-63" transform="translate(362.109375 0.515625)"/>
      <use xlink:href="#DejaVuSans-75" transform="translate(417.089844 0.515625)"/>
      <use xlink:href="#DejaVuSans-73" transform="translate(480.46875 0.515625)"/>
     </g>
    </g>
    <g id="line2d_18">
     <path d="M 314.393438 181.837375 
L 324.393438 181.837375 
L 334.393438 181.837375 
" style="fill: none; stroke: #ff7f0e; stroke-width: 1.5; stroke-linecap: square"/>
    </g>
    <g id="text_17">
     <!-- Saddle path -->
     <g transform="translate(342.393438 185.337375) scale(0.1 -0.1)">
      <defs>
       <path id="DejaVuSans-53" d="M 3425 4513 
L 3425 3897 
Q 3066 4069 2747 4153 
Q 2428 4238 2131 4238 
Q 1616 4238 1336 4038 
Q 1056 3838 1056 3469 
Q 1056 3159 1242 3001 
Q 1428 2844 1947 2747 
L 2328 2669 
Q 3034 2534 3370 2195 
Q 3706 1856 3706 1288 
Q 3706 609 3251 259 
Q 2797 -91 1919 -91 
Q 1588 -91 1214 -16 
Q 841 59 441 206 
L 441 856 
Q 825 641 1194 531 
Q 1563 422 1919 422 
Q 2459 422 2753 634 
Q 3047 847 3047 1241 
Q 3047 1584 2836 1778 
Q 2625 1972 2144 2069 
L 1759 2144 
Q 1053 2284 737 2584 
Q 422 2884 422 3419 
Q 422 4038 858 4394 
Q 1294 4750 2059 4750 
Q 2388 4750 2728 4690 
Q 3069 4631 3425 4513 
z
" transform="scale(0.015625)"/>
      </defs>
      <use xlink:href="#DejaVuSans-53"/>
      <use xlink:href="#DejaVuSans-61" transform="translate(63.476562 0)"/>
      <use xlink:href="#DejaVuSans-64" transform="translate(124.755859 0)"/>
      <use xlink:href="#DejaVuSans-64" transform="translate(188.232422 0)"/>
      <use xlink:href="#DejaVuSans-6c" transform="translate(251.708984 0)"/>
      <use xlink:href="#DejaVuSans-65" transform="translate(279.492188 0)"/>
      <use xlink:href="#DejaVuSans-20" transform="translate(341.015625 0)"/>
      <use xlink:href="#DejaVuSans-70" transform="translate(372.802734 0)"/>
      <use xlink:href="#DejaVuSans-61" transform="translate(436.279297 0)"/>
      <use xlink:href="#DejaVuSans-74" transform="translate(497.558594 0)"/>
      <use xlink:href="#DejaVuSans-68" transform="translate(536.767578 0)"/>
     </g>
    </g>
    <g id="line2d_19">
     <g>
      <use xlink:href="#m6279cb8653" x="324.393438" y="196.5155" style="fill: #ff0000; stroke: #ff0000; stroke-linejoin: bevel"/>
     </g>
    </g>
    <g id="text_18">
     <!-- Steady state -->
     <g transform="translate(342.393438 200.0155) scale(0.1 -0.1)">
      <use xlink:href="#DejaVuSans-53"/>
      <use xlink:href="#DejaVuSans-74" transform="translate(63.476562 0)"/>
      <use xlink:href="#DejaVuSans-65" transform="translate(102.685547 0)"/>
      <use xlink:href="#DejaVuSans-61" transform="translate(164.208984 0)"/>
      <use xlink:href="#DejaVuSans-64" transform="translate(225.488281 0)"/>
      <use xlink:href="#DejaVuSans-79" transform="translate(288.964844 0)"/>
      <use xlink:href="#DejaVuSans-20" transform="translate(348.144531 0)"/>
      <use xlink:href="#DejaVuSans-73" transform="translate(379.931641 0)"/>
      <use xlink:href="#DejaVuSans-74" transform="translate(432.03125 0)"/>
      <use xlink:href="#DejaVuSans-61" transform="translate(471.240234 0)"/>
      <use xlink:href="#DejaVuSans-74" transform="translate(532.519531 0)"/>
      <use xlink:href="#DejaVuSans-65" transform="translate(571.728516 0)"/>
     </g>
    </g>
   </g>
  </g>
 </g>
 <defs>
  <clipPath id="p2f2b1ec705">
   <rect x="57.6" y="41.472" width="357.12" height="266.112"/>
  </clipPath>
 </defs>
</svg>
