<?xml version="1.0" encoding="utf-8" standalone="no"?>
<!DOCTYPE svg PUBLIC "-//W3C//DTD SVG 1.1//EN"
  "http://www.w3.org/Graphics/SVG/1.1/DTD/svg11.dtd">
<svg xmlns:xlink="http://www.w3.org/1999/xlink" width="460.8pt" height="345.6pt" viewBox="0 0 460.8 345.6" xmlns="http://www.w3.org/2000/svg" version="1.1">
 <metadata>
  <rdf:RDF xmlns:dc="http://purl.org/dc/elements/1.1/" xmlns:cc="http://creativecommons.org/ns#" xmlns:rdf="http://www.w3.org/1999/02/22-rdf-syntax-ns#">
   <cc:Work>
    <dc:type rdf:resource="http://purl.org/dc/dcmitype/StillImage"/>
    <dc:format>image/svg+xml</dc:format>
    <dc:creator>
     <cc:Agent>
      <dc:title>Matplotlib v3.10.6, https://matplotlib.org/</dc:title>
     </cc:Agent>
    </dc:creator>
   </cc:Work>
  </rdf:RDF>
 </metadata>
 <defs>
  <style type="text/css">*{stroke-linejoin: round; stroke-linecap: butt}</style>
 </defs>
 <g id="figure_1">
  <g id="patch_1">
   <path d="M 0 345.6 
L 460.8 345.6 
L 460.8 0 
L 0 0 
z
" style="fill: #ffffff"/>
  </g>
  <g id="axes_1">
   <g id="patch_2">
    <path d="M 57.6 307.584 
L 414.72 307.584 
L 414.72 41.472 
L 57.6 41.472 
z
" style="fill: #ffffff"/>
   </g>
   <g id="matplotlib.axis_1">
    <g id="xtick_1">
     <g id="line2d_1">
      <defs>
       <path id="mca1e04d26e" d="M 0 0 
L 0 3.5 
" style="stroke: #000000; stroke-width: 0.8"/>
      </defs>
      <g>
       <use xlink:href="#mca1e04d26e" x="70.435571" y="307.584" style="stroke: #000000; stroke-width: 0.8"/>
      </g>
     </g>
     <g id="text_1">
      <!-- 0.8 -->
      <g transform="translate(62.484009 322.182437) scale(0.1 -0.1)">
       <defs>
        <path id="DejaVuSans-30" d="M 2034 4250 
Q 1547 4250 1301 3770 
Q 1056 3291 1056 2328 
Q 1056 1369 1301 889 
Q 1547 409 2034 409 
Q 2525 409 2770 889 
Q 3016 1369 3016 2328 
Q 3016 3291 2770 3770 
Q 2525 4250 2034 4250 
z
M 2034 4750 
Q 2819 4750 3233 4129 
Q 3647 3509 3647 2328 
Q 3647 1150 3233 529 
Q 2819 -91 2034 -91 
Q 1250 -91 836 529 
Q 422 1150 422 2328 
Q 422 3509 836 4129 
Q 1250 4750 2034 4750 
z
" transform="scale(0.015625)"/>
        <path id="DejaVuSans-2e" d="M 684 794 
L 1344 794 
L 1344 0 
L 684 0 
L 684 794 
z
" transform="scale(0.015625)"/>
        <path id="DejaVuSans-38" d="M 2034 2216 
Q 1584 2216 1326 1975 
Q 1069 1734 1069 1313 
Q 1069 891 1326 650 
Q 1584 409 2034 409 
Q 2484 409 2743 651 
Q 3003 894 3003 1313 
Q 3003 1734 2745 1975 
Q 2488 2216 2034 2216 
z
M 1403 2484 
Q 997 2584 770 2862 
Q 544 3141 544 3541 
Q 544 4100 942 4425 
Q 1341 4750 2034 4750 
Q 2731 4750 3128 4425 
Q 3525 4100 3525 3541 
Q 3525 3141 3298 2862 
Q 3072 2584 2669 2484 
Q 3125 2378 3379 2068 
Q 3634 1759 3634 1313 
Q 3634 634 3220 271 
Q 2806 -91 2034 -91 
Q 1263 -91 848 271 
Q 434 634 434 1313 
Q 434 1759 690 2068 
Q 947 2378 1403 2484 
z
M 1172 3481 
Q 1172 3119 1398 2916 
Q 1625 2713 2034 2713 
Q 2441 2713 2670 2916 
Q 2900 3119 2900 3481 
Q 2900 3844 2670 4047 
Q 2441 4250 2034 4250 
Q 1625 4250 1398 4047 
Q 1172 3844 1172 3481 
z
" transform="scale(0.015625)"/>
       </defs>
       <use xlink:href="#DejaVuSans-30"/>
       <use xlink:href="#DejaVuSans-2e" transform="translate(63.623047 0)"/>
       <use xlink:href="#DejaVuSans-38" transform="translate(95.410156 0)"/>
      </g>
     </g>
    </g>
    <g id="xtick_2">
     <g id="line2d_2">
      <g>
       <use xlink:href="#mca1e04d26e" x="116.821628" y="307.584" style="stroke: #000000; stroke-width: 0.8"/>
      </g>
     </g>
     <g id="text_2">
      <!-- 1.0 -->
      <g transform="translate(108.870065 322.182437) scale(0.1 -0.1)">
       <defs>
        <path id="DejaVuSans-31" d="M 794 531 
L 1825 531 
L 1825 4091 
L 703 3866 
L 703 4441 
L 1819 4666 
L 2450 4666 
L 2450 531 
L 3481 531 
L 3481 0 
L 794 0 
L 794 531 
z
" transform="scale(0.015625)"/>
       </defs>
       <use xlink:href="#DejaVuSans-31"/>
       <use xlink:href="#DejaVuSans-2e" transform="translate(63.623047 0)"/>
       <use xlink:href="#DejaVuSans-30" transform="translate(95.410156 0)"/>
      </g>
     </g>
    </g>
    <g id="xtick_3">
     <g id="line2d_3">
      <g>
       <use xlink:href="#mca1e04d26e" x="163.207685" y="307.584" style="stroke: #000000; stroke-width: 0.8"/>
      </g>
     </g>
     <g id="text_3">
      <!-- 1.2 -->
      <g transform="translate(155.256122 322.182437) scale(0.1 -0.1)">
       <defs>
        <path id="DejaVuSans-32" d="M 1228 531 
L 3431 531 
L 3431 0 
L 469 0 
L 469 531 
Q 828 903 1448 1529 
Q 2069 2156 2228 2338 
Q 2531 2678 2651 2914 
Q 2772 3150 2772 3378 
Q 2772 3750 2511 3984 
Q 2250 4219 1831 4219 
Q 1534 4219 1204 4116 
Q 875 4013 500 3803 
L 500 4441 
Q 881 4594 1212 4672 
Q 1544 4750 1819 4750 
Q 2544 4750 2975 4387 
Q 3406 4025 3406 3419 
Q 3406 3131 3298 2873 
Q 3191 2616 2906 2266 
Q 2828 2175 2409 1742 
Q 1991 1309 1228 531 
z
" transform="scale(0.015625)"/>
       </defs>
       <use xlink:href="#DejaVuSans-31"/>
       <use xlink:href="#DejaVuSans-2e" transform="translate(63.623047 0)"/>
       <use xlink:href="#DejaVuSans-32" transform="translate(95.410156 0)"/>
      </g>
     </g>
    </g>
    <g id="xtick_4">
     <g id="line2d_4">
      <g>
       <use xlink:href="#mca1e04d26e" x="209.593741" y="307.584" style="stroke: #000000; stroke-width: 0.8"/>
      </g>
     </g>
     <g id="text_4">
      <!-- 1.4 -->
      <g transform="translate(201.642179 322.182437) scale(0.1 -0.1)">
       <defs>
        <path id="DejaVuSans-34" d="M 2419 4116 
L 825 1625 
L 2419 1625 
L 2419 4116 
z
M 2253 4666 
L 3047 4666 
L 3047 1625 
L 3713 1625 
L 3713 1100 
L 3047 1100 
L 3047 0 
L 2419 0 
L 2419 1100 
L 313 1100 
L 313 1709 
L 2253 4666 
z
" transform="scale(0.015625)"/>
       </defs>
       <use xlink:href="#DejaVuSans-31"/>
       <use xlink:href="#DejaVuSans-2e" transform="translate(63.623047 0)"/>
       <use xlink:href="#DejaVuSans-34" transform="translate(95.410156 0)"/>
      </g>
     </g>
    </g>
    <g id="xtick_5">
     <g id="line2d_5">
      <g>
       <use xlink:href="#mca1e04d26e" x="255.979798" y="307.584" style="stroke: #000000; stroke-width: 0.8"/>
      </g>
     </g>
     <g id="text_5">
      <!-- 1.6 -->
      <g transform="translate(248.028236 322.182437) scale(0.1 -0.1)">
       <defs>
        <path id="DejaVuSans-36" d="M 2113 2584 
Q 1688 2584 1439 2293 
Q 1191 2003 1191 1497 
Q 1191 994 1439 701 
Q 1688 409 2113 409 
Q 2538 409 2786 701 
Q 3034 994 3034 1497 
Q 3034 2003 2786 2293 
Q 2538 2584 2113 2584 
z
M 3366 4563 
L 3366 3988 
Q 3128 4100 2886 4159 
Q 2644 4219 2406 4219 
Q 1781 4219 1451 3797 
Q 1122 3375 1075 2522 
Q 1259 2794 1537 2939 
Q 1816 3084 2150 3084 
Q 2853 3084 3261 2657 
Q 3669 2231 3669 1497 
Q 3669 778 3244 343 
Q 2819 -91 2113 -91 
Q 1303 -91 875 529 
Q 447 1150 447 2328 
Q 447 3434 972 4092 
Q 1497 4750 2381 4750 
Q 2619 4750 2861 4703 
Q 3103 4656 3366 4563 
z
" transform="scale(0.015625)"/>
       </defs>
       <use xlink:href="#DejaVuSans-31"/>
       <use xlink:href="#DejaVuSans-2e" transform="translate(63.623047 0)"/>
       <use xlink:href="#DejaVuSans-36" transform="translate(95.410156 0)"/>
      </g>
     </g>
    </g>
    <g id="xtick_6">
     <g id="line2d_6">
      <g>
       <use xlink:href="#mca1e04d26e" x="302.365855" y="307.584" style="stroke: #000000; stroke-width: 0.8"/>
      </g>
     </g>
     <g id="text_6">
      <!-- 1.8 -->
      <g transform="translate(294.414292 322.182437) scale(0.1 -0.1)">
       <use xlink:href="#DejaVuSans-31"/>
       <use xlink:href="#DejaVuSans-2e" transform="translate(63.623047 0)"/>
       <use xlink:href="#DejaVuSans-38" transform="translate(95.410156 0)"/>
      </g>
     </g>
    </g>
    <g id="xtick_7">
     <g id="line2d_7">
      <g>
       <use xlink:href="#mca1e04d26e" x="348.751911" y="307.584" style="stroke: #000000; stroke-width: 0.8"/>
      </g>
     </g>
     <g id="text_7">
      <!-- 2.0 -->
      <g transform="translate(340.800349 322.182437) scale(0.1 -0.1)">
       <use xlink:href="#DejaVuSans-32"/>
       <use xlink:href="#DejaVuSans-2e" transform="translate(63.623047 0)"/>
       <use xlink:href="#DejaVuSans-30" transform="translate(95.410156 0)"/>
      </g>
     </g>
    </g>
    <g id="xtick_8">
     <g id="line2d_8">
      <g>
       <use xlink:href="#mca1e04d26e" x="395.137968" y="307.584" style="stroke: #000000; stroke-width: 0.8"/>
      </g>
     </g>
     <g id="text_8">
      <!-- 2.2 -->
      <g transform="translate(387.186406 322.182437) scale(0.1 -0.1)">
       <use xlink:href="#DejaVuSans-32"/>
       <use xlink:href="#DejaVuSans-2e" transform="translate(63.623047 0)"/>
       <use xlink:href="#DejaVuSans-32" transform="translate(95.410156 0)"/>
      </g>
     </g>
    </g>
    <g id="text_9">
     <!-- $d_t$ -->
     <g transform="translate(231.46 335.860562) scale(0.1 -0.1)">
      <defs>
       <path id="DejaVuSans-Oblique-64" d="M 2675 525 
Q 2444 222 2128 65 
Q 1813 -91 1428 -91 
Q 903 -91 598 267 
Q 294 625 294 1247 
Q 294 1766 478 2236 
Q 663 2706 1013 3078 
Q 1244 3325 1534 3454 
Q 1825 3584 2144 3584 
Q 2481 3584 2739 3421 
Q 2997 3259 3138 2956 
L 3513 4863 
L 4091 4863 
L 3144 0 
L 2566 0 
L 2675 525 
z
M 891 1350 
Q 891 897 1095 644 
Q 1300 391 1663 391 
Q 1931 391 2161 520 
Q 2391 650 2566 903 
Q 2750 1166 2856 1509 
Q 2963 1853 2963 2188 
Q 2963 2622 2758 2865 
Q 2553 3109 2194 3109 
Q 1922 3109 1687 2981 
Q 1453 2853 1288 2613 
Q 1106 2353 998 2009 
Q 891 1666 891 1350 
z
" transform="scale(0.015625)"/>
       <path id="DejaVuSans-Oblique-74" d="M 2706 3500 
L 2619 3053 
L 1472 3053 
L 1100 1153 
Q 1081 1047 1072 975 
Q 1063 903 1063 863 
Q 1063 663 1183 572 
Q 1303 481 1569 481 
L 2150 481 
L 2053 0 
L 1503 0 
Q 991 0 739 200 
Q 488 400 488 806 
Q 488 878 497 964 
Q 506 1050 525 1153 
L 897 3053 
L 409 3053 
L 500 3500 
L 978 3500 
L 1172 4494 
L 1747 4494 
L 1556 3500 
L 2706 3500 
z
" transform="scale(0.015625)"/>
      </defs>
      <use xlink:href="#DejaVuSans-Oblique-64" transform="translate(0 0.015625)"/>
      <use xlink:href="#DejaVuSans-Oblique-74" transform="translate(63.476562 -16.390625) scale(0.7)"/>
     </g>
    </g>
   </g>
   <g id="matplotlib.axis_2">
    <g id="ytick_1">
     <g id="line2d_9">
      <defs>
       <path id="mf698bb4eb7" d="M 0 0 
L -3.5 0 
" style="stroke: #000000; stroke-width: 0.8"/>
      </defs>
      <g>
       <use xlink:href="#mf698bb4eb7" x="57.6" y="290.992937" style="stroke: #000000; stroke-width: 0.8"/>
      </g>
     </g>
     <g id="text_10">
      <!-- 5 -->
      <g transform="translate(44.2375 294.792156) scale(0.1 -0.1)">
       <defs>
        <path id="DejaVuSans-35" d="M 691 4666 
L 3169 4666 
L 3169 4134 
L 1269 4134 
L 1269 2991 
Q 1406 3038 1543 3061 
Q 1681 3084 1819 3084 
Q 2600 3084 3056 2656 
Q 3513 2228 3513 1497 
Q 3513 744 3044 326 
Q 2575 -91 1722 -91 
Q 1428 -91 1123 -41 
Q 819 9 494 109 
L 494 744 
Q 775 591 1075 516 
Q 1375 441 1709 441 
Q 2250 441 2565 725 
Q 2881 1009 2881 1497 
Q 2881 1984 2565 2268 
Q 2250 2553 1709 2553 
Q 1456 2553 1204 2497 
Q 953 2441 691 2322 
L 691 4666 
z
" transform="scale(0.015625)"/>
       </defs>
       <use xlink:href="#DejaVuSans-35"/>
      </g>
     </g>
    </g>
    <g id="ytick_2">
     <g id="line2d_10">
      <g>
       <use xlink:href="#mf698bb4eb7" x="57.6" y="248.645193" style="stroke: #000000; stroke-width: 0.8"/>
      </g>
     </g>
     <g id="text_11">
      <!-- 10 -->
      <g transform="translate(37.875 252.444411) scale(0.1 -0.1)">
       <use xlink:href="#DejaVuSans-31"/>
       <use xlink:href="#DejaVuSans-30" transform="translate(63.623047 0)"/>
      </g>
     </g>
    </g>
    <g id="ytick_3">
     <g id="line2d_11">
      <g>
       <use xlink:href="#mf698bb4eb7" x="57.6" y="206.297448" style="stroke: #000000; stroke-width: 0.8"/>
      </g>
     </g>
     <g id="text_12">
      <!-- 15 -->
      <g transform="translate(37.875 210.096667) scale(0.1 -0.1)">
       <use xlink:href="#DejaVuSans-31"/>
       <use xlink:href="#DejaVuSans-35" transform="translate(63.623047 0)"/>
      </g>
     </g>
    </g>
    <g id="ytick_4">
     <g id="line2d_12">
      <g>
       <use xlink:href="#mf698bb4eb7" x="57.6" y="163.949703" style="stroke: #000000; stroke-width: 0.8"/>
      </g>
     </g>
     <g id="text_13">
      <!-- 20 -->
      <g transform="translate(37.875 167.748922) scale(0.1 -0.1)">
       <use xlink:href="#DejaVuSans-32"/>
       <use xlink:href="#DejaVuSans-30" transform="translate(63.623047 0)"/>
      </g>
     </g>
    </g>
    <g id="ytick_5">
     <g id="line2d_13">
      <g>
       <use xlink:href="#mf698bb4eb7" x="57.6" y="121.601959" style="stroke: #000000; stroke-width: 0.8"/>
      </g>
     </g>
     <g id="text_14">
      <!-- 25 -->
      <g transform="translate(37.875 125.401178) scale(0.1 -0.1)">
       <use xlink:href="#DejaVuSans-32"/>
       <use xlink:href="#DejaVuSans-35" transform="translate(63.623047 0)"/>
      </g>
     </g>
    </g>
    <g id="ytick_6">
     <g id="line2d_14">
      <g>
       <use xlink:href="#mf698bb4eb7" x="57.6" y="79.254214" style="stroke: #000000; stroke-width: 0.8"/>
      </g>
     </g>
     <g id="text_15">
      <!-- 30 -->
      <g transform="translate(37.875 83.053433) scale(0.1 -0.1)">
       <defs>
        <path id="DejaVuSans-33" d="M 2597 2516 
Q 3050 2419 3304 2112 
Q 3559 1806 3559 1356 
Q 3559 666 3084 287 
Q 2609 -91 1734 -91 
Q 1441 -91 1130 -33 
Q 819 25 488 141 
L 488 750 
Q 750 597 1062 519 
Q 1375 441 1716 441 
Q 2309 441 2620 675 
Q 2931 909 2931 1356 
Q 2931 1769 2642 2001 
Q 2353 2234 1838 2234 
L 1294 2234 
L 1294 2753 
L 1863 2753 
Q 2328 2753 2575 2939 
Q 2822 3125 2822 3475 
Q 2822 3834 2567 4026 
Q 2313 4219 1838 4219 
Q 1578 4219 1281 4162 
Q 984 4106 628 3988 
L 628 4550 
Q 988 4650 1302 4700 
Q 1616 4750 1894 4750 
Q 2613 4750 3031 4423 
Q 3450 4097 3450 3541 
Q 3450 3153 3228 2886 
Q 3006 2619 2597 2516 
z
" transform="scale(0.015625)"/>
       </defs>
       <use xlink:href="#DejaVuSans-33"/>
       <use xlink:href="#DejaVuSans-30" transform="translate(63.623047 0)"/>
      </g>
     </g>
    </g>
    <g id="text_16">
     <!-- $P^*(d_t)$ -->
     <g transform="translate(31.795312 189.778) rotate(-90) scale(0.1 -0.1)">
      <defs>
       <path id="DejaVuSans-Oblique-50" d="M 1081 4666 
L 2541 4666 
Q 3178 4666 3512 4369 
Q 3847 4072 3847 3500 
Q 3847 2731 3353 2303 
Q 2859 1875 1966 1875 
L 1172 1875 
L 806 0 
L 172 0 
L 1081 4666 
z
M 1613 4147 
L 1275 2394 
L 2069 2394 
Q 2606 2394 2893 2669 
Q 3181 2944 3181 3456 
Q 3181 3784 2986 3965 
Q 2791 4147 2438 4147 
L 1613 4147 
z
" transform="scale(0.015625)"/>
       <path id="DejaVuSans-2a" d="M 3009 3897 
L 1888 3291 
L 3009 2681 
L 2828 2375 
L 1778 3009 
L 1778 1831 
L 1422 1831 
L 1422 3009 
L 372 2375 
L 191 2681 
L 1313 3291 
L 191 3897 
L 372 4206 
L 1422 3572 
L 1422 4750 
L 1778 4750 
L 1778 3572 
L 2828 4206 
L 3009 3897 
z
" transform="scale(0.015625)"/>
       <path id="DejaVuSans-28" d="M 1984 4856 
Q 1566 4138 1362 3434 
Q 1159 2731 1159 2009 
Q 1159 1288 1364 580 
Q 1569 -128 1984 -844 
L 1484 -844 
Q 1016 -109 783 600 
Q 550 1309 550 2009 
Q 550 2706 781 3412 
Q 1013 4119 1484 4856 
L 1984 4856 
z
" transform="scale(0.015625)"/>
       <path id="DejaVuSans-29" d="M 513 4856 
L 1013 4856 
Q 1481 4119 1714 3412 
Q 1947 2706 1947 2009 
Q 1947 1309 1714 600 
Q 1481 -109 1013 -844 
L 513 -844 
Q 928 -128 1133 580 
Q 1338 1288 1338 2009 
Q 1338 2731 1133 3434 
Q 928 4138 513 4856 
z
" transform="scale(0.015625)"/>
      </defs>
      <use xlink:href="#DejaVuSans-Oblique-50" transform="translate(0 0.765625)"/>
      <use xlink:href="#DejaVuSans-2a" transform="translate(80.957201 39.046875) scale(0.7)"/>
      <use xlink:href="#DejaVuSans-28" transform="translate(132.329271 0.765625)"/>
      <use xlink:href="#DejaVuSans-Oblique-64" transform="translate(171.342943 0.765625)"/>
      <use xlink:href="#DejaVuSans-Oblique-74" transform="translate(234.819505 -15.640625) scale(0.7)"/>
      <use xlink:href="#DejaVuSans-29" transform="translate(265.000169 0.765625)"/>
     </g>
    </g>
   </g>
   <g id="line2d_15">
    <defs>
     <path id="m07b1cd268e" d="M 0 -3 
L -0.673542 -0.927051 
L -2.85317 -0.927051 
L -1.089814 0.354102 
L -1.763356 2.427051 
L -0 1.145898 
L 1.763356 2.427051 
L 1.089814 0.354102 
L 2.85317 -0.927051 
L 0.673542 -0.927051 
z
" style="stroke: #1f77b4; stroke-linejoin: bevel"/>
    </defs>
    <g clip-path="url(#p3d0b8712eb)">
     <use xlink:href="#m07b1cd268e" x="73.832727" y="295.488" style="fill: #1f77b4; stroke: #1f77b4; stroke-linejoin: bevel"/>
     <use xlink:href="#m07b1cd268e" x="75.750898" y="294.715523" style="fill: #1f77b4; stroke: #1f77b4; stroke-linejoin: bevel"/>
     <use xlink:href="#m07b1cd268e" x="77.688541" y="293.927281" style="fill: #1f77b4; stroke: #1f77b4; stroke-linejoin: bevel"/>
     <use xlink:href="#m07b1cd268e" x="79.645857" y="293.122954" style="fill: #1f77b4; stroke: #1f77b4; stroke-linejoin: bevel"/>
     <use xlink:href="#m07b1cd268e" x="81.623043" y="292.302212" style="fill: #1f77b4; stroke: #1f77b4; stroke-linejoin: bevel"/>
     <use xlink:href="#m07b1cd268e" x="83.620302" y="291.464721" style="fill: #1f77b4; stroke: #1f77b4; stroke-linejoin: bevel"/>
     <use xlink:href="#m07b1cd268e" x="85.637838" y="290.610139" style="fill: #1f77b4; stroke: #1f77b4; stroke-linejoin: bevel"/>
     <use xlink:href="#m07b1cd268e" x="87.675856" y="289.738117" style="fill: #1f77b4; stroke: #1f77b4; stroke-linejoin: bevel"/>
     <use xlink:href="#m07b1cd268e" x="89.734564" y="288.848299" style="fill: #1f77b4; stroke: #1f77b4; stroke-linejoin: bevel"/>
     <use xlink:href="#m07b1cd268e" x="91.814173" y="287.940323" style="fill: #1f77b4; stroke: #1f77b4; stroke-linejoin: bevel"/>
     <use xlink:href="#m07b1cd268e" x="93.914894" y="287.013817" style="fill: #1f77b4; stroke: #1f77b4; stroke-linejoin: bevel"/>
     <use xlink:href="#m07b1cd268e" x="96.036943" y="286.068403" style="fill: #1f77b4; stroke: #1f77b4; stroke-linejoin: bevel"/>
     <use xlink:href="#m07b1cd268e" x="98.180534" y="285.103696" style="fill: #1f77b4; stroke: #1f77b4; stroke-linejoin: bevel"/>
     <use xlink:href="#m07b1cd268e" x="100.345888" y="284.119301" style="fill: #1f77b4; stroke: #1f77b4; stroke-linejoin: bevel"/>
     <use xlink:href="#m07b1cd268e" x="102.533226" y="283.114818" style="fill: #1f77b4; stroke: #1f77b4; stroke-linejoin: bevel"/>
     <use xlink:href="#m07b1cd268e" x="104.742769" y="282.089835" style="fill: #1f77b4; stroke: #1f77b4; stroke-linejoin: bevel"/>
     <use xlink:href="#m07b1cd268e" x="106.974744" y="281.043936" style="fill: #1f77b4; stroke: #1f77b4; stroke-linejoin: bevel"/>
     <use xlink:href="#m07b1cd268e" x="109.229379" y="279.976692" style="fill: #1f77b4; stroke: #1f77b4; stroke-linejoin: bevel"/>
     <use xlink:href="#m07b1cd268e" x="111.506903" y="278.887668" style="fill: #1f77b4; stroke: #1f77b4; stroke-linejoin: bevel"/>
     <use xlink:href="#m07b1cd268e" x="113.807549" y="277.77642" style="fill: #1f77b4; stroke: #1f77b4; stroke-linejoin: bevel"/>
     <use xlink:href="#m07b1cd268e" x="116.131551" y="276.642495" style="fill: #1f77b4; stroke: #1f77b4; stroke-linejoin: bevel"/>
     <use xlink:href="#m07b1cd268e" x="118.479147" y="275.485429" style="fill: #1f77b4; stroke: #1f77b4; stroke-linejoin: bevel"/>
     <use xlink:href="#m07b1cd268e" x="120.850577" y="274.30475" style="fill: #1f77b4; stroke: #1f77b4; stroke-linejoin: bevel"/>
     <use xlink:href="#m07b1cd268e" x="123.246082" y="273.099976" style="fill: #1f77b4; stroke: #1f77b4; stroke-linejoin: bevel"/>
     <use xlink:href="#m07b1cd268e" x="125.665906" y="271.870616" style="fill: #1f77b4; stroke: #1f77b4; stroke-linejoin: bevel"/>
     <use xlink:href="#m07b1cd268e" x="128.110297" y="270.616168" style="fill: #1f77b4; stroke: #1f77b4; stroke-linejoin: bevel"/>
     <use xlink:href="#m07b1cd268e" x="130.579504" y="269.33612" style="fill: #1f77b4; stroke: #1f77b4; stroke-linejoin: bevel"/>
     <use xlink:href="#m07b1cd268e" x="133.073778" y="268.02995" style="fill: #1f77b4; stroke: #1f77b4; stroke-linejoin: bevel"/>
     <use xlink:href="#m07b1cd268e" x="135.593375" y="266.697123" style="fill: #1f77b4; stroke: #1f77b4; stroke-linejoin: bevel"/>
     <use xlink:href="#m07b1cd268e" x="138.138552" y="265.337097" style="fill: #1f77b4; stroke: #1f77b4; stroke-linejoin: bevel"/>
     <use xlink:href="#m07b1cd268e" x="140.709568" y="263.949317" style="fill: #1f77b4; stroke: #1f77b4; stroke-linejoin: bevel"/>
     <use xlink:href="#m07b1cd268e" x="143.306685" y="262.533215" style="fill: #1f77b4; stroke: #1f77b4; stroke-linejoin: bevel"/>
     <use xlink:href="#m07b1cd268e" x="145.930168" y="261.088215" style="fill: #1f77b4; stroke: #1f77b4; stroke-linejoin: bevel"/>
     <use xlink:href="#m07b1cd268e" x="148.580286" y="259.613725" style="fill: #1f77b4; stroke: #1f77b4; stroke-linejoin: bevel"/>
     <use xlink:href="#m07b1cd268e" x="151.257308" y="258.109145" style="fill: #1f77b4; stroke: #1f77b4; stroke-linejoin: bevel"/>
     <use xlink:href="#m07b1cd268e" x="153.961508" y="256.57386" style="fill: #1f77b4; stroke: #1f77b4; stroke-linejoin: bevel"/>
     <use xlink:href="#m07b1cd268e" x="156.693162" y="255.007244" style="fill: #1f77b4; stroke: #1f77b4; stroke-linejoin: bevel"/>
     <use xlink:href="#m07b1cd268e" x="159.452547" y="253.408658" style="fill: #1f77b4; stroke: #1f77b4; stroke-linejoin: bevel"/>
     <use xlink:href="#m07b1cd268e" x="162.239947" y="251.777448" style="fill: #1f77b4; stroke: #1f77b4; stroke-linejoin: bevel"/>
     <use xlink:href="#m07b1cd268e" x="165.055645" y="250.112949" style="fill: #1f77b4; stroke: #1f77b4; stroke-linejoin: bevel"/>
     <use xlink:href="#m07b1cd268e" x="167.899928" y="248.414482" style="fill: #1f77b4; stroke: #1f77b4; stroke-linejoin: bevel"/>
     <use xlink:href="#m07b1cd268e" x="170.773087" y="246.681354" style="fill: #1f77b4; stroke: #1f77b4; stroke-linejoin: bevel"/>
     <use xlink:href="#m07b1cd268e" x="173.675415" y="244.912857" style="fill: #1f77b4; stroke: #1f77b4; stroke-linejoin: bevel"/>
     <use xlink:href="#m07b1cd268e" x="176.607208" y="243.10827" style="fill: #1f77b4; stroke: #1f77b4; stroke-linejoin: bevel"/>
     <use xlink:href="#m07b1cd268e" x="179.568765" y="241.266855" style="fill: #1f77b4; stroke: #1f77b4; stroke-linejoin: bevel"/>
     <use xlink:href="#m07b1cd268e" x="182.560388" y="239.387862" style="fill: #1f77b4; stroke: #1f77b4; stroke-linejoin: bevel"/>
     <use xlink:href="#m07b1cd268e" x="185.582383" y="237.470524" style="fill: #1f77b4; stroke: #1f77b4; stroke-linejoin: bevel"/>
     <use xlink:href="#m07b1cd268e" x="188.635058" y="235.514057" style="fill: #1f77b4; stroke: #1f77b4; stroke-linejoin: bevel"/>
     <use xlink:href="#m07b1cd268e" x="191.718724" y="233.517664" style="fill: #1f77b4; stroke: #1f77b4; stroke-linejoin: bevel"/>
     <use xlink:href="#m07b1cd268e" x="194.833696" y="231.480529" style="fill: #1f77b4; stroke: #1f77b4; stroke-linejoin: bevel"/>
     <use xlink:href="#m07b1cd268e" x="197.980292" y="229.401822" style="fill: #1f77b4; stroke: #1f77b4; stroke-linejoin: bevel"/>
     <use xlink:href="#m07b1cd268e" x="201.158833" y="227.280694" style="fill: #1f77b4; stroke: #1f77b4; stroke-linejoin: bevel"/>
     <use xlink:href="#m07b1cd268e" x="204.369643" y="225.116279" style="fill: #1f77b4; stroke: #1f77b4; stroke-linejoin: bevel"/>
     <use xlink:href="#m07b1cd268e" x="207.61305" y="222.907693" style="fill: #1f77b4; stroke: #1f77b4; stroke-linejoin: bevel"/>
     <use xlink:href="#m07b1cd268e" x="210.889385" y="220.654036" style="fill: #1f77b4; stroke: #1f77b4; stroke-linejoin: bevel"/>
     <use xlink:href="#m07b1cd268e" x="214.198981" y="218.354388" style="fill: #1f77b4; stroke: #1f77b4; stroke-linejoin: bevel"/>
     <use xlink:href="#m07b1cd268e" x="217.542177" y="216.007809" style="fill: #1f77b4; stroke: #1f77b4; stroke-linejoin: bevel"/>
     <use xlink:href="#m07b1cd268e" x="220.919314" y="213.613343" style="fill: #1f77b4; stroke: #1f77b4; stroke-linejoin: bevel"/>
     <use xlink:href="#m07b1cd268e" x="224.330737" y="211.170012" style="fill: #1f77b4; stroke: #1f77b4; stroke-linejoin: bevel"/>
     <use xlink:href="#m07b1cd268e" x="227.776792" y="208.676819" style="fill: #1f77b4; stroke: #1f77b4; stroke-linejoin: bevel"/>
     <use xlink:href="#m07b1cd268e" x="231.257833" y="206.132746" style="fill: #1f77b4; stroke: #1f77b4; stroke-linejoin: bevel"/>
     <use xlink:href="#m07b1cd268e" x="234.774214" y="203.536754" style="fill: #1f77b4; stroke: #1f77b4; stroke-linejoin: bevel"/>
     <use xlink:href="#m07b1cd268e" x="238.326294" y="200.887786" style="fill: #1f77b4; stroke: #1f77b4; stroke-linejoin: bevel"/>
     <use xlink:href="#m07b1cd268e" x="241.914436" y="198.184758" style="fill: #1f77b4; stroke: #1f77b4; stroke-linejoin: bevel"/>
     <use xlink:href="#m07b1cd268e" x="245.539004" y="195.426569" style="fill: #1f77b4; stroke: #1f77b4; stroke-linejoin: bevel"/>
     <use xlink:href="#m07b1cd268e" x="249.200371" y="192.612092" style="fill: #1f77b4; stroke: #1f77b4; stroke-linejoin: bevel"/>
     <use xlink:href="#m07b1cd268e" x="252.898908" y="189.740178" style="fill: #1f77b4; stroke: #1f77b4; stroke-linejoin: bevel"/>
     <use xlink:href="#m07b1cd268e" x="256.634993" y="186.809657" style="fill: #1f77b4; stroke: #1f77b4; stroke-linejoin: bevel"/>
     <use xlink:href="#m07b1cd268e" x="260.409008" y="183.81933" style="fill: #1f77b4; stroke: #1f77b4; stroke-linejoin: bevel"/>
     <use xlink:href="#m07b1cd268e" x="264.221338" y="180.767979" style="fill: #1f77b4; stroke: #1f77b4; stroke-linejoin: bevel"/>
     <use xlink:href="#m07b1cd268e" x="268.072371" y="177.654357" style="fill: #1f77b4; stroke: #1f77b4; stroke-linejoin: bevel"/>
     <use xlink:href="#m07b1cd268e" x="271.9625" y="174.477195" style="fill: #1f77b4; stroke: #1f77b4; stroke-linejoin: bevel"/>
     <use xlink:href="#m07b1cd268e" x="275.892123" y="171.235194" style="fill: #1f77b4; stroke: #1f77b4; stroke-linejoin: bevel"/>
     <use xlink:href="#m07b1cd268e" x="279.86164" y="167.927032" style="fill: #1f77b4; stroke: #1f77b4; stroke-linejoin: bevel"/>
     <use xlink:href="#m07b1cd268e" x="283.871457" y="164.55136" style="fill: #1f77b4; stroke: #1f77b4; stroke-linejoin: bevel"/>
     <use xlink:href="#m07b1cd268e" x="287.921982" y="161.106798" style="fill: #1f77b4; stroke: #1f77b4; stroke-linejoin: bevel"/>
     <use xlink:href="#m07b1cd268e" x="292.013628" y="157.591941" style="fill: #1f77b4; stroke: #1f77b4; stroke-linejoin: bevel"/>
     <use xlink:href="#m07b1cd268e" x="296.146814" y="154.005356" style="fill: #1f77b4; stroke: #1f77b4; stroke-linejoin: bevel"/>
     <use xlink:href="#m07b1cd268e" x="300.321961" y="150.345577" style="fill: #1f77b4; stroke: #1f77b4; stroke-linejoin: bevel"/>
     <use xlink:href="#m07b1cd268e" x="304.539495" y="146.611111" style="fill: #1f77b4; stroke: #1f77b4; stroke-linejoin: bevel"/>
     <use xlink:href="#m07b1cd268e" x="308.799845" y="142.800435" style="fill: #1f77b4; stroke: #1f77b4; stroke-linejoin: bevel"/>
     <use xlink:href="#m07b1cd268e" x="313.103448" y="138.911992" style="fill: #1f77b4; stroke: #1f77b4; stroke-linejoin: bevel"/>
     <use xlink:href="#m07b1cd268e" x="317.450742" y="134.944196" style="fill: #1f77b4; stroke: #1f77b4; stroke-linejoin: bevel"/>
     <use xlink:href="#m07b1cd268e" x="321.842171" y="130.895427" style="fill: #1f77b4; stroke: #1f77b4; stroke-linejoin: bevel"/>
     <use xlink:href="#m07b1cd268e" x="326.278182" y="126.764033" style="fill: #1f77b4; stroke: #1f77b4; stroke-linejoin: bevel"/>
     <use xlink:href="#m07b1cd268e" x="330.759228" y="122.548328" style="fill: #1f77b4; stroke: #1f77b4; stroke-linejoin: bevel"/>
     <use xlink:href="#m07b1cd268e" x="335.285767" y="118.246591" style="fill: #1f77b4; stroke: #1f77b4; stroke-linejoin: bevel"/>
     <use xlink:href="#m07b1cd268e" x="339.85826" y="113.857066" style="fill: #1f77b4; stroke: #1f77b4; stroke-linejoin: bevel"/>
     <use xlink:href="#m07b1cd268e" x="344.477174" y="109.377963" style="fill: #1f77b4; stroke: #1f77b4; stroke-linejoin: bevel"/>
     <use xlink:href="#m07b1cd268e" x="349.14298" y="104.807452" style="fill: #1f77b4; stroke: #1f77b4; stroke-linejoin: bevel"/>
     <use xlink:href="#m07b1cd268e" x="353.856154" y="100.143669" style="fill: #1f77b4; stroke: #1f77b4; stroke-linejoin: bevel"/>
     <use xlink:href="#m07b1cd268e" x="358.617178" y="95.38471" style="fill: #1f77b4; stroke: #1f77b4; stroke-linejoin: bevel"/>
     <use xlink:href="#m07b1cd268e" x="363.426536" y="90.528632" style="fill: #1f77b4; stroke: #1f77b4; stroke-linejoin: bevel"/>
     <use xlink:href="#m07b1cd268e" x="368.28472" y="85.573454" style="fill: #1f77b4; stroke: #1f77b4; stroke-linejoin: bevel"/>
     <use xlink:href="#m07b1cd268e" x="373.192225" y="80.517154" style="fill: #1f77b4; stroke: #1f77b4; stroke-linejoin: bevel"/>
     <use xlink:href="#m07b1cd268e" x="378.149552" y="75.357667" style="fill: #1f77b4; stroke: #1f77b4; stroke-linejoin: bevel"/>
     <use xlink:href="#m07b1cd268e" x="383.157207" y="70.092889" style="fill: #1f77b4; stroke: #1f77b4; stroke-linejoin: bevel"/>
     <use xlink:href="#m07b1cd268e" x="388.2157" y="64.720669" style="fill: #1f77b4; stroke: #1f77b4; stroke-linejoin: bevel"/>
     <use xlink:href="#m07b1cd268e" x="393.325548" y="59.238817" style="fill: #1f77b4; stroke: #1f77b4; stroke-linejoin: bevel"/>
     <use xlink:href="#m07b1cd268e" x="398.487273" y="53.645093" style="fill: #1f77b4; stroke: #1f77b4; stroke-linejoin: bevel"/>
    </g>
   </g>
   <g id="line2d_16">
    <path d="M 73.832727 295.477567 
L 75.750898 294.704876 
L 77.688541 293.916418 
L 79.645857 293.111869 
L 81.623043 292.290901 
L 83.620302 291.453179 
L 85.637838 290.598361 
L 87.675856 289.726099 
L 89.734564 288.836036 
L 91.814173 287.927809 
L 93.914894 287.001048 
L 96.036943 286.055373 
L 98.180534 285.0904 
L 100.345888 284.105734 
L 102.533226 283.100974 
L 104.742769 282.075709 
L 106.974744 281.029521 
L 109.229379 279.961983 
L 111.506903 278.872659 
L 113.807549 277.761105 
L 116.131551 276.626867 
L 118.479147 275.469482 
L 120.850577 274.288478 
L 123.246082 273.083372 
L 125.665906 271.853673 
L 128.110297 270.598879 
L 130.579504 269.318479 
L 133.073778 268.011948 
L 135.593375 266.678754 
L 138.138552 265.318353 
L 140.709568 263.93019 
L 143.306685 262.513698 
L 145.930168 261.068299 
L 148.580286 259.593403 
L 151.257308 258.088409 
L 153.961508 256.552701 
L 156.693162 254.985653 
L 159.452547 253.386626 
L 162.239947 251.754966 
L 165.055645 250.090009 
L 167.899928 248.391074 
L 170.773087 246.657468 
L 173.675415 244.888484 
L 176.607208 243.083399 
L 179.568765 241.241477 
L 182.560388 239.361966 
L 185.582383 237.444099 
L 188.635058 235.487093 
L 191.718724 233.490149 
L 194.833696 231.452453 
L 197.980292 229.373173 
L 201.158833 227.25146 
L 204.369643 225.086448 
L 207.61305 222.877254 
L 210.889385 220.622976 
L 214.198981 218.322694 
L 217.542177 215.975468 
L 220.919314 213.580342 
L 224.330737 211.136338 
L 227.776792 208.642457 
L 231.257833 206.097683 
L 234.774214 203.500976 
L 238.326294 200.851277 
L 241.914436 198.147505 
L 245.539004 195.388555 
L 249.200371 192.573302 
L 252.898908 189.700597 
L 256.634993 186.769268 
L 260.409008 183.778117 
L 264.221338 180.725925 
L 268.072371 177.611445 
L 271.9625 174.433407 
L 275.892123 171.190512 
L 279.86164 167.881439 
L 283.871457 164.504836 
L 287.921982 161.059325 
L 292.013628 157.543499 
L 296.146814 153.955925 
L 300.321961 150.295137 
L 304.539495 146.559642 
L 308.799845 142.747915 
L 313.103448 138.858401 
L 317.450742 134.889511 
L 321.842171 130.839626 
L 326.278182 126.707094 
L 330.759228 122.490226 
L 335.285767 118.187304 
L 339.85826 113.796569 
L 344.477174 109.316231 
L 349.14298 104.744461 
L 353.856154 100.079392 
L 358.617178 95.319121 
L 363.426536 90.461705 
L 368.28472 85.505161 
L 373.192225 80.447467 
L 378.149552 75.286559 
L 383.157207 70.020329 
L 388.2157 64.646629 
L 393.325548 59.163265 
L 398.487273 53.568 
" clip-path="url(#p3d0b8712eb)" style="fill: none; stroke: #ff7f0e; stroke-width: 1.5; stroke-linecap: square"/>
   </g>
   <g id="patch_3">
    <path d="M 57.6 307.584 
L 57.6 41.472 
" style="fill: none; stroke: #000000; stroke-width: 0.8; stroke-linejoin: miter; stroke-linecap: square"/>
   </g>
   <g id="patch_4">
    <path d="M 414.72 307.584 
L 414.72 41.472 
" style="fill: none; stroke: #000000; stroke-width: 0.8; stroke-linejoin: miter; stroke-linecap: square"/>
   </g>
   <g id="patch_5">
    <path d="M 57.6 307.584 
L 414.72 307.584 
" style="fill: none; stroke: #000000; stroke-width: 0.8; stroke-linejoin: miter; stroke-linecap: square"/>
   </g>
   <g id="patch_6">
    <path d="M 57.6 41.472 
L 414.72 41.472 
" style="fill: none; stroke: #000000; stroke-width: 0.8; stroke-linejoin: miter; stroke-linecap: square"/>
   </g>
   <g id="legend_1">
    <g id="patch_7">
     <path d="M 64.6 78.82825 
L 190.382812 78.82825 
Q 192.382812 78.82825 192.382812 76.82825 
L 192.382812 48.472 
Q 192.382812 46.472 190.382812 46.472 
L 64.6 46.472 
Q 62.6 46.472 62.6 48.472 
L 62.6 76.82825 
Q 62.6 78.82825 64.6 78.82825 
z
" style="fill: #ffffff; opacity: 0.8; stroke: #cccccc; stroke-linejoin: miter"/>
    </g>
    <g id="line2d_17">
     <g>
      <use xlink:href="#m07b1cd268e" x="76.6" y="54.570437" style="fill: #1f77b4; stroke: #1f77b4; stroke-linejoin: bevel"/>
     </g>
    </g>
    <g id="text_17">
     <!-- Analytical solution -->
     <g transform="translate(94.6 58.070437) scale(0.1 -0.1)">
      <defs>
       <path id="DejaVuSans-41" d="M 2188 4044 
L 1331 1722 
L 3047 1722 
L 2188 4044 
z
M 1831 4666 
L 2547 4666 
L 4325 0 
L 3669 0 
L 3244 1197 
L 1141 1197 
L 716 0 
L 50 0 
L 1831 4666 
z
" transform="scale(0.015625)"/>
       <path id="DejaVuSans-6e" d="M 3513 2113 
L 3513 0 
L 2938 0 
L 2938 2094 
Q 2938 2591 2744 2837 
Q 2550 3084 2163 3084 
Q 1697 3084 1428 2787 
Q 1159 2491 1159 1978 
L 1159 0 
L 581 0 
L 581 3500 
L 1159 3500 
L 1159 2956 
Q 1366 3272 1645 3428 
Q 1925 3584 2291 3584 
Q 2894 3584 3203 3211 
Q 3513 2838 3513 2113 
z
" transform="scale(0.015625)"/>
       <path id="DejaVuSans-61" d="M 2194 1759 
Q 1497 1759 1228 1600 
Q 959 1441 959 1056 
Q 959 750 1161 570 
Q 1363 391 1709 391 
Q 2188 391 2477 730 
Q 2766 1069 2766 1631 
L 2766 1759 
L 2194 1759 
z
M 3341 1997 
L 3341 0 
L 2766 0 
L 2766 531 
Q 2569 213 2275 61 
Q 1981 -91 1556 -91 
Q 1019 -91 701 211 
Q 384 513 384 1019 
Q 384 1609 779 1909 
Q 1175 2209 1959 2209 
L 2766 2209 
L 2766 2266 
Q 2766 2663 2505 2880 
Q 2244 3097 1772 3097 
Q 1472 3097 1187 3025 
Q 903 2953 641 2809 
L 641 3341 
Q 956 3463 1253 3523 
Q 1550 3584 1831 3584 
Q 2591 3584 2966 3190 
Q 3341 2797 3341 1997 
z
" transform="scale(0.015625)"/>
       <path id="DejaVuSans-6c" d="M 603 4863 
L 1178 4863 
L 1178 0 
L 603 0 
L 603 4863 
z
" transform="scale(0.015625)"/>
       <path id="DejaVuSans-79" d="M 2059 -325 
Q 1816 -950 1584 -1140 
Q 1353 -1331 966 -1331 
L 506 -1331 
L 506 -850 
L 844 -850 
Q 1081 -850 1212 -737 
Q 1344 -625 1503 -206 
L 1606 56 
L 191 3500 
L 800 3500 
L 1894 763 
L 2988 3500 
L 3597 3500 
L 2059 -325 
z
" transform="scale(0.015625)"/>
       <path id="DejaVuSans-74" d="M 1172 4494 
L 1172 3500 
L 2356 3500 
L 2356 3053 
L 1172 3053 
L 1172 1153 
Q 1172 725 1289 603 
Q 1406 481 1766 481 
L 2356 481 
L 2356 0 
L 1766 0 
Q 1100 0 847 248 
Q 594 497 594 1153 
L 594 3053 
L 172 3053 
L 172 3500 
L 594 3500 
L 594 4494 
L 1172 4494 
z
" transform="scale(0.015625)"/>
       <path id="DejaVuSans-69" d="M 603 3500 
L 1178 3500 
L 1178 0 
L 603 0 
L 603 3500 
z
M 603 4863 
L 1178 4863 
L 1178 4134 
L 603 4134 
L 603 4863 
z
" transform="scale(0.015625)"/>
       <path id="DejaVuSans-63" d="M 3122 3366 
L 3122 2828 
Q 2878 2963 2633 3030 
Q 2388 3097 2138 3097 
Q 1578 3097 1268 2742 
Q 959 2388 959 1747 
Q 959 1106 1268 751 
Q 1578 397 2138 397 
Q 2388 397 2633 464 
Q 2878 531 3122 666 
L 3122 134 
Q 2881 22 2623 -34 
Q 2366 -91 2075 -91 
Q 1284 -91 818 406 
Q 353 903 353 1747 
Q 353 2603 823 3093 
Q 1294 3584 2113 3584 
Q 2378 3584 2631 3529 
Q 2884 3475 3122 3366 
z
" transform="scale(0.015625)"/>
       <path id="DejaVuSans-20" transform="scale(0.015625)"/>
       <path id="DejaVuSans-73" d="M 2834 3397 
L 2834 2853 
Q 2591 2978 2328 3040 
Q 2066 3103 1784 3103 
Q 1356 3103 1142 2972 
Q 928 2841 928 2578 
Q 928 2378 1081 2264 
Q 1234 2150 1697 2047 
L 1894 2003 
Q 2506 1872 2764 1633 
Q 3022 1394 3022 966 
Q 3022 478 2636 193 
Q 2250 -91 1575 -91 
Q 1294 -91 989 -36 
Q 684 19 347 128 
L 347 722 
Q 666 556 975 473 
Q 1284 391 1588 391 
Q 1994 391 2212 530 
Q 2431 669 2431 922 
Q 2431 1156 2273 1281 
Q 2116 1406 1581 1522 
L 1381 1569 
Q 847 1681 609 1914 
Q 372 2147 372 2553 
Q 372 3047 722 3315 
Q 1072 3584 1716 3584 
Q 2034 3584 2315 3537 
Q 2597 3491 2834 3397 
z
" transform="scale(0.015625)"/>
       <path id="DejaVuSans-6f" d="M 1959 3097 
Q 1497 3097 1228 2736 
Q 959 2375 959 1747 
Q 959 1119 1226 758 
Q 1494 397 1959 397 
Q 2419 397 2687 759 
Q 2956 1122 2956 1747 
Q 2956 2369 2687 2733 
Q 2419 3097 1959 3097 
z
M 1959 3584 
Q 2709 3584 3137 3096 
Q 3566 2609 3566 1747 
Q 3566 888 3137 398 
Q 2709 -91 1959 -91 
Q 1206 -91 779 398 
Q 353 888 353 1747 
Q 353 2609 779 3096 
Q 1206 3584 1959 3584 
z
" transform="scale(0.015625)"/>
       <path id="DejaVuSans-75" d="M 544 1381 
L 544 3500 
L 1119 3500 
L 1119 1403 
Q 1119 906 1312 657 
Q 1506 409 1894 409 
Q 2359 409 2629 706 
Q 2900 1003 2900 1516 
L 2900 3500 
L 3475 3500 
L 3475 0 
L 2900 0 
L 2900 538 
Q 2691 219 2414 64 
Q 2138 -91 1772 -91 
Q 1169 -91 856 284 
Q 544 659 544 1381 
z
M 1991 3584 
L 1991 3584 
z
" transform="scale(0.015625)"/>
      </defs>
      <use xlink:href="#DejaVuSans-41"/>
      <use xlink:href="#DejaVuSans-6e" transform="translate(68.408203 0)"/>
      <use xlink:href="#DejaVuSans-61" transform="translate(131.787109 0)"/>
      <use xlink:href="#DejaVuSans-6c" transform="translate(193.066406 0)"/>
      <use xlink:href="#DejaVuSans-79" transform="translate(220.849609 0)"/>
      <use xlink:href="#DejaVuSans-74" transform="translate(280.029297 0)"/>
      <use xlink:href="#DejaVuSans-69" transform="translate(319.238281 0)"/>
      <use xlink:href="#DejaVuSans-63" transform="translate(347.021484 0)"/>
      <use xlink:href="#DejaVuSans-61" transform="translate(402.001953 0)"/>
      <use xlink:href="#DejaVuSans-6c" transform="translate(463.28125 0)"/>
      <use xlink:href="#DejaVuSans-20" transform="translate(491.064453 0)"/>
      <use xlink:href="#DejaVuSans-73" transform="translate(522.851562 0)"/>
      <use xlink:href="#DejaVuSans-6f" transform="translate(574.951172 0)"/>
      <use xlink:href="#DejaVuSans-6c" transform="translate(636.132812 0)"/>
      <use xlink:href="#DejaVuSans-75" transform="translate(663.916016 0)"/>
      <use xlink:href="#DejaVuSans-74" transform="translate(727.294922 0)"/>
      <use xlink:href="#DejaVuSans-69" transform="translate(766.503906 0)"/>
      <use xlink:href="#DejaVuSans-6f" transform="translate(794.287109 0)"/>
      <use xlink:href="#DejaVuSans-6e" transform="translate(855.46875 0)"/>
     </g>
    </g>
    <g id="line2d_18">
     <path d="M 66.6 69.248562 
L 76.6 69.248562 
L 86.6 69.248562 
" style="fill: none; stroke: #ff7f0e; stroke-width: 1.5; stroke-linecap: square"/>
    </g>
    <g id="text_18">
     <!-- Numerical solution -->
     <g transform="translate(94.6 72.748562) scale(0.1 -0.1)">
      <defs>
       <path id="DejaVuSans-4e" d="M 628 4666 
L 1478 4666 
L 3547 763 
L 3547 4666 
L 4159 4666 
L 4159 0 
L 3309 0 
L 1241 3903 
L 1241 0 
L 628 0 
L 628 4666 
z
" transform="scale(0.015625)"/>
       <path id="DejaVuSans-6d" d="M 3328 2828 
Q 3544 3216 3844 3400 
Q 4144 3584 4550 3584 
Q 5097 3584 5394 3201 
Q 5691 2819 5691 2113 
L 5691 0 
L 5113 0 
L 5113 2094 
Q 5113 2597 4934 2840 
Q 4756 3084 4391 3084 
Q 3944 3084 3684 2787 
Q 3425 2491 3425 1978 
L 3425 0 
L 2847 0 
L 2847 2094 
Q 2847 2600 2669 2842 
Q 2491 3084 2119 3084 
Q 1678 3084 1418 2786 
Q 1159 2488 1159 1978 
L 1159 0 
L 581 0 
L 581 3500 
L 1159 3500 
L 1159 2956 
Q 1356 3278 1631 3431 
Q 1906 3584 2284 3584 
Q 2666 3584 2933 3390 
Q 3200 3197 3328 2828 
z
" transform="scale(0.015625)"/>
       <path id="DejaVuSans-65" d="M 3597 1894 
L 3597 1613 
L 953 1613 
Q 991 1019 1311 708 
Q 1631 397 2203 397 
Q 2534 397 2845 478 
Q 3156 559 3463 722 
L 3463 178 
Q 3153 47 2828 -22 
Q 2503 -91 2169 -91 
Q 1331 -91 842 396 
Q 353 884 353 1716 
Q 353 2575 817 3079 
Q 1281 3584 2069 3584 
Q 2775 3584 3186 3129 
Q 3597 2675 3597 1894 
z
M 3022 2063 
Q 3016 2534 2758 2815 
Q 2500 3097 2075 3097 
Q 1594 3097 1305 2825 
Q 1016 2553 972 2059 
L 3022 2063 
z
" transform="scale(0.015625)"/>
       <path id="DejaVuSans-72" d="M 2631 2963 
Q 2534 3019 2420 3045 
Q 2306 3072 2169 3072 
Q 1681 3072 1420 2755 
Q 1159 2438 1159 1844 
L 1159 0 
L 581 0 
L 581 3500 
L 1159 3500 
L 1159 2956 
Q 1341 3275 1631 3429 
Q 1922 3584 2338 3584 
Q 2397 3584 2469 3576 
Q 2541 3569 2628 3553 
L 2631 2963 
z
" transform="scale(0.015625)"/>
      </defs>
      <use xlink:href="#DejaVuSans-4e"/>
      <use xlink:href="#DejaVuSans-75" transform="translate(74.804688 0)"/>
      <use xlink:href="#DejaVuSans-6d" transform="translate(138.183594 0)"/>
      <use xlink:href="#DejaVuSans-65" transform="translate(235.595703 0)"/>
      <use xlink:href="#DejaVuSans-72" transform="translate(297.119141 0)"/>
      <use xlink:href="#DejaVuSans-69" transform="translate(338.232422 0)"/>
      <use xlink:href="#DejaVuSans-63" transform="translate(366.015625 0)"/>
      <use xlink:href="#DejaVuSans-61" transform="translate(420.996094 0)"/>
      <use xlink:href="#DejaVuSans-6c" transform="translate(482.275391 0)"/>
      <use xlink:href="#DejaVuSans-20" transform="translate(510.058594 0)"/>
      <use xlink:href="#DejaVuSans-73" transform="translate(541.845703 0)"/>
      <use xlink:href="#DejaVuSans-6f" transform="translate(593.945312 0)"/>
      <use xlink:href="#DejaVuSans-6c" transform="translate(655.126953 0)"/>
      <use xlink:href="#DejaVuSans-75" transform="translate(682.910156 0)"/>
      <use xlink:href="#DejaVuSans-74" transform="translate(746.289062 0)"/>
      <use xlink:href="#DejaVuSans-69" transform="translate(785.498047 0)"/>
      <use xlink:href="#DejaVuSans-6f" transform="translate(813.28125 0)"/>
      <use xlink:href="#DejaVuSans-6e" transform="translate(874.462891 0)"/>
     </g>
    </g>
   </g>
  </g>
 </g>
 <defs>
  <clipPath id="p3d0b8712eb">
   <rect x="57.6" y="41.472" width="357.12" height="266.112"/>
  </clipPath>
 </defs>
</svg>
