<?xml version="1.0" encoding="utf-8" standalone="no"?>
<!DOCTYPE svg PUBLIC "-//W3C//DTD SVG 1.1//EN"
  "http://www.w3.org/Graphics/SVG/1.1/DTD/svg11.dtd">
<svg xmlns:xlink="http://www.w3.org/1999/xlink" width="576pt" height="576pt" viewBox="0 0 576 576" xmlns="http://www.w3.org/2000/svg" version="1.1">
 <metadata>
  <rdf:RDF xmlns:dc="http://purl.org/dc/elements/1.1/" xmlns:cc="http://creativecommons.org/ns#" xmlns:rdf="http://www.w3.org/1999/02/22-rdf-syntax-ns#">
   <cc:Work>
    <dc:type rdf:resource="http://purl.org/dc/dcmitype/StillImage"/>
    <dc:format>image/svg+xml</dc:format>
    <dc:creator>
     <cc:Agent>
      <dc:title>Matplotlib v3.10.6, https://matplotlib.org/</dc:title>
     </cc:Agent>
    </dc:creator>
   </cc:Work>
  </rdf:RDF>
 </metadata>
 <defs>
  <style type="text/css">*{stroke-linejoin: round; stroke-linecap: butt}</style>
 </defs>
 <g id="figure_1">
  <g id="patch_1">
   <path d="M 0 576 
L 576 576 
L 576 0 
L 0 0 
z
" style="fill: #ffffff"/>
  </g>
  <g id="axes_1">
   <g id="patch_2">
    <path d="M 72 512.64 
L 518.4 512.64 
L 518.4 69.12 
L 72 69.12 
z
" style="fill: #ffffff"/>
   </g>
   <g id="matplotlib.axis_1">
    <g id="xtick_1">
     <g id="line2d_1">
      <defs>
       <path id="m03125842d8" d="M 0 0 
L 0 3.5 
" style="stroke: #000000; stroke-width: 0.8"/>
      </defs>
      <g>
       <use xlink:href="#m03125842d8" x="72" y="512.64" style="stroke: #000000; stroke-width: 0.8"/>
      </g>
     </g>
     <g id="text_1">
      <!-- 1.0 -->
      <g transform="translate(64.048438 527.238438) scale(0.1 -0.1)">
       <defs>
        <path id="DejaVuSans-31" d="M 794 531 
L 1825 531 
L 1825 4091 
L 703 3866 
L 703 4441 
L 1819 4666 
L 2450 4666 
L 2450 531 
L 3481 531 
L 3481 0 
L 794 0 
L 794 531 
z
" transform="scale(0.015625)"/>
        <path id="DejaVuSans-2e" d="M 684 794 
L 1344 794 
L 1344 0 
L 684 0 
L 684 794 
z
" transform="scale(0.015625)"/>
        <path id="DejaVuSans-30" d="M 2034 4250 
Q 1547 4250 1301 3770 
Q 1056 3291 1056 2328 
Q 1056 1369 1301 889 
Q 1547 409 2034 409 
Q 2525 409 2770 889 
Q 3016 1369 3016 2328 
Q 3016 3291 2770 3770 
Q 2525 4250 2034 4250 
z
M 2034 4750 
Q 2819 4750 3233 4129 
Q 3647 3509 3647 2328 
Q 3647 1150 3233 529 
Q 2819 -91 2034 -91 
Q 1250 -91 836 529 
Q 422 1150 422 2328 
Q 422 3509 836 4129 
Q 1250 4750 2034 4750 
z
" transform="scale(0.015625)"/>
       </defs>
       <use xlink:href="#DejaVuSans-31"/>
       <use xlink:href="#DejaVuSans-2e" transform="translate(63.623047 0)"/>
       <use xlink:href="#DejaVuSans-30" transform="translate(95.410156 0)"/>
      </g>
     </g>
    </g>
    <g id="xtick_2">
     <g id="line2d_2">
      <g>
       <use xlink:href="#m03125842d8" x="127.8" y="512.64" style="stroke: #000000; stroke-width: 0.8"/>
      </g>
     </g>
     <g id="text_2">
      <!-- 1.5 -->
      <g transform="translate(119.848437 527.238438) scale(0.1 -0.1)">
       <defs>
        <path id="DejaVuSans-35" d="M 691 4666 
L 3169 4666 
L 3169 4134 
L 1269 4134 
L 1269 2991 
Q 1406 3038 1543 3061 
Q 1681 3084 1819 3084 
Q 2600 3084 3056 2656 
Q 3513 2228 3513 1497 
Q 3513 744 3044 326 
Q 2575 -91 1722 -91 
Q 1428 -91 1123 -41 
Q 819 9 494 109 
L 494 744 
Q 775 591 1075 516 
Q 1375 441 1709 441 
Q 2250 441 2565 725 
Q 2881 1009 2881 1497 
Q 2881 1984 2565 2268 
Q 2250 2553 1709 2553 
Q 1456 2553 1204 2497 
Q 953 2441 691 2322 
L 691 4666 
z
" transform="scale(0.015625)"/>
       </defs>
       <use xlink:href="#DejaVuSans-31"/>
       <use xlink:href="#DejaVuSans-2e" transform="translate(63.623047 0)"/>
       <use xlink:href="#DejaVuSans-35" transform="translate(95.410156 0)"/>
      </g>
     </g>
    </g>
    <g id="xtick_3">
     <g id="line2d_3">
      <g>
       <use xlink:href="#m03125842d8" x="183.6" y="512.64" style="stroke: #000000; stroke-width: 0.8"/>
      </g>
     </g>
     <g id="text_3">
      <!-- 2.0 -->
      <g transform="translate(175.648438 527.238438) scale(0.1 -0.1)">
       <defs>
        <path id="DejaVuSans-32" d="M 1228 531 
L 3431 531 
L 3431 0 
L 469 0 
L 469 531 
Q 828 903 1448 1529 
Q 2069 2156 2228 2338 
Q 2531 2678 2651 2914 
Q 2772 3150 2772 3378 
Q 2772 3750 2511 3984 
Q 2250 4219 1831 4219 
Q 1534 4219 1204 4116 
Q 875 4013 500 3803 
L 500 4441 
Q 881 4594 1212 4672 
Q 1544 4750 1819 4750 
Q 2544 4750 2975 4387 
Q 3406 4025 3406 3419 
Q 3406 3131 3298 2873 
Q 3191 2616 2906 2266 
Q 2828 2175 2409 1742 
Q 1991 1309 1228 531 
z
" transform="scale(0.015625)"/>
       </defs>
       <use xlink:href="#DejaVuSans-32"/>
       <use xlink:href="#DejaVuSans-2e" transform="translate(63.623047 0)"/>
       <use xlink:href="#DejaVuSans-30" transform="translate(95.410156 0)"/>
      </g>
     </g>
    </g>
    <g id="xtick_4">
     <g id="line2d_4">
      <g>
       <use xlink:href="#m03125842d8" x="239.4" y="512.64" style="stroke: #000000; stroke-width: 0.8"/>
      </g>
     </g>
     <g id="text_4">
      <!-- 2.5 -->
      <g transform="translate(231.448438 527.238438) scale(0.1 -0.1)">
       <use xlink:href="#DejaVuSans-32"/>
       <use xlink:href="#DejaVuSans-2e" transform="translate(63.623047 0)"/>
       <use xlink:href="#DejaVuSans-35" transform="translate(95.410156 0)"/>
      </g>
     </g>
    </g>
    <g id="xtick_5">
     <g id="line2d_5">
      <g>
       <use xlink:href="#m03125842d8" x="295.2" y="512.64" style="stroke: #000000; stroke-width: 0.8"/>
      </g>
     </g>
     <g id="text_5">
      <!-- 3.0 -->
      <g transform="translate(287.248437 527.238438) scale(0.1 -0.1)">
       <defs>
        <path id="DejaVuSans-33" d="M 2597 2516 
Q 3050 2419 3304 2112 
Q 3559 1806 3559 1356 
Q 3559 666 3084 287 
Q 2609 -91 1734 -91 
Q 1441 -91 1130 -33 
Q 819 25 488 141 
L 488 750 
Q 750 597 1062 519 
Q 1375 441 1716 441 
Q 2309 441 2620 675 
Q 2931 909 2931 1356 
Q 2931 1769 2642 2001 
Q 2353 2234 1838 2234 
L 1294 2234 
L 1294 2753 
L 1863 2753 
Q 2328 2753 2575 2939 
Q 2822 3125 2822 3475 
Q 2822 3834 2567 4026 
Q 2313 4219 1838 4219 
Q 1578 4219 1281 4162 
Q 984 4106 628 3988 
L 628 4550 
Q 988 4650 1302 4700 
Q 1616 4750 1894 4750 
Q 2613 4750 3031 4423 
Q 3450 4097 3450 3541 
Q 3450 3153 3228 2886 
Q 3006 2619 2597 2516 
z
" transform="scale(0.015625)"/>
       </defs>
       <use xlink:href="#DejaVuSans-33"/>
       <use xlink:href="#DejaVuSans-2e" transform="translate(63.623047 0)"/>
       <use xlink:href="#DejaVuSans-30" transform="translate(95.410156 0)"/>
      </g>
     </g>
    </g>
    <g id="xtick_6">
     <g id="line2d_6">
      <g>
       <use xlink:href="#m03125842d8" x="351" y="512.64" style="stroke: #000000; stroke-width: 0.8"/>
      </g>
     </g>
     <g id="text_6">
      <!-- 3.5 -->
      <g transform="translate(343.048437 527.238438) scale(0.1 -0.1)">
       <use xlink:href="#DejaVuSans-33"/>
       <use xlink:href="#DejaVuSans-2e" transform="translate(63.623047 0)"/>
       <use xlink:href="#DejaVuSans-35" transform="translate(95.410156 0)"/>
      </g>
     </g>
    </g>
    <g id="xtick_7">
     <g id="line2d_7">
      <g>
       <use xlink:href="#m03125842d8" x="406.8" y="512.64" style="stroke: #000000; stroke-width: 0.8"/>
      </g>
     </g>
     <g id="text_7">
      <!-- 4.0 -->
      <g transform="translate(398.848437 527.238438) scale(0.1 -0.1)">
       <defs>
        <path id="DejaVuSans-34" d="M 2419 4116 
L 825 1625 
L 2419 1625 
L 2419 4116 
z
M 2253 4666 
L 3047 4666 
L 3047 1625 
L 3713 1625 
L 3713 1100 
L 3047 1100 
L 3047 0 
L 2419 0 
L 2419 1100 
L 313 1100 
L 313 1709 
L 2253 4666 
z
" transform="scale(0.015625)"/>
       </defs>
       <use xlink:href="#DejaVuSans-34"/>
       <use xlink:href="#DejaVuSans-2e" transform="translate(63.623047 0)"/>
       <use xlink:href="#DejaVuSans-30" transform="translate(95.410156 0)"/>
      </g>
     </g>
    </g>
    <g id="xtick_8">
     <g id="line2d_8">
      <g>
       <use xlink:href="#m03125842d8" x="462.6" y="512.64" style="stroke: #000000; stroke-width: 0.8"/>
      </g>
     </g>
     <g id="text_8">
      <!-- 4.5 -->
      <g transform="translate(454.648438 527.238438) scale(0.1 -0.1)">
       <use xlink:href="#DejaVuSans-34"/>
       <use xlink:href="#DejaVuSans-2e" transform="translate(63.623047 0)"/>
       <use xlink:href="#DejaVuSans-35" transform="translate(95.410156 0)"/>
      </g>
     </g>
    </g>
    <g id="xtick_9">
     <g id="line2d_9">
      <g>
       <use xlink:href="#m03125842d8" x="518.4" y="512.64" style="stroke: #000000; stroke-width: 0.8"/>
      </g>
     </g>
     <g id="text_9">
      <!-- 5.0 -->
      <g transform="translate(510.448437 527.238438) scale(0.1 -0.1)">
       <use xlink:href="#DejaVuSans-35"/>
       <use xlink:href="#DejaVuSans-2e" transform="translate(63.623047 0)"/>
       <use xlink:href="#DejaVuSans-30" transform="translate(95.410156 0)"/>
      </g>
     </g>
    </g>
   </g>
   <g id="matplotlib.axis_2">
    <g id="ytick_1">
     <g id="line2d_10">
      <defs>
       <path id="m98a830c25a" d="M 0 0 
L -3.5 0 
" style="stroke: #000000; stroke-width: 0.8"/>
      </defs>
      <g>
       <use xlink:href="#m98a830c25a" x="72" y="505.461075" style="stroke: #000000; stroke-width: 0.8"/>
      </g>
     </g>
     <g id="text_10">
      <!-- −0.001 -->
      <g transform="translate(27.992188 509.260294) scale(0.1 -0.1)">
       <defs>
        <path id="DejaVuSans-2212" d="M 678 2272 
L 4684 2272 
L 4684 1741 
L 678 1741 
L 678 2272 
z
" transform="scale(0.015625)"/>
       </defs>
       <use xlink:href="#DejaVuSans-2212"/>
       <use xlink:href="#DejaVuSans-30" transform="translate(83.789062 0)"/>
       <use xlink:href="#DejaVuSans-2e" transform="translate(147.412109 0)"/>
       <use xlink:href="#DejaVuSans-30" transform="translate(179.199219 0)"/>
       <use xlink:href="#DejaVuSans-30" transform="translate(242.822266 0)"/>
       <use xlink:href="#DejaVuSans-31" transform="translate(306.445312 0)"/>
      </g>
     </g>
    </g>
    <g id="ytick_2">
     <g id="line2d_11">
      <g>
       <use xlink:href="#m98a830c25a" x="72" y="449.5469" style="stroke: #000000; stroke-width: 0.8"/>
      </g>
     </g>
     <g id="text_11">
      <!-- 0.000 -->
      <g transform="translate(36.371875 453.346119) scale(0.1 -0.1)">
       <use xlink:href="#DejaVuSans-30"/>
       <use xlink:href="#DejaVuSans-2e" transform="translate(63.623047 0)"/>
       <use xlink:href="#DejaVuSans-30" transform="translate(95.410156 0)"/>
       <use xlink:href="#DejaVuSans-30" transform="translate(159.033203 0)"/>
       <use xlink:href="#DejaVuSans-30" transform="translate(222.65625 0)"/>
      </g>
     </g>
    </g>
    <g id="ytick_3">
     <g id="line2d_12">
      <g>
       <use xlink:href="#m98a830c25a" x="72" y="393.632725" style="stroke: #000000; stroke-width: 0.8"/>
      </g>
     </g>
     <g id="text_12">
      <!-- 0.001 -->
      <g transform="translate(36.371875 397.431944) scale(0.1 -0.1)">
       <use xlink:href="#DejaVuSans-30"/>
       <use xlink:href="#DejaVuSans-2e" transform="translate(63.623047 0)"/>
       <use xlink:href="#DejaVuSans-30" transform="translate(95.410156 0)"/>
       <use xlink:href="#DejaVuSans-30" transform="translate(159.033203 0)"/>
       <use xlink:href="#DejaVuSans-31" transform="translate(222.65625 0)"/>
      </g>
     </g>
    </g>
    <g id="ytick_4">
     <g id="line2d_13">
      <g>
       <use xlink:href="#m98a830c25a" x="72" y="337.71855" style="stroke: #000000; stroke-width: 0.8"/>
      </g>
     </g>
     <g id="text_13">
      <!-- 0.002 -->
      <g transform="translate(36.371875 341.517768) scale(0.1 -0.1)">
       <use xlink:href="#DejaVuSans-30"/>
       <use xlink:href="#DejaVuSans-2e" transform="translate(63.623047 0)"/>
       <use xlink:href="#DejaVuSans-30" transform="translate(95.410156 0)"/>
       <use xlink:href="#DejaVuSans-30" transform="translate(159.033203 0)"/>
       <use xlink:href="#DejaVuSans-32" transform="translate(222.65625 0)"/>
      </g>
     </g>
    </g>
    <g id="ytick_5">
     <g id="line2d_14">
      <g>
       <use xlink:href="#m98a830c25a" x="72" y="281.804375" style="stroke: #000000; stroke-width: 0.8"/>
      </g>
     </g>
     <g id="text_14">
      <!-- 0.003 -->
      <g transform="translate(36.371875 285.603593) scale(0.1 -0.1)">
       <use xlink:href="#DejaVuSans-30"/>
       <use xlink:href="#DejaVuSans-2e" transform="translate(63.623047 0)"/>
       <use xlink:href="#DejaVuSans-30" transform="translate(95.410156 0)"/>
       <use xlink:href="#DejaVuSans-30" transform="translate(159.033203 0)"/>
       <use xlink:href="#DejaVuSans-33" transform="translate(222.65625 0)"/>
      </g>
     </g>
    </g>
    <g id="ytick_6">
     <g id="line2d_15">
      <g>
       <use xlink:href="#m98a830c25a" x="72" y="225.8902" style="stroke: #000000; stroke-width: 0.8"/>
      </g>
     </g>
     <g id="text_15">
      <!-- 0.004 -->
      <g transform="translate(36.371875 229.689418) scale(0.1 -0.1)">
       <use xlink:href="#DejaVuSans-30"/>
       <use xlink:href="#DejaVuSans-2e" transform="translate(63.623047 0)"/>
       <use xlink:href="#DejaVuSans-30" transform="translate(95.410156 0)"/>
       <use xlink:href="#DejaVuSans-30" transform="translate(159.033203 0)"/>
       <use xlink:href="#DejaVuSans-34" transform="translate(222.65625 0)"/>
      </g>
     </g>
    </g>
    <g id="ytick_7">
     <g id="line2d_16">
      <g>
       <use xlink:href="#m98a830c25a" x="72" y="169.976024" style="stroke: #000000; stroke-width: 0.8"/>
      </g>
     </g>
     <g id="text_16">
      <!-- 0.005 -->
      <g transform="translate(36.371875 173.775243) scale(0.1 -0.1)">
       <use xlink:href="#DejaVuSans-30"/>
       <use xlink:href="#DejaVuSans-2e" transform="translate(63.623047 0)"/>
       <use xlink:href="#DejaVuSans-30" transform="translate(95.410156 0)"/>
       <use xlink:href="#DejaVuSans-30" transform="translate(159.033203 0)"/>
       <use xlink:href="#DejaVuSans-35" transform="translate(222.65625 0)"/>
      </g>
     </g>
    </g>
    <g id="ytick_8">
     <g id="line2d_17">
      <g>
       <use xlink:href="#m98a830c25a" x="72" y="114.061849" style="stroke: #000000; stroke-width: 0.8"/>
      </g>
     </g>
     <g id="text_17">
      <!-- 0.006 -->
      <g transform="translate(36.371875 117.861068) scale(0.1 -0.1)">
       <defs>
        <path id="DejaVuSans-36" d="M 2113 2584 
Q 1688 2584 1439 2293 
Q 1191 2003 1191 1497 
Q 1191 994 1439 701 
Q 1688 409 2113 409 
Q 2538 409 2786 701 
Q 3034 994 3034 1497 
Q 3034 2003 2786 2293 
Q 2538 2584 2113 2584 
z
M 3366 4563 
L 3366 3988 
Q 3128 4100 2886 4159 
Q 2644 4219 2406 4219 
Q 1781 4219 1451 3797 
Q 1122 3375 1075 2522 
Q 1259 2794 1537 2939 
Q 1816 3084 2150 3084 
Q 2853 3084 3261 2657 
Q 3669 2231 3669 1497 
Q 3669 778 3244 343 
Q 2819 -91 2113 -91 
Q 1303 -91 875 529 
Q 447 1150 447 2328 
Q 447 3434 972 4092 
Q 1497 4750 2381 4750 
Q 2619 4750 2861 4703 
Q 3103 4656 3366 4563 
z
" transform="scale(0.015625)"/>
       </defs>
       <use xlink:href="#DejaVuSans-30"/>
       <use xlink:href="#DejaVuSans-2e" transform="translate(63.623047 0)"/>
       <use xlink:href="#DejaVuSans-30" transform="translate(95.410156 0)"/>
       <use xlink:href="#DejaVuSans-30" transform="translate(159.033203 0)"/>
       <use xlink:href="#DejaVuSans-36" transform="translate(222.65625 0)"/>
      </g>
     </g>
    </g>
   </g>
   <g id="line2d_18">
    <path d="M 74.232 449.5469 
L 78.718545 449.5469 
L 83.205091 449.5469 
L 87.691636 449.5469 
L 92.178182 449.5469 
L 96.664727 449.5469 
L 101.151273 449.5469 
L 105.637818 449.5469 
L 110.124364 449.5469 
L 114.610909 449.5469 
L 119.097455 449.5469 
L 123.584 449.5469 
L 128.070545 449.5469 
L 132.557091 449.5469 
L 137.043636 449.5469 
L 141.530182 449.5469 
L 146.016727 449.5469 
L 150.503273 449.5469 
L 154.989818 449.5469 
L 159.476364 449.5469 
L 163.962909 449.5469 
L 168.449455 449.5469 
L 172.936 449.5469 
L 177.422545 449.5469 
L 181.909091 449.5469 
L 186.395636 449.5469 
L 190.882182 449.5469 
L 195.368727 449.5469 
L 199.855273 449.5469 
L 204.341818 449.5469 
L 208.828364 449.5469 
L 213.314909 449.5469 
L 217.801455 449.5469 
L 222.288 449.5469 
L 226.774545 449.5469 
L 231.261091 449.5469 
L 235.747636 449.5469 
L 240.234182 449.5469 
L 244.720727 449.5469 
L 249.207273 449.5469 
L 253.693818 449.5469 
L 258.180364 449.5469 
L 262.666909 449.5469 
L 267.153455 449.5469 
L 271.64 449.5469 
L 276.126545 449.5469 
L 280.613091 449.5469 
L 285.099636 449.5469 
L 289.586182 449.5469 
L 294.072727 449.5469 
L 298.559273 449.5469 
L 303.045818 449.5469 
L 307.532364 449.5469 
L 312.018909 449.5469 
L 316.505455 449.5469 
L 320.992 449.5469 
L 325.478545 449.5469 
L 329.965091 449.5469 
L 334.451636 449.5469 
L 338.938182 449.5469 
L 343.424727 449.5469 
L 347.911273 449.5469 
L 352.397818 449.5469 
L 356.884364 449.5469 
L 361.370909 449.5469 
L 365.857455 449.5469 
L 370.344 449.5469 
L 374.830545 449.5469 
L 379.317091 449.5469 
L 383.803636 449.5469 
L 388.290182 449.5469 
L 392.776727 449.5469 
L 397.263273 449.5469 
L 401.749818 449.5469 
L 406.236364 449.5469 
L 410.722909 449.5469 
L 415.209455 449.5469 
L 419.696 449.5469 
L 424.182545 449.5469 
L 428.669091 449.5469 
L 433.155636 449.5469 
L 437.642182 449.5469 
L 442.128727 449.5469 
L 446.615273 449.5469 
L 451.101818 449.5469 
L 455.588364 449.5469 
L 460.074909 449.5469 
L 464.561455 449.5469 
L 469.048 449.5469 
L 473.534545 449.5469 
L 478.021091 449.5469 
L 482.507636 449.5469 
L 486.994182 449.5469 
L 491.480727 449.5469 
L 495.967273 449.5469 
L 500.453818 449.5469 
L 504.940364 449.5469 
L 509.426909 449.5469 
L 513.913455 449.5469 
L 518.4 449.5469 
" clip-path="url(#pb4be76c8b9)" style="fill: none; stroke: #000000; stroke-width: 1.5; stroke-linecap: square"/>
   </g>
   <g id="line2d_19">
    <path d="M 74.232 89.28 
L 78.718545 110.285122 
L 83.205091 130.886183 
L 87.691636 150.834343 
L 92.178182 169.978928 
L 96.664727 188.250574 
L 101.151273 205.620152 
L 105.637818 222.059576 
L 110.124364 237.594551 
L 114.610909 252.235321 
L 119.097455 266.020573 
L 123.584 278.98533 
L 128.070545 291.183719 
L 132.557091 302.634078 
L 137.043636 313.404883 
L 141.530182 323.524258 
L 146.016727 333.032033 
L 150.503273 341.970464 
L 154.989818 350.368003 
L 159.476364 358.270302 
L 163.962909 365.695222 
L 168.449455 372.685011 
L 172.936 379.263427 
L 177.422545 385.456578 
L 181.909091 391.293974 
L 186.395636 396.795153 
L 190.882182 401.97728 
L 195.368727 406.867214 
L 199.855273 411.479677 
L 204.341818 415.835589 
L 208.828364 419.94876 
L 213.314909 423.832571 
L 217.801455 427.507212 
L 222.288 430.976976 
L 226.774545 434.259334 
L 231.261091 437.365131 
L 235.747636 440.307289 
L 240.234182 443.089596 
L 244.720727 445.726363 
L 249.207273 448.224847 
L 253.693818 450.588581 
L 258.180364 452.831276 
L 262.666909 454.95832 
L 267.153455 456.977844 
L 271.64 458.891391 
L 276.126545 460.706017 
L 280.613091 462.430082 
L 285.099636 464.063625 
L 289.586182 465.616835 
L 294.072727 467.093322 
L 298.559273 468.492697 
L 303.045818 469.822908 
L 307.532364 471.086857 
L 312.018909 472.288673 
L 316.505455 473.429545 
L 320.992 474.513616 
L 325.478545 475.543221 
L 329.965091 476.521906 
L 334.451636 477.45207 
L 338.938182 478.337088 
L 343.424727 479.177101 
L 347.911273 479.976143 
L 352.397818 480.734695 
L 356.884364 481.456171 
L 361.370909 482.141825 
L 365.857455 482.790217 
L 370.344 483.409014 
L 374.830545 483.995869 
L 379.317091 484.554011 
L 383.803636 485.082429 
L 388.290182 485.585703 
L 392.776727 486.061026 
L 397.263273 486.512899 
L 401.749818 486.942016 
L 406.236364 487.347859 
L 410.722909 487.732996 
L 415.209455 488.095828 
L 419.696 488.440692 
L 424.182545 488.767588 
L 428.669091 489.074731 
L 433.155636 489.367057 
L 437.642182 489.6421 
L 442.128727 489.901664 
L 446.615273 490.146655 
L 451.101818 490.377666 
L 455.588364 490.592932 
L 460.074909 490.796961 
L 464.561455 490.987841 
L 469.048 491.168522 
L 473.534545 491.335753 
L 478.021091 491.491893 
L 482.507636 491.639234 
L 486.994182 491.776282 
L 491.480727 491.901353 
L 495.967273 492.018953 
L 500.453818 492.127579 
L 504.940364 492.226909 
L 509.426909 492.318816 
L 513.913455 492.402257 
L 518.4 492.48 
" clip-path="url(#pb4be76c8b9)" style="fill: none; stroke: #1f77b4; stroke-width: 1.5; stroke-linecap: square"/>
   </g>
   <g id="patch_3">
    <path d="M 72 512.64 
L 72 69.12 
" style="fill: none; stroke: #000000; stroke-width: 0.8; stroke-linejoin: miter; stroke-linecap: square"/>
   </g>
   <g id="patch_4">
    <path d="M 518.4 512.64 
L 518.4 69.12 
" style="fill: none; stroke: #000000; stroke-width: 0.8; stroke-linejoin: miter; stroke-linecap: square"/>
   </g>
   <g id="patch_5">
    <path d="M 72 512.64 
L 518.4 512.64 
" style="fill: none; stroke: #000000; stroke-width: 0.8; stroke-linejoin: miter; stroke-linecap: square"/>
   </g>
   <g id="patch_6">
    <path d="M 72 69.12 
L 518.4 69.12 
" style="fill: none; stroke: #000000; stroke-width: 0.8; stroke-linejoin: miter; stroke-linecap: square"/>
   </g>
   <g id="text_18">
    <!-- For Parameters φ = 0.03, r = 0.02, Σ = 0.2 -->
    <g transform="translate(167.045625 63.12) scale(0.12 -0.12)">
     <defs>
      <path id="DejaVuSans-46" d="M 628 4666 
L 3309 4666 
L 3309 4134 
L 1259 4134 
L 1259 2759 
L 3109 2759 
L 3109 2228 
L 1259 2228 
L 1259 0 
L 628 0 
L 628 4666 
z
" transform="scale(0.015625)"/>
      <path id="DejaVuSans-6f" d="M 1959 3097 
Q 1497 3097 1228 2736 
Q 959 2375 959 1747 
Q 959 1119 1226 758 
Q 1494 397 1959 397 
Q 2419 397 2687 759 
Q 2956 1122 2956 1747 
Q 2956 2369 2687 2733 
Q 2419 3097 1959 3097 
z
M 1959 3584 
Q 2709 3584 3137 3096 
Q 3566 2609 3566 1747 
Q 3566 888 3137 398 
Q 2709 -91 1959 -91 
Q 1206 -91 779 398 
Q 353 888 353 1747 
Q 353 2609 779 3096 
Q 1206 3584 1959 3584 
z
" transform="scale(0.015625)"/>
      <path id="DejaVuSans-72" d="M 2631 2963 
Q 2534 3019 2420 3045 
Q 2306 3072 2169 3072 
Q 1681 3072 1420 2755 
Q 1159 2438 1159 1844 
L 1159 0 
L 581 0 
L 581 3500 
L 1159 3500 
L 1159 2956 
Q 1341 3275 1631 3429 
Q 1922 3584 2338 3584 
Q 2397 3584 2469 3576 
Q 2541 3569 2628 3553 
L 2631 2963 
z
" transform="scale(0.015625)"/>
      <path id="DejaVuSans-20" transform="scale(0.015625)"/>
      <path id="DejaVuSans-50" d="M 1259 4147 
L 1259 2394 
L 2053 2394 
Q 2494 2394 2734 2622 
Q 2975 2850 2975 3272 
Q 2975 3691 2734 3919 
Q 2494 4147 2053 4147 
L 1259 4147 
z
M 628 4666 
L 2053 4666 
Q 2838 4666 3239 4311 
Q 3641 3956 3641 3272 
Q 3641 2581 3239 2228 
Q 2838 1875 2053 1875 
L 1259 1875 
L 1259 0 
L 628 0 
L 628 4666 
z
" transform="scale(0.015625)"/>
      <path id="DejaVuSans-61" d="M 2194 1759 
Q 1497 1759 1228 1600 
Q 959 1441 959 1056 
Q 959 750 1161 570 
Q 1363 391 1709 391 
Q 2188 391 2477 730 
Q 2766 1069 2766 1631 
L 2766 1759 
L 2194 1759 
z
M 3341 1997 
L 3341 0 
L 2766 0 
L 2766 531 
Q 2569 213 2275 61 
Q 1981 -91 1556 -91 
Q 1019 -91 701 211 
Q 384 513 384 1019 
Q 384 1609 779 1909 
Q 1175 2209 1959 2209 
L 2766 2209 
L 2766 2266 
Q 2766 2663 2505 2880 
Q 2244 3097 1772 3097 
Q 1472 3097 1187 3025 
Q 903 2953 641 2809 
L 641 3341 
Q 956 3463 1253 3523 
Q 1550 3584 1831 3584 
Q 2591 3584 2966 3190 
Q 3341 2797 3341 1997 
z
" transform="scale(0.015625)"/>
      <path id="DejaVuSans-6d" d="M 3328 2828 
Q 3544 3216 3844 3400 
Q 4144 3584 4550 3584 
Q 5097 3584 5394 3201 
Q 5691 2819 5691 2113 
L 5691 0 
L 5113 0 
L 5113 2094 
Q 5113 2597 4934 2840 
Q 4756 3084 4391 3084 
Q 3944 3084 3684 2787 
Q 3425 2491 3425 1978 
L 3425 0 
L 2847 0 
L 2847 2094 
Q 2847 2600 2669 2842 
Q 2491 3084 2119 3084 
Q 1678 3084 1418 2786 
Q 1159 2488 1159 1978 
L 1159 0 
L 581 0 
L 581 3500 
L 1159 3500 
L 1159 2956 
Q 1356 3278 1631 3431 
Q 1906 3584 2284 3584 
Q 2666 3584 2933 3390 
Q 3200 3197 3328 2828 
z
" transform="scale(0.015625)"/>
      <path id="DejaVuSans-65" d="M 3597 1894 
L 3597 1613 
L 953 1613 
Q 991 1019 1311 708 
Q 1631 397 2203 397 
Q 2534 397 2845 478 
Q 3156 559 3463 722 
L 3463 178 
Q 3153 47 2828 -22 
Q 2503 -91 2169 -91 
Q 1331 -91 842 396 
Q 353 884 353 1716 
Q 353 2575 817 3079 
Q 1281 3584 2069 3584 
Q 2775 3584 3186 3129 
Q 3597 2675 3597 1894 
z
M 3022 2063 
Q 3016 2534 2758 2815 
Q 2500 3097 2075 3097 
Q 1594 3097 1305 2825 
Q 1016 2553 972 2059 
L 3022 2063 
z
" transform="scale(0.015625)"/>
      <path id="DejaVuSans-74" d="M 1172 4494 
L 1172 3500 
L 2356 3500 
L 2356 3053 
L 1172 3053 
L 1172 1153 
Q 1172 725 1289 603 
Q 1406 481 1766 481 
L 2356 481 
L 2356 0 
L 1766 0 
Q 1100 0 847 248 
Q 594 497 594 1153 
L 594 3053 
L 172 3053 
L 172 3500 
L 594 3500 
L 594 4494 
L 1172 4494 
z
" transform="scale(0.015625)"/>
      <path id="DejaVuSans-73" d="M 2834 3397 
L 2834 2853 
Q 2591 2978 2328 3040 
Q 2066 3103 1784 3103 
Q 1356 3103 1142 2972 
Q 928 2841 928 2578 
Q 928 2378 1081 2264 
Q 1234 2150 1697 2047 
L 1894 2003 
Q 2506 1872 2764 1633 
Q 3022 1394 3022 966 
Q 3022 478 2636 193 
Q 2250 -91 1575 -91 
Q 1294 -91 989 -36 
Q 684 19 347 128 
L 347 722 
Q 666 556 975 473 
Q 1284 391 1588 391 
Q 1994 391 2212 530 
Q 2431 669 2431 922 
Q 2431 1156 2273 1281 
Q 2116 1406 1581 1522 
L 1381 1569 
Q 847 1681 609 1914 
Q 372 2147 372 2553 
Q 372 3047 722 3315 
Q 1072 3584 1716 3584 
Q 2034 3584 2315 3537 
Q 2597 3491 2834 3397 
z
" transform="scale(0.015625)"/>
      <path id="DejaVuSans-3c6" d="M 2591 3034 
Q 2388 3034 2388 2581 
L 2388 438 
Q 2684 438 2981 763 
Q 3247 1053 3247 1750 
Q 3247 2400 2978 2750 
Q 2759 3034 2591 3034 
z
M 2591 3525 
Q 3028 3525 3425 3113 
Q 3853 2672 3853 1750 
Q 3853 903 3425 400 
Q 3022 -75 2388 -75 
L 2388 -1331 
L 1816 -1331 
L 1816 -78 
Q 1194 -78 775 400 
Q 350 888 350 1747 
Q 350 2641 775 3097 
Q 1094 3438 1613 3525 
L 1613 3016 
Q 1406 2944 1225 2700 
Q 956 2341 956 1747 
Q 956 1116 1225 756 
Q 1466 434 1816 434 
L 1816 2581 
Q 1816 3525 2591 3525 
z
" transform="scale(0.015625)"/>
      <path id="DejaVuSans-3d" d="M 678 2906 
L 4684 2906 
L 4684 2381 
L 678 2381 
L 678 2906 
z
M 678 1631 
L 4684 1631 
L 4684 1100 
L 678 1100 
L 678 1631 
z
" transform="scale(0.015625)"/>
      <path id="DejaVuSans-2c" d="M 750 794 
L 1409 794 
L 1409 256 
L 897 -744 
L 494 -744 
L 750 256 
L 750 794 
z
" transform="scale(0.015625)"/>
      <path id="DejaVuSans-3a3" d="M 1353 531 
L 3634 531 
L 3634 0 
L 628 0 
L 628 531 
L 2125 2481 
L 628 4134 
L 628 4666 
L 3578 4666 
L 3578 4134 
L 1353 4134 
L 2850 2494 
L 1353 531 
z
" transform="scale(0.015625)"/>
     </defs>
     <use xlink:href="#DejaVuSans-46"/>
     <use xlink:href="#DejaVuSans-6f" transform="translate(53.894531 0)"/>
     <use xlink:href="#DejaVuSans-72" transform="translate(115.076172 0)"/>
     <use xlink:href="#DejaVuSans-20" transform="translate(156.189453 0)"/>
     <use xlink:href="#DejaVuSans-50" transform="translate(187.976562 0)"/>
     <use xlink:href="#DejaVuSans-61" transform="translate(243.779297 0)"/>
     <use xlink:href="#DejaVuSans-72" transform="translate(305.058594 0)"/>
     <use xlink:href="#DejaVuSans-61" transform="translate(346.171875 0)"/>
     <use xlink:href="#DejaVuSans-6d" transform="translate(407.451172 0)"/>
     <use xlink:href="#DejaVuSans-65" transform="translate(504.863281 0)"/>
     <use xlink:href="#DejaVuSans-74" transform="translate(566.386719 0)"/>
     <use xlink:href="#DejaVuSans-65" transform="translate(605.595703 0)"/>
     <use xlink:href="#DejaVuSans-72" transform="translate(667.119141 0)"/>
     <use xlink:href="#DejaVuSans-73" transform="translate(708.232422 0)"/>
     <use xlink:href="#DejaVuSans-20" transform="translate(760.332031 0)"/>
     <use xlink:href="#DejaVuSans-3c6" transform="translate(792.119141 0)"/>
     <use xlink:href="#DejaVuSans-20" transform="translate(858.085938 0)"/>
     <use xlink:href="#DejaVuSans-3d" transform="translate(889.873047 0)"/>
     <use xlink:href="#DejaVuSans-20" transform="translate(973.662109 0)"/>
     <use xlink:href="#DejaVuSans-30" transform="translate(1005.449219 0)"/>
     <use xlink:href="#DejaVuSans-2e" transform="translate(1069.072266 0)"/>
     <use xlink:href="#DejaVuSans-30" transform="translate(1100.859375 0)"/>
     <use xlink:href="#DejaVuSans-33" transform="translate(1164.482422 0)"/>
     <use xlink:href="#DejaVuSans-2c" transform="translate(1228.105469 0)"/>
     <use xlink:href="#DejaVuSans-20" transform="translate(1259.892578 0)"/>
     <use xlink:href="#DejaVuSans-72" transform="translate(1291.679688 0)"/>
     <use xlink:href="#DejaVuSans-20" transform="translate(1332.792969 0)"/>
     <use xlink:href="#DejaVuSans-3d" transform="translate(1364.580078 0)"/>
     <use xlink:href="#DejaVuSans-20" transform="translate(1448.369141 0)"/>
     <use xlink:href="#DejaVuSans-30" transform="translate(1480.15625 0)"/>
     <use xlink:href="#DejaVuSans-2e" transform="translate(1543.779297 0)"/>
     <use xlink:href="#DejaVuSans-30" transform="translate(1575.566406 0)"/>
     <use xlink:href="#DejaVuSans-32" transform="translate(1639.189453 0)"/>
     <use xlink:href="#DejaVuSans-2c" transform="translate(1702.8125 0)"/>
     <use xlink:href="#DejaVuSans-20" transform="translate(1734.599609 0)"/>
     <use xlink:href="#DejaVuSans-3a3" transform="translate(1766.386719 0)"/>
     <use xlink:href="#DejaVuSans-20" transform="translate(1829.570312 0)"/>
     <use xlink:href="#DejaVuSans-3d" transform="translate(1861.357422 0)"/>
     <use xlink:href="#DejaVuSans-20" transform="translate(1945.146484 0)"/>
     <use xlink:href="#DejaVuSans-30" transform="translate(1976.933594 0)"/>
     <use xlink:href="#DejaVuSans-2e" transform="translate(2040.556641 0)"/>
     <use xlink:href="#DejaVuSans-32" transform="translate(2072.34375 0)"/>
    </g>
   </g>
  </g>
  <g id="text_19">
   <!-- The Approximation Error for the Portfolio Share in Risky Assets ς Is Small -->
   <g transform="translate(69.63375 20.638125) scale(0.12 -0.12)">
    <defs>
     <path id="DejaVuSans-54" d="M -19 4666 
L 3928 4666 
L 3928 4134 
L 2272 4134 
L 2272 0 
L 1638 0 
L 1638 4134 
L -19 4134 
L -19 4666 
z
" transform="scale(0.015625)"/>
     <path id="DejaVuSans-68" d="M 3513 2113 
L 3513 0 
L 2938 0 
L 2938 2094 
Q 2938 2591 2744 2837 
Q 2550 3084 2163 3084 
Q 1697 3084 1428 2787 
Q 1159 2491 1159 1978 
L 1159 0 
L 581 0 
L 581 4863 
L 1159 4863 
L 1159 2956 
Q 1366 3272 1645 3428 
Q 1925 3584 2291 3584 
Q 2894 3584 3203 3211 
Q 3513 2838 3513 2113 
z
" transform="scale(0.015625)"/>
     <path id="DejaVuSans-41" d="M 2188 4044 
L 1331 1722 
L 3047 1722 
L 2188 4044 
z
M 1831 4666 
L 2547 4666 
L 4325 0 
L 3669 0 
L 3244 1197 
L 1141 1197 
L 716 0 
L 50 0 
L 1831 4666 
z
" transform="scale(0.015625)"/>
     <path id="DejaVuSans-70" d="M 1159 525 
L 1159 -1331 
L 581 -1331 
L 581 3500 
L 1159 3500 
L 1159 2969 
Q 1341 3281 1617 3432 
Q 1894 3584 2278 3584 
Q 2916 3584 3314 3078 
Q 3713 2572 3713 1747 
Q 3713 922 3314 415 
Q 2916 -91 2278 -91 
Q 1894 -91 1617 61 
Q 1341 213 1159 525 
z
M 3116 1747 
Q 3116 2381 2855 2742 
Q 2594 3103 2138 3103 
Q 1681 3103 1420 2742 
Q 1159 2381 1159 1747 
Q 1159 1113 1420 752 
Q 1681 391 2138 391 
Q 2594 391 2855 752 
Q 3116 1113 3116 1747 
z
" transform="scale(0.015625)"/>
     <path id="DejaVuSans-78" d="M 3513 3500 
L 2247 1797 
L 3578 0 
L 2900 0 
L 1881 1375 
L 863 0 
L 184 0 
L 1544 1831 
L 300 3500 
L 978 3500 
L 1906 2253 
L 2834 3500 
L 3513 3500 
z
" transform="scale(0.015625)"/>
     <path id="DejaVuSans-69" d="M 603 3500 
L 1178 3500 
L 1178 0 
L 603 0 
L 603 3500 
z
M 603 4863 
L 1178 4863 
L 1178 4134 
L 603 4134 
L 603 4863 
z
" transform="scale(0.015625)"/>
     <path id="DejaVuSans-6e" d="M 3513 2113 
L 3513 0 
L 2938 0 
L 2938 2094 
Q 2938 2591 2744 2837 
Q 2550 3084 2163 3084 
Q 1697 3084 1428 2787 
Q 1159 2491 1159 1978 
L 1159 0 
L 581 0 
L 581 3500 
L 1159 3500 
L 1159 2956 
Q 1366 3272 1645 3428 
Q 1925 3584 2291 3584 
Q 2894 3584 3203 3211 
Q 3513 2838 3513 2113 
z
" transform="scale(0.015625)"/>
     <path id="DejaVuSans-45" d="M 628 4666 
L 3578 4666 
L 3578 4134 
L 1259 4134 
L 1259 2753 
L 3481 2753 
L 3481 2222 
L 1259 2222 
L 1259 531 
L 3634 531 
L 3634 0 
L 628 0 
L 628 4666 
z
" transform="scale(0.015625)"/>
     <path id="DejaVuSans-66" d="M 2375 4863 
L 2375 4384 
L 1825 4384 
Q 1516 4384 1395 4259 
Q 1275 4134 1275 3809 
L 1275 3500 
L 2222 3500 
L 2222 3053 
L 1275 3053 
L 1275 0 
L 697 0 
L 697 3053 
L 147 3053 
L 147 3500 
L 697 3500 
L 697 3744 
Q 697 4328 969 4595 
Q 1241 4863 1831 4863 
L 2375 4863 
z
" transform="scale(0.015625)"/>
     <path id="DejaVuSans-6c" d="M 603 4863 
L 1178 4863 
L 1178 0 
L 603 0 
L 603 4863 
z
" transform="scale(0.015625)"/>
     <path id="DejaVuSans-53" d="M 3425 4513 
L 3425 3897 
Q 3066 4069 2747 4153 
Q 2428 4238 2131 4238 
Q 1616 4238 1336 4038 
Q 1056 3838 1056 3469 
Q 1056 3159 1242 3001 
Q 1428 2844 1947 2747 
L 2328 2669 
Q 3034 2534 3370 2195 
Q 3706 1856 3706 1288 
Q 3706 609 3251 259 
Q 2797 -91 1919 -91 
Q 1588 -91 1214 -16 
Q 841 59 441 206 
L 441 856 
Q 825 641 1194 531 
Q 1563 422 1919 422 
Q 2459 422 2753 634 
Q 3047 847 3047 1241 
Q 3047 1584 2836 1778 
Q 2625 1972 2144 2069 
L 1759 2144 
Q 1053 2284 737 2584 
Q 422 2884 422 3419 
Q 422 4038 858 4394 
Q 1294 4750 2059 4750 
Q 2388 4750 2728 4690 
Q 3069 4631 3425 4513 
z
" transform="scale(0.015625)"/>
     <path id="DejaVuSans-52" d="M 2841 2188 
Q 3044 2119 3236 1894 
Q 3428 1669 3622 1275 
L 4263 0 
L 3584 0 
L 2988 1197 
Q 2756 1666 2539 1819 
Q 2322 1972 1947 1972 
L 1259 1972 
L 1259 0 
L 628 0 
L 628 4666 
L 2053 4666 
Q 2853 4666 3247 4331 
Q 3641 3997 3641 3322 
Q 3641 2881 3436 2590 
Q 3231 2300 2841 2188 
z
M 1259 4147 
L 1259 2491 
L 2053 2491 
Q 2509 2491 2742 2702 
Q 2975 2913 2975 3322 
Q 2975 3731 2742 3939 
Q 2509 4147 2053 4147 
L 1259 4147 
z
" transform="scale(0.015625)"/>
     <path id="DejaVuSans-6b" d="M 581 4863 
L 1159 4863 
L 1159 1991 
L 2875 3500 
L 3609 3500 
L 1753 1863 
L 3688 0 
L 2938 0 
L 1159 1709 
L 1159 0 
L 581 0 
L 581 4863 
z
" transform="scale(0.015625)"/>
     <path id="DejaVuSans-79" d="M 2059 -325 
Q 1816 -950 1584 -1140 
Q 1353 -1331 966 -1331 
L 506 -1331 
L 506 -850 
L 844 -850 
Q 1081 -850 1212 -737 
Q 1344 -625 1503 -206 
L 1606 56 
L 191 3500 
L 800 3500 
L 1894 763 
L 2988 3500 
L 3597 3500 
L 2059 -325 
z
" transform="scale(0.015625)"/>
     <path id="DejaVuSans-3c2" d="M 2125 -91 
Q 1284 -91 818 406 
Q 353 903 353 1747 
Q 353 2603 823 3093 
Q 1294 3584 2113 3584 
Q 2378 3584 2631 3529 
Q 2884 3475 3122 3366 
L 3122 2828 
Q 2878 2963 2633 3030 
Q 2388 3097 2138 3097 
Q 1578 3097 1268 2742 
Q 959 2388 959 1747 
Q 959 1106 1268 751 
Q 1578 397 2125 397 
Q 2534 397 2784 159 
Q 3047 -88 3047 -463 
Q 3047 -822 2816 -1072 
Q 2566 -1344 2056 -1344 
Q 2056 -1109 2056 -872 
Q 2272 -888 2403 -750 
Q 2503 -641 2503 -525 
Q 2503 -359 2403 -222 
Q 2306 -91 2125 -91 
z
" transform="scale(0.015625)"/>
     <path id="DejaVuSans-49" d="M 628 4666 
L 1259 4666 
L 1259 0 
L 628 0 
L 628 4666 
z
" transform="scale(0.015625)"/>
    </defs>
    <use xlink:href="#DejaVuSans-54"/>
    <use xlink:href="#DejaVuSans-68" transform="translate(61.083984 0)"/>
    <use xlink:href="#DejaVuSans-65" transform="translate(124.462891 0)"/>
    <use xlink:href="#DejaVuSans-20" transform="translate(185.986328 0)"/>
    <use xlink:href="#DejaVuSans-41" transform="translate(217.773438 0)"/>
    <use xlink:href="#DejaVuSans-70" transform="translate(286.181641 0)"/>
    <use xlink:href="#DejaVuSans-70" transform="translate(349.658203 0)"/>
    <use xlink:href="#DejaVuSans-72" transform="translate(413.134766 0)"/>
    <use xlink:href="#DejaVuSans-6f" transform="translate(451.998047 0)"/>
    <use xlink:href="#DejaVuSans-78" transform="translate(510.054688 0)"/>
    <use xlink:href="#DejaVuSans-69" transform="translate(569.234375 0)"/>
    <use xlink:href="#DejaVuSans-6d" transform="translate(597.017578 0)"/>
    <use xlink:href="#DejaVuSans-61" transform="translate(694.429688 0)"/>
    <use xlink:href="#DejaVuSans-74" transform="translate(755.708984 0)"/>
    <use xlink:href="#DejaVuSans-69" transform="translate(794.917969 0)"/>
    <use xlink:href="#DejaVuSans-6f" transform="translate(822.701172 0)"/>
    <use xlink:href="#DejaVuSans-6e" transform="translate(883.882812 0)"/>
    <use xlink:href="#DejaVuSans-20" transform="translate(947.261719 0)"/>
    <use xlink:href="#DejaVuSans-45" transform="translate(979.048828 0)"/>
    <use xlink:href="#DejaVuSans-72" transform="translate(1042.232422 0)"/>
    <use xlink:href="#DejaVuSans-72" transform="translate(1081.595703 0)"/>
    <use xlink:href="#DejaVuSans-6f" transform="translate(1120.458984 0)"/>
    <use xlink:href="#DejaVuSans-72" transform="translate(1181.640625 0)"/>
    <use xlink:href="#DejaVuSans-20" transform="translate(1222.753906 0)"/>
    <use xlink:href="#DejaVuSans-66" transform="translate(1254.541016 0)"/>
    <use xlink:href="#DejaVuSans-6f" transform="translate(1289.746094 0)"/>
    <use xlink:href="#DejaVuSans-72" transform="translate(1350.927734 0)"/>
    <use xlink:href="#DejaVuSans-20" transform="translate(1392.041016 0)"/>
    <use xlink:href="#DejaVuSans-74" transform="translate(1423.828125 0)"/>
    <use xlink:href="#DejaVuSans-68" transform="translate(1463.037109 0)"/>
    <use xlink:href="#DejaVuSans-65" transform="translate(1526.416016 0)"/>
    <use xlink:href="#DejaVuSans-20" transform="translate(1587.939453 0)"/>
    <use xlink:href="#DejaVuSans-50" transform="translate(1619.726562 0)"/>
    <use xlink:href="#DejaVuSans-6f" transform="translate(1676.404297 0)"/>
    <use xlink:href="#DejaVuSans-72" transform="translate(1737.585938 0)"/>
    <use xlink:href="#DejaVuSans-74" transform="translate(1778.699219 0)"/>
    <use xlink:href="#DejaVuSans-66" transform="translate(1817.908203 0)"/>
    <use xlink:href="#DejaVuSans-6f" transform="translate(1853.113281 0)"/>
    <use xlink:href="#DejaVuSans-6c" transform="translate(1914.294922 0)"/>
    <use xlink:href="#DejaVuSans-69" transform="translate(1942.078125 0)"/>
    <use xlink:href="#DejaVuSans-6f" transform="translate(1969.861328 0)"/>
    <use xlink:href="#DejaVuSans-20" transform="translate(2031.042969 0)"/>
    <use xlink:href="#DejaVuSans-53" transform="translate(2062.830078 0)"/>
    <use xlink:href="#DejaVuSans-68" transform="translate(2126.306641 0)"/>
    <use xlink:href="#DejaVuSans-61" transform="translate(2189.685547 0)"/>
    <use xlink:href="#DejaVuSans-72" transform="translate(2250.964844 0)"/>
    <use xlink:href="#DejaVuSans-65" transform="translate(2289.828125 0)"/>
    <use xlink:href="#DejaVuSans-20" transform="translate(2351.351562 0)"/>
    <use xlink:href="#DejaVuSans-69" transform="translate(2383.138672 0)"/>
    <use xlink:href="#DejaVuSans-6e" transform="translate(2410.921875 0)"/>
    <use xlink:href="#DejaVuSans-20" transform="translate(2474.300781 0)"/>
    <use xlink:href="#DejaVuSans-52" transform="translate(2506.087891 0)"/>
    <use xlink:href="#DejaVuSans-69" transform="translate(2575.570312 0)"/>
    <use xlink:href="#DejaVuSans-73" transform="translate(2603.353516 0)"/>
    <use xlink:href="#DejaVuSans-6b" transform="translate(2655.453125 0)"/>
    <use xlink:href="#DejaVuSans-79" transform="translate(2709.738281 0)"/>
    <use xlink:href="#DejaVuSans-20" transform="translate(2768.917969 0)"/>
    <use xlink:href="#DejaVuSans-41" transform="translate(2800.705078 0)"/>
    <use xlink:href="#DejaVuSans-73" transform="translate(2869.113281 0)"/>
    <use xlink:href="#DejaVuSans-73" transform="translate(2921.212891 0)"/>
    <use xlink:href="#DejaVuSans-65" transform="translate(2973.3125 0)"/>
    <use xlink:href="#DejaVuSans-74" transform="translate(3034.835938 0)"/>
    <use xlink:href="#DejaVuSans-73" transform="translate(3074.044922 0)"/>
    <use xlink:href="#DejaVuSans-20" transform="translate(3126.144531 0)"/>
    <use xlink:href="#DejaVuSans-3c2" transform="translate(3157.931641 0)"/>
    <use xlink:href="#DejaVuSans-20" transform="translate(3216.623047 0)"/>
    <use xlink:href="#DejaVuSans-49" transform="translate(3248.410156 0)"/>
    <use xlink:href="#DejaVuSans-73" transform="translate(3277.902344 0)"/>
    <use xlink:href="#DejaVuSans-20" transform="translate(3330.001953 0)"/>
    <use xlink:href="#DejaVuSans-53" transform="translate(3361.789062 0)"/>
    <use xlink:href="#DejaVuSans-6d" transform="translate(3425.265625 0)"/>
    <use xlink:href="#DejaVuSans-61" transform="translate(3522.677734 0)"/>
    <use xlink:href="#DejaVuSans-6c" transform="translate(3583.957031 0)"/>
    <use xlink:href="#DejaVuSans-6c" transform="translate(3611.740234 0)"/>
   </g>
  </g>
 </g>
 <defs>
  <clipPath id="pb4be76c8b9">
   <rect x="72" y="69.12" width="446.4" height="443.52"/>
  </clipPath>
 </defs>
</svg>
