<?xml version="1.0" encoding="utf-8" standalone="no"?>
<!DOCTYPE svg PUBLIC "-//W3C//DTD SVG 1.1//EN"
  "http://www.w3.org/Graphics/SVG/1.1/DTD/svg11.dtd">
<svg xmlns:xlink="http://www.w3.org/1999/xlink" width="460.8pt" height="345.6pt" viewBox="0 0 460.8 345.6" xmlns="http://www.w3.org/2000/svg" version="1.1">
 <metadata>
  <rdf:RDF xmlns:dc="http://purl.org/dc/elements/1.1/" xmlns:cc="http://creativecommons.org/ns#" xmlns:rdf="http://www.w3.org/1999/02/22-rdf-syntax-ns#">
   <cc:Work>
    <dc:type rdf:resource="http://purl.org/dc/dcmitype/StillImage"/>
    <dc:format>image/svg+xml</dc:format>
    <dc:creator>
     <cc:Agent>
      <dc:title>Matplotlib v3.10.6, https://matplotlib.org/</dc:title>
     </cc:Agent>
    </dc:creator>
   </cc:Work>
  </rdf:RDF>
 </metadata>
 <defs>
  <style type="text/css">*{stroke-linejoin: round; stroke-linecap: butt}</style>
 </defs>
 <g id="figure_1">
  <g id="patch_1">
   <path d="M 0 345.6 
L 460.8 345.6 
L 460.8 0 
L 0 0 
z
" style="fill: #ffffff"/>
  </g>
  <g id="axes_1">
   <g id="patch_2">
    <path d="M 57.6 307.584 
L 414.72 307.584 
L 414.72 41.472 
L 57.6 41.472 
z
" style="fill: #ffffff"/>
   </g>
   <g id="matplotlib.axis_1">
    <g id="xtick_1">
     <g id="line2d_1">
      <defs>
       <path id="m20da6a3d9b" d="M 0 0 
L 0 3.5 
" style="stroke: #000000; stroke-width: 0.8"/>
      </defs>
      <g>
       <use xlink:href="#m20da6a3d9b" x="73.832727" y="307.584" style="stroke: #000000; stroke-width: 0.8"/>
      </g>
     </g>
     <g id="text_1">
      <!-- 0 -->
      <g transform="translate(70.651477 322.182437) scale(0.1 -0.1)">
       <defs>
        <path id="DejaVuSans-30" d="M 2034 4250 
Q 1547 4250 1301 3770 
Q 1056 3291 1056 2328 
Q 1056 1369 1301 889 
Q 1547 409 2034 409 
Q 2525 409 2770 889 
Q 3016 1369 3016 2328 
Q 3016 3291 2770 3770 
Q 2525 4250 2034 4250 
z
M 2034 4750 
Q 2819 4750 3233 4129 
Q 3647 3509 3647 2328 
Q 3647 1150 3233 529 
Q 2819 -91 2034 -91 
Q 1250 -91 836 529 
Q 422 1150 422 2328 
Q 422 3509 836 4129 
Q 1250 4750 2034 4750 
z
" transform="scale(0.015625)"/>
       </defs>
       <use xlink:href="#DejaVuSans-30"/>
      </g>
     </g>
    </g>
    <g id="xtick_2">
     <g id="line2d_2">
      <g>
       <use xlink:href="#m20da6a3d9b" x="134.34174" y="307.584" style="stroke: #000000; stroke-width: 0.8"/>
      </g>
     </g>
     <g id="text_2">
      <!-- 5 -->
      <g transform="translate(131.16049 322.182437) scale(0.1 -0.1)">
       <defs>
        <path id="DejaVuSans-35" d="M 691 4666 
L 3169 4666 
L 3169 4134 
L 1269 4134 
L 1269 2991 
Q 1406 3038 1543 3061 
Q 1681 3084 1819 3084 
Q 2600 3084 3056 2656 
Q 3513 2228 3513 1497 
Q 3513 744 3044 326 
Q 2575 -91 1722 -91 
Q 1428 -91 1123 -41 
Q 819 9 494 109 
L 494 744 
Q 775 591 1075 516 
Q 1375 441 1709 441 
Q 2250 441 2565 725 
Q 2881 1009 2881 1497 
Q 2881 1984 2565 2268 
Q 2250 2553 1709 2553 
Q 1456 2553 1204 2497 
Q 953 2441 691 2322 
L 691 4666 
z
" transform="scale(0.015625)"/>
       </defs>
       <use xlink:href="#DejaVuSans-35"/>
      </g>
     </g>
    </g>
    <g id="xtick_3">
     <g id="line2d_3">
      <g>
       <use xlink:href="#m20da6a3d9b" x="194.850752" y="307.584" style="stroke: #000000; stroke-width: 0.8"/>
      </g>
     </g>
     <g id="text_3">
      <!-- 10 -->
      <g transform="translate(188.488252 322.182437) scale(0.1 -0.1)">
       <defs>
        <path id="DejaVuSans-31" d="M 794 531 
L 1825 531 
L 1825 4091 
L 703 3866 
L 703 4441 
L 1819 4666 
L 2450 4666 
L 2450 531 
L 3481 531 
L 3481 0 
L 794 0 
L 794 531 
z
" transform="scale(0.015625)"/>
       </defs>
       <use xlink:href="#DejaVuSans-31"/>
       <use xlink:href="#DejaVuSans-30" transform="translate(63.623047 0)"/>
      </g>
     </g>
    </g>
    <g id="xtick_4">
     <g id="line2d_4">
      <g>
       <use xlink:href="#m20da6a3d9b" x="255.359764" y="307.584" style="stroke: #000000; stroke-width: 0.8"/>
      </g>
     </g>
     <g id="text_4">
      <!-- 15 -->
      <g transform="translate(248.997264 322.182437) scale(0.1 -0.1)">
       <use xlink:href="#DejaVuSans-31"/>
       <use xlink:href="#DejaVuSans-35" transform="translate(63.623047 0)"/>
      </g>
     </g>
    </g>
    <g id="xtick_5">
     <g id="line2d_5">
      <g>
       <use xlink:href="#m20da6a3d9b" x="315.868776" y="307.584" style="stroke: #000000; stroke-width: 0.8"/>
      </g>
     </g>
     <g id="text_5">
      <!-- 20 -->
      <g transform="translate(309.506276 322.182437) scale(0.1 -0.1)">
       <defs>
        <path id="DejaVuSans-32" d="M 1228 531 
L 3431 531 
L 3431 0 
L 469 0 
L 469 531 
Q 828 903 1448 1529 
Q 2069 2156 2228 2338 
Q 2531 2678 2651 2914 
Q 2772 3150 2772 3378 
Q 2772 3750 2511 3984 
Q 2250 4219 1831 4219 
Q 1534 4219 1204 4116 
Q 875 4013 500 3803 
L 500 4441 
Q 881 4594 1212 4672 
Q 1544 4750 1819 4750 
Q 2544 4750 2975 4387 
Q 3406 4025 3406 3419 
Q 3406 3131 3298 2873 
Q 3191 2616 2906 2266 
Q 2828 2175 2409 1742 
Q 1991 1309 1228 531 
z
" transform="scale(0.015625)"/>
       </defs>
       <use xlink:href="#DejaVuSans-32"/>
       <use xlink:href="#DejaVuSans-30" transform="translate(63.623047 0)"/>
      </g>
     </g>
    </g>
    <g id="xtick_6">
     <g id="line2d_6">
      <g>
       <use xlink:href="#m20da6a3d9b" x="376.377788" y="307.584" style="stroke: #000000; stroke-width: 0.8"/>
      </g>
     </g>
     <g id="text_6">
      <!-- 25 -->
      <g transform="translate(370.015288 322.182437) scale(0.1 -0.1)">
       <use xlink:href="#DejaVuSans-32"/>
       <use xlink:href="#DejaVuSans-35" transform="translate(63.623047 0)"/>
      </g>
     </g>
    </g>
    <g id="text_7">
     <!-- k -->
     <g transform="translate(233.264688 335.860562) scale(0.1 -0.1)">
      <defs>
       <path id="DejaVuSans-6b" d="M 581 4863 
L 1159 4863 
L 1159 1991 
L 2875 3500 
L 3609 3500 
L 1753 1863 
L 3688 0 
L 2938 0 
L 1159 1709 
L 1159 0 
L 581 0 
L 581 4863 
z
" transform="scale(0.015625)"/>
      </defs>
      <use xlink:href="#DejaVuSans-6b"/>
     </g>
    </g>
   </g>
   <g id="matplotlib.axis_2">
    <g id="ytick_1">
     <g id="line2d_7">
      <defs>
       <path id="m9f777353d9" d="M 0 0 
L -3.5 0 
" style="stroke: #000000; stroke-width: 0.8"/>
      </defs>
      <g>
       <use xlink:href="#m9f777353d9" x="57.6" y="295.488" style="stroke: #000000; stroke-width: 0.8"/>
      </g>
     </g>
     <g id="text_8">
      <!-- 0.0 -->
      <g transform="translate(34.696875 299.287219) scale(0.1 -0.1)">
       <defs>
        <path id="DejaVuSans-2e" d="M 684 794 
L 1344 794 
L 1344 0 
L 684 0 
L 684 794 
z
" transform="scale(0.015625)"/>
       </defs>
       <use xlink:href="#DejaVuSans-30"/>
       <use xlink:href="#DejaVuSans-2e" transform="translate(63.623047 0)"/>
       <use xlink:href="#DejaVuSans-30" transform="translate(95.410156 0)"/>
      </g>
     </g>
    </g>
    <g id="ytick_2">
     <g id="line2d_8">
      <g>
       <use xlink:href="#m9f777353d9" x="57.6" y="252.322342" style="stroke: #000000; stroke-width: 0.8"/>
      </g>
     </g>
     <g id="text_9">
      <!-- 0.2 -->
      <g transform="translate(34.696875 256.12156) scale(0.1 -0.1)">
       <use xlink:href="#DejaVuSans-30"/>
       <use xlink:href="#DejaVuSans-2e" transform="translate(63.623047 0)"/>
       <use xlink:href="#DejaVuSans-32" transform="translate(95.410156 0)"/>
      </g>
     </g>
    </g>
    <g id="ytick_3">
     <g id="line2d_9">
      <g>
       <use xlink:href="#m9f777353d9" x="57.6" y="209.156683" style="stroke: #000000; stroke-width: 0.8"/>
      </g>
     </g>
     <g id="text_10">
      <!-- 0.4 -->
      <g transform="translate(34.696875 212.955902) scale(0.1 -0.1)">
       <defs>
        <path id="DejaVuSans-34" d="M 2419 4116 
L 825 1625 
L 2419 1625 
L 2419 4116 
z
M 2253 4666 
L 3047 4666 
L 3047 1625 
L 3713 1625 
L 3713 1100 
L 3047 1100 
L 3047 0 
L 2419 0 
L 2419 1100 
L 313 1100 
L 313 1709 
L 2253 4666 
z
" transform="scale(0.015625)"/>
       </defs>
       <use xlink:href="#DejaVuSans-30"/>
       <use xlink:href="#DejaVuSans-2e" transform="translate(63.623047 0)"/>
       <use xlink:href="#DejaVuSans-34" transform="translate(95.410156 0)"/>
      </g>
     </g>
    </g>
    <g id="ytick_4">
     <g id="line2d_10">
      <g>
       <use xlink:href="#m9f777353d9" x="57.6" y="165.991025" style="stroke: #000000; stroke-width: 0.8"/>
      </g>
     </g>
     <g id="text_11">
      <!-- 0.6 -->
      <g transform="translate(34.696875 169.790244) scale(0.1 -0.1)">
       <defs>
        <path id="DejaVuSans-36" d="M 2113 2584 
Q 1688 2584 1439 2293 
Q 1191 2003 1191 1497 
Q 1191 994 1439 701 
Q 1688 409 2113 409 
Q 2538 409 2786 701 
Q 3034 994 3034 1497 
Q 3034 2003 2786 2293 
Q 2538 2584 2113 2584 
z
M 3366 4563 
L 3366 3988 
Q 3128 4100 2886 4159 
Q 2644 4219 2406 4219 
Q 1781 4219 1451 3797 
Q 1122 3375 1075 2522 
Q 1259 2794 1537 2939 
Q 1816 3084 2150 3084 
Q 2853 3084 3261 2657 
Q 3669 2231 3669 1497 
Q 3669 778 3244 343 
Q 2819 -91 2113 -91 
Q 1303 -91 875 529 
Q 447 1150 447 2328 
Q 447 3434 972 4092 
Q 1497 4750 2381 4750 
Q 2619 4750 2861 4703 
Q 3103 4656 3366 4563 
z
" transform="scale(0.015625)"/>
       </defs>
       <use xlink:href="#DejaVuSans-30"/>
       <use xlink:href="#DejaVuSans-2e" transform="translate(63.623047 0)"/>
       <use xlink:href="#DejaVuSans-36" transform="translate(95.410156 0)"/>
      </g>
     </g>
    </g>
    <g id="ytick_5">
     <g id="line2d_11">
      <g>
       <use xlink:href="#m9f777353d9" x="57.6" y="122.825367" style="stroke: #000000; stroke-width: 0.8"/>
      </g>
     </g>
     <g id="text_12">
      <!-- 0.8 -->
      <g transform="translate(34.696875 126.624586) scale(0.1 -0.1)">
       <defs>
        <path id="DejaVuSans-38" d="M 2034 2216 
Q 1584 2216 1326 1975 
Q 1069 1734 1069 1313 
Q 1069 891 1326 650 
Q 1584 409 2034 409 
Q 2484 409 2743 651 
Q 3003 894 3003 1313 
Q 3003 1734 2745 1975 
Q 2488 2216 2034 2216 
z
M 1403 2484 
Q 997 2584 770 2862 
Q 544 3141 544 3541 
Q 544 4100 942 4425 
Q 1341 4750 2034 4750 
Q 2731 4750 3128 4425 
Q 3525 4100 3525 3541 
Q 3525 3141 3298 2862 
Q 3072 2584 2669 2484 
Q 3125 2378 3379 2068 
Q 3634 1759 3634 1313 
Q 3634 634 3220 271 
Q 2806 -91 2034 -91 
Q 1263 -91 848 271 
Q 434 634 434 1313 
Q 434 1759 690 2068 
Q 947 2378 1403 2484 
z
M 1172 3481 
Q 1172 3119 1398 2916 
Q 1625 2713 2034 2713 
Q 2441 2713 2670 2916 
Q 2900 3119 2900 3481 
Q 2900 3844 2670 4047 
Q 2441 4250 2034 4250 
Q 1625 4250 1398 4047 
Q 1172 3844 1172 3481 
z
" transform="scale(0.015625)"/>
       </defs>
       <use xlink:href="#DejaVuSans-30"/>
       <use xlink:href="#DejaVuSans-2e" transform="translate(63.623047 0)"/>
       <use xlink:href="#DejaVuSans-38" transform="translate(95.410156 0)"/>
      </g>
     </g>
    </g>
    <g id="ytick_6">
     <g id="line2d_12">
      <g>
       <use xlink:href="#m9f777353d9" x="57.6" y="79.659708" style="stroke: #000000; stroke-width: 0.8"/>
      </g>
     </g>
     <g id="text_13">
      <!-- 1.0 -->
      <g transform="translate(34.696875 83.458927) scale(0.1 -0.1)">
       <use xlink:href="#DejaVuSans-31"/>
       <use xlink:href="#DejaVuSans-2e" transform="translate(63.623047 0)"/>
       <use xlink:href="#DejaVuSans-30" transform="translate(95.410156 0)"/>
      </g>
     </g>
    </g>
    <g id="text_14">
     <!-- c -->
     <g transform="translate(28.617188 177.277219) rotate(-90) scale(0.1 -0.1)">
      <defs>
       <path id="DejaVuSans-63" d="M 3122 3366 
L 3122 2828 
Q 2878 2963 2633 3030 
Q 2388 3097 2138 3097 
Q 1578 3097 1268 2742 
Q 959 2388 959 1747 
Q 959 1106 1268 751 
Q 1578 397 2138 397 
Q 2388 397 2633 464 
Q 2878 531 3122 666 
L 3122 134 
Q 2881 22 2623 -34 
Q 2366 -91 2075 -91 
Q 1284 -91 818 406 
Q 353 903 353 1747 
Q 353 2603 823 3093 
Q 1294 3584 2113 3584 
Q 2378 3584 2631 3529 
Q 2884 3475 3122 3366 
z
" transform="scale(0.015625)"/>
      </defs>
      <use xlink:href="#DejaVuSans-63"/>
     </g>
    </g>
   </g>
   <g id="line2d_13">
    <path d="M 73.832727 295.488 
L 77.112066 155.458689 
L 80.391405 127.588349 
L 83.670744 110.206573 
L 86.950083 97.772589 
L 90.229421 88.312668 
L 93.50876 80.869766 
L 96.788099 74.899232 
L 100.067438 70.058388 
L 103.346777 66.116145 
L 106.626116 62.908513 
L 109.905455 60.314467 
L 113.184793 58.241879 
L 116.464132 56.618818 
L 119.743471 55.387942 
L 123.02281 54.502719 
L 126.302149 53.924817 
L 129.581488 53.622246 
L 132.860826 53.568 
L 136.140165 53.739053 
L 139.419504 54.115594 
L 142.698843 54.680446 
L 145.978182 55.418603 
L 149.257521 56.316875 
L 152.53686 57.3636 
L 155.816198 58.548407 
L 159.095537 59.862031 
L 162.374876 61.29616 
L 165.654215 62.843298 
L 168.933554 64.496668 
L 172.212893 66.250113 
L 175.492231 68.098028 
L 178.77157 70.035286 
L 182.050909 72.057192 
L 185.330248 74.15943 
L 188.609587 76.338023 
L 191.888926 78.589299 
L 195.168264 80.909856 
L 198.447603 83.296542 
L 201.726942 85.746425 
L 205.006281 88.256772 
L 208.28562 90.825038 
L 211.564959 93.448839 
L 214.844298 96.125947 
L 218.123636 98.85427 
L 221.402975 101.631846 
L 224.682314 104.456827 
L 227.961653 107.327474 
L 231.240992 110.242149 
L 234.520331 113.199302 
L 237.799669 116.19747 
L 241.079008 119.235268 
L 244.358347 122.311385 
L 247.637686 125.424575 
L 250.917025 128.573657 
L 254.196364 131.757508 
L 257.475702 134.975061 
L 260.755041 138.225298 
L 264.03438 141.507251 
L 267.313719 144.819995 
L 270.593058 148.162649 
L 273.872397 151.534369 
L 277.151736 154.934351 
L 280.431074 158.361823 
L 283.710413 161.816049 
L 286.989752 165.29632 
L 290.269091 168.80196 
L 293.54843 172.332319 
L 296.827769 175.886772 
L 300.107107 179.46472 
L 303.386446 183.065588 
L 306.665785 186.688821 
L 309.945124 190.333886 
L 313.224463 194.000271 
L 316.503802 197.687481 
L 319.78314 201.39504 
L 323.062479 205.122489 
L 326.341818 208.869385 
L 329.621157 212.635301 
L 332.900496 216.419823 
L 336.179835 220.222554 
L 339.459174 224.043109 
L 342.738512 227.881113 
L 346.017851 231.736208 
L 349.29719 235.608045 
L 352.576529 239.496285 
L 355.855868 243.400604 
L 359.135207 247.320683 
L 362.414545 251.256217 
L 365.693884 255.206907 
L 368.973223 259.172466 
L 372.252562 263.152614 
L 375.531901 267.147079 
L 378.81124 271.155598 
L 382.090579 275.177914 
L 385.369917 279.213779 
L 388.649256 283.262952 
L 391.928595 287.325198 
L 395.207934 291.400288 
L 398.487273 295.488 
" clip-path="url(#pfb31334418)" style="fill: none; stroke: #ff0000; stroke-width: 1.5; stroke-linecap: square"/>
   </g>
   <g id="line2d_14">
    <path d="M 113.797342 307.584 
L 113.797342 41.472 
" clip-path="url(#pfb31334418)" style="fill: none; stroke-dasharray: 5.55,2.4; stroke-dashoffset: 0; stroke: #ff0000; stroke-width: 1.5"/>
   </g>
   <g id="line2d_15">
    <path d="M 73.832727 295.488 
L 75.143619 189.134173 
L 76.454511 167.966338 
L 77.765403 154.764685 
L 79.076295 145.320935 
L 80.387187 138.136019 
L 81.698078 132.483052 
L 83.00897 127.948365 
L 84.319862 124.271689 
L 85.630754 121.277512 
L 86.941646 118.841279 
L 88.252538 116.871073 
L 89.563429 115.296918 
L 90.874321 114.064186 
L 92.185213 113.129322 
L 93.496105 112.456985 
L 94.806997 112.018062 
L 96.117889 111.788256 
L 97.428781 111.747055 
L 98.739672 111.876972 
L 100.050564 112.162959 
L 101.361456 112.59197 
L 102.672348 113.152609 
L 103.98324 113.834857 
L 105.294132 114.629856 
L 106.605024 115.52973 
L 107.915915 116.527443 
L 109.226807 117.616679 
L 110.537699 118.791748 
L 111.848591 120.047501 
L 113.159483 121.379262 
L 114.470375 122.782774 
L 115.781266 124.254143 
L 117.092158 125.789804 
L 118.40305 127.386477 
L 119.713942 129.041143 
L 121.024834 130.751011 
L 122.335726 132.513501 
L 123.646618 134.326216 
L 124.957509 136.186929 
L 126.268401 138.093566 
L 127.579293 140.044192 
L 128.890185 142.036999 
L 130.201077 144.070292 
L 131.511969 146.142484 
L 132.82286 148.252083 
L 134.133752 150.397688 
L 135.444644 152.577977 
L 136.755536 154.791705 
L 138.066428 157.037696 
L 139.37732 159.314838 
L 140.688212 161.62208 
L 141.999103 163.958425 
L 143.309995 166.322927 
L 144.620887 168.71469 
L 145.931779 171.132861 
L 147.242671 173.576628 
L 148.553563 176.04522 
L 149.864455 178.537899 
L 151.175346 181.053966 
L 152.486238 183.592749 
L 153.79713 186.153608 
L 155.108022 188.735932 
L 156.418914 191.339136 
L 157.729806 193.962659 
L 159.040697 196.605964 
L 160.351589 199.268537 
L 161.662481 201.949883 
L 162.973373 204.64953 
L 164.284265 207.367022 
L 165.595157 210.101921 
L 166.906049 212.853807 
L 168.21694 215.622275 
L 169.527832 218.406935 
L 170.838724 221.207412 
L 172.149616 224.023345 
L 173.460508 226.854384 
L 174.7714 229.700194 
L 176.082292 232.560449 
L 177.393183 235.434836 
L 178.704075 238.323053 
L 180.014967 241.224806 
L 181.325859 244.139814 
L 182.636751 247.067801 
L 183.947643 250.008504 
L 185.258534 252.961667 
L 186.569426 255.92704 
L 187.880318 258.904384 
L 189.19121 261.893466 
L 190.502102 264.89406 
L 191.812994 267.905946 
L 193.123886 270.928913 
L 194.434777 273.962754 
L 195.745669 277.007268 
L 197.056561 280.062263 
L 198.367453 283.127547 
L 199.678345 286.202939 
L 200.989237 289.28826 
L 202.300129 292.383337 
L 203.61102 295.488 
" clip-path="url(#pfb31334418)" style="fill: none; stroke: #0000ff; stroke-width: 1.5; stroke-linecap: square"/>
   </g>
   <g id="line2d_16">
    <path d="M 85.380722 307.584 
L 85.380722 41.472 
" clip-path="url(#pfb31334418)" style="fill: none; stroke-dasharray: 5.55,2.4; stroke-dashoffset: 0; stroke: #0000ff; stroke-width: 1.5"/>
   </g>
   <g id="patch_3">
    <path d="M 57.6 307.584 
L 57.6 41.472 
" style="fill: none; stroke: #000000; stroke-width: 0.8; stroke-linejoin: miter; stroke-linecap: square"/>
   </g>
   <g id="patch_4">
    <path d="M 414.72 307.584 
L 414.72 41.472 
" style="fill: none; stroke: #000000; stroke-width: 0.8; stroke-linejoin: miter; stroke-linecap: square"/>
   </g>
   <g id="patch_5">
    <path d="M 57.6 307.584 
L 414.72 307.584 
" style="fill: none; stroke: #000000; stroke-width: 0.8; stroke-linejoin: miter; stroke-linecap: square"/>
   </g>
   <g id="patch_6">
    <path d="M 57.6 41.472 
L 414.72 41.472 
" style="fill: none; stroke: #000000; stroke-width: 0.8; stroke-linejoin: miter; stroke-linecap: square"/>
   </g>
   <g id="patch_7">
    <path d="M 256.167308 89.213854 
Q 256.167308 107.937263 256.167308 126.660671 
L 258.642308 126.660671 
Q 257.392308 130.16173 256.142308 133.662789 
Q 254.892308 130.16173 253.642308 126.660671 
L 256.117308 126.660671 
Q 256.117308 107.937263 256.117308 89.213854 
L 256.167308 89.213854 
z
" style="stroke: #000000; stroke-linecap: round"/>
   </g>
   <g id="text_15">
    <!-- $\dot{k}=0$, $\phi$ low -->
    <g transform="translate(256.142308 85.115226) scale(0.1 -0.1)">
     <defs>
      <path id="DejaVuSans-307" d="M -1894 4863 
L -1319 4863 
L -1319 4134 
L -1894 4134 
L -1894 4863 
z
M -1600 3584 
L -1600 3584 
z
" transform="scale(0.015625)"/>
      <path id="DejaVuSans-Oblique-6b" d="M 1172 4863 
L 1747 4863 
L 1197 2028 
L 3169 3500 
L 3916 3500 
L 1716 1825 
L 3322 0 
L 2625 0 
L 1131 1709 
L 800 0 
L 225 0 
L 1172 4863 
z
" transform="scale(0.015625)"/>
      <path id="DejaVuSans-3d" d="M 678 2906 
L 4684 2906 
L 4684 2381 
L 678 2381 
L 678 2906 
z
M 678 1631 
L 4684 1631 
L 4684 1100 
L 678 1100 
L 678 1631 
z
" transform="scale(0.015625)"/>
      <path id="DejaVuSans-2c" d="M 750 794 
L 1409 794 
L 1409 256 
L 897 -744 
L 494 -744 
L 750 256 
L 750 794 
z
" transform="scale(0.015625)"/>
      <path id="DejaVuSans-20" transform="scale(0.015625)"/>
      <path id="DejaVuSans-Oblique-3d5" d="M 2991 4863 
L 2738 3572 
Q 3363 3572 3684 3094 
Q 4016 2606 3850 1747 
Q 3681 888 3159 400 
Q 2653 -78 2028 -78 
L 1784 -1331 
L 1213 -1331 
L 1456 -78 
Q 834 -78 509 400 
Q 178 888 347 1747 
Q 513 2606 1034 3094 
Q 1544 3572 2166 3572 
L 2419 4863 
L 2991 4863 
z
M 2128 434 
Q 2481 434 2784 756 
Q 3116 1116 3244 1747 
Q 3369 2372 3169 2738 
Q 2991 3059 2638 3059 
L 2128 434 
z
M 1556 434 
L 2066 3059 
Q 1716 3059 1413 2738 
Q 1072 2372 953 1747 
Q 834 1116 1028 756 
Q 1203 434 1556 434 
z
" transform="scale(0.015625)"/>
      <path id="DejaVuSans-6c" d="M 603 4863 
L 1178 4863 
L 1178 0 
L 603 0 
L 603 4863 
z
" transform="scale(0.015625)"/>
      <path id="DejaVuSans-6f" d="M 1959 3097 
Q 1497 3097 1228 2736 
Q 959 2375 959 1747 
Q 959 1119 1226 758 
Q 1494 397 1959 397 
Q 2419 397 2687 759 
Q 2956 1122 2956 1747 
Q 2956 2369 2687 2733 
Q 2419 3097 1959 3097 
z
M 1959 3584 
Q 2709 3584 3137 3096 
Q 3566 2609 3566 1747 
Q 3566 888 3137 398 
Q 2709 -91 1959 -91 
Q 1206 -91 779 398 
Q 353 888 353 1747 
Q 353 2609 779 3096 
Q 1206 3584 1959 3584 
z
" transform="scale(0.015625)"/>
      <path id="DejaVuSans-77" d="M 269 3500 
L 844 3500 
L 1563 769 
L 2278 3500 
L 2956 3500 
L 3675 769 
L 4391 3500 
L 4966 3500 
L 4050 0 
L 3372 0 
L 2619 2869 
L 1863 0 
L 1184 0 
L 269 3500 
z
" transform="scale(0.015625)"/>
     </defs>
     <use xlink:href="#DejaVuSans-307" transform="translate(61.071289 33.015625)"/>
     <use xlink:href="#DejaVuSans-Oblique-6b" transform="translate(0 0.53125)"/>
     <use xlink:href="#DejaVuSans-3d" transform="translate(77.392578 0.53125)"/>
     <use xlink:href="#DejaVuSans-30" transform="translate(180.664062 0.53125)"/>
     <use xlink:href="#DejaVuSans-2c" transform="translate(244.287109 0.53125)"/>
     <use xlink:href="#DejaVuSans-20" transform="translate(276.074219 0.53125)"/>
     <use xlink:href="#DejaVuSans-Oblique-3d5" transform="translate(307.861328 0.53125)"/>
     <use xlink:href="#DejaVuSans-20" transform="translate(373.828125 0.53125)"/>
     <use xlink:href="#DejaVuSans-6c" transform="translate(405.615234 0.53125)"/>
     <use xlink:href="#DejaVuSans-6f" transform="translate(433.398438 0.53125)"/>
     <use xlink:href="#DejaVuSans-77" transform="translate(494.580078 0.53125)"/>
    </g>
   </g>
   <g id="patch_8">
    <path d="M 135.998562 218.245512 
Q 128.383767 217.584823 120.768973 216.924133 
L 120.555036 219.38987 
Q 117.176189 217.842012 113.797342 216.294153 
Q 117.392287 215.351369 120.987231 214.408584 
L 120.773294 216.87432 
Q 128.388089 217.53501 136.002884 218.1957 
L 135.998562 218.245512 
z
" style="stroke: #000000; stroke-linecap: round"/>
   </g>
   <g id="text_16">
    <!-- $\dot{c} = 0$, $\phi$ low -->
    <g transform="translate(138.000947 216.294153) scale(0.1 -0.1)">
     <defs>
      <path id="DejaVuSans-Oblique-63" d="M 3431 3366 
L 3316 2797 
Q 3109 2947 2876 3022 
Q 2644 3097 2394 3097 
Q 2119 3097 1870 3000 
Q 1622 2903 1453 2725 
Q 1184 2453 1037 2087 
Q 891 1722 891 1331 
Q 891 859 1127 628 
Q 1363 397 1844 397 
Q 2081 397 2348 469 
Q 2616 541 2906 684 
L 2797 116 
Q 2547 13 2283 -39 
Q 2019 -91 1741 -91 
Q 1044 -91 669 257 
Q 294 606 294 1253 
Q 294 1797 489 2255 
Q 684 2713 1069 3078 
Q 1331 3328 1684 3456 
Q 2038 3584 2456 3584 
Q 2700 3584 2940 3529 
Q 3181 3475 3431 3366 
z
" transform="scale(0.015625)"/>
     </defs>
     <use xlink:href="#DejaVuSans-307" transform="translate(59.338867 13.015625)"/>
     <use xlink:href="#DejaVuSans-Oblique-63" transform="translate(0 0.515625)"/>
     <use xlink:href="#DejaVuSans-3d" transform="translate(74.462891 0.515625)"/>
     <use xlink:href="#DejaVuSans-30" transform="translate(177.734375 0.515625)"/>
     <use xlink:href="#DejaVuSans-2c" transform="translate(241.357422 0.515625)"/>
     <use xlink:href="#DejaVuSans-20" transform="translate(273.144531 0.515625)"/>
     <use xlink:href="#DejaVuSans-Oblique-3d5" transform="translate(304.931641 0.515625)"/>
     <use xlink:href="#DejaVuSans-20" transform="translate(370.898438 0.515625)"/>
     <use xlink:href="#DejaVuSans-6c" transform="translate(402.685547 0.515625)"/>
     <use xlink:href="#DejaVuSans-6f" transform="translate(430.46875 0.515625)"/>
     <use xlink:href="#DejaVuSans-77" transform="translate(491.650391 0.515625)"/>
    </g>
   </g>
   <g id="patch_9">
    <path d="M 144.520871 134.484229 
Q 144.520871 147.983857 144.520871 161.483484 
L 146.995871 161.483484 
Q 145.745871 164.984463 144.495871 168.485442 
Q 143.245871 164.984463 141.995871 161.483484 
L 144.470871 161.483484 
Q 144.470871 147.983857 144.470871 134.484229 
L 144.520871 134.484229 
z
" style="stroke: #000000; stroke-linecap: round"/>
   </g>
   <g id="text_17">
    <!-- $\dot{k}=0$, $\phi$ high -->
    <g transform="translate(144.495871 130.384675) scale(0.1 -0.1)">
     <defs>
      <path id="DejaVuSans-68" d="M 3513 2113 
L 3513 0 
L 2938 0 
L 2938 2094 
Q 2938 2591 2744 2837 
Q 2550 3084 2163 3084 
Q 1697 3084 1428 2787 
Q 1159 2491 1159 1978 
L 1159 0 
L 581 0 
L 581 4863 
L 1159 4863 
L 1159 2956 
Q 1366 3272 1645 3428 
Q 1925 3584 2291 3584 
Q 2894 3584 3203 3211 
Q 3513 2838 3513 2113 
z
" transform="scale(0.015625)"/>
      <path id="DejaVuSans-69" d="M 603 3500 
L 1178 3500 
L 1178 0 
L 603 0 
L 603 3500 
z
M 603 4863 
L 1178 4863 
L 1178 4134 
L 603 4134 
L 603 4863 
z
" transform="scale(0.015625)"/>
      <path id="DejaVuSans-67" d="M 2906 1791 
Q 2906 2416 2648 2759 
Q 2391 3103 1925 3103 
Q 1463 3103 1205 2759 
Q 947 2416 947 1791 
Q 947 1169 1205 825 
Q 1463 481 1925 481 
Q 2391 481 2648 825 
Q 2906 1169 2906 1791 
z
M 3481 434 
Q 3481 -459 3084 -895 
Q 2688 -1331 1869 -1331 
Q 1566 -1331 1297 -1286 
Q 1028 -1241 775 -1147 
L 775 -588 
Q 1028 -725 1275 -790 
Q 1522 -856 1778 -856 
Q 2344 -856 2625 -561 
Q 2906 -266 2906 331 
L 2906 616 
Q 2728 306 2450 153 
Q 2172 0 1784 0 
Q 1141 0 747 490 
Q 353 981 353 1791 
Q 353 2603 747 3093 
Q 1141 3584 1784 3584 
Q 2172 3584 2450 3431 
Q 2728 3278 2906 2969 
L 2906 3500 
L 3481 3500 
L 3481 434 
z
" transform="scale(0.015625)"/>
     </defs>
     <use xlink:href="#DejaVuSans-307" transform="translate(61.071289 33.015625)"/>
     <use xlink:href="#DejaVuSans-Oblique-6b" transform="translate(0 0.53125)"/>
     <use xlink:href="#DejaVuSans-3d" transform="translate(77.392578 0.53125)"/>
     <use xlink:href="#DejaVuSans-30" transform="translate(180.664062 0.53125)"/>
     <use xlink:href="#DejaVuSans-2c" transform="translate(244.287109 0.53125)"/>
     <use xlink:href="#DejaVuSans-20" transform="translate(276.074219 0.53125)"/>
     <use xlink:href="#DejaVuSans-Oblique-3d5" transform="translate(307.861328 0.53125)"/>
     <use xlink:href="#DejaVuSans-20" transform="translate(373.828125 0.53125)"/>
     <use xlink:href="#DejaVuSans-68" transform="translate(405.615234 0.53125)"/>
     <use xlink:href="#DejaVuSans-69" transform="translate(468.994141 0.53125)"/>
     <use xlink:href="#DejaVuSans-67" transform="translate(496.777344 0.53125)"/>
     <use xlink:href="#DejaVuSans-68" transform="translate(560.253906 0.53125)"/>
    </g>
   </g>
   <g id="patch_10">
    <path d="M 107.581941 239.544114 
Q 99.967147 238.883424 92.352352 238.222734 
L 92.138415 240.688471 
Q 88.759569 239.140613 85.380722 237.592754 
Q 88.975667 236.64997 92.570611 235.707185 
L 92.356674 238.172922 
Q 99.971469 238.833611 107.586263 239.494301 
L 107.581941 239.544114 
z
" style="stroke: #000000; stroke-linecap: round"/>
   </g>
   <g id="text_18">
    <!-- $\dot{c} = 0$, $\phi$ high -->
    <g transform="translate(109.584327 237.592754) scale(0.1 -0.1)">
     <use xlink:href="#DejaVuSans-307" transform="translate(59.338867 13.015625)"/>
     <use xlink:href="#DejaVuSans-Oblique-63" transform="translate(0 0.515625)"/>
     <use xlink:href="#DejaVuSans-3d" transform="translate(74.462891 0.515625)"/>
     <use xlink:href="#DejaVuSans-30" transform="translate(177.734375 0.515625)"/>
     <use xlink:href="#DejaVuSans-2c" transform="translate(241.357422 0.515625)"/>
     <use xlink:href="#DejaVuSans-20" transform="translate(273.144531 0.515625)"/>
     <use xlink:href="#DejaVuSans-Oblique-3d5" transform="translate(304.931641 0.515625)"/>
     <use xlink:href="#DejaVuSans-20" transform="translate(370.898438 0.515625)"/>
     <use xlink:href="#DejaVuSans-68" transform="translate(402.685547 0.515625)"/>
     <use xlink:href="#DejaVuSans-69" transform="translate(466.064453 0.515625)"/>
     <use xlink:href="#DejaVuSans-67" transform="translate(493.847656 0.515625)"/>
     <use xlink:href="#DejaVuSans-68" transform="translate(557.324219 0.515625)"/>
    </g>
   </g>
   <g id="text_19">
    <!-- $\dot{c}/c = 0$ and $\dot{k} = 0$ Loci -->
    <g transform="translate(172.68 35.472) scale(0.12 -0.12)">
     <defs>
      <path id="DejaVuSans-2f" d="M 1625 4666 
L 2156 4666 
L 531 -594 
L 0 -594 
L 1625 4666 
z
" transform="scale(0.015625)"/>
      <path id="DejaVuSans-61" d="M 2194 1759 
Q 1497 1759 1228 1600 
Q 959 1441 959 1056 
Q 959 750 1161 570 
Q 1363 391 1709 391 
Q 2188 391 2477 730 
Q 2766 1069 2766 1631 
L 2766 1759 
L 2194 1759 
z
M 3341 1997 
L 3341 0 
L 2766 0 
L 2766 531 
Q 2569 213 2275 61 
Q 1981 -91 1556 -91 
Q 1019 -91 701 211 
Q 384 513 384 1019 
Q 384 1609 779 1909 
Q 1175 2209 1959 2209 
L 2766 2209 
L 2766 2266 
Q 2766 2663 2505 2880 
Q 2244 3097 1772 3097 
Q 1472 3097 1187 3025 
Q 903 2953 641 2809 
L 641 3341 
Q 956 3463 1253 3523 
Q 1550 3584 1831 3584 
Q 2591 3584 2966 3190 
Q 3341 2797 3341 1997 
z
" transform="scale(0.015625)"/>
      <path id="DejaVuSans-6e" d="M 3513 2113 
L 3513 0 
L 2938 0 
L 2938 2094 
Q 2938 2591 2744 2837 
Q 2550 3084 2163 3084 
Q 1697 3084 1428 2787 
Q 1159 2491 1159 1978 
L 1159 0 
L 581 0 
L 581 3500 
L 1159 3500 
L 1159 2956 
Q 1366 3272 1645 3428 
Q 1925 3584 2291 3584 
Q 2894 3584 3203 3211 
Q 3513 2838 3513 2113 
z
" transform="scale(0.015625)"/>
      <path id="DejaVuSans-64" d="M 2906 2969 
L 2906 4863 
L 3481 4863 
L 3481 0 
L 2906 0 
L 2906 525 
Q 2725 213 2448 61 
Q 2172 -91 1784 -91 
Q 1150 -91 751 415 
Q 353 922 353 1747 
Q 353 2572 751 3078 
Q 1150 3584 1784 3584 
Q 2172 3584 2448 3432 
Q 2725 3281 2906 2969 
z
M 947 1747 
Q 947 1113 1208 752 
Q 1469 391 1925 391 
Q 2381 391 2643 752 
Q 2906 1113 2906 1747 
Q 2906 2381 2643 2742 
Q 2381 3103 1925 3103 
Q 1469 3103 1208 2742 
Q 947 2381 947 1747 
z
" transform="scale(0.015625)"/>
      <path id="DejaVuSans-4c" d="M 628 4666 
L 1259 4666 
L 1259 531 
L 3531 531 
L 3531 0 
L 628 0 
L 628 4666 
z
" transform="scale(0.015625)"/>
     </defs>
     <use xlink:href="#DejaVuSans-307" transform="translate(59.338867 13.03125)"/>
     <use xlink:href="#DejaVuSans-Oblique-63" transform="translate(0 0.53125)"/>
     <use xlink:href="#DejaVuSans-2f" transform="translate(54.980469 0.53125)"/>
     <use xlink:href="#DejaVuSans-Oblique-63" transform="translate(88.671875 0.53125)"/>
     <use xlink:href="#DejaVuSans-3d" transform="translate(163.134766 0.53125)"/>
     <use xlink:href="#DejaVuSans-30" transform="translate(266.40625 0.53125)"/>
     <use xlink:href="#DejaVuSans-20" transform="translate(330.029297 0.53125)"/>
     <use xlink:href="#DejaVuSans-61" transform="translate(361.816406 0.53125)"/>
     <use xlink:href="#DejaVuSans-6e" transform="translate(423.095703 0.53125)"/>
     <use xlink:href="#DejaVuSans-64" transform="translate(486.474609 0.53125)"/>
     <use xlink:href="#DejaVuSans-20" transform="translate(549.951172 0.53125)"/>
     <use xlink:href="#DejaVuSans-307" transform="translate(642.80957 33.015625)"/>
     <use xlink:href="#DejaVuSans-Oblique-6b" transform="translate(581.738281 0.53125)"/>
     <use xlink:href="#DejaVuSans-3d" transform="translate(659.130859 0.53125)"/>
     <use xlink:href="#DejaVuSans-30" transform="translate(762.402344 0.53125)"/>
     <use xlink:href="#DejaVuSans-20" transform="translate(826.025391 0.53125)"/>
     <use xlink:href="#DejaVuSans-4c" transform="translate(857.8125 0.53125)"/>
     <use xlink:href="#DejaVuSans-6f" transform="translate(913.525391 0.53125)"/>
     <use xlink:href="#DejaVuSans-63" transform="translate(974.707031 0.53125)"/>
     <use xlink:href="#DejaVuSans-69" transform="translate(1029.6875 0.53125)"/>
    </g>
   </g>
  </g>
 </g>
 <defs>
  <clipPath id="pfb31334418">
   <rect x="57.6" y="41.472" width="357.12" height="266.112"/>
  </clipPath>
 </defs>
</svg>
