<?xml version="1.0" encoding="utf-8" standalone="no"?>
<!DOCTYPE svg PUBLIC "-//W3C//DTD SVG 1.1//EN"
  "http://www.w3.org/Graphics/SVG/1.1/DTD/svg11.dtd">
<svg xmlns:xlink="http://www.w3.org/1999/xlink" width="576pt" height="576pt" viewBox="0 0 576 576" xmlns="http://www.w3.org/2000/svg" version="1.1">
 <metadata>
  <rdf:RDF xmlns:dc="http://purl.org/dc/elements/1.1/" xmlns:cc="http://creativecommons.org/ns#" xmlns:rdf="http://www.w3.org/1999/02/22-rdf-syntax-ns#">
   <cc:Work>
    <dc:type rdf:resource="http://purl.org/dc/dcmitype/StillImage"/>
    <dc:format>image/svg+xml</dc:format>
    <dc:creator>
     <cc:Agent>
      <dc:title>Matplotlib v3.10.6, https://matplotlib.org/</dc:title>
     </cc:Agent>
    </dc:creator>
   </cc:Work>
  </rdf:RDF>
 </metadata>
 <defs>
  <style type="text/css">*{stroke-linejoin: round; stroke-linecap: butt}</style>
 </defs>
 <g id="figure_1">
  <g id="patch_1">
   <path d="M 0 576 
L 576 576 
L 576 0 
L 0 0 
z
" style="fill: #ffffff"/>
  </g>
  <g id="axes_1">
   <g id="patch_2">
    <path d="M 72 512.64 
L 518.4 512.64 
L 518.4 69.12 
L 72 69.12 
z
" style="fill: #eaeaf2"/>
   </g>
   <g id="matplotlib.axis_1">
    <g id="xtick_1">
     <g id="line2d_1">
      <path d="M 72 512.64 
L 72 69.12 
" clip-path="url(#p8c234b68b3)" style="fill: none; stroke: #ffffff; stroke-width: 0.8; stroke-linecap: round"/>
     </g>
     <g id="line2d_2"/>
     <g id="text_1">
      <!-- 0 -->
      <g style="fill: #262626" transform="translate(69.219531 523.297812) scale(0.1 -0.1)">
       <defs>
        <path id="ArialMT-30" d="M 266 2259 
Q 266 3072 433 3567 
Q 600 4063 929 4331 
Q 1259 4600 1759 4600 
Q 2128 4600 2406 4451 
Q 2684 4303 2865 4023 
Q 3047 3744 3150 3342 
Q 3253 2941 3253 2259 
Q 3253 1453 3087 958 
Q 2922 463 2592 192 
Q 2263 -78 1759 -78 
Q 1097 -78 719 397 
Q 266 969 266 2259 
z
M 844 2259 
Q 844 1131 1108 757 
Q 1372 384 1759 384 
Q 2147 384 2411 759 
Q 2675 1134 2675 2259 
Q 2675 3391 2411 3762 
Q 2147 4134 1753 4134 
Q 1366 4134 1134 3806 
Q 844 3388 844 2259 
z
" transform="scale(0.015625)"/>
       </defs>
       <use xlink:href="#ArialMT-30"/>
      </g>
     </g>
    </g>
    <g id="xtick_2">
     <g id="line2d_3">
      <path d="M 146.4 512.64 
L 146.4 69.12 
" clip-path="url(#p8c234b68b3)" style="fill: none; stroke: #ffffff; stroke-width: 0.8; stroke-linecap: round"/>
     </g>
     <g id="line2d_4"/>
     <g id="text_2">
      <!-- 20 -->
      <g style="fill: #262626" transform="translate(140.839062 523.297812) scale(0.1 -0.1)">
       <defs>
        <path id="ArialMT-32" d="M 3222 541 
L 3222 0 
L 194 0 
Q 188 203 259 391 
Q 375 700 629 1000 
Q 884 1300 1366 1694 
Q 2113 2306 2375 2664 
Q 2638 3022 2638 3341 
Q 2638 3675 2398 3904 
Q 2159 4134 1775 4134 
Q 1369 4134 1125 3890 
Q 881 3647 878 3216 
L 300 3275 
Q 359 3922 746 4261 
Q 1134 4600 1788 4600 
Q 2447 4600 2831 4234 
Q 3216 3869 3216 3328 
Q 3216 3053 3103 2787 
Q 2991 2522 2730 2228 
Q 2469 1934 1863 1422 
Q 1356 997 1212 845 
Q 1069 694 975 541 
L 3222 541 
z
" transform="scale(0.015625)"/>
       </defs>
       <use xlink:href="#ArialMT-32"/>
       <use xlink:href="#ArialMT-30" transform="translate(55.615234 0)"/>
      </g>
     </g>
    </g>
    <g id="xtick_3">
     <g id="line2d_5">
      <path d="M 220.8 512.64 
L 220.8 69.12 
" clip-path="url(#p8c234b68b3)" style="fill: none; stroke: #ffffff; stroke-width: 0.8; stroke-linecap: round"/>
     </g>
     <g id="line2d_6"/>
     <g id="text_3">
      <!-- 40 -->
      <g style="fill: #262626" transform="translate(215.239062 523.297812) scale(0.1 -0.1)">
       <defs>
        <path id="ArialMT-34" d="M 2069 0 
L 2069 1097 
L 81 1097 
L 81 1613 
L 2172 4581 
L 2631 4581 
L 2631 1613 
L 3250 1613 
L 3250 1097 
L 2631 1097 
L 2631 0 
L 2069 0 
z
M 2069 1613 
L 2069 3678 
L 634 1613 
L 2069 1613 
z
" transform="scale(0.015625)"/>
       </defs>
       <use xlink:href="#ArialMT-34"/>
       <use xlink:href="#ArialMT-30" transform="translate(55.615234 0)"/>
      </g>
     </g>
    </g>
    <g id="xtick_4">
     <g id="line2d_7">
      <path d="M 295.2 512.64 
L 295.2 69.12 
" clip-path="url(#p8c234b68b3)" style="fill: none; stroke: #ffffff; stroke-width: 0.8; stroke-linecap: round"/>
     </g>
     <g id="line2d_8"/>
     <g id="text_4">
      <!-- 60 -->
      <g style="fill: #262626" transform="translate(289.639062 523.297812) scale(0.1 -0.1)">
       <defs>
        <path id="ArialMT-36" d="M 3184 3459 
L 2625 3416 
Q 2550 3747 2413 3897 
Q 2184 4138 1850 4138 
Q 1581 4138 1378 3988 
Q 1113 3794 959 3422 
Q 806 3050 800 2363 
Q 1003 2672 1297 2822 
Q 1591 2972 1913 2972 
Q 2475 2972 2870 2558 
Q 3266 2144 3266 1488 
Q 3266 1056 3080 686 
Q 2894 316 2569 119 
Q 2244 -78 1831 -78 
Q 1128 -78 684 439 
Q 241 956 241 2144 
Q 241 3472 731 4075 
Q 1159 4600 1884 4600 
Q 2425 4600 2770 4297 
Q 3116 3994 3184 3459 
z
M 888 1484 
Q 888 1194 1011 928 
Q 1134 663 1356 523 
Q 1578 384 1822 384 
Q 2178 384 2434 671 
Q 2691 959 2691 1453 
Q 2691 1928 2437 2201 
Q 2184 2475 1800 2475 
Q 1419 2475 1153 2201 
Q 888 1928 888 1484 
z
" transform="scale(0.015625)"/>
       </defs>
       <use xlink:href="#ArialMT-36"/>
       <use xlink:href="#ArialMT-30" transform="translate(55.615234 0)"/>
      </g>
     </g>
    </g>
    <g id="xtick_5">
     <g id="line2d_9">
      <path d="M 369.6 512.64 
L 369.6 69.12 
" clip-path="url(#p8c234b68b3)" style="fill: none; stroke: #ffffff; stroke-width: 0.8; stroke-linecap: round"/>
     </g>
     <g id="line2d_10"/>
     <g id="text_5">
      <!-- 80 -->
      <g style="fill: #262626" transform="translate(364.039062 523.297812) scale(0.1 -0.1)">
       <defs>
        <path id="ArialMT-38" d="M 1131 2484 
Q 781 2613 612 2850 
Q 444 3088 444 3419 
Q 444 3919 803 4259 
Q 1163 4600 1759 4600 
Q 2359 4600 2725 4251 
Q 3091 3903 3091 3403 
Q 3091 3084 2923 2848 
Q 2756 2613 2416 2484 
Q 2838 2347 3058 2040 
Q 3278 1734 3278 1309 
Q 3278 722 2862 322 
Q 2447 -78 1769 -78 
Q 1091 -78 675 323 
Q 259 725 259 1325 
Q 259 1772 486 2073 
Q 713 2375 1131 2484 
z
M 1019 3438 
Q 1019 3113 1228 2906 
Q 1438 2700 1772 2700 
Q 2097 2700 2305 2904 
Q 2513 3109 2513 3406 
Q 2513 3716 2298 3927 
Q 2084 4138 1766 4138 
Q 1444 4138 1231 3931 
Q 1019 3725 1019 3438 
z
M 838 1322 
Q 838 1081 952 856 
Q 1066 631 1291 507 
Q 1516 384 1775 384 
Q 2178 384 2440 643 
Q 2703 903 2703 1303 
Q 2703 1709 2433 1975 
Q 2163 2241 1756 2241 
Q 1359 2241 1098 1978 
Q 838 1716 838 1322 
z
" transform="scale(0.015625)"/>
       </defs>
       <use xlink:href="#ArialMT-38"/>
       <use xlink:href="#ArialMT-30" transform="translate(55.615234 0)"/>
      </g>
     </g>
    </g>
    <g id="xtick_6">
     <g id="line2d_11">
      <path d="M 444 512.64 
L 444 69.12 
" clip-path="url(#p8c234b68b3)" style="fill: none; stroke: #ffffff; stroke-width: 0.8; stroke-linecap: round"/>
     </g>
     <g id="line2d_12"/>
     <g id="text_6">
      <!-- 100 -->
      <g style="fill: #262626" transform="translate(435.658594 523.297812) scale(0.1 -0.1)">
       <defs>
        <path id="ArialMT-31" d="M 2384 0 
L 1822 0 
L 1822 3584 
Q 1619 3391 1289 3197 
Q 959 3003 697 2906 
L 697 3450 
Q 1169 3672 1522 3987 
Q 1875 4303 2022 4600 
L 2384 4600 
L 2384 0 
z
" transform="scale(0.015625)"/>
       </defs>
       <use xlink:href="#ArialMT-31"/>
       <use xlink:href="#ArialMT-30" transform="translate(55.615234 0)"/>
       <use xlink:href="#ArialMT-30" transform="translate(111.230469 0)"/>
      </g>
     </g>
    </g>
    <g id="xtick_7">
     <g id="line2d_13">
      <path d="M 518.4 512.64 
L 518.4 69.12 
" clip-path="url(#p8c234b68b3)" style="fill: none; stroke: #ffffff; stroke-width: 0.8; stroke-linecap: round"/>
     </g>
     <g id="line2d_14"/>
     <g id="text_7">
      <!-- 120 -->
      <g style="fill: #262626" transform="translate(510.058594 523.297812) scale(0.1 -0.1)">
       <use xlink:href="#ArialMT-31"/>
       <use xlink:href="#ArialMT-32" transform="translate(55.615234 0)"/>
       <use xlink:href="#ArialMT-30" transform="translate(111.230469 0)"/>
      </g>
     </g>
    </g>
    <g id="text_8">
     <!-- Period 1 Consumption $C_1$ -->
     <g style="fill: #262626" transform="translate(238.45 536.785313) scale(0.1 -0.1)">
      <defs>
       <path id="ArialMT-50" d="M 494 0 
L 494 4581 
L 2222 4581 
Q 2678 4581 2919 4538 
Q 3256 4481 3484 4323 
Q 3713 4166 3852 3881 
Q 3991 3597 3991 3256 
Q 3991 2672 3619 2267 
Q 3247 1863 2275 1863 
L 1100 1863 
L 1100 0 
L 494 0 
z
M 1100 2403 
L 2284 2403 
Q 2872 2403 3119 2622 
Q 3366 2841 3366 3238 
Q 3366 3525 3220 3729 
Q 3075 3934 2838 4000 
Q 2684 4041 2272 4041 
L 1100 4041 
L 1100 2403 
z
" transform="scale(0.015625)"/>
       <path id="ArialMT-65" d="M 2694 1069 
L 3275 997 
Q 3138 488 2766 206 
Q 2394 -75 1816 -75 
Q 1088 -75 661 373 
Q 234 822 234 1631 
Q 234 2469 665 2931 
Q 1097 3394 1784 3394 
Q 2450 3394 2872 2941 
Q 3294 2488 3294 1666 
Q 3294 1616 3291 1516 
L 816 1516 
Q 847 969 1125 678 
Q 1403 388 1819 388 
Q 2128 388 2347 550 
Q 2566 713 2694 1069 
z
M 847 1978 
L 2700 1978 
Q 2663 2397 2488 2606 
Q 2219 2931 1791 2931 
Q 1403 2931 1139 2672 
Q 875 2413 847 1978 
z
" transform="scale(0.015625)"/>
       <path id="ArialMT-72" d="M 416 0 
L 416 3319 
L 922 3319 
L 922 2816 
Q 1116 3169 1280 3281 
Q 1444 3394 1641 3394 
Q 1925 3394 2219 3213 
L 2025 2691 
Q 1819 2813 1613 2813 
Q 1428 2813 1281 2702 
Q 1134 2591 1072 2394 
Q 978 2094 978 1738 
L 978 0 
L 416 0 
z
" transform="scale(0.015625)"/>
       <path id="ArialMT-69" d="M 425 3934 
L 425 4581 
L 988 4581 
L 988 3934 
L 425 3934 
z
M 425 0 
L 425 3319 
L 988 3319 
L 988 0 
L 425 0 
z
" transform="scale(0.015625)"/>
       <path id="ArialMT-6f" d="M 213 1659 
Q 213 2581 725 3025 
Q 1153 3394 1769 3394 
Q 2453 3394 2887 2945 
Q 3322 2497 3322 1706 
Q 3322 1066 3130 698 
Q 2938 331 2570 128 
Q 2203 -75 1769 -75 
Q 1072 -75 642 372 
Q 213 819 213 1659 
z
M 791 1659 
Q 791 1022 1069 705 
Q 1347 388 1769 388 
Q 2188 388 2466 706 
Q 2744 1025 2744 1678 
Q 2744 2294 2464 2611 
Q 2184 2928 1769 2928 
Q 1347 2928 1069 2612 
Q 791 2297 791 1659 
z
" transform="scale(0.015625)"/>
       <path id="ArialMT-64" d="M 2575 0 
L 2575 419 
Q 2259 -75 1647 -75 
Q 1250 -75 917 144 
Q 584 363 401 755 
Q 219 1147 219 1656 
Q 219 2153 384 2558 
Q 550 2963 881 3178 
Q 1213 3394 1622 3394 
Q 1922 3394 2156 3267 
Q 2391 3141 2538 2938 
L 2538 4581 
L 3097 4581 
L 3097 0 
L 2575 0 
z
M 797 1656 
Q 797 1019 1065 703 
Q 1334 388 1700 388 
Q 2069 388 2326 689 
Q 2584 991 2584 1609 
Q 2584 2291 2321 2609 
Q 2059 2928 1675 2928 
Q 1300 2928 1048 2622 
Q 797 2316 797 1656 
z
" transform="scale(0.015625)"/>
       <path id="ArialMT-20" transform="scale(0.015625)"/>
       <path id="ArialMT-43" d="M 3763 1606 
L 4369 1453 
Q 4178 706 3683 314 
Q 3188 -78 2472 -78 
Q 1731 -78 1267 223 
Q 803 525 561 1097 
Q 319 1669 319 2325 
Q 319 3041 592 3573 
Q 866 4106 1370 4382 
Q 1875 4659 2481 4659 
Q 3169 4659 3637 4309 
Q 4106 3959 4291 3325 
L 3694 3184 
Q 3534 3684 3231 3912 
Q 2928 4141 2469 4141 
Q 1941 4141 1586 3887 
Q 1231 3634 1087 3207 
Q 944 2781 944 2328 
Q 944 1744 1114 1308 
Q 1284 872 1643 656 
Q 2003 441 2422 441 
Q 2931 441 3284 734 
Q 3638 1028 3763 1606 
z
" transform="scale(0.015625)"/>
       <path id="ArialMT-6e" d="M 422 0 
L 422 3319 
L 928 3319 
L 928 2847 
Q 1294 3394 1984 3394 
Q 2284 3394 2536 3286 
Q 2788 3178 2913 3003 
Q 3038 2828 3088 2588 
Q 3119 2431 3119 2041 
L 3119 0 
L 2556 0 
L 2556 2019 
Q 2556 2363 2490 2533 
Q 2425 2703 2258 2804 
Q 2091 2906 1866 2906 
Q 1506 2906 1245 2678 
Q 984 2450 984 1813 
L 984 0 
L 422 0 
z
" transform="scale(0.015625)"/>
       <path id="ArialMT-73" d="M 197 991 
L 753 1078 
Q 800 744 1014 566 
Q 1228 388 1613 388 
Q 2000 388 2187 545 
Q 2375 703 2375 916 
Q 2375 1106 2209 1216 
Q 2094 1291 1634 1406 
Q 1016 1563 777 1677 
Q 538 1791 414 1992 
Q 291 2194 291 2438 
Q 291 2659 392 2848 
Q 494 3038 669 3163 
Q 800 3259 1026 3326 
Q 1253 3394 1513 3394 
Q 1903 3394 2198 3281 
Q 2494 3169 2634 2976 
Q 2775 2784 2828 2463 
L 2278 2388 
Q 2241 2644 2061 2787 
Q 1881 2931 1553 2931 
Q 1166 2931 1000 2803 
Q 834 2675 834 2503 
Q 834 2394 903 2306 
Q 972 2216 1119 2156 
Q 1203 2125 1616 2013 
Q 2213 1853 2448 1751 
Q 2684 1650 2818 1456 
Q 2953 1263 2953 975 
Q 2953 694 2789 445 
Q 2625 197 2315 61 
Q 2006 -75 1616 -75 
Q 969 -75 630 194 
Q 291 463 197 991 
z
" transform="scale(0.015625)"/>
       <path id="ArialMT-75" d="M 2597 0 
L 2597 488 
Q 2209 -75 1544 -75 
Q 1250 -75 995 37 
Q 741 150 617 320 
Q 494 491 444 738 
Q 409 903 409 1263 
L 409 3319 
L 972 3319 
L 972 1478 
Q 972 1038 1006 884 
Q 1059 663 1231 536 
Q 1403 409 1656 409 
Q 1909 409 2131 539 
Q 2353 669 2445 892 
Q 2538 1116 2538 1541 
L 2538 3319 
L 3100 3319 
L 3100 0 
L 2597 0 
z
" transform="scale(0.015625)"/>
       <path id="ArialMT-6d" d="M 422 0 
L 422 3319 
L 925 3319 
L 925 2853 
Q 1081 3097 1340 3245 
Q 1600 3394 1931 3394 
Q 2300 3394 2536 3241 
Q 2772 3088 2869 2813 
Q 3263 3394 3894 3394 
Q 4388 3394 4653 3120 
Q 4919 2847 4919 2278 
L 4919 0 
L 4359 0 
L 4359 2091 
Q 4359 2428 4304 2576 
Q 4250 2725 4106 2815 
Q 3963 2906 3769 2906 
Q 3419 2906 3187 2673 
Q 2956 2441 2956 1928 
L 2956 0 
L 2394 0 
L 2394 2156 
Q 2394 2531 2256 2718 
Q 2119 2906 1806 2906 
Q 1569 2906 1367 2781 
Q 1166 2656 1075 2415 
Q 984 2175 984 1722 
L 984 0 
L 422 0 
z
" transform="scale(0.015625)"/>
       <path id="ArialMT-70" d="M 422 -1272 
L 422 3319 
L 934 3319 
L 934 2888 
Q 1116 3141 1344 3267 
Q 1572 3394 1897 3394 
Q 2322 3394 2647 3175 
Q 2972 2956 3137 2557 
Q 3303 2159 3303 1684 
Q 3303 1175 3120 767 
Q 2938 359 2589 142 
Q 2241 -75 1856 -75 
Q 1575 -75 1351 44 
Q 1128 163 984 344 
L 984 -1272 
L 422 -1272 
z
M 931 1641 
Q 931 1000 1190 694 
Q 1450 388 1819 388 
Q 2194 388 2461 705 
Q 2728 1022 2728 1688 
Q 2728 2322 2467 2637 
Q 2206 2953 1844 2953 
Q 1484 2953 1207 2617 
Q 931 2281 931 1641 
z
" transform="scale(0.015625)"/>
       <path id="ArialMT-74" d="M 1650 503 
L 1731 6 
Q 1494 -44 1306 -44 
Q 1000 -44 831 53 
Q 663 150 594 308 
Q 525 466 525 972 
L 525 2881 
L 113 2881 
L 113 3319 
L 525 3319 
L 525 4141 
L 1084 4478 
L 1084 3319 
L 1650 3319 
L 1650 2881 
L 1084 2881 
L 1084 941 
Q 1084 700 1114 631 
Q 1144 563 1211 522 
Q 1278 481 1403 481 
Q 1497 481 1650 503 
z
" transform="scale(0.015625)"/>
       <path id="DejaVuSans-Oblique-43" d="M 4447 4306 
L 4319 3641 
Q 4019 3944 3683 4091 
Q 3347 4238 2956 4238 
Q 2422 4238 2017 3981 
Q 1613 3725 1319 3200 
Q 1131 2863 1032 2486 
Q 934 2109 934 1728 
Q 934 1091 1264 756 
Q 1594 422 2222 422 
Q 2656 422 3056 561 
Q 3456 700 3834 978 
L 3688 231 
Q 3316 72 2936 -9 
Q 2556 -91 2175 -91 
Q 1278 -91 773 396 
Q 269 884 269 1753 
Q 269 2309 461 2846 
Q 653 3384 1013 3828 
Q 1394 4300 1883 4525 
Q 2372 4750 3022 4750 
Q 3422 4750 3780 4639 
Q 4138 4528 4447 4306 
z
" transform="scale(0.015625)"/>
       <path id="DejaVuSans-31" d="M 794 531 
L 1825 531 
L 1825 4091 
L 703 3866 
L 703 4441 
L 1819 4666 
L 2450 4666 
L 2450 531 
L 3481 531 
L 3481 0 
L 794 0 
L 794 531 
z
" transform="scale(0.015625)"/>
      </defs>
      <use xlink:href="#ArialMT-50" transform="translate(0 0.78125)"/>
      <use xlink:href="#ArialMT-65" transform="translate(66.699219 0.78125)"/>
      <use xlink:href="#ArialMT-72" transform="translate(122.314453 0.78125)"/>
      <use xlink:href="#ArialMT-69" transform="translate(155.615234 0.78125)"/>
      <use xlink:href="#ArialMT-6f" transform="translate(177.832031 0.78125)"/>
      <use xlink:href="#ArialMT-64" transform="translate(233.447266 0.78125)"/>
      <use xlink:href="#ArialMT-20" transform="translate(289.0625 0.78125)"/>
      <use xlink:href="#ArialMT-31" transform="translate(316.845703 0.78125)"/>
      <use xlink:href="#ArialMT-20" transform="translate(372.460938 0.78125)"/>
      <use xlink:href="#ArialMT-43" transform="translate(400.244141 0.78125)"/>
      <use xlink:href="#ArialMT-6f" transform="translate(472.460938 0.78125)"/>
      <use xlink:href="#ArialMT-6e" transform="translate(528.076172 0.78125)"/>
      <use xlink:href="#ArialMT-73" transform="translate(583.691406 0.78125)"/>
      <use xlink:href="#ArialMT-75" transform="translate(633.691406 0.78125)"/>
      <use xlink:href="#ArialMT-6d" transform="translate(689.306641 0.78125)"/>
      <use xlink:href="#ArialMT-70" transform="translate(772.607422 0.78125)"/>
      <use xlink:href="#ArialMT-74" transform="translate(828.222656 0.78125)"/>
      <use xlink:href="#ArialMT-69" transform="translate(856.005859 0.78125)"/>
      <use xlink:href="#ArialMT-6f" transform="translate(878.222656 0.78125)"/>
      <use xlink:href="#ArialMT-6e" transform="translate(933.837891 0.78125)"/>
      <use xlink:href="#ArialMT-20" transform="translate(989.453125 0.78125)"/>
      <use xlink:href="#DejaVuSans-Oblique-43" transform="translate(1017.236328 0.78125)"/>
      <use xlink:href="#DejaVuSans-31" transform="translate(1087.060547 -15.625) scale(0.7)"/>
     </g>
    </g>
   </g>
   <g id="matplotlib.axis_2">
    <g id="ytick_1">
     <g id="line2d_15">
      <path d="M 72 512.64 
L 518.4 512.64 
" clip-path="url(#p8c234b68b3)" style="fill: none; stroke: #ffffff; stroke-width: 0.8; stroke-linecap: round"/>
     </g>
     <g id="line2d_16"/>
     <g id="text_9">
      <!-- 0 -->
      <g style="fill: #262626" transform="translate(62.939062 516.218906) scale(0.1 -0.1)">
       <use xlink:href="#ArialMT-30"/>
      </g>
     </g>
    </g>
    <g id="ytick_2">
     <g id="line2d_17">
      <path d="M 72 438.72 
L 518.4 438.72 
" clip-path="url(#p8c234b68b3)" style="fill: none; stroke: #ffffff; stroke-width: 0.8; stroke-linecap: round"/>
     </g>
     <g id="line2d_18"/>
     <g id="text_10">
      <!-- 20 -->
      <g style="fill: #262626" transform="translate(57.378125 442.298906) scale(0.1 -0.1)">
       <use xlink:href="#ArialMT-32"/>
       <use xlink:href="#ArialMT-30" transform="translate(55.615234 0)"/>
      </g>
     </g>
    </g>
    <g id="ytick_3">
     <g id="line2d_19">
      <path d="M 72 364.8 
L 518.4 364.8 
" clip-path="url(#p8c234b68b3)" style="fill: none; stroke: #ffffff; stroke-width: 0.8; stroke-linecap: round"/>
     </g>
     <g id="line2d_20"/>
     <g id="text_11">
      <!-- 40 -->
      <g style="fill: #262626" transform="translate(57.378125 368.378906) scale(0.1 -0.1)">
       <use xlink:href="#ArialMT-34"/>
       <use xlink:href="#ArialMT-30" transform="translate(55.615234 0)"/>
      </g>
     </g>
    </g>
    <g id="ytick_4">
     <g id="line2d_21">
      <path d="M 72 290.88 
L 518.4 290.88 
" clip-path="url(#p8c234b68b3)" style="fill: none; stroke: #ffffff; stroke-width: 0.8; stroke-linecap: round"/>
     </g>
     <g id="line2d_22"/>
     <g id="text_12">
      <!-- 60 -->
      <g style="fill: #262626" transform="translate(57.378125 294.458906) scale(0.1 -0.1)">
       <use xlink:href="#ArialMT-36"/>
       <use xlink:href="#ArialMT-30" transform="translate(55.615234 0)"/>
      </g>
     </g>
    </g>
    <g id="ytick_5">
     <g id="line2d_23">
      <path d="M 72 216.96 
L 518.4 216.96 
" clip-path="url(#p8c234b68b3)" style="fill: none; stroke: #ffffff; stroke-width: 0.8; stroke-linecap: round"/>
     </g>
     <g id="line2d_24"/>
     <g id="text_13">
      <!-- 80 -->
      <g style="fill: #262626" transform="translate(57.378125 220.538906) scale(0.1 -0.1)">
       <use xlink:href="#ArialMT-38"/>
       <use xlink:href="#ArialMT-30" transform="translate(55.615234 0)"/>
      </g>
     </g>
    </g>
    <g id="ytick_6">
     <g id="line2d_25">
      <path d="M 72 143.04 
L 518.4 143.04 
" clip-path="url(#p8c234b68b3)" style="fill: none; stroke: #ffffff; stroke-width: 0.8; stroke-linecap: round"/>
     </g>
     <g id="line2d_26"/>
     <g id="text_14">
      <!-- 100 -->
      <g style="fill: #262626" transform="translate(51.817188 146.618906) scale(0.1 -0.1)">
       <use xlink:href="#ArialMT-31"/>
       <use xlink:href="#ArialMT-30" transform="translate(55.615234 0)"/>
       <use xlink:href="#ArialMT-30" transform="translate(111.230469 0)"/>
      </g>
     </g>
    </g>
    <g id="ytick_7">
     <g id="line2d_27">
      <path d="M 72 69.12 
L 518.4 69.12 
" clip-path="url(#p8c234b68b3)" style="fill: none; stroke: #ffffff; stroke-width: 0.8; stroke-linecap: round"/>
     </g>
     <g id="line2d_28"/>
     <g id="text_15">
      <!-- 120 -->
      <g style="fill: #262626" transform="translate(51.817188 72.698906) scale(0.1 -0.1)">
       <use xlink:href="#ArialMT-31"/>
       <use xlink:href="#ArialMT-32" transform="translate(55.615234 0)"/>
       <use xlink:href="#ArialMT-30" transform="translate(111.230469 0)"/>
      </g>
     </g>
    </g>
    <g id="text_16">
     <!-- Period 2 Consumption $C_2$ -->
     <g style="fill: #262626" transform="translate(45.817188 347.63) rotate(-90) scale(0.1 -0.1)">
      <defs>
       <path id="DejaVuSans-32" d="M 1228 531 
L 3431 531 
L 3431 0 
L 469 0 
L 469 531 
Q 828 903 1448 1529 
Q 2069 2156 2228 2338 
Q 2531 2678 2651 2914 
Q 2772 3150 2772 3378 
Q 2772 3750 2511 3984 
Q 2250 4219 1831 4219 
Q 1534 4219 1204 4116 
Q 875 4013 500 3803 
L 500 4441 
Q 881 4594 1212 4672 
Q 1544 4750 1819 4750 
Q 2544 4750 2975 4387 
Q 3406 4025 3406 3419 
Q 3406 3131 3298 2873 
Q 3191 2616 2906 2266 
Q 2828 2175 2409 1742 
Q 1991 1309 1228 531 
z
" transform="scale(0.015625)"/>
      </defs>
      <use xlink:href="#ArialMT-50" transform="translate(0 0.78125)"/>
      <use xlink:href="#ArialMT-65" transform="translate(66.699219 0.78125)"/>
      <use xlink:href="#ArialMT-72" transform="translate(122.314453 0.78125)"/>
      <use xlink:href="#ArialMT-69" transform="translate(155.615234 0.78125)"/>
      <use xlink:href="#ArialMT-6f" transform="translate(177.832031 0.78125)"/>
      <use xlink:href="#ArialMT-64" transform="translate(233.447266 0.78125)"/>
      <use xlink:href="#ArialMT-20" transform="translate(289.0625 0.78125)"/>
      <use xlink:href="#ArialMT-32" transform="translate(316.845703 0.78125)"/>
      <use xlink:href="#ArialMT-20" transform="translate(372.460938 0.78125)"/>
      <use xlink:href="#ArialMT-43" transform="translate(400.244141 0.78125)"/>
      <use xlink:href="#ArialMT-6f" transform="translate(472.460938 0.78125)"/>
      <use xlink:href="#ArialMT-6e" transform="translate(528.076172 0.78125)"/>
      <use xlink:href="#ArialMT-73" transform="translate(583.691406 0.78125)"/>
      <use xlink:href="#ArialMT-75" transform="translate(633.691406 0.78125)"/>
      <use xlink:href="#ArialMT-6d" transform="translate(689.306641 0.78125)"/>
      <use xlink:href="#ArialMT-70" transform="translate(772.607422 0.78125)"/>
      <use xlink:href="#ArialMT-74" transform="translate(828.222656 0.78125)"/>
      <use xlink:href="#ArialMT-69" transform="translate(856.005859 0.78125)"/>
      <use xlink:href="#ArialMT-6f" transform="translate(878.222656 0.78125)"/>
      <use xlink:href="#ArialMT-6e" transform="translate(933.837891 0.78125)"/>
      <use xlink:href="#ArialMT-20" transform="translate(989.453125 0.78125)"/>
      <use xlink:href="#DejaVuSans-Oblique-43" transform="translate(1017.236328 0.78125)"/>
      <use xlink:href="#DejaVuSans-32" transform="translate(1087.060547 -15.625) scale(0.7)"/>
     </g>
    </g>
   </g>
   <g id="line2d_29">
    <path d="M 72 143.04 
L 113.333333 184.106667 
L 154.666667 225.173333 
L 196 266.24 
L 237.333333 307.306667 
L 278.666667 348.373333 
L 320 389.44 
L 361.333333 430.506667 
L 402.666667 471.573333 
L 444 512.64 
" clip-path="url(#p8c234b68b3)" style="fill: none; stroke: #000000; stroke-width: 1.5; stroke-linecap: round"/>
   </g>
   <g id="line2d_30">
    <path d="M 185.512338 -1 
L 196 19.84 
L 237.333333 101.973333 
L 278.666667 184.106667 
L 320 266.24 
L 361.333333 348.373333 
L 402.666667 430.506667 
L 444 512.64 
" clip-path="url(#p8c234b68b3)" style="fill: none; stroke-dasharray: 5.55,2.4; stroke-dashoffset: 0; stroke: #000000; stroke-width: 1.5"/>
   </g>
   <g id="line2d_31">
    <path d="M 187.19994 -1 
L 188.357697 21.853432 
L 190.107656 52.033306 
L 191.857615 77.981233 
L 193.607574 100.529026 
L 195.357534 120.303903 
L 197.107493 137.787753 
L 198.857452 153.356915 
L 200.957403 169.928065 
L 203.057354 184.574471 
L 205.157305 197.613066 
L 207.257256 209.294822 
L 209.357207 219.821059 
L 211.457158 229.355147 
L 213.907101 239.401669 
L 216.357044 248.452884 
L 218.806987 256.649717 
L 221.25693 264.10769 
L 223.706872 270.922396 
L 226.506807 278.024702 
L 229.306742 284.489724 
L 232.106677 290.399554 
L 234.906611 295.822763 
L 238.056538 301.413734 
L 241.206464 306.530702 
L 244.356391 311.231496 
L 247.506317 315.564904 
L 251.006236 319.999121 
L 254.506154 324.079047 
L 258.356064 328.206302 
L 262.205975 332.000121 
L 266.055885 335.499341 
L 270.255787 339.019366 
L 274.805681 342.523517 
L 279.355575 345.74412 
L 284.25546 348.933186 
L 289.505338 352.067185 
L 294.755216 354.943817 
L 300.355085 357.76277 
L 306.304946 360.509763 
L 312.604799 363.173816 
L 319.254644 365.746859 
L 326.254481 368.223331 
L 333.954301 370.707749 
L 342.004114 373.07148 
L 350.75391 375.405989 
L 360.203689 377.689883 
L 370.353453 379.906642 
L 381.2032 382.044082 
L 392.75293 384.093762 
L 405.352636 386.103324 
L 419.002318 388.053675 
L 434.051967 389.973054 
L 450.151592 391.800544 
L 468.001175 393.598229 
L 487.600718 395.341657 
L 508.95022 397.013398 
L 518.4 397.688513 
L 518.4 397.688513 
" clip-path="url(#p8c234b68b3)" style="fill: none; stroke: #0000ff; stroke-width: 1.5; stroke-linecap: round"/>
   </g>
   <g id="line2d_32">
    <path d="M 243.037956 -1 
L 244.940214 16.193813 
L 247.145535 34.32003 
L 249.350856 50.764599 
L 251.871222 67.784322 
L 254.391589 83.172473 
L 256.911956 97.152935 
L 259.432322 109.910419 
L 261.952689 121.598675 
L 264.788102 133.629737 
L 267.623514 144.624154 
L 270.458927 154.710375 
L 273.294339 163.996468 
L 276.129752 172.574012 
L 279.28021 181.368225 
L 282.430669 189.475132 
L 285.581127 196.972277 
L 288.731585 203.925961 
L 292.197089 211.015139 
L 295.662594 217.580787 
L 299.128098 223.678832 
L 302.593602 229.35751 
L 306.374152 235.123141 
L 310.154702 240.486407 
L 314.250298 245.889625 
L 318.345894 250.913058 
L 322.44149 255.59539 
L 326.852131 260.294876 
L 331.262773 264.674128 
L 335.988461 269.046699 
L 340.714148 273.121752 
L 345.754882 277.173558 
L 351.110661 281.178824 
L 356.46644 284.906684 
L 362.137265 288.582365 
L 368.123136 292.190315 
L 374.424053 295.717824 
L 381.040015 299.154777 
L 387.971024 302.493377 
L 395.217078 305.727884 
L 402.778178 308.854346 
L 410.654324 311.870348 
L 419.160562 314.88212 
L 427.981845 317.766156 
L 437.43322 320.616562 
L 447.199641 323.33131 
L 457.596154 325.993401 
L 468.622758 328.590131 
L 480.5945 331.17686 
L 493.196333 333.670104 
L 506.743304 336.120505 
L 518.4 338.061134 
L 518.4 338.061134 
" clip-path="url(#p8c234b68b3)" style="fill: none; stroke-dasharray: 5.55,2.4; stroke-dashoffset: 0; stroke: #0000ff; stroke-width: 1.5"/>
   </g>
   <g id="line2d_33">
    <path d="M 72 7.123463 
L 113.333333 48.190129 
L 154.666667 89.256796 
L 196 130.323463 
L 237.333333 171.390129 
L 278.666667 212.456796 
L 320 253.523463 
L 361.333333 294.590129 
L 402.666667 335.656796 
L 444 376.723463 
" clip-path="url(#p8c234b68b3)" style="fill: none; stroke: #000000; stroke-width: 1.5; stroke-linecap: round"/>
   </g>
   <g id="line2d_34">
    <defs>
     <path id="m5a24874782" d="M 0 3 
C 0.795609 3 1.55874 2.683901 2.12132 2.12132 
C 2.683901 1.55874 3 0.795609 3 0 
C 3 -0.795609 2.683901 -1.55874 2.12132 -2.12132 
C 1.55874 -2.683901 0.795609 -3 0 -3 
C -0.795609 -3 -1.55874 -2.683901 -2.12132 -2.12132 
C -2.683901 -1.55874 -3 -0.795609 -3 0 
C -3 0.795609 -2.683901 1.55874 -2.12132 2.12132 
C -1.55874 2.683901 -0.795609 3 0 3 
z
" style="stroke: #ff0000"/>
    </defs>
    <g clip-path="url(#p8c234b68b3)">
     <use xlink:href="#m5a24874782" x="261.777138" y="331.59277" style="fill: #ff0000; stroke: #ff0000"/>
    </g>
   </g>
   <g id="line2d_35">
    <defs>
     <path id="m4b025e80ee" d="M 0 3 
C 0.795609 3 1.55874 2.683901 2.12132 2.12132 
C 2.683901 1.55874 3 0.795609 3 0 
C 3 -0.795609 2.683901 -1.55874 2.12132 -2.12132 
C 1.55874 -2.683901 0.795609 -3 0 -3 
C -0.795609 -3 -1.55874 -2.683901 -2.12132 -2.12132 
C -2.683901 -1.55874 -3 -0.795609 -3 0 
C -3 0.795609 -2.683901 1.55874 -2.12132 2.12132 
C -1.55874 2.683901 -0.795609 3 0 3 
z
" style="stroke: #008000"/>
    </defs>
    <g clip-path="url(#p8c234b68b3)">
     <use xlink:href="#m4b025e80ee" x="328.99574" y="262.461166" style="fill: #008000; stroke: #008000"/>
    </g>
   </g>
   <g id="line2d_36">
    <defs>
     <path id="m79d21d2f4e" d="M 0 3 
C 0.795609 3 1.55874 2.683901 2.12132 2.12132 
C 2.683901 1.55874 3 0.795609 3 0 
C 3 -0.795609 2.683901 -1.55874 2.12132 -2.12132 
C 1.55874 -2.683901 0.795609 -3 0 -3 
C -0.795609 -3 -1.55874 -2.683901 -2.12132 -2.12132 
C -2.683901 -1.55874 -3 -0.795609 -3 0 
C -3 0.795609 -2.683901 1.55874 -2.12132 2.12132 
C -1.55874 2.683901 -0.795609 3 0 3 
z
" style="stroke: #bf00bf"/>
    </defs>
    <g clip-path="url(#p8c234b68b3)">
     <use xlink:href="#m79d21d2f4e" x="292.850373" y="212.291064" style="fill: #bf00bf; stroke: #bf00bf"/>
    </g>
   </g>
   <g id="patch_3">
    <path d="M 72 512.64 
L 72 69.12 
" style="fill: none"/>
   </g>
   <g id="patch_4">
    <path d="M 518.4 512.64 
L 518.4 69.12 
" style="fill: none"/>
   </g>
   <g id="patch_5">
    <path d="M 72 512.64 
L 518.4 512.64 
" style="fill: none"/>
   </g>
   <g id="patch_6">
    <path d="M 72 69.12 
L 518.4 69.12 
" style="fill: none"/>
   </g>
   <g id="legend_1">
    <g id="line2d_37">
     <path d="M 336.353125 81.899687 
L 346.353125 81.899687 
L 356.353125 81.899687 
" style="fill: none; stroke: #000000; stroke-width: 1.5; stroke-linecap: round"/>
    </g>
    <g id="text_17">
     <!-- Budget Constraint R Low -->
     <g style="fill: #262626" transform="translate(364.353125 85.399687) scale(0.1 -0.1)">
      <defs>
       <path id="ArialMT-42" d="M 469 0 
L 469 4581 
L 2188 4581 
Q 2713 4581 3030 4442 
Q 3347 4303 3526 4014 
Q 3706 3725 3706 3409 
Q 3706 3116 3547 2856 
Q 3388 2597 3066 2438 
Q 3481 2316 3704 2022 
Q 3928 1728 3928 1328 
Q 3928 1006 3792 729 
Q 3656 453 3456 303 
Q 3256 153 2954 76 
Q 2653 0 2216 0 
L 469 0 
z
M 1075 2656 
L 2066 2656 
Q 2469 2656 2644 2709 
Q 2875 2778 2992 2937 
Q 3109 3097 3109 3338 
Q 3109 3566 3000 3739 
Q 2891 3913 2687 3977 
Q 2484 4041 1991 4041 
L 1075 4041 
L 1075 2656 
z
M 1075 541 
L 2216 541 
Q 2509 541 2628 563 
Q 2838 600 2978 687 
Q 3119 775 3209 942 
Q 3300 1109 3300 1328 
Q 3300 1584 3169 1773 
Q 3038 1963 2805 2039 
Q 2572 2116 2134 2116 
L 1075 2116 
L 1075 541 
z
" transform="scale(0.015625)"/>
       <path id="ArialMT-67" d="M 319 -275 
L 866 -356 
Q 900 -609 1056 -725 
Q 1266 -881 1628 -881 
Q 2019 -881 2231 -725 
Q 2444 -569 2519 -288 
Q 2563 -116 2559 434 
Q 2191 0 1641 0 
Q 956 0 581 494 
Q 206 988 206 1678 
Q 206 2153 378 2554 
Q 550 2956 876 3175 
Q 1203 3394 1644 3394 
Q 2231 3394 2613 2919 
L 2613 3319 
L 3131 3319 
L 3131 450 
Q 3131 -325 2973 -648 
Q 2816 -972 2473 -1159 
Q 2131 -1347 1631 -1347 
Q 1038 -1347 672 -1080 
Q 306 -813 319 -275 
z
M 784 1719 
Q 784 1066 1043 766 
Q 1303 466 1694 466 
Q 2081 466 2343 764 
Q 2606 1063 2606 1700 
Q 2606 2309 2336 2618 
Q 2066 2928 1684 2928 
Q 1309 2928 1046 2623 
Q 784 2319 784 1719 
z
" transform="scale(0.015625)"/>
       <path id="ArialMT-61" d="M 2588 409 
Q 2275 144 1986 34 
Q 1697 -75 1366 -75 
Q 819 -75 525 192 
Q 231 459 231 875 
Q 231 1119 342 1320 
Q 453 1522 633 1644 
Q 813 1766 1038 1828 
Q 1203 1872 1538 1913 
Q 2219 1994 2541 2106 
Q 2544 2222 2544 2253 
Q 2544 2597 2384 2738 
Q 2169 2928 1744 2928 
Q 1347 2928 1158 2789 
Q 969 2650 878 2297 
L 328 2372 
Q 403 2725 575 2942 
Q 747 3159 1072 3276 
Q 1397 3394 1825 3394 
Q 2250 3394 2515 3294 
Q 2781 3194 2906 3042 
Q 3031 2891 3081 2659 
Q 3109 2516 3109 2141 
L 3109 1391 
Q 3109 606 3145 398 
Q 3181 191 3288 0 
L 2700 0 
Q 2613 175 2588 409 
z
M 2541 1666 
Q 2234 1541 1622 1453 
Q 1275 1403 1131 1340 
Q 988 1278 909 1158 
Q 831 1038 831 891 
Q 831 666 1001 516 
Q 1172 366 1500 366 
Q 1825 366 2078 508 
Q 2331 650 2450 897 
Q 2541 1088 2541 1459 
L 2541 1666 
z
" transform="scale(0.015625)"/>
       <path id="ArialMT-52" d="M 503 0 
L 503 4581 
L 2534 4581 
Q 3147 4581 3465 4457 
Q 3784 4334 3975 4021 
Q 4166 3709 4166 3331 
Q 4166 2844 3850 2509 
Q 3534 2175 2875 2084 
Q 3116 1969 3241 1856 
Q 3506 1613 3744 1247 
L 4541 0 
L 3778 0 
L 3172 953 
Q 2906 1366 2734 1584 
Q 2563 1803 2427 1890 
Q 2291 1978 2150 2013 
Q 2047 2034 1813 2034 
L 1109 2034 
L 1109 0 
L 503 0 
z
M 1109 2559 
L 2413 2559 
Q 2828 2559 3062 2645 
Q 3297 2731 3419 2920 
Q 3541 3109 3541 3331 
Q 3541 3656 3305 3865 
Q 3069 4075 2559 4075 
L 1109 4075 
L 1109 2559 
z
" transform="scale(0.015625)"/>
       <path id="ArialMT-4c" d="M 469 0 
L 469 4581 
L 1075 4581 
L 1075 541 
L 3331 541 
L 3331 0 
L 469 0 
z
" transform="scale(0.015625)"/>
       <path id="ArialMT-77" d="M 1034 0 
L 19 3319 
L 600 3319 
L 1128 1403 
L 1325 691 
Q 1338 744 1497 1375 
L 2025 3319 
L 2603 3319 
L 3100 1394 
L 3266 759 
L 3456 1400 
L 4025 3319 
L 4572 3319 
L 3534 0 
L 2950 0 
L 2422 1988 
L 2294 2553 
L 1622 0 
L 1034 0 
z
" transform="scale(0.015625)"/>
      </defs>
      <use xlink:href="#ArialMT-42"/>
      <use xlink:href="#ArialMT-75" transform="translate(66.699219 0)"/>
      <use xlink:href="#ArialMT-64" transform="translate(122.314453 0)"/>
      <use xlink:href="#ArialMT-67" transform="translate(177.929688 0)"/>
      <use xlink:href="#ArialMT-65" transform="translate(233.544922 0)"/>
      <use xlink:href="#ArialMT-74" transform="translate(289.160156 0)"/>
      <use xlink:href="#ArialMT-20" transform="translate(316.943359 0)"/>
      <use xlink:href="#ArialMT-43" transform="translate(344.726562 0)"/>
      <use xlink:href="#ArialMT-6f" transform="translate(416.943359 0)"/>
      <use xlink:href="#ArialMT-6e" transform="translate(472.558594 0)"/>
      <use xlink:href="#ArialMT-73" transform="translate(528.173828 0)"/>
      <use xlink:href="#ArialMT-74" transform="translate(578.173828 0)"/>
      <use xlink:href="#ArialMT-72" transform="translate(605.957031 0)"/>
      <use xlink:href="#ArialMT-61" transform="translate(639.257812 0)"/>
      <use xlink:href="#ArialMT-69" transform="translate(694.873047 0)"/>
      <use xlink:href="#ArialMT-6e" transform="translate(717.089844 0)"/>
      <use xlink:href="#ArialMT-74" transform="translate(772.705078 0)"/>
      <use xlink:href="#ArialMT-20" transform="translate(800.488281 0)"/>
      <use xlink:href="#ArialMT-52" transform="translate(828.271484 0)"/>
      <use xlink:href="#ArialMT-20" transform="translate(900.488281 0)"/>
      <use xlink:href="#ArialMT-4c" transform="translate(928.271484 0)"/>
      <use xlink:href="#ArialMT-6f" transform="translate(983.886719 0)"/>
      <use xlink:href="#ArialMT-77" transform="translate(1039.501953 0)"/>
     </g>
    </g>
    <g id="line2d_38">
     <path d="M 336.353125 96.284063 
L 346.353125 96.284063 
L 356.353125 96.284063 
" style="fill: none; stroke-dasharray: 5.55,2.4; stroke-dashoffset: 0; stroke: #000000; stroke-width: 1.5"/>
    </g>
    <g id="text_18">
     <!-- Budget Constraint R High -->
     <g style="fill: #262626" transform="translate(364.353125 99.784063) scale(0.1 -0.1)">
      <defs>
       <path id="ArialMT-48" d="M 513 0 
L 513 4581 
L 1119 4581 
L 1119 2700 
L 3500 2700 
L 3500 4581 
L 4106 4581 
L 4106 0 
L 3500 0 
L 3500 2159 
L 1119 2159 
L 1119 0 
L 513 0 
z
" transform="scale(0.015625)"/>
       <path id="ArialMT-68" d="M 422 0 
L 422 4581 
L 984 4581 
L 984 2938 
Q 1378 3394 1978 3394 
Q 2347 3394 2619 3248 
Q 2891 3103 3008 2847 
Q 3125 2591 3125 2103 
L 3125 0 
L 2563 0 
L 2563 2103 
Q 2563 2525 2380 2717 
Q 2197 2909 1863 2909 
Q 1613 2909 1392 2779 
Q 1172 2650 1078 2428 
Q 984 2206 984 1816 
L 984 0 
L 422 0 
z
" transform="scale(0.015625)"/>
      </defs>
      <use xlink:href="#ArialMT-42"/>
      <use xlink:href="#ArialMT-75" transform="translate(66.699219 0)"/>
      <use xlink:href="#ArialMT-64" transform="translate(122.314453 0)"/>
      <use xlink:href="#ArialMT-67" transform="translate(177.929688 0)"/>
      <use xlink:href="#ArialMT-65" transform="translate(233.544922 0)"/>
      <use xlink:href="#ArialMT-74" transform="translate(289.160156 0)"/>
      <use xlink:href="#ArialMT-20" transform="translate(316.943359 0)"/>
      <use xlink:href="#ArialMT-43" transform="translate(344.726562 0)"/>
      <use xlink:href="#ArialMT-6f" transform="translate(416.943359 0)"/>
      <use xlink:href="#ArialMT-6e" transform="translate(472.558594 0)"/>
      <use xlink:href="#ArialMT-73" transform="translate(528.173828 0)"/>
      <use xlink:href="#ArialMT-74" transform="translate(578.173828 0)"/>
      <use xlink:href="#ArialMT-72" transform="translate(605.957031 0)"/>
      <use xlink:href="#ArialMT-61" transform="translate(639.257812 0)"/>
      <use xlink:href="#ArialMT-69" transform="translate(694.873047 0)"/>
      <use xlink:href="#ArialMT-6e" transform="translate(717.089844 0)"/>
      <use xlink:href="#ArialMT-74" transform="translate(772.705078 0)"/>
      <use xlink:href="#ArialMT-20" transform="translate(800.488281 0)"/>
      <use xlink:href="#ArialMT-52" transform="translate(828.271484 0)"/>
      <use xlink:href="#ArialMT-20" transform="translate(900.488281 0)"/>
      <use xlink:href="#ArialMT-48" transform="translate(928.271484 0)"/>
      <use xlink:href="#ArialMT-69" transform="translate(1000.488281 0)"/>
      <use xlink:href="#ArialMT-67" transform="translate(1022.705078 0)"/>
      <use xlink:href="#ArialMT-68" transform="translate(1078.320312 0)"/>
     </g>
    </g>
    <g id="line2d_39">
     <path d="M 336.353125 110.546562 
L 346.353125 110.546562 
L 356.353125 110.546562 
" style="fill: none; stroke: #0000ff; stroke-width: 1.5; stroke-linecap: round"/>
    </g>
    <g id="text_19">
     <!-- Indiferrence Curve R Low -->
     <g style="fill: #262626" transform="translate(364.353125 114.046562) scale(0.1 -0.1)">
      <defs>
       <path id="ArialMT-49" d="M 597 0 
L 597 4581 
L 1203 4581 
L 1203 0 
L 597 0 
z
" transform="scale(0.015625)"/>
       <path id="ArialMT-66" d="M 556 0 
L 556 2881 
L 59 2881 
L 59 3319 
L 556 3319 
L 556 3672 
Q 556 4006 616 4169 
Q 697 4388 901 4523 
Q 1106 4659 1475 4659 
Q 1713 4659 2000 4603 
L 1916 4113 
Q 1741 4144 1584 4144 
Q 1328 4144 1222 4034 
Q 1116 3925 1116 3625 
L 1116 3319 
L 1763 3319 
L 1763 2881 
L 1116 2881 
L 1116 0 
L 556 0 
z
" transform="scale(0.015625)"/>
       <path id="ArialMT-63" d="M 2588 1216 
L 3141 1144 
Q 3050 572 2676 248 
Q 2303 -75 1759 -75 
Q 1078 -75 664 370 
Q 250 816 250 1647 
Q 250 2184 428 2587 
Q 606 2991 970 3192 
Q 1334 3394 1763 3394 
Q 2303 3394 2647 3120 
Q 2991 2847 3088 2344 
L 2541 2259 
Q 2463 2594 2264 2762 
Q 2066 2931 1784 2931 
Q 1359 2931 1093 2626 
Q 828 2322 828 1663 
Q 828 994 1084 691 
Q 1341 388 1753 388 
Q 2084 388 2306 591 
Q 2528 794 2588 1216 
z
" transform="scale(0.015625)"/>
       <path id="ArialMT-76" d="M 1344 0 
L 81 3319 
L 675 3319 
L 1388 1331 
Q 1503 1009 1600 663 
Q 1675 925 1809 1294 
L 2547 3319 
L 3125 3319 
L 1869 0 
L 1344 0 
z
" transform="scale(0.015625)"/>
      </defs>
      <use xlink:href="#ArialMT-49"/>
      <use xlink:href="#ArialMT-6e" transform="translate(27.783203 0)"/>
      <use xlink:href="#ArialMT-64" transform="translate(83.398438 0)"/>
      <use xlink:href="#ArialMT-69" transform="translate(139.013672 0)"/>
      <use xlink:href="#ArialMT-66" transform="translate(161.230469 0)"/>
      <use xlink:href="#ArialMT-65" transform="translate(189.013672 0)"/>
      <use xlink:href="#ArialMT-72" transform="translate(244.628906 0)"/>
      <use xlink:href="#ArialMT-72" transform="translate(277.929688 0)"/>
      <use xlink:href="#ArialMT-65" transform="translate(311.230469 0)"/>
      <use xlink:href="#ArialMT-6e" transform="translate(366.845703 0)"/>
      <use xlink:href="#ArialMT-63" transform="translate(422.460938 0)"/>
      <use xlink:href="#ArialMT-65" transform="translate(472.460938 0)"/>
      <use xlink:href="#ArialMT-20" transform="translate(528.076172 0)"/>
      <use xlink:href="#ArialMT-43" transform="translate(555.859375 0)"/>
      <use xlink:href="#ArialMT-75" transform="translate(628.076172 0)"/>
      <use xlink:href="#ArialMT-72" transform="translate(683.691406 0)"/>
      <use xlink:href="#ArialMT-76" transform="translate(716.992188 0)"/>
      <use xlink:href="#ArialMT-65" transform="translate(766.992188 0)"/>
      <use xlink:href="#ArialMT-20" transform="translate(822.607422 0)"/>
      <use xlink:href="#ArialMT-52" transform="translate(850.390625 0)"/>
      <use xlink:href="#ArialMT-20" transform="translate(922.607422 0)"/>
      <use xlink:href="#ArialMT-4c" transform="translate(950.390625 0)"/>
      <use xlink:href="#ArialMT-6f" transform="translate(1006.005859 0)"/>
      <use xlink:href="#ArialMT-77" transform="translate(1061.621094 0)"/>
     </g>
    </g>
    <g id="line2d_40">
     <path d="M 336.353125 124.81375 
L 346.353125 124.81375 
L 356.353125 124.81375 
" style="fill: none; stroke-dasharray: 5.55,2.4; stroke-dashoffset: 0; stroke: #0000ff; stroke-width: 1.5"/>
    </g>
    <g id="text_20">
     <!-- Indiferrence Curve R High -->
     <g style="fill: #262626" transform="translate(364.353125 128.31375) scale(0.1 -0.1)">
      <use xlink:href="#ArialMT-49"/>
      <use xlink:href="#ArialMT-6e" transform="translate(27.783203 0)"/>
      <use xlink:href="#ArialMT-64" transform="translate(83.398438 0)"/>
      <use xlink:href="#ArialMT-69" transform="translate(139.013672 0)"/>
      <use xlink:href="#ArialMT-66" transform="translate(161.230469 0)"/>
      <use xlink:href="#ArialMT-65" transform="translate(189.013672 0)"/>
      <use xlink:href="#ArialMT-72" transform="translate(244.628906 0)"/>
      <use xlink:href="#ArialMT-72" transform="translate(277.929688 0)"/>
      <use xlink:href="#ArialMT-65" transform="translate(311.230469 0)"/>
      <use xlink:href="#ArialMT-6e" transform="translate(366.845703 0)"/>
      <use xlink:href="#ArialMT-63" transform="translate(422.460938 0)"/>
      <use xlink:href="#ArialMT-65" transform="translate(472.460938 0)"/>
      <use xlink:href="#ArialMT-20" transform="translate(528.076172 0)"/>
      <use xlink:href="#ArialMT-43" transform="translate(555.859375 0)"/>
      <use xlink:href="#ArialMT-75" transform="translate(628.076172 0)"/>
      <use xlink:href="#ArialMT-72" transform="translate(683.691406 0)"/>
      <use xlink:href="#ArialMT-76" transform="translate(716.992188 0)"/>
      <use xlink:href="#ArialMT-65" transform="translate(766.992188 0)"/>
      <use xlink:href="#ArialMT-20" transform="translate(822.607422 0)"/>
      <use xlink:href="#ArialMT-52" transform="translate(850.390625 0)"/>
      <use xlink:href="#ArialMT-20" transform="translate(922.607422 0)"/>
      <use xlink:href="#ArialMT-48" transform="translate(950.390625 0)"/>
      <use xlink:href="#ArialMT-69" transform="translate(1022.607422 0)"/>
      <use xlink:href="#ArialMT-67" transform="translate(1044.824219 0)"/>
      <use xlink:href="#ArialMT-68" transform="translate(1100.439453 0)"/>
     </g>
    </g>
    <g id="line2d_41">
     <g>
      <use xlink:href="#m5a24874782" x="346.353125" y="139.204375" style="fill: #ff0000; stroke: #ff0000"/>
     </g>
    </g>
    <g id="text_21">
     <!-- A: Optimal Consumption R Low -->
     <g style="fill: #262626" transform="translate(364.353125 142.704375) scale(0.1 -0.1)">
      <defs>
       <path id="ArialMT-41" d="M -9 0 
L 1750 4581 
L 2403 4581 
L 4278 0 
L 3588 0 
L 3053 1388 
L 1138 1388 
L 634 0 
L -9 0 
z
M 1313 1881 
L 2866 1881 
L 2388 3150 
Q 2169 3728 2063 4100 
Q 1975 3659 1816 3225 
L 1313 1881 
z
" transform="scale(0.015625)"/>
       <path id="ArialMT-3a" d="M 578 2678 
L 578 3319 
L 1219 3319 
L 1219 2678 
L 578 2678 
z
M 578 0 
L 578 641 
L 1219 641 
L 1219 0 
L 578 0 
z
" transform="scale(0.015625)"/>
       <path id="ArialMT-4f" d="M 309 2231 
Q 309 3372 921 4017 
Q 1534 4663 2503 4663 
Q 3138 4663 3647 4359 
Q 4156 4056 4423 3514 
Q 4691 2972 4691 2284 
Q 4691 1588 4409 1038 
Q 4128 488 3612 205 
Q 3097 -78 2500 -78 
Q 1853 -78 1343 234 
Q 834 547 571 1087 
Q 309 1628 309 2231 
z
M 934 2222 
Q 934 1394 1379 917 
Q 1825 441 2497 441 
Q 3181 441 3623 922 
Q 4066 1403 4066 2288 
Q 4066 2847 3877 3264 
Q 3688 3681 3323 3911 
Q 2959 4141 2506 4141 
Q 1863 4141 1398 3698 
Q 934 3256 934 2222 
z
" transform="scale(0.015625)"/>
       <path id="ArialMT-6c" d="M 409 0 
L 409 4581 
L 972 4581 
L 972 0 
L 409 0 
z
" transform="scale(0.015625)"/>
      </defs>
      <use xlink:href="#ArialMT-41"/>
      <use xlink:href="#ArialMT-3a" transform="translate(66.699219 0)"/>
      <use xlink:href="#ArialMT-20" transform="translate(94.482422 0)"/>
      <use xlink:href="#ArialMT-4f" transform="translate(122.265625 0)"/>
      <use xlink:href="#ArialMT-70" transform="translate(200.048828 0)"/>
      <use xlink:href="#ArialMT-74" transform="translate(255.664062 0)"/>
      <use xlink:href="#ArialMT-69" transform="translate(283.447266 0)"/>
      <use xlink:href="#ArialMT-6d" transform="translate(305.664062 0)"/>
      <use xlink:href="#ArialMT-61" transform="translate(388.964844 0)"/>
      <use xlink:href="#ArialMT-6c" transform="translate(444.580078 0)"/>
      <use xlink:href="#ArialMT-20" transform="translate(466.796875 0)"/>
      <use xlink:href="#ArialMT-43" transform="translate(494.580078 0)"/>
      <use xlink:href="#ArialMT-6f" transform="translate(566.796875 0)"/>
      <use xlink:href="#ArialMT-6e" transform="translate(622.412109 0)"/>
      <use xlink:href="#ArialMT-73" transform="translate(678.027344 0)"/>
      <use xlink:href="#ArialMT-75" transform="translate(728.027344 0)"/>
      <use xlink:href="#ArialMT-6d" transform="translate(783.642578 0)"/>
      <use xlink:href="#ArialMT-70" transform="translate(866.943359 0)"/>
      <use xlink:href="#ArialMT-74" transform="translate(922.558594 0)"/>
      <use xlink:href="#ArialMT-69" transform="translate(950.341797 0)"/>
      <use xlink:href="#ArialMT-6f" transform="translate(972.558594 0)"/>
      <use xlink:href="#ArialMT-6e" transform="translate(1028.173828 0)"/>
      <use xlink:href="#ArialMT-20" transform="translate(1083.789062 0)"/>
      <use xlink:href="#ArialMT-52" transform="translate(1111.572266 0)"/>
      <use xlink:href="#ArialMT-20" transform="translate(1183.789062 0)"/>
      <use xlink:href="#ArialMT-4c" transform="translate(1211.572266 0)"/>
      <use xlink:href="#ArialMT-6f" transform="translate(1267.1875 0)"/>
      <use xlink:href="#ArialMT-77" transform="translate(1322.802734 0)"/>
     </g>
    </g>
    <g id="line2d_42">
     <g>
      <use xlink:href="#m4b025e80ee" x="346.353125" y="159.631875" style="fill: #008000; stroke: #008000"/>
     </g>
    </g>
    <g id="text_22">
     <!-- B: Income effect AB  -->
     <g style="fill: #262626" transform="translate(364.353125 156.849688) scale(0.1 -0.1)">
      <use xlink:href="#ArialMT-42"/>
      <use xlink:href="#ArialMT-3a" transform="translate(66.699219 0)"/>
      <use xlink:href="#ArialMT-20" transform="translate(94.482422 0)"/>
      <use xlink:href="#ArialMT-49" transform="translate(122.265625 0)"/>
      <use xlink:href="#ArialMT-6e" transform="translate(150.048828 0)"/>
      <use xlink:href="#ArialMT-63" transform="translate(205.664062 0)"/>
      <use xlink:href="#ArialMT-6f" transform="translate(255.664062 0)"/>
      <use xlink:href="#ArialMT-6d" transform="translate(311.279297 0)"/>
      <use xlink:href="#ArialMT-65" transform="translate(394.580078 0)"/>
      <use xlink:href="#ArialMT-20" transform="translate(450.195312 0)"/>
      <use xlink:href="#ArialMT-65" transform="translate(477.978516 0)"/>
      <use xlink:href="#ArialMT-66" transform="translate(533.59375 0)"/>
      <use xlink:href="#ArialMT-66" transform="translate(559.626953 0)"/>
      <use xlink:href="#ArialMT-65" transform="translate(587.410156 0)"/>
      <use xlink:href="#ArialMT-63" transform="translate(643.025391 0)"/>
      <use xlink:href="#ArialMT-74" transform="translate(693.025391 0)"/>
      <use xlink:href="#ArialMT-20" transform="translate(720.808594 0)"/>
      <use xlink:href="#ArialMT-41" transform="translate(743.091797 0)"/>
      <use xlink:href="#ArialMT-42" transform="translate(809.791016 0)"/>
      <use xlink:href="#ArialMT-20" transform="translate(876.490234 0)"/>
     </g>
     <!--      Substitution effect BC  -->
     <g style="fill: #262626" transform="translate(364.353125 167.426562) scale(0.1 -0.1)">
      <defs>
       <path id="ArialMT-53" d="M 288 1472 
L 859 1522 
Q 900 1178 1048 958 
Q 1197 738 1509 602 
Q 1822 466 2213 466 
Q 2559 466 2825 569 
Q 3091 672 3220 851 
Q 3350 1031 3350 1244 
Q 3350 1459 3225 1620 
Q 3100 1781 2813 1891 
Q 2628 1963 1997 2114 
Q 1366 2266 1113 2400 
Q 784 2572 623 2826 
Q 463 3081 463 3397 
Q 463 3744 659 4045 
Q 856 4347 1234 4503 
Q 1613 4659 2075 4659 
Q 2584 4659 2973 4495 
Q 3363 4331 3572 4012 
Q 3781 3694 3797 3291 
L 3216 3247 
Q 3169 3681 2898 3903 
Q 2628 4125 2100 4125 
Q 1550 4125 1298 3923 
Q 1047 3722 1047 3438 
Q 1047 3191 1225 3031 
Q 1400 2872 2139 2705 
Q 2878 2538 3153 2413 
Q 3553 2228 3743 1945 
Q 3934 1663 3934 1294 
Q 3934 928 3725 604 
Q 3516 281 3123 101 
Q 2731 -78 2241 -78 
Q 1619 -78 1198 103 
Q 778 284 539 648 
Q 300 1013 288 1472 
z
" transform="scale(0.015625)"/>
       <path id="ArialMT-62" d="M 941 0 
L 419 0 
L 419 4581 
L 981 4581 
L 981 2947 
Q 1338 3394 1891 3394 
Q 2197 3394 2470 3270 
Q 2744 3147 2920 2923 
Q 3097 2700 3197 2384 
Q 3297 2069 3297 1709 
Q 3297 856 2875 390 
Q 2453 -75 1863 -75 
Q 1275 -75 941 416 
L 941 0 
z
M 934 1684 
Q 934 1088 1097 822 
Q 1363 388 1816 388 
Q 2184 388 2453 708 
Q 2722 1028 2722 1663 
Q 2722 2313 2464 2622 
Q 2206 2931 1841 2931 
Q 1472 2931 1203 2611 
Q 934 2291 934 1684 
z
" transform="scale(0.015625)"/>
      </defs>
      <use xlink:href="#ArialMT-20"/>
      <use xlink:href="#ArialMT-20" transform="translate(27.783203 0)"/>
      <use xlink:href="#ArialMT-20" transform="translate(55.566406 0)"/>
      <use xlink:href="#ArialMT-20" transform="translate(83.349609 0)"/>
      <use xlink:href="#ArialMT-20" transform="translate(111.132812 0)"/>
      <use xlink:href="#ArialMT-53" transform="translate(138.916016 0)"/>
      <use xlink:href="#ArialMT-75" transform="translate(205.615234 0)"/>
      <use xlink:href="#ArialMT-62" transform="translate(261.230469 0)"/>
      <use xlink:href="#ArialMT-73" transform="translate(316.845703 0)"/>
      <use xlink:href="#ArialMT-74" transform="translate(366.845703 0)"/>
      <use xlink:href="#ArialMT-69" transform="translate(394.628906 0)"/>
      <use xlink:href="#ArialMT-74" transform="translate(416.845703 0)"/>
      <use xlink:href="#ArialMT-75" transform="translate(444.628906 0)"/>
      <use xlink:href="#ArialMT-74" transform="translate(500.244141 0)"/>
      <use xlink:href="#ArialMT-69" transform="translate(528.027344 0)"/>
      <use xlink:href="#ArialMT-6f" transform="translate(550.244141 0)"/>
      <use xlink:href="#ArialMT-6e" transform="translate(605.859375 0)"/>
      <use xlink:href="#ArialMT-20" transform="translate(661.474609 0)"/>
      <use xlink:href="#ArialMT-65" transform="translate(689.257812 0)"/>
      <use xlink:href="#ArialMT-66" transform="translate(744.873047 0)"/>
      <use xlink:href="#ArialMT-66" transform="translate(770.90625 0)"/>
      <use xlink:href="#ArialMT-65" transform="translate(798.689453 0)"/>
      <use xlink:href="#ArialMT-63" transform="translate(854.304688 0)"/>
      <use xlink:href="#ArialMT-74" transform="translate(904.304688 0)"/>
      <use xlink:href="#ArialMT-20" transform="translate(932.087891 0)"/>
      <use xlink:href="#ArialMT-42" transform="translate(959.871094 0)"/>
      <use xlink:href="#ArialMT-43" transform="translate(1026.570312 0)"/>
      <use xlink:href="#ArialMT-20" transform="translate(1098.787109 0)"/>
     </g>
    </g>
    <g id="line2d_43">
     <g>
      <use xlink:href="#m79d21d2f4e" x="346.353125" y="178.2" style="fill: #bf00bf; stroke: #bf00bf"/>
     </g>
    </g>
    <g id="text_23">
     <!-- C: Optimal Consumption R High  -->
     <g style="fill: #262626" transform="translate(364.353125 181.7) scale(0.1 -0.1)">
      <use xlink:href="#ArialMT-43"/>
      <use xlink:href="#ArialMT-3a" transform="translate(72.216797 0)"/>
      <use xlink:href="#ArialMT-20" transform="translate(100 0)"/>
      <use xlink:href="#ArialMT-4f" transform="translate(127.783203 0)"/>
      <use xlink:href="#ArialMT-70" transform="translate(205.566406 0)"/>
      <use xlink:href="#ArialMT-74" transform="translate(261.181641 0)"/>
      <use xlink:href="#ArialMT-69" transform="translate(288.964844 0)"/>
      <use xlink:href="#ArialMT-6d" transform="translate(311.181641 0)"/>
      <use xlink:href="#ArialMT-61" transform="translate(394.482422 0)"/>
      <use xlink:href="#ArialMT-6c" transform="translate(450.097656 0)"/>
      <use xlink:href="#ArialMT-20" transform="translate(472.314453 0)"/>
      <use xlink:href="#ArialMT-43" transform="translate(500.097656 0)"/>
      <use xlink:href="#ArialMT-6f" transform="translate(572.314453 0)"/>
      <use xlink:href="#ArialMT-6e" transform="translate(627.929688 0)"/>
      <use xlink:href="#ArialMT-73" transform="translate(683.544922 0)"/>
      <use xlink:href="#ArialMT-75" transform="translate(733.544922 0)"/>
      <use xlink:href="#ArialMT-6d" transform="translate(789.160156 0)"/>
      <use xlink:href="#ArialMT-70" transform="translate(872.460938 0)"/>
      <use xlink:href="#ArialMT-74" transform="translate(928.076172 0)"/>
      <use xlink:href="#ArialMT-69" transform="translate(955.859375 0)"/>
      <use xlink:href="#ArialMT-6f" transform="translate(978.076172 0)"/>
      <use xlink:href="#ArialMT-6e" transform="translate(1033.691406 0)"/>
      <use xlink:href="#ArialMT-20" transform="translate(1089.306641 0)"/>
      <use xlink:href="#ArialMT-52" transform="translate(1117.089844 0)"/>
      <use xlink:href="#ArialMT-20" transform="translate(1189.306641 0)"/>
      <use xlink:href="#ArialMT-48" transform="translate(1217.089844 0)"/>
      <use xlink:href="#ArialMT-69" transform="translate(1289.306641 0)"/>
      <use xlink:href="#ArialMT-67" transform="translate(1311.523438 0)"/>
      <use xlink:href="#ArialMT-68" transform="translate(1367.138672 0)"/>
      <use xlink:href="#ArialMT-20" transform="translate(1422.753906 0)"/>
     </g>
    </g>
   </g>
  </g>
 </g>
 <defs>
  <clipPath id="p8c234b68b3">
   <rect x="72" y="69.12" width="446.4" height="443.52"/>
  </clipPath>
 </defs>
</svg>
